<?xml version="1.0" encoding="utf-8"?>
<svg xmlns="http://www.w3.org/2000/svg" xmlns:xlink="http://www.w3.org/1999/xlink" width="600" height="400" viewBox="0 0 2400 1600">
<defs>
  <clipPath id="clip060">
    <rect x="0" y="0" width="2400" height="1600"/>
  </clipPath>
</defs>
<path clip-path="url(#clip060)" d="M0 1600 L2400 1600 L2400 0 L0 0  Z" fill="#ffffff" fill-rule="evenodd" fill-opacity="1"/>
<defs>
  <clipPath id="clip061">
    <rect x="480" y="0" width="1681" height="1600"/>
  </clipPath>
</defs>
<path clip-path="url(#clip060)" d="M247.459 1423.18 L2352.76 1423.18 L2352.76 123.472 L247.459 123.472  Z" fill="#ffffff" fill-rule="evenodd" fill-opacity="1"/>
<defs>
  <clipPath id="clip062">
    <rect x="247" y="123" width="2106" height="1301"/>
  </clipPath>
</defs>
<polyline clip-path="url(#clip062)" style="stroke:#000000; stroke-linecap:round; stroke-linejoin:round; stroke-width:2; stroke-opacity:0.1; fill:none" points="304.387,1423.18 304.387,123.472 "/>
<polyline clip-path="url(#clip062)" style="stroke:#000000; stroke-linecap:round; stroke-linejoin:round; stroke-width:2; stroke-opacity:0.1; fill:none" points="702.049,1423.18 702.049,123.472 "/>
<polyline clip-path="url(#clip062)" style="stroke:#000000; stroke-linecap:round; stroke-linejoin:round; stroke-width:2; stroke-opacity:0.1; fill:none" points="1099.71,1423.18 1099.71,123.472 "/>
<polyline clip-path="url(#clip062)" style="stroke:#000000; stroke-linecap:round; stroke-linejoin:round; stroke-width:2; stroke-opacity:0.1; fill:none" points="1497.37,1423.18 1497.37,123.472 "/>
<polyline clip-path="url(#clip062)" style="stroke:#000000; stroke-linecap:round; stroke-linejoin:round; stroke-width:2; stroke-opacity:0.1; fill:none" points="1896.12,1423.18 1896.12,123.472 "/>
<polyline clip-path="url(#clip062)" style="stroke:#000000; stroke-linecap:round; stroke-linejoin:round; stroke-width:2; stroke-opacity:0.1; fill:none" points="2293.78,1423.18 2293.78,123.472 "/>
<polyline clip-path="url(#clip060)" style="stroke:#000000; stroke-linecap:round; stroke-linejoin:round; stroke-width:4; stroke-opacity:1; fill:none" points="247.459,1423.18 2352.76,1423.18 "/>
<polyline clip-path="url(#clip060)" style="stroke:#000000; stroke-linecap:round; stroke-linejoin:round; stroke-width:4; stroke-opacity:1; fill:none" points="304.387,1423.18 304.387,1404.28 "/>
<polyline clip-path="url(#clip060)" style="stroke:#000000; stroke-linecap:round; stroke-linejoin:round; stroke-width:4; stroke-opacity:1; fill:none" points="702.049,1423.18 702.049,1404.28 "/>
<polyline clip-path="url(#clip060)" style="stroke:#000000; stroke-linecap:round; stroke-linejoin:round; stroke-width:4; stroke-opacity:1; fill:none" points="1099.71,1423.18 1099.71,1404.28 "/>
<polyline clip-path="url(#clip060)" style="stroke:#000000; stroke-linecap:round; stroke-linejoin:round; stroke-width:4; stroke-opacity:1; fill:none" points="1497.37,1423.18 1497.37,1404.28 "/>
<polyline clip-path="url(#clip060)" style="stroke:#000000; stroke-linecap:round; stroke-linejoin:round; stroke-width:4; stroke-opacity:1; fill:none" points="1896.12,1423.18 1896.12,1404.28 "/>
<polyline clip-path="url(#clip060)" style="stroke:#000000; stroke-linecap:round; stroke-linejoin:round; stroke-width:4; stroke-opacity:1; fill:none" points="2293.78,1423.18 2293.78,1404.28 "/>
<path clip-path="url(#clip060)" d="M176.182 1481.64 L192.501 1481.64 L192.501 1485.58 L170.557 1485.58 L170.557 1481.64 Q173.219 1478.89 177.802 1474.26 Q182.408 1469.61 183.589 1468.27 Q185.834 1465.74 186.714 1464.01 Q187.617 1462.25 187.617 1460.56 Q187.617 1457.8 185.672 1456.07 Q183.751 1454.33 180.649 1454.33 Q178.45 1454.33 175.996 1455.09 Q173.566 1455.86 170.788 1457.41 L170.788 1452.69 Q173.612 1451.55 176.066 1450.97 Q178.52 1450.39 180.557 1450.39 Q185.927 1450.39 189.121 1453.08 Q192.316 1455.77 192.316 1460.26 Q192.316 1462.39 191.506 1464.31 Q190.719 1466.2 188.612 1468.8 Q188.033 1469.47 184.932 1472.69 Q181.83 1475.88 176.182 1481.64 Z" fill="#000000" fill-rule="nonzero" fill-opacity="1" /><path clip-path="url(#clip060)" d="M212.316 1454.1 Q208.705 1454.1 206.876 1457.66 Q205.07 1461.2 205.07 1468.33 Q205.07 1475.44 206.876 1479.01 Q208.705 1482.55 212.316 1482.55 Q215.95 1482.55 217.755 1479.01 Q219.584 1475.44 219.584 1468.33 Q219.584 1461.2 217.755 1457.66 Q215.95 1454.1 212.316 1454.1 M212.316 1450.39 Q218.126 1450.39 221.181 1455 Q224.26 1459.58 224.26 1468.33 Q224.26 1477.06 221.181 1481.67 Q218.126 1486.25 212.316 1486.25 Q206.506 1486.25 203.427 1481.67 Q200.371 1477.06 200.371 1468.33 Q200.371 1459.58 203.427 1455 Q206.506 1450.39 212.316 1450.39 Z" fill="#000000" fill-rule="nonzero" fill-opacity="1" /><path clip-path="url(#clip060)" d="M233.288 1481.64 L240.927 1481.64 L240.927 1455.28 L232.617 1456.95 L232.617 1452.69 L240.88 1451.02 L245.556 1451.02 L245.556 1481.64 L253.195 1481.64 L253.195 1485.58 L233.288 1485.58 L233.288 1481.64 Z" fill="#000000" fill-rule="nonzero" fill-opacity="1" /><path clip-path="url(#clip060)" d="M261.459 1451.02 L283.681 1451.02 L283.681 1453.01 L271.135 1485.58 L266.251 1485.58 L278.056 1454.96 L261.459 1454.96 L261.459 1451.02 Z" fill="#000000" fill-rule="nonzero" fill-opacity="1" /><path clip-path="url(#clip060)" d="M290.047 1470.7 L302.524 1470.7 L302.524 1474.49 L290.047 1474.49 L290.047 1470.7 Z" fill="#000000" fill-rule="nonzero" fill-opacity="1" /><path clip-path="url(#clip060)" d="M319.908 1454.1 Q316.297 1454.1 314.468 1457.66 Q312.662 1461.2 312.662 1468.33 Q312.662 1475.44 314.468 1479.01 Q316.297 1482.55 319.908 1482.55 Q323.542 1482.55 325.348 1479.01 Q327.176 1475.44 327.176 1468.33 Q327.176 1461.2 325.348 1457.66 Q323.542 1454.1 319.908 1454.1 M319.908 1450.39 Q325.718 1450.39 328.773 1455 Q331.852 1459.58 331.852 1468.33 Q331.852 1477.06 328.773 1481.67 Q325.718 1486.25 319.908 1486.25 Q314.098 1486.25 311.019 1481.67 Q307.963 1477.06 307.963 1468.33 Q307.963 1459.58 311.019 1455 Q314.098 1450.39 319.908 1450.39 Z" fill="#000000" fill-rule="nonzero" fill-opacity="1" /><path clip-path="url(#clip060)" d="M340.88 1481.64 L348.519 1481.64 L348.519 1455.28 L340.209 1456.95 L340.209 1452.69 L348.472 1451.02 L353.148 1451.02 L353.148 1481.64 L360.787 1481.64 L360.787 1485.58 L340.88 1485.58 L340.88 1481.64 Z" fill="#000000" fill-rule="nonzero" fill-opacity="1" /><path clip-path="url(#clip060)" d="M367.477 1470.7 L379.954 1470.7 L379.954 1474.49 L367.477 1474.49 L367.477 1470.7 Z" fill="#000000" fill-rule="nonzero" fill-opacity="1" /><path clip-path="url(#clip060)" d="M397.338 1454.1 Q393.727 1454.1 391.898 1457.66 Q390.093 1461.2 390.093 1468.33 Q390.093 1475.44 391.898 1479.01 Q393.727 1482.55 397.338 1482.55 Q400.972 1482.55 402.778 1479.01 Q404.606 1475.44 404.606 1468.33 Q404.606 1461.2 402.778 1457.66 Q400.972 1454.1 397.338 1454.1 M397.338 1450.39 Q403.148 1450.39 406.204 1455 Q409.282 1459.58 409.282 1468.33 Q409.282 1477.06 406.204 1481.67 Q403.148 1486.25 397.338 1486.25 Q391.528 1486.25 388.449 1481.67 Q385.393 1477.06 385.393 1468.33 Q385.393 1459.58 388.449 1455 Q391.528 1450.39 397.338 1450.39 Z" fill="#000000" fill-rule="nonzero" fill-opacity="1" /><path clip-path="url(#clip060)" d="M418.31 1481.64 L425.949 1481.64 L425.949 1455.28 L417.639 1456.95 L417.639 1452.69 L425.903 1451.02 L430.578 1451.02 L430.578 1481.64 L438.217 1481.64 L438.217 1485.58 L418.31 1485.58 L418.31 1481.64 Z" fill="#000000" fill-rule="nonzero" fill-opacity="1" /><path clip-path="url(#clip060)" d="M573.843 1481.64 L590.163 1481.64 L590.163 1485.58 L568.218 1485.58 L568.218 1481.64 Q570.88 1478.89 575.464 1474.26 Q580.07 1469.61 581.251 1468.27 Q583.496 1465.74 584.376 1464.01 Q585.278 1462.25 585.278 1460.56 Q585.278 1457.8 583.334 1456.07 Q581.413 1454.33 578.311 1454.33 Q576.112 1454.33 573.658 1455.09 Q571.228 1455.86 568.45 1457.41 L568.45 1452.69 Q571.274 1451.55 573.728 1450.97 Q576.181 1450.39 578.218 1450.39 Q583.589 1450.39 586.783 1453.08 Q589.977 1455.77 589.977 1460.26 Q589.977 1462.39 589.167 1464.31 Q588.38 1466.2 586.274 1468.8 Q585.695 1469.47 582.593 1472.69 Q579.491 1475.88 573.843 1481.64 Z" fill="#000000" fill-rule="nonzero" fill-opacity="1" /><path clip-path="url(#clip060)" d="M609.977 1454.1 Q606.366 1454.1 604.538 1457.66 Q602.732 1461.2 602.732 1468.33 Q602.732 1475.44 604.538 1479.01 Q606.366 1482.55 609.977 1482.55 Q613.612 1482.55 615.417 1479.01 Q617.246 1475.44 617.246 1468.33 Q617.246 1461.2 615.417 1457.66 Q613.612 1454.1 609.977 1454.1 M609.977 1450.39 Q615.788 1450.39 618.843 1455 Q621.922 1459.58 621.922 1468.33 Q621.922 1477.06 618.843 1481.67 Q615.788 1486.25 609.977 1486.25 Q604.167 1486.25 601.089 1481.67 Q598.033 1477.06 598.033 1468.33 Q598.033 1459.58 601.089 1455 Q604.167 1450.39 609.977 1450.39 Z" fill="#000000" fill-rule="nonzero" fill-opacity="1" /><path clip-path="url(#clip060)" d="M630.949 1481.64 L638.588 1481.64 L638.588 1455.28 L630.278 1456.95 L630.278 1452.69 L638.542 1451.02 L643.218 1451.02 L643.218 1481.64 L650.857 1481.64 L650.857 1485.58 L630.949 1485.58 L630.949 1481.64 Z" fill="#000000" fill-rule="nonzero" fill-opacity="1" /><path clip-path="url(#clip060)" d="M670.301 1469.17 Q666.968 1469.17 665.047 1470.95 Q663.148 1472.73 663.148 1475.86 Q663.148 1478.98 665.047 1480.77 Q666.968 1482.55 670.301 1482.55 Q673.634 1482.55 675.556 1480.77 Q677.477 1478.96 677.477 1475.86 Q677.477 1472.73 675.556 1470.95 Q673.658 1469.17 670.301 1469.17 M665.625 1467.18 Q662.616 1466.44 660.926 1464.38 Q659.26 1462.32 659.26 1459.35 Q659.26 1455.21 662.199 1452.8 Q665.162 1450.39 670.301 1450.39 Q675.463 1450.39 678.403 1452.8 Q681.343 1455.21 681.343 1459.35 Q681.343 1462.32 679.653 1464.38 Q677.986 1466.44 675 1467.18 Q678.38 1467.96 680.255 1470.26 Q682.153 1472.55 682.153 1475.86 Q682.153 1480.88 679.074 1483.57 Q676.019 1486.25 670.301 1486.25 Q664.584 1486.25 661.505 1483.57 Q658.449 1480.88 658.449 1475.86 Q658.449 1472.55 660.347 1470.26 Q662.246 1467.96 665.625 1467.18 M663.912 1459.79 Q663.912 1462.48 665.579 1463.98 Q667.269 1465.49 670.301 1465.49 Q673.31 1465.49 675 1463.98 Q676.713 1462.48 676.713 1459.79 Q676.713 1457.11 675 1455.6 Q673.31 1454.1 670.301 1454.1 Q667.269 1454.1 665.579 1455.6 Q663.912 1457.11 663.912 1459.79 Z" fill="#000000" fill-rule="nonzero" fill-opacity="1" /><path clip-path="url(#clip060)" d="M687.708 1470.7 L700.185 1470.7 L700.185 1474.49 L687.708 1474.49 L687.708 1470.7 Z" fill="#000000" fill-rule="nonzero" fill-opacity="1" /><path clip-path="url(#clip060)" d="M717.569 1454.1 Q713.958 1454.1 712.13 1457.66 Q710.324 1461.2 710.324 1468.33 Q710.324 1475.44 712.13 1479.01 Q713.958 1482.55 717.569 1482.55 Q721.204 1482.55 723.009 1479.01 Q724.838 1475.44 724.838 1468.33 Q724.838 1461.2 723.009 1457.66 Q721.204 1454.1 717.569 1454.1 M717.569 1450.39 Q723.38 1450.39 726.435 1455 Q729.514 1459.58 729.514 1468.33 Q729.514 1477.06 726.435 1481.67 Q723.38 1486.25 717.569 1486.25 Q711.759 1486.25 708.681 1481.67 Q705.625 1477.06 705.625 1468.33 Q705.625 1459.58 708.681 1455 Q711.759 1450.39 717.569 1450.39 Z" fill="#000000" fill-rule="nonzero" fill-opacity="1" /><path clip-path="url(#clip060)" d="M738.542 1481.64 L746.18 1481.64 L746.18 1455.28 L737.87 1456.95 L737.87 1452.69 L746.134 1451.02 L750.81 1451.02 L750.81 1481.64 L758.449 1481.64 L758.449 1485.58 L738.542 1485.58 L738.542 1481.64 Z" fill="#000000" fill-rule="nonzero" fill-opacity="1" /><path clip-path="url(#clip060)" d="M765.139 1470.7 L777.615 1470.7 L777.615 1474.49 L765.139 1474.49 L765.139 1470.7 Z" fill="#000000" fill-rule="nonzero" fill-opacity="1" /><path clip-path="url(#clip060)" d="M795 1454.1 Q791.388 1454.1 789.56 1457.66 Q787.754 1461.2 787.754 1468.33 Q787.754 1475.44 789.56 1479.01 Q791.388 1482.55 795 1482.55 Q798.634 1482.55 800.439 1479.01 Q802.268 1475.44 802.268 1468.33 Q802.268 1461.2 800.439 1457.66 Q798.634 1454.1 795 1454.1 M795 1450.39 Q800.81 1450.39 803.865 1455 Q806.944 1459.58 806.944 1468.33 Q806.944 1477.06 803.865 1481.67 Q800.81 1486.25 795 1486.25 Q789.189 1486.25 786.111 1481.67 Q783.055 1477.06 783.055 1468.33 Q783.055 1459.58 786.111 1455 Q789.189 1450.39 795 1450.39 Z" fill="#000000" fill-rule="nonzero" fill-opacity="1" /><path clip-path="url(#clip060)" d="M815.972 1481.64 L823.611 1481.64 L823.611 1455.28 L815.3 1456.95 L815.3 1452.69 L823.564 1451.02 L828.24 1451.02 L828.24 1481.64 L835.879 1481.64 L835.879 1485.58 L815.972 1485.58 L815.972 1481.64 Z" fill="#000000" fill-rule="nonzero" fill-opacity="1" /><path clip-path="url(#clip060)" d="M971.505 1481.64 L987.824 1481.64 L987.824 1485.58 L965.88 1485.58 L965.88 1481.64 Q968.542 1478.89 973.125 1474.26 Q977.732 1469.61 978.912 1468.27 Q981.158 1465.74 982.037 1464.01 Q982.94 1462.25 982.94 1460.56 Q982.94 1457.8 980.996 1456.07 Q979.074 1454.33 975.973 1454.33 Q973.774 1454.33 971.32 1455.09 Q968.889 1455.86 966.112 1457.41 L966.112 1452.69 Q968.936 1451.55 971.389 1450.97 Q973.843 1450.39 975.88 1450.39 Q981.25 1450.39 984.445 1453.08 Q987.639 1455.77 987.639 1460.26 Q987.639 1462.39 986.829 1464.31 Q986.042 1466.2 983.935 1468.8 Q983.357 1469.47 980.255 1472.69 Q977.153 1475.88 971.505 1481.64 Z" fill="#000000" fill-rule="nonzero" fill-opacity="1" /><path clip-path="url(#clip060)" d="M1007.64 1454.1 Q1004.03 1454.1 1002.2 1457.66 Q1000.39 1461.2 1000.39 1468.33 Q1000.39 1475.44 1002.2 1479.01 Q1004.03 1482.55 1007.64 1482.55 Q1011.27 1482.55 1013.08 1479.01 Q1014.91 1475.44 1014.91 1468.33 Q1014.91 1461.2 1013.08 1457.66 Q1011.27 1454.1 1007.64 1454.1 M1007.64 1450.39 Q1013.45 1450.39 1016.5 1455 Q1019.58 1459.58 1019.58 1468.33 Q1019.58 1477.06 1016.5 1481.67 Q1013.45 1486.25 1007.64 1486.25 Q1001.83 1486.25 998.75 1481.67 Q995.695 1477.06 995.695 1468.33 Q995.695 1459.58 998.75 1455 Q1001.83 1450.39 1007.64 1450.39 Z" fill="#000000" fill-rule="nonzero" fill-opacity="1" /><path clip-path="url(#clip060)" d="M1028.61 1481.64 L1036.25 1481.64 L1036.25 1455.28 L1027.94 1456.95 L1027.94 1452.69 L1036.2 1451.02 L1040.88 1451.02 L1040.88 1481.64 L1048.52 1481.64 L1048.52 1485.58 L1028.61 1485.58 L1028.61 1481.64 Z" fill="#000000" fill-rule="nonzero" fill-opacity="1" /><path clip-path="url(#clip060)" d="M1058.1 1484.86 L1058.1 1480.6 Q1059.86 1481.44 1061.67 1481.88 Q1063.47 1482.32 1065.21 1482.32 Q1069.84 1482.32 1072.27 1479.21 Q1074.72 1476.09 1075.07 1469.75 Q1073.73 1471.74 1071.67 1472.8 Q1069.61 1473.87 1067.11 1473.87 Q1061.92 1473.87 1058.89 1470.74 Q1055.88 1467.59 1055.88 1462.15 Q1055.88 1456.83 1059.03 1453.61 Q1062.18 1450.39 1067.41 1450.39 Q1073.4 1450.39 1076.55 1455 Q1079.72 1459.58 1079.72 1468.33 Q1079.72 1476.51 1075.83 1481.39 Q1071.97 1486.25 1065.42 1486.25 Q1063.66 1486.25 1061.85 1485.9 Q1060.05 1485.56 1058.1 1484.86 M1067.41 1470.21 Q1070.56 1470.21 1072.38 1468.06 Q1074.24 1465.9 1074.24 1462.15 Q1074.24 1458.43 1072.38 1456.27 Q1070.56 1454.1 1067.41 1454.1 Q1064.26 1454.1 1062.41 1456.27 Q1060.58 1458.43 1060.58 1462.15 Q1060.58 1465.9 1062.41 1468.06 Q1064.26 1470.21 1067.41 1470.21 Z" fill="#000000" fill-rule="nonzero" fill-opacity="1" /><path clip-path="url(#clip060)" d="M1085.37 1470.7 L1097.85 1470.7 L1097.85 1474.49 L1085.37 1474.49 L1085.37 1470.7 Z" fill="#000000" fill-rule="nonzero" fill-opacity="1" /><path clip-path="url(#clip060)" d="M1115.23 1454.1 Q1111.62 1454.1 1109.79 1457.66 Q1107.99 1461.2 1107.99 1468.33 Q1107.99 1475.44 1109.79 1479.01 Q1111.62 1482.55 1115.23 1482.55 Q1118.87 1482.55 1120.67 1479.01 Q1122.5 1475.44 1122.5 1468.33 Q1122.5 1461.2 1120.67 1457.66 Q1118.87 1454.1 1115.23 1454.1 M1115.23 1450.39 Q1121.04 1450.39 1124.1 1455 Q1127.18 1459.58 1127.18 1468.33 Q1127.18 1477.06 1124.1 1481.67 Q1121.04 1486.25 1115.23 1486.25 Q1109.42 1486.25 1106.34 1481.67 Q1103.29 1477.06 1103.29 1468.33 Q1103.29 1459.58 1106.34 1455 Q1109.42 1450.39 1115.23 1450.39 Z" fill="#000000" fill-rule="nonzero" fill-opacity="1" /><path clip-path="url(#clip060)" d="M1136.2 1481.64 L1143.84 1481.64 L1143.84 1455.28 L1135.53 1456.95 L1135.53 1452.69 L1143.8 1451.02 L1148.47 1451.02 L1148.47 1481.64 L1156.11 1481.64 L1156.11 1485.58 L1136.2 1485.58 L1136.2 1481.64 Z" fill="#000000" fill-rule="nonzero" fill-opacity="1" /><path clip-path="url(#clip060)" d="M1162.8 1470.7 L1175.28 1470.7 L1175.28 1474.49 L1162.8 1474.49 L1162.8 1470.7 Z" fill="#000000" fill-rule="nonzero" fill-opacity="1" /><path clip-path="url(#clip060)" d="M1192.66 1454.1 Q1189.05 1454.1 1187.22 1457.66 Q1185.42 1461.2 1185.42 1468.33 Q1185.42 1475.44 1187.22 1479.01 Q1189.05 1482.55 1192.66 1482.55 Q1196.3 1482.55 1198.1 1479.01 Q1199.93 1475.44 1199.93 1468.33 Q1199.93 1461.2 1198.1 1457.66 Q1196.3 1454.1 1192.66 1454.1 M1192.66 1450.39 Q1198.47 1450.39 1201.53 1455 Q1204.61 1459.58 1204.61 1468.33 Q1204.61 1477.06 1201.53 1481.67 Q1198.47 1486.25 1192.66 1486.25 Q1186.85 1486.25 1183.77 1481.67 Q1180.72 1477.06 1180.72 1468.33 Q1180.72 1459.58 1183.77 1455 Q1186.85 1450.39 1192.66 1450.39 Z" fill="#000000" fill-rule="nonzero" fill-opacity="1" /><path clip-path="url(#clip060)" d="M1213.63 1481.64 L1221.27 1481.64 L1221.27 1455.28 L1212.96 1456.95 L1212.96 1452.69 L1221.23 1451.02 L1225.9 1451.02 L1225.9 1481.64 L1233.54 1481.64 L1233.54 1485.58 L1213.63 1485.58 L1213.63 1481.64 Z" fill="#000000" fill-rule="nonzero" fill-opacity="1" /><path clip-path="url(#clip060)" d="M1369.17 1481.64 L1385.49 1481.64 L1385.49 1485.58 L1363.54 1485.58 L1363.54 1481.64 Q1366.2 1478.89 1370.79 1474.26 Q1375.39 1469.61 1376.57 1468.27 Q1378.82 1465.74 1379.7 1464.01 Q1380.6 1462.25 1380.6 1460.56 Q1380.6 1457.8 1378.66 1456.07 Q1376.74 1454.33 1373.63 1454.33 Q1371.44 1454.33 1368.98 1455.09 Q1366.55 1455.86 1363.77 1457.41 L1363.77 1452.69 Q1366.6 1451.55 1369.05 1450.97 Q1371.5 1450.39 1373.54 1450.39 Q1378.91 1450.39 1382.11 1453.08 Q1385.3 1455.77 1385.3 1460.26 Q1385.3 1462.39 1384.49 1464.31 Q1383.7 1466.2 1381.6 1468.8 Q1381.02 1469.47 1377.92 1472.69 Q1374.81 1475.88 1369.17 1481.64 Z" fill="#000000" fill-rule="nonzero" fill-opacity="1" /><path clip-path="url(#clip060)" d="M1405.3 1454.1 Q1401.69 1454.1 1399.86 1457.66 Q1398.06 1461.2 1398.06 1468.33 Q1398.06 1475.44 1399.86 1479.01 Q1401.69 1482.55 1405.3 1482.55 Q1408.93 1482.55 1410.74 1479.01 Q1412.57 1475.44 1412.57 1468.33 Q1412.57 1461.2 1410.74 1457.66 Q1408.93 1454.1 1405.3 1454.1 M1405.3 1450.39 Q1411.11 1450.39 1414.17 1455 Q1417.25 1459.58 1417.25 1468.33 Q1417.25 1477.06 1414.17 1481.67 Q1411.11 1486.25 1405.3 1486.25 Q1399.49 1486.25 1396.41 1481.67 Q1393.36 1477.06 1393.36 1468.33 Q1393.36 1459.58 1396.41 1455 Q1399.49 1450.39 1405.3 1450.39 Z" fill="#000000" fill-rule="nonzero" fill-opacity="1" /><path clip-path="url(#clip060)" d="M1429.49 1481.64 L1445.81 1481.64 L1445.81 1485.58 L1423.87 1485.58 L1423.87 1481.64 Q1426.53 1478.89 1431.11 1474.26 Q1435.72 1469.61 1436.9 1468.27 Q1439.14 1465.74 1440.02 1464.01 Q1440.93 1462.25 1440.93 1460.56 Q1440.93 1457.8 1438.98 1456.07 Q1437.06 1454.33 1433.96 1454.33 Q1431.76 1454.33 1429.31 1455.09 Q1426.87 1455.86 1424.1 1457.41 L1424.1 1452.69 Q1426.92 1451.55 1429.37 1450.97 Q1431.83 1450.39 1433.87 1450.39 Q1439.24 1450.39 1442.43 1453.08 Q1445.62 1455.77 1445.62 1460.26 Q1445.62 1462.39 1444.81 1464.31 Q1444.03 1466.2 1441.92 1468.8 Q1441.34 1469.47 1438.24 1472.69 Q1435.14 1475.88 1429.49 1481.64 Z" fill="#000000" fill-rule="nonzero" fill-opacity="1" /><path clip-path="url(#clip060)" d="M1465.62 1454.1 Q1462.01 1454.1 1460.18 1457.66 Q1458.38 1461.2 1458.38 1468.33 Q1458.38 1475.44 1460.18 1479.01 Q1462.01 1482.55 1465.62 1482.55 Q1469.26 1482.55 1471.06 1479.01 Q1472.89 1475.44 1472.89 1468.33 Q1472.89 1461.2 1471.06 1457.66 Q1469.26 1454.1 1465.62 1454.1 M1465.62 1450.39 Q1471.43 1450.39 1474.49 1455 Q1477.57 1459.58 1477.57 1468.33 Q1477.57 1477.06 1474.49 1481.67 Q1471.43 1486.25 1465.62 1486.25 Q1459.81 1486.25 1456.74 1481.67 Q1453.68 1477.06 1453.68 1468.33 Q1453.68 1459.58 1456.74 1455 Q1459.81 1450.39 1465.62 1450.39 Z" fill="#000000" fill-rule="nonzero" fill-opacity="1" /><path clip-path="url(#clip060)" d="M1483.03 1470.7 L1495.51 1470.7 L1495.51 1474.49 L1483.03 1474.49 L1483.03 1470.7 Z" fill="#000000" fill-rule="nonzero" fill-opacity="1" /><path clip-path="url(#clip060)" d="M1512.89 1454.1 Q1509.28 1454.1 1507.45 1457.66 Q1505.65 1461.2 1505.65 1468.33 Q1505.65 1475.44 1507.45 1479.01 Q1509.28 1482.55 1512.89 1482.55 Q1516.53 1482.55 1518.33 1479.01 Q1520.16 1475.44 1520.16 1468.33 Q1520.16 1461.2 1518.33 1457.66 Q1516.53 1454.1 1512.89 1454.1 M1512.89 1450.39 Q1518.7 1450.39 1521.76 1455 Q1524.84 1459.58 1524.84 1468.33 Q1524.84 1477.06 1521.76 1481.67 Q1518.7 1486.25 1512.89 1486.25 Q1507.08 1486.25 1504 1481.67 Q1500.95 1477.06 1500.95 1468.33 Q1500.95 1459.58 1504 1455 Q1507.08 1450.39 1512.89 1450.39 Z" fill="#000000" fill-rule="nonzero" fill-opacity="1" /><path clip-path="url(#clip060)" d="M1533.86 1481.64 L1541.5 1481.64 L1541.5 1455.28 L1533.19 1456.95 L1533.19 1452.69 L1541.46 1451.02 L1546.13 1451.02 L1546.13 1481.64 L1553.77 1481.64 L1553.77 1485.58 L1533.86 1485.58 L1533.86 1481.64 Z" fill="#000000" fill-rule="nonzero" fill-opacity="1" /><path clip-path="url(#clip060)" d="M1560.46 1470.7 L1572.94 1470.7 L1572.94 1474.49 L1560.46 1474.49 L1560.46 1470.7 Z" fill="#000000" fill-rule="nonzero" fill-opacity="1" /><path clip-path="url(#clip060)" d="M1590.32 1454.1 Q1586.71 1454.1 1584.88 1457.66 Q1583.08 1461.2 1583.08 1468.33 Q1583.08 1475.44 1584.88 1479.01 Q1586.71 1482.55 1590.32 1482.55 Q1593.96 1482.55 1595.76 1479.01 Q1597.59 1475.44 1597.59 1468.33 Q1597.59 1461.2 1595.76 1457.66 Q1593.96 1454.1 1590.32 1454.1 M1590.32 1450.39 Q1596.13 1450.39 1599.19 1455 Q1602.27 1459.58 1602.27 1468.33 Q1602.27 1477.06 1599.19 1481.67 Q1596.13 1486.25 1590.32 1486.25 Q1584.51 1486.25 1581.43 1481.67 Q1578.38 1477.06 1578.38 1468.33 Q1578.38 1459.58 1581.43 1455 Q1584.51 1450.39 1590.32 1450.39 Z" fill="#000000" fill-rule="nonzero" fill-opacity="1" /><path clip-path="url(#clip060)" d="M1611.3 1481.64 L1618.93 1481.64 L1618.93 1455.28 L1610.62 1456.95 L1610.62 1452.69 L1618.89 1451.02 L1623.56 1451.02 L1623.56 1481.64 L1631.2 1481.64 L1631.2 1485.58 L1611.3 1485.58 L1611.3 1481.64 Z" fill="#000000" fill-rule="nonzero" fill-opacity="1" /><path clip-path="url(#clip060)" d="M1767.92 1481.64 L1784.24 1481.64 L1784.24 1485.58 L1762.29 1485.58 L1762.29 1481.64 Q1764.95 1478.89 1769.54 1474.26 Q1774.14 1469.61 1775.33 1468.27 Q1777.57 1465.74 1778.45 1464.01 Q1779.35 1462.25 1779.35 1460.56 Q1779.35 1457.8 1777.41 1456.07 Q1775.49 1454.33 1772.39 1454.33 Q1770.19 1454.33 1767.73 1455.09 Q1765.3 1455.86 1762.52 1457.41 L1762.52 1452.69 Q1765.35 1451.55 1767.8 1450.97 Q1770.26 1450.39 1772.29 1450.39 Q1777.66 1450.39 1780.86 1453.08 Q1784.05 1455.77 1784.05 1460.26 Q1784.05 1462.39 1783.24 1464.31 Q1782.45 1466.2 1780.35 1468.8 Q1779.77 1469.47 1776.67 1472.69 Q1773.57 1475.88 1767.92 1481.64 Z" fill="#000000" fill-rule="nonzero" fill-opacity="1" /><path clip-path="url(#clip060)" d="M1804.05 1454.1 Q1800.44 1454.1 1798.61 1457.66 Q1796.81 1461.2 1796.81 1468.33 Q1796.81 1475.44 1798.61 1479.01 Q1800.44 1482.55 1804.05 1482.55 Q1807.69 1482.55 1809.49 1479.01 Q1811.32 1475.44 1811.32 1468.33 Q1811.32 1461.2 1809.49 1457.66 Q1807.69 1454.1 1804.05 1454.1 M1804.05 1450.39 Q1809.86 1450.39 1812.92 1455 Q1816 1459.58 1816 1468.33 Q1816 1477.06 1812.92 1481.67 Q1809.86 1486.25 1804.05 1486.25 Q1798.24 1486.25 1795.16 1481.67 Q1792.11 1477.06 1792.11 1468.33 Q1792.11 1459.58 1795.16 1455 Q1798.24 1450.39 1804.05 1450.39 Z" fill="#000000" fill-rule="nonzero" fill-opacity="1" /><path clip-path="url(#clip060)" d="M1828.24 1481.64 L1844.56 1481.64 L1844.56 1485.58 L1822.62 1485.58 L1822.62 1481.64 Q1825.28 1478.89 1829.86 1474.26 Q1834.47 1469.61 1835.65 1468.27 Q1837.89 1465.74 1838.77 1464.01 Q1839.68 1462.25 1839.68 1460.56 Q1839.68 1457.8 1837.73 1456.07 Q1835.81 1454.33 1832.71 1454.33 Q1830.51 1454.33 1828.06 1455.09 Q1825.63 1455.86 1822.85 1457.41 L1822.85 1452.69 Q1825.67 1451.55 1828.13 1450.97 Q1830.58 1450.39 1832.62 1450.39 Q1837.99 1450.39 1841.18 1453.08 Q1844.38 1455.77 1844.38 1460.26 Q1844.38 1462.39 1843.57 1464.31 Q1842.78 1466.2 1840.67 1468.8 Q1840.09 1469.47 1836.99 1472.69 Q1833.89 1475.88 1828.24 1481.64 Z" fill="#000000" fill-rule="nonzero" fill-opacity="1" /><path clip-path="url(#clip060)" d="M1855.19 1481.64 L1862.82 1481.64 L1862.82 1455.28 L1854.51 1456.95 L1854.51 1452.69 L1862.78 1451.02 L1867.45 1451.02 L1867.45 1481.64 L1875.09 1481.64 L1875.09 1485.58 L1855.19 1485.58 L1855.19 1481.64 Z" fill="#000000" fill-rule="nonzero" fill-opacity="1" /><path clip-path="url(#clip060)" d="M1881.78 1470.7 L1894.26 1470.7 L1894.26 1474.49 L1881.78 1474.49 L1881.78 1470.7 Z" fill="#000000" fill-rule="nonzero" fill-opacity="1" /><path clip-path="url(#clip060)" d="M1911.64 1454.1 Q1908.03 1454.1 1906.2 1457.66 Q1904.4 1461.2 1904.4 1468.33 Q1904.4 1475.44 1906.2 1479.01 Q1908.03 1482.55 1911.64 1482.55 Q1915.28 1482.55 1917.08 1479.01 Q1918.91 1475.44 1918.91 1468.33 Q1918.91 1461.2 1917.08 1457.66 Q1915.28 1454.1 1911.64 1454.1 M1911.64 1450.39 Q1917.45 1450.39 1920.51 1455 Q1923.59 1459.58 1923.59 1468.33 Q1923.59 1477.06 1920.51 1481.67 Q1917.45 1486.25 1911.64 1486.25 Q1905.83 1486.25 1902.76 1481.67 Q1899.7 1477.06 1899.7 1468.33 Q1899.7 1459.58 1902.76 1455 Q1905.83 1450.39 1911.64 1450.39 Z" fill="#000000" fill-rule="nonzero" fill-opacity="1" /><path clip-path="url(#clip060)" d="M1932.62 1481.64 L1940.25 1481.64 L1940.25 1455.28 L1931.94 1456.95 L1931.94 1452.69 L1940.21 1451.02 L1944.88 1451.02 L1944.88 1481.64 L1952.52 1481.64 L1952.52 1485.58 L1932.62 1485.58 L1932.62 1481.64 Z" fill="#000000" fill-rule="nonzero" fill-opacity="1" /><path clip-path="url(#clip060)" d="M1959.21 1470.7 L1971.69 1470.7 L1971.69 1474.49 L1959.21 1474.49 L1959.21 1470.7 Z" fill="#000000" fill-rule="nonzero" fill-opacity="1" /><path clip-path="url(#clip060)" d="M1989.07 1454.1 Q1985.46 1454.1 1983.63 1457.66 Q1981.83 1461.2 1981.83 1468.33 Q1981.83 1475.44 1983.63 1479.01 Q1985.46 1482.55 1989.07 1482.55 Q1992.71 1482.55 1994.51 1479.01 Q1996.34 1475.44 1996.34 1468.33 Q1996.34 1461.2 1994.51 1457.66 Q1992.71 1454.1 1989.07 1454.1 M1989.07 1450.39 Q1994.88 1450.39 1997.94 1455 Q2001.02 1459.58 2001.02 1468.33 Q2001.02 1477.06 1997.94 1481.67 Q1994.88 1486.25 1989.07 1486.25 Q1983.26 1486.25 1980.19 1481.67 Q1977.13 1477.06 1977.13 1468.33 Q1977.13 1459.58 1980.19 1455 Q1983.26 1450.39 1989.07 1450.39 Z" fill="#000000" fill-rule="nonzero" fill-opacity="1" /><path clip-path="url(#clip060)" d="M2010.05 1481.64 L2017.69 1481.64 L2017.69 1455.28 L2009.37 1456.95 L2009.37 1452.69 L2017.64 1451.02 L2022.31 1451.02 L2022.31 1481.64 L2029.95 1481.64 L2029.95 1485.58 L2010.05 1485.58 L2010.05 1481.64 Z" fill="#000000" fill-rule="nonzero" fill-opacity="1" /><path clip-path="url(#clip060)" d="M2165.58 1481.64 L2181.9 1481.64 L2181.9 1485.58 L2159.95 1485.58 L2159.95 1481.64 Q2162.62 1478.89 2167.2 1474.26 Q2171.81 1469.61 2172.99 1468.27 Q2175.23 1465.74 2176.11 1464.01 Q2177.01 1462.25 2177.01 1460.56 Q2177.01 1457.8 2175.07 1456.07 Q2173.15 1454.33 2170.05 1454.33 Q2167.85 1454.33 2165.39 1455.09 Q2162.96 1455.86 2160.19 1457.41 L2160.19 1452.69 Q2163.01 1451.55 2165.46 1450.97 Q2167.92 1450.39 2169.95 1450.39 Q2175.32 1450.39 2178.52 1453.08 Q2181.71 1455.77 2181.71 1460.26 Q2181.71 1462.39 2180.9 1464.31 Q2180.12 1466.2 2178.01 1468.8 Q2177.43 1469.47 2174.33 1472.69 Q2171.23 1475.88 2165.58 1481.64 Z" fill="#000000" fill-rule="nonzero" fill-opacity="1" /><path clip-path="url(#clip060)" d="M2201.71 1454.1 Q2198.1 1454.1 2196.27 1457.66 Q2194.47 1461.2 2194.47 1468.33 Q2194.47 1475.44 2196.27 1479.01 Q2198.1 1482.55 2201.71 1482.55 Q2205.35 1482.55 2207.15 1479.01 Q2208.98 1475.44 2208.98 1468.33 Q2208.98 1461.2 2207.15 1457.66 Q2205.35 1454.1 2201.71 1454.1 M2201.71 1450.39 Q2207.52 1450.39 2210.58 1455 Q2213.66 1459.58 2213.66 1468.33 Q2213.66 1477.06 2210.58 1481.67 Q2207.52 1486.25 2201.71 1486.25 Q2195.9 1486.25 2192.82 1481.67 Q2189.77 1477.06 2189.77 1468.33 Q2189.77 1459.58 2192.82 1455 Q2195.9 1450.39 2201.71 1450.39 Z" fill="#000000" fill-rule="nonzero" fill-opacity="1" /><path clip-path="url(#clip060)" d="M2225.9 1481.64 L2242.22 1481.64 L2242.22 1485.58 L2220.28 1485.58 L2220.28 1481.64 Q2222.94 1478.89 2227.52 1474.26 Q2232.13 1469.61 2233.31 1468.27 Q2235.56 1465.74 2236.44 1464.01 Q2237.34 1462.25 2237.34 1460.56 Q2237.34 1457.8 2235.39 1456.07 Q2233.47 1454.33 2230.37 1454.33 Q2228.17 1454.33 2225.72 1455.09 Q2223.29 1455.86 2220.51 1457.41 L2220.51 1452.69 Q2223.33 1451.55 2225.79 1450.97 Q2228.24 1450.39 2230.28 1450.39 Q2235.65 1450.39 2238.84 1453.08 Q2242.04 1455.77 2242.04 1460.26 Q2242.04 1462.39 2241.23 1464.31 Q2240.44 1466.2 2238.33 1468.8 Q2237.76 1469.47 2234.65 1472.69 Q2231.55 1475.88 2225.9 1481.64 Z" fill="#000000" fill-rule="nonzero" fill-opacity="1" /><path clip-path="url(#clip060)" d="M2256.07 1481.64 L2272.38 1481.64 L2272.38 1485.58 L2250.44 1485.58 L2250.44 1481.64 Q2253.1 1478.89 2257.69 1474.26 Q2262.29 1469.61 2263.47 1468.27 Q2265.72 1465.74 2266.6 1464.01 Q2267.5 1462.25 2267.5 1460.56 Q2267.5 1457.8 2265.56 1456.07 Q2263.63 1454.33 2260.53 1454.33 Q2258.33 1454.33 2255.88 1455.09 Q2253.45 1455.86 2250.67 1457.41 L2250.67 1452.69 Q2253.5 1451.55 2255.95 1450.97 Q2258.4 1450.39 2260.44 1450.39 Q2265.81 1450.39 2269 1453.08 Q2272.2 1455.77 2272.2 1460.26 Q2272.2 1462.39 2271.39 1464.31 Q2270.6 1466.2 2268.5 1468.8 Q2267.92 1469.47 2264.82 1472.69 Q2261.71 1475.88 2256.07 1481.64 Z" fill="#000000" fill-rule="nonzero" fill-opacity="1" /><path clip-path="url(#clip060)" d="M2279.44 1470.7 L2291.92 1470.7 L2291.92 1474.49 L2279.44 1474.49 L2279.44 1470.7 Z" fill="#000000" fill-rule="nonzero" fill-opacity="1" /><path clip-path="url(#clip060)" d="M2309.31 1454.1 Q2305.69 1454.1 2303.87 1457.66 Q2302.06 1461.2 2302.06 1468.33 Q2302.06 1475.44 2303.87 1479.01 Q2305.69 1482.55 2309.31 1482.55 Q2312.94 1482.55 2314.75 1479.01 Q2316.57 1475.44 2316.57 1468.33 Q2316.57 1461.2 2314.75 1457.66 Q2312.94 1454.1 2309.31 1454.1 M2309.31 1450.39 Q2315.12 1450.39 2318.17 1455 Q2321.25 1459.58 2321.25 1468.33 Q2321.25 1477.06 2318.17 1481.67 Q2315.12 1486.25 2309.31 1486.25 Q2303.5 1486.25 2300.42 1481.67 Q2297.36 1477.06 2297.36 1468.33 Q2297.36 1459.58 2300.42 1455 Q2303.5 1450.39 2309.31 1450.39 Z" fill="#000000" fill-rule="nonzero" fill-opacity="1" /><path clip-path="url(#clip060)" d="M2330.28 1481.64 L2337.92 1481.64 L2337.92 1455.28 L2329.61 1456.95 L2329.61 1452.69 L2337.87 1451.02 L2342.55 1451.02 L2342.55 1481.64 L2350.19 1481.64 L2350.19 1485.58 L2330.28 1485.58 L2330.28 1481.64 Z" fill="#000000" fill-rule="nonzero" fill-opacity="1" /><path clip-path="url(#clip060)" d="M2356.87 1470.7 L2369.35 1470.7 L2369.35 1474.49 L2356.87 1474.49 L2356.87 1470.7 Z" fill="#000000" fill-rule="nonzero" fill-opacity="1" /><path clip-path="url(#clip060)" d="M2386.74 1454.1 Q2383.12 1454.1 2381.3 1457.66 Q2379.49 1461.2 2379.49 1468.33 Q2379.49 1475.44 2381.3 1479.01 Q2383.12 1482.55 2386.74 1482.55 Q2390.37 1482.55 2392.18 1479.01 Q2394 1475.44 2394 1468.33 Q2394 1461.2 2392.18 1457.66 Q2390.37 1454.1 2386.74 1454.1 M2386.74 1450.39 Q2392.55 1450.39 2395.6 1455 Q2398.68 1459.58 2398.68 1468.33 Q2398.68 1477.06 2395.6 1481.67 Q2392.55 1486.25 2386.74 1486.25 Q2380.93 1486.25 2377.85 1481.67 Q2374.79 1477.06 2374.79 1468.33 Q2374.79 1459.58 2377.85 1455 Q2380.93 1450.39 2386.74 1450.39 Z" fill="#000000" fill-rule="nonzero" fill-opacity="1" /><path clip-path="url(#clip060)" d="M2407.71 1481.64 L2415.35 1481.64 L2415.35 1455.28 L2407.04 1456.95 L2407.04 1452.69 L2415.3 1451.02 L2419.98 1451.02 L2419.98 1481.64 L2427.62 1481.64 L2427.62 1485.58 L2407.71 1485.58 L2407.71 1481.64 Z" fill="#000000" fill-rule="nonzero" fill-opacity="1" /><path clip-path="url(#clip060)" d="M1256.15 1537.81 L1256.15 1518.52 L1262.01 1518.52 L1262.01 1568.04 L1256.15 1568.04 L1256.15 1562.7 Q1254.31 1565.88 1251.47 1567.44 Q1248.67 1568.97 1244.73 1568.97 Q1238.26 1568.97 1234.19 1563.81 Q1230.15 1558.65 1230.15 1550.25 Q1230.15 1541.85 1234.19 1536.69 Q1238.26 1531.54 1244.73 1531.54 Q1248.67 1531.54 1251.47 1533.1 Q1254.31 1534.62 1256.15 1537.81 M1236.2 1550.25 Q1236.2 1556.71 1238.84 1560.4 Q1241.51 1564.07 1246.16 1564.07 Q1250.8 1564.07 1253.48 1560.4 Q1256.15 1556.71 1256.15 1550.25 Q1256.15 1543.79 1253.48 1540.13 Q1250.8 1536.44 1246.16 1536.44 Q1241.51 1536.44 1238.84 1540.13 Q1236.2 1543.79 1236.2 1550.25 Z" fill="#000000" fill-rule="nonzero" fill-opacity="1" /><path clip-path="url(#clip060)" d="M1290.27 1550.12 Q1283.17 1550.12 1280.44 1551.75 Q1277.7 1553.37 1277.7 1557.29 Q1277.7 1560.4 1279.74 1562.25 Q1281.81 1564.07 1285.34 1564.07 Q1290.21 1564.07 1293.14 1560.63 Q1296.1 1557.16 1296.1 1551.43 L1296.1 1550.12 L1290.27 1550.12 M1301.95 1547.71 L1301.95 1568.04 L1296.1 1568.04 L1296.1 1562.63 Q1294.09 1565.88 1291.1 1567.44 Q1288.11 1568.97 1283.78 1568.97 Q1278.3 1568.97 1275.06 1565.91 Q1271.84 1562.82 1271.84 1557.67 Q1271.84 1551.65 1275.85 1548.6 Q1279.9 1545.54 1287.89 1545.54 L1296.1 1545.54 L1296.1 1544.97 Q1296.1 1540.93 1293.42 1538.73 Q1290.78 1536.5 1285.98 1536.5 Q1282.92 1536.5 1280.02 1537.23 Q1277.13 1537.97 1274.45 1539.43 L1274.45 1534.02 Q1277.67 1532.78 1280.69 1532.17 Q1283.72 1531.54 1286.58 1531.54 Q1294.31 1531.54 1298.13 1535.55 Q1301.95 1539.56 1301.95 1547.71 Z" fill="#000000" fill-rule="nonzero" fill-opacity="1" /><path clip-path="url(#clip060)" d="M1319.81 1522.27 L1319.81 1532.4 L1331.87 1532.4 L1331.87 1536.95 L1319.81 1536.95 L1319.81 1556.3 Q1319.81 1560.66 1320.99 1561.9 Q1322.2 1563.14 1325.86 1563.14 L1331.87 1563.14 L1331.87 1568.04 L1325.86 1568.04 Q1319.08 1568.04 1316.5 1565.53 Q1313.92 1562.98 1313.92 1556.3 L1313.92 1536.95 L1309.62 1536.95 L1309.62 1532.4 L1313.92 1532.4 L1313.92 1522.27 L1319.81 1522.27 Z" fill="#000000" fill-rule="nonzero" fill-opacity="1" /><path clip-path="url(#clip060)" d="M1370.07 1548.76 L1370.07 1551.62 L1343.14 1551.62 Q1343.52 1557.67 1346.77 1560.85 Q1350.05 1564 1355.87 1564 Q1359.24 1564 1362.4 1563.17 Q1365.58 1562.35 1368.7 1560.69 L1368.7 1566.23 Q1365.55 1567.57 1362.24 1568.27 Q1358.93 1568.97 1355.52 1568.97 Q1346.99 1568.97 1341.99 1564 Q1337.03 1559.04 1337.03 1550.57 Q1337.03 1541.82 1341.74 1536.69 Q1346.48 1531.54 1354.5 1531.54 Q1361.7 1531.54 1365.87 1536.18 Q1370.07 1540.8 1370.07 1548.76 M1364.21 1547.04 Q1364.15 1542.23 1361.5 1539.37 Q1358.89 1536.5 1354.57 1536.5 Q1349.66 1536.5 1346.7 1539.27 Q1343.78 1542.04 1343.33 1547.07 L1364.21 1547.04 Z" fill="#000000" fill-rule="nonzero" fill-opacity="1" /><polyline clip-path="url(#clip062)" style="stroke:#000000; stroke-linecap:round; stroke-linejoin:round; stroke-width:2; stroke-opacity:0.1; fill:none" points="247.459,1384.9 2352.76,1384.9 "/>
<polyline clip-path="url(#clip062)" style="stroke:#000000; stroke-linecap:round; stroke-linejoin:round; stroke-width:2; stroke-opacity:0.1; fill:none" points="247.459,1068.73 2352.76,1068.73 "/>
<polyline clip-path="url(#clip062)" style="stroke:#000000; stroke-linecap:round; stroke-linejoin:round; stroke-width:2; stroke-opacity:0.1; fill:none" points="247.459,752.566 2352.76,752.566 "/>
<polyline clip-path="url(#clip062)" style="stroke:#000000; stroke-linecap:round; stroke-linejoin:round; stroke-width:2; stroke-opacity:0.1; fill:none" points="247.459,436.399 2352.76,436.399 "/>
<polyline clip-path="url(#clip060)" style="stroke:#000000; stroke-linecap:round; stroke-linejoin:round; stroke-width:4; stroke-opacity:1; fill:none" points="247.459,1423.18 247.459,123.472 "/>
<polyline clip-path="url(#clip060)" style="stroke:#000000; stroke-linecap:round; stroke-linejoin:round; stroke-width:4; stroke-opacity:1; fill:none" points="247.459,1384.9 266.356,1384.9 "/>
<polyline clip-path="url(#clip060)" style="stroke:#000000; stroke-linecap:round; stroke-linejoin:round; stroke-width:4; stroke-opacity:1; fill:none" points="247.459,1068.73 266.356,1068.73 "/>
<polyline clip-path="url(#clip060)" style="stroke:#000000; stroke-linecap:round; stroke-linejoin:round; stroke-width:4; stroke-opacity:1; fill:none" points="247.459,752.566 266.356,752.566 "/>
<polyline clip-path="url(#clip060)" style="stroke:#000000; stroke-linecap:round; stroke-linejoin:round; stroke-width:4; stroke-opacity:1; fill:none" points="247.459,436.399 266.356,436.399 "/>
<path clip-path="url(#clip060)" d="M114.931 1398.24 L122.57 1398.24 L122.57 1371.88 L114.26 1373.54 L114.26 1369.29 L122.524 1367.62 L127.2 1367.62 L127.2 1398.24 L134.839 1398.24 L134.839 1402.18 L114.931 1402.18 L114.931 1398.24 Z" fill="#000000" fill-rule="nonzero" fill-opacity="1" /><path clip-path="url(#clip060)" d="M144.283 1396.3 L149.167 1396.3 L149.167 1402.18 L144.283 1402.18 L144.283 1396.3 Z" fill="#000000" fill-rule="nonzero" fill-opacity="1" /><path clip-path="url(#clip060)" d="M169.352 1370.7 Q165.741 1370.7 163.913 1374.26 Q162.107 1377.8 162.107 1384.93 Q162.107 1392.04 163.913 1395.6 Q165.741 1399.15 169.352 1399.15 Q172.987 1399.15 174.792 1395.6 Q176.621 1392.04 176.621 1384.93 Q176.621 1377.8 174.792 1374.26 Q172.987 1370.7 169.352 1370.7 M169.352 1366.99 Q175.163 1366.99 178.218 1371.6 Q181.297 1376.18 181.297 1384.93 Q181.297 1393.66 178.218 1398.27 Q175.163 1402.85 169.352 1402.85 Q163.542 1402.85 160.464 1398.27 Q157.408 1393.66 157.408 1384.93 Q157.408 1376.18 160.464 1371.6 Q163.542 1366.99 169.352 1366.99 Z" fill="#000000" fill-rule="nonzero" fill-opacity="1" /><path clip-path="url(#clip060)" d="M199.514 1370.7 Q195.903 1370.7 194.075 1374.26 Q192.269 1377.8 192.269 1384.93 Q192.269 1392.04 194.075 1395.6 Q195.903 1399.15 199.514 1399.15 Q203.149 1399.15 204.954 1395.6 Q206.783 1392.04 206.783 1384.93 Q206.783 1377.8 204.954 1374.26 Q203.149 1370.7 199.514 1370.7 M199.514 1366.99 Q205.324 1366.99 208.38 1371.6 Q211.459 1376.18 211.459 1384.93 Q211.459 1393.66 208.38 1398.27 Q205.324 1402.85 199.514 1402.85 Q193.704 1402.85 190.625 1398.27 Q187.57 1393.66 187.57 1384.93 Q187.57 1376.18 190.625 1371.6 Q193.704 1366.99 199.514 1366.99 Z" fill="#000000" fill-rule="nonzero" fill-opacity="1" /><path clip-path="url(#clip060)" d="M115.927 1082.08 L123.566 1082.08 L123.566 1055.71 L115.256 1057.38 L115.256 1053.12 L123.519 1051.45 L128.195 1051.45 L128.195 1082.08 L135.834 1082.08 L135.834 1086.01 L115.927 1086.01 L115.927 1082.08 Z" fill="#000000" fill-rule="nonzero" fill-opacity="1" /><path clip-path="url(#clip060)" d="M145.279 1080.13 L150.163 1080.13 L150.163 1086.01 L145.279 1086.01 L145.279 1080.13 Z" fill="#000000" fill-rule="nonzero" fill-opacity="1" /><path clip-path="url(#clip060)" d="M170.348 1054.53 Q166.737 1054.53 164.908 1058.1 Q163.102 1061.64 163.102 1068.77 Q163.102 1075.87 164.908 1079.44 Q166.737 1082.98 170.348 1082.98 Q173.982 1082.98 175.788 1079.44 Q177.616 1075.87 177.616 1068.77 Q177.616 1061.64 175.788 1058.1 Q173.982 1054.53 170.348 1054.53 M170.348 1050.83 Q176.158 1050.83 179.214 1055.43 Q182.292 1060.02 182.292 1068.77 Q182.292 1077.49 179.214 1082.1 Q176.158 1086.68 170.348 1086.68 Q164.538 1086.68 161.459 1082.1 Q158.403 1077.49 158.403 1068.77 Q158.403 1060.02 161.459 1055.43 Q164.538 1050.83 170.348 1050.83 Z" fill="#000000" fill-rule="nonzero" fill-opacity="1" /><path clip-path="url(#clip060)" d="M190.556 1051.45 L208.912 1051.45 L208.912 1055.39 L194.838 1055.39 L194.838 1063.86 Q195.857 1063.51 196.875 1063.35 Q197.894 1063.17 198.912 1063.17 Q204.699 1063.17 208.079 1066.34 Q211.459 1069.51 211.459 1074.92 Q211.459 1080.5 207.987 1083.6 Q204.514 1086.68 198.195 1086.68 Q196.019 1086.68 193.75 1086.31 Q191.505 1085.94 189.098 1085.2 L189.098 1080.5 Q191.181 1081.64 193.403 1082.19 Q195.625 1082.75 198.102 1082.75 Q202.107 1082.75 204.445 1080.64 Q206.783 1078.54 206.783 1074.92 Q206.783 1071.31 204.445 1069.21 Q202.107 1067.1 198.102 1067.1 Q196.227 1067.1 194.352 1067.52 Q192.5 1067.93 190.556 1068.81 L190.556 1051.45 Z" fill="#000000" fill-rule="nonzero" fill-opacity="1" /><path clip-path="url(#clip060)" d="M114.931 765.91 L122.57 765.91 L122.57 739.545 L114.26 741.211 L114.26 736.952 L122.524 735.286 L127.2 735.286 L127.2 765.91 L134.839 765.91 L134.839 769.846 L114.931 769.846 L114.931 765.91 Z" fill="#000000" fill-rule="nonzero" fill-opacity="1" /><path clip-path="url(#clip060)" d="M144.283 763.966 L149.167 763.966 L149.167 769.846 L144.283 769.846 L144.283 763.966 Z" fill="#000000" fill-rule="nonzero" fill-opacity="1" /><path clip-path="url(#clip060)" d="M160.163 765.91 L167.802 765.91 L167.802 739.545 L159.491 741.211 L159.491 736.952 L167.755 735.286 L172.431 735.286 L172.431 765.91 L180.07 765.91 L180.07 769.846 L160.163 769.846 L160.163 765.91 Z" fill="#000000" fill-rule="nonzero" fill-opacity="1" /><path clip-path="url(#clip060)" d="M199.514 738.364 Q195.903 738.364 194.075 741.929 Q192.269 745.471 192.269 752.6 Q192.269 759.707 194.075 763.272 Q195.903 766.813 199.514 766.813 Q203.149 766.813 204.954 763.272 Q206.783 759.707 206.783 752.6 Q206.783 745.471 204.954 741.929 Q203.149 738.364 199.514 738.364 M199.514 734.661 Q205.324 734.661 208.38 739.267 Q211.459 743.85 211.459 752.6 Q211.459 761.327 208.38 765.934 Q205.324 770.517 199.514 770.517 Q193.704 770.517 190.625 765.934 Q187.57 761.327 187.57 752.6 Q187.57 743.85 190.625 739.267 Q193.704 734.661 199.514 734.661 Z" fill="#000000" fill-rule="nonzero" fill-opacity="1" /><path clip-path="url(#clip060)" d="M115.927 449.744 L123.566 449.744 L123.566 423.378 L115.256 425.045 L115.256 420.786 L123.519 419.119 L128.195 419.119 L128.195 449.744 L135.834 449.744 L135.834 453.679 L115.927 453.679 L115.927 449.744 Z" fill="#000000" fill-rule="nonzero" fill-opacity="1" /><path clip-path="url(#clip060)" d="M145.279 447.8 L150.163 447.8 L150.163 453.679 L145.279 453.679 L145.279 447.8 Z" fill="#000000" fill-rule="nonzero" fill-opacity="1" /><path clip-path="url(#clip060)" d="M161.158 449.744 L168.797 449.744 L168.797 423.378 L160.487 425.045 L160.487 420.786 L168.751 419.119 L173.427 419.119 L173.427 449.744 L181.065 449.744 L181.065 453.679 L161.158 453.679 L161.158 449.744 Z" fill="#000000" fill-rule="nonzero" fill-opacity="1" /><path clip-path="url(#clip060)" d="M190.556 419.119 L208.912 419.119 L208.912 423.054 L194.838 423.054 L194.838 431.526 Q195.857 431.179 196.875 431.017 Q197.894 430.832 198.912 430.832 Q204.699 430.832 208.079 434.003 Q211.459 437.175 211.459 442.591 Q211.459 448.17 207.987 451.272 Q204.514 454.35 198.195 454.35 Q196.019 454.35 193.75 453.98 Q191.505 453.61 189.098 452.869 L189.098 448.17 Q191.181 449.304 193.403 449.86 Q195.625 450.415 198.102 450.415 Q202.107 450.415 204.445 448.309 Q206.783 446.202 206.783 442.591 Q206.783 438.98 204.445 436.874 Q202.107 434.767 198.102 434.767 Q196.227 434.767 194.352 435.184 Q192.5 435.6 190.556 436.48 L190.556 419.119 Z" fill="#000000" fill-rule="nonzero" fill-opacity="1" /><path clip-path="url(#clip060)" d="M21.7677 995.903 L39.6235 995.903 L39.6235 987.818 Q39.6235 983.331 37.3 980.88 Q34.9765 978.429 30.6797 978.429 Q26.4147 978.429 24.0912 980.88 Q21.7677 983.331 21.7677 987.818 L21.7677 995.903 M16.4842 1002.33 L16.4842 987.818 Q16.4842 979.83 20.1126 975.755 Q23.7092 971.65 30.6797 971.65 Q37.7138 971.65 41.3104 975.755 Q44.907 979.83 44.907 987.818 L44.907 995.903 L64.0042 995.903 L64.0042 1002.33 L16.4842 1002.33 Z" fill="#000000" fill-rule="nonzero" fill-opacity="1" /><path clip-path="url(#clip060)" d="M32.4621 951.789 Q32.4621 956.499 36.1542 959.236 Q39.8145 961.974 46.212 961.974 Q52.6095 961.974 56.3017 959.268 Q59.9619 956.531 59.9619 951.789 Q59.9619 947.11 56.2698 944.373 Q52.5777 941.635 46.212 941.635 Q39.8781 941.635 36.186 944.373 Q32.4621 947.11 32.4621 951.789 M27.4968 951.789 Q27.4968 944.15 32.4621 939.789 Q37.4273 935.429 46.212 935.429 Q54.9649 935.429 59.9619 939.789 Q64.9272 944.15 64.9272 951.789 Q64.9272 959.459 59.9619 963.82 Q54.9649 968.148 46.212 968.148 Q37.4273 968.148 32.4621 963.82 Q27.4968 959.459 27.4968 951.789 Z" fill="#000000" fill-rule="nonzero" fill-opacity="1" /><path clip-path="url(#clip060)" d="M33.8307 905.064 Q33.2578 906.051 33.0032 907.229 Q32.7167 908.374 32.7167 909.775 Q32.7167 914.74 35.9632 917.414 Q39.1779 920.056 45.2253 920.056 L64.0042 920.056 L64.0042 925.944 L28.3562 925.944 L28.3562 920.056 L33.8944 920.056 Q30.6479 918.209 29.0883 915.249 Q27.4968 912.289 27.4968 908.056 Q27.4968 907.451 27.5923 906.719 Q27.656 905.987 27.8151 905.096 L33.8307 905.064 Z" fill="#000000" fill-rule="nonzero" fill-opacity="1" /><path clip-path="url(#clip060)" d="M18.2347 893.129 L28.3562 893.129 L28.3562 881.066 L32.9077 881.066 L32.9077 893.129 L52.2594 893.129 Q56.6199 893.129 57.8613 891.951 Q59.1026 890.741 59.1026 887.081 L59.1026 881.066 L64.0042 881.066 L64.0042 887.081 Q64.0042 893.861 61.4897 896.439 Q58.9434 899.017 52.2594 899.017 L32.9077 899.017 L32.9077 903.314 L28.3562 903.314 L28.3562 899.017 L18.2347 899.017 L18.2347 893.129 Z" fill="#000000" fill-rule="nonzero" fill-opacity="1" /><path clip-path="url(#clip060)" d="M14.479 855.316 L19.3487 855.316 L19.3487 860.918 Q19.3487 864.069 20.6219 865.31 Q21.895 866.52 25.2052 866.52 L28.3562 866.52 L28.3562 856.876 L32.9077 856.876 L32.9077 866.52 L64.0042 866.52 L64.0042 872.408 L32.9077 872.408 L32.9077 878.01 L28.3562 878.01 L28.3562 872.408 L25.8736 872.408 Q19.9216 872.408 17.2162 869.639 Q14.479 866.87 14.479 860.854 L14.479 855.316 Z" fill="#000000" fill-rule="nonzero" fill-opacity="1" /><path clip-path="url(#clip060)" d="M32.4621 836.601 Q32.4621 841.312 36.1542 844.049 Q39.8145 846.786 46.212 846.786 Q52.6095 846.786 56.3017 844.081 Q59.9619 841.344 59.9619 836.601 Q59.9619 831.922 56.2698 829.185 Q52.5777 826.448 46.212 826.448 Q39.8781 826.448 36.186 829.185 Q32.4621 831.922 32.4621 836.601 M27.4968 836.601 Q27.4968 828.962 32.4621 824.602 Q37.4273 820.241 46.212 820.241 Q54.9649 820.241 59.9619 824.602 Q64.9272 828.962 64.9272 836.601 Q64.9272 844.272 59.9619 848.632 Q54.9649 852.961 46.212 852.961 Q37.4273 852.961 32.4621 848.632 Q27.4968 844.272 27.4968 836.601 Z" fill="#000000" fill-rule="nonzero" fill-opacity="1" /><path clip-path="url(#clip060)" d="M14.479 810.534 L14.479 804.677 L64.0042 804.677 L64.0042 810.534 L14.479 810.534 Z" fill="#000000" fill-rule="nonzero" fill-opacity="1" /><path clip-path="url(#clip060)" d="M28.3562 792.423 L28.3562 786.567 L64.0042 786.567 L64.0042 792.423 L28.3562 792.423 M14.479 792.423 L14.479 786.567 L21.895 786.567 L21.895 792.423 L14.479 792.423 Z" fill="#000000" fill-rule="nonzero" fill-opacity="1" /><path clip-path="url(#clip060)" d="M32.4621 760.499 Q32.4621 765.21 36.1542 767.947 Q39.8145 770.684 46.212 770.684 Q52.6095 770.684 56.3017 767.979 Q59.9619 765.242 59.9619 760.499 Q59.9619 755.82 56.2698 753.083 Q52.5777 750.346 46.212 750.346 Q39.8781 750.346 36.186 753.083 Q32.4621 755.82 32.4621 760.499 M27.4968 760.499 Q27.4968 752.86 32.4621 748.5 Q37.4273 744.139 46.212 744.139 Q54.9649 744.139 59.9619 748.5 Q64.9272 752.86 64.9272 760.499 Q64.9272 768.17 59.9619 772.53 Q54.9649 776.859 46.212 776.859 Q37.4273 776.859 32.4621 772.53 Q27.4968 768.17 27.4968 760.499 Z" fill="#000000" fill-rule="nonzero" fill-opacity="1" /><path clip-path="url(#clip060)" d="M64.0042 701.203 L16.4842 719.345 L16.4842 712.629 L56.4926 697.574 L16.4842 682.487 L16.4842 675.803 L64.0042 693.914 L64.0042 701.203 Z" fill="#000000" fill-rule="nonzero" fill-opacity="1" /><path clip-path="url(#clip060)" d="M46.0847 657.979 Q46.0847 665.077 47.7079 667.814 Q49.3312 670.552 53.2461 670.552 Q56.3653 670.552 58.2114 668.515 Q60.0256 666.446 60.0256 662.913 Q60.0256 658.043 56.5881 655.115 Q53.1188 652.155 47.3897 652.155 L46.0847 652.155 L46.0847 657.979 M43.6657 646.298 L64.0042 646.298 L64.0042 652.155 L58.5933 652.155 Q61.8398 654.16 63.3994 657.152 Q64.9272 660.144 64.9272 664.472 Q64.9272 669.947 61.8716 673.193 Q58.7843 676.408 53.6281 676.408 Q47.6125 676.408 44.5569 672.398 Q41.5014 668.355 41.5014 660.367 L41.5014 652.155 L40.9285 652.155 Q36.8862 652.155 34.6901 654.828 Q32.4621 657.47 32.4621 662.276 Q32.4621 665.332 33.1941 668.228 Q33.9262 671.125 35.3903 673.798 L29.9795 673.798 Q28.7381 670.583 28.1334 667.56 Q27.4968 664.536 27.4968 661.671 Q27.4968 653.937 31.5072 650.118 Q35.5176 646.298 43.6657 646.298 Z" fill="#000000" fill-rule="nonzero" fill-opacity="1" /><path clip-path="url(#clip060)" d="M14.479 634.235 L14.479 628.379 L64.0042 628.379 L64.0042 634.235 L14.479 634.235 Z" fill="#000000" fill-rule="nonzero" fill-opacity="1" /><path clip-path="url(#clip060)" d="M49.9359 616.73 L28.3562 616.73 L28.3562 610.873 L49.7131 610.873 Q54.7739 610.873 57.3202 608.9 Q59.8346 606.926 59.8346 602.98 Q59.8346 598.237 56.8109 595.5 Q53.7872 592.731 48.5673 592.731 L28.3562 592.731 L28.3562 586.874 L64.0042 586.874 L64.0042 592.731 L58.5296 592.731 Q61.7762 594.863 63.3676 597.696 Q64.9272 600.497 64.9272 604.221 Q64.9272 610.364 61.1078 613.547 Q57.2883 616.73 49.9359 616.73 M27.4968 601.993 L27.4968 601.993 Z" fill="#000000" fill-rule="nonzero" fill-opacity="1" /><path clip-path="url(#clip060)" d="M44.7161 544.32 L47.5806 544.32 L47.5806 571.247 Q53.6281 570.865 56.8109 567.618 Q59.9619 564.34 59.9619 558.515 Q59.9619 555.141 59.1344 551.99 Q58.3069 548.808 56.6518 545.688 L62.1899 545.688 Q63.5267 548.839 64.227 552.15 Q64.9272 555.46 64.9272 558.865 Q64.9272 567.395 59.9619 572.392 Q54.9967 577.358 46.5303 577.358 Q37.7774 577.358 32.6531 572.647 Q27.4968 567.905 27.4968 559.884 Q27.4968 552.691 32.1438 548.521 Q36.7589 544.32 44.7161 544.32 M42.9973 550.176 Q38.1912 550.24 35.3266 552.882 Q32.4621 555.492 32.4621 559.82 Q32.4621 564.722 35.2312 567.682 Q38.0002 570.61 43.0292 571.056 L42.9973 550.176 Z" fill="#000000" fill-rule="nonzero" fill-opacity="1" /><path clip-path="url(#clip060)" d="M680.663 18.8205 L680.663 41.5461 L690.953 41.5461 Q696.664 41.5461 699.784 38.5889 Q702.903 35.6318 702.903 30.163 Q702.903 24.7348 699.784 21.7777 Q696.664 18.8205 690.953 18.8205 L680.663 18.8205 M672.48 12.096 L690.953 12.096 Q701.12 12.096 706.306 16.714 Q711.531 21.2916 711.531 30.163 Q711.531 39.1155 706.306 43.6931 Q701.12 48.2706 690.953 48.2706 L680.663 48.2706 L680.663 72.576 L672.48 72.576 L672.48 12.096 Z" fill="#000000" fill-rule="nonzero" fill-opacity="1" /><path clip-path="url(#clip060)" d="M736.809 32.4315 Q730.813 32.4315 727.33 37.1306 Q723.846 41.7891 723.846 49.9314 Q723.846 58.0738 727.289 62.7728 Q730.773 67.4314 736.809 67.4314 Q742.764 67.4314 746.247 62.7323 Q749.731 58.0333 749.731 49.9314 Q749.731 41.8701 746.247 37.1711 Q742.764 32.4315 736.809 32.4315 M736.809 26.1121 Q746.531 26.1121 752.081 32.4315 Q757.63 38.7509 757.63 49.9314 Q757.63 61.0714 752.081 67.4314 Q746.531 73.7508 736.809 73.7508 Q727.046 73.7508 721.496 67.4314 Q715.987 61.0714 715.987 49.9314 Q715.987 38.7509 721.496 32.4315 Q727.046 26.1121 736.809 26.1121 Z" fill="#000000" fill-rule="nonzero" fill-opacity="1" /><path clip-path="url(#clip060)" d="M796.276 34.1734 Q795.02 33.4443 793.521 33.1202 Q792.063 32.7556 790.281 32.7556 Q783.961 32.7556 780.559 36.8875 Q777.196 40.9789 777.196 48.6757 L777.196 72.576 L769.702 72.576 L769.702 27.2059 L777.196 27.2059 L777.196 34.2544 Q779.546 30.1225 783.313 28.1376 Q787.081 26.1121 792.468 26.1121 Q793.238 26.1121 794.17 26.2337 Q795.101 26.3147 796.236 26.5172 L796.276 34.1734 Z" fill="#000000" fill-rule="nonzero" fill-opacity="1" /><path clip-path="url(#clip060)" d="M811.467 14.324 L811.467 27.2059 L826.82 27.2059 L826.82 32.9987 L811.467 32.9987 L811.467 57.6282 Q811.467 63.1779 812.966 64.7578 Q814.505 66.3376 819.164 66.3376 L826.82 66.3376 L826.82 72.576 L819.164 72.576 Q810.535 72.576 807.254 69.3758 Q803.973 66.1351 803.973 57.6282 L803.973 32.9987 L798.504 32.9987 L798.504 27.2059 L803.973 27.2059 L803.973 14.324 L811.467 14.324 Z" fill="#000000" fill-rule="nonzero" fill-opacity="1" /><path clip-path="url(#clip060)" d="M859.592 9.54393 L859.592 15.7418 L852.462 15.7418 Q848.452 15.7418 846.872 17.3622 Q845.333 18.9825 845.333 23.1955 L845.333 27.2059 L857.607 27.2059 L857.607 32.9987 L845.333 32.9987 L845.333 72.576 L837.838 72.576 L837.838 32.9987 L830.709 32.9987 L830.709 27.2059 L837.838 27.2059 L837.838 24.0462 Q837.838 16.471 841.363 13.0277 Q844.887 9.54393 852.543 9.54393 L859.592 9.54393 Z" fill="#000000" fill-rule="nonzero" fill-opacity="1" /><path clip-path="url(#clip060)" d="M883.411 32.4315 Q877.416 32.4315 873.932 37.1306 Q870.448 41.7891 870.448 49.9314 Q870.448 58.0738 873.891 62.7728 Q877.375 67.4314 883.411 67.4314 Q889.366 67.4314 892.85 62.7323 Q896.333 58.0333 896.333 49.9314 Q896.333 41.8701 892.85 37.1711 Q889.366 32.4315 883.411 32.4315 M883.411 26.1121 Q893.133 26.1121 898.683 32.4315 Q904.233 38.7509 904.233 49.9314 Q904.233 61.0714 898.683 67.4314 Q893.133 73.7508 883.411 73.7508 Q873.648 73.7508 868.099 67.4314 Q862.589 61.0714 862.589 49.9314 Q862.589 38.7509 868.099 32.4315 Q873.648 26.1121 883.411 26.1121 Z" fill="#000000" fill-rule="nonzero" fill-opacity="1" /><path clip-path="url(#clip060)" d="M916.588 9.54393 L924.042 9.54393 L924.042 72.576 L916.588 72.576 L916.588 9.54393 Z" fill="#000000" fill-rule="nonzero" fill-opacity="1" /><path clip-path="url(#clip060)" d="M939.638 27.2059 L947.091 27.2059 L947.091 72.576 L939.638 72.576 L939.638 27.2059 M939.638 9.54393 L947.091 9.54393 L947.091 18.9825 L939.638 18.9825 L939.638 9.54393 Z" fill="#000000" fill-rule="nonzero" fill-opacity="1" /><path clip-path="url(#clip060)" d="M980.268 32.4315 Q974.273 32.4315 970.789 37.1306 Q967.305 41.7891 967.305 49.9314 Q967.305 58.0738 970.749 62.7728 Q974.232 67.4314 980.268 67.4314 Q986.223 67.4314 989.707 62.7323 Q993.191 58.0333 993.191 49.9314 Q993.191 41.8701 989.707 37.1711 Q986.223 32.4315 980.268 32.4315 M980.268 26.1121 Q989.99 26.1121 995.54 32.4315 Q1001.09 38.7509 1001.09 49.9314 Q1001.09 61.0714 995.54 67.4314 Q989.99 73.7508 980.268 73.7508 Q970.505 73.7508 964.956 67.4314 Q959.447 61.0714 959.447 49.9314 Q959.447 38.7509 964.956 32.4315 Q970.505 26.1121 980.268 26.1121 Z" fill="#000000" fill-rule="nonzero" fill-opacity="1" /><path clip-path="url(#clip060)" d="M1055.74 72.576 L1032.65 12.096 L1041.19 12.096 L1060.35 63.0159 L1079.56 12.096 L1088.06 12.096 L1065.01 72.576 L1055.74 72.576 Z" fill="#000000" fill-rule="nonzero" fill-opacity="1" /><path clip-path="url(#clip060)" d="M1110.75 49.7694 Q1101.71 49.7694 1098.23 51.8354 Q1094.75 53.9013 1094.75 58.8839 Q1094.75 62.8538 1097.34 65.2034 Q1099.97 67.5124 1104.47 67.5124 Q1110.67 67.5124 1114.39 63.1374 Q1118.16 58.7219 1118.16 51.4303 L1118.16 49.7694 L1110.75 49.7694 M1125.61 46.6907 L1125.61 72.576 L1118.16 72.576 L1118.16 65.6895 Q1115.61 69.8214 1111.8 71.8063 Q1107.99 73.7508 1102.48 73.7508 Q1095.52 73.7508 1091.38 69.8619 Q1087.29 65.9325 1087.29 59.3701 Q1087.29 51.7138 1092.4 47.825 Q1097.54 43.9361 1107.71 43.9361 L1118.16 43.9361 L1118.16 43.2069 Q1118.16 38.0623 1114.76 35.2672 Q1111.4 32.4315 1105.28 32.4315 Q1101.39 32.4315 1097.7 33.3632 Q1094.02 34.295 1090.61 36.1584 L1090.61 29.2718 Q1094.71 27.692 1098.55 26.9223 Q1102.4 26.1121 1106.05 26.1121 Q1115.89 26.1121 1120.75 31.2163 Q1125.61 36.3204 1125.61 46.6907 Z" fill="#000000" fill-rule="nonzero" fill-opacity="1" /><path clip-path="url(#clip060)" d="M1140.97 9.54393 L1148.42 9.54393 L1148.42 72.576 L1140.97 72.576 L1140.97 9.54393 Z" fill="#000000" fill-rule="nonzero" fill-opacity="1" /><path clip-path="url(#clip060)" d="M1163.25 54.671 L1163.25 27.2059 L1170.7 27.2059 L1170.7 54.3874 Q1170.7 60.8284 1173.21 64.0691 Q1175.72 67.2693 1180.75 67.2693 Q1186.78 67.2693 1190.27 63.421 Q1193.79 59.5726 1193.79 52.9291 L1193.79 27.2059 L1201.24 27.2059 L1201.24 72.576 L1193.79 72.576 L1193.79 65.6084 Q1191.08 69.7404 1187.47 71.7658 Q1183.91 73.7508 1179.17 73.7508 Q1171.35 73.7508 1167.3 68.8897 Q1163.25 64.0286 1163.25 54.671 M1182 26.1121 L1182 26.1121 Z" fill="#000000" fill-rule="nonzero" fill-opacity="1" /><path clip-path="url(#clip060)" d="M1255.41 48.0275 L1255.41 51.6733 L1221.13 51.6733 Q1221.62 59.3701 1225.75 63.421 Q1229.93 67.4314 1237.34 67.4314 Q1241.63 67.4314 1245.64 66.3781 Q1249.69 65.3249 1253.66 63.2184 L1253.66 70.267 Q1249.65 71.9684 1245.44 72.8596 Q1241.23 73.7508 1236.89 73.7508 Q1226.04 73.7508 1219.68 67.4314 Q1213.36 61.1119 1213.36 50.3365 Q1213.36 39.1965 1219.35 32.6746 Q1225.39 26.1121 1235.6 26.1121 Q1244.75 26.1121 1250.06 32.0264 Q1255.41 37.9003 1255.41 48.0275 M1247.95 45.84 Q1247.87 39.7232 1244.51 36.0774 Q1241.19 32.4315 1235.68 32.4315 Q1229.44 32.4315 1225.67 35.9558 Q1221.95 39.4801 1221.38 45.8805 L1247.95 45.84 Z" fill="#000000" fill-rule="nonzero" fill-opacity="1" /><path clip-path="url(#clip060)" d="M1290.24 46.5287 L1312.08 46.5287 L1312.08 53.1722 L1290.24 53.1722 L1290.24 46.5287 Z" fill="#000000" fill-rule="nonzero" fill-opacity="1" /><path clip-path="url(#clip060)" d="M1342.26 12.096 L1393.42 12.096 L1393.42 18.9825 L1371.95 18.9825 L1371.95 72.576 L1363.73 72.576 L1363.73 18.9825 L1342.26 18.9825 L1342.26 12.096 Z" fill="#000000" fill-rule="nonzero" fill-opacity="1" /><path clip-path="url(#clip060)" d="M1425.71 48.0275 L1425.71 51.6733 L1391.43 51.6733 Q1391.92 59.3701 1396.05 63.421 Q1400.23 67.4314 1407.64 67.4314 Q1411.93 67.4314 1415.94 66.3781 Q1419.99 65.3249 1423.96 63.2184 L1423.96 70.267 Q1419.95 71.9684 1415.74 72.8596 Q1411.53 73.7508 1407.19 73.7508 Q1396.34 73.7508 1389.98 67.4314 Q1383.66 61.1119 1383.66 50.3365 Q1383.66 39.1965 1389.65 32.6746 Q1395.69 26.1121 1405.9 26.1121 Q1415.05 26.1121 1420.36 32.0264 Q1425.71 37.9003 1425.71 48.0275 M1418.25 45.84 Q1418.17 39.7232 1414.81 36.0774 Q1411.49 32.4315 1405.98 32.4315 Q1399.74 32.4315 1395.97 35.9558 Q1392.25 39.4801 1391.68 45.8805 L1418.25 45.84 Z" fill="#000000" fill-rule="nonzero" fill-opacity="1" /><path clip-path="url(#clip060)" d="M1473.26 35.9153 Q1476.06 30.8922 1479.95 28.5022 Q1483.84 26.1121 1489.1 26.1121 Q1496.19 26.1121 1500.04 31.0947 Q1503.89 36.0368 1503.89 45.1919 L1503.89 72.576 L1496.39 72.576 L1496.39 45.4349 Q1496.39 38.913 1494.08 35.7533 Q1491.78 32.5936 1487.04 32.5936 Q1481.24 32.5936 1477.88 36.4419 Q1474.52 40.2903 1474.52 46.9338 L1474.52 72.576 L1467.02 72.576 L1467.02 45.4349 Q1467.02 38.8725 1464.72 35.7533 Q1462.41 32.5936 1457.59 32.5936 Q1451.87 32.5936 1448.51 36.4824 Q1445.15 40.3308 1445.15 46.9338 L1445.15 72.576 L1437.66 72.576 L1437.66 27.2059 L1445.15 27.2059 L1445.15 34.2544 Q1447.7 30.082 1451.27 28.0971 Q1454.83 26.1121 1459.73 26.1121 Q1464.68 26.1121 1468.12 28.6237 Q1471.6 31.1352 1473.26 35.9153 Z" fill="#000000" fill-rule="nonzero" fill-opacity="1" /><path clip-path="url(#clip060)" d="M1525.97 65.7705 L1525.97 89.8329 L1518.47 89.8329 L1518.47 27.2059 L1525.97 27.2059 L1525.97 34.0924 Q1528.31 30.0415 1531.88 28.0971 Q1535.49 26.1121 1540.47 26.1121 Q1548.73 26.1121 1553.88 32.6746 Q1559.06 39.2371 1559.06 49.9314 Q1559.06 60.6258 1553.88 67.1883 Q1548.73 73.7508 1540.47 73.7508 Q1535.49 73.7508 1531.88 71.8063 Q1528.31 69.8214 1525.97 65.7705 M1551.32 49.9314 Q1551.32 41.7081 1547.92 37.0496 Q1544.56 32.3505 1538.64 32.3505 Q1532.73 32.3505 1529.33 37.0496 Q1525.97 41.7081 1525.97 49.9314 Q1525.97 58.1548 1529.33 62.8538 Q1532.73 67.5124 1538.64 67.5124 Q1544.56 67.5124 1547.92 62.8538 Q1551.32 58.1548 1551.32 49.9314 Z" fill="#000000" fill-rule="nonzero" fill-opacity="1" /><path clip-path="url(#clip060)" d="M1571.42 9.54393 L1578.87 9.54393 L1578.87 72.576 L1571.42 72.576 L1571.42 9.54393 Z" fill="#000000" fill-rule="nonzero" fill-opacity="1" /><path clip-path="url(#clip060)" d="M1615.09 49.7694 Q1606.05 49.7694 1602.57 51.8354 Q1599.08 53.9013 1599.08 58.8839 Q1599.08 62.8538 1601.68 65.2034 Q1604.31 67.5124 1608.81 67.5124 Q1615 67.5124 1618.73 63.1374 Q1622.5 58.7219 1622.5 51.4303 L1622.5 49.7694 L1615.09 49.7694 M1629.95 46.6907 L1629.95 72.576 L1622.5 72.576 L1622.5 65.6895 Q1619.95 69.8214 1616.14 71.8063 Q1612.33 73.7508 1606.82 73.7508 Q1599.85 73.7508 1595.72 69.8619 Q1591.63 65.9325 1591.63 59.3701 Q1591.63 51.7138 1596.73 47.825 Q1601.88 43.9361 1612.05 43.9361 L1622.5 43.9361 L1622.5 43.2069 Q1622.5 38.0623 1619.1 35.2672 Q1615.73 32.4315 1609.62 32.4315 Q1605.73 32.4315 1602.04 33.3632 Q1598.36 34.295 1594.95 36.1584 L1594.95 29.2718 Q1599.04 27.692 1602.89 26.9223 Q1606.74 26.1121 1610.39 26.1121 Q1620.23 26.1121 1625.09 31.2163 Q1629.95 36.3204 1629.95 46.6907 Z" fill="#000000" fill-rule="nonzero" fill-opacity="1" /><path clip-path="url(#clip060)" d="M1652.68 14.324 L1652.68 27.2059 L1668.03 27.2059 L1668.03 32.9987 L1652.68 32.9987 L1652.68 57.6282 Q1652.68 63.1779 1654.18 64.7578 Q1655.72 66.3376 1660.37 66.3376 L1668.03 66.3376 L1668.03 72.576 L1660.37 72.576 Q1651.75 72.576 1648.46 69.3758 Q1645.18 66.1351 1645.18 57.6282 L1645.18 32.9987 L1639.71 32.9987 L1639.71 27.2059 L1645.18 27.2059 L1645.18 14.324 L1652.68 14.324 Z" fill="#000000" fill-rule="nonzero" fill-opacity="1" /><path clip-path="url(#clip060)" d="M1716.64 48.0275 L1716.64 51.6733 L1682.37 51.6733 Q1682.86 59.3701 1686.99 63.421 Q1691.16 67.4314 1698.57 67.4314 Q1702.87 67.4314 1706.88 66.3781 Q1710.93 65.3249 1714.9 63.2184 L1714.9 70.267 Q1710.89 71.9684 1706.68 72.8596 Q1702.46 73.7508 1698.13 73.7508 Q1687.27 73.7508 1680.91 67.4314 Q1674.59 61.1119 1674.59 50.3365 Q1674.59 39.1965 1680.59 32.6746 Q1686.62 26.1121 1696.83 26.1121 Q1705.99 26.1121 1711.29 32.0264 Q1716.64 37.9003 1716.64 48.0275 M1709.19 45.84 Q1709.11 39.7232 1705.74 36.0774 Q1702.42 32.4315 1696.91 32.4315 Q1690.68 32.4315 1686.91 35.9558 Q1683.18 39.4801 1682.61 45.8805 L1709.19 45.84 Z" fill="#000000" fill-rule="nonzero" fill-opacity="1" /><path clip-path="url(#clip060)" d="M1791.83 14.0809 L1791.83 22.0612 Q1787.17 19.8332 1783.04 18.7395 Q1778.9 17.6457 1775.06 17.6457 Q1768.37 17.6457 1764.73 20.2383 Q1761.12 22.8309 1761.12 27.611 Q1761.12 31.6214 1763.51 33.6873 Q1765.94 35.7128 1772.67 36.9686 L1777.61 37.9813 Q1786.76 39.7232 1791.1 44.1387 Q1795.47 48.5136 1795.47 55.8863 Q1795.47 64.6767 1789.56 69.2137 Q1783.68 73.7508 1772.3 73.7508 Q1768.01 73.7508 1763.15 72.7785 Q1758.33 71.8063 1753.14 69.9024 L1753.14 61.4765 Q1758.12 64.2716 1762.9 65.6895 Q1767.68 67.1073 1772.3 67.1073 Q1779.31 67.1073 1783.12 64.3527 Q1786.92 61.598 1786.92 56.4939 Q1786.92 52.0379 1784.17 49.5264 Q1781.46 47.0148 1775.22 45.759 L1770.23 44.7868 Q1761.08 42.9639 1756.99 39.075 Q1752.9 35.1862 1752.9 28.2591 Q1752.9 20.2383 1758.53 15.6203 Q1764.2 11.0023 1774.12 11.0023 Q1778.38 11.0023 1782.79 11.7719 Q1787.21 12.5416 1791.83 14.0809 Z" fill="#000000" fill-rule="nonzero" fill-opacity="1" /><path clip-path="url(#clip060)" d="M1808.23 12.096 L1820.43 12.096 L1835.86 53.2532 L1851.37 12.096 L1863.57 12.096 L1863.57 72.576 L1855.59 72.576 L1855.59 19.4686 L1839.99 60.9499 L1831.77 60.9499 L1816.17 19.4686 L1816.17 72.576 L1808.23 72.576 L1808.23 12.096 Z" fill="#000000" fill-rule="nonzero" fill-opacity="1" /><path clip-path="url(#clip060)" d="M1900.03 20.1573 L1888.93 50.2555 L1911.17 50.2555 L1900.03 20.1573 M1895.41 12.096 L1904.68 12.096 L1927.73 72.576 L1919.23 72.576 L1913.72 57.061 L1886.46 57.061 L1880.95 72.576 L1872.32 72.576 L1895.41 12.096 Z" fill="#000000" fill-rule="nonzero" fill-opacity="1" /><polyline clip-path="url(#clip062)" style="stroke:#009af9; stroke-linecap:round; stroke-linejoin:round; stroke-width:12; stroke-opacity:1; fill:none" points="307.043,1384.9 307.043,1384.9 308.132,1384.9 309.222,1384.9 310.311,1384.9 313.579,1384.9 314.669,1384.9 315.758,1384.9 316.848,1384.9 317.937,1384.9 322.295,1384.9 323.385,1384.83 324.474,1386.4 325.564,1385.15 328.832,1380.5 329.922,1379.24 331.011,1372.49 332.101,1373.5 333.19,1376.28 336.459,1383.43 337.548,1385.62 338.638,1374.26 339.727,1373.72 340.817,1371.44 344.085,1369.52 345.175,1367.56 346.264,1366.76 347.354,1366.16 348.443,1366.63 351.711,1364.78 352.801,1361.59 353.89,1361.28 354.98,1359.89 356.069,1358.07 360.427,1355.39 361.517,1355.02 362.606,1355.76 363.696,1356.41 366.964,1355.78 368.054,1357.6 369.143,1349.37 370.233,1352.14 371.322,1351.33 374.591,1352.44 375.68,1350.85 376.77,1350.58 377.859,1350.04 378.949,1347.87 382.172,1347.05 383.261,1347.35 384.351,1344.53 385.44,1343.67 386.53,1343.72 389.798,1342.57 390.887,1350.8 391.977,1348.58 393.066,1353.17 394.156,1352.82 397.424,1352.44 398.514,1347.82 399.603,1347.32 400.693,1347.62 401.782,1348.05 405.051,1347.98 406.14,1346.29 407.23,1347.48 408.319,1348.05 409.409,1348.55 412.677,1348.82 413.767,1351.26 414.856,1350.99 415.946,1352.17 420.304,1351.49 421.393,1351.49 422.483,1351.99 423.572,1350.9 424.661,1350.42 427.93,1344.23 429.019,1341.21 430.109,1341.39 431.198,1340.8 432.288,1331 435.556,1324.28 436.646,1321.58 437.735,1318.94 438.825,1318.32 439.914,1315.91 443.183,1307.24 444.272,1306.37 445.362,1308.59 446.451,1306.93 447.541,1303.01 450.809,1302.11 451.899,1300.6 452.988,1316.25 454.078,1309.27 455.167,1307.25 458.435,1303.3 459.525,1301.4 460.614,1300.19 461.704,1294.74 462.793,1294.54 467.151,1293.05 468.241,1297.97 469.33,1296.65 470.42,1290.33 473.688,1290.18 474.778,1291.6 475.867,1288.76 476.957,1288.58 478.046,1308.7 481.315,1316.02 482.404,1312.7 483.494,1313.53 484.583,1318.84 485.673,1318.84 488.941,1318.84 490.031,1318.84 491.12,1318.84 492.209,1318.84 493.299,1318.84 496.567,1318.84 497.657,1318.84 498.746,1318.84 499.836,1318.84 500.925,1318.84 504.194,1318.84 506.373,1318.84 507.462,1318.84 508.552,1318.84 511.82,1318.84 512.91,1318.84 513.999,1318.84 515.089,1318.84 516.178,1317.15 519.447,1317.46 520.536,1312.85 521.626,1309.63 522.715,1311.57 523.805,1310.17 527.073,1304.95 528.162,1313.29 529.252,1313.07 530.341,1321.99 531.431,1321.31 534.699,1326.02 535.789,1323.33 536.878,1312.13 537.968,1314.61 539.057,1313.31 542.326,1309.49 543.415,1307.48 544.505,1305.93 545.594,1315 546.684,1311.59 549.952,1307.84 551.042,1305.08 552.131,1306.1 553.221,1310.99 554.31,1311.56 557.579,1312.02 558.668,1307.95 559.757,1307.64 560.847,1308.76 561.936,1307.83 565.205,1305.28 566.294,1303.01 567.384,1302.31 568.473,1298.89 569.563,1299.44 573.921,1305.36 575.01,1305.83 576.1,1304.29 577.189,1311.43 580.458,1306.08 581.547,1306.15 582.637,1307.11 583.726,1311.3 584.816,1312.83 588.084,1314.5 589.174,1313.74 590.263,1313.74 591.353,1313.74 592.442,1313.74 595.71,1313.74 596.8,1313.74 597.889,1313.74 598.979,1311.16 600.068,1308.12 603.337,1309.97 604.426,1308.54 605.516,1310.47 606.605,1304.69 607.695,1301.87 610.963,1302.47 612.053,1303.86 613.142,1298.59 614.232,1299.6 615.321,1297.45 618.59,1292.14 619.679,1291.16 620.769,1292.08 621.858,1300.7 622.948,1299.08 626.216,1305.46 627.306,1303.32 628.395,1303.53 629.484,1302.2 630.574,1281.7 633.842,1274.91 634.932,1271.39 636.021,1271.99 637.111,1270.04 638.2,1260.92 641.514,1260.23 642.604,1257 643.693,1252.67 644.783,1255.96 645.872,1258.88 649.141,1260.72 650.23,1264.8 651.32,1269.98 652.409,1263.12 653.499,1268.87 656.767,1269.36 657.856,1259.27 658.946,1255.93 661.125,1254.44 664.393,1251.53 665.483,1255.3 666.572,1269.11 667.662,1265.44 668.751,1270.26 672.02,1271.64 673.109,1272.5 674.199,1272.5 675.288,1272.5 676.378,1272.5 679.646,1272.5 680.736,1272.5 681.825,1274.24 682.915,1271.54 684.004,1266.25 687.273,1258.28 688.362,1263.3 689.451,1265.41 690.541,1264.78 691.63,1265.89 695.988,1273.98 697.078,1276.26 698.167,1275.89 699.257,1279.37 703.615,1272.02 704.704,1266.49 705.794,1265.25 706.883,1260.25 710.152,1258.76 711.241,1259.32 712.331,1260.54 713.42,1258.05 714.51,1249.9 718.868,1251.48 719.957,1243.65 721.047,1244.09 722.136,1242.91 725.404,1239.43 726.494,1234.89 727.583,1241.16 728.673,1244.14 729.762,1241.78 733.031,1244 734.12,1247.76 735.21,1245.78 736.299,1246.49 737.389,1264.13 740.657,1281.87 741.747,1290.91 742.836,1290.91 743.926,1290.91 745.015,1290.91 748.284,1290.91 749.373,1290.91 750.463,1290.91 751.552,1290.91 752.642,1290.91 757,1291.23 758.089,1292.46 759.178,1290.2 760.268,1285.46 763.536,1274.93 764.626,1283.9 765.715,1288.61 766.805,1304.68 767.894,1299.79 771.163,1295.03 772.252,1293.96 773.342,1291.95 774.431,1283.75 775.521,1268.19 778.744,1264.02 779.833,1275.12 780.923,1273.96 782.012,1273.6 783.102,1278.97 786.37,1294.62 787.46,1295.39 788.549,1303.82 789.639,1308.67 790.728,1308.67 793.997,1308.67 795.086,1308.67 796.176,1308.67 797.265,1308.67 801.623,1308.67 802.712,1308.67 803.802,1308.67 804.891,1308.67 805.981,1308.67 809.249,1308.67 810.339,1308.67 811.428,1308.67 812.518,1308.67 813.607,1308.75 816.876,1307.03 817.965,1303.2 819.055,1305.53 820.144,1308.56 821.234,1324.41 824.502,1326.91 825.592,1345.55 826.681,1345.68 827.771,1339.72 828.86,1342.88 832.129,1342.89 833.218,1342.89 834.307,1342.89 835.397,1342.89 836.486,1342.89 839.755,1342.92 840.844,1341.51 841.934,1339.44 843.023,1331.56 844.113,1333.63 847.381,1333.71 848.471,1343.05 849.56,1339.49 850.65,1342.38 851.739,1347.32 855.008,1341.06 856.097,1344.91 857.187,1339.87 858.276,1340.34 859.366,1340.79 863.724,1346.72 864.813,1344.99 865.903,1340.55 866.992,1324.31 870.26,1315.54 871.35,1313.08 872.439,1312.9 873.529,1317.84 874.618,1321.57 877.887,1319.43 878.976,1314.82 880.066,1318.75 881.155,1313.11 882.245,1316.16 885.513,1309.62 886.603,1316.15 887.692,1314.54 888.782,1318.39 889.871,1319.08 893.14,1328.78 894.229,1330.79 895.319,1335.36 896.408,1335.96 897.498,1335.96 900.766,1335.96 901.855,1335.96 904.034,1335.96 905.124,1335.96 908.392,1335.96 909.482,1335.96 910.571,1336.94 911.661,1324.5 912.75,1322.34 916.019,1324.57 917.108,1319 918.198,1321.58 919.287,1322.06 920.377,1323.4 923.645,1316.63 924.735,1300.97 925.824,1293.15 926.914,1292.65 928.003,1307.19 931.272,1314.81 932.361,1314.99 933.451,1296.4 934.54,1285.15 935.629,1284.97 938.898,1282.93 939.987,1280.51 941.077,1279.22 942.166,1275.54 943.256,1281.31 946.524,1280.01 947.614,1276.38 948.703,1284.37 949.793,1281.99 950.882,1276.67 954.151,1280.02 955.24,1280.68 956.33,1280.67 957.419,1279.97 958.509,1278.91 961.777,1276.1 962.867,1273.32 963.956,1268.13 965.046,1266.51 966.135,1269.01 970.493,1274.56 971.582,1280.24 972.672,1286.26 973.761,1289.1 977.03,1293.8 978.119,1285.07 979.209,1289.47 980.298,1281.03 981.388,1285.09 984.656,1294.51 985.746,1293.94 986.835,1293.74 987.925,1290.78 989.014,1290.78 992.283,1290.78 993.372,1290.78 994.462,1290.78 995.551,1290.78 996.641,1290.78 999.909,1293.32 1001,1288.61 1002.09,1283.3 1003.18,1300.74 1004.27,1310.01 1007.54,1313.49 1008.62,1309.48 1009.71,1326.09 1010.8,1329.11 1011.89,1319.67 1015.16,1319.67 1016.25,1319.67 1017.34,1319.67 1018.43,1319.67 1019.52,1319.67 1022.79,1319.67 1023.88,1319.67 1024.97,1319.67 1026.06,1319.67 1027.15,1319.67 1030.41,1319.67 1031.5,1319.67 1032.59,1319.67 1033.68,1319.67 1034.77,1319.67 1038.09,1319.67 1039.18,1319.67 1040.27,1319.67 1041.35,1319.67 1042.44,1319.67 1045.71,1319.67 1046.8,1319.67 1047.89,1319.67 1048.98,1319.67 1050.07,1319.67 1053.34,1319.67 1054.43,1319.67 1055.52,1319.67 1057.7,1319.67 1060.97,1319.67 1062.06,1319.67 1063.14,1319.67 1064.23,1319.67 1065.32,1317.98 1068.59,1314.18 1069.68,1331.77 1071.86,1326.1 1072.95,1336.27 1076.22,1335.33 1077.31,1331.47 1078.4,1326.33 1079.49,1326.33 1080.58,1326.33 1083.84,1326.33 1084.93,1326.33 1086.02,1326.33 1087.11,1326.33 1088.2,1326.33 1091.47,1326.33 1093.65,1326.33 1094.74,1326.33 1095.83,1326.33 1099.1,1326.33 1101.28,1326.33 1102.37,1334.22 1103.46,1316.94 1106.72,1317.68 1107.81,1315.18 1108.9,1315.69 1109.99,1317.06 1111.08,1321.22 1114.35,1325.17 1115.44,1314.91 1116.53,1313.7 1117.62,1310.87 1118.71,1309.31 1123.07,1323.64 1124.16,1321.06 1125.25,1323.52 1126.33,1310.12 1129.6,1319.04 1130.69,1324.59 1131.78,1298.89 1132.87,1288.37 1133.96,1290.02 1137.23,1275.57 1138.32,1266.77 1139.41,1276.4 1140.5,1286.84 1141.59,1288.83 1144.86,1290.4 1145.95,1279.76 1147.03,1281.26 1148.12,1279.8 1149.21,1282.94 1153.57,1280.58 1154.66,1280.35 1155.75,1287.2 1156.84,1279.95 1160.11,1278.26 1161.2,1276.29 1162.29,1278.02 1163.38,1280.74 1164.47,1277.87 1167.73,1276.22 1168.82,1272.23 1169.91,1275.14 1171,1282.94 1172.09,1282.6 1175.32,1262.56 1176.41,1253.87 1177.49,1252.56 1178.58,1251.83 1179.67,1248.39 1182.94,1245.45 1184.03,1243.2 1185.12,1232.68 1186.21,1219.33 1187.3,1233.95 1190.57,1241.55 1191.66,1247.28 1192.75,1248.3 1193.84,1249.33 1194.93,1245.86 1198.2,1240.41 1199.28,1236.02 1200.37,1233.92 1201.46,1230.51 1202.55,1230.93 1205.82,1227.07 1206.91,1230.1 1208,1226.78 1209.09,1228.64 1210.18,1224.58 1213.45,1222.99 1214.54,1221.05 1215.63,1212.01 1216.72,1210.84 1221.07,1205.84 1222.16,1196.21 1223.25,1199.42 1224.34,1200.04 1225.43,1198.82 1228.7,1193.47 1229.79,1231.03 1230.88,1221.91 1231.97,1225.8 1233.06,1218.2 1236.33,1223.37 1237.42,1232.25 1238.51,1232.19 1239.6,1235.64 1240.69,1241.23 1243.95,1256.2 1245.04,1256.2 1246.13,1256.2 1247.22,1256.2 1248.31,1256.2 1251.58,1256.2 1252.67,1256.2 1253.76,1256.2 1254.85,1256.2 1255.94,1256.2 1260.3,1256.2 1261.39,1256.2 1262.47,1256.2 1263.56,1256.2 1266.83,1256.2 1267.92,1256.2 1269.01,1256.2 1270.1,1256.2 1271.19,1256.2 1274.46,1256.2 1275.55,1256.28 1276.64,1257.26 1277.73,1257.33 1278.82,1259.55 1282.09,1257.74 1283.17,1250.53 1284.26,1251.44 1285.35,1251.64 1286.44,1249.41 1289.71,1251.74 1290.8,1265.72 1291.89,1261.1 1292.98,1262.39 1294.07,1263.72 1297.34,1252.6 1298.43,1249.37 1299.52,1245.4 1301.7,1242.52 1304.96,1253.99 1306.05,1249.38 1307.14,1241.29 1308.23,1242.45 1309.32,1239.78 1312.59,1235.04 1313.68,1235.14 1314.77,1239.24 1315.86,1235.6 1316.95,1245.58 1320.22,1235.74 1321.31,1230.61 1322.4,1233.53 1323.49,1237.94 1324.58,1199.4 1327.84,1199.81 1328.93,1205.75 1330.02,1201.69 1331.11,1211.4 1332.2,1223.12 1335.47,1253.18 1336.56,1241.82 1337.65,1243.06 1338.74,1233.32 1339.83,1238.62 1343.1,1242.83 1344.19,1235.7 1345.28,1246.12 1346.36,1245.18 1347.45,1241.3 1350.72,1241.3 1351.81,1242.12 1352.9,1238.52 1353.99,1238.8 1355.08,1254.32 1358.35,1248.24 1359.44,1251.92 1360.53,1249.76 1361.62,1244.25 1362.71,1244.68 1367.07,1249.49 1368.15,1243.97 1369.24,1231.23 1370.33,1233.3 1373.6,1232.03 1374.69,1227.52 1375.78,1212.15 1376.87,1208.49 1377.96,1213.67 1381.23,1214.47 1382.32,1213.88 1383.41,1209.58 1384.5,1210.45 1385.59,1218.33 1388.85,1215.47 1389.94,1221.94 1391.03,1207.87 1392.12,1211.29 1393.21,1218.14 1396.48,1211.92 1397.57,1215.34 1398.66,1233.24 1399.75,1229.23 1400.84,1219.45 1404.11,1219.37 1405.2,1223.57 1406.29,1219.41 1407.38,1214.58 1408.47,1204.9 1411.73,1205.44 1412.82,1206.31 1413.91,1207.81 1415,1205.7 1416.09,1206.31 1419.36,1199.62 1420.45,1201.54 1421.54,1191.29 1422.63,1190.07 1423.72,1184.02 1426.99,1172.25 1428.08,1190.01 1429.17,1190.48 1430.26,1182.16 1431.34,1166.69 1434.66,1158.46 1435.75,1158.84 1436.84,1158.74 1437.93,1149.88 1439.02,1147.96 1442.28,1148.56 1443.37,1149.06 1444.46,1145.35 1445.55,1143.98 1446.64,1131.65 1449.91,1134.01 1451,1136.95 1452.09,1145.77 1453.18,1148.18 1454.27,1150.44 1457.54,1139.59 1458.63,1140.71 1459.72,1135.28 1461.9,1138.75 1465.16,1148.39 1466.25,1154.14 1467.34,1146.81 1468.43,1140.74 1469.52,1137.74 1472.79,1140.86 1473.88,1138.05 1474.97,1134.31 1476.06,1131.56 1477.15,1126.5 1480.42,1114.84 1481.51,1115.88 1482.6,1117.73 1483.69,1116.21 1484.77,1119.16 1488.04,1112.19 1489.13,1113.43 1491.31,1099.19 1492.4,1102.06 1495.67,1104.32 1496.76,1100.67 1498.94,1080.49 1500.03,1087.22 1503.3,1072.87 1504.39,1075.37 1505.48,1064.32 1506.56,1049.23 1507.65,1044.99 1510.92,1031.51 1512.01,1040.92 1513.1,1040.4 1514.19,1030.29 1515.28,1015.7 1519.64,1017.84 1520.73,1015.57 1521.82,1012.93 1522.91,1020.69 1526.18,1045.86 1527.26,1026.14 1528.35,1013.71 1529.44,1015.33 1530.53,1044.87 1533.8,1029.86 1534.89,1026.04 1535.98,1021.57 1537.07,1006.77 1538.16,1014.01 1541.43,1002.3 1542.52,1005.33 1543.61,990.332 1544.7,995.157 1545.79,993.108 1550.14,1002.85 1551.23,993.329 1552.32,1001.28 1553.41,1023.19 1556.68,1066.77 1557.77,1072.87 1558.86,1070.44 1559.95,1070.44 1561.04,1070.44 1564.31,1070.44 1565.4,1070.44 1566.49,1070.44 1567.58,1070.44 1568.67,1070.44 1571.89,1070.44 1572.98,1070.44 1574.07,1070.44 1575.16,1070.44 1576.25,1070.44 1579.51,1070.44 1580.6,1070.44 1581.69,1070.44 1582.78,1070.44 1583.87,1070.44 1587.14,1070.44 1588.23,1070.44 1589.32,1070.44 1590.41,1070.44 1591.5,1070.44 1594.77,1070.44 1595.86,1070.44 1596.95,1070.44 1598.04,1070.44 1599.13,1070.44 1602.39,1070.44 1603.48,1070.44 1604.57,1069.25 1605.66,1070 1610.02,1059.75 1611.11,1021.6 1612.2,1027.88 1613.29,1023.99 1614.38,1023.89 1617.65,1038.43 1618.74,1067.85 1619.83,1040.81 1620.91,1038.36 1622,1024.86 1625.27,1025.63 1626.36,1046.23 1627.45,997.683 1628.54,985.817 1629.63,1002.16 1632.9,993.74 1633.99,979.099 1635.08,975.45 1636.17,962.547 1637.26,947.447 1640.53,935.025 1641.62,949.417 1642.7,963.711 1643.79,958.573 1644.88,956.072 1648.15,941.213 1649.24,947.395 1650.33,927.26 1651.42,932.262 1652.51,926.628 1656.87,927.956 1657.96,925.515 1659.05,925.644 1660.14,922.28 1663.4,915.183 1664.49,910.487 1665.58,908.572 1666.67,920.649 1667.76,897.85 1671.03,892.153 1672.12,872.487 1673.21,855.433 1674.3,901.818 1675.39,894.281 1678.66,885.548 1679.75,863.948 1680.84,862.067 1681.93,862.465 1683.02,869.525 1686.28,848.693 1687.37,832.616 1688.46,853.1 1689.55,842.584 1690.64,886.051 1693.91,873.711 1695,868.937 1696.09,870.028 1697.18,870.028 1701.54,854.63 1702.63,857.988 1703.72,840.845 1704.81,833.514 1705.89,822.732 1709.16,835.142 1710.25,822.23 1711.34,820.203 1712.43,826.428 1713.52,828.436 1716.79,799.737 1717.88,810.629 1718.97,805.723 1720.06,850.416 1721.15,853.075 1724.42,833.4 1725.51,852.689 1726.59,842.689 1727.68,839.707 1728.77,855.038 1732.04,849.211 1733.13,844.611 1734.22,842.097 1735.31,817.816 1736.4,835.458 1739.67,825.246 1740.76,846.445 1741.85,823.459 1742.94,810.813 1744.03,811.461 1747.3,813.358 1748.38,807.319 1749.47,808.23 1750.56,781.175 1751.65,743.055 1754.92,731.189 1756.01,731.389 1757.1,706.693 1758.19,721.964 1759.28,720.057 1762.55,696.528 1763.64,655.638 1764.73,651.854 1765.82,745.705 1766.91,761.26 1771.26,831.275 1772.35,795.052 1773.44,783.714 1774.53,782.456 1777.8,782.456 1778.89,782.456 1779.98,782.456 1781.07,782.456 1782.16,782.456 1785.43,782.456 1786.52,782.456 1787.61,782.456 1788.7,782.456 1789.78,782.456 1793.05,782.456 1794.14,782.456 1795.23,782.456 1796.32,782.456 1797.41,781.634 1800.68,759.629 1801.77,780.748 1802.86,768.608 1803.95,769.303 1805.04,756.657 1808.31,701.407 1809.4,721.474 1810.49,722.043 1811.57,727.908 1812.66,734.206 1815.93,765.569 1817.02,749.154 1818.11,741.383 1819.2,741.503 1820.29,737.876 1823.56,760.372 1824.65,756.005 1825.74,783.714 1826.83,767.71 1827.92,750.709 1831.23,749.122 1832.32,741.477 1833.41,710.202 1834.5,705.7 1835.59,706.212 1838.86,705.817 1839.95,712.966 1841.04,694.527 1842.13,697.205 1843.22,688.295 1846.48,680.34 1847.57,689.645 1848.66,705.634 1849.75,696.357 1850.84,711.448 1854.11,735.834 1855.2,716.731 1856.29,710.487 1858.47,700.192 1861.74,710.452 1862.83,698.64 1863.92,682.5 1865,683.758 1866.09,687.735 1869.36,680.941 1870.45,677.251 1871.54,704.574 1872.63,698.125 1873.72,701.337 1876.99,712.185 1878.08,671.175 1879.17,670.002 1880.26,664.374 1881.35,677.273 1884.62,667.346 1885.7,644.266 1886.79,650.083 1887.88,643.697 1892.24,613.85 1893.33,625.359 1894.42,632.631 1895.51,639.144 1899.87,659.884 1900.96,649.767 1902.05,677.653 1903.14,650.336 1904.23,643.191 1907.49,668.721 1908.58,676.236 1909.67,674.008 1910.76,678.503 1911.85,679.765 1916.21,674.687 1917.3,657.159 1918.39,655.784 1919.48,652.685 1922.75,654.155 1923.84,646.997 1924.93,681.286 1926.02,702.494 1927.11,743.586 1930.37,709.058 1931.46,695.412 1932.55,656.979 1933.64,637.598 1934.73,630.317 1938,630.977 1939.09,639.64 1940.18,639.808 1941.27,641.291 1942.36,637.174 1946.72,630.791 1947.81,628.764 1948.9,632.277 1949.98,637.354 1953.25,648.819 1954.34,646.928 1955.43,639.242 1956.52,659.416 1957.61,657.677 1960.88,643.561 1961.97,645.243 1963.06,645.243 1964.15,645.243 1965.24,645.243 1968.51,645.243 1969.6,645.243 1970.68,645.243 1971.77,645.243 1972.86,645.243 1976.09,645.243 1977.18,645.243 1978.27,640.484 1979.36,657.829 1980.44,655.053 1983.71,635.012 1984.8,636.241 1985.89,634.471 1986.98,634.471 1988.07,634.471 1991.34,634.471 1992.43,634.471 1993.52,634.471 1994.61,634.471 1998.97,611.514 2000.06,613.601 2001.14,595.032 2002.23,574.494 2003.32,551.338 2006.59,572.297 2007.68,548.18 2008.77,567.286 2009.86,538.445 2010.95,540.247 2014.22,534.48 2015.31,548.192 2016.4,545.834 2017.49,563.719 2018.58,533.69 2021.85,527.543 2022.93,535.833 2024.02,517.941 2025.11,502.772 2026.2,521.795 2029.47,519.693 2030.56,562.287 2031.65,552.963 2032.74,545.182 2033.83,539.7 2037.1,557.731 2038.19,568.133 2039.28,590.163 2040.37,583.205 2041.46,583.205 2044.72,583.205 2045.81,583.205 2046.9,583.205 2047.99,583.205 2049.08,583.205 2052.35,583.205 2053.44,583.205 2054.53,576.661 2055.62,586.469 2056.71,583.608 2061.07,577.838 2062.16,580.534 2063.25,585.805 2064.33,570.898 2067.6,566.367 2068.69,561.068 2069.78,558.365 2070.87,554.571 2071.96,549.155 2075.23,525.218 2076.32,532.547 2077.41,531.45 2078.5,516.814 2079.59,530.305 2082.86,513.058 2083.95,498.992 2085.04,504.164 2086.12,500.81 2087.21,504.522 2090.48,495.071 2091.57,490.335 2092.66,490.794 2093.75,482.178 2094.84,450.305 2099.2,430.627 2100.29,412.565 2101.38,426.669 2102.47,412.331 2105.74,409.931 2106.82,400 2107.91,370.926 2109,380.322 2110.09,389.877 2113.36,431.177 2114.45,396.099 2115.54,391.363 2116.63,377.906 2117.72,338.402 2120.99,324.12 2122.08,356.167 2123.17,370.11 2124.26,364.931 2125.35,371.884 2128.61,369.174 2129.7,365.503 2130.79,367.094 2131.88,360.824 2132.97,366.034 2136.24,360.242 2137.33,362.743 2138.42,362.471 2139.51,358.045 2140.6,357.118 2143.87,341.121 2144.96,357.217 2146.05,386.054 2147.14,381.732 2148.23,362.677 2151.49,336.229 2152.58,328.585 2153.67,333.065 2154.76,343.479 2155.85,321.426 2159.12,287.034 2160.21,295.238 2161.3,288.536 2162.39,291.59 2163.48,283.964 2167.84,264.147 2168.93,278.156 2170.01,284.543 2171.1,335.714 2174.37,322.283 2175.46,331.699 2176.55,314.563 2177.64,323.557 2178.73,341.958 2182,357.535 2183.09,357.535 2184.18,357.535 2185.27,357.535 2186.36,357.535 2189.63,357.535 2190.72,357.535 2191.8,357.535 2192.89,357.535 2193.98,357.535 2197.25,357.535 2198.34,357.535 2199.43,357.535 2200.52,357.535 2201.61,357.535 2204.88,357.535 2205.97,357.535 2207.06,357.535 2208.15,357.535 2209.24,360.854 2212.5,352.726 2213.59,336.212 2214.68,341.948 2215.77,338.245 2216.86,369.517 2220.13,368.898 2221.22,358.913 2222.31,319.168 2223.4,297.532 2224.49,301.507 2227.76,335.251 2228.85,315.339 2229.94,300.182 2231.03,291.563 2232.12,286.011 2235.43,290.624 2236.52,288.936 2237.61,323.793 2238.7,323.338 2239.79,291.611 2243.06,290.836 2244.15,292.809 2245.23,292.898 2246.32,256.178 2247.41,244.015 2250.68,259.216 2251.77,258.783 2252.86,255.682 2255.04,312.854 2258.31,281.727 2259.4,249.731 2260.49,253.083 2261.58,259.469 2262.67,271.61 2265.93,249.605 2267.02,212.55 2268.11,187.889 2269.2,191.177 2270.29,160.256 2273.56,194.715 2274.65,214.596 2275.74,168.006 2276.83,228.52 2277.92,248.473 2281.19,270.689 2282.28,250.202 2283.37,233.445 2284.46,229.398 2288.81,203.789 2289.9,222.547 2290.99,221.62 2292.08,232.256 2293.17,244.606 "/>
<path clip-path="url(#clip060)" d="M317.635 270.476 L653.72 270.476 L653.72 166.796 L317.635 166.796  Z" fill="#ffffff" fill-rule="evenodd" fill-opacity="1"/>
<polyline clip-path="url(#clip060)" style="stroke:#000000; stroke-linecap:round; stroke-linejoin:round; stroke-width:4; stroke-opacity:1; fill:none" points="317.635,270.476 653.72,270.476 653.72,166.796 317.635,166.796 317.635,270.476 "/>
<polyline clip-path="url(#clip060)" style="stroke:#009af9; stroke-linecap:round; stroke-linejoin:round; stroke-width:12; stroke-opacity:1; fill:none" points="341.027,218.636 481.381,218.636 "/>
<path clip-path="url(#clip060)" d="M504.773 209.99 L509.287 209.99 L517.388 231.749 L525.49 209.99 L530.004 209.99 L520.282 235.916 L514.495 235.916 L504.773 209.99 Z" fill="#000000" fill-rule="nonzero" fill-opacity="1" /><path clip-path="url(#clip060)" d="M547.666 222.883 Q542.504 222.883 540.513 224.064 Q538.523 225.244 538.523 228.092 Q538.523 230.36 540.004 231.703 Q541.509 233.022 544.078 233.022 Q547.62 233.022 549.749 230.522 Q551.902 227.999 551.902 223.832 L551.902 222.883 L547.666 222.883 M556.161 221.124 L556.161 235.916 L551.902 235.916 L551.902 231.981 Q550.444 234.342 548.268 235.476 Q546.092 236.587 542.944 236.587 Q538.962 236.587 536.601 234.365 Q534.263 232.119 534.263 228.369 Q534.263 223.994 537.18 221.772 Q540.12 219.55 545.93 219.55 L551.902 219.55 L551.902 219.133 Q551.902 216.194 549.958 214.596 Q548.036 212.976 544.541 212.976 Q542.319 212.976 540.212 213.508 Q538.106 214.041 536.162 215.106 L536.162 211.17 Q538.499 210.268 540.699 209.828 Q542.898 209.365 544.981 209.365 Q550.606 209.365 553.384 212.282 Q556.161 215.198 556.161 221.124 Z" fill="#000000" fill-rule="nonzero" fill-opacity="1" /><path clip-path="url(#clip060)" d="M564.935 199.897 L569.194 199.897 L569.194 235.916 L564.935 235.916 L564.935 199.897 Z" fill="#000000" fill-rule="nonzero" fill-opacity="1" /><path clip-path="url(#clip060)" d="M577.666 225.684 L577.666 209.99 L581.925 209.99 L581.925 225.522 Q581.925 229.203 583.36 231.055 Q584.796 232.883 587.666 232.883 Q591.115 232.883 593.106 230.684 Q595.12 228.485 595.12 224.689 L595.12 209.99 L599.379 209.99 L599.379 235.916 L595.12 235.916 L595.12 231.934 Q593.569 234.295 591.508 235.453 Q589.471 236.587 586.763 236.587 Q582.296 236.587 579.981 233.809 Q577.666 231.031 577.666 225.684 M588.383 209.365 L588.383 209.365 Z" fill="#000000" fill-rule="nonzero" fill-opacity="1" /><path clip-path="url(#clip060)" d="M630.328 221.888 L630.328 223.971 L610.744 223.971 Q611.022 228.369 613.383 230.684 Q615.768 232.976 620.004 232.976 Q622.457 232.976 624.749 232.374 Q627.064 231.772 629.332 230.569 L629.332 234.596 Q627.041 235.568 624.633 236.078 Q622.226 236.587 619.749 236.587 Q613.545 236.587 609.911 232.976 Q606.3 229.365 606.3 223.207 Q606.3 216.842 609.726 213.115 Q613.175 209.365 619.008 209.365 Q624.24 209.365 627.272 212.745 Q630.328 216.101 630.328 221.888 M626.068 220.638 Q626.022 217.143 624.101 215.059 Q622.203 212.976 619.055 212.976 Q615.49 212.976 613.337 214.99 Q611.207 217.004 610.883 220.661 L626.068 220.638 Z" fill="#000000" fill-rule="nonzero" fill-opacity="1" /></svg>
