<?xml version="1.0" encoding="utf-8"?>
<svg xmlns="http://www.w3.org/2000/svg" xmlns:xlink="http://www.w3.org/1999/xlink" width="600" height="400" viewBox="0 0 2400 1600">
<defs>
  <clipPath id="clip270">
    <rect x="0" y="0" width="2400" height="1600"/>
  </clipPath>
</defs>
<path clip-path="url(#clip270)" d="M0 1600 L2400 1600 L2400 0 L0 0  Z" fill="#ffffff" fill-rule="evenodd" fill-opacity="1"/>
<defs>
  <clipPath id="clip271">
    <rect x="480" y="0" width="1681" height="1600"/>
  </clipPath>
</defs>
<path clip-path="url(#clip270)" d="M365.673 1423.18 L2352.76 1423.18 L2352.76 123.472 L365.673 123.472  Z" fill="#ffffff" fill-rule="evenodd" fill-opacity="1"/>
<defs>
  <clipPath id="clip272">
    <rect x="365" y="123" width="1988" height="1301"/>
  </clipPath>
</defs>
<polyline clip-path="url(#clip272)" style="stroke:#000000; stroke-linecap:round; stroke-linejoin:round; stroke-width:2; stroke-opacity:0.1; fill:none" points="403.552,1423.18 403.552,123.472 "/>
<polyline clip-path="url(#clip272)" style="stroke:#000000; stroke-linecap:round; stroke-linejoin:round; stroke-width:2; stroke-opacity:0.1; fill:none" points="884.221,1423.18 884.221,123.472 "/>
<polyline clip-path="url(#clip272)" style="stroke:#000000; stroke-linecap:round; stroke-linejoin:round; stroke-width:2; stroke-opacity:0.1; fill:none" points="1370.23,1423.18 1370.23,123.472 "/>
<polyline clip-path="url(#clip272)" style="stroke:#000000; stroke-linecap:round; stroke-linejoin:round; stroke-width:2; stroke-opacity:0.1; fill:none" points="1861.58,1423.18 1861.58,123.472 "/>
<polyline clip-path="url(#clip270)" style="stroke:#000000; stroke-linecap:round; stroke-linejoin:round; stroke-width:4; stroke-opacity:1; fill:none" points="365.673,1423.18 2352.76,1423.18 "/>
<polyline clip-path="url(#clip270)" style="stroke:#000000; stroke-linecap:round; stroke-linejoin:round; stroke-width:4; stroke-opacity:1; fill:none" points="403.552,1423.18 403.552,1404.28 "/>
<polyline clip-path="url(#clip270)" style="stroke:#000000; stroke-linecap:round; stroke-linejoin:round; stroke-width:4; stroke-opacity:1; fill:none" points="884.221,1423.18 884.221,1404.28 "/>
<polyline clip-path="url(#clip270)" style="stroke:#000000; stroke-linecap:round; stroke-linejoin:round; stroke-width:4; stroke-opacity:1; fill:none" points="1370.23,1423.18 1370.23,1404.28 "/>
<polyline clip-path="url(#clip270)" style="stroke:#000000; stroke-linecap:round; stroke-linejoin:round; stroke-width:4; stroke-opacity:1; fill:none" points="1861.58,1423.18 1861.58,1404.28 "/>
<path clip-path="url(#clip270)" d="M275.347 1481.64 L291.666 1481.64 L291.666 1485.58 L269.722 1485.58 L269.722 1481.64 Q272.384 1478.89 276.967 1474.26 Q281.574 1469.61 282.754 1468.27 Q285 1465.74 285.879 1464.01 Q286.782 1462.25 286.782 1460.56 Q286.782 1457.8 284.837 1456.07 Q282.916 1454.33 279.814 1454.33 Q277.615 1454.33 275.162 1455.09 Q272.731 1455.86 269.953 1457.41 L269.953 1452.69 Q272.777 1451.55 275.231 1450.97 Q277.685 1450.39 279.722 1450.39 Q285.092 1450.39 288.287 1453.08 Q291.481 1455.77 291.481 1460.26 Q291.481 1462.39 290.671 1464.31 Q289.884 1466.2 287.777 1468.8 Q287.199 1469.47 284.097 1472.69 Q280.995 1475.88 275.347 1481.64 Z" fill="#000000" fill-rule="nonzero" fill-opacity="1" /><path clip-path="url(#clip270)" d="M311.481 1454.1 Q307.87 1454.1 306.041 1457.66 Q304.236 1461.2 304.236 1468.33 Q304.236 1475.44 306.041 1479.01 Q307.87 1482.55 311.481 1482.55 Q315.115 1482.55 316.921 1479.01 Q318.749 1475.44 318.749 1468.33 Q318.749 1461.2 316.921 1457.66 Q315.115 1454.1 311.481 1454.1 M311.481 1450.39 Q317.291 1450.39 320.347 1455 Q323.425 1459.58 323.425 1468.33 Q323.425 1477.06 320.347 1481.67 Q317.291 1486.25 311.481 1486.25 Q305.671 1486.25 302.592 1481.67 Q299.536 1477.06 299.536 1468.33 Q299.536 1459.58 302.592 1455 Q305.671 1450.39 311.481 1450.39 Z" fill="#000000" fill-rule="nonzero" fill-opacity="1" /><path clip-path="url(#clip270)" d="M335.671 1481.64 L351.99 1481.64 L351.99 1485.58 L330.046 1485.58 L330.046 1481.64 Q332.708 1478.89 337.291 1474.26 Q341.897 1469.61 343.078 1468.27 Q345.323 1465.74 346.203 1464.01 Q347.106 1462.25 347.106 1460.56 Q347.106 1457.8 345.161 1456.07 Q343.24 1454.33 340.138 1454.33 Q337.939 1454.33 335.485 1455.09 Q333.055 1455.86 330.277 1457.41 L330.277 1452.69 Q333.101 1451.55 335.555 1450.97 Q338.008 1450.39 340.046 1450.39 Q345.416 1450.39 348.61 1453.08 Q351.805 1455.77 351.805 1460.26 Q351.805 1462.39 350.995 1464.31 Q350.207 1466.2 348.101 1468.8 Q347.522 1469.47 344.42 1472.69 Q341.319 1475.88 335.671 1481.64 Z" fill="#000000" fill-rule="nonzero" fill-opacity="1" /><path clip-path="url(#clip270)" d="M362.615 1481.64 L370.254 1481.64 L370.254 1455.28 L361.944 1456.95 L361.944 1452.69 L370.207 1451.02 L374.883 1451.02 L374.883 1481.64 L382.522 1481.64 L382.522 1485.58 L362.615 1485.58 L362.615 1481.64 Z" fill="#000000" fill-rule="nonzero" fill-opacity="1" /><path clip-path="url(#clip270)" d="M389.212 1470.7 L401.689 1470.7 L401.689 1474.49 L389.212 1474.49 L389.212 1470.7 Z" fill="#000000" fill-rule="nonzero" fill-opacity="1" /><path clip-path="url(#clip270)" d="M419.073 1454.1 Q415.462 1454.1 413.633 1457.66 Q411.828 1461.2 411.828 1468.33 Q411.828 1475.44 413.633 1479.01 Q415.462 1482.55 419.073 1482.55 Q422.707 1482.55 424.513 1479.01 Q426.341 1475.44 426.341 1468.33 Q426.341 1461.2 424.513 1457.66 Q422.707 1454.1 419.073 1454.1 M419.073 1450.39 Q424.883 1450.39 427.939 1455 Q431.017 1459.58 431.017 1468.33 Q431.017 1477.06 427.939 1481.67 Q424.883 1486.25 419.073 1486.25 Q413.263 1486.25 410.184 1481.67 Q407.128 1477.06 407.128 1468.33 Q407.128 1459.58 410.184 1455 Q413.263 1450.39 419.073 1450.39 Z" fill="#000000" fill-rule="nonzero" fill-opacity="1" /><path clip-path="url(#clip270)" d="M440.045 1481.64 L447.684 1481.64 L447.684 1455.28 L439.374 1456.95 L439.374 1452.69 L447.638 1451.02 L452.313 1451.02 L452.313 1481.64 L459.952 1481.64 L459.952 1485.58 L440.045 1485.58 L440.045 1481.64 Z" fill="#000000" fill-rule="nonzero" fill-opacity="1" /><path clip-path="url(#clip270)" d="M466.642 1470.7 L479.119 1470.7 L479.119 1474.49 L466.642 1474.49 L466.642 1470.7 Z" fill="#000000" fill-rule="nonzero" fill-opacity="1" /><path clip-path="url(#clip270)" d="M496.503 1454.1 Q492.892 1454.1 491.063 1457.66 Q489.258 1461.2 489.258 1468.33 Q489.258 1475.44 491.063 1479.01 Q492.892 1482.55 496.503 1482.55 Q500.137 1482.55 501.943 1479.01 Q503.771 1475.44 503.771 1468.33 Q503.771 1461.2 501.943 1457.66 Q500.137 1454.1 496.503 1454.1 M496.503 1450.39 Q502.313 1450.39 505.369 1455 Q508.447 1459.58 508.447 1468.33 Q508.447 1477.06 505.369 1481.67 Q502.313 1486.25 496.503 1486.25 Q490.693 1486.25 487.614 1481.67 Q484.559 1477.06 484.559 1468.33 Q484.559 1459.58 487.614 1455 Q490.693 1450.39 496.503 1450.39 Z" fill="#000000" fill-rule="nonzero" fill-opacity="1" /><path clip-path="url(#clip270)" d="M517.475 1481.64 L525.114 1481.64 L525.114 1455.28 L516.804 1456.95 L516.804 1452.69 L525.068 1451.02 L529.744 1451.02 L529.744 1481.64 L537.382 1481.64 L537.382 1485.58 L517.475 1485.58 L517.475 1481.64 Z" fill="#000000" fill-rule="nonzero" fill-opacity="1" /><path clip-path="url(#clip270)" d="M756.015 1481.64 L772.335 1481.64 L772.335 1485.58 L750.39 1485.58 L750.39 1481.64 Q753.052 1478.89 757.636 1474.26 Q762.242 1469.61 763.423 1468.27 Q765.668 1465.74 766.548 1464.01 Q767.45 1462.25 767.45 1460.56 Q767.45 1457.8 765.506 1456.07 Q763.585 1454.33 760.483 1454.33 Q758.284 1454.33 755.83 1455.09 Q753.399 1455.86 750.622 1457.41 L750.622 1452.69 Q753.446 1451.55 755.899 1450.97 Q758.353 1450.39 760.39 1450.39 Q765.76 1450.39 768.955 1453.08 Q772.149 1455.77 772.149 1460.26 Q772.149 1462.39 771.339 1464.31 Q770.552 1466.2 768.446 1468.8 Q767.867 1469.47 764.765 1472.69 Q761.663 1475.88 756.015 1481.64 Z" fill="#000000" fill-rule="nonzero" fill-opacity="1" /><path clip-path="url(#clip270)" d="M792.149 1454.1 Q788.538 1454.1 786.709 1457.66 Q784.904 1461.2 784.904 1468.33 Q784.904 1475.44 786.709 1479.01 Q788.538 1482.55 792.149 1482.55 Q795.783 1482.55 797.589 1479.01 Q799.418 1475.44 799.418 1468.33 Q799.418 1461.2 797.589 1457.66 Q795.783 1454.1 792.149 1454.1 M792.149 1450.39 Q797.959 1450.39 801.015 1455 Q804.094 1459.58 804.094 1468.33 Q804.094 1477.06 801.015 1481.67 Q797.959 1486.25 792.149 1486.25 Q786.339 1486.25 783.26 1481.67 Q780.205 1477.06 780.205 1468.33 Q780.205 1459.58 783.26 1455 Q786.339 1450.39 792.149 1450.39 Z" fill="#000000" fill-rule="nonzero" fill-opacity="1" /><path clip-path="url(#clip270)" d="M816.339 1481.64 L832.658 1481.64 L832.658 1485.58 L810.714 1485.58 L810.714 1481.64 Q813.376 1478.89 817.959 1474.26 Q822.566 1469.61 823.746 1468.27 Q825.992 1465.74 826.871 1464.01 Q827.774 1462.25 827.774 1460.56 Q827.774 1457.8 825.83 1456.07 Q823.908 1454.33 820.806 1454.33 Q818.607 1454.33 816.154 1455.09 Q813.723 1455.86 810.945 1457.41 L810.945 1452.69 Q813.769 1451.55 816.223 1450.97 Q818.677 1450.39 820.714 1450.39 Q826.084 1450.39 829.279 1453.08 Q832.473 1455.77 832.473 1460.26 Q832.473 1462.39 831.663 1464.31 Q830.876 1466.2 828.769 1468.8 Q828.191 1469.47 825.089 1472.69 Q821.987 1475.88 816.339 1481.64 Z" fill="#000000" fill-rule="nonzero" fill-opacity="1" /><path clip-path="url(#clip270)" d="M843.283 1481.64 L850.922 1481.64 L850.922 1455.28 L842.612 1456.95 L842.612 1452.69 L850.876 1451.02 L855.552 1451.02 L855.552 1481.64 L863.191 1481.64 L863.191 1485.58 L843.283 1485.58 L843.283 1481.64 Z" fill="#000000" fill-rule="nonzero" fill-opacity="1" /><path clip-path="url(#clip270)" d="M869.88 1470.7 L882.357 1470.7 L882.357 1474.49 L869.88 1474.49 L869.88 1470.7 Z" fill="#000000" fill-rule="nonzero" fill-opacity="1" /><path clip-path="url(#clip270)" d="M899.741 1454.1 Q896.13 1454.1 894.301 1457.66 Q892.496 1461.2 892.496 1468.33 Q892.496 1475.44 894.301 1479.01 Q896.13 1482.55 899.741 1482.55 Q903.375 1482.55 905.181 1479.01 Q907.01 1475.44 907.01 1468.33 Q907.01 1461.2 905.181 1457.66 Q903.375 1454.1 899.741 1454.1 M899.741 1450.39 Q905.551 1450.39 908.607 1455 Q911.686 1459.58 911.686 1468.33 Q911.686 1477.06 908.607 1481.67 Q905.551 1486.25 899.741 1486.25 Q893.931 1486.25 890.852 1481.67 Q887.797 1477.06 887.797 1468.33 Q887.797 1459.58 890.852 1455 Q893.931 1450.39 899.741 1450.39 Z" fill="#000000" fill-rule="nonzero" fill-opacity="1" /><path clip-path="url(#clip270)" d="M932.75 1455.09 L920.945 1473.54 L932.75 1473.54 L932.75 1455.09 M931.523 1451.02 L937.403 1451.02 L937.403 1473.54 L942.334 1473.54 L942.334 1477.43 L937.403 1477.43 L937.403 1485.58 L932.75 1485.58 L932.75 1477.43 L917.149 1477.43 L917.149 1472.92 L931.523 1451.02 Z" fill="#000000" fill-rule="nonzero" fill-opacity="1" /><path clip-path="url(#clip270)" d="M947.31 1470.7 L959.787 1470.7 L959.787 1474.49 L947.31 1474.49 L947.31 1470.7 Z" fill="#000000" fill-rule="nonzero" fill-opacity="1" /><path clip-path="url(#clip270)" d="M977.171 1454.1 Q973.56 1454.1 971.732 1457.66 Q969.926 1461.2 969.926 1468.33 Q969.926 1475.44 971.732 1479.01 Q973.56 1482.55 977.171 1482.55 Q980.806 1482.55 982.611 1479.01 Q984.44 1475.44 984.44 1468.33 Q984.44 1461.2 982.611 1457.66 Q980.806 1454.1 977.171 1454.1 M977.171 1450.39 Q982.982 1450.39 986.037 1455 Q989.116 1459.58 989.116 1468.33 Q989.116 1477.06 986.037 1481.67 Q982.982 1486.25 977.171 1486.25 Q971.361 1486.25 968.283 1481.67 Q965.227 1477.06 965.227 1468.33 Q965.227 1459.58 968.283 1455 Q971.361 1450.39 977.171 1450.39 Z" fill="#000000" fill-rule="nonzero" fill-opacity="1" /><path clip-path="url(#clip270)" d="M998.144 1481.64 L1005.78 1481.64 L1005.78 1455.28 L997.472 1456.95 L997.472 1452.69 L1005.74 1451.02 L1010.41 1451.02 L1010.41 1481.64 L1018.05 1481.64 L1018.05 1485.58 L998.144 1485.58 L998.144 1481.64 Z" fill="#000000" fill-rule="nonzero" fill-opacity="1" /><path clip-path="url(#clip270)" d="M1242.02 1481.64 L1258.34 1481.64 L1258.34 1485.58 L1236.4 1485.58 L1236.4 1481.64 Q1239.06 1478.89 1243.64 1474.26 Q1248.25 1469.61 1249.43 1468.27 Q1251.68 1465.74 1252.56 1464.01 Q1253.46 1462.25 1253.46 1460.56 Q1253.46 1457.8 1251.52 1456.07 Q1249.59 1454.33 1246.49 1454.33 Q1244.29 1454.33 1241.84 1455.09 Q1239.41 1455.86 1236.63 1457.41 L1236.63 1452.69 Q1239.45 1451.55 1241.91 1450.97 Q1244.36 1450.39 1246.4 1450.39 Q1251.77 1450.39 1254.96 1453.08 Q1258.16 1455.77 1258.16 1460.26 Q1258.16 1462.39 1257.35 1464.31 Q1256.56 1466.2 1254.45 1468.8 Q1253.88 1469.47 1250.77 1472.69 Q1247.67 1475.88 1242.02 1481.64 Z" fill="#000000" fill-rule="nonzero" fill-opacity="1" /><path clip-path="url(#clip270)" d="M1278.16 1454.1 Q1274.55 1454.1 1272.72 1457.66 Q1270.91 1461.2 1270.91 1468.33 Q1270.91 1475.44 1272.72 1479.01 Q1274.55 1482.55 1278.16 1482.55 Q1281.79 1482.55 1283.6 1479.01 Q1285.43 1475.44 1285.43 1468.33 Q1285.43 1461.2 1283.6 1457.66 Q1281.79 1454.1 1278.16 1454.1 M1278.16 1450.39 Q1283.97 1450.39 1287.02 1455 Q1290.1 1459.58 1290.1 1468.33 Q1290.1 1477.06 1287.02 1481.67 Q1283.97 1486.25 1278.16 1486.25 Q1272.35 1486.25 1269.27 1481.67 Q1266.21 1477.06 1266.21 1468.33 Q1266.21 1459.58 1269.27 1455 Q1272.35 1450.39 1278.16 1450.39 Z" fill="#000000" fill-rule="nonzero" fill-opacity="1" /><path clip-path="url(#clip270)" d="M1302.35 1481.64 L1318.67 1481.64 L1318.67 1485.58 L1296.72 1485.58 L1296.72 1481.64 Q1299.39 1478.89 1303.97 1474.26 Q1308.57 1469.61 1309.76 1468.27 Q1312 1465.74 1312.88 1464.01 Q1313.78 1462.25 1313.78 1460.56 Q1313.78 1457.8 1311.84 1456.07 Q1309.92 1454.33 1306.82 1454.33 Q1304.62 1454.33 1302.16 1455.09 Q1299.73 1455.86 1296.95 1457.41 L1296.95 1452.69 Q1299.78 1451.55 1302.23 1450.97 Q1304.69 1450.39 1306.72 1450.39 Q1312.09 1450.39 1315.29 1453.08 Q1318.48 1455.77 1318.48 1460.26 Q1318.48 1462.39 1317.67 1464.31 Q1316.89 1466.2 1314.78 1468.8 Q1314.2 1469.47 1311.1 1472.69 Q1308 1475.88 1302.35 1481.64 Z" fill="#000000" fill-rule="nonzero" fill-opacity="1" /><path clip-path="url(#clip270)" d="M1329.29 1481.64 L1336.93 1481.64 L1336.93 1455.28 L1328.62 1456.95 L1328.62 1452.69 L1336.88 1451.02 L1341.56 1451.02 L1341.56 1481.64 L1349.2 1481.64 L1349.2 1485.58 L1329.29 1485.58 L1329.29 1481.64 Z" fill="#000000" fill-rule="nonzero" fill-opacity="1" /><path clip-path="url(#clip270)" d="M1355.89 1470.7 L1368.37 1470.7 L1368.37 1474.49 L1355.89 1474.49 L1355.89 1470.7 Z" fill="#000000" fill-rule="nonzero" fill-opacity="1" /><path clip-path="url(#clip270)" d="M1385.75 1454.1 Q1382.14 1454.1 1380.31 1457.66 Q1378.51 1461.2 1378.51 1468.33 Q1378.51 1475.44 1380.31 1479.01 Q1382.14 1482.55 1385.75 1482.55 Q1389.38 1482.55 1391.19 1479.01 Q1393.02 1475.44 1393.02 1468.33 Q1393.02 1461.2 1391.19 1457.66 Q1389.38 1454.1 1385.75 1454.1 M1385.75 1450.39 Q1391.56 1450.39 1394.62 1455 Q1397.69 1459.58 1397.69 1468.33 Q1397.69 1477.06 1394.62 1481.67 Q1391.56 1486.25 1385.75 1486.25 Q1379.94 1486.25 1376.86 1481.67 Q1373.81 1477.06 1373.81 1468.33 Q1373.81 1459.58 1376.86 1455 Q1379.94 1450.39 1385.75 1450.39 Z" fill="#000000" fill-rule="nonzero" fill-opacity="1" /><path clip-path="url(#clip270)" d="M1404.73 1451.02 L1426.95 1451.02 L1426.95 1453.01 L1414.41 1485.58 L1409.52 1485.58 L1421.33 1454.96 L1404.73 1454.96 L1404.73 1451.02 Z" fill="#000000" fill-rule="nonzero" fill-opacity="1" /><path clip-path="url(#clip270)" d="M1433.32 1470.7 L1445.8 1470.7 L1445.8 1474.49 L1433.32 1474.49 L1433.32 1470.7 Z" fill="#000000" fill-rule="nonzero" fill-opacity="1" /><path clip-path="url(#clip270)" d="M1463.18 1454.1 Q1459.57 1454.1 1457.74 1457.66 Q1455.94 1461.2 1455.94 1468.33 Q1455.94 1475.44 1457.74 1479.01 Q1459.57 1482.55 1463.18 1482.55 Q1466.81 1482.55 1468.62 1479.01 Q1470.45 1475.44 1470.45 1468.33 Q1470.45 1461.2 1468.62 1457.66 Q1466.81 1454.1 1463.18 1454.1 M1463.18 1450.39 Q1468.99 1450.39 1472.05 1455 Q1475.12 1459.58 1475.12 1468.33 Q1475.12 1477.06 1472.05 1481.67 Q1468.99 1486.25 1463.18 1486.25 Q1457.37 1486.25 1454.29 1481.67 Q1451.24 1477.06 1451.24 1468.33 Q1451.24 1459.58 1454.29 1455 Q1457.37 1450.39 1463.18 1450.39 Z" fill="#000000" fill-rule="nonzero" fill-opacity="1" /><path clip-path="url(#clip270)" d="M1484.15 1481.64 L1491.79 1481.64 L1491.79 1455.28 L1483.48 1456.95 L1483.48 1452.69 L1491.75 1451.02 L1496.42 1451.02 L1496.42 1481.64 L1504.06 1481.64 L1504.06 1485.58 L1484.15 1485.58 L1484.15 1481.64 Z" fill="#000000" fill-rule="nonzero" fill-opacity="1" /><path clip-path="url(#clip270)" d="M1733.37 1481.64 L1749.69 1481.64 L1749.69 1485.58 L1727.75 1485.58 L1727.75 1481.64 Q1730.41 1478.89 1734.99 1474.26 Q1739.6 1469.61 1740.78 1468.27 Q1743.03 1465.74 1743.91 1464.01 Q1744.81 1462.25 1744.81 1460.56 Q1744.81 1457.8 1742.86 1456.07 Q1740.94 1454.33 1737.84 1454.33 Q1735.64 1454.33 1733.19 1455.09 Q1730.76 1455.86 1727.98 1457.41 L1727.98 1452.69 Q1730.8 1451.55 1733.26 1450.97 Q1735.71 1450.39 1737.75 1450.39 Q1743.12 1450.39 1746.31 1453.08 Q1749.51 1455.77 1749.51 1460.26 Q1749.51 1462.39 1748.7 1464.31 Q1747.91 1466.2 1745.8 1468.8 Q1745.23 1469.47 1742.12 1472.69 Q1739.02 1475.88 1733.37 1481.64 Z" fill="#000000" fill-rule="nonzero" fill-opacity="1" /><path clip-path="url(#clip270)" d="M1769.51 1454.1 Q1765.9 1454.1 1764.07 1457.66 Q1762.26 1461.2 1762.26 1468.33 Q1762.26 1475.44 1764.07 1479.01 Q1765.9 1482.55 1769.51 1482.55 Q1773.14 1482.55 1774.95 1479.01 Q1776.78 1475.44 1776.78 1468.33 Q1776.78 1461.2 1774.95 1457.66 Q1773.14 1454.1 1769.51 1454.1 M1769.51 1450.39 Q1775.32 1450.39 1778.37 1455 Q1781.45 1459.58 1781.45 1468.33 Q1781.45 1477.06 1778.37 1481.67 Q1775.32 1486.25 1769.51 1486.25 Q1763.7 1486.25 1760.62 1481.67 Q1757.56 1477.06 1757.56 1468.33 Q1757.56 1459.58 1760.62 1455 Q1763.7 1450.39 1769.51 1450.39 Z" fill="#000000" fill-rule="nonzero" fill-opacity="1" /><path clip-path="url(#clip270)" d="M1793.7 1481.64 L1810.02 1481.64 L1810.02 1485.58 L1788.07 1485.58 L1788.07 1481.64 Q1790.74 1478.89 1795.32 1474.26 Q1799.92 1469.61 1801.11 1468.27 Q1803.35 1465.74 1804.23 1464.01 Q1805.13 1462.25 1805.13 1460.56 Q1805.13 1457.8 1803.19 1456.07 Q1801.27 1454.33 1798.17 1454.33 Q1795.97 1454.33 1793.51 1455.09 Q1791.08 1455.86 1788.3 1457.41 L1788.3 1452.69 Q1791.13 1451.55 1793.58 1450.97 Q1796.04 1450.39 1798.07 1450.39 Q1803.44 1450.39 1806.64 1453.08 Q1809.83 1455.77 1809.83 1460.26 Q1809.83 1462.39 1809.02 1464.31 Q1808.23 1466.2 1806.13 1468.8 Q1805.55 1469.47 1802.45 1472.69 Q1799.35 1475.88 1793.7 1481.64 Z" fill="#000000" fill-rule="nonzero" fill-opacity="1" /><path clip-path="url(#clip270)" d="M1820.64 1481.64 L1828.28 1481.64 L1828.28 1455.28 L1819.97 1456.95 L1819.97 1452.69 L1828.23 1451.02 L1832.91 1451.02 L1832.91 1481.64 L1840.55 1481.64 L1840.55 1485.58 L1820.64 1485.58 L1820.64 1481.64 Z" fill="#000000" fill-rule="nonzero" fill-opacity="1" /><path clip-path="url(#clip270)" d="M1847.24 1470.7 L1859.72 1470.7 L1859.72 1474.49 L1847.24 1474.49 L1847.24 1470.7 Z" fill="#000000" fill-rule="nonzero" fill-opacity="1" /><path clip-path="url(#clip270)" d="M1867.91 1481.64 L1875.55 1481.64 L1875.55 1455.28 L1867.24 1456.95 L1867.24 1452.69 L1875.5 1451.02 L1880.18 1451.02 L1880.18 1481.64 L1887.82 1481.64 L1887.82 1485.58 L1867.91 1485.58 L1867.91 1481.64 Z" fill="#000000" fill-rule="nonzero" fill-opacity="1" /><path clip-path="url(#clip270)" d="M1907.26 1454.1 Q1903.65 1454.1 1901.82 1457.66 Q1900.02 1461.2 1900.02 1468.33 Q1900.02 1475.44 1901.82 1479.01 Q1903.65 1482.55 1907.26 1482.55 Q1910.9 1482.55 1912.7 1479.01 Q1914.53 1475.44 1914.53 1468.33 Q1914.53 1461.2 1912.7 1457.66 Q1910.9 1454.1 1907.26 1454.1 M1907.26 1450.39 Q1913.07 1450.39 1916.13 1455 Q1919.21 1459.58 1919.21 1468.33 Q1919.21 1477.06 1916.13 1481.67 Q1913.07 1486.25 1907.26 1486.25 Q1901.45 1486.25 1898.37 1481.67 Q1895.32 1477.06 1895.32 1468.33 Q1895.32 1459.58 1898.37 1455 Q1901.45 1450.39 1907.26 1450.39 Z" fill="#000000" fill-rule="nonzero" fill-opacity="1" /><path clip-path="url(#clip270)" d="M1924.67 1470.7 L1937.15 1470.7 L1937.15 1474.49 L1924.67 1474.49 L1924.67 1470.7 Z" fill="#000000" fill-rule="nonzero" fill-opacity="1" /><path clip-path="url(#clip270)" d="M1954.53 1454.1 Q1950.92 1454.1 1949.09 1457.66 Q1947.29 1461.2 1947.29 1468.33 Q1947.29 1475.44 1949.09 1479.01 Q1950.92 1482.55 1954.53 1482.55 Q1958.16 1482.55 1959.97 1479.01 Q1961.8 1475.44 1961.8 1468.33 Q1961.8 1461.2 1959.97 1457.66 Q1958.16 1454.1 1954.53 1454.1 M1954.53 1450.39 Q1960.34 1450.39 1963.4 1455 Q1966.47 1459.58 1966.47 1468.33 Q1966.47 1477.06 1963.4 1481.67 Q1960.34 1486.25 1954.53 1486.25 Q1948.72 1486.25 1945.64 1481.67 Q1942.59 1477.06 1942.59 1468.33 Q1942.59 1459.58 1945.64 1455 Q1948.72 1450.39 1954.53 1450.39 Z" fill="#000000" fill-rule="nonzero" fill-opacity="1" /><path clip-path="url(#clip270)" d="M1975.5 1481.64 L1983.14 1481.64 L1983.14 1455.28 L1974.83 1456.95 L1974.83 1452.69 L1983.1 1451.02 L1987.77 1451.02 L1987.77 1481.64 L1995.41 1481.64 L1995.41 1485.58 L1975.5 1485.58 L1975.5 1481.64 Z" fill="#000000" fill-rule="nonzero" fill-opacity="1" /><path clip-path="url(#clip270)" d="M1315.26 1537.81 L1315.26 1518.52 L1321.12 1518.52 L1321.12 1568.04 L1315.26 1568.04 L1315.26 1562.7 Q1313.41 1565.88 1310.58 1567.44 Q1307.78 1568.97 1303.83 1568.97 Q1297.37 1568.97 1293.3 1563.81 Q1289.26 1558.65 1289.26 1550.25 Q1289.26 1541.85 1293.3 1536.69 Q1297.37 1531.54 1303.83 1531.54 Q1307.78 1531.54 1310.58 1533.1 Q1313.41 1534.62 1315.26 1537.81 M1295.3 1550.25 Q1295.3 1556.71 1297.94 1560.4 Q1300.62 1564.07 1305.26 1564.07 Q1309.91 1564.07 1312.59 1560.4 Q1315.26 1556.71 1315.26 1550.25 Q1315.26 1543.79 1312.59 1540.13 Q1309.91 1536.44 1305.26 1536.44 Q1300.62 1536.44 1297.94 1540.13 Q1295.3 1543.79 1295.3 1550.25 Z" fill="#000000" fill-rule="nonzero" fill-opacity="1" /><path clip-path="url(#clip270)" d="M1349.38 1550.12 Q1342.28 1550.12 1339.54 1551.75 Q1336.81 1553.37 1336.81 1557.29 Q1336.81 1560.4 1338.84 1562.25 Q1340.91 1564.07 1344.45 1564.07 Q1349.32 1564.07 1352.24 1560.63 Q1355.2 1557.16 1355.2 1551.43 L1355.2 1550.12 L1349.38 1550.12 M1361.06 1547.71 L1361.06 1568.04 L1355.2 1568.04 L1355.2 1562.63 Q1353.2 1565.88 1350.21 1567.44 Q1347.21 1568.97 1342.89 1568.97 Q1337.41 1568.97 1334.17 1565.91 Q1330.95 1562.82 1330.95 1557.67 Q1330.95 1551.65 1334.96 1548.6 Q1339 1545.54 1346.99 1545.54 L1355.2 1545.54 L1355.2 1544.97 Q1355.2 1540.93 1352.53 1538.73 Q1349.89 1536.5 1345.08 1536.5 Q1342.03 1536.5 1339.13 1537.23 Q1336.23 1537.97 1333.56 1539.43 L1333.56 1534.02 Q1336.78 1532.78 1339.8 1532.17 Q1342.82 1531.54 1345.69 1531.54 Q1353.42 1531.54 1357.24 1535.55 Q1361.06 1539.56 1361.06 1547.71 Z" fill="#000000" fill-rule="nonzero" fill-opacity="1" /><path clip-path="url(#clip270)" d="M1378.92 1522.27 L1378.92 1532.4 L1390.98 1532.4 L1390.98 1536.95 L1378.92 1536.95 L1378.92 1556.3 Q1378.92 1560.66 1380.09 1561.9 Q1381.3 1563.14 1384.96 1563.14 L1390.98 1563.14 L1390.98 1568.04 L1384.96 1568.04 Q1378.18 1568.04 1375.61 1565.53 Q1373.03 1562.98 1373.03 1556.3 L1373.03 1536.95 L1368.73 1536.95 L1368.73 1532.4 L1373.03 1532.4 L1373.03 1522.27 L1378.92 1522.27 Z" fill="#000000" fill-rule="nonzero" fill-opacity="1" /><path clip-path="url(#clip270)" d="M1429.17 1548.76 L1429.17 1551.62 L1402.25 1551.62 Q1402.63 1557.67 1405.87 1560.85 Q1409.15 1564 1414.98 1564 Q1418.35 1564 1421.5 1563.17 Q1424.69 1562.35 1427.8 1560.69 L1427.8 1566.23 Q1424.65 1567.57 1421.34 1568.27 Q1418.03 1568.97 1414.63 1568.97 Q1406.1 1568.97 1401.1 1564 Q1396.14 1559.04 1396.14 1550.57 Q1396.14 1541.82 1400.85 1536.69 Q1405.59 1531.54 1413.61 1531.54 Q1420.8 1531.54 1424.97 1536.18 Q1429.17 1540.8 1429.17 1548.76 M1423.32 1547.04 Q1423.25 1542.23 1420.61 1539.37 Q1418 1536.5 1413.67 1536.5 Q1408.77 1536.5 1405.81 1539.27 Q1402.88 1542.04 1402.44 1547.07 L1423.32 1547.04 Z" fill="#000000" fill-rule="nonzero" fill-opacity="1" /><polyline clip-path="url(#clip272)" style="stroke:#000000; stroke-linecap:round; stroke-linejoin:round; stroke-width:2; stroke-opacity:0.1; fill:none" points="365.673,1386.4 2352.76,1386.4 "/>
<polyline clip-path="url(#clip272)" style="stroke:#000000; stroke-linecap:round; stroke-linejoin:round; stroke-width:2; stroke-opacity:0.1; fill:none" points="365.673,1093.37 2352.76,1093.37 "/>
<polyline clip-path="url(#clip272)" style="stroke:#000000; stroke-linecap:round; stroke-linejoin:round; stroke-width:2; stroke-opacity:0.1; fill:none" points="365.673,800.339 2352.76,800.339 "/>
<polyline clip-path="url(#clip272)" style="stroke:#000000; stroke-linecap:round; stroke-linejoin:round; stroke-width:2; stroke-opacity:0.1; fill:none" points="365.673,507.311 2352.76,507.311 "/>
<polyline clip-path="url(#clip272)" style="stroke:#000000; stroke-linecap:round; stroke-linejoin:round; stroke-width:2; stroke-opacity:0.1; fill:none" points="365.673,214.283 2352.76,214.283 "/>
<polyline clip-path="url(#clip270)" style="stroke:#000000; stroke-linecap:round; stroke-linejoin:round; stroke-width:4; stroke-opacity:1; fill:none" points="365.673,1423.18 365.673,123.472 "/>
<polyline clip-path="url(#clip270)" style="stroke:#000000; stroke-linecap:round; stroke-linejoin:round; stroke-width:4; stroke-opacity:1; fill:none" points="365.673,1386.4 384.57,1386.4 "/>
<polyline clip-path="url(#clip270)" style="stroke:#000000; stroke-linecap:round; stroke-linejoin:round; stroke-width:4; stroke-opacity:1; fill:none" points="365.673,1093.37 384.57,1093.37 "/>
<polyline clip-path="url(#clip270)" style="stroke:#000000; stroke-linecap:round; stroke-linejoin:round; stroke-width:4; stroke-opacity:1; fill:none" points="365.673,800.339 384.57,800.339 "/>
<polyline clip-path="url(#clip270)" style="stroke:#000000; stroke-linecap:round; stroke-linejoin:round; stroke-width:4; stroke-opacity:1; fill:none" points="365.673,507.311 384.57,507.311 "/>
<polyline clip-path="url(#clip270)" style="stroke:#000000; stroke-linecap:round; stroke-linejoin:round; stroke-width:4; stroke-opacity:1; fill:none" points="365.673,214.283 384.57,214.283 "/>
<path clip-path="url(#clip270)" d="M114.931 1406.19 L122.57 1406.19 L122.57 1379.82 L114.26 1381.49 L114.26 1377.23 L122.524 1375.56 L127.2 1375.56 L127.2 1406.19 L134.839 1406.19 L134.839 1410.12 L114.931 1410.12 L114.931 1406.19 Z" fill="#000000" fill-rule="nonzero" fill-opacity="1" /><path clip-path="url(#clip270)" d="M144.283 1404.24 L149.167 1404.24 L149.167 1410.12 L144.283 1410.12 L144.283 1404.24 Z" fill="#000000" fill-rule="nonzero" fill-opacity="1" /><path clip-path="url(#clip270)" d="M169.352 1378.64 Q165.741 1378.64 163.913 1382.21 Q162.107 1385.75 162.107 1392.88 Q162.107 1399.98 163.913 1403.55 Q165.741 1407.09 169.352 1407.09 Q172.987 1407.09 174.792 1403.55 Q176.621 1399.98 176.621 1392.88 Q176.621 1385.75 174.792 1382.21 Q172.987 1378.64 169.352 1378.64 M169.352 1374.94 Q175.163 1374.94 178.218 1379.54 Q181.297 1384.13 181.297 1392.88 Q181.297 1401.6 178.218 1406.21 Q175.163 1410.79 169.352 1410.79 Q163.542 1410.79 160.464 1406.21 Q157.408 1401.6 157.408 1392.88 Q157.408 1384.13 160.464 1379.54 Q163.542 1374.94 169.352 1374.94 Z" fill="#000000" fill-rule="nonzero" fill-opacity="1" /><path clip-path="url(#clip270)" d="M199.514 1378.64 Q195.903 1378.64 194.075 1382.21 Q192.269 1385.75 192.269 1392.88 Q192.269 1399.98 194.075 1403.55 Q195.903 1407.09 199.514 1407.09 Q203.149 1407.09 204.954 1403.55 Q206.783 1399.98 206.783 1392.88 Q206.783 1385.75 204.954 1382.21 Q203.149 1378.64 199.514 1378.64 M199.514 1374.94 Q205.324 1374.94 208.38 1379.54 Q211.459 1384.13 211.459 1392.88 Q211.459 1401.6 208.38 1406.21 Q205.324 1410.79 199.514 1410.79 Q193.704 1410.79 190.625 1406.21 Q187.57 1401.6 187.57 1392.88 Q187.57 1384.13 190.625 1379.54 Q193.704 1374.94 199.514 1374.94 Z" fill="#000000" fill-rule="nonzero" fill-opacity="1" /><path clip-path="url(#clip270)" d="M247.847 1384.66 L237.269 1395.29 L247.847 1405.86 L245.093 1408.66 L234.468 1398.04 L223.843 1408.66 L221.111 1405.86 L231.667 1395.29 L221.111 1384.66 L223.843 1381.86 L234.468 1392.48 L245.093 1381.86 L247.847 1384.66 Z" fill="#000000" fill-rule="nonzero" fill-opacity="1" /><path clip-path="url(#clip270)" d="M260.208 1406.19 L267.847 1406.19 L267.847 1379.82 L259.537 1381.49 L259.537 1377.23 L267.801 1375.56 L272.477 1375.56 L272.477 1406.19 L280.116 1406.19 L280.116 1410.12 L260.208 1410.12 L260.208 1406.19 Z" fill="#000000" fill-rule="nonzero" fill-opacity="1" /><path clip-path="url(#clip270)" d="M299.56 1378.64 Q295.949 1378.64 294.12 1382.21 Q292.315 1385.75 292.315 1392.88 Q292.315 1399.98 294.12 1403.55 Q295.949 1407.09 299.56 1407.09 Q303.194 1407.09 305 1403.55 Q306.829 1399.98 306.829 1392.88 Q306.829 1385.75 305 1382.21 Q303.194 1378.64 299.56 1378.64 M299.56 1374.94 Q305.37 1374.94 308.426 1379.54 Q311.504 1384.13 311.504 1392.88 Q311.504 1401.6 308.426 1406.21 Q305.37 1410.79 299.56 1410.79 Q293.75 1410.79 290.671 1406.21 Q287.616 1401.6 287.616 1392.88 Q287.616 1384.13 290.671 1379.54 Q293.75 1374.94 299.56 1374.94 Z" fill="#000000" fill-rule="nonzero" fill-opacity="1" /><path clip-path="url(#clip270)" d="M312.689 1354.63 L327.604 1354.63 L327.604 1357.83 L316.169 1357.83 L316.169 1364.71 Q316.996 1364.43 317.824 1364.3 Q318.651 1364.15 319.479 1364.15 Q324.181 1364.15 326.927 1366.73 Q329.673 1369.3 329.673 1373.7 Q329.673 1378.24 326.852 1380.76 Q324.03 1383.26 318.896 1383.26 Q317.128 1383.26 315.285 1382.96 Q313.46 1382.66 311.504 1382.05 L311.504 1378.24 Q313.197 1379.16 315.003 1379.61 Q316.808 1380.06 318.821 1380.06 Q322.074 1380.06 323.974 1378.35 Q325.874 1376.64 325.874 1373.7 Q325.874 1370.77 323.974 1369.06 Q322.074 1367.35 318.821 1367.35 Q317.297 1367.35 315.774 1367.69 Q314.269 1368.02 312.689 1368.74 L312.689 1354.63 Z" fill="#000000" fill-rule="nonzero" fill-opacity="1" /><path clip-path="url(#clip270)" d="M114.931 1113.16 L122.57 1113.16 L122.57 1086.79 L114.26 1088.46 L114.26 1084.2 L122.524 1082.54 L127.2 1082.54 L127.2 1113.16 L134.839 1113.16 L134.839 1117.1 L114.931 1117.1 L114.931 1113.16 Z" fill="#000000" fill-rule="nonzero" fill-opacity="1" /><path clip-path="url(#clip270)" d="M144.283 1111.22 L149.167 1111.22 L149.167 1117.1 L144.283 1117.1 L144.283 1111.22 Z" fill="#000000" fill-rule="nonzero" fill-opacity="1" /><path clip-path="url(#clip270)" d="M160.163 1113.16 L167.802 1113.16 L167.802 1086.79 L159.491 1088.46 L159.491 1084.2 L167.755 1082.54 L172.431 1082.54 L172.431 1113.16 L180.07 1113.16 L180.07 1117.1 L160.163 1117.1 L160.163 1113.16 Z" fill="#000000" fill-rule="nonzero" fill-opacity="1" /><path clip-path="url(#clip270)" d="M199.514 1085.61 Q195.903 1085.61 194.075 1089.18 Q192.269 1092.72 192.269 1099.85 Q192.269 1106.96 194.075 1110.52 Q195.903 1114.06 199.514 1114.06 Q203.149 1114.06 204.954 1110.52 Q206.783 1106.96 206.783 1099.85 Q206.783 1092.72 204.954 1089.18 Q203.149 1085.61 199.514 1085.61 M199.514 1081.91 Q205.324 1081.91 208.38 1086.52 Q211.459 1091.1 211.459 1099.85 Q211.459 1108.58 208.38 1113.18 Q205.324 1117.77 199.514 1117.77 Q193.704 1117.77 190.625 1113.18 Q187.57 1108.58 187.57 1099.85 Q187.57 1091.1 190.625 1086.52 Q193.704 1081.91 199.514 1081.91 Z" fill="#000000" fill-rule="nonzero" fill-opacity="1" /><path clip-path="url(#clip270)" d="M247.847 1091.63 L237.269 1102.26 L247.847 1112.84 L245.093 1115.64 L234.468 1105.01 L223.843 1115.64 L221.111 1112.84 L231.667 1102.26 L221.111 1091.63 L223.843 1088.83 L234.468 1099.46 L245.093 1088.83 L247.847 1091.63 Z" fill="#000000" fill-rule="nonzero" fill-opacity="1" /><path clip-path="url(#clip270)" d="M260.208 1113.16 L267.847 1113.16 L267.847 1086.79 L259.537 1088.46 L259.537 1084.2 L267.801 1082.54 L272.477 1082.54 L272.477 1113.16 L280.116 1113.16 L280.116 1117.1 L260.208 1117.1 L260.208 1113.16 Z" fill="#000000" fill-rule="nonzero" fill-opacity="1" /><path clip-path="url(#clip270)" d="M299.56 1085.61 Q295.949 1085.61 294.12 1089.18 Q292.315 1092.72 292.315 1099.85 Q292.315 1106.96 294.12 1110.52 Q295.949 1114.06 299.56 1114.06 Q303.194 1114.06 305 1110.52 Q306.829 1106.96 306.829 1099.85 Q306.829 1092.72 305 1089.18 Q303.194 1085.61 299.56 1085.61 M299.56 1081.91 Q305.37 1081.91 308.426 1086.52 Q311.504 1091.1 311.504 1099.85 Q311.504 1108.58 308.426 1113.18 Q305.37 1117.77 299.56 1117.77 Q293.75 1117.77 290.671 1113.18 Q287.616 1108.58 287.616 1099.85 Q287.616 1091.1 290.671 1086.52 Q293.75 1081.91 299.56 1081.91 Z" fill="#000000" fill-rule="nonzero" fill-opacity="1" /><path clip-path="url(#clip270)" d="M312.689 1061.6 L327.604 1061.6 L327.604 1064.8 L316.169 1064.8 L316.169 1071.69 Q316.996 1071.4 317.824 1071.27 Q318.651 1071.12 319.479 1071.12 Q324.181 1071.12 326.927 1073.7 Q329.673 1076.27 329.673 1080.68 Q329.673 1085.21 326.852 1087.73 Q324.03 1090.23 318.896 1090.23 Q317.128 1090.23 315.285 1089.93 Q313.46 1089.63 311.504 1089.03 L311.504 1085.21 Q313.197 1086.13 315.003 1086.58 Q316.808 1087.03 318.821 1087.03 Q322.074 1087.03 323.974 1085.32 Q325.874 1083.61 325.874 1080.68 Q325.874 1077.74 323.974 1076.03 Q322.074 1074.32 318.821 1074.32 Q317.297 1074.32 315.774 1074.66 Q314.269 1075 312.689 1075.71 L312.689 1061.6 Z" fill="#000000" fill-rule="nonzero" fill-opacity="1" /><path clip-path="url(#clip270)" d="M114.931 820.132 L122.57 820.132 L122.57 793.766 L114.26 795.433 L114.26 791.174 L122.524 789.507 L127.2 789.507 L127.2 820.132 L134.839 820.132 L134.839 824.067 L114.931 824.067 L114.931 820.132 Z" fill="#000000" fill-rule="nonzero" fill-opacity="1" /><path clip-path="url(#clip270)" d="M144.283 818.187 L149.167 818.187 L149.167 824.067 L144.283 824.067 L144.283 818.187 Z" fill="#000000" fill-rule="nonzero" fill-opacity="1" /><path clip-path="url(#clip270)" d="M163.38 820.132 L179.7 820.132 L179.7 824.067 L157.755 824.067 L157.755 820.132 Q160.417 817.377 165.001 812.748 Q169.607 808.095 170.788 806.752 Q173.033 804.229 173.913 802.493 Q174.815 800.734 174.815 799.044 Q174.815 796.289 172.871 794.553 Q170.95 792.817 167.848 792.817 Q165.649 792.817 163.195 793.581 Q160.765 794.345 157.987 795.896 L157.987 791.174 Q160.811 790.039 163.265 789.461 Q165.718 788.882 167.755 788.882 Q173.126 788.882 176.32 791.567 Q179.514 794.252 179.514 798.743 Q179.514 800.873 178.704 802.794 Q177.917 804.692 175.811 807.285 Q175.232 807.956 172.13 811.174 Q169.028 814.368 163.38 820.132 Z" fill="#000000" fill-rule="nonzero" fill-opacity="1" /><path clip-path="url(#clip270)" d="M199.514 792.586 Q195.903 792.586 194.075 796.15 Q192.269 799.692 192.269 806.822 Q192.269 813.928 194.075 817.493 Q195.903 821.035 199.514 821.035 Q203.149 821.035 204.954 817.493 Q206.783 813.928 206.783 806.822 Q206.783 799.692 204.954 796.15 Q203.149 792.586 199.514 792.586 M199.514 788.882 Q205.324 788.882 208.38 793.488 Q211.459 798.072 211.459 806.822 Q211.459 815.548 208.38 820.155 Q205.324 824.738 199.514 824.738 Q193.704 824.738 190.625 820.155 Q187.57 815.548 187.57 806.822 Q187.57 798.072 190.625 793.488 Q193.704 788.882 199.514 788.882 Z" fill="#000000" fill-rule="nonzero" fill-opacity="1" /><path clip-path="url(#clip270)" d="M247.847 798.604 L237.269 809.229 L247.847 819.808 L245.093 822.609 L234.468 811.984 L223.843 822.609 L221.111 819.808 L231.667 809.229 L221.111 798.604 L223.843 795.803 L234.468 806.428 L245.093 795.803 L247.847 798.604 Z" fill="#000000" fill-rule="nonzero" fill-opacity="1" /><path clip-path="url(#clip270)" d="M260.208 820.132 L267.847 820.132 L267.847 793.766 L259.537 795.433 L259.537 791.174 L267.801 789.507 L272.477 789.507 L272.477 820.132 L280.116 820.132 L280.116 824.067 L260.208 824.067 L260.208 820.132 Z" fill="#000000" fill-rule="nonzero" fill-opacity="1" /><path clip-path="url(#clip270)" d="M299.56 792.586 Q295.949 792.586 294.12 796.15 Q292.315 799.692 292.315 806.822 Q292.315 813.928 294.12 817.493 Q295.949 821.035 299.56 821.035 Q303.194 821.035 305 817.493 Q306.829 813.928 306.829 806.822 Q306.829 799.692 305 796.15 Q303.194 792.586 299.56 792.586 M299.56 788.882 Q305.37 788.882 308.426 793.488 Q311.504 798.072 311.504 806.822 Q311.504 815.548 308.426 820.155 Q305.37 824.738 299.56 824.738 Q293.75 824.738 290.671 820.155 Q287.616 815.548 287.616 806.822 Q287.616 798.072 290.671 793.488 Q293.75 788.882 299.56 788.882 Z" fill="#000000" fill-rule="nonzero" fill-opacity="1" /><path clip-path="url(#clip270)" d="M312.689 768.577 L327.604 768.577 L327.604 771.774 L316.169 771.774 L316.169 778.658 Q316.996 778.375 317.824 778.244 Q318.651 778.093 319.479 778.093 Q324.181 778.093 326.927 780.67 Q329.673 783.247 329.673 787.648 Q329.673 792.18 326.852 794.701 Q324.03 797.202 318.896 797.202 Q317.128 797.202 315.285 796.901 Q313.46 796.6 311.504 795.998 L311.504 792.18 Q313.197 793.102 315.003 793.553 Q316.808 794.005 318.821 794.005 Q322.074 794.005 323.974 792.293 Q325.874 790.582 325.874 787.648 Q325.874 784.714 323.974 783.002 Q322.074 781.291 318.821 781.291 Q317.297 781.291 315.774 781.629 Q314.269 781.968 312.689 782.682 L312.689 768.577 Z" fill="#000000" fill-rule="nonzero" fill-opacity="1" /><path clip-path="url(#clip270)" d="M114.931 527.104 L122.57 527.104 L122.57 500.738 L114.26 502.405 L114.26 498.145 L122.524 496.479 L127.2 496.479 L127.2 527.104 L134.839 527.104 L134.839 531.039 L114.931 531.039 L114.931 527.104 Z" fill="#000000" fill-rule="nonzero" fill-opacity="1" /><path clip-path="url(#clip270)" d="M144.283 525.159 L149.167 525.159 L149.167 531.039 L144.283 531.039 L144.283 525.159 Z" fill="#000000" fill-rule="nonzero" fill-opacity="1" /><path clip-path="url(#clip270)" d="M173.519 512.405 Q176.876 513.122 178.751 515.391 Q180.649 517.659 180.649 520.993 Q180.649 526.108 177.13 528.909 Q173.612 531.71 167.13 531.71 Q164.954 531.71 162.64 531.27 Q160.348 530.854 157.894 529.997 L157.894 525.483 Q159.839 526.618 162.153 527.196 Q164.468 527.775 166.991 527.775 Q171.389 527.775 173.681 526.039 Q175.996 524.303 175.996 520.993 Q175.996 517.937 173.843 516.224 Q171.714 514.488 167.894 514.488 L163.866 514.488 L163.866 510.645 L168.079 510.645 Q171.528 510.645 173.357 509.28 Q175.186 507.891 175.186 505.298 Q175.186 502.636 173.288 501.224 Q171.413 499.789 167.894 499.789 Q165.973 499.789 163.774 500.206 Q161.575 500.622 158.936 501.502 L158.936 497.335 Q161.598 496.595 163.913 496.224 Q166.251 495.854 168.311 495.854 Q173.635 495.854 176.737 498.284 Q179.839 500.692 179.839 504.812 Q179.839 507.682 178.195 509.673 Q176.551 511.641 173.519 512.405 Z" fill="#000000" fill-rule="nonzero" fill-opacity="1" /><path clip-path="url(#clip270)" d="M199.514 499.557 Q195.903 499.557 194.075 503.122 Q192.269 506.664 192.269 513.794 Q192.269 520.9 194.075 524.465 Q195.903 528.006 199.514 528.006 Q203.149 528.006 204.954 524.465 Q206.783 520.9 206.783 513.794 Q206.783 506.664 204.954 503.122 Q203.149 499.557 199.514 499.557 M199.514 495.854 Q205.324 495.854 208.38 500.46 Q211.459 505.044 211.459 513.794 Q211.459 522.52 208.38 527.127 Q205.324 531.71 199.514 531.71 Q193.704 531.71 190.625 527.127 Q187.57 522.52 187.57 513.794 Q187.57 505.044 190.625 500.46 Q193.704 495.854 199.514 495.854 Z" fill="#000000" fill-rule="nonzero" fill-opacity="1" /><path clip-path="url(#clip270)" d="M247.847 505.576 L237.269 516.201 L247.847 526.78 L245.093 529.58 L234.468 518.956 L223.843 529.58 L221.111 526.78 L231.667 516.201 L221.111 505.576 L223.843 502.775 L234.468 513.4 L245.093 502.775 L247.847 505.576 Z" fill="#000000" fill-rule="nonzero" fill-opacity="1" /><path clip-path="url(#clip270)" d="M260.208 527.104 L267.847 527.104 L267.847 500.738 L259.537 502.405 L259.537 498.145 L267.801 496.479 L272.477 496.479 L272.477 527.104 L280.116 527.104 L280.116 531.039 L260.208 531.039 L260.208 527.104 Z" fill="#000000" fill-rule="nonzero" fill-opacity="1" /><path clip-path="url(#clip270)" d="M299.56 499.557 Q295.949 499.557 294.12 503.122 Q292.315 506.664 292.315 513.794 Q292.315 520.9 294.12 524.465 Q295.949 528.006 299.56 528.006 Q303.194 528.006 305 524.465 Q306.829 520.9 306.829 513.794 Q306.829 506.664 305 503.122 Q303.194 499.557 299.56 499.557 M299.56 495.854 Q305.37 495.854 308.426 500.46 Q311.504 505.044 311.504 513.794 Q311.504 522.52 308.426 527.127 Q305.37 531.71 299.56 531.71 Q293.75 531.71 290.671 527.127 Q287.616 522.52 287.616 513.794 Q287.616 505.044 290.671 500.46 Q293.75 495.854 299.56 495.854 Z" fill="#000000" fill-rule="nonzero" fill-opacity="1" /><path clip-path="url(#clip270)" d="M312.689 475.548 L327.604 475.548 L327.604 478.746 L316.169 478.746 L316.169 485.629 Q316.996 485.347 317.824 485.216 Q318.651 485.065 319.479 485.065 Q324.181 485.065 326.927 487.642 Q329.673 490.218 329.673 494.619 Q329.673 499.152 326.852 501.672 Q324.03 504.174 318.896 504.174 Q317.128 504.174 315.285 503.873 Q313.46 503.572 311.504 502.97 L311.504 499.152 Q313.197 500.074 315.003 500.525 Q316.808 500.977 318.821 500.977 Q322.074 500.977 323.974 499.265 Q325.874 497.553 325.874 494.619 Q325.874 491.685 323.974 489.974 Q322.074 488.262 318.821 488.262 Q317.297 488.262 315.774 488.601 Q314.269 488.94 312.689 489.654 L312.689 475.548 Z" fill="#000000" fill-rule="nonzero" fill-opacity="1" /><path clip-path="url(#clip270)" d="M114.931 234.075 L122.57 234.075 L122.57 207.71 L114.26 209.377 L114.26 205.117 L122.524 203.451 L127.2 203.451 L127.2 234.075 L134.839 234.075 L134.839 238.011 L114.931 238.011 L114.931 234.075 Z" fill="#000000" fill-rule="nonzero" fill-opacity="1" /><path clip-path="url(#clip270)" d="M144.283 232.131 L149.167 232.131 L149.167 238.011 L144.283 238.011 L144.283 232.131 Z" fill="#000000" fill-rule="nonzero" fill-opacity="1" /><path clip-path="url(#clip270)" d="M172.2 207.525 L160.394 225.974 L172.2 225.974 L172.2 207.525 M170.973 203.451 L176.852 203.451 L176.852 225.974 L181.783 225.974 L181.783 229.863 L176.852 229.863 L176.852 238.011 L172.2 238.011 L172.2 229.863 L156.598 229.863 L156.598 225.349 L170.973 203.451 Z" fill="#000000" fill-rule="nonzero" fill-opacity="1" /><path clip-path="url(#clip270)" d="M199.514 206.529 Q195.903 206.529 194.075 210.094 Q192.269 213.636 192.269 220.765 Q192.269 227.872 194.075 231.437 Q195.903 234.978 199.514 234.978 Q203.149 234.978 204.954 231.437 Q206.783 227.872 206.783 220.765 Q206.783 213.636 204.954 210.094 Q203.149 206.529 199.514 206.529 M199.514 202.826 Q205.324 202.826 208.38 207.432 Q211.459 212.015 211.459 220.765 Q211.459 229.492 208.38 234.099 Q205.324 238.682 199.514 238.682 Q193.704 238.682 190.625 234.099 Q187.57 229.492 187.57 220.765 Q187.57 212.015 190.625 207.432 Q193.704 202.826 199.514 202.826 Z" fill="#000000" fill-rule="nonzero" fill-opacity="1" /><path clip-path="url(#clip270)" d="M247.847 212.548 L237.269 223.173 L247.847 233.751 L245.093 236.552 L234.468 225.927 L223.843 236.552 L221.111 233.751 L231.667 223.173 L221.111 212.548 L223.843 209.747 L234.468 220.372 L245.093 209.747 L247.847 212.548 Z" fill="#000000" fill-rule="nonzero" fill-opacity="1" /><path clip-path="url(#clip270)" d="M260.208 234.075 L267.847 234.075 L267.847 207.71 L259.537 209.377 L259.537 205.117 L267.801 203.451 L272.477 203.451 L272.477 234.075 L280.116 234.075 L280.116 238.011 L260.208 238.011 L260.208 234.075 Z" fill="#000000" fill-rule="nonzero" fill-opacity="1" /><path clip-path="url(#clip270)" d="M299.56 206.529 Q295.949 206.529 294.12 210.094 Q292.315 213.636 292.315 220.765 Q292.315 227.872 294.12 231.437 Q295.949 234.978 299.56 234.978 Q303.194 234.978 305 231.437 Q306.829 227.872 306.829 220.765 Q306.829 213.636 305 210.094 Q303.194 206.529 299.56 206.529 M299.56 202.826 Q305.37 202.826 308.426 207.432 Q311.504 212.015 311.504 220.765 Q311.504 229.492 308.426 234.099 Q305.37 238.682 299.56 238.682 Q293.75 238.682 290.671 234.099 Q287.616 229.492 287.616 220.765 Q287.616 212.015 290.671 207.432 Q293.75 202.826 299.56 202.826 Z" fill="#000000" fill-rule="nonzero" fill-opacity="1" /><path clip-path="url(#clip270)" d="M312.689 182.52 L327.604 182.52 L327.604 185.718 L316.169 185.718 L316.169 192.601 Q316.996 192.319 317.824 192.187 Q318.651 192.037 319.479 192.037 Q324.181 192.037 326.927 194.614 Q329.673 197.19 329.673 201.591 Q329.673 206.124 326.852 208.644 Q324.03 211.146 318.896 211.146 Q317.128 211.146 315.285 210.845 Q313.46 210.544 311.504 209.942 L311.504 206.124 Q313.197 207.046 315.003 207.497 Q316.808 207.948 318.821 207.948 Q322.074 207.948 323.974 206.237 Q325.874 204.525 325.874 201.591 Q325.874 198.657 323.974 196.946 Q322.074 195.234 318.821 195.234 Q317.297 195.234 315.774 195.573 Q314.269 195.911 312.689 196.626 L312.689 182.52 Z" fill="#000000" fill-rule="nonzero" fill-opacity="1" /><path clip-path="url(#clip270)" d="M21.7677 1084.27 L39.6235 1084.27 L39.6235 1076.19 Q39.6235 1071.7 37.3 1069.25 Q34.9765 1066.8 30.6797 1066.8 Q26.4147 1066.8 24.0912 1069.25 Q21.7677 1071.7 21.7677 1076.19 L21.7677 1084.27 M16.4842 1090.7 L16.4842 1076.19 Q16.4842 1068.2 20.1126 1064.13 Q23.7092 1060.02 30.6797 1060.02 Q37.7138 1060.02 41.3104 1064.13 Q44.907 1068.2 44.907 1076.19 L44.907 1084.27 L64.0042 1084.27 L64.0042 1090.7 L16.4842 1090.7 Z" fill="#000000" fill-rule="nonzero" fill-opacity="1" /><path clip-path="url(#clip270)" d="M32.4621 1040.16 Q32.4621 1044.87 36.1542 1047.61 Q39.8145 1050.35 46.212 1050.35 Q52.6095 1050.35 56.3017 1047.64 Q59.9619 1044.9 59.9619 1040.16 Q59.9619 1035.48 56.2698 1032.74 Q52.5777 1030.01 46.212 1030.01 Q39.8781 1030.01 36.186 1032.74 Q32.4621 1035.48 32.4621 1040.16 M27.4968 1040.16 Q27.4968 1032.52 32.4621 1028.16 Q37.4273 1023.8 46.212 1023.8 Q54.9649 1023.8 59.9619 1028.16 Q64.9272 1032.52 64.9272 1040.16 Q64.9272 1047.83 59.9619 1052.19 Q54.9649 1056.52 46.212 1056.52 Q37.4273 1056.52 32.4621 1052.19 Q27.4968 1047.83 27.4968 1040.16 Z" fill="#000000" fill-rule="nonzero" fill-opacity="1" /><path clip-path="url(#clip270)" d="M33.8307 993.436 Q33.2578 994.423 33.0032 995.601 Q32.7167 996.746 32.7167 998.147 Q32.7167 1003.11 35.9632 1005.79 Q39.1779 1008.43 45.2253 1008.43 L64.0042 1008.43 L64.0042 1014.32 L28.3562 1014.32 L28.3562 1008.43 L33.8944 1008.43 Q30.6479 1006.58 29.0883 1003.62 Q27.4968 1000.66 27.4968 996.428 Q27.4968 995.823 27.5923 995.091 Q27.656 994.359 27.8151 993.468 L33.8307 993.436 Z" fill="#000000" fill-rule="nonzero" fill-opacity="1" /><path clip-path="url(#clip270)" d="M18.2347 981.501 L28.3562 981.501 L28.3562 969.437 L32.9077 969.437 L32.9077 981.501 L52.2594 981.501 Q56.6199 981.501 57.8613 980.323 Q59.1026 979.113 59.1026 975.453 L59.1026 969.437 L64.0042 969.437 L64.0042 975.453 Q64.0042 982.233 61.4897 984.811 Q58.9434 987.389 52.2594 987.389 L32.9077 987.389 L32.9077 991.686 L28.3562 991.686 L28.3562 987.389 L18.2347 987.389 L18.2347 981.501 Z" fill="#000000" fill-rule="nonzero" fill-opacity="1" /><path clip-path="url(#clip270)" d="M14.479 943.688 L19.3487 943.688 L19.3487 949.29 Q19.3487 952.441 20.6219 953.682 Q21.895 954.892 25.2052 954.892 L28.3562 954.892 L28.3562 945.248 L32.9077 945.248 L32.9077 954.892 L64.0042 954.892 L64.0042 960.78 L32.9077 960.78 L32.9077 966.382 L28.3562 966.382 L28.3562 960.78 L25.8736 960.78 Q19.9216 960.78 17.2162 958.011 Q14.479 955.242 14.479 949.226 L14.479 943.688 Z" fill="#000000" fill-rule="nonzero" fill-opacity="1" /><path clip-path="url(#clip270)" d="M32.4621 924.973 Q32.4621 929.684 36.1542 932.421 Q39.8145 935.158 46.212 935.158 Q52.6095 935.158 56.3017 932.453 Q59.9619 929.715 59.9619 924.973 Q59.9619 920.294 56.2698 917.557 Q52.5777 914.82 46.212 914.82 Q39.8781 914.82 36.186 917.557 Q32.4621 920.294 32.4621 924.973 M27.4968 924.973 Q27.4968 917.334 32.4621 912.974 Q37.4273 908.613 46.212 908.613 Q54.9649 908.613 59.9619 912.974 Q64.9272 917.334 64.9272 924.973 Q64.9272 932.644 59.9619 937.004 Q54.9649 941.333 46.212 941.333 Q37.4273 941.333 32.4621 937.004 Q27.4968 932.644 27.4968 924.973 Z" fill="#000000" fill-rule="nonzero" fill-opacity="1" /><path clip-path="url(#clip270)" d="M14.479 898.905 L14.479 893.049 L64.0042 893.049 L64.0042 898.905 L14.479 898.905 Z" fill="#000000" fill-rule="nonzero" fill-opacity="1" /><path clip-path="url(#clip270)" d="M28.3562 880.795 L28.3562 874.939 L64.0042 874.939 L64.0042 880.795 L28.3562 880.795 M14.479 880.795 L14.479 874.939 L21.895 874.939 L21.895 880.795 L14.479 880.795 Z" fill="#000000" fill-rule="nonzero" fill-opacity="1" /><path clip-path="url(#clip270)" d="M32.4621 848.871 Q32.4621 853.582 36.1542 856.319 Q39.8145 859.056 46.212 859.056 Q52.6095 859.056 56.3017 856.351 Q59.9619 853.613 59.9619 848.871 Q59.9619 844.192 56.2698 841.455 Q52.5777 838.718 46.212 838.718 Q39.8781 838.718 36.186 841.455 Q32.4621 844.192 32.4621 848.871 M27.4968 848.871 Q27.4968 841.232 32.4621 836.872 Q37.4273 832.511 46.212 832.511 Q54.9649 832.511 59.9619 836.872 Q64.9272 841.232 64.9272 848.871 Q64.9272 856.542 59.9619 860.902 Q54.9649 865.231 46.212 865.231 Q37.4273 865.231 32.4621 860.902 Q27.4968 856.542 27.4968 848.871 Z" fill="#000000" fill-rule="nonzero" fill-opacity="1" /><path clip-path="url(#clip270)" d="M64.0042 789.574 L16.4842 807.717 L16.4842 801.001 L56.4926 785.946 L16.4842 770.859 L16.4842 764.175 L64.0042 782.286 L64.0042 789.574 Z" fill="#000000" fill-rule="nonzero" fill-opacity="1" /><path clip-path="url(#clip270)" d="M46.0847 746.351 Q46.0847 753.449 47.7079 756.186 Q49.3312 758.924 53.2461 758.924 Q56.3653 758.924 58.2114 756.887 Q60.0256 754.818 60.0256 751.285 Q60.0256 746.415 56.5881 743.487 Q53.1188 740.527 47.3897 740.527 L46.0847 740.527 L46.0847 746.351 M43.6657 734.67 L64.0042 734.67 L64.0042 740.527 L58.5933 740.527 Q61.8398 742.532 63.3994 745.524 Q64.9272 748.516 64.9272 752.844 Q64.9272 758.319 61.8716 761.565 Q58.7843 764.78 53.6281 764.78 Q47.6125 764.78 44.5569 760.77 Q41.5014 756.727 41.5014 748.738 L41.5014 740.527 L40.9285 740.527 Q36.8862 740.527 34.6901 743.2 Q32.4621 745.842 32.4621 750.648 Q32.4621 753.704 33.1941 756.6 Q33.9262 759.496 35.3903 762.17 L29.9795 762.17 Q28.7381 758.955 28.1334 755.932 Q27.4968 752.908 27.4968 750.043 Q27.4968 742.309 31.5072 738.49 Q35.5176 734.67 43.6657 734.67 Z" fill="#000000" fill-rule="nonzero" fill-opacity="1" /><path clip-path="url(#clip270)" d="M14.479 722.607 L14.479 716.751 L64.0042 716.751 L64.0042 722.607 L14.479 722.607 Z" fill="#000000" fill-rule="nonzero" fill-opacity="1" /><path clip-path="url(#clip270)" d="M49.9359 705.102 L28.3562 705.102 L28.3562 699.245 L49.7131 699.245 Q54.7739 699.245 57.3202 697.272 Q59.8346 695.298 59.8346 691.352 Q59.8346 686.609 56.8109 683.872 Q53.7872 681.103 48.5673 681.103 L28.3562 681.103 L28.3562 675.246 L64.0042 675.246 L64.0042 681.103 L58.5296 681.103 Q61.7762 683.235 63.3676 686.068 Q64.9272 688.869 64.9272 692.593 Q64.9272 698.736 61.1078 701.919 Q57.2883 705.102 49.9359 705.102 M27.4968 690.365 L27.4968 690.365 Z" fill="#000000" fill-rule="nonzero" fill-opacity="1" /><path clip-path="url(#clip270)" d="M44.7161 632.692 L47.5806 632.692 L47.5806 659.619 Q53.6281 659.237 56.8109 655.99 Q59.9619 652.712 59.9619 646.887 Q59.9619 643.513 59.1344 640.362 Q58.3069 637.179 56.6518 634.06 L62.1899 634.06 Q63.5267 637.211 64.227 640.521 Q64.9272 643.832 64.9272 647.237 Q64.9272 655.767 59.9619 660.764 Q54.9967 665.73 46.5303 665.73 Q37.7774 665.73 32.6531 661.019 Q27.4968 656.277 27.4968 648.256 Q27.4968 641.063 32.1438 636.893 Q36.7589 632.692 44.7161 632.692 M42.9973 638.548 Q38.1912 638.612 35.3266 641.253 Q32.4621 643.863 32.4621 648.192 Q32.4621 653.094 35.2312 656.054 Q38.0002 658.982 43.0292 659.428 L42.9973 638.548 Z" fill="#000000" fill-rule="nonzero" fill-opacity="1" /><path clip-path="url(#clip270)" d="M43.5384 605.319 L43.5384 588.163 L48.7583 588.163 L48.7583 605.319 L43.5384 605.319 Z" fill="#000000" fill-rule="nonzero" fill-opacity="1" /><path clip-path="url(#clip270)" d="M16.4842 558.595 L16.4842 552.134 L45.3526 552.134 Q52.9915 552.134 56.3653 549.365 Q59.7073 546.595 59.7073 540.389 Q59.7073 534.214 56.3653 531.445 Q52.9915 528.676 45.3526 528.676 L16.4842 528.676 L16.4842 522.215 L46.1484 522.215 Q55.4423 522.215 60.1847 526.83 Q64.9272 531.413 64.9272 540.389 Q64.9272 549.396 60.1847 554.011 Q55.4423 558.595 46.1484 558.595 L16.4842 558.595 Z" fill="#000000" fill-rule="nonzero" fill-opacity="1" /><path clip-path="url(#clip270)" d="M18.0438 481.665 L24.314 481.665 Q22.5634 485.326 21.704 488.572 Q20.8447 491.819 20.8447 494.842 Q20.8447 500.094 22.8817 502.959 Q24.9187 505.791 28.6745 505.791 Q31.8255 505.791 33.4488 503.913 Q35.0402 502.004 36.0269 496.72 L36.8226 492.837 Q38.1912 485.644 41.6605 482.238 Q45.098 478.801 50.8908 478.801 Q57.7976 478.801 61.3624 483.448 Q64.9272 488.063 64.9272 497.007 Q64.9272 500.38 64.1633 504.2 Q63.3994 507.987 61.9035 512.061 L55.2831 512.061 Q57.4793 508.147 58.5933 504.391 Q59.7073 500.635 59.7073 497.007 Q59.7073 491.5 57.543 488.508 Q55.3786 485.516 51.3682 485.516 Q47.8671 485.516 45.8937 487.681 Q43.9204 489.813 42.9337 494.715 L42.1698 498.63 Q40.7375 505.823 37.682 509.038 Q34.6264 512.252 29.1837 512.252 Q22.8817 512.252 19.2532 507.828 Q15.6248 503.372 15.6248 495.574 Q15.6248 492.232 16.2295 488.763 Q16.8343 485.294 18.0438 481.665 Z" fill="#000000" fill-rule="nonzero" fill-opacity="1" /><path clip-path="url(#clip270)" d="M21.7677 462.345 L58.7206 462.345 L58.7206 454.579 Q58.7206 444.744 54.2646 440.193 Q49.8086 435.609 40.1964 435.609 Q30.6479 435.609 26.2237 440.193 Q21.7677 444.744 21.7677 454.579 L21.7677 462.345 M16.4842 468.775 L16.4842 455.566 Q16.4842 441.752 22.2451 435.291 Q27.9743 428.83 40.1964 428.83 Q52.4822 428.83 58.2432 435.323 Q64.0042 441.816 64.0042 455.566 L64.0042 468.775 L16.4842 468.775 Z" fill="#000000" fill-rule="nonzero" fill-opacity="1" /><path clip-path="url(#clip270)" d="M942.883 18.8205 L942.883 41.5461 L953.172 41.5461 Q958.884 41.5461 962.003 38.5889 Q965.122 35.6318 965.122 30.163 Q965.122 24.7348 962.003 21.7777 Q958.884 18.8205 953.172 18.8205 L942.883 18.8205 M934.7 12.096 L953.172 12.096 Q963.34 12.096 968.525 16.714 Q973.751 21.2916 973.751 30.163 Q973.751 39.1155 968.525 43.6931 Q963.34 48.2706 953.172 48.2706 L942.883 48.2706 L942.883 72.576 L934.7 72.576 L934.7 12.096 Z" fill="#000000" fill-rule="nonzero" fill-opacity="1" /><path clip-path="url(#clip270)" d="M999.028 32.4315 Q993.033 32.4315 989.549 37.1306 Q986.065 41.7891 986.065 49.9314 Q986.065 58.0738 989.509 62.7728 Q992.992 67.4314 999.028 67.4314 Q1004.98 67.4314 1008.47 62.7323 Q1011.95 58.0333 1011.95 49.9314 Q1011.95 41.8701 1008.47 37.1711 Q1004.98 32.4315 999.028 32.4315 M999.028 26.1121 Q1008.75 26.1121 1014.3 32.4315 Q1019.85 38.7509 1019.85 49.9314 Q1019.85 61.0714 1014.3 67.4314 Q1008.75 73.7508 999.028 73.7508 Q989.266 73.7508 983.716 67.4314 Q978.207 61.0714 978.207 49.9314 Q978.207 38.7509 983.716 32.4315 Q989.266 26.1121 999.028 26.1121 Z" fill="#000000" fill-rule="nonzero" fill-opacity="1" /><path clip-path="url(#clip270)" d="M1058.5 34.1734 Q1057.24 33.4443 1055.74 33.1202 Q1054.28 32.7556 1052.5 32.7556 Q1046.18 32.7556 1042.78 36.8875 Q1039.42 40.9789 1039.42 48.6757 L1039.42 72.576 L1031.92 72.576 L1031.92 27.2059 L1039.42 27.2059 L1039.42 34.2544 Q1041.77 30.1225 1045.53 28.1376 Q1049.3 26.1121 1054.69 26.1121 Q1055.46 26.1121 1056.39 26.2337 Q1057.32 26.3147 1058.45 26.5172 L1058.5 34.1734 Z" fill="#000000" fill-rule="nonzero" fill-opacity="1" /><path clip-path="url(#clip270)" d="M1073.69 14.324 L1073.69 27.2059 L1089.04 27.2059 L1089.04 32.9987 L1073.69 32.9987 L1073.69 57.6282 Q1073.69 63.1779 1075.19 64.7578 Q1076.72 66.3376 1081.38 66.3376 L1089.04 66.3376 L1089.04 72.576 L1081.38 72.576 Q1072.75 72.576 1069.47 69.3758 Q1066.19 66.1351 1066.19 57.6282 L1066.19 32.9987 L1060.72 32.9987 L1060.72 27.2059 L1066.19 27.2059 L1066.19 14.324 L1073.69 14.324 Z" fill="#000000" fill-rule="nonzero" fill-opacity="1" /><path clip-path="url(#clip270)" d="M1121.81 9.54393 L1121.81 15.7418 L1114.68 15.7418 Q1110.67 15.7418 1109.09 17.3622 Q1107.55 18.9825 1107.55 23.1955 L1107.55 27.2059 L1119.83 27.2059 L1119.83 32.9987 L1107.55 32.9987 L1107.55 72.576 L1100.06 72.576 L1100.06 32.9987 L1092.93 32.9987 L1092.93 27.2059 L1100.06 27.2059 L1100.06 24.0462 Q1100.06 16.471 1103.58 13.0277 Q1107.11 9.54393 1114.76 9.54393 L1121.81 9.54393 Z" fill="#000000" fill-rule="nonzero" fill-opacity="1" /><path clip-path="url(#clip270)" d="M1145.63 32.4315 Q1139.64 32.4315 1136.15 37.1306 Q1132.67 41.7891 1132.67 49.9314 Q1132.67 58.0738 1136.11 62.7728 Q1139.59 67.4314 1145.63 67.4314 Q1151.59 67.4314 1155.07 62.7323 Q1158.55 58.0333 1158.55 49.9314 Q1158.55 41.8701 1155.07 37.1711 Q1151.59 32.4315 1145.63 32.4315 M1145.63 26.1121 Q1155.35 26.1121 1160.9 32.4315 Q1166.45 38.7509 1166.45 49.9314 Q1166.45 61.0714 1160.9 67.4314 Q1155.35 73.7508 1145.63 73.7508 Q1135.87 73.7508 1130.32 67.4314 Q1124.81 61.0714 1124.81 49.9314 Q1124.81 38.7509 1130.32 32.4315 Q1135.87 26.1121 1145.63 26.1121 Z" fill="#000000" fill-rule="nonzero" fill-opacity="1" /><path clip-path="url(#clip270)" d="M1178.81 9.54393 L1186.26 9.54393 L1186.26 72.576 L1178.81 72.576 L1178.81 9.54393 Z" fill="#000000" fill-rule="nonzero" fill-opacity="1" /><path clip-path="url(#clip270)" d="M1201.86 27.2059 L1209.31 27.2059 L1209.31 72.576 L1201.86 72.576 L1201.86 27.2059 M1201.86 9.54393 L1209.31 9.54393 L1209.31 18.9825 L1201.86 18.9825 L1201.86 9.54393 Z" fill="#000000" fill-rule="nonzero" fill-opacity="1" /><path clip-path="url(#clip270)" d="M1242.49 32.4315 Q1236.49 32.4315 1233.01 37.1306 Q1229.52 41.7891 1229.52 49.9314 Q1229.52 58.0738 1232.97 62.7728 Q1236.45 67.4314 1242.49 67.4314 Q1248.44 67.4314 1251.93 62.7323 Q1255.41 58.0333 1255.41 49.9314 Q1255.41 41.8701 1251.93 37.1711 Q1248.44 32.4315 1242.49 32.4315 M1242.49 26.1121 Q1252.21 26.1121 1257.76 32.4315 Q1263.31 38.7509 1263.31 49.9314 Q1263.31 61.0714 1257.76 67.4314 Q1252.21 73.7508 1242.49 73.7508 Q1232.72 73.7508 1227.18 67.4314 Q1221.67 61.0714 1221.67 49.9314 Q1221.67 38.7509 1227.18 32.4315 Q1232.72 26.1121 1242.49 26.1121 Z" fill="#000000" fill-rule="nonzero" fill-opacity="1" /><path clip-path="url(#clip270)" d="M1317.96 72.576 L1294.87 12.096 L1303.41 12.096 L1322.57 63.0159 L1341.78 12.096 L1350.28 12.096 L1327.23 72.576 L1317.96 72.576 Z" fill="#000000" fill-rule="nonzero" fill-opacity="1" /><path clip-path="url(#clip270)" d="M1372.97 49.7694 Q1363.93 49.7694 1360.45 51.8354 Q1356.97 53.9013 1356.97 58.8839 Q1356.97 62.8538 1359.56 65.2034 Q1362.19 67.5124 1366.69 67.5124 Q1372.89 67.5124 1376.61 63.1374 Q1380.38 58.7219 1380.38 51.4303 L1380.38 49.7694 L1372.97 49.7694 M1387.83 46.6907 L1387.83 72.576 L1380.38 72.576 L1380.38 65.6895 Q1377.83 69.8214 1374.02 71.8063 Q1370.21 73.7508 1364.7 73.7508 Q1357.74 73.7508 1353.6 69.8619 Q1349.51 65.9325 1349.51 59.3701 Q1349.51 51.7138 1354.62 47.825 Q1359.76 43.9361 1369.93 43.9361 L1380.38 43.9361 L1380.38 43.2069 Q1380.38 38.0623 1376.98 35.2672 Q1373.62 32.4315 1367.5 32.4315 Q1363.61 32.4315 1359.92 33.3632 Q1356.24 34.295 1352.83 36.1584 L1352.83 29.2718 Q1356.93 27.692 1360.77 26.9223 Q1364.62 26.1121 1368.27 26.1121 Q1378.11 26.1121 1382.97 31.2163 Q1387.83 36.3204 1387.83 46.6907 Z" fill="#000000" fill-rule="nonzero" fill-opacity="1" /><path clip-path="url(#clip270)" d="M1403.19 9.54393 L1410.64 9.54393 L1410.64 72.576 L1403.19 72.576 L1403.19 9.54393 Z" fill="#000000" fill-rule="nonzero" fill-opacity="1" /><path clip-path="url(#clip270)" d="M1425.47 54.671 L1425.47 27.2059 L1432.92 27.2059 L1432.92 54.3874 Q1432.92 60.8284 1435.43 64.0691 Q1437.94 67.2693 1442.97 67.2693 Q1449 67.2693 1452.49 63.421 Q1456.01 59.5726 1456.01 52.9291 L1456.01 27.2059 L1463.46 27.2059 L1463.46 72.576 L1456.01 72.576 L1456.01 65.6084 Q1453.3 69.7404 1449.69 71.7658 Q1446.13 73.7508 1441.39 73.7508 Q1433.57 73.7508 1429.52 68.8897 Q1425.47 64.0286 1425.47 54.671 M1444.22 26.1121 L1444.22 26.1121 Z" fill="#000000" fill-rule="nonzero" fill-opacity="1" /><path clip-path="url(#clip270)" d="M1517.62 48.0275 L1517.62 51.6733 L1483.35 51.6733 Q1483.84 59.3701 1487.97 63.421 Q1492.14 67.4314 1499.56 67.4314 Q1503.85 67.4314 1507.86 66.3781 Q1511.91 65.3249 1515.88 63.2184 L1515.88 70.267 Q1511.87 71.9684 1507.66 72.8596 Q1503.45 73.7508 1499.11 73.7508 Q1488.26 73.7508 1481.9 67.4314 Q1475.58 61.1119 1475.58 50.3365 Q1475.58 39.1965 1481.57 32.6746 Q1487.61 26.1121 1497.82 26.1121 Q1506.97 26.1121 1512.28 32.0264 Q1517.62 37.9003 1517.62 48.0275 M1510.17 45.84 Q1510.09 39.7232 1506.73 36.0774 Q1503.41 32.4315 1497.9 32.4315 Q1491.66 32.4315 1487.89 35.9558 Q1484.16 39.4801 1483.6 45.8805 L1510.17 45.84 Z" fill="#000000" fill-rule="nonzero" fill-opacity="1" /><path clip-path="url(#clip270)" d="M1531.76 62.2867 L1540.31 62.2867 L1540.31 72.576 L1531.76 72.576 L1531.76 62.2867 M1531.76 29.6769 L1540.31 29.6769 L1540.31 39.9662 L1531.76 39.9662 L1531.76 29.6769 Z" fill="#000000" fill-rule="nonzero" fill-opacity="1" /><path clip-path="url(#clip270)" d="M1620.76 14.0809 L1620.76 22.0612 Q1616.1 19.8332 1611.97 18.7395 Q1607.84 17.6457 1603.99 17.6457 Q1597.31 17.6457 1593.66 20.2383 Q1590.06 22.8309 1590.06 27.611 Q1590.06 31.6214 1592.45 33.6873 Q1594.88 35.7128 1601.6 36.9686 L1606.54 37.9813 Q1615.7 39.7232 1620.03 44.1387 Q1624.41 48.5136 1624.41 55.8863 Q1624.41 64.6767 1618.49 69.2137 Q1612.62 73.7508 1601.24 73.7508 Q1596.94 73.7508 1592.08 72.7785 Q1587.26 71.8063 1582.07 69.9024 L1582.07 61.4765 Q1587.06 64.2716 1591.84 65.6895 Q1596.62 67.1073 1601.24 67.1073 Q1608.24 67.1073 1612.05 64.3527 Q1615.86 61.598 1615.86 56.4939 Q1615.86 52.0379 1613.1 49.5264 Q1610.39 47.0148 1604.15 45.759 L1599.17 44.7868 Q1590.01 42.9639 1585.92 39.075 Q1581.83 35.1862 1581.83 28.2591 Q1581.83 20.2383 1587.46 15.6203 Q1593.13 11.0023 1603.06 11.0023 Q1607.31 11.0023 1611.73 11.7719 Q1616.14 12.5416 1620.76 14.0809 Z" fill="#000000" fill-rule="nonzero" fill-opacity="1" /><path clip-path="url(#clip270)" d="M1637.17 12.096 L1649.36 12.096 L1664.79 53.2532 L1680.31 12.096 L1692.5 12.096 L1692.5 72.576 L1684.52 72.576 L1684.52 19.4686 L1668.93 60.9499 L1660.7 60.9499 L1645.11 19.4686 L1645.11 72.576 L1637.17 72.576 L1637.17 12.096 Z" fill="#000000" fill-rule="nonzero" fill-opacity="1" /><path clip-path="url(#clip270)" d="M1728.96 20.1573 L1717.86 50.2555 L1740.1 50.2555 L1728.96 20.1573 M1724.34 12.096 L1733.62 12.096 L1756.67 72.576 L1748.16 72.576 L1742.65 57.061 L1715.39 57.061 L1709.88 72.576 L1701.25 72.576 L1724.34 12.096 Z" fill="#000000" fill-rule="nonzero" fill-opacity="1" /><polyline clip-path="url(#clip272)" style="stroke:#009af9; stroke-linecap:round; stroke-linejoin:round; stroke-width:12; stroke-opacity:1; fill:none" points="421.911,1386.4 421.911,1386.4 427.252,1371.42 432.592,1286.27 437.933,1180.46 443.274,1168.54 459.296,1171.25 464.637,1098 469.978,1091.47 475.319,1048.27 480.659,1101.8 502.022,1052.17 507.363,1068.52 512.704,1081.85 518.045,1073.98 534.067,1077.27 539.408,1013.13 544.748,1125.88 550.089,1161.7 555.43,1195.97 571.452,1132.27 576.793,1177.34 582.134,1103.28 587.475,1102.06 592.815,1044.03 608.838,955.131 614.178,932.036 619.519,905.463 624.86,937.474 630.201,893.36 651.564,882.709 656.904,918.13 662.245,1012.93 667.586,927.26 683.608,986.21 688.949,1021.52 694.29,910.735 699.63,1069.2 704.971,1073.14 720.994,944.573 726.334,936.228 731.675,1019.35 737.016,1120.22 742.357,1135.91 758.379,1128.83 763.72,1031.18 769.06,1045.31 774.401,961.041 779.742,892.626 795.542,805.117 800.882,859.798 806.223,815.787 811.564,908.866 816.905,904.077 832.927,904.292 838.268,1014.64 843.608,1075.61 848.949,962.662 854.29,901.985 870.312,934.56 875.653,907.4 880.994,937.782 886.335,908.021 907.698,873.352 913.038,888.833 918.379,928.166 923.72,940.58 929.061,946.921 945.083,965.274 950.424,983.138 955.764,958.669 961.105,925.614 966.446,949.696 982.468,971.563 987.809,1022.97 993.15,966.676 998.491,987.793 1003.83,949.505 1019.85,918.998 1025.19,912.398 1030.54,894.437 1035.88,892.322 1041.22,950.187 1057.24,908.357 1062.58,941.845 1067.92,922.18 1073.26,886.823 1078.6,830.719 1094.62,846.543 1099.96,857.049 1105.31,943.804 1110.65,881.023 1115.99,805.372 1132.01,750.346 1137.35,784.94 1142.69,849.806 1148.03,826.192 1153.37,833.952 1169.39,784.026 1174.74,766.568 1180.08,698.47 1185.42,598.344 1190.76,573.197 1212.12,442.133 1217.46,160.256 1222.8,228.643 1228.14,206.869 1244.17,181.934 1249.51,181.94 1254.85,263.719 1260.19,287.086 1265.53,252.854 1281.55,252.634 1286.89,249.415 1292.23,301.865 1297.57,361.476 1302.91,432.275 1318.94,373.458 1324.28,325.096 1329.62,312.803 1334.96,304.782 1340.3,325.044 1356.32,303.666 1361.66,357.785 1367,364.571 1372.34,340.729 1377.68,371.423 1399.05,427.184 1404.39,500.165 1409.73,514.082 1415.07,469.914 1431.09,496.453 1436.43,563.942 1441.77,657.1 1447.11,695.925 1452.46,770.731 1468.48,774.682 1473.82,649.229 1479.16,581.627 1484.5,630.836 1489.84,645.028 1505.86,628.191 1511.2,687.865 1516.54,627.746 1521.88,605.903 1527.23,614.743 1543.25,619.24 1548.59,605.114 1553.93,610.003 1559.27,598.467 1564.61,670.614 1580.63,633.938 1585.97,672.966 1591.31,689.535 1596.66,641.195 1602,670.638 1618.02,724.333 1623.36,780.135 1628.7,807.106 1634.04,794.854 1639.38,729.14 1655.4,659.325 1660.74,634.646 1666.09,619.277 1671.43,626.384 1676.77,581.963 1692.79,572.846 1698.13,575.349 1703.47,575.822 1708.81,545.764 1714.15,554.027 1735.52,558.461 1740.86,601.125 1746.2,599.949 1751.54,617.32 1767.56,644.933 1772.9,688.341 1778.24,648.566 1783.58,666.738 1788.92,734.228 1804.95,843.814 1810.29,854.227 1815.63,789.442 1820.97,720.03 1826.31,738.685 1842.33,710.5 1847.67,781.56 1853.01,782.128 1858.35,796.46 1863.69,741.628 1879.72,768.434 1885.06,735.022 1890.4,760.308 1895.74,708.597 1901.08,741.336 1917.1,737.681 1922.44,683.873 1927.78,658.641 1933.12,657.901 1938.46,673.51 1954.49,599.32 1959.83,589.226 1965.17,560.311 1970.51,585.185 1975.85,573.016 1991.87,484.923 1997.21,531.888 2002.55,572.98 2007.89,528.412 2013.23,534.494 2029.26,420.483 2034.6,451.189 2039.94,415.024 2045.28,391.227 2050.62,374.181 2066.87,337.772 2072.21,432.948 2077.55,472.178 2082.89,379.834 2088.23,401.135 2104.25,403.439 2109.59,400.728 2114.93,413.377 2120.27,407.919 2125.61,387.316 2141.64,400.968 2146.98,405.723 2152.32,384.974 2163,509.002 2179.02,444.76 2184.36,529.842 2189.7,627.058 2195.04,572.772 2200.38,646.711 2216.41,618.629 2221.75,482.433 2227.09,487.149 2232.43,584.775 2237.77,564.85 2253.79,638.474 2259.13,678.664 2264.47,610.491 2269.81,673.738 2275.15,671.579 2291.18,729.094 2296.52,633.244 "/>
<path clip-path="url(#clip270)" d="M431.909 270.476 L756.172 270.476 L756.172 166.796 L431.909 166.796  Z" fill="#ffffff" fill-rule="evenodd" fill-opacity="1"/>
<polyline clip-path="url(#clip270)" style="stroke:#000000; stroke-linecap:round; stroke-linejoin:round; stroke-width:4; stroke-opacity:1; fill:none" points="431.909,270.476 756.172,270.476 756.172,166.796 431.909,166.796 431.909,270.476 "/>
<polyline clip-path="url(#clip270)" style="stroke:#009af9; stroke-linecap:round; stroke-linejoin:round; stroke-width:12; stroke-opacity:1; fill:none" points="453.988,218.636 586.46,218.636 "/>
<path clip-path="url(#clip270)" d="M608.538 209.99 L613.052 209.99 L621.154 231.749 L629.256 209.99 L633.77 209.99 L624.048 235.916 L618.261 235.916 L608.538 209.99 Z" fill="#000000" fill-rule="nonzero" fill-opacity="1" /><path clip-path="url(#clip270)" d="M651.432 222.883 Q646.27 222.883 644.279 224.064 Q642.288 225.244 642.288 228.092 Q642.288 230.36 643.77 231.703 Q645.274 233.022 647.844 233.022 Q651.385 233.022 653.515 230.522 Q655.668 227.999 655.668 223.832 L655.668 222.883 L651.432 222.883 M659.927 221.124 L659.927 235.916 L655.668 235.916 L655.668 231.981 Q654.21 234.342 652.034 235.476 Q649.858 236.587 646.71 236.587 Q642.728 236.587 640.367 234.365 Q638.029 232.119 638.029 228.369 Q638.029 223.994 640.946 221.772 Q643.886 219.55 649.696 219.55 L655.668 219.55 L655.668 219.133 Q655.668 216.194 653.723 214.596 Q651.802 212.976 648.307 212.976 Q646.085 212.976 643.978 213.508 Q641.872 214.041 639.927 215.106 L639.927 211.17 Q642.265 210.268 644.464 209.828 Q646.663 209.365 648.747 209.365 Q654.372 209.365 657.149 212.282 Q659.927 215.198 659.927 221.124 Z" fill="#000000" fill-rule="nonzero" fill-opacity="1" /><path clip-path="url(#clip270)" d="M668.7 199.897 L672.959 199.897 L672.959 235.916 L668.7 235.916 L668.7 199.897 Z" fill="#000000" fill-rule="nonzero" fill-opacity="1" /><path clip-path="url(#clip270)" d="M681.432 225.684 L681.432 209.99 L685.691 209.99 L685.691 225.522 Q685.691 229.203 687.126 231.055 Q688.561 232.883 691.432 232.883 Q694.881 232.883 696.871 230.684 Q698.885 228.485 698.885 224.689 L698.885 209.99 L703.144 209.99 L703.144 235.916 L698.885 235.916 L698.885 231.934 Q697.334 234.295 695.274 235.453 Q693.237 236.587 690.529 236.587 Q686.061 236.587 683.746 233.809 Q681.432 231.031 681.432 225.684 M692.149 209.365 L692.149 209.365 Z" fill="#000000" fill-rule="nonzero" fill-opacity="1" /><path clip-path="url(#clip270)" d="M734.093 221.888 L734.093 223.971 L714.51 223.971 Q714.788 228.369 717.149 230.684 Q719.533 232.976 723.769 232.976 Q726.223 232.976 728.515 232.374 Q730.83 231.772 733.098 230.569 L733.098 234.596 Q730.806 235.568 728.399 236.078 Q725.992 236.587 723.515 236.587 Q717.311 236.587 713.677 232.976 Q710.066 229.365 710.066 223.207 Q710.066 216.842 713.492 213.115 Q716.941 209.365 722.774 209.365 Q728.005 209.365 731.038 212.745 Q734.093 216.101 734.093 221.888 M729.834 220.638 Q729.788 217.143 727.867 215.059 Q725.968 212.976 722.82 212.976 Q719.255 212.976 717.103 214.99 Q714.973 217.004 714.649 220.661 L729.834 220.638 Z" fill="#000000" fill-rule="nonzero" fill-opacity="1" /></svg>
