<?xml version="1.0" encoding="utf-8"?>
<svg xmlns="http://www.w3.org/2000/svg" xmlns:xlink="http://www.w3.org/1999/xlink" width="600" height="400" viewBox="0 0 2400 1600">
<defs>
  <clipPath id="clip110">
    <rect x="0" y="0" width="2400" height="1600"/>
  </clipPath>
</defs>
<path clip-path="url(#clip110)" d="M0 1600 L2400 1600 L2400 0 L0 0  Z" fill="#ffffff" fill-rule="evenodd" fill-opacity="1"/>
<defs>
  <clipPath id="clip111">
    <rect x="480" y="0" width="1681" height="1600"/>
  </clipPath>
</defs>
<path clip-path="url(#clip110)" d="M247.459 1423.18 L2352.76 1423.18 L2352.76 47.2441 L247.459 47.2441  Z" fill="#ffffff" fill-rule="evenodd" fill-opacity="1"/>
<defs>
  <clipPath id="clip112">
    <rect x="247" y="47" width="2106" height="1377"/>
  </clipPath>
</defs>
<polyline clip-path="url(#clip112)" style="stroke:#000000; stroke-linecap:round; stroke-linejoin:round; stroke-width:2; stroke-opacity:0.1; fill:none" points="287.592,1423.18 287.592,47.2441 "/>
<polyline clip-path="url(#clip112)" style="stroke:#000000; stroke-linecap:round; stroke-linejoin:round; stroke-width:2; stroke-opacity:0.1; fill:none" points="796.855,1423.18 796.855,47.2441 "/>
<polyline clip-path="url(#clip112)" style="stroke:#000000; stroke-linecap:round; stroke-linejoin:round; stroke-width:2; stroke-opacity:0.1; fill:none" points="1311.78,1423.18 1311.78,47.2441 "/>
<polyline clip-path="url(#clip112)" style="stroke:#000000; stroke-linecap:round; stroke-linejoin:round; stroke-width:2; stroke-opacity:0.1; fill:none" points="1832.36,1423.18 1832.36,47.2441 "/>
<polyline clip-path="url(#clip110)" style="stroke:#000000; stroke-linecap:round; stroke-linejoin:round; stroke-width:4; stroke-opacity:1; fill:none" points="247.459,1423.18 2352.76,1423.18 "/>
<polyline clip-path="url(#clip110)" style="stroke:#000000; stroke-linecap:round; stroke-linejoin:round; stroke-width:4; stroke-opacity:1; fill:none" points="287.592,1423.18 287.592,1404.28 "/>
<polyline clip-path="url(#clip110)" style="stroke:#000000; stroke-linecap:round; stroke-linejoin:round; stroke-width:4; stroke-opacity:1; fill:none" points="796.855,1423.18 796.855,1404.28 "/>
<polyline clip-path="url(#clip110)" style="stroke:#000000; stroke-linecap:round; stroke-linejoin:round; stroke-width:4; stroke-opacity:1; fill:none" points="1311.78,1423.18 1311.78,1404.28 "/>
<polyline clip-path="url(#clip110)" style="stroke:#000000; stroke-linecap:round; stroke-linejoin:round; stroke-width:4; stroke-opacity:1; fill:none" points="1832.36,1423.18 1832.36,1404.28 "/>
<path clip-path="url(#clip110)" d="M159.386 1481.64 L175.706 1481.64 L175.706 1485.58 L153.761 1485.58 L153.761 1481.64 Q156.423 1478.89 161.007 1474.26 Q165.613 1469.61 166.794 1468.27 Q169.039 1465.74 169.919 1464.01 Q170.821 1462.25 170.821 1460.56 Q170.821 1457.8 168.877 1456.07 Q166.956 1454.33 163.854 1454.33 Q161.655 1454.33 159.201 1455.09 Q156.77 1455.86 153.993 1457.41 L153.993 1452.69 Q156.817 1451.55 159.27 1450.97 Q161.724 1450.39 163.761 1450.39 Q169.132 1450.39 172.326 1453.08 Q175.52 1455.77 175.52 1460.26 Q175.52 1462.39 174.71 1464.31 Q173.923 1466.2 171.817 1468.8 Q171.238 1469.47 168.136 1472.69 Q165.034 1475.88 159.386 1481.64 Z" fill="#000000" fill-rule="nonzero" fill-opacity="1" /><path clip-path="url(#clip110)" d="M195.52 1454.1 Q191.909 1454.1 190.08 1457.66 Q188.275 1461.2 188.275 1468.33 Q188.275 1475.44 190.08 1479.01 Q191.909 1482.55 195.52 1482.55 Q199.155 1482.55 200.96 1479.01 Q202.789 1475.44 202.789 1468.33 Q202.789 1461.2 200.96 1457.66 Q199.155 1454.1 195.52 1454.1 M195.52 1450.39 Q201.33 1450.39 204.386 1455 Q207.465 1459.58 207.465 1468.33 Q207.465 1477.06 204.386 1481.67 Q201.33 1486.25 195.52 1486.25 Q189.71 1486.25 186.631 1481.67 Q183.576 1477.06 183.576 1468.33 Q183.576 1459.58 186.631 1455 Q189.71 1450.39 195.52 1450.39 Z" fill="#000000" fill-rule="nonzero" fill-opacity="1" /><path clip-path="url(#clip110)" d="M219.71 1481.64 L236.029 1481.64 L236.029 1485.58 L214.085 1485.58 L214.085 1481.64 Q216.747 1478.89 221.33 1474.26 Q225.937 1469.61 227.117 1468.27 Q229.363 1465.74 230.242 1464.01 Q231.145 1462.25 231.145 1460.56 Q231.145 1457.8 229.201 1456.07 Q227.279 1454.33 224.178 1454.33 Q221.978 1454.33 219.525 1455.09 Q217.094 1455.86 214.316 1457.41 L214.316 1452.69 Q217.141 1451.55 219.594 1450.97 Q222.048 1450.39 224.085 1450.39 Q229.455 1450.39 232.65 1453.08 Q235.844 1455.77 235.844 1460.26 Q235.844 1462.39 235.034 1464.31 Q234.247 1466.2 232.14 1468.8 Q231.562 1469.47 228.46 1472.69 Q225.358 1475.88 219.71 1481.64 Z" fill="#000000" fill-rule="nonzero" fill-opacity="1" /><path clip-path="url(#clip110)" d="M246.654 1481.64 L254.293 1481.64 L254.293 1455.28 L245.983 1456.95 L245.983 1452.69 L254.247 1451.02 L258.923 1451.02 L258.923 1481.64 L266.562 1481.64 L266.562 1485.58 L246.654 1485.58 L246.654 1481.64 Z" fill="#000000" fill-rule="nonzero" fill-opacity="1" /><path clip-path="url(#clip110)" d="M273.251 1470.7 L285.728 1470.7 L285.728 1474.49 L273.251 1474.49 L273.251 1470.7 Z" fill="#000000" fill-rule="nonzero" fill-opacity="1" /><path clip-path="url(#clip110)" d="M303.112 1454.1 Q299.501 1454.1 297.673 1457.66 Q295.867 1461.2 295.867 1468.33 Q295.867 1475.44 297.673 1479.01 Q299.501 1482.55 303.112 1482.55 Q306.747 1482.55 308.552 1479.01 Q310.381 1475.44 310.381 1468.33 Q310.381 1461.2 308.552 1457.66 Q306.747 1454.1 303.112 1454.1 M303.112 1450.39 Q308.922 1450.39 311.978 1455 Q315.057 1459.58 315.057 1468.33 Q315.057 1477.06 311.978 1481.67 Q308.922 1486.25 303.112 1486.25 Q297.302 1486.25 294.223 1481.67 Q291.168 1477.06 291.168 1468.33 Q291.168 1459.58 294.223 1455 Q297.302 1450.39 303.112 1450.39 Z" fill="#000000" fill-rule="nonzero" fill-opacity="1" /><path clip-path="url(#clip110)" d="M324.084 1481.64 L331.723 1481.64 L331.723 1455.28 L323.413 1456.95 L323.413 1452.69 L331.677 1451.02 L336.353 1451.02 L336.353 1481.64 L343.992 1481.64 L343.992 1485.58 L324.084 1485.58 L324.084 1481.64 Z" fill="#000000" fill-rule="nonzero" fill-opacity="1" /><path clip-path="url(#clip110)" d="M350.681 1470.7 L363.158 1470.7 L363.158 1474.49 L350.681 1474.49 L350.681 1470.7 Z" fill="#000000" fill-rule="nonzero" fill-opacity="1" /><path clip-path="url(#clip110)" d="M380.542 1454.1 Q376.931 1454.1 375.103 1457.66 Q373.297 1461.2 373.297 1468.33 Q373.297 1475.44 375.103 1479.01 Q376.931 1482.55 380.542 1482.55 Q384.177 1482.55 385.982 1479.01 Q387.811 1475.44 387.811 1468.33 Q387.811 1461.2 385.982 1457.66 Q384.177 1454.1 380.542 1454.1 M380.542 1450.39 Q386.353 1450.39 389.408 1455 Q392.487 1459.58 392.487 1468.33 Q392.487 1477.06 389.408 1481.67 Q386.353 1486.25 380.542 1486.25 Q374.732 1486.25 371.654 1481.67 Q368.598 1477.06 368.598 1468.33 Q368.598 1459.58 371.654 1455 Q374.732 1450.39 380.542 1450.39 Z" fill="#000000" fill-rule="nonzero" fill-opacity="1" /><path clip-path="url(#clip110)" d="M401.515 1481.64 L409.153 1481.64 L409.153 1455.28 L400.843 1456.95 L400.843 1452.69 L409.107 1451.02 L413.783 1451.02 L413.783 1481.64 L421.422 1481.64 L421.422 1485.58 L401.515 1485.58 L401.515 1481.64 Z" fill="#000000" fill-rule="nonzero" fill-opacity="1" /><path clip-path="url(#clip110)" d="M668.65 1481.64 L684.97 1481.64 L684.97 1485.58 L663.025 1485.58 L663.025 1481.64 Q665.687 1478.89 670.271 1474.26 Q674.877 1469.61 676.058 1468.27 Q678.303 1465.74 679.183 1464.01 Q680.085 1462.25 680.085 1460.56 Q680.085 1457.8 678.141 1456.07 Q676.22 1454.33 673.118 1454.33 Q670.919 1454.33 668.465 1455.09 Q666.034 1455.86 663.257 1457.41 L663.257 1452.69 Q666.081 1451.55 668.534 1450.97 Q670.988 1450.39 673.025 1450.39 Q678.395 1450.39 681.59 1453.08 Q684.784 1455.77 684.784 1460.26 Q684.784 1462.39 683.974 1464.31 Q683.187 1466.2 681.081 1468.8 Q680.502 1469.47 677.4 1472.69 Q674.298 1475.88 668.65 1481.64 Z" fill="#000000" fill-rule="nonzero" fill-opacity="1" /><path clip-path="url(#clip110)" d="M704.784 1454.1 Q701.173 1454.1 699.344 1457.66 Q697.539 1461.2 697.539 1468.33 Q697.539 1475.44 699.344 1479.01 Q701.173 1482.55 704.784 1482.55 Q708.418 1482.55 710.224 1479.01 Q712.053 1475.44 712.053 1468.33 Q712.053 1461.2 710.224 1457.66 Q708.418 1454.1 704.784 1454.1 M704.784 1450.39 Q710.594 1450.39 713.65 1455 Q716.729 1459.58 716.729 1468.33 Q716.729 1477.06 713.65 1481.67 Q710.594 1486.25 704.784 1486.25 Q698.974 1486.25 695.895 1481.67 Q692.84 1477.06 692.84 1468.33 Q692.84 1459.58 695.895 1455 Q698.974 1450.39 704.784 1450.39 Z" fill="#000000" fill-rule="nonzero" fill-opacity="1" /><path clip-path="url(#clip110)" d="M728.974 1481.64 L745.293 1481.64 L745.293 1485.58 L723.349 1485.58 L723.349 1481.64 Q726.011 1478.89 730.594 1474.26 Q735.201 1469.61 736.381 1468.27 Q738.627 1465.74 739.506 1464.01 Q740.409 1462.25 740.409 1460.56 Q740.409 1457.8 738.465 1456.07 Q736.543 1454.33 733.441 1454.33 Q731.242 1454.33 728.789 1455.09 Q726.358 1455.86 723.58 1457.41 L723.58 1452.69 Q726.404 1451.55 728.858 1450.97 Q731.312 1450.39 733.349 1450.39 Q738.719 1450.39 741.914 1453.08 Q745.108 1455.77 745.108 1460.26 Q745.108 1462.39 744.298 1464.31 Q743.511 1466.2 741.404 1468.8 Q740.826 1469.47 737.724 1472.69 Q734.622 1475.88 728.974 1481.64 Z" fill="#000000" fill-rule="nonzero" fill-opacity="1" /><path clip-path="url(#clip110)" d="M755.918 1481.64 L763.557 1481.64 L763.557 1455.28 L755.247 1456.95 L755.247 1452.69 L763.511 1451.02 L768.187 1451.02 L768.187 1481.64 L775.826 1481.64 L775.826 1485.58 L755.918 1485.58 L755.918 1481.64 Z" fill="#000000" fill-rule="nonzero" fill-opacity="1" /><path clip-path="url(#clip110)" d="M782.515 1470.7 L794.992 1470.7 L794.992 1474.49 L782.515 1474.49 L782.515 1470.7 Z" fill="#000000" fill-rule="nonzero" fill-opacity="1" /><path clip-path="url(#clip110)" d="M812.376 1454.1 Q808.765 1454.1 806.936 1457.66 Q805.131 1461.2 805.131 1468.33 Q805.131 1475.44 806.936 1479.01 Q808.765 1482.55 812.376 1482.55 Q816.01 1482.55 817.816 1479.01 Q819.645 1475.44 819.645 1468.33 Q819.645 1461.2 817.816 1457.66 Q816.01 1454.1 812.376 1454.1 M812.376 1450.39 Q818.186 1450.39 821.242 1455 Q824.321 1459.58 824.321 1468.33 Q824.321 1477.06 821.242 1481.67 Q818.186 1486.25 812.376 1486.25 Q806.566 1486.25 803.487 1481.67 Q800.432 1477.06 800.432 1468.33 Q800.432 1459.58 803.487 1455 Q806.566 1450.39 812.376 1450.39 Z" fill="#000000" fill-rule="nonzero" fill-opacity="1" /><path clip-path="url(#clip110)" d="M845.385 1455.09 L833.58 1473.54 L845.385 1473.54 L845.385 1455.09 M844.158 1451.02 L850.038 1451.02 L850.038 1473.54 L854.969 1473.54 L854.969 1477.43 L850.038 1477.43 L850.038 1485.58 L845.385 1485.58 L845.385 1477.43 L829.784 1477.43 L829.784 1472.92 L844.158 1451.02 Z" fill="#000000" fill-rule="nonzero" fill-opacity="1" /><path clip-path="url(#clip110)" d="M859.945 1470.7 L872.422 1470.7 L872.422 1474.49 L859.945 1474.49 L859.945 1470.7 Z" fill="#000000" fill-rule="nonzero" fill-opacity="1" /><path clip-path="url(#clip110)" d="M889.806 1454.1 Q886.195 1454.1 884.367 1457.66 Q882.561 1461.2 882.561 1468.33 Q882.561 1475.44 884.367 1479.01 Q886.195 1482.55 889.806 1482.55 Q893.441 1482.55 895.246 1479.01 Q897.075 1475.44 897.075 1468.33 Q897.075 1461.2 895.246 1457.66 Q893.441 1454.1 889.806 1454.1 M889.806 1450.39 Q895.617 1450.39 898.672 1455 Q901.751 1459.58 901.751 1468.33 Q901.751 1477.06 898.672 1481.67 Q895.617 1486.25 889.806 1486.25 Q883.996 1486.25 880.918 1481.67 Q877.862 1477.06 877.862 1468.33 Q877.862 1459.58 880.918 1455 Q883.996 1450.39 889.806 1450.39 Z" fill="#000000" fill-rule="nonzero" fill-opacity="1" /><path clip-path="url(#clip110)" d="M910.778 1481.64 L918.417 1481.64 L918.417 1455.28 L910.107 1456.95 L910.107 1452.69 L918.371 1451.02 L923.047 1451.02 L923.047 1481.64 L930.686 1481.64 L930.686 1485.58 L910.778 1485.58 L910.778 1481.64 Z" fill="#000000" fill-rule="nonzero" fill-opacity="1" /><path clip-path="url(#clip110)" d="M1183.57 1481.64 L1199.89 1481.64 L1199.89 1485.58 L1177.95 1485.58 L1177.95 1481.64 Q1180.61 1478.89 1185.19 1474.26 Q1189.8 1469.61 1190.98 1468.27 Q1193.23 1465.74 1194.1 1464.01 Q1195.01 1462.25 1195.01 1460.56 Q1195.01 1457.8 1193.06 1456.07 Q1191.14 1454.33 1188.04 1454.33 Q1185.84 1454.33 1183.39 1455.09 Q1180.96 1455.86 1178.18 1457.41 L1178.18 1452.69 Q1181 1451.55 1183.46 1450.97 Q1185.91 1450.39 1187.95 1450.39 Q1193.32 1450.39 1196.51 1453.08 Q1199.71 1455.77 1199.71 1460.26 Q1199.71 1462.39 1198.9 1464.31 Q1198.11 1466.2 1196 1468.8 Q1195.42 1469.47 1192.32 1472.69 Q1189.22 1475.88 1183.57 1481.64 Z" fill="#000000" fill-rule="nonzero" fill-opacity="1" /><path clip-path="url(#clip110)" d="M1219.71 1454.1 Q1216.1 1454.1 1214.27 1457.66 Q1212.46 1461.2 1212.46 1468.33 Q1212.46 1475.44 1214.27 1479.01 Q1216.1 1482.55 1219.71 1482.55 Q1223.34 1482.55 1225.15 1479.01 Q1226.98 1475.44 1226.98 1468.33 Q1226.98 1461.2 1225.15 1457.66 Q1223.34 1454.1 1219.71 1454.1 M1219.71 1450.39 Q1225.52 1450.39 1228.57 1455 Q1231.65 1459.58 1231.65 1468.33 Q1231.65 1477.06 1228.57 1481.67 Q1225.52 1486.25 1219.71 1486.25 Q1213.9 1486.25 1210.82 1481.67 Q1207.76 1477.06 1207.76 1468.33 Q1207.76 1459.58 1210.82 1455 Q1213.9 1450.39 1219.71 1450.39 Z" fill="#000000" fill-rule="nonzero" fill-opacity="1" /><path clip-path="url(#clip110)" d="M1243.9 1481.64 L1260.22 1481.64 L1260.22 1485.58 L1238.27 1485.58 L1238.27 1481.64 Q1240.93 1478.89 1245.52 1474.26 Q1250.12 1469.61 1251.3 1468.27 Q1253.55 1465.74 1254.43 1464.01 Q1255.33 1462.25 1255.33 1460.56 Q1255.33 1457.8 1253.39 1456.07 Q1251.47 1454.33 1248.36 1454.33 Q1246.16 1454.33 1243.71 1455.09 Q1241.28 1455.86 1238.5 1457.41 L1238.5 1452.69 Q1241.33 1451.55 1243.78 1450.97 Q1246.23 1450.39 1248.27 1450.39 Q1253.64 1450.39 1256.84 1453.08 Q1260.03 1455.77 1260.03 1460.26 Q1260.03 1462.39 1259.22 1464.31 Q1258.43 1466.2 1256.33 1468.8 Q1255.75 1469.47 1252.65 1472.69 Q1249.54 1475.88 1243.9 1481.64 Z" fill="#000000" fill-rule="nonzero" fill-opacity="1" /><path clip-path="url(#clip110)" d="M1270.84 1481.64 L1278.48 1481.64 L1278.48 1455.28 L1270.17 1456.95 L1270.17 1452.69 L1278.43 1451.02 L1283.11 1451.02 L1283.11 1481.64 L1290.75 1481.64 L1290.75 1485.58 L1270.84 1485.58 L1270.84 1481.64 Z" fill="#000000" fill-rule="nonzero" fill-opacity="1" /><path clip-path="url(#clip110)" d="M1297.44 1470.7 L1309.91 1470.7 L1309.91 1474.49 L1297.44 1474.49 L1297.44 1470.7 Z" fill="#000000" fill-rule="nonzero" fill-opacity="1" /><path clip-path="url(#clip110)" d="M1327.3 1454.1 Q1323.69 1454.1 1321.86 1457.66 Q1320.05 1461.2 1320.05 1468.33 Q1320.05 1475.44 1321.86 1479.01 Q1323.69 1482.55 1327.3 1482.55 Q1330.93 1482.55 1332.74 1479.01 Q1334.57 1475.44 1334.57 1468.33 Q1334.57 1461.2 1332.74 1457.66 Q1330.93 1454.1 1327.3 1454.1 M1327.3 1450.39 Q1333.11 1450.39 1336.16 1455 Q1339.24 1459.58 1339.24 1468.33 Q1339.24 1477.06 1336.16 1481.67 Q1333.11 1486.25 1327.3 1486.25 Q1321.49 1486.25 1318.41 1481.67 Q1315.35 1477.06 1315.35 1468.33 Q1315.35 1459.58 1318.41 1455 Q1321.49 1450.39 1327.3 1450.39 Z" fill="#000000" fill-rule="nonzero" fill-opacity="1" /><path clip-path="url(#clip110)" d="M1346.28 1451.02 L1368.5 1451.02 L1368.5 1453.01 L1355.96 1485.58 L1351.07 1485.58 L1362.88 1454.96 L1346.28 1454.96 L1346.28 1451.02 Z" fill="#000000" fill-rule="nonzero" fill-opacity="1" /><path clip-path="url(#clip110)" d="M1374.87 1470.7 L1387.34 1470.7 L1387.34 1474.49 L1374.87 1474.49 L1374.87 1470.7 Z" fill="#000000" fill-rule="nonzero" fill-opacity="1" /><path clip-path="url(#clip110)" d="M1404.73 1454.1 Q1401.12 1454.1 1399.29 1457.66 Q1397.48 1461.2 1397.48 1468.33 Q1397.48 1475.44 1399.29 1479.01 Q1401.12 1482.55 1404.73 1482.55 Q1408.36 1482.55 1410.17 1479.01 Q1412 1475.44 1412 1468.33 Q1412 1461.2 1410.17 1457.66 Q1408.36 1454.1 1404.73 1454.1 M1404.73 1450.39 Q1410.54 1450.39 1413.59 1455 Q1416.67 1459.58 1416.67 1468.33 Q1416.67 1477.06 1413.59 1481.67 Q1410.54 1486.25 1404.73 1486.25 Q1398.92 1486.25 1395.84 1481.67 Q1392.78 1477.06 1392.78 1468.33 Q1392.78 1459.58 1395.84 1455 Q1398.92 1450.39 1404.73 1450.39 Z" fill="#000000" fill-rule="nonzero" fill-opacity="1" /><path clip-path="url(#clip110)" d="M1425.7 1481.64 L1433.34 1481.64 L1433.34 1455.28 L1425.03 1456.95 L1425.03 1452.69 L1433.29 1451.02 L1437.97 1451.02 L1437.97 1481.64 L1445.61 1481.64 L1445.61 1485.58 L1425.7 1485.58 L1425.7 1481.64 Z" fill="#000000" fill-rule="nonzero" fill-opacity="1" /><path clip-path="url(#clip110)" d="M1704.15 1481.64 L1720.47 1481.64 L1720.47 1485.58 L1698.53 1485.58 L1698.53 1481.64 Q1701.19 1478.89 1705.77 1474.26 Q1710.38 1469.61 1711.56 1468.27 Q1713.81 1465.74 1714.69 1464.01 Q1715.59 1462.25 1715.59 1460.56 Q1715.59 1457.8 1713.64 1456.07 Q1711.72 1454.33 1708.62 1454.33 Q1706.42 1454.33 1703.97 1455.09 Q1701.54 1455.86 1698.76 1457.41 L1698.76 1452.69 Q1701.58 1451.55 1704.04 1450.97 Q1706.49 1450.39 1708.53 1450.39 Q1713.9 1450.39 1717.09 1453.08 Q1720.29 1455.77 1720.29 1460.26 Q1720.29 1462.39 1719.48 1464.31 Q1718.69 1466.2 1716.58 1468.8 Q1716.01 1469.47 1712.9 1472.69 Q1709.8 1475.88 1704.15 1481.64 Z" fill="#000000" fill-rule="nonzero" fill-opacity="1" /><path clip-path="url(#clip110)" d="M1740.29 1454.1 Q1736.68 1454.1 1734.85 1457.66 Q1733.04 1461.2 1733.04 1468.33 Q1733.04 1475.44 1734.85 1479.01 Q1736.68 1482.55 1740.29 1482.55 Q1743.92 1482.55 1745.73 1479.01 Q1747.56 1475.44 1747.56 1468.33 Q1747.56 1461.2 1745.73 1457.66 Q1743.92 1454.1 1740.29 1454.1 M1740.29 1450.39 Q1746.1 1450.39 1749.15 1455 Q1752.23 1459.58 1752.23 1468.33 Q1752.23 1477.06 1749.15 1481.67 Q1746.1 1486.25 1740.29 1486.25 Q1734.48 1486.25 1731.4 1481.67 Q1728.34 1477.06 1728.34 1468.33 Q1728.34 1459.58 1731.4 1455 Q1734.48 1450.39 1740.29 1450.39 Z" fill="#000000" fill-rule="nonzero" fill-opacity="1" /><path clip-path="url(#clip110)" d="M1764.48 1481.64 L1780.8 1481.64 L1780.8 1485.58 L1758.85 1485.58 L1758.85 1481.64 Q1761.51 1478.89 1766.1 1474.26 Q1770.7 1469.61 1771.88 1468.27 Q1774.13 1465.74 1775.01 1464.01 Q1775.91 1462.25 1775.91 1460.56 Q1775.91 1457.8 1773.97 1456.07 Q1772.05 1454.33 1768.94 1454.33 Q1766.75 1454.33 1764.29 1455.09 Q1761.86 1455.86 1759.08 1457.41 L1759.08 1452.69 Q1761.91 1451.55 1764.36 1450.97 Q1766.82 1450.39 1768.85 1450.39 Q1774.22 1450.39 1777.42 1453.08 Q1780.61 1455.77 1780.61 1460.26 Q1780.61 1462.39 1779.8 1464.31 Q1779.01 1466.2 1776.91 1468.8 Q1776.33 1469.47 1773.23 1472.69 Q1770.13 1475.88 1764.48 1481.64 Z" fill="#000000" fill-rule="nonzero" fill-opacity="1" /><path clip-path="url(#clip110)" d="M1791.42 1481.64 L1799.06 1481.64 L1799.06 1455.28 L1790.75 1456.95 L1790.75 1452.69 L1799.01 1451.02 L1803.69 1451.02 L1803.69 1481.64 L1811.33 1481.64 L1811.33 1485.58 L1791.42 1485.58 L1791.42 1481.64 Z" fill="#000000" fill-rule="nonzero" fill-opacity="1" /><path clip-path="url(#clip110)" d="M1818.02 1470.7 L1830.5 1470.7 L1830.5 1474.49 L1818.02 1474.49 L1818.02 1470.7 Z" fill="#000000" fill-rule="nonzero" fill-opacity="1" /><path clip-path="url(#clip110)" d="M1838.69 1481.64 L1846.33 1481.64 L1846.33 1455.28 L1838.02 1456.95 L1838.02 1452.69 L1846.28 1451.02 L1850.96 1451.02 L1850.96 1481.64 L1858.6 1481.64 L1858.6 1485.58 L1838.69 1485.58 L1838.69 1481.64 Z" fill="#000000" fill-rule="nonzero" fill-opacity="1" /><path clip-path="url(#clip110)" d="M1878.04 1454.1 Q1874.43 1454.1 1872.6 1457.66 Q1870.8 1461.2 1870.8 1468.33 Q1870.8 1475.44 1872.6 1479.01 Q1874.43 1482.55 1878.04 1482.55 Q1881.68 1482.55 1883.48 1479.01 Q1885.31 1475.44 1885.31 1468.33 Q1885.31 1461.2 1883.48 1457.66 Q1881.68 1454.1 1878.04 1454.1 M1878.04 1450.39 Q1883.85 1450.39 1886.91 1455 Q1889.99 1459.58 1889.99 1468.33 Q1889.99 1477.06 1886.91 1481.67 Q1883.85 1486.25 1878.04 1486.25 Q1872.23 1486.25 1869.15 1481.67 Q1866.1 1477.06 1866.1 1468.33 Q1866.1 1459.58 1869.15 1455 Q1872.23 1450.39 1878.04 1450.39 Z" fill="#000000" fill-rule="nonzero" fill-opacity="1" /><path clip-path="url(#clip110)" d="M1895.45 1470.7 L1907.93 1470.7 L1907.93 1474.49 L1895.45 1474.49 L1895.45 1470.7 Z" fill="#000000" fill-rule="nonzero" fill-opacity="1" /><path clip-path="url(#clip110)" d="M1925.31 1454.1 Q1921.7 1454.1 1919.87 1457.66 Q1918.06 1461.2 1918.06 1468.33 Q1918.06 1475.44 1919.87 1479.01 Q1921.7 1482.55 1925.31 1482.55 Q1928.94 1482.55 1930.75 1479.01 Q1932.58 1475.44 1932.58 1468.33 Q1932.58 1461.2 1930.75 1457.66 Q1928.94 1454.1 1925.31 1454.1 M1925.31 1450.39 Q1931.12 1450.39 1934.18 1455 Q1937.25 1459.58 1937.25 1468.33 Q1937.25 1477.06 1934.18 1481.67 Q1931.12 1486.25 1925.31 1486.25 Q1919.5 1486.25 1916.42 1481.67 Q1913.37 1477.06 1913.37 1468.33 Q1913.37 1459.58 1916.42 1455 Q1919.5 1450.39 1925.31 1450.39 Z" fill="#000000" fill-rule="nonzero" fill-opacity="1" /><path clip-path="url(#clip110)" d="M1946.28 1481.64 L1953.92 1481.64 L1953.92 1455.28 L1945.61 1456.95 L1945.61 1452.69 L1953.87 1451.02 L1958.55 1451.02 L1958.55 1481.64 L1966.19 1481.64 L1966.19 1485.58 L1946.28 1485.58 L1946.28 1481.64 Z" fill="#000000" fill-rule="nonzero" fill-opacity="1" /><path clip-path="url(#clip110)" d="M1256.15 1537.81 L1256.15 1518.52 L1262.01 1518.52 L1262.01 1568.04 L1256.15 1568.04 L1256.15 1562.7 Q1254.31 1565.88 1251.47 1567.44 Q1248.67 1568.97 1244.73 1568.97 Q1238.26 1568.97 1234.19 1563.81 Q1230.15 1558.65 1230.15 1550.25 Q1230.15 1541.85 1234.19 1536.69 Q1238.26 1531.54 1244.73 1531.54 Q1248.67 1531.54 1251.47 1533.1 Q1254.31 1534.62 1256.15 1537.81 M1236.2 1550.25 Q1236.2 1556.71 1238.84 1560.4 Q1241.51 1564.07 1246.16 1564.07 Q1250.8 1564.07 1253.48 1560.4 Q1256.15 1556.71 1256.15 1550.25 Q1256.15 1543.79 1253.48 1540.13 Q1250.8 1536.44 1246.16 1536.44 Q1241.51 1536.44 1238.84 1540.13 Q1236.2 1543.79 1236.2 1550.25 Z" fill="#000000" fill-rule="nonzero" fill-opacity="1" /><path clip-path="url(#clip110)" d="M1290.27 1550.12 Q1283.17 1550.12 1280.44 1551.75 Q1277.7 1553.37 1277.7 1557.29 Q1277.7 1560.4 1279.74 1562.25 Q1281.81 1564.07 1285.34 1564.07 Q1290.21 1564.07 1293.14 1560.63 Q1296.1 1557.16 1296.1 1551.43 L1296.1 1550.12 L1290.27 1550.12 M1301.95 1547.71 L1301.95 1568.04 L1296.1 1568.04 L1296.1 1562.63 Q1294.09 1565.88 1291.1 1567.44 Q1288.11 1568.97 1283.78 1568.97 Q1278.3 1568.97 1275.06 1565.91 Q1271.84 1562.82 1271.84 1557.67 Q1271.84 1551.65 1275.85 1548.6 Q1279.9 1545.54 1287.89 1545.54 L1296.1 1545.54 L1296.1 1544.97 Q1296.1 1540.93 1293.42 1538.73 Q1290.78 1536.5 1285.98 1536.5 Q1282.92 1536.5 1280.02 1537.23 Q1277.13 1537.97 1274.45 1539.43 L1274.45 1534.02 Q1277.67 1532.78 1280.69 1532.17 Q1283.72 1531.54 1286.58 1531.54 Q1294.31 1531.54 1298.13 1535.55 Q1301.95 1539.56 1301.95 1547.71 Z" fill="#000000" fill-rule="nonzero" fill-opacity="1" /><path clip-path="url(#clip110)" d="M1319.81 1522.27 L1319.81 1532.4 L1331.87 1532.4 L1331.87 1536.95 L1319.81 1536.95 L1319.81 1556.3 Q1319.81 1560.66 1320.99 1561.9 Q1322.2 1563.14 1325.86 1563.14 L1331.87 1563.14 L1331.87 1568.04 L1325.86 1568.04 Q1319.08 1568.04 1316.5 1565.53 Q1313.92 1562.98 1313.92 1556.3 L1313.92 1536.95 L1309.62 1536.95 L1309.62 1532.4 L1313.92 1532.4 L1313.92 1522.27 L1319.81 1522.27 Z" fill="#000000" fill-rule="nonzero" fill-opacity="1" /><path clip-path="url(#clip110)" d="M1370.07 1548.76 L1370.07 1551.62 L1343.14 1551.62 Q1343.52 1557.67 1346.77 1560.85 Q1350.05 1564 1355.87 1564 Q1359.24 1564 1362.4 1563.17 Q1365.58 1562.35 1368.7 1560.69 L1368.7 1566.23 Q1365.55 1567.57 1362.24 1568.27 Q1358.93 1568.97 1355.52 1568.97 Q1346.99 1568.97 1341.99 1564 Q1337.03 1559.04 1337.03 1550.57 Q1337.03 1541.82 1341.74 1536.69 Q1346.48 1531.54 1354.5 1531.54 Q1361.7 1531.54 1365.87 1536.18 Q1370.07 1540.8 1370.07 1548.76 M1364.21 1547.04 Q1364.15 1542.23 1361.5 1539.37 Q1358.89 1536.5 1354.57 1536.5 Q1349.66 1536.5 1346.7 1539.27 Q1343.78 1542.04 1343.33 1547.07 L1364.21 1547.04 Z" fill="#000000" fill-rule="nonzero" fill-opacity="1" /><polyline clip-path="url(#clip112)" style="stroke:#000000; stroke-linecap:round; stroke-linejoin:round; stroke-width:2; stroke-opacity:0.1; fill:none" points="247.459,1384.24 2352.76,1384.24 "/>
<polyline clip-path="url(#clip112)" style="stroke:#000000; stroke-linecap:round; stroke-linejoin:round; stroke-width:2; stroke-opacity:0.1; fill:none" points="247.459,1150.54 2352.76,1150.54 "/>
<polyline clip-path="url(#clip112)" style="stroke:#000000; stroke-linecap:round; stroke-linejoin:round; stroke-width:2; stroke-opacity:0.1; fill:none" points="247.459,916.839 2352.76,916.839 "/>
<polyline clip-path="url(#clip112)" style="stroke:#000000; stroke-linecap:round; stroke-linejoin:round; stroke-width:2; stroke-opacity:0.1; fill:none" points="247.459,683.139 2352.76,683.139 "/>
<polyline clip-path="url(#clip112)" style="stroke:#000000; stroke-linecap:round; stroke-linejoin:round; stroke-width:2; stroke-opacity:0.1; fill:none" points="247.459,449.439 2352.76,449.439 "/>
<polyline clip-path="url(#clip112)" style="stroke:#000000; stroke-linecap:round; stroke-linejoin:round; stroke-width:2; stroke-opacity:0.1; fill:none" points="247.459,215.74 2352.76,215.74 "/>
<polyline clip-path="url(#clip110)" style="stroke:#000000; stroke-linecap:round; stroke-linejoin:round; stroke-width:4; stroke-opacity:1; fill:none" points="247.459,1423.18 247.459,47.2441 "/>
<polyline clip-path="url(#clip110)" style="stroke:#000000; stroke-linecap:round; stroke-linejoin:round; stroke-width:4; stroke-opacity:1; fill:none" points="247.459,1384.24 266.356,1384.24 "/>
<polyline clip-path="url(#clip110)" style="stroke:#000000; stroke-linecap:round; stroke-linejoin:round; stroke-width:4; stroke-opacity:1; fill:none" points="247.459,1150.54 266.356,1150.54 "/>
<polyline clip-path="url(#clip110)" style="stroke:#000000; stroke-linecap:round; stroke-linejoin:round; stroke-width:4; stroke-opacity:1; fill:none" points="247.459,916.839 266.356,916.839 "/>
<polyline clip-path="url(#clip110)" style="stroke:#000000; stroke-linecap:round; stroke-linejoin:round; stroke-width:4; stroke-opacity:1; fill:none" points="247.459,683.139 266.356,683.139 "/>
<polyline clip-path="url(#clip110)" style="stroke:#000000; stroke-linecap:round; stroke-linejoin:round; stroke-width:4; stroke-opacity:1; fill:none" points="247.459,449.439 266.356,449.439 "/>
<polyline clip-path="url(#clip110)" style="stroke:#000000; stroke-linecap:round; stroke-linejoin:round; stroke-width:4; stroke-opacity:1; fill:none" points="247.459,215.74 266.356,215.74 "/>
<path clip-path="url(#clip110)" d="M114.931 1397.58 L122.57 1397.58 L122.57 1371.22 L114.26 1372.88 L114.26 1368.62 L122.524 1366.96 L127.2 1366.96 L127.2 1397.58 L134.839 1397.58 L134.839 1401.52 L114.931 1401.52 L114.931 1397.58 Z" fill="#000000" fill-rule="nonzero" fill-opacity="1" /><path clip-path="url(#clip110)" d="M144.283 1395.64 L149.167 1395.64 L149.167 1401.52 L144.283 1401.52 L144.283 1395.64 Z" fill="#000000" fill-rule="nonzero" fill-opacity="1" /><path clip-path="url(#clip110)" d="M169.352 1370.04 Q165.741 1370.04 163.913 1373.6 Q162.107 1377.14 162.107 1384.27 Q162.107 1391.38 163.913 1394.94 Q165.741 1398.49 169.352 1398.49 Q172.987 1398.49 174.792 1394.94 Q176.621 1391.38 176.621 1384.27 Q176.621 1377.14 174.792 1373.6 Q172.987 1370.04 169.352 1370.04 M169.352 1366.33 Q175.163 1366.33 178.218 1370.94 Q181.297 1375.52 181.297 1384.27 Q181.297 1393 178.218 1397.61 Q175.163 1402.19 169.352 1402.19 Q163.542 1402.19 160.464 1397.61 Q157.408 1393 157.408 1384.27 Q157.408 1375.52 160.464 1370.94 Q163.542 1366.33 169.352 1366.33 Z" fill="#000000" fill-rule="nonzero" fill-opacity="1" /><path clip-path="url(#clip110)" d="M199.514 1370.04 Q195.903 1370.04 194.075 1373.6 Q192.269 1377.14 192.269 1384.27 Q192.269 1391.38 194.075 1394.94 Q195.903 1398.49 199.514 1398.49 Q203.149 1398.49 204.954 1394.94 Q206.783 1391.38 206.783 1384.27 Q206.783 1377.14 204.954 1373.6 Q203.149 1370.04 199.514 1370.04 M199.514 1366.33 Q205.324 1366.33 208.38 1370.94 Q211.459 1375.52 211.459 1384.27 Q211.459 1393 208.38 1397.61 Q205.324 1402.19 199.514 1402.19 Q193.704 1402.19 190.625 1397.61 Q187.57 1393 187.57 1384.27 Q187.57 1375.52 190.625 1370.94 Q193.704 1366.33 199.514 1366.33 Z" fill="#000000" fill-rule="nonzero" fill-opacity="1" /><path clip-path="url(#clip110)" d="M115.927 1163.88 L123.566 1163.88 L123.566 1137.52 L115.256 1139.18 L115.256 1134.93 L123.519 1133.26 L128.195 1133.26 L128.195 1163.88 L135.834 1163.88 L135.834 1167.82 L115.927 1167.82 L115.927 1163.88 Z" fill="#000000" fill-rule="nonzero" fill-opacity="1" /><path clip-path="url(#clip110)" d="M145.279 1161.94 L150.163 1161.94 L150.163 1167.82 L145.279 1167.82 L145.279 1161.94 Z" fill="#000000" fill-rule="nonzero" fill-opacity="1" /><path clip-path="url(#clip110)" d="M170.348 1136.34 Q166.737 1136.34 164.908 1139.9 Q163.102 1143.44 163.102 1150.57 Q163.102 1157.68 164.908 1161.24 Q166.737 1164.79 170.348 1164.79 Q173.982 1164.79 175.788 1161.24 Q177.616 1157.68 177.616 1150.57 Q177.616 1143.44 175.788 1139.9 Q173.982 1136.34 170.348 1136.34 M170.348 1132.63 Q176.158 1132.63 179.214 1137.24 Q182.292 1141.82 182.292 1150.57 Q182.292 1159.3 179.214 1163.91 Q176.158 1168.49 170.348 1168.49 Q164.538 1168.49 161.459 1163.91 Q158.403 1159.3 158.403 1150.57 Q158.403 1141.82 161.459 1137.24 Q164.538 1132.63 170.348 1132.63 Z" fill="#000000" fill-rule="nonzero" fill-opacity="1" /><path clip-path="url(#clip110)" d="M190.556 1133.26 L208.912 1133.26 L208.912 1137.19 L194.838 1137.19 L194.838 1145.67 Q195.857 1145.32 196.875 1145.16 Q197.894 1144.97 198.912 1144.97 Q204.699 1144.97 208.079 1148.14 Q211.459 1151.31 211.459 1156.73 Q211.459 1162.31 207.987 1165.41 Q204.514 1168.49 198.195 1168.49 Q196.019 1168.49 193.75 1168.12 Q191.505 1167.75 189.098 1167.01 L189.098 1162.31 Q191.181 1163.44 193.403 1164 Q195.625 1164.55 198.102 1164.55 Q202.107 1164.55 204.445 1162.45 Q206.783 1160.34 206.783 1156.73 Q206.783 1153.12 204.445 1151.01 Q202.107 1148.91 198.102 1148.91 Q196.227 1148.91 194.352 1149.32 Q192.5 1149.74 190.556 1150.62 L190.556 1133.26 Z" fill="#000000" fill-rule="nonzero" fill-opacity="1" /><path clip-path="url(#clip110)" d="M114.931 930.184 L122.57 930.184 L122.57 903.818 L114.26 905.485 L114.26 901.225 L122.524 899.559 L127.2 899.559 L127.2 930.184 L134.839 930.184 L134.839 934.119 L114.931 934.119 L114.931 930.184 Z" fill="#000000" fill-rule="nonzero" fill-opacity="1" /><path clip-path="url(#clip110)" d="M144.283 928.239 L149.167 928.239 L149.167 934.119 L144.283 934.119 L144.283 928.239 Z" fill="#000000" fill-rule="nonzero" fill-opacity="1" /><path clip-path="url(#clip110)" d="M160.163 930.184 L167.802 930.184 L167.802 903.818 L159.491 905.485 L159.491 901.225 L167.755 899.559 L172.431 899.559 L172.431 930.184 L180.07 930.184 L180.07 934.119 L160.163 934.119 L160.163 930.184 Z" fill="#000000" fill-rule="nonzero" fill-opacity="1" /><path clip-path="url(#clip110)" d="M199.514 902.637 Q195.903 902.637 194.075 906.202 Q192.269 909.744 192.269 916.873 Q192.269 923.98 194.075 927.545 Q195.903 931.086 199.514 931.086 Q203.149 931.086 204.954 927.545 Q206.783 923.98 206.783 916.873 Q206.783 909.744 204.954 906.202 Q203.149 902.637 199.514 902.637 M199.514 898.934 Q205.324 898.934 208.38 903.54 Q211.459 908.124 211.459 916.873 Q211.459 925.6 208.38 930.207 Q205.324 934.79 199.514 934.79 Q193.704 934.79 190.625 930.207 Q187.57 925.6 187.57 916.873 Q187.57 908.124 190.625 903.54 Q193.704 898.934 199.514 898.934 Z" fill="#000000" fill-rule="nonzero" fill-opacity="1" /><path clip-path="url(#clip110)" d="M115.927 696.484 L123.566 696.484 L123.566 670.118 L115.256 671.785 L115.256 667.526 L123.519 665.859 L128.195 665.859 L128.195 696.484 L135.834 696.484 L135.834 700.419 L115.927 700.419 L115.927 696.484 Z" fill="#000000" fill-rule="nonzero" fill-opacity="1" /><path clip-path="url(#clip110)" d="M145.279 694.539 L150.163 694.539 L150.163 700.419 L145.279 700.419 L145.279 694.539 Z" fill="#000000" fill-rule="nonzero" fill-opacity="1" /><path clip-path="url(#clip110)" d="M161.158 696.484 L168.797 696.484 L168.797 670.118 L160.487 671.785 L160.487 667.526 L168.751 665.859 L173.427 665.859 L173.427 696.484 L181.065 696.484 L181.065 700.419 L161.158 700.419 L161.158 696.484 Z" fill="#000000" fill-rule="nonzero" fill-opacity="1" /><path clip-path="url(#clip110)" d="M190.556 665.859 L208.912 665.859 L208.912 669.794 L194.838 669.794 L194.838 678.266 Q195.857 677.919 196.875 677.757 Q197.894 677.572 198.912 677.572 Q204.699 677.572 208.079 680.743 Q211.459 683.914 211.459 689.331 Q211.459 694.91 207.987 698.012 Q204.514 701.09 198.195 701.09 Q196.019 701.09 193.75 700.72 Q191.505 700.35 189.098 699.609 L189.098 694.91 Q191.181 696.044 193.403 696.6 Q195.625 697.155 198.102 697.155 Q202.107 697.155 204.445 695.049 Q206.783 692.942 206.783 689.331 Q206.783 685.72 204.445 683.614 Q202.107 681.507 198.102 681.507 Q196.227 681.507 194.352 681.924 Q192.5 682.34 190.556 683.22 L190.556 665.859 Z" fill="#000000" fill-rule="nonzero" fill-opacity="1" /><path clip-path="url(#clip110)" d="M114.931 462.784 L122.57 462.784 L122.57 436.419 L114.26 438.085 L114.26 433.826 L122.524 432.159 L127.2 432.159 L127.2 462.784 L134.839 462.784 L134.839 466.719 L114.931 466.719 L114.931 462.784 Z" fill="#000000" fill-rule="nonzero" fill-opacity="1" /><path clip-path="url(#clip110)" d="M144.283 460.84 L149.167 460.84 L149.167 466.719 L144.283 466.719 L144.283 460.84 Z" fill="#000000" fill-rule="nonzero" fill-opacity="1" /><path clip-path="url(#clip110)" d="M163.38 462.784 L179.7 462.784 L179.7 466.719 L157.755 466.719 L157.755 462.784 Q160.417 460.03 165.001 455.4 Q169.607 450.747 170.788 449.405 Q173.033 446.881 173.913 445.145 Q174.815 443.386 174.815 441.696 Q174.815 438.942 172.871 437.206 Q170.95 435.469 167.848 435.469 Q165.649 435.469 163.195 436.233 Q160.765 436.997 157.987 438.548 L157.987 433.826 Q160.811 432.692 163.265 432.113 Q165.718 431.534 167.755 431.534 Q173.126 431.534 176.32 434.219 Q179.514 436.905 179.514 441.395 Q179.514 443.525 178.704 445.446 Q177.917 447.344 175.811 449.937 Q175.232 450.608 172.13 453.826 Q169.028 457.02 163.38 462.784 Z" fill="#000000" fill-rule="nonzero" fill-opacity="1" /><path clip-path="url(#clip110)" d="M199.514 435.238 Q195.903 435.238 194.075 438.803 Q192.269 442.344 192.269 449.474 Q192.269 456.58 194.075 460.145 Q195.903 463.687 199.514 463.687 Q203.149 463.687 204.954 460.145 Q206.783 456.58 206.783 449.474 Q206.783 442.344 204.954 438.803 Q203.149 435.238 199.514 435.238 M199.514 431.534 Q205.324 431.534 208.38 436.141 Q211.459 440.724 211.459 449.474 Q211.459 458.201 208.38 462.807 Q205.324 467.391 199.514 467.391 Q193.704 467.391 190.625 462.807 Q187.57 458.201 187.57 449.474 Q187.57 440.724 190.625 436.141 Q193.704 431.534 199.514 431.534 Z" fill="#000000" fill-rule="nonzero" fill-opacity="1" /><path clip-path="url(#clip110)" d="M115.927 229.084 L123.566 229.084 L123.566 202.719 L115.256 204.385 L115.256 200.126 L123.519 198.46 L128.195 198.46 L128.195 229.084 L135.834 229.084 L135.834 233.02 L115.927 233.02 L115.927 229.084 Z" fill="#000000" fill-rule="nonzero" fill-opacity="1" /><path clip-path="url(#clip110)" d="M145.279 227.14 L150.163 227.14 L150.163 233.02 L145.279 233.02 L145.279 227.14 Z" fill="#000000" fill-rule="nonzero" fill-opacity="1" /><path clip-path="url(#clip110)" d="M164.376 229.084 L180.695 229.084 L180.695 233.02 L158.751 233.02 L158.751 229.084 Q161.413 226.33 165.996 221.7 Q170.602 217.047 171.783 215.705 Q174.028 213.182 174.908 211.446 Q175.811 209.686 175.811 207.997 Q175.811 205.242 173.866 203.506 Q171.945 201.77 168.843 201.77 Q166.644 201.77 164.19 202.534 Q161.76 203.297 158.982 204.848 L158.982 200.126 Q161.806 198.992 164.26 198.413 Q166.714 197.835 168.751 197.835 Q174.121 197.835 177.315 200.52 Q180.51 203.205 180.51 207.696 Q180.51 209.825 179.7 211.747 Q178.913 213.645 176.806 216.237 Q176.227 216.909 173.126 220.126 Q170.024 223.321 164.376 229.084 Z" fill="#000000" fill-rule="nonzero" fill-opacity="1" /><path clip-path="url(#clip110)" d="M190.556 198.46 L208.912 198.46 L208.912 202.395 L194.838 202.395 L194.838 210.867 Q195.857 210.52 196.875 210.358 Q197.894 210.172 198.912 210.172 Q204.699 210.172 208.079 213.344 Q211.459 216.515 211.459 221.932 Q211.459 227.51 207.987 230.612 Q204.514 233.691 198.195 233.691 Q196.019 233.691 193.75 233.32 Q191.505 232.95 189.098 232.209 L189.098 227.51 Q191.181 228.645 193.403 229.2 Q195.625 229.756 198.102 229.756 Q202.107 229.756 204.445 227.649 Q206.783 225.543 206.783 221.932 Q206.783 218.321 204.445 216.214 Q202.107 214.108 198.102 214.108 Q196.227 214.108 194.352 214.524 Q192.5 214.941 190.556 215.821 L190.556 198.46 Z" fill="#000000" fill-rule="nonzero" fill-opacity="1" /><path clip-path="url(#clip110)" d="M46.0847 888.244 Q46.0847 895.341 47.7079 898.079 Q49.3312 900.816 53.2461 900.816 Q56.3653 900.816 58.2114 898.779 Q60.0256 896.71 60.0256 893.177 Q60.0256 888.307 56.5881 885.379 Q53.1188 882.419 47.3897 882.419 L46.0847 882.419 L46.0847 888.244 M43.6657 876.562 L64.0042 876.562 L64.0042 882.419 L58.5933 882.419 Q61.8398 884.424 63.3994 887.416 Q64.9272 890.408 64.9272 894.737 Q64.9272 900.211 61.8716 903.458 Q58.7843 906.672 53.6281 906.672 Q47.6125 906.672 44.5569 902.662 Q41.5014 898.62 41.5014 890.631 L41.5014 882.419 L40.9285 882.419 Q36.8862 882.419 34.6901 885.093 Q32.4621 887.734 32.4621 892.54 Q32.4621 895.596 33.1941 898.492 Q33.9262 901.389 35.3903 904.062 L29.9795 904.062 Q28.7381 900.848 28.1334 897.824 Q27.4968 894.8 27.4968 891.936 Q27.4968 884.201 31.5072 880.382 Q35.5176 876.562 43.6657 876.562 Z" fill="#000000" fill-rule="nonzero" fill-opacity="1" /><path clip-path="url(#clip110)" d="M29.7248 838.846 L35.1993 838.846 Q33.8307 841.328 33.1623 843.843 Q32.4621 846.325 32.4621 848.872 Q32.4621 854.569 36.0905 857.72 Q39.6872 860.871 46.212 860.871 Q52.7369 860.871 56.3653 857.72 Q59.9619 854.569 59.9619 848.872 Q59.9619 846.325 59.2935 843.843 Q58.5933 841.328 57.2247 838.846 L62.6355 838.846 Q63.7814 841.296 64.3543 843.938 Q64.9272 846.548 64.9272 849.508 Q64.9272 857.561 59.8664 862.303 Q54.8057 867.046 46.212 867.046 Q37.491 867.046 32.4939 862.271 Q27.4968 857.465 27.4968 849.126 Q27.4968 846.421 28.0697 843.843 Q28.6108 841.265 29.7248 838.846 Z" fill="#000000" fill-rule="nonzero" fill-opacity="1" /><path clip-path="url(#clip110)" d="M29.7248 803.007 L35.1993 803.007 Q33.8307 805.489 33.1623 808.004 Q32.4621 810.486 32.4621 813.033 Q32.4621 818.73 36.0905 821.881 Q39.6872 825.032 46.212 825.032 Q52.7369 825.032 56.3653 821.881 Q59.9619 818.73 59.9619 813.033 Q59.9619 810.486 59.2935 808.004 Q58.5933 805.489 57.2247 803.007 L62.6355 803.007 Q63.7814 805.458 64.3543 808.099 Q64.9272 810.709 64.9272 813.669 Q64.9272 821.722 59.8664 826.464 Q54.8057 831.207 46.212 831.207 Q37.491 831.207 32.4939 826.433 Q27.4968 821.626 27.4968 813.287 Q27.4968 810.582 28.0697 808.004 Q28.6108 805.426 29.7248 803.007 Z" fill="#000000" fill-rule="nonzero" fill-opacity="1" /><path clip-path="url(#clip110)" d="M55.9197 791.994 L55.9197 785.278 L64.0042 785.278 L64.0042 791.994 L55.9197 791.994 Z" fill="#000000" fill-rule="nonzero" fill-opacity="1" /><path clip-path="url(#clip110)" d="M33.8307 730.724 Q33.2578 731.711 33.0032 732.888 Q32.7167 734.034 32.7167 735.435 Q32.7167 740.4 35.9632 743.074 Q39.1779 745.715 45.2253 745.715 L64.0042 745.715 L64.0042 751.604 L28.3562 751.604 L28.3562 745.715 L33.8944 745.715 Q30.6479 743.869 29.0883 740.909 Q27.4968 737.949 27.4968 733.716 Q27.4968 733.111 27.5923 732.379 Q27.656 731.647 27.8151 730.756 L33.8307 730.724 Z" fill="#000000" fill-rule="nonzero" fill-opacity="1" /><path clip-path="url(#clip110)" d="M44.7161 695.522 L47.5806 695.522 L47.5806 722.449 Q53.6281 722.067 56.8109 718.82 Q59.9619 715.542 59.9619 709.717 Q59.9619 706.343 59.1344 703.192 Q58.3069 700.01 56.6518 696.89 L62.1899 696.89 Q63.5267 700.041 64.227 703.352 Q64.9272 706.662 64.9272 710.067 Q64.9272 718.597 59.9619 723.595 Q54.9967 728.56 46.5303 728.56 Q37.7774 728.56 32.6531 723.849 Q27.4968 719.107 27.4968 711.086 Q27.4968 703.893 32.1438 699.723 Q36.7589 695.522 44.7161 695.522 M42.9973 701.378 Q38.1912 701.442 35.3266 704.084 Q32.4621 706.694 32.4621 711.022 Q32.4621 715.924 35.2312 718.884 Q38.0002 721.812 43.0292 722.258 L42.9973 701.378 Z" fill="#000000" fill-rule="nonzero" fill-opacity="1" /><path clip-path="url(#clip110)" d="M18.2347 680.117 L28.3562 680.117 L28.3562 668.054 L32.9077 668.054 L32.9077 680.117 L52.2594 680.117 Q56.6199 680.117 57.8613 678.939 Q59.1026 677.73 59.1026 674.069 L59.1026 668.054 L64.0042 668.054 L64.0042 674.069 Q64.0042 680.849 61.4897 683.427 Q58.9434 686.005 52.2594 686.005 L32.9077 686.005 L32.9077 690.302 L28.3562 690.302 L28.3562 686.005 L18.2347 686.005 L18.2347 680.117 Z" fill="#000000" fill-rule="nonzero" fill-opacity="1" /><path clip-path="url(#clip110)" d="M49.9359 660.956 L28.3562 660.956 L28.3562 655.1 L49.7131 655.1 Q54.7739 655.1 57.3202 653.126 Q59.8346 651.153 59.8346 647.206 Q59.8346 642.464 56.8109 639.726 Q53.7872 636.957 48.5673 636.957 L28.3562 636.957 L28.3562 631.101 L64.0042 631.101 L64.0042 636.957 L58.5296 636.957 Q61.7762 639.09 63.3676 641.923 Q64.9272 644.723 64.9272 648.447 Q64.9272 654.59 61.1078 657.773 Q57.2883 660.956 49.9359 660.956 M27.4968 646.219 L27.4968 646.219 Z" fill="#000000" fill-rule="nonzero" fill-opacity="1" /><path clip-path="url(#clip110)" d="M33.8307 598.381 Q33.2578 599.368 33.0032 600.545 Q32.7167 601.691 32.7167 603.092 Q32.7167 608.057 35.9632 610.731 Q39.1779 613.372 45.2253 613.372 L64.0042 613.372 L64.0042 619.261 L28.3562 619.261 L28.3562 613.372 L33.8944 613.372 Q30.6479 611.526 29.0883 608.566 Q27.4968 605.606 27.4968 601.373 Q27.4968 600.768 27.5923 600.036 Q27.656 599.304 27.8151 598.413 L33.8307 598.381 Z" fill="#000000" fill-rule="nonzero" fill-opacity="1" /><path clip-path="url(#clip110)" d="M42.4881 563.752 L64.0042 563.752 L64.0042 569.608 L42.679 569.608 Q37.6183 569.608 35.1038 571.581 Q32.5894 573.555 32.5894 577.502 Q32.5894 582.244 35.6131 584.981 Q38.6368 587.719 43.8567 587.719 L64.0042 587.719 L64.0042 593.607 L28.3562 593.607 L28.3562 587.719 L33.8944 587.719 Q30.6797 585.618 29.0883 582.785 Q27.4968 579.921 27.4968 576.197 Q27.4968 570.054 31.3163 566.903 Q35.1038 563.752 42.4881 563.752 Z" fill="#000000" fill-rule="nonzero" fill-opacity="1" /><polyline clip-path="url(#clip112)" style="stroke:#009af9; stroke-linecap:round; stroke-linejoin:round; stroke-width:12; stroke-opacity:1; fill:none" points="307.043,1384.24 312.701,1251.6 318.36,1154.09 324.018,999.138 329.677,991.294 346.652,970.31 352.311,810.255 357.969,813.063 363.627,758.674 369.286,848.99 391.92,763.014 397.578,789.52 403.237,806.722 408.895,788.683 425.871,798.829 431.529,663.038 437.188,892.53 442.846,918.181 448.505,1019.36 465.48,894.771 471.139,877.162 476.797,765.297 482.456,710.94 488.114,586.699 505.09,375.828 510.748,321.936 516.407,312.049 522.065,398.484 527.724,308.606 550.358,310.091 556.016,376.87 561.675,558.834 567.333,410.113 584.309,542.476 589.967,669.267 595.626,527.873 601.284,776.195 606.942,782.29 623.918,590.334 629.576,525.041 635.235,689.722 640.893,826.673 646.552,849.899 663.527,890.192 669.186,709.117 674.844,715.538 680.503,540.455 686.161,445.756 702.901,365.025 708.559,470.392 714.218,434.127 719.876,647.206 725.535,592.1 742.51,523.213 748.169,681.862 753.827,815.792 759.486,709.904 765.144,625.413 782.12,739.935 787.778,657.842 793.437,634.513 799.095,575.642 821.729,574.299 827.388,585.389 833.046,650.619 838.705,655.077 844.363,667.869 861.339,716.48 866.997,725.706 872.656,716.502 878.314,717.277 883.973,714.264 900.948,797.824 906.607,858.671 912.265,740.57 917.924,779.729 923.582,696.623 940.558,648.548 946.216,648.114 951.875,604.02 957.533,635.108 963.191,687.566 980.167,660.727 985.825,744.199 991.484,750.197 997.142,777.605 1002.8,691.982 1019.78,786.161 1025.43,764.725 1031.09,940.221 1036.75,927.824 1042.41,801.722 1059.39,719.549 1065.04,743.996 1070.7,767.17 1076.36,695.165 1082.02,696.585 1099,674.642 1104.65,696.571 1110.31,619.697 1115.97,560.392 1121.63,542.122 1144.26,453.517 1149.92,421.922 1155.58,456.175 1161.24,365.066 1178.21,297.753 1183.87,268.467 1189.53,326.647 1195.19,316.135 1200.85,309.639 1217.82,362.596 1223.48,400.617 1229.14,409.184 1234.8,481.256 1240.46,567.418 1257.43,488.984 1263.09,456.562 1268.75,416.104 1274.41,394.568 1280.07,412.569 1297.04,404.77 1302.7,465.876 1308.36,468.504 1314.02,413.809 1319.68,433.005 1342.31,519.092 1347.97,569.583 1353.63,622.03 1359.29,512.141 1376.26,534.335 1381.92,622.058 1387.58,685.746 1393.24,731.879 1398.9,833.707 1415.87,868.679 1421.53,781.293 1427.19,670.351 1432.85,714.341 1438.5,728.634 1455.48,707.846 1461.14,762.292 1466.8,692.337 1472.46,660.532 1478.11,712.463 1495.09,719.153 1500.75,677.263 1506.41,727.229 1512.06,672.304 1517.72,697.492 1534.7,660.832 1540.36,653.943 1546.02,669.133 1551.67,693.51 1557.33,738.345 1574.31,777.04 1579.97,841.409 1585.63,905.223 1591.28,970.724 1596.94,845.28 1613.92,735.038 1619.58,670.334 1625.23,619.307 1630.89,670.016 1636.55,552.274 1653.53,589.574 1659.19,575.606 1664.84,572.139 1670.5,514.969 1676.16,552.2 1698.79,594.96 1704.45,659.733 1710.11,654.103 1715.77,663.316 1732.75,642.551 1738.4,698.195 1744.06,672.806 1749.72,693.433 1755.38,734.499 1772.36,888.289 1778.01,865.579 1783.67,799.815 1789.33,687.58 1794.99,718.068 1811.96,618.419 1817.62,727.419 1823.28,746.79 1828.94,759.208 1834.6,697.263 1851.57,760.881 1857.23,731.476 1862.89,781.348 1868.55,717.464 1874.21,715.523 1891.18,707.054 1896.84,626.68 1902.5,565.656 1908.16,493.5 1913.82,514.745 1930.79,463.407 1936.45,430.119 1942.11,403.105 1947.77,422.697 1953.43,421.359 1970.4,346.918 1976.06,335.918 1981.72,414.683 1987.38,307.092 1993.04,329.39 2010.01,207.601 2015.67,231.958 2021.33,153.919 2026.99,121.387 2032.65,103.684 2049.86,86.1857 2055.52,279.06 2061.17,355.548 2066.83,260.915 2072.49,282.789 2089.47,295.356 2095.12,292.792 2100.78,344.014 2106.44,330.646 2112.1,325.44 2129.08,339.852 2134.73,326.847 2140.39,277.016 2151.71,450.988 2168.69,373.264 2174.34,503.034 2180,642.763 2185.66,556.803 2191.32,665.81 2208.29,625.451 2213.95,431.925 2219.61,424.302 2225.27,558.033 2230.93,555.418 2247.9,681.05 2253.56,745.686 2259.22,647.647 2264.88,714.189 2270.54,740.143 2287.51,838.958 2293.17,672.197 "/>
<path clip-path="url(#clip110)" d="M1545.85 1377.32 L2282.58 1377.32 L2282.58 1273.64 L1545.85 1273.64  Z" fill="#ffffff" fill-rule="evenodd" fill-opacity="1"/>
<polyline clip-path="url(#clip110)" style="stroke:#000000; stroke-linecap:round; stroke-linejoin:round; stroke-width:4; stroke-opacity:1; fill:none" points="1545.85,1377.32 2282.58,1377.32 2282.58,1273.64 1545.85,1273.64 1545.85,1377.32 "/>
<polyline clip-path="url(#clip110)" style="stroke:#009af9; stroke-linecap:round; stroke-linejoin:round; stroke-width:12; stroke-opacity:1; fill:none" points="1569.24,1325.48 1709.59,1325.48 "/>
<path clip-path="url(#clip110)" d="M1732.99 1308.2 L1754.84 1308.2 L1754.84 1312.13 L1737.66 1312.13 L1737.66 1322.36 L1754.12 1322.36 L1754.12 1326.3 L1737.66 1326.3 L1737.66 1338.82 L1755.25 1338.82 L1755.25 1342.76 L1732.99 1342.76 L1732.99 1308.2 Z" fill="#000000" fill-rule="nonzero" fill-opacity="1" /><path clip-path="url(#clip110)" d="M1765.3 1329.82 Q1765.3 1334.51 1767.22 1337.2 Q1769.17 1339.86 1772.55 1339.86 Q1775.93 1339.86 1777.87 1337.2 Q1779.81 1334.51 1779.81 1329.82 Q1779.81 1325.12 1777.87 1322.45 Q1775.93 1319.77 1772.55 1319.77 Q1769.17 1319.77 1767.22 1322.45 Q1765.3 1325.12 1765.3 1329.82 M1779.81 1338.87 Q1778.47 1341.18 1776.41 1342.32 Q1774.37 1343.43 1771.5 1343.43 Q1766.81 1343.43 1763.84 1339.68 Q1760.9 1335.93 1760.9 1329.82 Q1760.9 1323.7 1763.84 1319.95 Q1766.81 1316.2 1771.5 1316.2 Q1774.37 1316.2 1776.41 1317.34 Q1778.47 1318.45 1779.81 1320.76 L1779.81 1316.83 L1784.07 1316.83 L1784.07 1352.62 L1779.81 1352.62 L1779.81 1338.87 Z" fill="#000000" fill-rule="nonzero" fill-opacity="1" /><path clip-path="url(#clip110)" d="M1792.41 1332.52 L1792.41 1316.83 L1796.67 1316.83 L1796.67 1332.36 Q1796.67 1336.04 1798.1 1337.89 Q1799.54 1339.72 1802.41 1339.72 Q1805.86 1339.72 1807.85 1337.52 Q1809.86 1335.32 1809.86 1331.53 L1809.86 1316.83 L1814.12 1316.83 L1814.12 1342.76 L1809.86 1342.76 L1809.86 1338.77 Q1808.31 1341.13 1806.25 1342.29 Q1804.21 1343.43 1801.5 1343.43 Q1797.04 1343.43 1794.72 1340.65 Q1792.41 1337.87 1792.41 1332.52 M1803.12 1316.2 L1803.12 1316.2 Z" fill="#000000" fill-rule="nonzero" fill-opacity="1" /><path clip-path="url(#clip110)" d="M1822.89 1316.83 L1827.15 1316.83 L1827.15 1342.76 L1822.89 1342.76 L1822.89 1316.83 M1822.89 1306.74 L1827.15 1306.74 L1827.15 1312.13 L1822.89 1312.13 L1822.89 1306.74 Z" fill="#000000" fill-rule="nonzero" fill-opacity="1" /><path clip-path="url(#clip110)" d="M1840.28 1309.47 L1840.28 1316.83 L1849.05 1316.83 L1849.05 1320.14 L1840.28 1320.14 L1840.28 1334.21 Q1840.28 1337.38 1841.13 1338.29 Q1842.01 1339.19 1844.68 1339.19 L1849.05 1339.19 L1849.05 1342.76 L1844.68 1342.76 Q1839.74 1342.76 1837.87 1340.93 Q1835.99 1339.07 1835.99 1334.21 L1835.99 1320.14 L1832.87 1320.14 L1832.87 1316.83 L1835.99 1316.83 L1835.99 1309.47 L1840.28 1309.47 Z" fill="#000000" fill-rule="nonzero" fill-opacity="1" /><path clip-path="url(#clip110)" d="M1866.43 1329.72 Q1861.27 1329.72 1859.28 1330.9 Q1857.29 1332.08 1857.29 1334.93 Q1857.29 1337.2 1858.77 1338.54 Q1860.28 1339.86 1862.85 1339.86 Q1866.39 1339.86 1868.52 1337.36 Q1870.67 1334.84 1870.67 1330.67 L1870.67 1329.72 L1866.43 1329.72 M1874.93 1327.96 L1874.93 1342.76 L1870.67 1342.76 L1870.67 1338.82 Q1869.21 1341.18 1867.04 1342.32 Q1864.86 1343.43 1861.71 1343.43 Q1857.73 1343.43 1855.37 1341.2 Q1853.03 1338.96 1853.03 1335.21 Q1853.03 1330.83 1855.95 1328.61 Q1858.89 1326.39 1864.7 1326.39 L1870.67 1326.39 L1870.67 1325.97 Q1870.67 1323.03 1868.73 1321.44 Q1866.8 1319.82 1863.31 1319.82 Q1861.09 1319.82 1858.98 1320.35 Q1856.87 1320.88 1854.93 1321.95 L1854.93 1318.01 Q1857.27 1317.11 1859.47 1316.67 Q1861.67 1316.2 1863.75 1316.2 Q1869.37 1316.2 1872.15 1319.12 Q1874.93 1322.04 1874.93 1327.96 Z" fill="#000000" fill-rule="nonzero" fill-opacity="1" /><path clip-path="url(#clip110)" d="M1902.31 1329.82 Q1902.31 1325.12 1900.37 1322.45 Q1898.45 1319.77 1895.07 1319.77 Q1891.69 1319.77 1889.74 1322.45 Q1887.82 1325.12 1887.82 1329.82 Q1887.82 1334.51 1889.74 1337.2 Q1891.69 1339.86 1895.07 1339.86 Q1898.45 1339.86 1900.37 1337.2 Q1902.31 1334.51 1902.31 1329.82 M1887.82 1320.76 Q1889.17 1318.45 1891.2 1317.34 Q1893.26 1316.2 1896.11 1316.2 Q1900.83 1316.2 1903.77 1319.95 Q1906.74 1323.7 1906.74 1329.82 Q1906.74 1335.93 1903.77 1339.68 Q1900.83 1343.43 1896.11 1343.43 Q1893.26 1343.43 1891.2 1342.32 Q1889.17 1341.18 1887.82 1338.87 L1887.82 1342.76 L1883.54 1342.76 L1883.54 1306.74 L1887.82 1306.74 L1887.82 1320.76 Z" fill="#000000" fill-rule="nonzero" fill-opacity="1" /><path clip-path="url(#clip110)" d="M1913.8 1306.74 L1918.05 1306.74 L1918.05 1342.76 L1913.8 1342.76 L1913.8 1306.74 Z" fill="#000000" fill-rule="nonzero" fill-opacity="1" /><path clip-path="url(#clip110)" d="M1949.14 1328.73 L1949.14 1330.81 L1929.56 1330.81 Q1929.84 1335.21 1932.2 1337.52 Q1934.58 1339.82 1938.82 1339.82 Q1941.27 1339.82 1943.56 1339.21 Q1945.88 1338.61 1948.15 1337.41 L1948.15 1341.44 Q1945.86 1342.41 1943.45 1342.92 Q1941.04 1343.43 1938.56 1343.43 Q1932.36 1343.43 1928.73 1339.82 Q1925.11 1336.2 1925.11 1330.05 Q1925.11 1323.68 1928.54 1319.95 Q1931.99 1316.2 1937.82 1316.2 Q1943.05 1316.2 1946.09 1319.58 Q1949.14 1322.94 1949.14 1328.73 M1944.88 1327.48 Q1944.84 1323.98 1942.92 1321.9 Q1941.02 1319.82 1937.87 1319.82 Q1934.3 1319.82 1932.15 1321.83 Q1930.02 1323.84 1929.7 1327.5 L1944.88 1327.48 Z" fill="#000000" fill-rule="nonzero" fill-opacity="1" /><path clip-path="url(#clip110)" d="M1988.26 1320.76 L1988.26 1306.74 L1992.52 1306.74 L1992.52 1342.76 L1988.26 1342.76 L1988.26 1338.87 Q1986.92 1341.18 1984.86 1342.32 Q1982.82 1343.43 1979.95 1343.43 Q1975.25 1343.43 1972.29 1339.68 Q1969.35 1335.93 1969.35 1329.82 Q1969.35 1323.7 1972.29 1319.95 Q1975.25 1316.2 1979.95 1316.2 Q1982.82 1316.2 1984.86 1317.34 Q1986.92 1318.45 1988.26 1320.76 M1973.75 1329.82 Q1973.75 1334.51 1975.67 1337.2 Q1977.61 1339.86 1980.99 1339.86 Q1984.37 1339.86 1986.32 1337.2 Q1988.26 1334.51 1988.26 1329.82 Q1988.26 1325.12 1986.32 1322.45 Q1984.37 1319.77 1980.99 1319.77 Q1977.61 1319.77 1975.67 1322.45 Q1973.75 1325.12 1973.75 1329.82 Z" fill="#000000" fill-rule="nonzero" fill-opacity="1" /><path clip-path="url(#clip110)" d="M2001.3 1316.83 L2005.55 1316.83 L2005.55 1342.76 L2001.3 1342.76 L2001.3 1316.83 M2001.3 1306.74 L2005.55 1306.74 L2005.55 1312.13 L2001.3 1312.13 L2001.3 1306.74 Z" fill="#000000" fill-rule="nonzero" fill-opacity="1" /><path clip-path="url(#clip110)" d="M2030.99 1317.59 L2030.99 1321.62 Q2029.19 1320.7 2027.24 1320.23 Q2025.3 1319.77 2023.22 1319.77 Q2020.04 1319.77 2018.45 1320.74 Q2016.87 1321.71 2016.87 1323.66 Q2016.87 1325.14 2018.01 1326 Q2019.14 1326.83 2022.57 1327.59 L2024.03 1327.92 Q2028.56 1328.89 2030.46 1330.67 Q2032.38 1332.43 2032.38 1335.6 Q2032.38 1339.21 2029.51 1341.32 Q2026.67 1343.43 2021.67 1343.43 Q2019.58 1343.43 2017.31 1343.01 Q2015.07 1342.62 2012.57 1341.81 L2012.57 1337.41 Q2014.93 1338.63 2017.22 1339.26 Q2019.51 1339.86 2021.76 1339.86 Q2024.77 1339.86 2026.39 1338.84 Q2028.01 1337.8 2028.01 1335.93 Q2028.01 1334.19 2026.83 1333.26 Q2025.67 1332.34 2021.71 1331.48 L2020.23 1331.14 Q2016.27 1330.3 2014.51 1328.59 Q2012.75 1326.85 2012.75 1323.84 Q2012.75 1320.19 2015.35 1318.2 Q2017.94 1316.2 2022.71 1316.2 Q2025.07 1316.2 2027.15 1316.55 Q2029.23 1316.9 2030.99 1317.59 Z" fill="#000000" fill-rule="nonzero" fill-opacity="1" /><path clip-path="url(#clip110)" d="M2043.38 1309.47 L2043.38 1316.83 L2052.15 1316.83 L2052.15 1320.14 L2043.38 1320.14 L2043.38 1334.21 Q2043.38 1337.38 2044.23 1338.29 Q2045.11 1339.19 2047.78 1339.19 L2052.15 1339.19 L2052.15 1342.76 L2047.78 1342.76 Q2042.85 1342.76 2040.97 1340.93 Q2039.1 1339.07 2039.1 1334.21 L2039.1 1320.14 L2035.97 1320.14 L2035.97 1316.83 L2039.1 1316.83 L2039.1 1309.47 L2043.38 1309.47 Z" fill="#000000" fill-rule="nonzero" fill-opacity="1" /><path clip-path="url(#clip110)" d="M2072.78 1320.81 Q2072.06 1320.39 2071.2 1320.21 Q2070.37 1320 2069.35 1320 Q2065.74 1320 2063.79 1322.36 Q2061.87 1324.7 2061.87 1329.1 L2061.87 1342.76 L2057.59 1342.76 L2057.59 1316.83 L2061.87 1316.83 L2061.87 1320.86 Q2063.22 1318.5 2065.37 1317.36 Q2067.52 1316.2 2070.6 1316.2 Q2071.04 1316.2 2071.57 1316.27 Q2072.1 1316.32 2072.75 1316.44 L2072.78 1320.81 Z" fill="#000000" fill-rule="nonzero" fill-opacity="1" /><path clip-path="url(#clip110)" d="M2077.24 1316.83 L2081.5 1316.83 L2081.5 1342.76 L2077.24 1342.76 L2077.24 1316.83 M2077.24 1306.74 L2081.5 1306.74 L2081.5 1312.13 L2077.24 1312.13 L2077.24 1306.74 Z" fill="#000000" fill-rule="nonzero" fill-opacity="1" /><path clip-path="url(#clip110)" d="M2109.03 1329.82 Q2109.03 1325.12 2107.08 1322.45 Q2105.16 1319.77 2101.78 1319.77 Q2098.4 1319.77 2096.46 1322.45 Q2094.54 1325.12 2094.54 1329.82 Q2094.54 1334.51 2096.46 1337.2 Q2098.4 1339.86 2101.78 1339.86 Q2105.16 1339.86 2107.08 1337.2 Q2109.03 1334.51 2109.03 1329.82 M2094.54 1320.76 Q2095.88 1318.45 2097.91 1317.34 Q2099.98 1316.2 2102.82 1316.2 Q2107.54 1316.2 2110.48 1319.95 Q2113.45 1323.7 2113.45 1329.82 Q2113.45 1335.93 2110.48 1339.68 Q2107.54 1343.43 2102.82 1343.43 Q2099.98 1343.43 2097.91 1342.32 Q2095.88 1341.18 2094.54 1338.87 L2094.54 1342.76 L2090.25 1342.76 L2090.25 1306.74 L2094.54 1306.74 L2094.54 1320.76 Z" fill="#000000" fill-rule="nonzero" fill-opacity="1" /><path clip-path="url(#clip110)" d="M2120.07 1332.52 L2120.07 1316.83 L2124.33 1316.83 L2124.33 1332.36 Q2124.33 1336.04 2125.76 1337.89 Q2127.2 1339.72 2130.07 1339.72 Q2133.52 1339.72 2135.51 1337.52 Q2137.52 1335.32 2137.52 1331.53 L2137.52 1316.83 L2141.78 1316.83 L2141.78 1342.76 L2137.52 1342.76 L2137.52 1338.77 Q2135.97 1341.13 2133.91 1342.29 Q2131.87 1343.43 2129.16 1343.43 Q2124.7 1343.43 2122.38 1340.65 Q2120.07 1337.87 2120.07 1332.52 M2130.79 1316.2 L2130.79 1316.2 Z" fill="#000000" fill-rule="nonzero" fill-opacity="1" /><path clip-path="url(#clip110)" d="M2154.77 1309.47 L2154.77 1316.83 L2163.54 1316.83 L2163.54 1320.14 L2154.77 1320.14 L2154.77 1334.21 Q2154.77 1337.38 2155.62 1338.29 Q2156.5 1339.19 2159.16 1339.19 L2163.54 1339.19 L2163.54 1342.76 L2159.16 1342.76 Q2154.23 1342.76 2152.36 1340.93 Q2150.48 1339.07 2150.48 1334.21 L2150.48 1320.14 L2147.36 1320.14 L2147.36 1316.83 L2150.48 1316.83 L2150.48 1309.47 L2154.77 1309.47 Z" fill="#000000" fill-rule="nonzero" fill-opacity="1" /><path clip-path="url(#clip110)" d="M2169.14 1316.83 L2173.4 1316.83 L2173.4 1342.76 L2169.14 1342.76 L2169.14 1316.83 M2169.14 1306.74 L2173.4 1306.74 L2173.4 1312.13 L2169.14 1312.13 L2169.14 1306.74 Z" fill="#000000" fill-rule="nonzero" fill-opacity="1" /><path clip-path="url(#clip110)" d="M2192.36 1319.82 Q2188.93 1319.82 2186.94 1322.5 Q2184.95 1325.16 2184.95 1329.82 Q2184.95 1334.47 2186.92 1337.15 Q2188.91 1339.82 2192.36 1339.82 Q2195.76 1339.82 2197.75 1337.13 Q2199.74 1334.45 2199.74 1329.82 Q2199.74 1325.21 2197.75 1322.52 Q2195.76 1319.82 2192.36 1319.82 M2192.36 1316.2 Q2197.91 1316.2 2201.09 1319.82 Q2204.26 1323.43 2204.26 1329.82 Q2204.26 1336.18 2201.09 1339.82 Q2197.91 1343.43 2192.36 1343.43 Q2186.78 1343.43 2183.61 1339.82 Q2180.46 1336.18 2180.46 1329.82 Q2180.46 1323.43 2183.61 1319.82 Q2186.78 1316.2 2192.36 1316.2 Z" fill="#000000" fill-rule="nonzero" fill-opacity="1" /><path clip-path="url(#clip110)" d="M2232.87 1327.11 L2232.87 1342.76 L2228.61 1342.76 L2228.61 1327.25 Q2228.61 1323.57 2227.17 1321.74 Q2225.74 1319.91 2222.87 1319.91 Q2219.42 1319.91 2217.43 1322.11 Q2215.44 1324.31 2215.44 1328.1 L2215.44 1342.76 L2211.15 1342.76 L2211.15 1316.83 L2215.44 1316.83 L2215.44 1320.86 Q2216.97 1318.52 2219.03 1317.36 Q2221.11 1316.2 2223.82 1316.2 Q2228.28 1316.2 2230.58 1318.98 Q2232.87 1321.74 2232.87 1327.11 Z" fill="#000000" fill-rule="nonzero" fill-opacity="1" /><path clip-path="url(#clip110)" d="M2259.19 1313.89 L2250.88 1318.38 L2259.19 1322.89 L2257.84 1325.16 L2250.07 1320.46 L2250.07 1329.19 L2247.43 1329.19 L2247.43 1320.46 L2239.65 1325.16 L2238.31 1322.89 L2246.62 1318.38 L2238.31 1313.89 L2239.65 1311.6 L2247.43 1316.3 L2247.43 1307.57 L2250.07 1307.57 L2250.07 1316.3 L2257.84 1311.6 L2259.19 1313.89 Z" fill="#000000" fill-rule="nonzero" fill-opacity="1" /></svg>
