<?xml version="1.0" encoding="utf-8"?>
<svg xmlns="http://www.w3.org/2000/svg" xmlns:xlink="http://www.w3.org/1999/xlink" width="600" height="400" viewBox="0 0 2400 1600">
<defs>
  <clipPath id="clip950">
    <rect x="0" y="0" width="2400" height="1600"/>
  </clipPath>
</defs>
<path clip-path="url(#clip950)" d="M0 1600 L2400 1600 L2400 0 L0 0  Z" fill="#ffffff" fill-rule="evenodd" fill-opacity="1"/>
<defs>
  <clipPath id="clip951">
    <rect x="480" y="0" width="1681" height="1600"/>
  </clipPath>
</defs>
<path clip-path="url(#clip950)" d="M283.026 1423.18 L2352.76 1423.18 L2352.76 47.2441 L283.026 47.2441  Z" fill="#ffffff" fill-rule="evenodd" fill-opacity="1"/>
<defs>
  <clipPath id="clip952">
    <rect x="283" y="47" width="2071" height="1377"/>
  </clipPath>
</defs>
<polyline clip-path="url(#clip952)" style="stroke:#000000; stroke-linecap:round; stroke-linejoin:round; stroke-width:2; stroke-opacity:0.1; fill:none" points="322.48,1423.18 322.48,47.2441 "/>
<polyline clip-path="url(#clip952)" style="stroke:#000000; stroke-linecap:round; stroke-linejoin:round; stroke-width:2; stroke-opacity:0.1; fill:none" points="823.141,1423.18 823.141,47.2441 "/>
<polyline clip-path="url(#clip952)" style="stroke:#000000; stroke-linecap:round; stroke-linejoin:round; stroke-width:2; stroke-opacity:0.1; fill:none" points="1329.36,1423.18 1329.36,47.2441 "/>
<polyline clip-path="url(#clip952)" style="stroke:#000000; stroke-linecap:round; stroke-linejoin:round; stroke-width:2; stroke-opacity:0.1; fill:none" points="1841.15,1423.18 1841.15,47.2441 "/>
<polyline clip-path="url(#clip952)" style="stroke:#000000; stroke-linecap:round; stroke-linejoin:round; stroke-width:2; stroke-opacity:0.05; fill:none" points="422.613,1423.18 422.613,47.2441 "/>
<polyline clip-path="url(#clip952)" style="stroke:#000000; stroke-linecap:round; stroke-linejoin:round; stroke-width:2; stroke-opacity:0.05; fill:none" points="522.745,1423.18 522.745,47.2441 "/>
<polyline clip-path="url(#clip952)" style="stroke:#000000; stroke-linecap:round; stroke-linejoin:round; stroke-width:2; stroke-opacity:0.05; fill:none" points="622.877,1423.18 622.877,47.2441 "/>
<polyline clip-path="url(#clip952)" style="stroke:#000000; stroke-linecap:round; stroke-linejoin:round; stroke-width:2; stroke-opacity:0.05; fill:none" points="723.009,1423.18 723.009,47.2441 "/>
<polyline clip-path="url(#clip952)" style="stroke:#000000; stroke-linecap:round; stroke-linejoin:round; stroke-width:2; stroke-opacity:0.05; fill:none" points="924.386,1423.18 924.386,47.2441 "/>
<polyline clip-path="url(#clip952)" style="stroke:#000000; stroke-linecap:round; stroke-linejoin:round; stroke-width:2; stroke-opacity:0.05; fill:none" points="1025.63,1423.18 1025.63,47.2441 "/>
<polyline clip-path="url(#clip952)" style="stroke:#000000; stroke-linecap:round; stroke-linejoin:round; stroke-width:2; stroke-opacity:0.05; fill:none" points="1126.87,1423.18 1126.87,47.2441 "/>
<polyline clip-path="url(#clip952)" style="stroke:#000000; stroke-linecap:round; stroke-linejoin:round; stroke-width:2; stroke-opacity:0.05; fill:none" points="1228.12,1423.18 1228.12,47.2441 "/>
<polyline clip-path="url(#clip952)" style="stroke:#000000; stroke-linecap:round; stroke-linejoin:round; stroke-width:2; stroke-opacity:0.05; fill:none" points="1431.72,1423.18 1431.72,47.2441 "/>
<polyline clip-path="url(#clip952)" style="stroke:#000000; stroke-linecap:round; stroke-linejoin:round; stroke-width:2; stroke-opacity:0.05; fill:none" points="1534.08,1423.18 1534.08,47.2441 "/>
<polyline clip-path="url(#clip952)" style="stroke:#000000; stroke-linecap:round; stroke-linejoin:round; stroke-width:2; stroke-opacity:0.05; fill:none" points="1636.44,1423.18 1636.44,47.2441 "/>
<polyline clip-path="url(#clip952)" style="stroke:#000000; stroke-linecap:round; stroke-linejoin:round; stroke-width:2; stroke-opacity:0.05; fill:none" points="1738.79,1423.18 1738.79,47.2441 "/>
<polyline clip-path="url(#clip952)" style="stroke:#000000; stroke-linecap:round; stroke-linejoin:round; stroke-width:2; stroke-opacity:0.05; fill:none" points="1944.65,1423.18 1944.65,47.2441 "/>
<polyline clip-path="url(#clip952)" style="stroke:#000000; stroke-linecap:round; stroke-linejoin:round; stroke-width:2; stroke-opacity:0.05; fill:none" points="2048.14,1423.18 2048.14,47.2441 "/>
<polyline clip-path="url(#clip952)" style="stroke:#000000; stroke-linecap:round; stroke-linejoin:round; stroke-width:2; stroke-opacity:0.05; fill:none" points="2151.63,1423.18 2151.63,47.2441 "/>
<polyline clip-path="url(#clip952)" style="stroke:#000000; stroke-linecap:round; stroke-linejoin:round; stroke-width:2; stroke-opacity:0.05; fill:none" points="2255.13,1423.18 2255.13,47.2441 "/>
<polyline clip-path="url(#clip950)" style="stroke:#000000; stroke-linecap:round; stroke-linejoin:round; stroke-width:4; stroke-opacity:1; fill:none" points="283.026,1423.18 2352.76,1423.18 "/>
<polyline clip-path="url(#clip950)" style="stroke:#000000; stroke-linecap:round; stroke-linejoin:round; stroke-width:4; stroke-opacity:1; fill:none" points="322.48,1423.18 322.48,1404.28 "/>
<polyline clip-path="url(#clip950)" style="stroke:#000000; stroke-linecap:round; stroke-linejoin:round; stroke-width:4; stroke-opacity:1; fill:none" points="823.141,1423.18 823.141,1404.28 "/>
<polyline clip-path="url(#clip950)" style="stroke:#000000; stroke-linecap:round; stroke-linejoin:round; stroke-width:4; stroke-opacity:1; fill:none" points="1329.36,1423.18 1329.36,1404.28 "/>
<polyline clip-path="url(#clip950)" style="stroke:#000000; stroke-linecap:round; stroke-linejoin:round; stroke-width:4; stroke-opacity:1; fill:none" points="1841.15,1423.18 1841.15,1404.28 "/>
<polyline clip-path="url(#clip950)" style="stroke:#000000; stroke-linecap:round; stroke-linejoin:round; stroke-width:4; stroke-opacity:1; fill:none" points="422.613,1423.18 422.613,1413.73 "/>
<polyline clip-path="url(#clip950)" style="stroke:#000000; stroke-linecap:round; stroke-linejoin:round; stroke-width:4; stroke-opacity:1; fill:none" points="522.745,1423.18 522.745,1413.73 "/>
<polyline clip-path="url(#clip950)" style="stroke:#000000; stroke-linecap:round; stroke-linejoin:round; stroke-width:4; stroke-opacity:1; fill:none" points="622.877,1423.18 622.877,1413.73 "/>
<polyline clip-path="url(#clip950)" style="stroke:#000000; stroke-linecap:round; stroke-linejoin:round; stroke-width:4; stroke-opacity:1; fill:none" points="723.009,1423.18 723.009,1413.73 "/>
<polyline clip-path="url(#clip950)" style="stroke:#000000; stroke-linecap:round; stroke-linejoin:round; stroke-width:4; stroke-opacity:1; fill:none" points="924.386,1423.18 924.386,1413.73 "/>
<polyline clip-path="url(#clip950)" style="stroke:#000000; stroke-linecap:round; stroke-linejoin:round; stroke-width:4; stroke-opacity:1; fill:none" points="1025.63,1423.18 1025.63,1413.73 "/>
<polyline clip-path="url(#clip950)" style="stroke:#000000; stroke-linecap:round; stroke-linejoin:round; stroke-width:4; stroke-opacity:1; fill:none" points="1126.87,1423.18 1126.87,1413.73 "/>
<polyline clip-path="url(#clip950)" style="stroke:#000000; stroke-linecap:round; stroke-linejoin:round; stroke-width:4; stroke-opacity:1; fill:none" points="1228.12,1423.18 1228.12,1413.73 "/>
<polyline clip-path="url(#clip950)" style="stroke:#000000; stroke-linecap:round; stroke-linejoin:round; stroke-width:4; stroke-opacity:1; fill:none" points="1431.72,1423.18 1431.72,1413.73 "/>
<polyline clip-path="url(#clip950)" style="stroke:#000000; stroke-linecap:round; stroke-linejoin:round; stroke-width:4; stroke-opacity:1; fill:none" points="1534.08,1423.18 1534.08,1413.73 "/>
<polyline clip-path="url(#clip950)" style="stroke:#000000; stroke-linecap:round; stroke-linejoin:round; stroke-width:4; stroke-opacity:1; fill:none" points="1636.44,1423.18 1636.44,1413.73 "/>
<polyline clip-path="url(#clip950)" style="stroke:#000000; stroke-linecap:round; stroke-linejoin:round; stroke-width:4; stroke-opacity:1; fill:none" points="1738.79,1423.18 1738.79,1413.73 "/>
<polyline clip-path="url(#clip950)" style="stroke:#000000; stroke-linecap:round; stroke-linejoin:round; stroke-width:4; stroke-opacity:1; fill:none" points="1944.65,1423.18 1944.65,1413.73 "/>
<polyline clip-path="url(#clip950)" style="stroke:#000000; stroke-linecap:round; stroke-linejoin:round; stroke-width:4; stroke-opacity:1; fill:none" points="2048.14,1423.18 2048.14,1413.73 "/>
<polyline clip-path="url(#clip950)" style="stroke:#000000; stroke-linecap:round; stroke-linejoin:round; stroke-width:4; stroke-opacity:1; fill:none" points="2151.63,1423.18 2151.63,1413.73 "/>
<polyline clip-path="url(#clip950)" style="stroke:#000000; stroke-linecap:round; stroke-linejoin:round; stroke-width:4; stroke-opacity:1; fill:none" points="2255.13,1423.18 2255.13,1413.73 "/>
<path clip-path="url(#clip950)" d="M194.275 1481.64 L210.594 1481.64 L210.594 1485.58 L188.65 1485.58 L188.65 1481.64 Q191.312 1478.89 195.896 1474.26 Q200.502 1469.61 201.683 1468.27 Q203.928 1465.74 204.807 1464.01 Q205.71 1462.25 205.71 1460.56 Q205.71 1457.8 203.766 1456.07 Q201.845 1454.33 198.743 1454.33 Q196.544 1454.33 194.09 1455.09 Q191.659 1455.86 188.882 1457.41 L188.882 1452.69 Q191.706 1451.55 194.159 1450.97 Q196.613 1450.39 198.65 1450.39 Q204.02 1450.39 207.215 1453.08 Q210.409 1455.77 210.409 1460.26 Q210.409 1462.39 209.599 1464.31 Q208.812 1466.2 206.706 1468.8 Q206.127 1469.47 203.025 1472.69 Q199.923 1475.88 194.275 1481.64 Z" fill="#000000" fill-rule="nonzero" fill-opacity="1" /><path clip-path="url(#clip950)" d="M230.409 1454.1 Q226.798 1454.1 224.969 1457.66 Q223.164 1461.2 223.164 1468.33 Q223.164 1475.44 224.969 1479.01 Q226.798 1482.55 230.409 1482.55 Q234.043 1482.55 235.849 1479.01 Q237.678 1475.44 237.678 1468.33 Q237.678 1461.2 235.849 1457.66 Q234.043 1454.1 230.409 1454.1 M230.409 1450.39 Q236.219 1450.39 239.275 1455 Q242.354 1459.58 242.354 1468.33 Q242.354 1477.06 239.275 1481.67 Q236.219 1486.25 230.409 1486.25 Q224.599 1486.25 221.52 1481.67 Q218.465 1477.06 218.465 1468.33 Q218.465 1459.58 221.52 1455 Q224.599 1450.39 230.409 1450.39 Z" fill="#000000" fill-rule="nonzero" fill-opacity="1" /><path clip-path="url(#clip950)" d="M254.599 1481.64 L270.918 1481.64 L270.918 1485.58 L248.974 1485.58 L248.974 1481.64 Q251.636 1478.89 256.219 1474.26 Q260.826 1469.61 262.006 1468.27 Q264.252 1465.74 265.131 1464.01 Q266.034 1462.25 266.034 1460.56 Q266.034 1457.8 264.09 1456.07 Q262.168 1454.33 259.066 1454.33 Q256.867 1454.33 254.414 1455.09 Q251.983 1455.86 249.205 1457.41 L249.205 1452.69 Q252.029 1451.55 254.483 1450.97 Q256.937 1450.39 258.974 1450.39 Q264.344 1450.39 267.539 1453.08 Q270.733 1455.77 270.733 1460.26 Q270.733 1462.39 269.923 1464.31 Q269.136 1466.2 267.029 1468.8 Q266.451 1469.47 263.349 1472.69 Q260.247 1475.88 254.599 1481.64 Z" fill="#000000" fill-rule="nonzero" fill-opacity="1" /><path clip-path="url(#clip950)" d="M281.543 1481.64 L289.182 1481.64 L289.182 1455.28 L280.872 1456.95 L280.872 1452.69 L289.136 1451.02 L293.812 1451.02 L293.812 1481.64 L301.45 1481.64 L301.45 1485.58 L281.543 1485.58 L281.543 1481.64 Z" fill="#000000" fill-rule="nonzero" fill-opacity="1" /><path clip-path="url(#clip950)" d="M308.14 1470.7 L320.617 1470.7 L320.617 1474.49 L308.14 1474.49 L308.14 1470.7 Z" fill="#000000" fill-rule="nonzero" fill-opacity="1" /><path clip-path="url(#clip950)" d="M338.001 1454.1 Q334.39 1454.1 332.561 1457.66 Q330.756 1461.2 330.756 1468.33 Q330.756 1475.44 332.561 1479.01 Q334.39 1482.55 338.001 1482.55 Q341.635 1482.55 343.441 1479.01 Q345.27 1475.44 345.27 1468.33 Q345.27 1461.2 343.441 1457.66 Q341.635 1454.1 338.001 1454.1 M338.001 1450.39 Q343.811 1450.39 346.867 1455 Q349.946 1459.58 349.946 1468.33 Q349.946 1477.06 346.867 1481.67 Q343.811 1486.25 338.001 1486.25 Q332.191 1486.25 329.112 1481.67 Q326.057 1477.06 326.057 1468.33 Q326.057 1459.58 329.112 1455 Q332.191 1450.39 338.001 1450.39 Z" fill="#000000" fill-rule="nonzero" fill-opacity="1" /><path clip-path="url(#clip950)" d="M358.973 1481.64 L366.612 1481.64 L366.612 1455.28 L358.302 1456.95 L358.302 1452.69 L366.566 1451.02 L371.242 1451.02 L371.242 1481.64 L378.881 1481.64 L378.881 1485.58 L358.973 1485.58 L358.973 1481.64 Z" fill="#000000" fill-rule="nonzero" fill-opacity="1" /><path clip-path="url(#clip950)" d="M385.57 1470.7 L398.047 1470.7 L398.047 1474.49 L385.57 1474.49 L385.57 1470.7 Z" fill="#000000" fill-rule="nonzero" fill-opacity="1" /><path clip-path="url(#clip950)" d="M415.431 1454.1 Q411.82 1454.1 409.992 1457.66 Q408.186 1461.2 408.186 1468.33 Q408.186 1475.44 409.992 1479.01 Q411.82 1482.55 415.431 1482.55 Q419.066 1482.55 420.871 1479.01 Q422.7 1475.44 422.7 1468.33 Q422.7 1461.2 420.871 1457.66 Q419.066 1454.1 415.431 1454.1 M415.431 1450.39 Q421.242 1450.39 424.297 1455 Q427.376 1459.58 427.376 1468.33 Q427.376 1477.06 424.297 1481.67 Q421.242 1486.25 415.431 1486.25 Q409.621 1486.25 406.543 1481.67 Q403.487 1477.06 403.487 1468.33 Q403.487 1459.58 406.543 1455 Q409.621 1450.39 415.431 1450.39 Z" fill="#000000" fill-rule="nonzero" fill-opacity="1" /><path clip-path="url(#clip950)" d="M436.403 1481.64 L444.042 1481.64 L444.042 1455.28 L435.732 1456.95 L435.732 1452.69 L443.996 1451.02 L448.672 1451.02 L448.672 1481.64 L456.311 1481.64 L456.311 1485.58 L436.403 1485.58 L436.403 1481.64 Z" fill="#000000" fill-rule="nonzero" fill-opacity="1" /><path clip-path="url(#clip950)" d="M694.936 1481.64 L711.255 1481.64 L711.255 1485.58 L689.311 1485.58 L689.311 1481.64 Q691.973 1478.89 696.556 1474.26 Q701.162 1469.61 702.343 1468.27 Q704.588 1465.74 705.468 1464.01 Q706.371 1462.25 706.371 1460.56 Q706.371 1457.8 704.426 1456.07 Q702.505 1454.33 699.403 1454.33 Q697.204 1454.33 694.75 1455.09 Q692.32 1455.86 689.542 1457.41 L689.542 1452.69 Q692.366 1451.55 694.82 1450.97 Q697.274 1450.39 699.311 1450.39 Q704.681 1450.39 707.875 1453.08 Q711.07 1455.77 711.07 1460.26 Q711.07 1462.39 710.26 1464.31 Q709.473 1466.2 707.366 1468.8 Q706.787 1469.47 703.686 1472.69 Q700.584 1475.88 694.936 1481.64 Z" fill="#000000" fill-rule="nonzero" fill-opacity="1" /><path clip-path="url(#clip950)" d="M731.07 1454.1 Q727.459 1454.1 725.63 1457.66 Q723.824 1461.2 723.824 1468.33 Q723.824 1475.44 725.63 1479.01 Q727.459 1482.55 731.07 1482.55 Q734.704 1482.55 736.509 1479.01 Q738.338 1475.44 738.338 1468.33 Q738.338 1461.2 736.509 1457.66 Q734.704 1454.1 731.07 1454.1 M731.07 1450.39 Q736.88 1450.39 739.935 1455 Q743.014 1459.58 743.014 1468.33 Q743.014 1477.06 739.935 1481.67 Q736.88 1486.25 731.07 1486.25 Q725.259 1486.25 722.181 1481.67 Q719.125 1477.06 719.125 1468.33 Q719.125 1459.58 722.181 1455 Q725.259 1450.39 731.07 1450.39 Z" fill="#000000" fill-rule="nonzero" fill-opacity="1" /><path clip-path="url(#clip950)" d="M755.259 1481.64 L771.579 1481.64 L771.579 1485.58 L749.634 1485.58 L749.634 1481.64 Q752.296 1478.89 756.88 1474.26 Q761.486 1469.61 762.667 1468.27 Q764.912 1465.74 765.792 1464.01 Q766.694 1462.25 766.694 1460.56 Q766.694 1457.8 764.75 1456.07 Q762.829 1454.33 759.727 1454.33 Q757.528 1454.33 755.074 1455.09 Q752.644 1455.86 749.866 1457.41 L749.866 1452.69 Q752.69 1451.55 755.144 1450.97 Q757.597 1450.39 759.634 1450.39 Q765.005 1450.39 768.199 1453.08 Q771.394 1455.77 771.394 1460.26 Q771.394 1462.39 770.583 1464.31 Q769.796 1466.2 767.69 1468.8 Q767.111 1469.47 764.009 1472.69 Q760.907 1475.88 755.259 1481.64 Z" fill="#000000" fill-rule="nonzero" fill-opacity="1" /><path clip-path="url(#clip950)" d="M782.204 1481.64 L789.842 1481.64 L789.842 1455.28 L781.532 1456.95 L781.532 1452.69 L789.796 1451.02 L794.472 1451.02 L794.472 1481.64 L802.111 1481.64 L802.111 1485.58 L782.204 1485.58 L782.204 1481.64 Z" fill="#000000" fill-rule="nonzero" fill-opacity="1" /><path clip-path="url(#clip950)" d="M808.801 1470.7 L821.277 1470.7 L821.277 1474.49 L808.801 1474.49 L808.801 1470.7 Z" fill="#000000" fill-rule="nonzero" fill-opacity="1" /><path clip-path="url(#clip950)" d="M838.662 1454.1 Q835.051 1454.1 833.222 1457.66 Q831.416 1461.2 831.416 1468.33 Q831.416 1475.44 833.222 1479.01 Q835.051 1482.55 838.662 1482.55 Q842.296 1482.55 844.101 1479.01 Q845.93 1475.44 845.93 1468.33 Q845.93 1461.2 844.101 1457.66 Q842.296 1454.1 838.662 1454.1 M838.662 1450.39 Q844.472 1450.39 847.527 1455 Q850.606 1459.58 850.606 1468.33 Q850.606 1477.06 847.527 1481.67 Q844.472 1486.25 838.662 1486.25 Q832.852 1486.25 829.773 1481.67 Q826.717 1477.06 826.717 1468.33 Q826.717 1459.58 829.773 1455 Q832.852 1450.39 838.662 1450.39 Z" fill="#000000" fill-rule="nonzero" fill-opacity="1" /><path clip-path="url(#clip950)" d="M871.671 1455.09 L859.865 1473.54 L871.671 1473.54 L871.671 1455.09 M870.444 1451.02 L876.323 1451.02 L876.323 1473.54 L881.254 1473.54 L881.254 1477.43 L876.323 1477.43 L876.323 1485.58 L871.671 1485.58 L871.671 1477.43 L856.069 1477.43 L856.069 1472.92 L870.444 1451.02 Z" fill="#000000" fill-rule="nonzero" fill-opacity="1" /><path clip-path="url(#clip950)" d="M886.231 1470.7 L898.708 1470.7 L898.708 1474.49 L886.231 1474.49 L886.231 1470.7 Z" fill="#000000" fill-rule="nonzero" fill-opacity="1" /><path clip-path="url(#clip950)" d="M916.092 1454.1 Q912.481 1454.1 910.652 1457.66 Q908.846 1461.2 908.846 1468.33 Q908.846 1475.44 910.652 1479.01 Q912.481 1482.55 916.092 1482.55 Q919.726 1482.55 921.532 1479.01 Q923.36 1475.44 923.36 1468.33 Q923.36 1461.2 921.532 1457.66 Q919.726 1454.1 916.092 1454.1 M916.092 1450.39 Q921.902 1450.39 924.957 1455 Q928.036 1459.58 928.036 1468.33 Q928.036 1477.06 924.957 1481.67 Q921.902 1486.25 916.092 1486.25 Q910.282 1486.25 907.203 1481.67 Q904.147 1477.06 904.147 1468.33 Q904.147 1459.58 907.203 1455 Q910.282 1450.39 916.092 1450.39 Z" fill="#000000" fill-rule="nonzero" fill-opacity="1" /><path clip-path="url(#clip950)" d="M937.064 1481.64 L944.703 1481.64 L944.703 1455.28 L936.393 1456.95 L936.393 1452.69 L944.656 1451.02 L949.332 1451.02 L949.332 1481.64 L956.971 1481.64 L956.971 1485.58 L937.064 1485.58 L937.064 1481.64 Z" fill="#000000" fill-rule="nonzero" fill-opacity="1" /><path clip-path="url(#clip950)" d="M1201.16 1481.64 L1217.48 1481.64 L1217.48 1485.58 L1195.53 1485.58 L1195.53 1481.64 Q1198.2 1478.89 1202.78 1474.26 Q1207.39 1469.61 1208.57 1468.27 Q1210.81 1465.74 1211.69 1464.01 Q1212.59 1462.25 1212.59 1460.56 Q1212.59 1457.8 1210.65 1456.07 Q1208.73 1454.33 1205.63 1454.33 Q1203.43 1454.33 1200.97 1455.09 Q1198.54 1455.86 1195.77 1457.41 L1195.77 1452.69 Q1198.59 1451.55 1201.04 1450.97 Q1203.5 1450.39 1205.53 1450.39 Q1210.9 1450.39 1214.1 1453.08 Q1217.29 1455.77 1217.29 1460.26 Q1217.29 1462.39 1216.48 1464.31 Q1215.7 1466.2 1213.59 1468.8 Q1213.01 1469.47 1209.91 1472.69 Q1206.81 1475.88 1201.16 1481.64 Z" fill="#000000" fill-rule="nonzero" fill-opacity="1" /><path clip-path="url(#clip950)" d="M1237.29 1454.1 Q1233.68 1454.1 1231.85 1457.66 Q1230.05 1461.2 1230.05 1468.33 Q1230.05 1475.44 1231.85 1479.01 Q1233.68 1482.55 1237.29 1482.55 Q1240.93 1482.55 1242.73 1479.01 Q1244.56 1475.44 1244.56 1468.33 Q1244.56 1461.2 1242.73 1457.66 Q1240.93 1454.1 1237.29 1454.1 M1237.29 1450.39 Q1243.1 1450.39 1246.16 1455 Q1249.24 1459.58 1249.24 1468.33 Q1249.24 1477.06 1246.16 1481.67 Q1243.1 1486.25 1237.29 1486.25 Q1231.48 1486.25 1228.4 1481.67 Q1225.35 1477.06 1225.35 1468.33 Q1225.35 1459.58 1228.4 1455 Q1231.48 1450.39 1237.29 1450.39 Z" fill="#000000" fill-rule="nonzero" fill-opacity="1" /><path clip-path="url(#clip950)" d="M1261.48 1481.64 L1277.8 1481.64 L1277.8 1485.58 L1255.86 1485.58 L1255.86 1481.64 Q1258.52 1478.89 1263.1 1474.26 Q1267.71 1469.61 1268.89 1468.27 Q1271.14 1465.74 1272.02 1464.01 Q1272.92 1462.25 1272.92 1460.56 Q1272.92 1457.8 1270.97 1456.07 Q1269.05 1454.33 1265.95 1454.33 Q1263.75 1454.33 1261.3 1455.09 Q1258.87 1455.86 1256.09 1457.41 L1256.09 1452.69 Q1258.91 1451.55 1261.37 1450.97 Q1263.82 1450.39 1265.86 1450.39 Q1271.23 1450.39 1274.42 1453.08 Q1277.62 1455.77 1277.62 1460.26 Q1277.62 1462.39 1276.81 1464.31 Q1276.02 1466.2 1273.91 1468.8 Q1273.33 1469.47 1270.23 1472.69 Q1267.13 1475.88 1261.48 1481.64 Z" fill="#000000" fill-rule="nonzero" fill-opacity="1" /><path clip-path="url(#clip950)" d="M1288.43 1481.64 L1296.07 1481.64 L1296.07 1455.28 L1287.76 1456.95 L1287.76 1452.69 L1296.02 1451.02 L1300.7 1451.02 L1300.7 1481.64 L1308.33 1481.64 L1308.33 1485.58 L1288.43 1485.58 L1288.43 1481.64 Z" fill="#000000" fill-rule="nonzero" fill-opacity="1" /><path clip-path="url(#clip950)" d="M1315.02 1470.7 L1327.5 1470.7 L1327.5 1474.49 L1315.02 1474.49 L1315.02 1470.7 Z" fill="#000000" fill-rule="nonzero" fill-opacity="1" /><path clip-path="url(#clip950)" d="M1344.88 1454.1 Q1341.27 1454.1 1339.45 1457.66 Q1337.64 1461.2 1337.64 1468.33 Q1337.64 1475.44 1339.45 1479.01 Q1341.27 1482.55 1344.88 1482.55 Q1348.52 1482.55 1350.32 1479.01 Q1352.15 1475.44 1352.15 1468.33 Q1352.15 1461.2 1350.32 1457.66 Q1348.52 1454.1 1344.88 1454.1 M1344.88 1450.39 Q1350.7 1450.39 1353.75 1455 Q1356.83 1459.58 1356.83 1468.33 Q1356.83 1477.06 1353.75 1481.67 Q1350.7 1486.25 1344.88 1486.25 Q1339.07 1486.25 1336 1481.67 Q1332.94 1477.06 1332.94 1468.33 Q1332.94 1459.58 1336 1455 Q1339.07 1450.39 1344.88 1450.39 Z" fill="#000000" fill-rule="nonzero" fill-opacity="1" /><path clip-path="url(#clip950)" d="M1363.87 1451.02 L1386.09 1451.02 L1386.09 1453.01 L1373.54 1485.58 L1368.66 1485.58 L1380.46 1454.96 L1363.87 1454.96 L1363.87 1451.02 Z" fill="#000000" fill-rule="nonzero" fill-opacity="1" /><path clip-path="url(#clip950)" d="M1392.45 1470.7 L1404.93 1470.7 L1404.93 1474.49 L1392.45 1474.49 L1392.45 1470.7 Z" fill="#000000" fill-rule="nonzero" fill-opacity="1" /><path clip-path="url(#clip950)" d="M1422.32 1454.1 Q1418.7 1454.1 1416.88 1457.66 Q1415.07 1461.2 1415.07 1468.33 Q1415.07 1475.44 1416.88 1479.01 Q1418.7 1482.55 1422.32 1482.55 Q1425.95 1482.55 1427.75 1479.01 Q1429.58 1475.44 1429.58 1468.33 Q1429.58 1461.2 1427.75 1457.66 Q1425.95 1454.1 1422.32 1454.1 M1422.32 1450.39 Q1428.13 1450.39 1431.18 1455 Q1434.26 1459.58 1434.26 1468.33 Q1434.26 1477.06 1431.18 1481.67 Q1428.13 1486.25 1422.32 1486.25 Q1416.5 1486.25 1413.43 1481.67 Q1410.37 1477.06 1410.37 1468.33 Q1410.37 1459.58 1413.43 1455 Q1416.5 1450.39 1422.32 1450.39 Z" fill="#000000" fill-rule="nonzero" fill-opacity="1" /><path clip-path="url(#clip950)" d="M1443.29 1481.64 L1450.93 1481.64 L1450.93 1455.28 L1442.62 1456.95 L1442.62 1452.69 L1450.88 1451.02 L1455.56 1451.02 L1455.56 1481.64 L1463.19 1481.64 L1463.19 1485.58 L1443.29 1485.58 L1443.29 1481.64 Z" fill="#000000" fill-rule="nonzero" fill-opacity="1" /><path clip-path="url(#clip950)" d="M1712.95 1481.64 L1729.26 1481.64 L1729.26 1485.58 L1707.32 1485.58 L1707.32 1481.64 Q1709.98 1478.89 1714.57 1474.26 Q1719.17 1469.61 1720.35 1468.27 Q1722.6 1465.74 1723.48 1464.01 Q1724.38 1462.25 1724.38 1460.56 Q1724.38 1457.8 1722.44 1456.07 Q1720.51 1454.33 1717.41 1454.33 Q1715.21 1454.33 1712.76 1455.09 Q1710.33 1455.86 1707.55 1457.41 L1707.55 1452.69 Q1710.38 1451.55 1712.83 1450.97 Q1715.28 1450.39 1717.32 1450.39 Q1722.69 1450.39 1725.88 1453.08 Q1729.08 1455.77 1729.08 1460.26 Q1729.08 1462.39 1728.27 1464.31 Q1727.48 1466.2 1725.38 1468.8 Q1724.8 1469.47 1721.7 1472.69 Q1718.59 1475.88 1712.95 1481.64 Z" fill="#000000" fill-rule="nonzero" fill-opacity="1" /><path clip-path="url(#clip950)" d="M1749.08 1454.1 Q1745.47 1454.1 1743.64 1457.66 Q1741.83 1461.2 1741.83 1468.33 Q1741.83 1475.44 1743.64 1479.01 Q1745.47 1482.55 1749.08 1482.55 Q1752.71 1482.55 1754.52 1479.01 Q1756.35 1475.44 1756.35 1468.33 Q1756.35 1461.2 1754.52 1457.66 Q1752.71 1454.1 1749.08 1454.1 M1749.08 1450.39 Q1754.89 1450.39 1757.94 1455 Q1761.02 1459.58 1761.02 1468.33 Q1761.02 1477.06 1757.94 1481.67 Q1754.89 1486.25 1749.08 1486.25 Q1743.27 1486.25 1740.19 1481.67 Q1737.13 1477.06 1737.13 1468.33 Q1737.13 1459.58 1740.19 1455 Q1743.27 1450.39 1749.08 1450.39 Z" fill="#000000" fill-rule="nonzero" fill-opacity="1" /><path clip-path="url(#clip950)" d="M1773.27 1481.64 L1789.59 1481.64 L1789.59 1485.58 L1767.64 1485.58 L1767.64 1481.64 Q1770.31 1478.89 1774.89 1474.26 Q1779.5 1469.61 1780.68 1468.27 Q1782.92 1465.74 1783.8 1464.01 Q1784.7 1462.25 1784.7 1460.56 Q1784.7 1457.8 1782.76 1456.07 Q1780.84 1454.33 1777.74 1454.33 Q1775.54 1454.33 1773.08 1455.09 Q1770.65 1455.86 1767.88 1457.41 L1767.88 1452.69 Q1770.7 1451.55 1773.15 1450.97 Q1775.61 1450.39 1777.64 1450.39 Q1783.01 1450.39 1786.21 1453.08 Q1789.4 1455.77 1789.4 1460.26 Q1789.4 1462.39 1788.59 1464.31 Q1787.81 1466.2 1785.7 1468.8 Q1785.12 1469.47 1782.02 1472.69 Q1778.92 1475.88 1773.27 1481.64 Z" fill="#000000" fill-rule="nonzero" fill-opacity="1" /><path clip-path="url(#clip950)" d="M1800.21 1481.64 L1807.85 1481.64 L1807.85 1455.28 L1799.54 1456.95 L1799.54 1452.69 L1807.81 1451.02 L1812.48 1451.02 L1812.48 1481.64 L1820.12 1481.64 L1820.12 1485.58 L1800.21 1485.58 L1800.21 1481.64 Z" fill="#000000" fill-rule="nonzero" fill-opacity="1" /><path clip-path="url(#clip950)" d="M1826.81 1470.7 L1839.29 1470.7 L1839.29 1474.49 L1826.81 1474.49 L1826.81 1470.7 Z" fill="#000000" fill-rule="nonzero" fill-opacity="1" /><path clip-path="url(#clip950)" d="M1847.48 1481.64 L1855.12 1481.64 L1855.12 1455.28 L1846.81 1456.95 L1846.81 1452.69 L1855.07 1451.02 L1859.75 1451.02 L1859.75 1481.64 L1867.39 1481.64 L1867.39 1485.58 L1847.48 1485.58 L1847.48 1481.64 Z" fill="#000000" fill-rule="nonzero" fill-opacity="1" /><path clip-path="url(#clip950)" d="M1886.83 1454.1 Q1883.22 1454.1 1881.39 1457.66 Q1879.59 1461.2 1879.59 1468.33 Q1879.59 1475.44 1881.39 1479.01 Q1883.22 1482.55 1886.83 1482.55 Q1890.47 1482.55 1892.27 1479.01 Q1894.1 1475.44 1894.1 1468.33 Q1894.1 1461.2 1892.27 1457.66 Q1890.47 1454.1 1886.83 1454.1 M1886.83 1450.39 Q1892.64 1450.39 1895.7 1455 Q1898.78 1459.58 1898.78 1468.33 Q1898.78 1477.06 1895.7 1481.67 Q1892.64 1486.25 1886.83 1486.25 Q1881.02 1486.25 1877.94 1481.67 Q1874.89 1477.06 1874.89 1468.33 Q1874.89 1459.58 1877.94 1455 Q1881.02 1450.39 1886.83 1450.39 Z" fill="#000000" fill-rule="nonzero" fill-opacity="1" /><path clip-path="url(#clip950)" d="M1904.24 1470.7 L1916.72 1470.7 L1916.72 1474.49 L1904.24 1474.49 L1904.24 1470.7 Z" fill="#000000" fill-rule="nonzero" fill-opacity="1" /><path clip-path="url(#clip950)" d="M1934.1 1454.1 Q1930.49 1454.1 1928.66 1457.66 Q1926.86 1461.2 1926.86 1468.33 Q1926.86 1475.44 1928.66 1479.01 Q1930.49 1482.55 1934.1 1482.55 Q1937.74 1482.55 1939.54 1479.01 Q1941.37 1475.44 1941.37 1468.33 Q1941.37 1461.2 1939.54 1457.66 Q1937.74 1454.1 1934.1 1454.1 M1934.1 1450.39 Q1939.91 1450.39 1942.97 1455 Q1946.05 1459.58 1946.05 1468.33 Q1946.05 1477.06 1942.97 1481.67 Q1939.91 1486.25 1934.1 1486.25 Q1928.29 1486.25 1925.21 1481.67 Q1922.16 1477.06 1922.16 1468.33 Q1922.16 1459.58 1925.21 1455 Q1928.29 1450.39 1934.1 1450.39 Z" fill="#000000" fill-rule="nonzero" fill-opacity="1" /><path clip-path="url(#clip950)" d="M1955.07 1481.64 L1962.71 1481.64 L1962.71 1455.28 L1954.4 1456.95 L1954.4 1452.69 L1962.67 1451.02 L1967.34 1451.02 L1967.34 1481.64 L1974.98 1481.64 L1974.98 1485.58 L1955.07 1485.58 L1955.07 1481.64 Z" fill="#000000" fill-rule="nonzero" fill-opacity="1" /><path clip-path="url(#clip950)" d="M1273.94 1537.81 L1273.94 1518.52 L1279.79 1518.52 L1279.79 1568.04 L1273.94 1568.04 L1273.94 1562.7 Q1272.09 1565.88 1269.26 1567.44 Q1266.46 1568.97 1262.51 1568.97 Q1256.05 1568.97 1251.97 1563.81 Q1247.93 1558.65 1247.93 1550.25 Q1247.93 1541.85 1251.97 1536.69 Q1256.05 1531.54 1262.51 1531.54 Q1266.46 1531.54 1269.26 1533.1 Q1272.09 1534.62 1273.94 1537.81 M1253.98 1550.25 Q1253.98 1556.71 1256.62 1560.4 Q1259.29 1564.07 1263.94 1564.07 Q1268.59 1564.07 1271.26 1560.4 Q1273.94 1556.71 1273.94 1550.25 Q1273.94 1543.79 1271.26 1540.13 Q1268.59 1536.44 1263.94 1536.44 Q1259.29 1536.44 1256.62 1540.13 Q1253.98 1543.79 1253.98 1550.25 Z" fill="#000000" fill-rule="nonzero" fill-opacity="1" /><path clip-path="url(#clip950)" d="M1308.06 1550.12 Q1300.96 1550.12 1298.22 1551.75 Q1295.48 1553.37 1295.48 1557.29 Q1295.48 1560.4 1297.52 1562.25 Q1299.59 1564.07 1303.12 1564.07 Q1307.99 1564.07 1310.92 1560.63 Q1313.88 1557.16 1313.88 1551.43 L1313.88 1550.12 L1308.06 1550.12 M1319.74 1547.71 L1319.74 1568.04 L1313.88 1568.04 L1313.88 1562.63 Q1311.88 1565.88 1308.88 1567.44 Q1305.89 1568.97 1301.56 1568.97 Q1296.09 1568.97 1292.84 1565.91 Q1289.63 1562.82 1289.63 1557.67 Q1289.63 1551.65 1293.64 1548.6 Q1297.68 1545.54 1305.67 1545.54 L1313.88 1545.54 L1313.88 1544.97 Q1313.88 1540.93 1311.21 1538.73 Q1308.57 1536.5 1303.76 1536.5 Q1300.7 1536.5 1297.81 1537.23 Q1294.91 1537.97 1292.24 1539.43 L1292.24 1534.02 Q1295.45 1532.78 1298.48 1532.17 Q1301.5 1531.54 1304.36 1531.54 Q1312.1 1531.54 1315.92 1535.55 Q1319.74 1539.56 1319.74 1547.71 Z" fill="#000000" fill-rule="nonzero" fill-opacity="1" /><path clip-path="url(#clip950)" d="M1337.59 1522.27 L1337.59 1532.4 L1349.66 1532.4 L1349.66 1536.95 L1337.59 1536.95 L1337.59 1556.3 Q1337.59 1560.66 1338.77 1561.9 Q1339.98 1563.14 1343.64 1563.14 L1349.66 1563.14 L1349.66 1568.04 L1343.64 1568.04 Q1336.86 1568.04 1334.28 1565.53 Q1331.7 1562.98 1331.7 1556.3 L1331.7 1536.95 L1327.41 1536.95 L1327.41 1532.4 L1331.7 1532.4 L1331.7 1522.27 L1337.59 1522.27 Z" fill="#000000" fill-rule="nonzero" fill-opacity="1" /><path clip-path="url(#clip950)" d="M1387.85 1548.76 L1387.85 1551.62 L1360.92 1551.62 Q1361.3 1557.67 1364.55 1560.85 Q1367.83 1564 1373.65 1564 Q1377.03 1564 1380.18 1563.17 Q1383.36 1562.35 1386.48 1560.69 L1386.48 1566.23 Q1383.33 1567.57 1380.02 1568.27 Q1376.71 1568.97 1373.3 1568.97 Q1364.77 1568.97 1359.78 1564 Q1354.81 1559.04 1354.81 1550.57 Q1354.81 1541.82 1359.52 1536.69 Q1364.26 1531.54 1372.29 1531.54 Q1379.48 1531.54 1383.65 1536.18 Q1387.85 1540.8 1387.85 1548.76 M1381.99 1547.04 Q1381.93 1542.23 1379.29 1539.37 Q1376.68 1536.5 1372.35 1536.5 Q1367.45 1536.5 1364.49 1539.27 Q1361.56 1542.04 1361.11 1547.07 L1381.99 1547.04 Z" fill="#000000" fill-rule="nonzero" fill-opacity="1" /><polyline clip-path="url(#clip952)" style="stroke:#000000; stroke-linecap:round; stroke-linejoin:round; stroke-width:2; stroke-opacity:0.1; fill:none" points="283.026,1384.24 2352.76,1384.24 "/>
<polyline clip-path="url(#clip952)" style="stroke:#000000; stroke-linecap:round; stroke-linejoin:round; stroke-width:2; stroke-opacity:0.1; fill:none" points="283.026,1018.37 2352.76,1018.37 "/>
<polyline clip-path="url(#clip952)" style="stroke:#000000; stroke-linecap:round; stroke-linejoin:round; stroke-width:2; stroke-opacity:0.1; fill:none" points="283.026,652.495 2352.76,652.495 "/>
<polyline clip-path="url(#clip952)" style="stroke:#000000; stroke-linecap:round; stroke-linejoin:round; stroke-width:2; stroke-opacity:0.1; fill:none" points="283.026,286.623 2352.76,286.623 "/>
<polyline clip-path="url(#clip950)" style="stroke:#000000; stroke-linecap:round; stroke-linejoin:round; stroke-width:4; stroke-opacity:1; fill:none" points="283.026,1423.18 283.026,47.2441 "/>
<polyline clip-path="url(#clip950)" style="stroke:#000000; stroke-linecap:round; stroke-linejoin:round; stroke-width:4; stroke-opacity:1; fill:none" points="283.026,1384.24 301.923,1384.24 "/>
<polyline clip-path="url(#clip950)" style="stroke:#000000; stroke-linecap:round; stroke-linejoin:round; stroke-width:4; stroke-opacity:1; fill:none" points="283.026,1018.37 301.923,1018.37 "/>
<polyline clip-path="url(#clip950)" style="stroke:#000000; stroke-linecap:round; stroke-linejoin:round; stroke-width:4; stroke-opacity:1; fill:none" points="283.026,652.495 301.923,652.495 "/>
<polyline clip-path="url(#clip950)" style="stroke:#000000; stroke-linecap:round; stroke-linejoin:round; stroke-width:4; stroke-opacity:1; fill:none" points="283.026,286.623 301.923,286.623 "/>
<path clip-path="url(#clip950)" d="M115.063 1404.03 L122.702 1404.03 L122.702 1377.67 L114.392 1379.33 L114.392 1375.07 L122.656 1373.41 L127.332 1373.41 L127.332 1404.03 L134.97 1404.03 L134.97 1407.97 L115.063 1407.97 L115.063 1404.03 Z" fill="#000000" fill-rule="nonzero" fill-opacity="1" /><path clip-path="url(#clip950)" d="M154.415 1376.48 Q150.804 1376.48 148.975 1380.05 Q147.169 1383.59 147.169 1390.72 Q147.169 1397.83 148.975 1401.39 Q150.804 1404.93 154.415 1404.93 Q158.049 1404.93 159.855 1401.39 Q161.683 1397.83 161.683 1390.72 Q161.683 1383.59 159.855 1380.05 Q158.049 1376.48 154.415 1376.48 M154.415 1372.78 Q160.225 1372.78 163.28 1377.39 Q166.359 1381.97 166.359 1390.72 Q166.359 1399.45 163.28 1404.05 Q160.225 1408.64 154.415 1408.64 Q148.605 1408.64 145.526 1404.05 Q142.47 1399.45 142.47 1390.72 Q142.47 1381.97 145.526 1377.39 Q148.605 1372.78 154.415 1372.78 Z" fill="#000000" fill-rule="nonzero" fill-opacity="1" /><path clip-path="url(#clip950)" d="M176.064 1354.98 Q173.13 1354.98 171.644 1357.87 Q170.177 1360.75 170.177 1366.54 Q170.177 1372.32 171.644 1375.21 Q173.13 1378.09 176.064 1378.09 Q179.017 1378.09 180.484 1375.21 Q181.97 1372.32 181.97 1366.54 Q181.97 1360.75 180.484 1357.87 Q179.017 1354.98 176.064 1354.98 M176.064 1351.97 Q180.785 1351.97 183.267 1355.71 Q185.769 1359.43 185.769 1366.54 Q185.769 1373.63 183.267 1377.38 Q180.785 1381.1 176.064 1381.1 Q171.343 1381.1 168.842 1377.38 Q166.359 1373.63 166.359 1366.54 Q166.359 1359.43 168.842 1355.71 Q171.343 1351.97 176.064 1351.97 Z" fill="#000000" fill-rule="nonzero" fill-opacity="1" /><path clip-path="url(#clip950)" d="M192.446 1375.78 L196.414 1375.78 L196.414 1380.56 L192.446 1380.56 L192.446 1375.78 Z" fill="#000000" fill-rule="nonzero" fill-opacity="1" /><path clip-path="url(#clip950)" d="M212.814 1354.98 Q209.88 1354.98 208.394 1357.87 Q206.927 1360.75 206.927 1366.54 Q206.927 1372.32 208.394 1375.21 Q209.88 1378.09 212.814 1378.09 Q215.767 1378.09 217.234 1375.21 Q218.72 1372.32 218.72 1366.54 Q218.72 1360.75 217.234 1357.87 Q215.767 1354.98 212.814 1354.98 M212.814 1351.97 Q217.535 1351.97 220.018 1355.71 Q222.519 1359.43 222.519 1366.54 Q222.519 1373.63 220.018 1377.38 Q217.535 1381.1 212.814 1381.1 Q208.094 1381.1 205.592 1377.38 Q203.11 1373.63 203.11 1366.54 Q203.11 1359.43 205.592 1355.71 Q208.094 1351.97 212.814 1351.97 Z" fill="#000000" fill-rule="nonzero" fill-opacity="1" /><path clip-path="url(#clip950)" d="M237.321 1354.98 Q234.387 1354.98 232.901 1357.87 Q231.434 1360.75 231.434 1366.54 Q231.434 1372.32 232.901 1375.21 Q234.387 1378.09 237.321 1378.09 Q240.274 1378.09 241.741 1375.21 Q243.226 1372.32 243.226 1366.54 Q243.226 1360.75 241.741 1357.87 Q240.274 1354.98 237.321 1354.98 M237.321 1351.97 Q242.042 1351.97 244.524 1355.71 Q247.026 1359.43 247.026 1366.54 Q247.026 1373.63 244.524 1377.38 Q242.042 1381.1 237.321 1381.1 Q232.6 1381.1 230.099 1377.38 Q227.616 1373.63 227.616 1366.54 Q227.616 1359.43 230.099 1355.71 Q232.6 1351.97 237.321 1351.97 Z" fill="#000000" fill-rule="nonzero" fill-opacity="1" /><path clip-path="url(#clip950)" d="M115.59 1038.16 L123.229 1038.16 L123.229 1011.79 L114.918 1013.46 L114.918 1009.2 L123.182 1007.53 L127.858 1007.53 L127.858 1038.16 L135.497 1038.16 L135.497 1042.09 L115.59 1042.09 L115.59 1038.16 Z" fill="#000000" fill-rule="nonzero" fill-opacity="1" /><path clip-path="url(#clip950)" d="M154.941 1010.61 Q151.33 1010.61 149.502 1014.18 Q147.696 1017.72 147.696 1024.85 Q147.696 1031.96 149.502 1035.52 Q151.33 1039.06 154.941 1039.06 Q158.576 1039.06 160.381 1035.52 Q162.21 1031.96 162.21 1024.85 Q162.21 1017.72 160.381 1014.18 Q158.576 1010.61 154.941 1010.61 M154.941 1006.91 Q160.752 1006.91 163.807 1011.52 Q166.886 1016.1 166.886 1024.85 Q166.886 1033.58 163.807 1038.18 Q160.752 1042.77 154.941 1042.77 Q149.131 1042.77 146.053 1038.18 Q142.997 1033.58 142.997 1024.85 Q142.997 1016.1 146.053 1011.52 Q149.131 1006.91 154.941 1006.91 Z" fill="#000000" fill-rule="nonzero" fill-opacity="1" /><path clip-path="url(#clip950)" d="M176.591 989.105 Q173.657 989.105 172.171 992.001 Q170.704 994.879 170.704 1000.67 Q170.704 1006.45 172.171 1009.34 Q173.657 1012.22 176.591 1012.22 Q179.543 1012.22 181.01 1009.34 Q182.496 1006.45 182.496 1000.67 Q182.496 994.879 181.01 992.001 Q179.543 989.105 176.591 989.105 M176.591 986.096 Q181.311 986.096 183.794 989.839 Q186.295 993.562 186.295 1000.67 Q186.295 1007.76 183.794 1011.51 Q181.311 1015.23 176.591 1015.23 Q171.87 1015.23 169.368 1011.51 Q166.886 1007.76 166.886 1000.67 Q166.886 993.562 169.368 989.839 Q171.87 986.096 176.591 986.096 Z" fill="#000000" fill-rule="nonzero" fill-opacity="1" /><path clip-path="url(#clip950)" d="M192.972 1009.91 L196.941 1009.91 L196.941 1014.68 L192.972 1014.68 L192.972 1009.91 Z" fill="#000000" fill-rule="nonzero" fill-opacity="1" /><path clip-path="url(#clip950)" d="M213.341 989.105 Q210.407 989.105 208.921 992.001 Q207.454 994.879 207.454 1000.67 Q207.454 1006.45 208.921 1009.34 Q210.407 1012.22 213.341 1012.22 Q216.294 1012.22 217.761 1009.34 Q219.247 1006.45 219.247 1000.67 Q219.247 994.879 217.761 992.001 Q216.294 989.105 213.341 989.105 M213.341 986.096 Q218.062 986.096 220.544 989.839 Q223.046 993.562 223.046 1000.67 Q223.046 1007.76 220.544 1011.51 Q218.062 1015.23 213.341 1015.23 Q208.62 1015.23 206.119 1011.51 Q203.636 1007.76 203.636 1000.67 Q203.636 993.562 206.119 989.839 Q208.62 986.096 213.341 986.096 Z" fill="#000000" fill-rule="nonzero" fill-opacity="1" /><path clip-path="url(#clip950)" d="M241.233 999.543 Q243.96 1000.13 245.483 1001.97 Q247.026 1003.81 247.026 1006.52 Q247.026 1010.68 244.167 1012.95 Q241.308 1015.23 236.042 1015.23 Q234.274 1015.23 232.393 1014.87 Q230.531 1014.53 228.538 1013.84 L228.538 1010.17 Q230.117 1011.09 231.998 1011.56 Q233.879 1012.03 235.929 1012.03 Q239.503 1012.03 241.365 1010.62 Q243.245 1009.21 243.245 1006.52 Q243.245 1004.04 241.496 1002.65 Q239.766 1001.24 236.663 1001.24 L233.39 1001.24 L233.39 998.114 L236.813 998.114 Q239.615 998.114 241.101 997.004 Q242.587 995.876 242.587 993.769 Q242.587 991.606 241.045 990.459 Q239.521 989.293 236.663 989.293 Q235.102 989.293 233.315 989.632 Q231.528 989.97 229.384 990.685 L229.384 987.299 Q231.547 986.698 233.428 986.397 Q235.327 986.096 237.001 986.096 Q241.327 986.096 243.847 988.071 Q246.367 990.027 246.367 993.374 Q246.367 995.707 245.032 997.324 Q243.697 998.923 241.233 999.543 Z" fill="#000000" fill-rule="nonzero" fill-opacity="1" /><path clip-path="url(#clip950)" d="M114.931 672.287 L122.57 672.287 L122.57 645.921 L114.26 647.588 L114.26 643.329 L122.524 641.662 L127.2 641.662 L127.2 672.287 L134.839 672.287 L134.839 676.222 L114.931 676.222 L114.931 672.287 Z" fill="#000000" fill-rule="nonzero" fill-opacity="1" /><path clip-path="url(#clip950)" d="M154.283 644.741 Q150.672 644.741 148.843 648.306 Q147.038 651.847 147.038 658.977 Q147.038 666.083 148.843 669.648 Q150.672 673.19 154.283 673.19 Q157.917 673.19 159.723 669.648 Q161.552 666.083 161.552 658.977 Q161.552 651.847 159.723 648.306 Q157.917 644.741 154.283 644.741 M154.283 641.037 Q160.093 641.037 163.149 645.644 Q166.227 650.227 166.227 658.977 Q166.227 667.704 163.149 672.31 Q160.093 676.893 154.283 676.893 Q148.473 676.893 145.394 672.31 Q142.339 667.704 142.339 658.977 Q142.339 650.227 145.394 645.644 Q148.473 641.037 154.283 641.037 Z" fill="#000000" fill-rule="nonzero" fill-opacity="1" /><path clip-path="url(#clip950)" d="M175.932 623.233 Q172.998 623.233 171.512 626.13 Q170.045 629.007 170.045 634.8 Q170.045 640.574 171.512 643.47 Q172.998 646.348 175.932 646.348 Q178.885 646.348 180.352 643.47 Q181.838 640.574 181.838 634.8 Q181.838 629.007 180.352 626.13 Q178.885 623.233 175.932 623.233 M175.932 620.224 Q180.653 620.224 183.136 623.967 Q185.637 627.691 185.637 634.8 Q185.637 641.89 183.136 645.633 Q180.653 649.357 175.932 649.357 Q171.212 649.357 168.71 645.633 Q166.227 641.89 166.227 634.8 Q166.227 627.691 168.71 623.967 Q171.212 620.224 175.932 620.224 Z" fill="#000000" fill-rule="nonzero" fill-opacity="1" /><path clip-path="url(#clip950)" d="M192.314 644.035 L196.282 644.035 L196.282 648.812 L192.314 648.812 L192.314 644.035 Z" fill="#000000" fill-rule="nonzero" fill-opacity="1" /><path clip-path="url(#clip950)" d="M212.683 623.233 Q209.749 623.233 208.263 626.13 Q206.796 629.007 206.796 634.8 Q206.796 640.574 208.263 643.47 Q209.749 646.348 212.683 646.348 Q215.635 646.348 217.102 643.47 Q218.588 640.574 218.588 634.8 Q218.588 629.007 217.102 626.13 Q215.635 623.233 212.683 623.233 M212.683 620.224 Q217.403 620.224 219.886 623.967 Q222.387 627.691 222.387 634.8 Q222.387 641.89 219.886 645.633 Q217.403 649.357 212.683 649.357 Q207.962 649.357 205.46 645.633 Q202.978 641.89 202.978 634.8 Q202.978 627.691 205.46 623.967 Q207.962 620.224 212.683 620.224 Z" fill="#000000" fill-rule="nonzero" fill-opacity="1" /><path clip-path="url(#clip950)" d="M237.659 633.258 Q235.102 633.258 233.597 635.007 Q232.111 636.756 232.111 639.803 Q232.111 642.831 233.597 644.599 Q235.102 646.348 237.659 646.348 Q240.217 646.348 241.703 644.599 Q243.208 642.831 243.208 639.803 Q243.208 636.756 241.703 635.007 Q240.217 633.258 237.659 633.258 M245.201 621.352 L245.201 624.813 Q243.772 624.136 242.305 623.779 Q240.857 623.421 239.427 623.421 Q235.666 623.421 233.672 625.96 Q231.697 628.499 231.415 633.634 Q232.525 631.998 234.199 631.132 Q235.873 630.248 237.885 630.248 Q242.117 630.248 244.562 632.825 Q247.026 635.383 247.026 639.803 Q247.026 644.129 244.468 646.743 Q241.91 649.357 237.659 649.357 Q232.788 649.357 230.212 645.633 Q227.635 641.89 227.635 634.8 Q227.635 628.142 230.795 624.192 Q233.954 620.224 239.277 620.224 Q240.706 620.224 242.154 620.506 Q243.621 620.788 245.201 621.352 Z" fill="#000000" fill-rule="nonzero" fill-opacity="1" /><path clip-path="url(#clip950)" d="M115.214 306.415 L122.852 306.415 L122.852 280.05 L114.542 281.716 L114.542 277.457 L122.806 275.79 L127.482 275.79 L127.482 306.415 L135.121 306.415 L135.121 310.35 L115.214 310.35 L115.214 306.415 Z" fill="#000000" fill-rule="nonzero" fill-opacity="1" /><path clip-path="url(#clip950)" d="M154.565 278.869 Q150.954 278.869 149.125 282.434 Q147.32 285.975 147.32 293.105 Q147.32 300.211 149.125 303.776 Q150.954 307.318 154.565 307.318 Q158.199 307.318 160.005 303.776 Q161.834 300.211 161.834 293.105 Q161.834 285.975 160.005 282.434 Q158.199 278.869 154.565 278.869 M154.565 275.165 Q160.375 275.165 163.431 279.772 Q166.51 284.355 166.51 293.105 Q166.51 301.832 163.431 306.438 Q160.375 311.022 154.565 311.022 Q148.755 311.022 145.676 306.438 Q142.621 301.832 142.621 293.105 Q142.621 284.355 145.676 279.772 Q148.755 275.165 154.565 275.165 Z" fill="#000000" fill-rule="nonzero" fill-opacity="1" /><path clip-path="url(#clip950)" d="M176.214 257.361 Q173.28 257.361 171.795 260.258 Q170.328 263.135 170.328 268.928 Q170.328 274.702 171.795 277.598 Q173.28 280.476 176.214 280.476 Q179.167 280.476 180.634 277.598 Q182.12 274.702 182.12 268.928 Q182.12 263.135 180.634 260.258 Q179.167 257.361 176.214 257.361 M176.214 254.352 Q180.935 254.352 183.418 258.095 Q185.919 261.819 185.919 268.928 Q185.919 276.019 183.418 279.761 Q180.935 283.485 176.214 283.485 Q171.494 283.485 168.992 279.761 Q166.51 276.019 166.51 268.928 Q166.51 261.819 168.992 258.095 Q171.494 254.352 176.214 254.352 Z" fill="#000000" fill-rule="nonzero" fill-opacity="1" /><path clip-path="url(#clip950)" d="M192.596 278.163 L196.564 278.163 L196.564 282.94 L192.596 282.94 L192.596 278.163 Z" fill="#000000" fill-rule="nonzero" fill-opacity="1" /><path clip-path="url(#clip950)" d="M212.965 257.361 Q210.031 257.361 208.545 260.258 Q207.078 263.135 207.078 268.928 Q207.078 274.702 208.545 277.598 Q210.031 280.476 212.965 280.476 Q215.918 280.476 217.385 277.598 Q218.87 274.702 218.87 268.928 Q218.87 263.135 217.385 260.258 Q215.918 257.361 212.965 257.361 M212.965 254.352 Q217.686 254.352 220.168 258.095 Q222.67 261.819 222.67 268.928 Q222.67 276.019 220.168 279.761 Q217.686 283.485 212.965 283.485 Q208.244 283.485 205.743 279.761 Q203.26 276.019 203.26 268.928 Q203.26 261.819 205.743 258.095 Q208.244 254.352 212.965 254.352 Z" fill="#000000" fill-rule="nonzero" fill-opacity="1" /><path clip-path="url(#clip950)" d="M229.459 282.357 L229.459 278.896 Q230.889 279.573 232.356 279.931 Q233.823 280.288 235.233 280.288 Q238.995 280.288 240.97 277.768 Q242.963 275.229 243.245 270.075 Q242.154 271.693 240.481 272.558 Q238.807 273.423 236.775 273.423 Q232.562 273.423 230.099 270.884 Q227.654 268.326 227.654 263.906 Q227.654 259.581 230.212 256.966 Q232.769 254.352 237.02 254.352 Q241.891 254.352 244.449 258.095 Q247.026 261.819 247.026 268.928 Q247.026 275.567 243.866 279.536 Q240.725 283.485 235.402 283.485 Q233.973 283.485 232.506 283.203 Q231.039 282.921 229.459 282.357 M237.02 270.452 Q239.578 270.452 241.064 268.702 Q242.568 266.953 242.568 263.906 Q242.568 260.878 241.064 259.129 Q239.578 257.361 237.02 257.361 Q234.462 257.361 232.957 259.129 Q231.472 260.878 231.472 263.906 Q231.472 266.953 232.957 268.702 Q234.462 270.452 237.02 270.452 Z" fill="#000000" fill-rule="nonzero" fill-opacity="1" /><path clip-path="url(#clip950)" d="M46.0847 888.244 Q46.0847 895.341 47.7079 898.079 Q49.3312 900.816 53.2461 900.816 Q56.3653 900.816 58.2114 898.779 Q60.0256 896.71 60.0256 893.177 Q60.0256 888.307 56.5881 885.379 Q53.1188 882.419 47.3897 882.419 L46.0847 882.419 L46.0847 888.244 M43.6657 876.562 L64.0042 876.562 L64.0042 882.419 L58.5933 882.419 Q61.8398 884.424 63.3994 887.416 Q64.9272 890.408 64.9272 894.737 Q64.9272 900.211 61.8716 903.458 Q58.7843 906.672 53.6281 906.672 Q47.6125 906.672 44.5569 902.662 Q41.5014 898.62 41.5014 890.631 L41.5014 882.419 L40.9285 882.419 Q36.8862 882.419 34.6901 885.093 Q32.4621 887.734 32.4621 892.54 Q32.4621 895.596 33.1941 898.492 Q33.9262 901.389 35.3903 904.062 L29.9795 904.062 Q28.7381 900.848 28.1334 897.824 Q27.4968 894.8 27.4968 891.936 Q27.4968 884.201 31.5072 880.382 Q35.5176 876.562 43.6657 876.562 Z" fill="#000000" fill-rule="nonzero" fill-opacity="1" /><path clip-path="url(#clip950)" d="M29.7248 838.846 L35.1993 838.846 Q33.8307 841.328 33.1623 843.843 Q32.4621 846.325 32.4621 848.872 Q32.4621 854.569 36.0905 857.72 Q39.6872 860.871 46.212 860.871 Q52.7369 860.871 56.3653 857.72 Q59.9619 854.569 59.9619 848.872 Q59.9619 846.325 59.2935 843.843 Q58.5933 841.328 57.2247 838.846 L62.6355 838.846 Q63.7814 841.296 64.3543 843.938 Q64.9272 846.548 64.9272 849.508 Q64.9272 857.561 59.8664 862.303 Q54.8057 867.046 46.212 867.046 Q37.491 867.046 32.4939 862.271 Q27.4968 857.465 27.4968 849.126 Q27.4968 846.421 28.0697 843.843 Q28.6108 841.265 29.7248 838.846 Z" fill="#000000" fill-rule="nonzero" fill-opacity="1" /><path clip-path="url(#clip950)" d="M29.7248 803.007 L35.1993 803.007 Q33.8307 805.489 33.1623 808.004 Q32.4621 810.486 32.4621 813.033 Q32.4621 818.73 36.0905 821.881 Q39.6872 825.032 46.212 825.032 Q52.7369 825.032 56.3653 821.881 Q59.9619 818.73 59.9619 813.033 Q59.9619 810.486 59.2935 808.004 Q58.5933 805.489 57.2247 803.007 L62.6355 803.007 Q63.7814 805.458 64.3543 808.099 Q64.9272 810.709 64.9272 813.669 Q64.9272 821.722 59.8664 826.464 Q54.8057 831.207 46.212 831.207 Q37.491 831.207 32.4939 826.433 Q27.4968 821.626 27.4968 813.287 Q27.4968 810.582 28.0697 808.004 Q28.6108 805.426 29.7248 803.007 Z" fill="#000000" fill-rule="nonzero" fill-opacity="1" /><path clip-path="url(#clip950)" d="M55.9197 791.994 L55.9197 785.278 L64.0042 785.278 L64.0042 791.994 L55.9197 791.994 Z" fill="#000000" fill-rule="nonzero" fill-opacity="1" /><path clip-path="url(#clip950)" d="M33.8307 730.724 Q33.2578 731.711 33.0032 732.888 Q32.7167 734.034 32.7167 735.435 Q32.7167 740.4 35.9632 743.074 Q39.1779 745.715 45.2253 745.715 L64.0042 745.715 L64.0042 751.604 L28.3562 751.604 L28.3562 745.715 L33.8944 745.715 Q30.6479 743.869 29.0883 740.909 Q27.4968 737.949 27.4968 733.716 Q27.4968 733.111 27.5923 732.379 Q27.656 731.647 27.8151 730.756 L33.8307 730.724 Z" fill="#000000" fill-rule="nonzero" fill-opacity="1" /><path clip-path="url(#clip950)" d="M44.7161 695.522 L47.5806 695.522 L47.5806 722.449 Q53.6281 722.067 56.8109 718.82 Q59.9619 715.542 59.9619 709.717 Q59.9619 706.343 59.1344 703.192 Q58.3069 700.01 56.6518 696.89 L62.1899 696.89 Q63.5267 700.041 64.227 703.352 Q64.9272 706.662 64.9272 710.067 Q64.9272 718.597 59.9619 723.595 Q54.9967 728.56 46.5303 728.56 Q37.7774 728.56 32.6531 723.849 Q27.4968 719.107 27.4968 711.086 Q27.4968 703.893 32.1438 699.723 Q36.7589 695.522 44.7161 695.522 M42.9973 701.378 Q38.1912 701.442 35.3266 704.084 Q32.4621 706.694 32.4621 711.022 Q32.4621 715.924 35.2312 718.884 Q38.0002 721.812 43.0292 722.258 L42.9973 701.378 Z" fill="#000000" fill-rule="nonzero" fill-opacity="1" /><path clip-path="url(#clip950)" d="M18.2347 680.117 L28.3562 680.117 L28.3562 668.054 L32.9077 668.054 L32.9077 680.117 L52.2594 680.117 Q56.6199 680.117 57.8613 678.939 Q59.1026 677.73 59.1026 674.069 L59.1026 668.054 L64.0042 668.054 L64.0042 674.069 Q64.0042 680.849 61.4897 683.427 Q58.9434 686.005 52.2594 686.005 L32.9077 686.005 L32.9077 690.302 L28.3562 690.302 L28.3562 686.005 L18.2347 686.005 L18.2347 680.117 Z" fill="#000000" fill-rule="nonzero" fill-opacity="1" /><path clip-path="url(#clip950)" d="M49.9359 660.956 L28.3562 660.956 L28.3562 655.1 L49.7131 655.1 Q54.7739 655.1 57.3202 653.126 Q59.8346 651.153 59.8346 647.206 Q59.8346 642.464 56.8109 639.726 Q53.7872 636.957 48.5673 636.957 L28.3562 636.957 L28.3562 631.101 L64.0042 631.101 L64.0042 636.957 L58.5296 636.957 Q61.7762 639.09 63.3676 641.923 Q64.9272 644.723 64.9272 648.447 Q64.9272 654.59 61.1078 657.773 Q57.2883 660.956 49.9359 660.956 M27.4968 646.219 L27.4968 646.219 Z" fill="#000000" fill-rule="nonzero" fill-opacity="1" /><path clip-path="url(#clip950)" d="M33.8307 598.381 Q33.2578 599.368 33.0032 600.545 Q32.7167 601.691 32.7167 603.092 Q32.7167 608.057 35.9632 610.731 Q39.1779 613.372 45.2253 613.372 L64.0042 613.372 L64.0042 619.261 L28.3562 619.261 L28.3562 613.372 L33.8944 613.372 Q30.6479 611.526 29.0883 608.566 Q27.4968 605.606 27.4968 601.373 Q27.4968 600.768 27.5923 600.036 Q27.656 599.304 27.8151 598.413 L33.8307 598.381 Z" fill="#000000" fill-rule="nonzero" fill-opacity="1" /><path clip-path="url(#clip950)" d="M42.4881 563.752 L64.0042 563.752 L64.0042 569.608 L42.679 569.608 Q37.6183 569.608 35.1038 571.581 Q32.5894 573.555 32.5894 577.502 Q32.5894 582.244 35.6131 584.981 Q38.6368 587.719 43.8567 587.719 L64.0042 587.719 L64.0042 593.607 L28.3562 593.607 L28.3562 587.719 L33.8944 587.719 Q30.6797 585.618 29.0883 582.785 Q27.4968 579.921 27.4968 576.197 Q27.4968 570.054 31.3163 566.903 Q35.1038 563.752 42.4881 563.752 Z" fill="#000000" fill-rule="nonzero" fill-opacity="1" /><polyline clip-path="url(#clip952)" style="stroke:#009af9; stroke-linecap:round; stroke-linejoin:round; stroke-width:12; stroke-opacity:1; fill:none" points="341.603,1384.24 347.166,1236.03 352.729,1129.66 358.292,964.892 363.854,956.687 380.543,934.797 386.106,770.747 391.669,773.582 397.232,718.943 402.795,809.985 425.046,723.282 430.609,749.862 436.172,767.183 441.735,749.02 458.424,759.228 463.987,624.213 469.549,854.441 475.112,880.808 480.675,986.106 497.364,856.739 502.927,838.708 508.49,725.566 514.053,671.45 519.616,549.795 536.304,349.504 541.867,299.508 547.43,290.387 552.993,370.664 558.556,287.215 580.807,288.583 586.37,350.476 591.933,522.89 597.496,381.558 614.185,507.16 619.748,630.332 625.311,493.155 630.873,736.483 636.436,742.598 653.125,553.316 658.688,490.444 664.251,650.475 669.814,787.343 675.377,810.909 692.065,852.044 697.628,669.644 703.191,676.005 708.754,505.219 714.317,415.088 730.774,339.444 736.337,438.389 741.899,404.125 747.462,608.694 753.025,555.027 769.714,488.694 775.277,642.726 780.84,776.339 786.403,670.424 791.966,587.405 808.654,700.247 814.217,619.115 819.78,596.284 825.343,539.103 847.594,537.806 853.157,548.527 858.72,612.036 864.283,616.404 869.846,628.958 886.535,676.94 892.098,686.096 897.661,676.962 903.223,677.73 908.786,674.743 925.475,758.215 931.038,819.837 936.601,700.88 942.164,740.027 947.727,657.287 964.415,610.007 969.978,609.582 975.541,566.59 981.104,596.865 986.667,648.348 1003.36,621.946 1008.92,704.496 1014.48,710.478 1020.04,737.897 1025.61,652.705 1042.3,746.486 1047.86,724.994 1053.42,903.567 1058.98,890.753 1064.55,762.142 1081.24,679.983 1086.8,704.293 1092.36,727.441 1097.92,655.848 1103.49,657.25 1120.18,635.618 1125.74,657.236 1131.3,581.835 1136.86,524.391 1142.43,506.819 1164.68,422.417 1170.24,392.643 1175.81,424.93 1181.37,339.482 1198.06,277.227 1203.62,250.367 1209.18,303.86 1214.75,294.155 1220.31,288.166 1237,337.185 1242.56,372.66 1248.12,380.687 1253.69,448.697 1259.25,531.165 1275.94,456.041 1281.5,425.296 1287.06,387.179 1292.63,367 1298.19,383.862 1314.88,376.55 1320.44,434.11 1326,436.6 1331.57,385.025 1337.13,403.068 1359.38,484.752 1364.94,533.253 1370.51,584.108 1376.07,478.11 1392.76,499.347 1398.32,584.135 1403.88,646.554 1409.45,692.23 1415.01,794.469 1431.7,830.042 1437.26,741.597 1442.82,631.398 1448.39,674.819 1453.95,689.004 1470.64,668.386 1476.2,722.56 1481.76,653.056 1487.33,621.754 1492.89,672.958 1509.58,679.591 1515.14,638.197 1520.7,687.609 1526.27,633.318 1531.83,658.146 1548.52,622.048 1554.08,615.292 1559.64,630.2 1565.21,654.213 1570.77,698.664 1587.46,737.33 1593.02,802.283 1598.59,867.472 1604.15,935.228 1609.71,806.214 1626.4,695.373 1631.96,631.381 1637.53,581.455 1643.09,631.069 1648.65,516.577 1665.34,552.58 1670.9,539.068 1676.47,535.72 1682.03,480.811 1687.59,516.505 1709.84,557.799 1715.41,620.97 1720.97,615.449 1726.53,624.486 1743.22,604.139 1748.78,658.84 1754.35,633.811 1759.91,654.137 1765.47,694.837 1782.16,850.094 1787.72,826.879 1793.29,760.22 1798.85,648.362 1804.41,678.515 1821.1,580.59 1826.66,687.798 1832.23,707.079 1837.79,719.477 1843.35,657.92 1860.04,721.149 1865.6,691.83 1871.17,741.652 1876.73,677.916 1882.29,675.991 1898.98,667.602 1904.54,588.64 1910.11,529.464 1915.67,460.337 1921.23,480.597 1937.92,431.772 1943.48,400.352 1949.05,374.99 1954.61,393.372 1960.17,392.114 1976.86,322.626 1982.42,312.435 1987.99,385.845 1993.55,285.821 1999.11,306.396 2015.8,194.977 2021.37,217.074 2026.93,146.601 2032.49,117.498 2038.05,101.727 2054.97,86.1857 2060.54,260.067 2066.1,330.635 2071.66,243.463 2077.23,263.485 2093.91,275.023 2099.48,272.667 2105.04,319.934 2110.6,307.557 2116.17,302.745 2132.85,316.077 2138.42,304.045 2143.98,258.194 2155.11,420.028 2171.79,347.115 2177.36,469.42 2182.92,604.347 2188.48,520.935 2194.05,626.936 2210.74,587.442 2216.3,402.052 2221.86,394.88 2227.42,522.119 2232.99,519.602 2249.68,641.925 2255.24,705.978 2260.8,609.126 2266.36,674.669 2271.93,700.455 2288.62,799.795 2294.18,633.213 "/>
<path clip-path="url(#clip950)" d="M1550.59 1377.32 L2283.76 1377.32 L2283.76 1273.64 L1550.59 1273.64  Z" fill="#ffffff" fill-rule="evenodd" fill-opacity="1"/>
<polyline clip-path="url(#clip950)" style="stroke:#000000; stroke-linecap:round; stroke-linejoin:round; stroke-width:4; stroke-opacity:1; fill:none" points="1550.59,1377.32 2283.76,1377.32 2283.76,1273.64 1550.59,1273.64 1550.59,1377.32 "/>
<polyline clip-path="url(#clip950)" style="stroke:#009af9; stroke-linecap:round; stroke-linejoin:round; stroke-width:12; stroke-opacity:1; fill:none" points="1573.59,1325.48 1711.57,1325.48 "/>
<path clip-path="url(#clip950)" d="M1734.57 1308.2 L1756.42 1308.2 L1756.42 1312.13 L1739.24 1312.13 L1739.24 1322.36 L1755.7 1322.36 L1755.7 1326.3 L1739.24 1326.3 L1739.24 1338.82 L1756.84 1338.82 L1756.84 1342.76 L1734.57 1342.76 L1734.57 1308.2 Z" fill="#000000" fill-rule="nonzero" fill-opacity="1" /><path clip-path="url(#clip950)" d="M1766.88 1329.82 Q1766.88 1334.51 1768.8 1337.2 Q1770.75 1339.86 1774.13 1339.86 Q1777.51 1339.86 1779.45 1337.2 Q1781.4 1334.51 1781.4 1329.82 Q1781.4 1325.12 1779.45 1322.45 Q1777.51 1319.77 1774.13 1319.77 Q1770.75 1319.77 1768.8 1322.45 Q1766.88 1325.12 1766.88 1329.82 M1781.4 1338.87 Q1780.05 1341.18 1777.99 1342.32 Q1775.96 1343.43 1773.09 1343.43 Q1768.39 1343.43 1765.42 1339.68 Q1762.48 1335.93 1762.48 1329.82 Q1762.48 1323.7 1765.42 1319.95 Q1768.39 1316.2 1773.09 1316.2 Q1775.96 1316.2 1777.99 1317.34 Q1780.05 1318.45 1781.4 1320.76 L1781.4 1316.83 L1785.65 1316.83 L1785.65 1352.62 L1781.4 1352.62 L1781.4 1338.87 Z" fill="#000000" fill-rule="nonzero" fill-opacity="1" /><path clip-path="url(#clip950)" d="M1793.99 1332.52 L1793.99 1316.83 L1798.25 1316.83 L1798.25 1332.36 Q1798.25 1336.04 1799.68 1337.89 Q1801.12 1339.72 1803.99 1339.72 Q1807.44 1339.72 1809.43 1337.52 Q1811.44 1335.32 1811.44 1331.53 L1811.44 1316.83 L1815.7 1316.83 L1815.7 1342.76 L1811.44 1342.76 L1811.44 1338.77 Q1809.89 1341.13 1807.83 1342.29 Q1805.79 1343.43 1803.09 1343.43 Q1798.62 1343.43 1796.3 1340.65 Q1793.99 1337.87 1793.99 1332.52 M1804.71 1316.2 L1804.71 1316.2 Z" fill="#000000" fill-rule="nonzero" fill-opacity="1" /><path clip-path="url(#clip950)" d="M1824.47 1316.83 L1828.73 1316.83 L1828.73 1342.76 L1824.47 1342.76 L1824.47 1316.83 M1824.47 1306.74 L1828.73 1306.74 L1828.73 1312.13 L1824.47 1312.13 L1824.47 1306.74 Z" fill="#000000" fill-rule="nonzero" fill-opacity="1" /><path clip-path="url(#clip950)" d="M1841.86 1309.47 L1841.86 1316.83 L1850.63 1316.83 L1850.63 1320.14 L1841.86 1320.14 L1841.86 1334.21 Q1841.86 1337.38 1842.71 1338.29 Q1843.59 1339.19 1846.26 1339.19 L1850.63 1339.19 L1850.63 1342.76 L1846.26 1342.76 Q1841.33 1342.76 1839.45 1340.93 Q1837.58 1339.07 1837.58 1334.21 L1837.58 1320.14 L1834.45 1320.14 L1834.45 1316.83 L1837.58 1316.83 L1837.58 1309.47 L1841.86 1309.47 Z" fill="#000000" fill-rule="nonzero" fill-opacity="1" /><path clip-path="url(#clip950)" d="M1868.02 1329.72 Q1862.85 1329.72 1860.86 1330.9 Q1858.87 1332.08 1858.87 1334.93 Q1858.87 1337.2 1860.35 1338.54 Q1861.86 1339.86 1864.43 1339.86 Q1867.97 1339.86 1870.1 1337.36 Q1872.25 1334.84 1872.25 1330.67 L1872.25 1329.72 L1868.02 1329.72 M1876.51 1327.96 L1876.51 1342.76 L1872.25 1342.76 L1872.25 1338.82 Q1870.79 1341.18 1868.62 1342.32 Q1866.44 1343.43 1863.29 1343.43 Q1859.31 1343.43 1856.95 1341.2 Q1854.61 1338.96 1854.61 1335.21 Q1854.61 1330.83 1857.53 1328.61 Q1860.47 1326.39 1866.28 1326.39 L1872.25 1326.39 L1872.25 1325.97 Q1872.25 1323.03 1870.31 1321.44 Q1868.39 1319.82 1864.89 1319.82 Q1862.67 1319.82 1860.56 1320.35 Q1858.46 1320.88 1856.51 1321.95 L1856.51 1318.01 Q1858.85 1317.11 1861.05 1316.67 Q1863.25 1316.2 1865.33 1316.2 Q1870.96 1316.2 1873.73 1319.12 Q1876.51 1322.04 1876.51 1327.96 Z" fill="#000000" fill-rule="nonzero" fill-opacity="1" /><path clip-path="url(#clip950)" d="M1903.89 1329.82 Q1903.89 1325.12 1901.95 1322.45 Q1900.03 1319.77 1896.65 1319.77 Q1893.27 1319.77 1891.33 1322.45 Q1889.4 1325.12 1889.4 1329.82 Q1889.4 1334.51 1891.33 1337.2 Q1893.27 1339.86 1896.65 1339.86 Q1900.03 1339.86 1901.95 1337.2 Q1903.89 1334.51 1903.89 1329.82 M1889.4 1320.76 Q1890.75 1318.45 1892.78 1317.34 Q1894.84 1316.2 1897.69 1316.2 Q1902.41 1316.2 1905.35 1319.95 Q1908.32 1323.7 1908.32 1329.82 Q1908.32 1335.93 1905.35 1339.68 Q1902.41 1343.43 1897.69 1343.43 Q1894.84 1343.43 1892.78 1342.32 Q1890.75 1341.18 1889.4 1338.87 L1889.4 1342.76 L1885.12 1342.76 L1885.12 1306.74 L1889.4 1306.74 L1889.4 1320.76 Z" fill="#000000" fill-rule="nonzero" fill-opacity="1" /><path clip-path="url(#clip950)" d="M1915.38 1306.74 L1919.64 1306.74 L1919.64 1342.76 L1915.38 1342.76 L1915.38 1306.74 Z" fill="#000000" fill-rule="nonzero" fill-opacity="1" /><path clip-path="url(#clip950)" d="M1950.72 1328.73 L1950.72 1330.81 L1931.14 1330.81 Q1931.42 1335.21 1933.78 1337.52 Q1936.16 1339.82 1940.4 1339.82 Q1942.85 1339.82 1945.14 1339.21 Q1947.46 1338.61 1949.73 1337.41 L1949.73 1341.44 Q1947.44 1342.41 1945.03 1342.92 Q1942.62 1343.43 1940.14 1343.43 Q1933.94 1343.43 1930.31 1339.82 Q1926.7 1336.2 1926.7 1330.05 Q1926.7 1323.68 1930.12 1319.95 Q1933.57 1316.2 1939.4 1316.2 Q1944.64 1316.2 1947.67 1319.58 Q1950.72 1322.94 1950.72 1328.73 M1946.46 1327.48 Q1946.42 1323.98 1944.5 1321.9 Q1942.6 1319.82 1939.45 1319.82 Q1935.89 1319.82 1933.73 1321.83 Q1931.6 1323.84 1931.28 1327.5 L1946.46 1327.48 Z" fill="#000000" fill-rule="nonzero" fill-opacity="1" /><path clip-path="url(#clip950)" d="M1989.84 1320.76 L1989.84 1306.74 L1994.1 1306.74 L1994.1 1342.76 L1989.84 1342.76 L1989.84 1338.87 Q1988.5 1341.18 1986.44 1342.32 Q1984.4 1343.43 1981.53 1343.43 Q1976.83 1343.43 1973.87 1339.68 Q1970.93 1335.93 1970.93 1329.82 Q1970.93 1323.7 1973.87 1319.95 Q1976.83 1316.2 1981.53 1316.2 Q1984.4 1316.2 1986.44 1317.34 Q1988.5 1318.45 1989.84 1320.76 M1975.33 1329.82 Q1975.33 1334.51 1977.25 1337.2 Q1979.2 1339.86 1982.57 1339.86 Q1985.95 1339.86 1987.9 1337.2 Q1989.84 1334.51 1989.84 1329.82 Q1989.84 1325.12 1987.9 1322.45 Q1985.95 1319.77 1982.57 1319.77 Q1979.2 1319.77 1977.25 1322.45 Q1975.33 1325.12 1975.33 1329.82 Z" fill="#000000" fill-rule="nonzero" fill-opacity="1" /><path clip-path="url(#clip950)" d="M2002.88 1316.83 L2007.13 1316.83 L2007.13 1342.76 L2002.88 1342.76 L2002.88 1316.83 M2002.88 1306.74 L2007.13 1306.74 L2007.13 1312.13 L2002.88 1312.13 L2002.88 1306.74 Z" fill="#000000" fill-rule="nonzero" fill-opacity="1" /><path clip-path="url(#clip950)" d="M2032.57 1317.59 L2032.57 1321.62 Q2030.77 1320.7 2028.82 1320.23 Q2026.88 1319.77 2024.8 1319.77 Q2021.63 1319.77 2020.03 1320.74 Q2018.45 1321.71 2018.45 1323.66 Q2018.45 1325.14 2019.59 1326 Q2020.72 1326.83 2024.15 1327.59 L2025.61 1327.92 Q2030.14 1328.89 2032.04 1330.67 Q2033.96 1332.43 2033.96 1335.6 Q2033.96 1339.21 2031.09 1341.32 Q2028.25 1343.43 2023.25 1343.43 Q2021.16 1343.43 2018.89 1343.01 Q2016.65 1342.62 2014.15 1341.81 L2014.15 1337.41 Q2016.51 1338.63 2018.8 1339.26 Q2021.09 1339.86 2023.34 1339.86 Q2026.35 1339.86 2027.97 1338.84 Q2029.59 1337.8 2029.59 1335.93 Q2029.59 1334.19 2028.41 1333.26 Q2027.25 1332.34 2023.29 1331.48 L2021.81 1331.14 Q2017.85 1330.3 2016.09 1328.59 Q2014.33 1326.85 2014.33 1323.84 Q2014.33 1320.19 2016.93 1318.2 Q2019.52 1316.2 2024.29 1316.2 Q2026.65 1316.2 2028.73 1316.55 Q2030.82 1316.9 2032.57 1317.59 Z" fill="#000000" fill-rule="nonzero" fill-opacity="1" /><path clip-path="url(#clip950)" d="M2044.96 1309.47 L2044.96 1316.83 L2053.73 1316.83 L2053.73 1320.14 L2044.96 1320.14 L2044.96 1334.21 Q2044.96 1337.38 2045.82 1338.29 Q2046.69 1339.19 2049.36 1339.19 L2053.73 1339.19 L2053.73 1342.76 L2049.36 1342.76 Q2044.43 1342.76 2042.55 1340.93 Q2040.68 1339.07 2040.68 1334.21 L2040.68 1320.14 L2037.55 1320.14 L2037.55 1316.83 L2040.68 1316.83 L2040.68 1309.47 L2044.96 1309.47 Z" fill="#000000" fill-rule="nonzero" fill-opacity="1" /><path clip-path="url(#clip950)" d="M2074.36 1320.81 Q2073.64 1320.39 2072.78 1320.21 Q2071.95 1320 2070.93 1320 Q2067.32 1320 2065.38 1322.36 Q2063.45 1324.7 2063.45 1329.1 L2063.45 1342.76 L2059.17 1342.76 L2059.17 1316.83 L2063.45 1316.83 L2063.45 1320.86 Q2064.8 1318.5 2066.95 1317.36 Q2069.1 1316.2 2072.18 1316.2 Q2072.62 1316.2 2073.15 1316.27 Q2073.69 1316.32 2074.33 1316.44 L2074.36 1320.81 Z" fill="#000000" fill-rule="nonzero" fill-opacity="1" /><path clip-path="url(#clip950)" d="M2078.82 1316.83 L2083.08 1316.83 L2083.08 1342.76 L2078.82 1342.76 L2078.82 1316.83 M2078.82 1306.74 L2083.08 1306.74 L2083.08 1312.13 L2078.82 1312.13 L2078.82 1306.74 Z" fill="#000000" fill-rule="nonzero" fill-opacity="1" /><path clip-path="url(#clip950)" d="M2110.61 1329.82 Q2110.61 1325.12 2108.66 1322.45 Q2106.74 1319.77 2103.36 1319.77 Q2099.98 1319.77 2098.04 1322.45 Q2096.12 1325.12 2096.12 1329.82 Q2096.12 1334.51 2098.04 1337.2 Q2099.98 1339.86 2103.36 1339.86 Q2106.74 1339.86 2108.66 1337.2 Q2110.61 1334.51 2110.61 1329.82 M2096.12 1320.76 Q2097.46 1318.45 2099.5 1317.34 Q2101.56 1316.2 2104.4 1316.2 Q2109.13 1316.2 2112.06 1319.95 Q2115.03 1323.7 2115.03 1329.82 Q2115.03 1335.93 2112.06 1339.68 Q2109.13 1343.43 2104.4 1343.43 Q2101.56 1343.43 2099.5 1342.32 Q2097.46 1341.18 2096.12 1338.87 L2096.12 1342.76 L2091.83 1342.76 L2091.83 1306.74 L2096.12 1306.74 L2096.12 1320.76 Z" fill="#000000" fill-rule="nonzero" fill-opacity="1" /><path clip-path="url(#clip950)" d="M2121.65 1332.52 L2121.65 1316.83 L2125.91 1316.83 L2125.91 1332.36 Q2125.91 1336.04 2127.34 1337.89 Q2128.78 1339.72 2131.65 1339.72 Q2135.1 1339.72 2137.09 1337.52 Q2139.1 1335.32 2139.1 1331.53 L2139.1 1316.83 L2143.36 1316.83 L2143.36 1342.76 L2139.1 1342.76 L2139.1 1338.77 Q2137.55 1341.13 2135.49 1342.29 Q2133.45 1343.43 2130.75 1343.43 Q2126.28 1343.43 2123.96 1340.65 Q2121.65 1337.87 2121.65 1332.52 M2132.37 1316.2 L2132.37 1316.2 Z" fill="#000000" fill-rule="nonzero" fill-opacity="1" /><path clip-path="url(#clip950)" d="M2156.35 1309.47 L2156.35 1316.83 L2165.12 1316.83 L2165.12 1320.14 L2156.35 1320.14 L2156.35 1334.21 Q2156.35 1337.38 2157.2 1338.29 Q2158.08 1339.19 2160.75 1339.19 L2165.12 1339.19 L2165.12 1342.76 L2160.75 1342.76 Q2155.81 1342.76 2153.94 1340.93 Q2152.06 1339.07 2152.06 1334.21 L2152.06 1320.14 L2148.94 1320.14 L2148.94 1316.83 L2152.06 1316.83 L2152.06 1309.47 L2156.35 1309.47 Z" fill="#000000" fill-rule="nonzero" fill-opacity="1" /><path clip-path="url(#clip950)" d="M2170.72 1316.83 L2174.98 1316.83 L2174.98 1342.76 L2170.72 1342.76 L2170.72 1316.83 M2170.72 1306.74 L2174.98 1306.74 L2174.98 1312.13 L2170.72 1312.13 L2170.72 1306.74 Z" fill="#000000" fill-rule="nonzero" fill-opacity="1" /><path clip-path="url(#clip950)" d="M2193.94 1319.82 Q2190.51 1319.82 2188.52 1322.5 Q2186.53 1325.16 2186.53 1329.82 Q2186.53 1334.47 2188.5 1337.15 Q2190.49 1339.82 2193.94 1339.82 Q2197.34 1339.82 2199.33 1337.13 Q2201.32 1334.45 2201.32 1329.82 Q2201.32 1325.21 2199.33 1322.52 Q2197.34 1319.82 2193.94 1319.82 M2193.94 1316.2 Q2199.5 1316.2 2202.67 1319.82 Q2205.84 1323.43 2205.84 1329.82 Q2205.84 1336.18 2202.67 1339.82 Q2199.5 1343.43 2193.94 1343.43 Q2188.36 1343.43 2185.19 1339.82 Q2182.04 1336.18 2182.04 1329.82 Q2182.04 1323.43 2185.19 1319.82 Q2188.36 1316.2 2193.94 1316.2 Z" fill="#000000" fill-rule="nonzero" fill-opacity="1" /><path clip-path="url(#clip950)" d="M2234.45 1327.11 L2234.45 1342.76 L2230.19 1342.76 L2230.19 1327.25 Q2230.19 1323.57 2228.75 1321.74 Q2227.32 1319.91 2224.45 1319.91 Q2221 1319.91 2219.01 1322.11 Q2217.02 1324.31 2217.02 1328.1 L2217.02 1342.76 L2212.74 1342.76 L2212.74 1316.83 L2217.02 1316.83 L2217.02 1320.86 Q2218.55 1318.52 2220.61 1317.36 Q2222.69 1316.2 2225.4 1316.2 Q2229.87 1316.2 2232.16 1318.98 Q2234.45 1321.74 2234.45 1327.11 Z" fill="#000000" fill-rule="nonzero" fill-opacity="1" /><path clip-path="url(#clip950)" d="M2260.77 1313.89 L2252.46 1318.38 L2260.77 1322.89 L2259.43 1325.16 L2251.65 1320.46 L2251.65 1329.19 L2249.01 1329.19 L2249.01 1320.46 L2241.23 1325.16 L2239.89 1322.89 L2248.2 1318.38 L2239.89 1313.89 L2241.23 1311.6 L2249.01 1316.3 L2249.01 1307.57 L2251.65 1307.57 L2251.65 1316.3 L2259.43 1311.6 L2260.77 1313.89 Z" fill="#000000" fill-rule="nonzero" fill-opacity="1" /></svg>
