<?xml version="1.0" encoding="utf-8"?>
<svg xmlns="http://www.w3.org/2000/svg" xmlns:xlink="http://www.w3.org/1999/xlink" width="600" height="400" viewBox="0 0 2400 1600">
<defs>
  <clipPath id="clip930">
    <rect x="0" y="0" width="2400" height="1600"/>
  </clipPath>
</defs>
<path clip-path="url(#clip930)" d="M0 1600 L2400 1600 L2400 0 L0 0  Z" fill="#ffffff" fill-rule="evenodd" fill-opacity="1"/>
<defs>
  <clipPath id="clip931">
    <rect x="480" y="0" width="1681" height="1600"/>
  </clipPath>
</defs>
<path clip-path="url(#clip930)" d="M203.964 1423.18 L2352.76 1423.18 L2352.76 248.629 L203.964 248.629  Z" fill="#ffffff" fill-rule="evenodd" fill-opacity="1"/>
<defs>
  <clipPath id="clip932">
    <rect x="203" y="248" width="2150" height="1176"/>
  </clipPath>
</defs>
<polyline clip-path="url(#clip932)" style="stroke:#000000; stroke-linecap:round; stroke-linejoin:round; stroke-width:2; stroke-opacity:0.1; fill:none" points="264.778,1423.18 264.778,248.629 "/>
<polyline clip-path="url(#clip932)" style="stroke:#000000; stroke-linecap:round; stroke-linejoin:round; stroke-width:2; stroke-opacity:0.1; fill:none" points="602.639,1423.18 602.639,248.629 "/>
<polyline clip-path="url(#clip932)" style="stroke:#000000; stroke-linecap:round; stroke-linejoin:round; stroke-width:2; stroke-opacity:0.1; fill:none" points="940.499,1423.18 940.499,248.629 "/>
<polyline clip-path="url(#clip932)" style="stroke:#000000; stroke-linecap:round; stroke-linejoin:round; stroke-width:2; stroke-opacity:0.1; fill:none" points="1278.36,1423.18 1278.36,248.629 "/>
<polyline clip-path="url(#clip932)" style="stroke:#000000; stroke-linecap:round; stroke-linejoin:round; stroke-width:2; stroke-opacity:0.1; fill:none" points="1616.22,1423.18 1616.22,248.629 "/>
<polyline clip-path="url(#clip932)" style="stroke:#000000; stroke-linecap:round; stroke-linejoin:round; stroke-width:2; stroke-opacity:0.1; fill:none" points="1954.08,1423.18 1954.08,248.629 "/>
<polyline clip-path="url(#clip932)" style="stroke:#000000; stroke-linecap:round; stroke-linejoin:round; stroke-width:2; stroke-opacity:0.1; fill:none" points="2291.94,1423.18 2291.94,248.629 "/>
<polyline clip-path="url(#clip932)" style="stroke:#000000; stroke-linecap:round; stroke-linejoin:round; stroke-width:2; stroke-opacity:0.05; fill:none" points="332.351,1423.18 332.351,248.629 "/>
<polyline clip-path="url(#clip932)" style="stroke:#000000; stroke-linecap:round; stroke-linejoin:round; stroke-width:2; stroke-opacity:0.05; fill:none" points="399.923,1423.18 399.923,248.629 "/>
<polyline clip-path="url(#clip932)" style="stroke:#000000; stroke-linecap:round; stroke-linejoin:round; stroke-width:2; stroke-opacity:0.05; fill:none" points="467.495,1423.18 467.495,248.629 "/>
<polyline clip-path="url(#clip932)" style="stroke:#000000; stroke-linecap:round; stroke-linejoin:round; stroke-width:2; stroke-opacity:0.05; fill:none" points="535.067,1423.18 535.067,248.629 "/>
<polyline clip-path="url(#clip932)" style="stroke:#000000; stroke-linecap:round; stroke-linejoin:round; stroke-width:2; stroke-opacity:0.05; fill:none" points="670.211,1423.18 670.211,248.629 "/>
<polyline clip-path="url(#clip932)" style="stroke:#000000; stroke-linecap:round; stroke-linejoin:round; stroke-width:2; stroke-opacity:0.05; fill:none" points="737.783,1423.18 737.783,248.629 "/>
<polyline clip-path="url(#clip932)" style="stroke:#000000; stroke-linecap:round; stroke-linejoin:round; stroke-width:2; stroke-opacity:0.05; fill:none" points="805.355,1423.18 805.355,248.629 "/>
<polyline clip-path="url(#clip932)" style="stroke:#000000; stroke-linecap:round; stroke-linejoin:round; stroke-width:2; stroke-opacity:0.05; fill:none" points="872.927,1423.18 872.927,248.629 "/>
<polyline clip-path="url(#clip932)" style="stroke:#000000; stroke-linecap:round; stroke-linejoin:round; stroke-width:2; stroke-opacity:0.05; fill:none" points="1008.07,1423.18 1008.07,248.629 "/>
<polyline clip-path="url(#clip932)" style="stroke:#000000; stroke-linecap:round; stroke-linejoin:round; stroke-width:2; stroke-opacity:0.05; fill:none" points="1075.64,1423.18 1075.64,248.629 "/>
<polyline clip-path="url(#clip932)" style="stroke:#000000; stroke-linecap:round; stroke-linejoin:round; stroke-width:2; stroke-opacity:0.05; fill:none" points="1143.22,1423.18 1143.22,248.629 "/>
<polyline clip-path="url(#clip932)" style="stroke:#000000; stroke-linecap:round; stroke-linejoin:round; stroke-width:2; stroke-opacity:0.05; fill:none" points="1210.79,1423.18 1210.79,248.629 "/>
<polyline clip-path="url(#clip932)" style="stroke:#000000; stroke-linecap:round; stroke-linejoin:round; stroke-width:2; stroke-opacity:0.05; fill:none" points="1345.93,1423.18 1345.93,248.629 "/>
<polyline clip-path="url(#clip932)" style="stroke:#000000; stroke-linecap:round; stroke-linejoin:round; stroke-width:2; stroke-opacity:0.05; fill:none" points="1413.5,1423.18 1413.5,248.629 "/>
<polyline clip-path="url(#clip932)" style="stroke:#000000; stroke-linecap:round; stroke-linejoin:round; stroke-width:2; stroke-opacity:0.05; fill:none" points="1481.08,1423.18 1481.08,248.629 "/>
<polyline clip-path="url(#clip932)" style="stroke:#000000; stroke-linecap:round; stroke-linejoin:round; stroke-width:2; stroke-opacity:0.05; fill:none" points="1548.65,1423.18 1548.65,248.629 "/>
<polyline clip-path="url(#clip932)" style="stroke:#000000; stroke-linecap:round; stroke-linejoin:round; stroke-width:2; stroke-opacity:0.05; fill:none" points="1683.79,1423.18 1683.79,248.629 "/>
<polyline clip-path="url(#clip932)" style="stroke:#000000; stroke-linecap:round; stroke-linejoin:round; stroke-width:2; stroke-opacity:0.05; fill:none" points="1751.36,1423.18 1751.36,248.629 "/>
<polyline clip-path="url(#clip932)" style="stroke:#000000; stroke-linecap:round; stroke-linejoin:round; stroke-width:2; stroke-opacity:0.05; fill:none" points="1818.94,1423.18 1818.94,248.629 "/>
<polyline clip-path="url(#clip932)" style="stroke:#000000; stroke-linecap:round; stroke-linejoin:round; stroke-width:2; stroke-opacity:0.05; fill:none" points="1886.51,1423.18 1886.51,248.629 "/>
<polyline clip-path="url(#clip932)" style="stroke:#000000; stroke-linecap:round; stroke-linejoin:round; stroke-width:2; stroke-opacity:0.05; fill:none" points="2021.65,1423.18 2021.65,248.629 "/>
<polyline clip-path="url(#clip932)" style="stroke:#000000; stroke-linecap:round; stroke-linejoin:round; stroke-width:2; stroke-opacity:0.05; fill:none" points="2089.22,1423.18 2089.22,248.629 "/>
<polyline clip-path="url(#clip932)" style="stroke:#000000; stroke-linecap:round; stroke-linejoin:round; stroke-width:2; stroke-opacity:0.05; fill:none" points="2156.8,1423.18 2156.8,248.629 "/>
<polyline clip-path="url(#clip932)" style="stroke:#000000; stroke-linecap:round; stroke-linejoin:round; stroke-width:2; stroke-opacity:0.05; fill:none" points="2224.37,1423.18 2224.37,248.629 "/>
<polyline clip-path="url(#clip930)" style="stroke:#000000; stroke-linecap:round; stroke-linejoin:round; stroke-width:4; stroke-opacity:1; fill:none" points="203.964,1423.18 2352.76,1423.18 "/>
<polyline clip-path="url(#clip930)" style="stroke:#000000; stroke-linecap:round; stroke-linejoin:round; stroke-width:4; stroke-opacity:1; fill:none" points="264.778,1423.18 264.778,1407.05 "/>
<polyline clip-path="url(#clip930)" style="stroke:#000000; stroke-linecap:round; stroke-linejoin:round; stroke-width:4; stroke-opacity:1; fill:none" points="602.639,1423.18 602.639,1407.05 "/>
<polyline clip-path="url(#clip930)" style="stroke:#000000; stroke-linecap:round; stroke-linejoin:round; stroke-width:4; stroke-opacity:1; fill:none" points="940.499,1423.18 940.499,1407.05 "/>
<polyline clip-path="url(#clip930)" style="stroke:#000000; stroke-linecap:round; stroke-linejoin:round; stroke-width:4; stroke-opacity:1; fill:none" points="1278.36,1423.18 1278.36,1407.05 "/>
<polyline clip-path="url(#clip930)" style="stroke:#000000; stroke-linecap:round; stroke-linejoin:round; stroke-width:4; stroke-opacity:1; fill:none" points="1616.22,1423.18 1616.22,1407.05 "/>
<polyline clip-path="url(#clip930)" style="stroke:#000000; stroke-linecap:round; stroke-linejoin:round; stroke-width:4; stroke-opacity:1; fill:none" points="1954.08,1423.18 1954.08,1407.05 "/>
<polyline clip-path="url(#clip930)" style="stroke:#000000; stroke-linecap:round; stroke-linejoin:round; stroke-width:4; stroke-opacity:1; fill:none" points="2291.94,1423.18 2291.94,1407.05 "/>
<polyline clip-path="url(#clip930)" style="stroke:#000000; stroke-linecap:round; stroke-linejoin:round; stroke-width:4; stroke-opacity:1; fill:none" points="332.351,1423.18 332.351,1415.11 "/>
<polyline clip-path="url(#clip930)" style="stroke:#000000; stroke-linecap:round; stroke-linejoin:round; stroke-width:4; stroke-opacity:1; fill:none" points="399.923,1423.18 399.923,1415.11 "/>
<polyline clip-path="url(#clip930)" style="stroke:#000000; stroke-linecap:round; stroke-linejoin:round; stroke-width:4; stroke-opacity:1; fill:none" points="467.495,1423.18 467.495,1415.11 "/>
<polyline clip-path="url(#clip930)" style="stroke:#000000; stroke-linecap:round; stroke-linejoin:round; stroke-width:4; stroke-opacity:1; fill:none" points="535.067,1423.18 535.067,1415.11 "/>
<polyline clip-path="url(#clip930)" style="stroke:#000000; stroke-linecap:round; stroke-linejoin:round; stroke-width:4; stroke-opacity:1; fill:none" points="670.211,1423.18 670.211,1415.11 "/>
<polyline clip-path="url(#clip930)" style="stroke:#000000; stroke-linecap:round; stroke-linejoin:round; stroke-width:4; stroke-opacity:1; fill:none" points="737.783,1423.18 737.783,1415.11 "/>
<polyline clip-path="url(#clip930)" style="stroke:#000000; stroke-linecap:round; stroke-linejoin:round; stroke-width:4; stroke-opacity:1; fill:none" points="805.355,1423.18 805.355,1415.11 "/>
<polyline clip-path="url(#clip930)" style="stroke:#000000; stroke-linecap:round; stroke-linejoin:round; stroke-width:4; stroke-opacity:1; fill:none" points="872.927,1423.18 872.927,1415.11 "/>
<polyline clip-path="url(#clip930)" style="stroke:#000000; stroke-linecap:round; stroke-linejoin:round; stroke-width:4; stroke-opacity:1; fill:none" points="1008.07,1423.18 1008.07,1415.11 "/>
<polyline clip-path="url(#clip930)" style="stroke:#000000; stroke-linecap:round; stroke-linejoin:round; stroke-width:4; stroke-opacity:1; fill:none" points="1075.64,1423.18 1075.64,1415.11 "/>
<polyline clip-path="url(#clip930)" style="stroke:#000000; stroke-linecap:round; stroke-linejoin:round; stroke-width:4; stroke-opacity:1; fill:none" points="1143.22,1423.18 1143.22,1415.11 "/>
<polyline clip-path="url(#clip930)" style="stroke:#000000; stroke-linecap:round; stroke-linejoin:round; stroke-width:4; stroke-opacity:1; fill:none" points="1210.79,1423.18 1210.79,1415.11 "/>
<polyline clip-path="url(#clip930)" style="stroke:#000000; stroke-linecap:round; stroke-linejoin:round; stroke-width:4; stroke-opacity:1; fill:none" points="1345.93,1423.18 1345.93,1415.11 "/>
<polyline clip-path="url(#clip930)" style="stroke:#000000; stroke-linecap:round; stroke-linejoin:round; stroke-width:4; stroke-opacity:1; fill:none" points="1413.5,1423.18 1413.5,1415.11 "/>
<polyline clip-path="url(#clip930)" style="stroke:#000000; stroke-linecap:round; stroke-linejoin:round; stroke-width:4; stroke-opacity:1; fill:none" points="1481.08,1423.18 1481.08,1415.11 "/>
<polyline clip-path="url(#clip930)" style="stroke:#000000; stroke-linecap:round; stroke-linejoin:round; stroke-width:4; stroke-opacity:1; fill:none" points="1548.65,1423.18 1548.65,1415.11 "/>
<polyline clip-path="url(#clip930)" style="stroke:#000000; stroke-linecap:round; stroke-linejoin:round; stroke-width:4; stroke-opacity:1; fill:none" points="1683.79,1423.18 1683.79,1415.11 "/>
<polyline clip-path="url(#clip930)" style="stroke:#000000; stroke-linecap:round; stroke-linejoin:round; stroke-width:4; stroke-opacity:1; fill:none" points="1751.36,1423.18 1751.36,1415.11 "/>
<polyline clip-path="url(#clip930)" style="stroke:#000000; stroke-linecap:round; stroke-linejoin:round; stroke-width:4; stroke-opacity:1; fill:none" points="1818.94,1423.18 1818.94,1415.11 "/>
<polyline clip-path="url(#clip930)" style="stroke:#000000; stroke-linecap:round; stroke-linejoin:round; stroke-width:4; stroke-opacity:1; fill:none" points="1886.51,1423.18 1886.51,1415.11 "/>
<polyline clip-path="url(#clip930)" style="stroke:#000000; stroke-linecap:round; stroke-linejoin:round; stroke-width:4; stroke-opacity:1; fill:none" points="2021.65,1423.18 2021.65,1415.11 "/>
<polyline clip-path="url(#clip930)" style="stroke:#000000; stroke-linecap:round; stroke-linejoin:round; stroke-width:4; stroke-opacity:1; fill:none" points="2089.22,1423.18 2089.22,1415.11 "/>
<polyline clip-path="url(#clip930)" style="stroke:#000000; stroke-linecap:round; stroke-linejoin:round; stroke-width:4; stroke-opacity:1; fill:none" points="2156.8,1423.18 2156.8,1415.11 "/>
<polyline clip-path="url(#clip930)" style="stroke:#000000; stroke-linecap:round; stroke-linejoin:round; stroke-width:4; stroke-opacity:1; fill:none" points="2224.37,1423.18 2224.37,1415.11 "/>
<path clip-path="url(#clip930)" d="M255.16 1481.64 L262.799 1481.64 L262.799 1455.28 L254.489 1456.95 L254.489 1452.69 L262.753 1451.02 L267.429 1451.02 L267.429 1481.64 L275.068 1481.64 L275.068 1485.58 L255.16 1485.58 L255.16 1481.64 Z" fill="#000000" fill-rule="nonzero" fill-opacity="1" /><path clip-path="url(#clip930)" d="M597.292 1481.64 L613.611 1481.64 L613.611 1485.58 L591.667 1485.58 L591.667 1481.64 Q594.329 1478.89 598.912 1474.26 Q603.519 1469.61 604.699 1468.27 Q606.944 1465.74 607.824 1464.01 Q608.727 1462.25 608.727 1460.56 Q608.727 1457.8 606.782 1456.07 Q604.861 1454.33 601.759 1454.33 Q599.56 1454.33 597.107 1455.09 Q594.676 1455.86 591.898 1457.41 L591.898 1452.69 Q594.722 1451.55 597.176 1450.97 Q599.63 1450.39 601.667 1450.39 Q607.037 1450.39 610.231 1453.08 Q613.426 1455.77 613.426 1460.26 Q613.426 1462.39 612.616 1464.31 Q611.829 1466.2 609.722 1468.8 Q609.143 1469.47 606.042 1472.69 Q602.94 1475.88 597.292 1481.64 Z" fill="#000000" fill-rule="nonzero" fill-opacity="1" /><path clip-path="url(#clip930)" d="M944.747 1466.95 Q948.103 1467.66 949.978 1469.93 Q951.877 1472.2 951.877 1475.53 Q951.877 1480.65 948.358 1483.45 Q944.84 1486.25 938.358 1486.25 Q936.182 1486.25 933.867 1485.81 Q931.576 1485.39 929.122 1484.54 L929.122 1480.02 Q931.066 1481.16 933.381 1481.74 Q935.696 1482.32 938.219 1482.32 Q942.617 1482.32 944.909 1480.58 Q947.224 1478.84 947.224 1475.53 Q947.224 1472.48 945.071 1470.77 Q942.941 1469.03 939.122 1469.03 L935.094 1469.03 L935.094 1465.19 L939.307 1465.19 Q942.756 1465.19 944.585 1463.82 Q946.414 1462.43 946.414 1459.84 Q946.414 1457.18 944.515 1455.77 Q942.641 1454.33 939.122 1454.33 Q937.201 1454.33 935.002 1454.75 Q932.803 1455.16 930.164 1456.04 L930.164 1451.88 Q932.826 1451.14 935.141 1450.77 Q937.478 1450.39 939.539 1450.39 Q944.863 1450.39 947.965 1452.83 Q951.066 1455.23 951.066 1459.35 Q951.066 1462.22 949.423 1464.21 Q947.779 1466.18 944.747 1466.95 Z" fill="#000000" fill-rule="nonzero" fill-opacity="1" /><path clip-path="url(#clip930)" d="M1281.37 1455.09 L1269.56 1473.54 L1281.37 1473.54 L1281.37 1455.09 M1280.14 1451.02 L1286.02 1451.02 L1286.02 1473.54 L1290.95 1473.54 L1290.95 1477.43 L1286.02 1477.43 L1286.02 1485.58 L1281.37 1485.58 L1281.37 1477.43 L1265.77 1477.43 L1265.77 1472.92 L1280.14 1451.02 Z" fill="#000000" fill-rule="nonzero" fill-opacity="1" /><path clip-path="url(#clip930)" d="M1606.5 1451.02 L1624.85 1451.02 L1624.85 1454.96 L1610.78 1454.96 L1610.78 1463.43 Q1611.8 1463.08 1612.82 1462.92 Q1613.84 1462.73 1614.85 1462.73 Q1620.64 1462.73 1624.02 1465.9 Q1627.4 1469.08 1627.4 1474.49 Q1627.4 1480.07 1623.93 1483.17 Q1620.46 1486.25 1614.14 1486.25 Q1611.96 1486.25 1609.69 1485.88 Q1607.45 1485.51 1605.04 1484.77 L1605.04 1480.07 Q1607.12 1481.2 1609.35 1481.76 Q1611.57 1482.32 1614.04 1482.32 Q1618.05 1482.32 1620.39 1480.21 Q1622.72 1478.1 1622.72 1474.49 Q1622.72 1470.88 1620.39 1468.77 Q1618.05 1466.67 1614.04 1466.67 Q1612.17 1466.67 1610.29 1467.08 Q1608.44 1467.5 1606.5 1468.38 L1606.5 1451.02 Z" fill="#000000" fill-rule="nonzero" fill-opacity="1" /><path clip-path="url(#clip930)" d="M1954.49 1466.44 Q1951.34 1466.44 1949.49 1468.59 Q1947.66 1470.74 1947.66 1474.49 Q1947.66 1478.22 1949.49 1480.39 Q1951.34 1482.55 1954.49 1482.55 Q1957.63 1482.55 1959.46 1480.39 Q1961.31 1478.22 1961.31 1474.49 Q1961.31 1470.74 1959.46 1468.59 Q1957.63 1466.44 1954.49 1466.44 M1963.77 1451.78 L1963.77 1456.04 Q1962.01 1455.21 1960.2 1454.77 Q1958.42 1454.33 1956.66 1454.33 Q1952.03 1454.33 1949.58 1457.45 Q1947.15 1460.58 1946.8 1466.9 Q1948.17 1464.89 1950.23 1463.82 Q1952.29 1462.73 1954.76 1462.73 Q1959.97 1462.73 1962.98 1465.9 Q1966.01 1469.05 1966.01 1474.49 Q1966.01 1479.82 1962.87 1483.03 Q1959.72 1486.25 1954.49 1486.25 Q1948.49 1486.25 1945.32 1481.67 Q1942.15 1477.06 1942.15 1468.33 Q1942.15 1460.14 1946.04 1455.28 Q1949.93 1450.39 1956.48 1450.39 Q1958.24 1450.39 1960.02 1450.74 Q1961.82 1451.09 1963.77 1451.78 Z" fill="#000000" fill-rule="nonzero" fill-opacity="1" /><path clip-path="url(#clip930)" d="M2280.83 1451.02 L2303.05 1451.02 L2303.05 1453.01 L2290.51 1485.58 L2285.62 1485.58 L2297.43 1454.96 L2280.83 1454.96 L2280.83 1451.02 Z" fill="#000000" fill-rule="nonzero" fill-opacity="1" /><path clip-path="url(#clip930)" d="M1097.91 1525.81 L1097.91 1562.76 L1105.67 1562.76 Q1115.51 1562.76 1120.06 1558.3 Q1124.64 1553.85 1124.64 1544.24 Q1124.64 1534.69 1120.06 1530.26 Q1115.51 1525.81 1105.67 1525.81 L1097.91 1525.81 M1091.48 1520.52 L1104.69 1520.52 Q1118.5 1520.52 1124.96 1526.28 Q1131.42 1532.01 1131.42 1544.24 Q1131.42 1556.52 1124.93 1562.28 Q1118.44 1568.04 1104.69 1568.04 L1091.48 1568.04 L1091.48 1520.52 Z" fill="#000000" fill-rule="nonzero" fill-opacity="1" /><path clip-path="url(#clip930)" d="M1157.62 1550.12 Q1150.52 1550.12 1147.78 1551.75 Q1145.05 1553.37 1145.05 1557.29 Q1145.05 1560.4 1147.08 1562.25 Q1149.15 1564.07 1152.68 1564.07 Q1157.55 1564.07 1160.48 1560.63 Q1163.44 1557.16 1163.44 1551.43 L1163.44 1550.12 L1157.62 1550.12 M1169.3 1547.71 L1169.3 1568.04 L1163.44 1568.04 L1163.44 1562.63 Q1161.44 1565.88 1158.45 1567.44 Q1155.45 1568.97 1151.13 1568.97 Q1145.65 1568.97 1142.4 1565.91 Q1139.19 1562.82 1139.19 1557.67 Q1139.19 1551.65 1143.2 1548.6 Q1147.24 1545.54 1155.23 1545.54 L1163.44 1545.54 L1163.44 1544.97 Q1163.44 1540.93 1160.77 1538.73 Q1158.13 1536.5 1153.32 1536.5 Q1150.27 1536.5 1147.37 1537.23 Q1144.47 1537.97 1141.8 1539.43 L1141.8 1534.02 Q1145.01 1532.78 1148.04 1532.17 Q1151.06 1531.54 1153.93 1531.54 Q1161.66 1531.54 1165.48 1535.55 Q1169.3 1539.56 1169.3 1547.71 Z" fill="#000000" fill-rule="nonzero" fill-opacity="1" /><path clip-path="url(#clip930)" d="M1196.19 1571.35 Q1193.71 1577.72 1191.36 1579.66 Q1189 1581.6 1185.05 1581.6 L1180.38 1581.6 L1180.38 1576.7 L1183.81 1576.7 Q1186.23 1576.7 1187.57 1575.56 Q1188.91 1574.41 1190.53 1570.14 L1191.58 1567.47 L1177.16 1532.4 L1183.37 1532.4 L1194.51 1560.28 L1205.65 1532.4 L1211.85 1532.4 L1196.19 1571.35 Z" fill="#000000" fill-rule="nonzero" fill-opacity="1" /><path clip-path="url(#clip930)" d="M1242.66 1533.45 L1242.66 1538.98 Q1240.18 1537.71 1237.51 1537.07 Q1234.83 1536.44 1231.97 1536.44 Q1227.61 1536.44 1225.41 1537.77 Q1223.25 1539.11 1223.25 1541.79 Q1223.25 1543.82 1224.81 1545 Q1226.37 1546.15 1231.08 1547.2 L1233.08 1547.64 Q1239.32 1548.98 1241.93 1551.43 Q1244.57 1553.85 1244.57 1558.21 Q1244.57 1563.17 1240.63 1566.07 Q1236.71 1568.97 1229.84 1568.97 Q1226.97 1568.97 1223.85 1568.39 Q1220.77 1567.85 1217.33 1566.74 L1217.33 1560.69 Q1220.58 1562.38 1223.73 1563.24 Q1226.88 1564.07 1229.96 1564.07 Q1234.1 1564.07 1236.33 1562.66 Q1238.56 1561.23 1238.56 1558.65 Q1238.56 1556.27 1236.93 1554.99 Q1235.34 1553.72 1229.9 1552.54 L1227.86 1552.07 Q1222.42 1550.92 1220 1548.56 Q1217.58 1546.18 1217.58 1542.04 Q1217.58 1537.01 1221.15 1534.27 Q1224.71 1531.54 1231.27 1531.54 Q1234.52 1531.54 1237.38 1532.01 Q1240.25 1532.49 1242.66 1533.45 Z" fill="#000000" fill-rule="nonzero" fill-opacity="1" /><path clip-path="url(#clip930)" d="M1290.82 1550.12 Q1283.72 1550.12 1280.99 1551.75 Q1278.25 1553.37 1278.25 1557.29 Q1278.25 1560.4 1280.29 1562.25 Q1282.35 1564.07 1285.89 1564.07 Q1290.76 1564.07 1293.69 1560.63 Q1296.65 1557.16 1296.65 1551.43 L1296.65 1550.12 L1290.82 1550.12 M1302.5 1547.71 L1302.5 1568.04 L1296.65 1568.04 L1296.65 1562.63 Q1294.64 1565.88 1291.65 1567.44 Q1288.66 1568.97 1284.33 1568.97 Q1278.85 1568.97 1275.61 1565.91 Q1272.39 1562.82 1272.39 1557.67 Q1272.39 1551.65 1276.4 1548.6 Q1280.44 1545.54 1288.43 1545.54 L1296.65 1545.54 L1296.65 1544.97 Q1296.65 1540.93 1293.97 1538.73 Q1291.33 1536.5 1286.52 1536.5 Q1283.47 1536.5 1280.57 1537.23 Q1277.68 1537.97 1275 1539.43 L1275 1534.02 Q1278.22 1532.78 1281.24 1532.17 Q1284.26 1531.54 1287.13 1531.54 Q1294.86 1531.54 1298.68 1535.55 Q1302.5 1539.56 1302.5 1547.71 Z" fill="#000000" fill-rule="nonzero" fill-opacity="1" /><path clip-path="url(#clip930)" d="M1344.2 1546.53 L1344.2 1568.04 L1338.34 1568.04 L1338.34 1546.72 Q1338.34 1541.66 1336.37 1539.14 Q1334.39 1536.63 1330.45 1536.63 Q1325.7 1536.63 1322.97 1539.65 Q1320.23 1542.68 1320.23 1547.9 L1320.23 1568.04 L1314.34 1568.04 L1314.34 1518.52 L1320.23 1518.52 L1320.23 1537.93 Q1322.33 1534.72 1325.16 1533.13 Q1328.03 1531.54 1331.75 1531.54 Q1337.9 1531.54 1341.05 1535.36 Q1344.2 1539.14 1344.2 1546.53 Z" fill="#000000" fill-rule="nonzero" fill-opacity="1" /><path clip-path="url(#clip930)" d="M1386.37 1548.76 L1386.37 1551.62 L1359.44 1551.62 Q1359.82 1557.67 1363.07 1560.85 Q1366.35 1564 1372.17 1564 Q1375.55 1564 1378.7 1563.17 Q1381.88 1562.35 1385 1560.69 L1385 1566.23 Q1381.85 1567.57 1378.54 1568.27 Q1375.23 1568.97 1371.82 1568.97 Q1363.29 1568.97 1358.3 1564 Q1353.33 1559.04 1353.33 1550.57 Q1353.33 1541.82 1358.04 1536.69 Q1362.78 1531.54 1370.81 1531.54 Q1378 1531.54 1382.17 1536.18 Q1386.37 1540.8 1386.37 1548.76 M1380.51 1547.04 Q1380.45 1542.23 1377.81 1539.37 Q1375.2 1536.5 1370.87 1536.5 Q1365.97 1536.5 1363.01 1539.27 Q1360.08 1542.04 1359.63 1547.07 L1380.51 1547.04 Z" fill="#000000" fill-rule="nonzero" fill-opacity="1" /><path clip-path="url(#clip930)" d="M1412.18 1550.12 Q1405.09 1550.12 1402.35 1551.75 Q1399.61 1553.37 1399.61 1557.29 Q1399.61 1560.4 1401.65 1562.25 Q1403.72 1564.07 1407.25 1564.07 Q1412.12 1564.07 1415.05 1560.63 Q1418.01 1557.16 1418.01 1551.43 L1418.01 1550.12 L1412.18 1550.12 M1423.86 1547.71 L1423.86 1568.04 L1418.01 1568.04 L1418.01 1562.63 Q1416 1565.88 1413.01 1567.44 Q1410.02 1568.97 1405.69 1568.97 Q1400.22 1568.97 1396.97 1565.91 Q1393.75 1562.82 1393.75 1557.67 Q1393.75 1551.65 1397.76 1548.6 Q1401.81 1545.54 1409.8 1545.54 L1418.01 1545.54 L1418.01 1544.97 Q1418.01 1540.93 1415.33 1538.73 Q1412.69 1536.5 1407.89 1536.5 Q1404.83 1536.5 1401.93 1537.23 Q1399.04 1537.97 1396.36 1539.43 L1396.36 1534.02 Q1399.58 1532.78 1402.6 1532.17 Q1405.63 1531.54 1408.49 1531.54 Q1416.23 1531.54 1420.04 1535.55 Q1423.86 1539.56 1423.86 1547.71 Z" fill="#000000" fill-rule="nonzero" fill-opacity="1" /><path clip-path="url(#clip930)" d="M1459.38 1537.81 L1459.38 1518.52 L1465.24 1518.52 L1465.24 1568.04 L1459.38 1568.04 L1459.38 1562.7 Q1457.54 1565.88 1454.71 1567.44 Q1451.9 1568.97 1447.96 1568.97 Q1441.5 1568.97 1437.42 1563.81 Q1433.38 1558.65 1433.38 1550.25 Q1433.38 1541.85 1437.42 1536.69 Q1441.5 1531.54 1447.96 1531.54 Q1451.9 1531.54 1454.71 1533.1 Q1457.54 1534.62 1459.38 1537.81 M1439.43 1550.25 Q1439.43 1556.71 1442.07 1560.4 Q1444.74 1564.07 1449.39 1564.07 Q1454.04 1564.07 1456.71 1560.4 Q1459.38 1556.71 1459.38 1550.25 Q1459.38 1543.79 1456.71 1540.13 Q1454.04 1536.44 1449.39 1536.44 Q1444.74 1536.44 1442.07 1540.13 Q1439.43 1543.79 1439.43 1550.25 Z" fill="#000000" fill-rule="nonzero" fill-opacity="1" /><polyline clip-path="url(#clip932)" style="stroke:#000000; stroke-linecap:round; stroke-linejoin:round; stroke-width:2; stroke-opacity:0.1; fill:none" points="203.964,1179.22 2352.76,1179.22 "/>
<polyline clip-path="url(#clip932)" style="stroke:#000000; stroke-linecap:round; stroke-linejoin:round; stroke-width:2; stroke-opacity:0.1; fill:none" points="203.964,915.438 2352.76,915.438 "/>
<polyline clip-path="url(#clip932)" style="stroke:#000000; stroke-linecap:round; stroke-linejoin:round; stroke-width:2; stroke-opacity:0.1; fill:none" points="203.964,651.657 2352.76,651.657 "/>
<polyline clip-path="url(#clip932)" style="stroke:#000000; stroke-linecap:round; stroke-linejoin:round; stroke-width:2; stroke-opacity:0.1; fill:none" points="203.964,387.876 2352.76,387.876 "/>
<polyline clip-path="url(#clip932)" style="stroke:#000000; stroke-linecap:round; stroke-linejoin:round; stroke-width:2; stroke-opacity:0.05; fill:none" points="203.964,1390.24 2352.76,1390.24 "/>
<polyline clip-path="url(#clip932)" style="stroke:#000000; stroke-linecap:round; stroke-linejoin:round; stroke-width:2; stroke-opacity:0.05; fill:none" points="203.964,1337.49 2352.76,1337.49 "/>
<polyline clip-path="url(#clip932)" style="stroke:#000000; stroke-linecap:round; stroke-linejoin:round; stroke-width:2; stroke-opacity:0.05; fill:none" points="203.964,1284.73 2352.76,1284.73 "/>
<polyline clip-path="url(#clip932)" style="stroke:#000000; stroke-linecap:round; stroke-linejoin:round; stroke-width:2; stroke-opacity:0.05; fill:none" points="203.964,1231.97 2352.76,1231.97 "/>
<polyline clip-path="url(#clip932)" style="stroke:#000000; stroke-linecap:round; stroke-linejoin:round; stroke-width:2; stroke-opacity:0.05; fill:none" points="203.964,1126.46 2352.76,1126.46 "/>
<polyline clip-path="url(#clip932)" style="stroke:#000000; stroke-linecap:round; stroke-linejoin:round; stroke-width:2; stroke-opacity:0.05; fill:none" points="203.964,1073.71 2352.76,1073.71 "/>
<polyline clip-path="url(#clip932)" style="stroke:#000000; stroke-linecap:round; stroke-linejoin:round; stroke-width:2; stroke-opacity:0.05; fill:none" points="203.964,1020.95 2352.76,1020.95 "/>
<polyline clip-path="url(#clip932)" style="stroke:#000000; stroke-linecap:round; stroke-linejoin:round; stroke-width:2; stroke-opacity:0.05; fill:none" points="203.964,968.194 2352.76,968.194 "/>
<polyline clip-path="url(#clip932)" style="stroke:#000000; stroke-linecap:round; stroke-linejoin:round; stroke-width:2; stroke-opacity:0.05; fill:none" points="203.964,862.682 2352.76,862.682 "/>
<polyline clip-path="url(#clip932)" style="stroke:#000000; stroke-linecap:round; stroke-linejoin:round; stroke-width:2; stroke-opacity:0.05; fill:none" points="203.964,809.926 2352.76,809.926 "/>
<polyline clip-path="url(#clip932)" style="stroke:#000000; stroke-linecap:round; stroke-linejoin:round; stroke-width:2; stroke-opacity:0.05; fill:none" points="203.964,757.17 2352.76,757.17 "/>
<polyline clip-path="url(#clip932)" style="stroke:#000000; stroke-linecap:round; stroke-linejoin:round; stroke-width:2; stroke-opacity:0.05; fill:none" points="203.964,704.413 2352.76,704.413 "/>
<polyline clip-path="url(#clip932)" style="stroke:#000000; stroke-linecap:round; stroke-linejoin:round; stroke-width:2; stroke-opacity:0.05; fill:none" points="203.964,598.901 2352.76,598.901 "/>
<polyline clip-path="url(#clip932)" style="stroke:#000000; stroke-linecap:round; stroke-linejoin:round; stroke-width:2; stroke-opacity:0.05; fill:none" points="203.964,546.145 2352.76,546.145 "/>
<polyline clip-path="url(#clip932)" style="stroke:#000000; stroke-linecap:round; stroke-linejoin:round; stroke-width:2; stroke-opacity:0.05; fill:none" points="203.964,493.389 2352.76,493.389 "/>
<polyline clip-path="url(#clip932)" style="stroke:#000000; stroke-linecap:round; stroke-linejoin:round; stroke-width:2; stroke-opacity:0.05; fill:none" points="203.964,440.633 2352.76,440.633 "/>
<polyline clip-path="url(#clip932)" style="stroke:#000000; stroke-linecap:round; stroke-linejoin:round; stroke-width:2; stroke-opacity:0.05; fill:none" points="203.964,335.12 2352.76,335.12 "/>
<polyline clip-path="url(#clip932)" style="stroke:#000000; stroke-linecap:round; stroke-linejoin:round; stroke-width:2; stroke-opacity:0.05; fill:none" points="203.964,282.364 2352.76,282.364 "/>
<polyline clip-path="url(#clip930)" style="stroke:#000000; stroke-linecap:round; stroke-linejoin:round; stroke-width:4; stroke-opacity:1; fill:none" points="203.964,1423.18 203.964,248.629 "/>
<polyline clip-path="url(#clip930)" style="stroke:#000000; stroke-linecap:round; stroke-linejoin:round; stroke-width:4; stroke-opacity:1; fill:none" points="203.964,1179.22 222.861,1179.22 "/>
<polyline clip-path="url(#clip930)" style="stroke:#000000; stroke-linecap:round; stroke-linejoin:round; stroke-width:4; stroke-opacity:1; fill:none" points="203.964,915.438 222.861,915.438 "/>
<polyline clip-path="url(#clip930)" style="stroke:#000000; stroke-linecap:round; stroke-linejoin:round; stroke-width:4; stroke-opacity:1; fill:none" points="203.964,651.657 222.861,651.657 "/>
<polyline clip-path="url(#clip930)" style="stroke:#000000; stroke-linecap:round; stroke-linejoin:round; stroke-width:4; stroke-opacity:1; fill:none" points="203.964,387.876 222.861,387.876 "/>
<polyline clip-path="url(#clip930)" style="stroke:#000000; stroke-linecap:round; stroke-linejoin:round; stroke-width:4; stroke-opacity:1; fill:none" points="203.964,1390.24 213.412,1390.24 "/>
<polyline clip-path="url(#clip930)" style="stroke:#000000; stroke-linecap:round; stroke-linejoin:round; stroke-width:4; stroke-opacity:1; fill:none" points="203.964,1337.49 213.412,1337.49 "/>
<polyline clip-path="url(#clip930)" style="stroke:#000000; stroke-linecap:round; stroke-linejoin:round; stroke-width:4; stroke-opacity:1; fill:none" points="203.964,1284.73 213.412,1284.73 "/>
<polyline clip-path="url(#clip930)" style="stroke:#000000; stroke-linecap:round; stroke-linejoin:round; stroke-width:4; stroke-opacity:1; fill:none" points="203.964,1231.97 213.412,1231.97 "/>
<polyline clip-path="url(#clip930)" style="stroke:#000000; stroke-linecap:round; stroke-linejoin:round; stroke-width:4; stroke-opacity:1; fill:none" points="203.964,1126.46 213.412,1126.46 "/>
<polyline clip-path="url(#clip930)" style="stroke:#000000; stroke-linecap:round; stroke-linejoin:round; stroke-width:4; stroke-opacity:1; fill:none" points="203.964,1073.71 213.412,1073.71 "/>
<polyline clip-path="url(#clip930)" style="stroke:#000000; stroke-linecap:round; stroke-linejoin:round; stroke-width:4; stroke-opacity:1; fill:none" points="203.964,1020.95 213.412,1020.95 "/>
<polyline clip-path="url(#clip930)" style="stroke:#000000; stroke-linecap:round; stroke-linejoin:round; stroke-width:4; stroke-opacity:1; fill:none" points="203.964,968.194 213.412,968.194 "/>
<polyline clip-path="url(#clip930)" style="stroke:#000000; stroke-linecap:round; stroke-linejoin:round; stroke-width:4; stroke-opacity:1; fill:none" points="203.964,862.682 213.412,862.682 "/>
<polyline clip-path="url(#clip930)" style="stroke:#000000; stroke-linecap:round; stroke-linejoin:round; stroke-width:4; stroke-opacity:1; fill:none" points="203.964,809.926 213.412,809.926 "/>
<polyline clip-path="url(#clip930)" style="stroke:#000000; stroke-linecap:round; stroke-linejoin:round; stroke-width:4; stroke-opacity:1; fill:none" points="203.964,757.17 213.412,757.17 "/>
<polyline clip-path="url(#clip930)" style="stroke:#000000; stroke-linecap:round; stroke-linejoin:round; stroke-width:4; stroke-opacity:1; fill:none" points="203.964,704.413 213.412,704.413 "/>
<polyline clip-path="url(#clip930)" style="stroke:#000000; stroke-linecap:round; stroke-linejoin:round; stroke-width:4; stroke-opacity:1; fill:none" points="203.964,598.901 213.412,598.901 "/>
<polyline clip-path="url(#clip930)" style="stroke:#000000; stroke-linecap:round; stroke-linejoin:round; stroke-width:4; stroke-opacity:1; fill:none" points="203.964,546.145 213.412,546.145 "/>
<polyline clip-path="url(#clip930)" style="stroke:#000000; stroke-linecap:round; stroke-linejoin:round; stroke-width:4; stroke-opacity:1; fill:none" points="203.964,493.389 213.412,493.389 "/>
<polyline clip-path="url(#clip930)" style="stroke:#000000; stroke-linecap:round; stroke-linejoin:round; stroke-width:4; stroke-opacity:1; fill:none" points="203.964,440.633 213.412,440.633 "/>
<polyline clip-path="url(#clip930)" style="stroke:#000000; stroke-linecap:round; stroke-linejoin:round; stroke-width:4; stroke-opacity:1; fill:none" points="203.964,335.12 213.412,335.12 "/>
<polyline clip-path="url(#clip930)" style="stroke:#000000; stroke-linecap:round; stroke-linejoin:round; stroke-width:4; stroke-opacity:1; fill:none" points="203.964,282.364 213.412,282.364 "/>
<path clip-path="url(#clip930)" d="M147.061 1161.94 L165.417 1161.94 L165.417 1165.87 L151.343 1165.87 L151.343 1174.35 Q152.362 1174 153.38 1173.84 Q154.399 1173.65 155.417 1173.65 Q161.204 1173.65 164.584 1176.82 Q167.964 1179.99 167.964 1185.41 Q167.964 1190.99 164.491 1194.09 Q161.019 1197.17 154.7 1197.17 Q152.524 1197.17 150.255 1196.8 Q148.01 1196.43 145.603 1195.69 L145.603 1190.99 Q147.686 1192.12 149.908 1192.68 Q152.13 1193.23 154.607 1193.23 Q158.612 1193.23 160.95 1191.13 Q163.288 1189.02 163.288 1185.41 Q163.288 1181.8 160.95 1179.69 Q158.612 1177.59 154.607 1177.59 Q152.732 1177.59 150.857 1178 Q149.005 1178.42 147.061 1179.3 L147.061 1161.94 Z" fill="#000000" fill-rule="nonzero" fill-opacity="1" /><path clip-path="url(#clip930)" d="M116.668 928.783 L124.306 928.783 L124.306 902.417 L115.996 904.084 L115.996 899.825 L124.26 898.158 L128.936 898.158 L128.936 928.783 L136.575 928.783 L136.575 932.718 L116.668 932.718 L116.668 928.783 Z" fill="#000000" fill-rule="nonzero" fill-opacity="1" /><path clip-path="url(#clip930)" d="M156.019 901.237 Q152.408 901.237 150.579 904.801 Q148.774 908.343 148.774 915.473 Q148.774 922.579 150.579 926.144 Q152.408 929.686 156.019 929.686 Q159.653 929.686 161.459 926.144 Q163.288 922.579 163.288 915.473 Q163.288 908.343 161.459 904.801 Q159.653 901.237 156.019 901.237 M156.019 897.533 Q161.829 897.533 164.885 902.139 Q167.964 906.723 167.964 915.473 Q167.964 924.2 164.885 928.806 Q161.829 933.389 156.019 933.389 Q150.209 933.389 147.13 928.806 Q144.075 924.2 144.075 915.473 Q144.075 906.723 147.13 902.139 Q150.209 897.533 156.019 897.533 Z" fill="#000000" fill-rule="nonzero" fill-opacity="1" /><path clip-path="url(#clip930)" d="M117.663 665.002 L125.302 665.002 L125.302 638.636 L116.992 640.303 L116.992 636.044 L125.255 634.377 L129.931 634.377 L129.931 665.002 L137.57 665.002 L137.57 668.937 L117.663 668.937 L117.663 665.002 Z" fill="#000000" fill-rule="nonzero" fill-opacity="1" /><path clip-path="url(#clip930)" d="M147.061 634.377 L165.417 634.377 L165.417 638.312 L151.343 638.312 L151.343 646.785 Q152.362 646.437 153.38 646.275 Q154.399 646.09 155.417 646.09 Q161.204 646.09 164.584 649.261 Q167.964 652.433 167.964 657.849 Q167.964 663.428 164.491 666.53 Q161.019 669.609 154.7 669.609 Q152.524 669.609 150.255 669.238 Q148.01 668.868 145.603 668.127 L145.603 663.428 Q147.686 664.562 149.908 665.118 Q152.13 665.673 154.607 665.673 Q158.612 665.673 160.95 663.567 Q163.288 661.46 163.288 657.849 Q163.288 654.238 160.95 652.132 Q158.612 650.025 154.607 650.025 Q152.732 650.025 150.857 650.442 Q149.005 650.859 147.061 651.738 L147.061 634.377 Z" fill="#000000" fill-rule="nonzero" fill-opacity="1" /><path clip-path="url(#clip930)" d="M119.885 401.221 L136.204 401.221 L136.204 405.156 L114.26 405.156 L114.26 401.221 Q116.922 398.467 121.505 393.837 Q126.112 389.184 127.292 387.842 Q129.538 385.319 130.417 383.582 Q131.32 381.823 131.32 380.133 Q131.32 377.379 129.376 375.643 Q127.455 373.907 124.353 373.907 Q122.154 373.907 119.7 374.67 Q117.269 375.434 114.492 376.985 L114.492 372.263 Q117.316 371.129 119.769 370.55 Q122.223 369.971 124.26 369.971 Q129.63 369.971 132.825 372.657 Q136.019 375.342 136.019 379.832 Q136.019 381.962 135.209 383.883 Q134.422 385.782 132.316 388.374 Q131.737 389.045 128.635 392.263 Q125.533 395.457 119.885 401.221 Z" fill="#000000" fill-rule="nonzero" fill-opacity="1" /><path clip-path="url(#clip930)" d="M156.019 373.675 Q152.408 373.675 150.579 377.24 Q148.774 380.782 148.774 387.911 Q148.774 395.018 150.579 398.582 Q152.408 402.124 156.019 402.124 Q159.653 402.124 161.459 398.582 Q163.288 395.018 163.288 387.911 Q163.288 380.782 161.459 377.24 Q159.653 373.675 156.019 373.675 M156.019 369.971 Q161.829 369.971 164.885 374.578 Q167.964 379.161 167.964 387.911 Q167.964 396.638 164.885 401.244 Q161.829 405.828 156.019 405.828 Q150.209 405.828 147.13 401.244 Q144.075 396.638 144.075 387.911 Q144.075 379.161 147.13 374.578 Q150.209 369.971 156.019 369.971 Z" fill="#000000" fill-rule="nonzero" fill-opacity="1" /><path clip-path="url(#clip930)" d="M16.4842 937.135 L16.4842 927.554 L48.8219 915.428 L16.4842 903.237 L16.4842 893.657 L64.0042 893.657 L64.0042 899.927 L22.277 899.927 L54.8694 912.181 L54.8694 918.643 L22.277 930.896 L64.0042 930.896 L64.0042 937.135 L16.4842 937.135 Z" fill="#000000" fill-rule="nonzero" fill-opacity="1" /><path clip-path="url(#clip930)" d="M41.7242 858.359 Q42.4244 856.29 44.7161 854.349 Q47.0077 852.375 51.0181 850.402 L64.0042 843.877 L64.0042 850.784 L51.8138 856.863 Q47.0395 859.219 45.48 861.447 Q43.9204 863.643 43.9204 867.462 L43.9204 874.464 L64.0042 874.464 L64.0042 880.894 L16.4842 880.894 L16.4842 866.38 Q16.4842 858.232 19.8898 854.222 Q23.2955 850.211 30.1704 850.211 Q34.6582 850.211 37.6183 852.312 Q40.5784 854.381 41.7242 858.359 M21.7677 874.464 L38.6368 874.464 L38.6368 866.38 Q38.6368 861.733 36.5043 859.378 Q34.34 856.991 30.1704 856.991 Q26.0009 856.991 23.9002 859.378 Q21.7677 861.733 21.7677 866.38 L21.7677 874.464 Z" fill="#000000" fill-rule="nonzero" fill-opacity="1" /><path clip-path="url(#clip930)" d="M22.818 822.361 L46.4666 831.082 L46.4666 813.608 L22.818 822.361 M16.4842 825.99 L16.4842 818.701 L64.0042 800.59 L64.0042 807.274 L51.8138 811.603 L51.8138 833.024 L64.0042 837.352 L64.0042 844.132 L16.4842 825.99 Z" fill="#000000" fill-rule="nonzero" fill-opacity="1" /><path clip-path="url(#clip930)" d="M16.4842 793.652 L16.4842 763.606 L21.895 763.606 L21.895 787.222 L35.9632 787.222 L35.9632 764.592 L41.3741 764.592 L41.3741 787.222 L58.5933 787.222 L58.5933 763.033 L64.0042 763.033 L64.0042 793.652 L16.4842 793.652 Z" fill="#000000" fill-rule="nonzero" fill-opacity="1" /><path clip-path="url(#clip930)" d="M14.479 734.674 L19.3487 734.674 L19.3487 740.275 Q19.3487 743.426 20.6219 744.668 Q21.895 745.877 25.2052 745.877 L28.3562 745.877 L28.3562 736.233 L32.9077 736.233 L32.9077 745.877 L64.0042 745.877 L64.0042 751.766 L32.9077 751.766 L32.9077 757.367 L28.3562 757.367 L28.3562 751.766 L25.8736 751.766 Q19.9216 751.766 17.2162 748.996 Q14.479 746.227 14.479 740.212 L14.479 734.674 Z" fill="#000000" fill-rule="nonzero" fill-opacity="1" /><polyline clip-path="url(#clip932)" style="stroke:#009af9; stroke-linecap:round; stroke-linejoin:round; stroke-width:4; stroke-opacity:1; fill:none" points="264.778,1389.35 602.639,1389.37 940.499,1389.35 1278.36,1389.47 1616.22,1389.44 1954.08,1389.42 2291.94,1389.4 "/>
<polyline clip-path="url(#clip932)" style="stroke:#e26f46; stroke-linecap:round; stroke-linejoin:round; stroke-width:4; stroke-opacity:1; fill:none" points="264.778,1387.97 602.639,1387.82 940.499,1387.45 1278.36,1387.27 1616.22,1386.8 1954.08,1386.02 2291.94,1385.12 "/>
<polyline clip-path="url(#clip932)" style="stroke:#3da44d; stroke-linecap:round; stroke-linejoin:round; stroke-width:4; stroke-opacity:1; fill:none" points="264.778,1389.89 602.639,1389.9 940.499,1389.89 1278.36,1389.89 1616.22,1389.91 1954.08,1389.94 2291.94,1389.92 "/>
<polyline clip-path="url(#clip932)" style="stroke:#c271d2; stroke-linecap:round; stroke-linejoin:round; stroke-width:4; stroke-opacity:1; fill:none" points="264.778,694.351 602.639,351.98 940.499,775.991 1278.36,584.316 1616.22,601.523 1954.08,281.871 2291.94,737.563 "/>
<path clip-path="url(#clip930)" d="M662.388 202.764 L1894.33 202.764 L1894.33 47.2441 L662.388 47.2441  Z" fill="#ffffff" fill-rule="evenodd" fill-opacity="1"/>
<polyline clip-path="url(#clip930)" style="stroke:#000000; stroke-linecap:round; stroke-linejoin:round; stroke-width:4; stroke-opacity:1; fill:none" points="662.388,202.764 1894.33,202.764 1894.33,47.2441 662.388,47.2441 662.388,202.764 "/>
<polyline clip-path="url(#clip930)" style="stroke:#009af9; stroke-linecap:round; stroke-linejoin:round; stroke-width:4; stroke-opacity:1; fill:none" points="686.264,99.0841 829.516,99.0841 "/>
<path clip-path="url(#clip930)" d="M853.392 81.8041 L858.068 81.8041 L858.068 112.429 L874.896 112.429 L874.896 116.364 L853.392 116.364 L853.392 81.8041 Z" fill="#000000" fill-rule="nonzero" fill-opacity="1" /><path clip-path="url(#clip930)" d="M891.401 103.332 Q886.239 103.332 884.248 104.512 Q882.257 105.693 882.257 108.54 Q882.257 110.809 883.739 112.151 Q885.243 113.471 887.813 113.471 Q891.355 113.471 893.484 110.971 Q895.637 108.447 895.637 104.281 L895.637 103.332 L891.401 103.332 M899.896 101.573 L899.896 116.364 L895.637 116.364 L895.637 112.429 Q894.179 114.79 892.003 115.924 Q889.827 117.035 886.679 117.035 Q882.697 117.035 880.336 114.813 Q877.998 112.568 877.998 108.818 Q877.998 104.443 880.915 102.221 Q883.855 99.9984 889.665 99.9984 L895.637 99.9984 L895.637 99.5818 Q895.637 96.642 893.693 95.0448 Q891.771 93.4244 888.276 93.4244 Q886.054 93.4244 883.947 93.9568 Q881.841 94.4892 879.896 95.554 L879.896 91.6189 Q882.234 90.7161 884.433 90.2763 Q886.632 89.8133 888.716 89.8133 Q894.341 89.8133 897.118 92.73 Q899.896 95.6466 899.896 101.573 Z" fill="#000000" fill-rule="nonzero" fill-opacity="1" /><path clip-path="url(#clip930)" d="M925.197 91.2022 L925.197 95.2299 Q923.391 94.304 921.447 93.8411 Q919.503 93.3781 917.419 93.3781 Q914.248 93.3781 912.651 94.3503 Q911.077 95.3225 911.077 97.267 Q911.077 98.7484 912.211 99.6049 Q913.345 100.438 916.771 101.202 L918.229 101.526 Q922.766 102.498 924.665 104.281 Q926.586 106.04 926.586 109.211 Q926.586 112.822 923.716 114.929 Q920.868 117.035 915.868 117.035 Q913.785 117.035 911.516 116.619 Q909.271 116.225 906.771 115.415 L906.771 111.017 Q909.132 112.244 911.424 112.869 Q913.716 113.471 915.961 113.471 Q918.97 113.471 920.591 112.452 Q922.211 111.41 922.211 109.535 Q922.211 107.799 921.03 106.873 Q919.873 105.947 915.915 105.091 L914.433 104.744 Q910.475 103.91 908.716 102.198 Q906.956 100.461 906.956 97.4522 Q906.956 93.7948 909.549 91.804 Q912.141 89.8133 916.91 89.8133 Q919.271 89.8133 921.354 90.1605 Q923.438 90.5078 925.197 91.2022 Z" fill="#000000" fill-rule="nonzero" fill-opacity="1" /><path clip-path="url(#clip930)" d="M937.581 83.0772 L937.581 90.4383 L946.354 90.4383 L946.354 93.7485 L937.581 93.7485 L937.581 107.822 Q937.581 110.994 938.438 111.897 Q939.317 112.799 941.979 112.799 L946.354 112.799 L946.354 116.364 L941.979 116.364 Q937.049 116.364 935.174 114.535 Q933.299 112.684 933.299 107.822 L933.299 93.7485 L930.174 93.7485 L930.174 90.4383 L933.299 90.4383 L933.299 83.0772 L937.581 83.0772 Z" fill="#000000" fill-rule="nonzero" fill-opacity="1" /><path clip-path="url(#clip930)" d="M963.97 90.4383 L968.484 90.4383 L976.586 112.197 L984.687 90.4383 L989.201 90.4383 L979.479 116.364 L973.692 116.364 L963.97 90.4383 Z" fill="#000000" fill-rule="nonzero" fill-opacity="1" /><path clip-path="url(#clip930)" d="M1006.86 103.332 Q1001.7 103.332 999.71 104.512 Q997.72 105.693 997.72 108.54 Q997.72 110.809 999.201 112.151 Q1000.71 113.471 1003.28 113.471 Q1006.82 113.471 1008.95 110.971 Q1011.1 108.447 1011.1 104.281 L1011.1 103.332 L1006.86 103.332 M1015.36 101.573 L1015.36 116.364 L1011.1 116.364 L1011.1 112.429 Q1009.64 114.79 1007.47 115.924 Q1005.29 117.035 1002.14 117.035 Q998.16 117.035 995.798 114.813 Q993.461 112.568 993.461 108.818 Q993.461 104.443 996.377 102.221 Q999.317 99.9984 1005.13 99.9984 L1011.1 99.9984 L1011.1 99.5818 Q1011.1 96.642 1009.15 95.0448 Q1007.23 93.4244 1003.74 93.4244 Q1001.52 93.4244 999.41 93.9568 Q997.303 94.4892 995.359 95.554 L995.359 91.6189 Q997.697 90.7161 999.896 90.2763 Q1002.09 89.8133 1004.18 89.8133 Q1009.8 89.8133 1012.58 92.73 Q1015.36 95.6466 1015.36 101.573 Z" fill="#000000" fill-rule="nonzero" fill-opacity="1" /><path clip-path="url(#clip930)" d="M1024.13 80.3458 L1028.39 80.3458 L1028.39 116.364 L1024.13 116.364 L1024.13 80.3458 Z" fill="#000000" fill-rule="nonzero" fill-opacity="1" /><path clip-path="url(#clip930)" d="M1036.86 106.133 L1036.86 90.4383 L1041.12 90.4383 L1041.12 105.971 Q1041.12 109.651 1042.56 111.503 Q1043.99 113.332 1046.86 113.332 Q1050.31 113.332 1052.3 111.133 Q1054.32 108.934 1054.32 105.137 L1054.32 90.4383 L1058.58 90.4383 L1058.58 116.364 L1054.32 116.364 L1054.32 112.383 Q1052.77 114.744 1050.71 115.901 Q1048.67 117.035 1045.96 117.035 Q1041.49 117.035 1039.18 114.258 Q1036.86 111.48 1036.86 106.133 M1047.58 89.8133 L1047.58 89.8133 Z" fill="#000000" fill-rule="nonzero" fill-opacity="1" /><path clip-path="url(#clip930)" d="M1089.52 102.336 L1089.52 104.42 L1069.94 104.42 Q1070.22 108.818 1072.58 111.133 Q1074.96 113.424 1079.2 113.424 Q1081.65 113.424 1083.95 112.822 Q1086.26 112.221 1088.53 111.017 L1088.53 115.045 Q1086.24 116.017 1083.83 116.526 Q1081.42 117.035 1078.95 117.035 Q1072.74 117.035 1069.11 113.424 Q1065.5 109.813 1065.5 103.656 Q1065.5 97.2901 1068.92 93.5633 Q1072.37 89.8133 1078.21 89.8133 Q1083.44 89.8133 1086.47 93.1929 Q1089.52 96.5494 1089.52 102.336 M1085.27 101.086 Q1085.22 97.591 1083.3 95.5077 Q1081.4 93.4244 1078.25 93.4244 Q1074.69 93.4244 1072.53 95.4383 Q1070.4 97.4522 1070.08 101.11 L1085.27 101.086 Z" fill="#000000" fill-rule="nonzero" fill-opacity="1" /><polyline clip-path="url(#clip930)" style="stroke:#e26f46; stroke-linecap:round; stroke-linejoin:round; stroke-width:4; stroke-opacity:1; fill:none" points="1290.3,99.0841 1433.55,99.0841 "/>
<path clip-path="url(#clip930)" d="M1457.43 81.8041 L1462.1 81.8041 L1462.1 112.429 L1478.93 112.429 L1478.93 116.364 L1457.43 116.364 L1457.43 81.8041 Z" fill="#000000" fill-rule="nonzero" fill-opacity="1" /><path clip-path="url(#clip930)" d="M1483.65 90.4383 L1487.91 90.4383 L1487.91 116.364 L1483.65 116.364 L1483.65 90.4383 M1483.65 80.3458 L1487.91 80.3458 L1487.91 85.7393 L1483.65 85.7393 L1483.65 80.3458 Z" fill="#000000" fill-rule="nonzero" fill-opacity="1" /><path clip-path="url(#clip930)" d="M1518.37 100.716 L1518.37 116.364 L1514.12 116.364 L1514.12 100.855 Q1514.12 97.1744 1512.68 95.3457 Q1511.24 93.517 1508.37 93.517 Q1504.93 93.517 1502.93 95.7161 Q1500.94 97.9151 1500.94 101.711 L1500.94 116.364 L1496.66 116.364 L1496.66 90.4383 L1500.94 90.4383 L1500.94 94.4661 Q1502.47 92.1281 1504.53 90.9707 Q1506.62 89.8133 1509.32 89.8133 Q1513.79 89.8133 1516.08 92.5911 Q1518.37 95.3457 1518.37 100.716 Z" fill="#000000" fill-rule="nonzero" fill-opacity="1" /><path clip-path="url(#clip930)" d="M1549.05 102.336 L1549.05 104.42 L1529.46 104.42 Q1529.74 108.818 1532.1 111.133 Q1534.49 113.424 1538.72 113.424 Q1541.18 113.424 1543.47 112.822 Q1545.78 112.221 1548.05 111.017 L1548.05 115.045 Q1545.76 116.017 1543.35 116.526 Q1540.94 117.035 1538.47 117.035 Q1532.26 117.035 1528.63 113.424 Q1525.02 109.813 1525.02 103.656 Q1525.02 97.2901 1528.44 93.5633 Q1531.89 89.8133 1537.73 89.8133 Q1542.96 89.8133 1545.99 93.1929 Q1549.05 96.5494 1549.05 102.336 M1544.79 101.086 Q1544.74 97.591 1542.82 95.5077 Q1540.92 93.4244 1537.77 93.4244 Q1534.21 93.4244 1532.05 95.4383 Q1529.93 97.4522 1529.6 101.11 L1544.79 101.086 Z" fill="#000000" fill-rule="nonzero" fill-opacity="1" /><path clip-path="url(#clip930)" d="M1567.82 103.332 Q1562.66 103.332 1560.67 104.512 Q1558.68 105.693 1558.68 108.54 Q1558.68 110.809 1560.16 112.151 Q1561.66 113.471 1564.23 113.471 Q1567.77 113.471 1569.9 110.971 Q1572.05 108.447 1572.05 104.281 L1572.05 103.332 L1567.82 103.332 M1576.31 101.573 L1576.31 116.364 L1572.05 116.364 L1572.05 112.429 Q1570.6 114.79 1568.42 115.924 Q1566.24 117.035 1563.1 117.035 Q1559.12 117.035 1556.75 114.813 Q1554.42 112.568 1554.42 108.818 Q1554.42 104.443 1557.33 102.221 Q1560.27 99.9984 1566.08 99.9984 L1572.05 99.9984 L1572.05 99.5818 Q1572.05 96.642 1570.11 95.0448 Q1568.19 93.4244 1564.69 93.4244 Q1562.47 93.4244 1560.37 93.9568 Q1558.26 94.4892 1556.31 95.554 L1556.31 91.6189 Q1558.65 90.7161 1560.85 90.2763 Q1563.05 89.8133 1565.13 89.8133 Q1570.76 89.8133 1573.54 92.73 Q1576.31 95.6466 1576.31 101.573 Z" fill="#000000" fill-rule="nonzero" fill-opacity="1" /><path clip-path="url(#clip930)" d="M1600.11 94.4198 Q1599.39 94.0031 1598.54 93.8179 Q1597.7 93.6096 1596.68 93.6096 Q1593.07 93.6096 1591.13 95.9707 Q1589.21 98.3086 1589.21 102.707 L1589.21 116.364 L1584.93 116.364 L1584.93 90.4383 L1589.21 90.4383 L1589.21 94.4661 Q1590.55 92.105 1592.7 90.9707 Q1594.86 89.8133 1597.93 89.8133 Q1598.37 89.8133 1598.91 89.8828 Q1599.44 89.9291 1600.09 90.0448 L1600.11 94.4198 Z" fill="#000000" fill-rule="nonzero" fill-opacity="1" /><path clip-path="url(#clip930)" d="M1636.22 100.16 Q1637.73 100.67 1639.14 102.336 Q1640.57 104.003 1642.01 106.92 L1646.75 116.364 L1641.73 116.364 L1637.31 107.498 Q1635.6 104.026 1633.98 102.892 Q1632.38 101.758 1629.6 101.758 L1624.51 101.758 L1624.51 116.364 L1619.83 116.364 L1619.83 81.8041 L1630.39 81.8041 Q1636.31 81.8041 1639.23 84.2809 Q1642.15 86.7578 1642.15 91.7577 Q1642.15 95.0216 1640.62 97.1744 Q1639.11 99.3271 1636.22 100.16 M1624.51 85.6467 L1624.51 97.9151 L1630.39 97.9151 Q1633.77 97.9151 1635.48 96.3642 Q1637.22 94.7901 1637.22 91.7577 Q1637.22 88.7254 1635.48 87.1976 Q1633.77 85.6467 1630.39 85.6467 L1624.51 85.6467 Z" fill="#000000" fill-rule="nonzero" fill-opacity="1" /><path clip-path="url(#clip930)" d="M1672.63 102.336 L1672.63 104.42 L1653.05 104.42 Q1653.33 108.818 1655.69 111.133 Q1658.07 113.424 1662.31 113.424 Q1664.76 113.424 1667.05 112.822 Q1669.37 112.221 1671.64 111.017 L1671.64 115.045 Q1669.35 116.017 1666.94 116.526 Q1664.53 117.035 1662.05 117.035 Q1655.85 117.035 1652.22 113.424 Q1648.61 109.813 1648.61 103.656 Q1648.61 97.2901 1652.03 93.5633 Q1655.48 89.8133 1661.31 89.8133 Q1666.55 89.8133 1669.58 93.1929 Q1672.63 96.5494 1672.63 102.336 M1668.37 101.086 Q1668.33 97.591 1666.41 95.5077 Q1664.51 93.4244 1661.36 93.4244 Q1657.8 93.4244 1655.64 95.4383 Q1653.51 97.4522 1653.19 101.11 L1668.37 101.086 Z" fill="#000000" fill-rule="nonzero" fill-opacity="1" /><path clip-path="url(#clip930)" d="M1696.68 103.1 Q1696.68 98.4707 1694.76 95.9244 Q1692.86 93.3781 1689.42 93.3781 Q1685.99 93.3781 1684.07 95.9244 Q1682.17 98.4707 1682.17 103.1 Q1682.17 107.707 1684.07 110.253 Q1685.99 112.799 1689.42 112.799 Q1692.86 112.799 1694.76 110.253 Q1696.68 107.707 1696.68 103.1 M1700.94 113.147 Q1700.94 119.767 1698 122.984 Q1695.06 126.225 1689 126.225 Q1686.75 126.225 1684.76 125.878 Q1682.77 125.554 1680.9 124.859 L1680.9 120.716 Q1682.77 121.734 1684.6 122.221 Q1686.43 122.707 1688.33 122.707 Q1692.52 122.707 1694.6 120.508 Q1696.68 118.332 1696.68 113.91 L1696.68 111.804 Q1695.36 114.096 1693.3 115.23 Q1691.24 116.364 1688.37 116.364 Q1683.61 116.364 1680.69 112.73 Q1677.77 109.096 1677.77 103.1 Q1677.77 97.0818 1680.69 93.4476 Q1683.61 89.8133 1688.37 89.8133 Q1691.24 89.8133 1693.3 90.9476 Q1695.36 92.0818 1696.68 94.3735 L1696.68 90.4383 L1700.94 90.4383 L1700.94 113.147 Z" fill="#000000" fill-rule="nonzero" fill-opacity="1" /><path clip-path="url(#clip930)" d="M1724.74 94.4198 Q1724.02 94.0031 1723.17 93.8179 Q1722.33 93.6096 1721.31 93.6096 Q1717.7 93.6096 1715.76 95.9707 Q1713.84 98.3086 1713.84 102.707 L1713.84 116.364 L1709.55 116.364 L1709.55 90.4383 L1713.84 90.4383 L1713.84 94.4661 Q1715.18 92.105 1717.33 90.9707 Q1719.48 89.8133 1722.56 89.8133 Q1723 89.8133 1723.54 89.8828 Q1724.07 89.9291 1724.72 90.0448 L1724.74 94.4198 Z" fill="#000000" fill-rule="nonzero" fill-opacity="1" /><path clip-path="url(#clip930)" d="M1750.34 102.336 L1750.34 104.42 L1730.76 104.42 Q1731.04 108.818 1733.4 111.133 Q1735.78 113.424 1740.02 113.424 Q1742.47 113.424 1744.76 112.822 Q1747.08 112.221 1749.35 111.017 L1749.35 115.045 Q1747.05 116.017 1744.65 116.526 Q1742.24 117.035 1739.76 117.035 Q1733.56 117.035 1729.92 113.424 Q1726.31 109.813 1726.31 103.656 Q1726.31 97.2901 1729.74 93.5633 Q1733.19 89.8133 1739.02 89.8133 Q1744.25 89.8133 1747.29 93.1929 Q1750.34 96.5494 1750.34 102.336 M1746.08 101.086 Q1746.04 97.591 1744.11 95.5077 Q1742.22 93.4244 1739.07 93.4244 Q1735.5 93.4244 1733.35 95.4383 Q1731.22 97.4522 1730.9 101.11 L1746.08 101.086 Z" fill="#000000" fill-rule="nonzero" fill-opacity="1" /><path clip-path="url(#clip930)" d="M1773.86 91.2022 L1773.86 95.2299 Q1772.05 94.304 1770.11 93.8411 Q1768.16 93.3781 1766.08 93.3781 Q1762.91 93.3781 1761.31 94.3503 Q1759.74 95.3225 1759.74 97.267 Q1759.74 98.7484 1760.87 99.6049 Q1762.01 100.438 1765.43 101.202 L1766.89 101.526 Q1771.43 102.498 1773.33 104.281 Q1775.25 106.04 1775.25 109.211 Q1775.25 112.822 1772.38 114.929 Q1769.53 117.035 1764.53 117.035 Q1762.45 117.035 1760.18 116.619 Q1757.93 116.225 1755.43 115.415 L1755.43 111.017 Q1757.79 112.244 1760.09 112.869 Q1762.38 113.471 1764.62 113.471 Q1767.63 113.471 1769.25 112.452 Q1770.87 111.41 1770.87 109.535 Q1770.87 107.799 1769.69 106.873 Q1768.54 105.947 1764.58 105.091 L1763.1 104.744 Q1759.14 103.91 1757.38 102.198 Q1755.62 100.461 1755.62 97.4522 Q1755.62 93.7948 1758.21 91.804 Q1760.8 89.8133 1765.57 89.8133 Q1767.93 89.8133 1770.02 90.1605 Q1772.1 90.5078 1773.86 91.2022 Z" fill="#000000" fill-rule="nonzero" fill-opacity="1" /><path clip-path="url(#clip930)" d="M1798.56 91.2022 L1798.56 95.2299 Q1796.75 94.304 1794.81 93.8411 Q1792.86 93.3781 1790.78 93.3781 Q1787.61 93.3781 1786.01 94.3503 Q1784.44 95.3225 1784.44 97.267 Q1784.44 98.7484 1785.57 99.6049 Q1786.71 100.438 1790.13 101.202 L1791.59 101.526 Q1796.13 102.498 1798.03 104.281 Q1799.95 106.04 1799.95 109.211 Q1799.95 112.822 1797.08 114.929 Q1794.23 117.035 1789.23 117.035 Q1787.15 117.035 1784.88 116.619 Q1782.63 116.225 1780.13 115.415 L1780.13 111.017 Q1782.49 112.244 1784.79 112.869 Q1787.08 113.471 1789.32 113.471 Q1792.33 113.471 1793.95 112.452 Q1795.57 111.41 1795.57 109.535 Q1795.57 107.799 1794.39 106.873 Q1793.23 105.947 1789.28 105.091 L1787.79 104.744 Q1783.84 103.91 1782.08 102.198 Q1780.32 100.461 1780.32 97.4522 Q1780.32 93.7948 1782.91 91.804 Q1785.5 89.8133 1790.27 89.8133 Q1792.63 89.8133 1794.72 90.1605 Q1796.8 90.5078 1798.56 91.2022 Z" fill="#000000" fill-rule="nonzero" fill-opacity="1" /><path clip-path="url(#clip930)" d="M1806.73 90.4383 L1810.99 90.4383 L1810.99 116.364 L1806.73 116.364 L1806.73 90.4383 M1806.73 80.3458 L1810.99 80.3458 L1810.99 85.7393 L1806.73 85.7393 L1806.73 80.3458 Z" fill="#000000" fill-rule="nonzero" fill-opacity="1" /><path clip-path="url(#clip930)" d="M1829.95 93.4244 Q1826.52 93.4244 1824.53 96.1096 Q1822.54 98.7716 1822.54 103.424 Q1822.54 108.077 1824.51 110.762 Q1826.5 113.424 1829.95 113.424 Q1833.35 113.424 1835.34 110.739 Q1837.33 108.054 1837.33 103.424 Q1837.33 98.8179 1835.34 96.1327 Q1833.35 93.4244 1829.95 93.4244 M1829.95 89.8133 Q1835.5 89.8133 1838.67 93.4244 Q1841.85 97.0355 1841.85 103.424 Q1841.85 109.79 1838.67 113.424 Q1835.5 117.035 1829.95 117.035 Q1824.37 117.035 1821.2 113.424 Q1818.05 109.79 1818.05 103.424 Q1818.05 97.0355 1821.2 93.4244 Q1824.37 89.8133 1829.95 89.8133 Z" fill="#000000" fill-rule="nonzero" fill-opacity="1" /><path clip-path="url(#clip930)" d="M1870.46 100.716 L1870.46 116.364 L1866.2 116.364 L1866.2 100.855 Q1866.2 97.1744 1864.76 95.3457 Q1863.33 93.517 1860.46 93.517 Q1857.01 93.517 1855.02 95.7161 Q1853.03 97.9151 1853.03 101.711 L1853.03 116.364 L1848.74 116.364 L1848.74 90.4383 L1853.03 90.4383 L1853.03 94.4661 Q1854.55 92.1281 1856.61 90.9707 Q1858.7 89.8133 1861.41 89.8133 Q1865.87 89.8133 1868.16 92.5911 Q1870.46 95.3457 1870.46 100.716 Z" fill="#000000" fill-rule="nonzero" fill-opacity="1" /><polyline clip-path="url(#clip930)" style="stroke:#3da44d; stroke-linecap:round; stroke-linejoin:round; stroke-width:4; stroke-opacity:1; fill:none" points="686.264,150.924 829.516,150.924 "/>
<path clip-path="url(#clip930)" d="M853.392 133.644 L858.068 133.644 L858.068 147.811 L875.058 147.811 L875.058 133.644 L879.734 133.644 L879.734 168.204 L875.058 168.204 L875.058 151.746 L858.068 151.746 L858.068 168.204 L853.392 168.204 L853.392 133.644 Z" fill="#000000" fill-rule="nonzero" fill-opacity="1" /><path clip-path="url(#clip930)" d="M889.04 133.644 L896.007 133.644 L904.827 157.162 L913.692 133.644 L920.66 133.644 L920.66 168.204 L916.1 168.204 L916.1 137.857 L907.188 161.561 L902.489 161.561 L893.577 137.857 L893.577 168.204 L889.04 168.204 L889.04 133.644 Z" fill="#000000" fill-rule="nonzero" fill-opacity="1" /><path clip-path="url(#clip930)" d="M929.942 133.644 L936.91 133.644 L945.729 157.162 L954.595 133.644 L961.563 133.644 L961.563 168.204 L957.002 168.204 L957.002 137.857 L948.09 161.561 L943.391 161.561 L934.479 137.857 L934.479 168.204 L929.942 168.204 L929.942 133.644 Z" fill="#000000" fill-rule="nonzero" fill-opacity="1" /><polyline clip-path="url(#clip930)" style="stroke:#c271d2; stroke-linecap:round; stroke-linejoin:round; stroke-width:4; stroke-opacity:1; fill:none" points="1290.3,150.924 1433.55,150.924 "/>
<path clip-path="url(#clip930)" d="M1462.1 151.7 L1462.1 164.362 L1469.6 164.362 Q1473.37 164.362 1475.18 162.811 Q1477.01 161.237 1477.01 158.019 Q1477.01 154.778 1475.18 153.25 Q1473.37 151.7 1469.6 151.7 L1462.1 151.7 M1462.1 137.487 L1462.1 147.903 L1469.02 147.903 Q1472.45 147.903 1474.12 146.63 Q1475.81 145.334 1475.81 142.695 Q1475.81 140.079 1474.12 138.783 Q1472.45 137.487 1469.02 137.487 L1462.1 137.487 M1457.43 133.644 L1469.37 133.644 Q1474.72 133.644 1477.61 135.866 Q1480.5 138.089 1480.5 142.186 Q1480.5 145.357 1479.02 147.232 Q1477.54 149.107 1474.67 149.57 Q1478.12 150.311 1480.02 152.672 Q1481.94 155.01 1481.94 158.528 Q1481.94 163.158 1478.79 165.681 Q1475.64 168.204 1469.83 168.204 L1457.43 168.204 L1457.43 133.644 Z" fill="#000000" fill-rule="nonzero" fill-opacity="1" /><path clip-path="url(#clip930)" d="M1511.94 154.176 L1511.94 156.26 L1492.36 156.26 Q1492.63 160.658 1495 162.973 Q1497.38 165.264 1501.62 165.264 Q1504.07 165.264 1506.36 164.662 Q1508.68 164.061 1510.94 162.857 L1510.94 166.885 Q1508.65 167.857 1506.24 168.366 Q1503.84 168.875 1501.36 168.875 Q1495.16 168.875 1491.52 165.264 Q1487.91 161.653 1487.91 155.496 Q1487.91 149.13 1491.34 145.403 Q1494.79 141.653 1500.62 141.653 Q1505.85 141.653 1508.88 145.033 Q1511.94 148.389 1511.94 154.176 M1507.68 152.926 Q1507.63 149.431 1505.71 147.348 Q1503.81 145.264 1500.67 145.264 Q1497.1 145.264 1494.95 147.278 Q1492.82 149.292 1492.5 152.95 L1507.68 152.926 Z" fill="#000000" fill-rule="nonzero" fill-opacity="1" /><path clip-path="url(#clip930)" d="M1540.48 152.556 L1540.48 168.204 L1536.22 168.204 L1536.22 152.695 Q1536.22 149.014 1534.79 147.186 Q1533.35 145.357 1530.48 145.357 Q1527.03 145.357 1525.04 147.556 Q1523.05 149.755 1523.05 153.551 L1523.05 168.204 L1518.77 168.204 L1518.77 132.186 L1523.05 132.186 L1523.05 146.306 Q1524.58 143.968 1526.64 142.811 Q1528.72 141.653 1531.43 141.653 Q1535.9 141.653 1538.19 144.431 Q1540.48 147.186 1540.48 152.556 Z" fill="#000000" fill-rule="nonzero" fill-opacity="1" /><path clip-path="url(#clip930)" d="M1560.76 155.172 Q1555.6 155.172 1553.61 156.352 Q1551.62 157.533 1551.62 160.38 Q1551.62 162.649 1553.1 163.991 Q1554.6 165.311 1557.17 165.311 Q1560.71 165.311 1562.84 162.811 Q1564.99 160.287 1564.99 156.121 L1564.99 155.172 L1560.76 155.172 M1569.25 153.413 L1569.25 168.204 L1564.99 168.204 L1564.99 164.269 Q1563.54 166.63 1561.36 167.764 Q1559.18 168.875 1556.04 168.875 Q1552.05 168.875 1549.69 166.653 Q1547.36 164.408 1547.36 160.658 Q1547.36 156.283 1550.27 154.061 Q1553.21 151.838 1559.02 151.838 L1564.99 151.838 L1564.99 151.422 Q1564.99 148.482 1563.05 146.885 Q1561.13 145.264 1557.63 145.264 Q1555.41 145.264 1553.3 145.797 Q1551.2 146.329 1549.25 147.394 L1549.25 143.459 Q1551.59 142.556 1553.79 142.116 Q1555.99 141.653 1558.07 141.653 Q1563.7 141.653 1566.48 144.57 Q1569.25 147.487 1569.25 153.413 Z" fill="#000000" fill-rule="nonzero" fill-opacity="1" /><path clip-path="url(#clip930)" d="M1574.97 142.278 L1579.49 142.278 L1587.59 164.037 L1595.69 142.278 L1600.2 142.278 L1590.48 168.204 L1584.69 168.204 L1574.97 142.278 Z" fill="#000000" fill-rule="nonzero" fill-opacity="1" /><path clip-path="url(#clip930)" d="M1606.08 142.278 L1610.34 142.278 L1610.34 168.204 L1606.08 168.204 L1606.08 142.278 M1606.08 132.186 L1610.34 132.186 L1610.34 137.579 L1606.08 137.579 L1606.08 132.186 Z" fill="#000000" fill-rule="nonzero" fill-opacity="1" /><path clip-path="url(#clip930)" d="M1629.3 145.264 Q1625.87 145.264 1623.88 147.95 Q1621.89 150.612 1621.89 155.264 Q1621.89 159.917 1623.86 162.602 Q1625.85 165.264 1629.3 165.264 Q1632.7 165.264 1634.69 162.579 Q1636.68 159.894 1636.68 155.264 Q1636.68 150.658 1634.69 147.973 Q1632.7 145.264 1629.3 145.264 M1629.3 141.653 Q1634.86 141.653 1638.03 145.264 Q1641.2 148.875 1641.2 155.264 Q1641.2 161.63 1638.03 165.264 Q1634.86 168.875 1629.3 168.875 Q1623.72 168.875 1620.55 165.264 Q1617.4 161.63 1617.4 155.264 Q1617.4 148.875 1620.55 145.264 Q1623.72 141.653 1629.3 141.653 Z" fill="#000000" fill-rule="nonzero" fill-opacity="1" /><path clip-path="url(#clip930)" d="M1647.82 157.973 L1647.82 142.278 L1652.08 142.278 L1652.08 157.811 Q1652.08 161.491 1653.51 163.343 Q1654.95 165.172 1657.82 165.172 Q1661.27 165.172 1663.26 162.973 Q1665.27 160.774 1665.27 156.977 L1665.27 142.278 L1669.53 142.278 L1669.53 168.204 L1665.27 168.204 L1665.27 164.223 Q1663.72 166.584 1661.66 167.741 Q1659.62 168.875 1656.92 168.875 Q1652.45 168.875 1650.13 166.098 Q1647.82 163.32 1647.82 157.973 M1658.54 141.653 L1658.54 141.653 Z" fill="#000000" fill-rule="nonzero" fill-opacity="1" /><path clip-path="url(#clip930)" d="M1693.33 146.26 Q1692.61 145.843 1691.75 145.658 Q1690.92 145.45 1689.9 145.45 Q1686.29 145.45 1684.35 147.811 Q1682.42 150.149 1682.42 154.547 L1682.42 168.204 L1678.14 168.204 L1678.14 142.278 L1682.42 142.278 L1682.42 146.306 Q1683.77 143.945 1685.92 142.811 Q1688.07 141.653 1691.15 141.653 Q1691.59 141.653 1692.12 141.723 Q1692.66 141.769 1693.3 141.885 L1693.33 146.26 Z" fill="#000000" fill-rule="nonzero" fill-opacity="1" /><path clip-path="url(#clip930)" d="M1709.58 155.172 Q1704.42 155.172 1702.42 156.352 Q1700.43 157.533 1700.43 160.38 Q1700.43 162.649 1701.92 163.991 Q1703.42 165.311 1705.99 165.311 Q1709.53 165.311 1711.66 162.811 Q1713.81 160.287 1713.81 156.121 L1713.81 155.172 L1709.58 155.172 M1718.07 153.413 L1718.07 168.204 L1713.81 168.204 L1713.81 164.269 Q1712.35 166.63 1710.18 167.764 Q1708 168.875 1704.85 168.875 Q1700.87 168.875 1698.51 166.653 Q1696.17 164.408 1696.17 160.658 Q1696.17 156.283 1699.09 154.061 Q1702.03 151.838 1707.84 151.838 L1713.81 151.838 L1713.81 151.422 Q1713.81 148.482 1711.87 146.885 Q1709.95 145.264 1706.45 145.264 Q1704.23 145.264 1702.12 145.797 Q1700.02 146.329 1698.07 147.394 L1698.07 143.459 Q1700.41 142.556 1702.61 142.116 Q1704.81 141.653 1706.89 141.653 Q1712.52 141.653 1715.29 144.57 Q1718.07 147.487 1718.07 153.413 Z" fill="#000000" fill-rule="nonzero" fill-opacity="1" /><path clip-path="url(#clip930)" d="M1726.85 132.186 L1731.1 132.186 L1731.1 168.204 L1726.85 168.204 L1726.85 132.186 Z" fill="#000000" fill-rule="nonzero" fill-opacity="1" /></svg>
