<?xml version="1.0" encoding="utf-8"?>
<svg xmlns="http://www.w3.org/2000/svg" xmlns:xlink="http://www.w3.org/1999/xlink" width="600" height="400" viewBox="0 0 2400 1600">
<defs>
  <clipPath id="clip910">
    <rect x="0" y="0" width="2400" height="1600"/>
  </clipPath>
</defs>
<path clip-path="url(#clip910)" d="M0 1600 L2400 1600 L2400 0 L0 0  Z" fill="#ffffff" fill-rule="evenodd" fill-opacity="1"/>
<defs>
  <clipPath id="clip911">
    <rect x="480" y="0" width="1681" height="1600"/>
  </clipPath>
</defs>
<path clip-path="url(#clip910)" d="M221.618 1423.18 L2352.76 1423.18 L2352.76 123.472 L221.618 123.472  Z" fill="#ffffff" fill-rule="evenodd" fill-opacity="1"/>
<defs>
  <clipPath id="clip912">
    <rect x="221" y="123" width="2132" height="1301"/>
  </clipPath>
</defs>
<polyline clip-path="url(#clip912)" style="stroke:#000000; stroke-linecap:round; stroke-linejoin:round; stroke-width:2; stroke-opacity:0.1; fill:none" points="262.244,1423.18 262.244,123.472 "/>
<polyline clip-path="url(#clip912)" style="stroke:#000000; stroke-linecap:round; stroke-linejoin:round; stroke-width:2; stroke-opacity:0.1; fill:none" points="777.758,1423.18 777.758,123.472 "/>
<polyline clip-path="url(#clip912)" style="stroke:#000000; stroke-linecap:round; stroke-linejoin:round; stroke-width:2; stroke-opacity:0.1; fill:none" points="1299,1423.18 1299,123.472 "/>
<polyline clip-path="url(#clip912)" style="stroke:#000000; stroke-linecap:round; stroke-linejoin:round; stroke-width:2; stroke-opacity:0.1; fill:none" points="1825.97,1423.18 1825.97,123.472 "/>
<polyline clip-path="url(#clip912)" style="stroke:#000000; stroke-linecap:round; stroke-linejoin:round; stroke-width:2; stroke-opacity:0.05; fill:none" points="365.347,1423.18 365.347,123.472 "/>
<polyline clip-path="url(#clip912)" style="stroke:#000000; stroke-linecap:round; stroke-linejoin:round; stroke-width:2; stroke-opacity:0.05; fill:none" points="468.45,1423.18 468.45,123.472 "/>
<polyline clip-path="url(#clip912)" style="stroke:#000000; stroke-linecap:round; stroke-linejoin:round; stroke-width:2; stroke-opacity:0.05; fill:none" points="571.553,1423.18 571.553,123.472 "/>
<polyline clip-path="url(#clip912)" style="stroke:#000000; stroke-linecap:round; stroke-linejoin:round; stroke-width:2; stroke-opacity:0.05; fill:none" points="674.655,1423.18 674.655,123.472 "/>
<polyline clip-path="url(#clip912)" style="stroke:#000000; stroke-linecap:round; stroke-linejoin:round; stroke-width:2; stroke-opacity:0.05; fill:none" points="882.007,1423.18 882.007,123.472 "/>
<polyline clip-path="url(#clip912)" style="stroke:#000000; stroke-linecap:round; stroke-linejoin:round; stroke-width:2; stroke-opacity:0.05; fill:none" points="986.255,1423.18 986.255,123.472 "/>
<polyline clip-path="url(#clip912)" style="stroke:#000000; stroke-linecap:round; stroke-linejoin:round; stroke-width:2; stroke-opacity:0.05; fill:none" points="1090.5,1423.18 1090.5,123.472 "/>
<polyline clip-path="url(#clip912)" style="stroke:#000000; stroke-linecap:round; stroke-linejoin:round; stroke-width:2; stroke-opacity:0.05; fill:none" points="1194.75,1423.18 1194.75,123.472 "/>
<polyline clip-path="url(#clip912)" style="stroke:#000000; stroke-linecap:round; stroke-linejoin:round; stroke-width:2; stroke-opacity:0.05; fill:none" points="1404.4,1423.18 1404.4,123.472 "/>
<polyline clip-path="url(#clip912)" style="stroke:#000000; stroke-linecap:round; stroke-linejoin:round; stroke-width:2; stroke-opacity:0.05; fill:none" points="1509.79,1423.18 1509.79,123.472 "/>
<polyline clip-path="url(#clip912)" style="stroke:#000000; stroke-linecap:round; stroke-linejoin:round; stroke-width:2; stroke-opacity:0.05; fill:none" points="1615.18,1423.18 1615.18,123.472 "/>
<polyline clip-path="url(#clip912)" style="stroke:#000000; stroke-linecap:round; stroke-linejoin:round; stroke-width:2; stroke-opacity:0.05; fill:none" points="1720.58,1423.18 1720.58,123.472 "/>
<polyline clip-path="url(#clip912)" style="stroke:#000000; stroke-linecap:round; stroke-linejoin:round; stroke-width:2; stroke-opacity:0.05; fill:none" points="1932.54,1423.18 1932.54,123.472 "/>
<polyline clip-path="url(#clip912)" style="stroke:#000000; stroke-linecap:round; stroke-linejoin:round; stroke-width:2; stroke-opacity:0.05; fill:none" points="2039.1,1423.18 2039.1,123.472 "/>
<polyline clip-path="url(#clip912)" style="stroke:#000000; stroke-linecap:round; stroke-linejoin:round; stroke-width:2; stroke-opacity:0.05; fill:none" points="2145.67,1423.18 2145.67,123.472 "/>
<polyline clip-path="url(#clip912)" style="stroke:#000000; stroke-linecap:round; stroke-linejoin:round; stroke-width:2; stroke-opacity:0.05; fill:none" points="2252.23,1423.18 2252.23,123.472 "/>
<polyline clip-path="url(#clip910)" style="stroke:#000000; stroke-linecap:round; stroke-linejoin:round; stroke-width:4; stroke-opacity:1; fill:none" points="221.618,1423.18 2352.76,1423.18 "/>
<polyline clip-path="url(#clip910)" style="stroke:#000000; stroke-linecap:round; stroke-linejoin:round; stroke-width:4; stroke-opacity:1; fill:none" points="262.244,1423.18 262.244,1404.28 "/>
<polyline clip-path="url(#clip910)" style="stroke:#000000; stroke-linecap:round; stroke-linejoin:round; stroke-width:4; stroke-opacity:1; fill:none" points="777.758,1423.18 777.758,1404.28 "/>
<polyline clip-path="url(#clip910)" style="stroke:#000000; stroke-linecap:round; stroke-linejoin:round; stroke-width:4; stroke-opacity:1; fill:none" points="1299,1423.18 1299,1404.28 "/>
<polyline clip-path="url(#clip910)" style="stroke:#000000; stroke-linecap:round; stroke-linejoin:round; stroke-width:4; stroke-opacity:1; fill:none" points="1825.97,1423.18 1825.97,1404.28 "/>
<polyline clip-path="url(#clip910)" style="stroke:#000000; stroke-linecap:round; stroke-linejoin:round; stroke-width:4; stroke-opacity:1; fill:none" points="365.347,1423.18 365.347,1413.73 "/>
<polyline clip-path="url(#clip910)" style="stroke:#000000; stroke-linecap:round; stroke-linejoin:round; stroke-width:4; stroke-opacity:1; fill:none" points="468.45,1423.18 468.45,1413.73 "/>
<polyline clip-path="url(#clip910)" style="stroke:#000000; stroke-linecap:round; stroke-linejoin:round; stroke-width:4; stroke-opacity:1; fill:none" points="571.553,1423.18 571.553,1413.73 "/>
<polyline clip-path="url(#clip910)" style="stroke:#000000; stroke-linecap:round; stroke-linejoin:round; stroke-width:4; stroke-opacity:1; fill:none" points="674.655,1423.18 674.655,1413.73 "/>
<polyline clip-path="url(#clip910)" style="stroke:#000000; stroke-linecap:round; stroke-linejoin:round; stroke-width:4; stroke-opacity:1; fill:none" points="882.007,1423.18 882.007,1413.73 "/>
<polyline clip-path="url(#clip910)" style="stroke:#000000; stroke-linecap:round; stroke-linejoin:round; stroke-width:4; stroke-opacity:1; fill:none" points="986.255,1423.18 986.255,1413.73 "/>
<polyline clip-path="url(#clip910)" style="stroke:#000000; stroke-linecap:round; stroke-linejoin:round; stroke-width:4; stroke-opacity:1; fill:none" points="1090.5,1423.18 1090.5,1413.73 "/>
<polyline clip-path="url(#clip910)" style="stroke:#000000; stroke-linecap:round; stroke-linejoin:round; stroke-width:4; stroke-opacity:1; fill:none" points="1194.75,1423.18 1194.75,1413.73 "/>
<polyline clip-path="url(#clip910)" style="stroke:#000000; stroke-linecap:round; stroke-linejoin:round; stroke-width:4; stroke-opacity:1; fill:none" points="1404.4,1423.18 1404.4,1413.73 "/>
<polyline clip-path="url(#clip910)" style="stroke:#000000; stroke-linecap:round; stroke-linejoin:round; stroke-width:4; stroke-opacity:1; fill:none" points="1509.79,1423.18 1509.79,1413.73 "/>
<polyline clip-path="url(#clip910)" style="stroke:#000000; stroke-linecap:round; stroke-linejoin:round; stroke-width:4; stroke-opacity:1; fill:none" points="1615.18,1423.18 1615.18,1413.73 "/>
<polyline clip-path="url(#clip910)" style="stroke:#000000; stroke-linecap:round; stroke-linejoin:round; stroke-width:4; stroke-opacity:1; fill:none" points="1720.58,1423.18 1720.58,1413.73 "/>
<polyline clip-path="url(#clip910)" style="stroke:#000000; stroke-linecap:round; stroke-linejoin:round; stroke-width:4; stroke-opacity:1; fill:none" points="1932.54,1423.18 1932.54,1413.73 "/>
<polyline clip-path="url(#clip910)" style="stroke:#000000; stroke-linecap:round; stroke-linejoin:round; stroke-width:4; stroke-opacity:1; fill:none" points="2039.1,1423.18 2039.1,1413.73 "/>
<polyline clip-path="url(#clip910)" style="stroke:#000000; stroke-linecap:round; stroke-linejoin:round; stroke-width:4; stroke-opacity:1; fill:none" points="2145.67,1423.18 2145.67,1413.73 "/>
<polyline clip-path="url(#clip910)" style="stroke:#000000; stroke-linecap:round; stroke-linejoin:round; stroke-width:4; stroke-opacity:1; fill:none" points="2252.23,1423.18 2252.23,1413.73 "/>
<path clip-path="url(#clip910)" d="M134.038 1481.64 L150.358 1481.64 L150.358 1485.58 L128.413 1485.58 L128.413 1481.64 Q131.075 1478.89 135.659 1474.26 Q140.265 1469.61 141.446 1468.27 Q143.691 1465.74 144.571 1464.01 Q145.473 1462.25 145.473 1460.56 Q145.473 1457.8 143.529 1456.07 Q141.608 1454.33 138.506 1454.33 Q136.307 1454.33 133.853 1455.09 Q131.423 1455.86 128.645 1457.41 L128.645 1452.69 Q131.469 1451.55 133.923 1450.97 Q136.376 1450.39 138.413 1450.39 Q143.784 1450.39 146.978 1453.08 Q150.173 1455.77 150.173 1460.26 Q150.173 1462.39 149.362 1464.31 Q148.575 1466.2 146.469 1468.8 Q145.89 1469.47 142.788 1472.69 Q139.686 1475.88 134.038 1481.64 Z" fill="#000000" fill-rule="nonzero" fill-opacity="1" /><path clip-path="url(#clip910)" d="M170.172 1454.1 Q166.561 1454.1 164.733 1457.66 Q162.927 1461.2 162.927 1468.33 Q162.927 1475.44 164.733 1479.01 Q166.561 1482.55 170.172 1482.55 Q173.807 1482.55 175.612 1479.01 Q177.441 1475.44 177.441 1468.33 Q177.441 1461.2 175.612 1457.66 Q173.807 1454.1 170.172 1454.1 M170.172 1450.39 Q175.983 1450.39 179.038 1455 Q182.117 1459.58 182.117 1468.33 Q182.117 1477.06 179.038 1481.67 Q175.983 1486.25 170.172 1486.25 Q164.362 1486.25 161.284 1481.67 Q158.228 1477.06 158.228 1468.33 Q158.228 1459.58 161.284 1455 Q164.362 1450.39 170.172 1450.39 Z" fill="#000000" fill-rule="nonzero" fill-opacity="1" /><path clip-path="url(#clip910)" d="M194.362 1481.64 L210.681 1481.64 L210.681 1485.58 L188.737 1485.58 L188.737 1481.64 Q191.399 1478.89 195.982 1474.26 Q200.589 1469.61 201.769 1468.27 Q204.015 1465.74 204.894 1464.01 Q205.797 1462.25 205.797 1460.56 Q205.797 1457.8 203.853 1456.07 Q201.932 1454.33 198.83 1454.33 Q196.631 1454.33 194.177 1455.09 Q191.746 1455.86 188.969 1457.41 L188.969 1452.69 Q191.793 1451.55 194.246 1450.97 Q196.7 1450.39 198.737 1450.39 Q204.107 1450.39 207.302 1453.08 Q210.496 1455.77 210.496 1460.26 Q210.496 1462.39 209.686 1464.31 Q208.899 1466.2 206.793 1468.8 Q206.214 1469.47 203.112 1472.69 Q200.01 1475.88 194.362 1481.64 Z" fill="#000000" fill-rule="nonzero" fill-opacity="1" /><path clip-path="url(#clip910)" d="M221.306 1481.64 L228.945 1481.64 L228.945 1455.28 L220.635 1456.95 L220.635 1452.69 L228.899 1451.02 L233.575 1451.02 L233.575 1481.64 L241.214 1481.64 L241.214 1485.58 L221.306 1485.58 L221.306 1481.64 Z" fill="#000000" fill-rule="nonzero" fill-opacity="1" /><path clip-path="url(#clip910)" d="M247.904 1470.7 L260.38 1470.7 L260.38 1474.49 L247.904 1474.49 L247.904 1470.7 Z" fill="#000000" fill-rule="nonzero" fill-opacity="1" /><path clip-path="url(#clip910)" d="M277.764 1454.1 Q274.153 1454.1 272.325 1457.66 Q270.519 1461.2 270.519 1468.33 Q270.519 1475.44 272.325 1479.01 Q274.153 1482.55 277.764 1482.55 Q281.399 1482.55 283.204 1479.01 Q285.033 1475.44 285.033 1468.33 Q285.033 1461.2 283.204 1457.66 Q281.399 1454.1 277.764 1454.1 M277.764 1450.39 Q283.575 1450.39 286.63 1455 Q289.709 1459.58 289.709 1468.33 Q289.709 1477.06 286.63 1481.67 Q283.575 1486.25 277.764 1486.25 Q271.954 1486.25 268.876 1481.67 Q265.82 1477.06 265.82 1468.33 Q265.82 1459.58 268.876 1455 Q271.954 1450.39 277.764 1450.39 Z" fill="#000000" fill-rule="nonzero" fill-opacity="1" /><path clip-path="url(#clip910)" d="M298.737 1481.64 L306.375 1481.64 L306.375 1455.28 L298.065 1456.95 L298.065 1452.69 L306.329 1451.02 L311.005 1451.02 L311.005 1481.64 L318.644 1481.64 L318.644 1485.58 L298.737 1485.58 L298.737 1481.64 Z" fill="#000000" fill-rule="nonzero" fill-opacity="1" /><path clip-path="url(#clip910)" d="M325.334 1470.7 L337.81 1470.7 L337.81 1474.49 L325.334 1474.49 L325.334 1470.7 Z" fill="#000000" fill-rule="nonzero" fill-opacity="1" /><path clip-path="url(#clip910)" d="M355.195 1454.1 Q351.584 1454.1 349.755 1457.66 Q347.949 1461.2 347.949 1468.33 Q347.949 1475.44 349.755 1479.01 Q351.584 1482.55 355.195 1482.55 Q358.829 1482.55 360.634 1479.01 Q362.463 1475.44 362.463 1468.33 Q362.463 1461.2 360.634 1457.66 Q358.829 1454.1 355.195 1454.1 M355.195 1450.39 Q361.005 1450.39 364.06 1455 Q367.139 1459.58 367.139 1468.33 Q367.139 1477.06 364.06 1481.67 Q361.005 1486.25 355.195 1486.25 Q349.384 1486.25 346.306 1481.67 Q343.25 1477.06 343.25 1468.33 Q343.25 1459.58 346.306 1455 Q349.384 1450.39 355.195 1450.39 Z" fill="#000000" fill-rule="nonzero" fill-opacity="1" /><path clip-path="url(#clip910)" d="M376.167 1481.64 L383.806 1481.64 L383.806 1455.28 L375.495 1456.95 L375.495 1452.69 L383.759 1451.02 L388.435 1451.02 L388.435 1481.64 L396.074 1481.64 L396.074 1485.58 L376.167 1485.58 L376.167 1481.64 Z" fill="#000000" fill-rule="nonzero" fill-opacity="1" /><path clip-path="url(#clip910)" d="M649.553 1481.64 L665.872 1481.64 L665.872 1485.58 L643.928 1485.58 L643.928 1481.64 Q646.59 1478.89 651.173 1474.26 Q655.78 1469.61 656.96 1468.27 Q659.206 1465.74 660.085 1464.01 Q660.988 1462.25 660.988 1460.56 Q660.988 1457.8 659.044 1456.07 Q657.122 1454.33 654.021 1454.33 Q651.822 1454.33 649.368 1455.09 Q646.937 1455.86 644.16 1457.41 L644.16 1452.69 Q646.984 1451.55 649.437 1450.97 Q651.891 1450.39 653.928 1450.39 Q659.298 1450.39 662.493 1453.08 Q665.687 1455.77 665.687 1460.26 Q665.687 1462.39 664.877 1464.31 Q664.09 1466.2 661.984 1468.8 Q661.405 1469.47 658.303 1472.69 Q655.201 1475.88 649.553 1481.64 Z" fill="#000000" fill-rule="nonzero" fill-opacity="1" /><path clip-path="url(#clip910)" d="M685.687 1454.1 Q682.076 1454.1 680.247 1457.66 Q678.442 1461.2 678.442 1468.33 Q678.442 1475.44 680.247 1479.01 Q682.076 1482.55 685.687 1482.55 Q689.321 1482.55 691.127 1479.01 Q692.956 1475.44 692.956 1468.33 Q692.956 1461.2 691.127 1457.66 Q689.321 1454.1 685.687 1454.1 M685.687 1450.39 Q691.497 1450.39 694.553 1455 Q697.631 1459.58 697.631 1468.33 Q697.631 1477.06 694.553 1481.67 Q691.497 1486.25 685.687 1486.25 Q679.877 1486.25 676.798 1481.67 Q673.743 1477.06 673.743 1468.33 Q673.743 1459.58 676.798 1455 Q679.877 1450.39 685.687 1450.39 Z" fill="#000000" fill-rule="nonzero" fill-opacity="1" /><path clip-path="url(#clip910)" d="M709.877 1481.64 L726.196 1481.64 L726.196 1485.58 L704.252 1485.58 L704.252 1481.64 Q706.914 1478.89 711.497 1474.26 Q716.104 1469.61 717.284 1468.27 Q719.53 1465.74 720.409 1464.01 Q721.312 1462.25 721.312 1460.56 Q721.312 1457.8 719.367 1456.07 Q717.446 1454.33 714.344 1454.33 Q712.145 1454.33 709.692 1455.09 Q707.261 1455.86 704.483 1457.41 L704.483 1452.69 Q707.307 1451.55 709.761 1450.97 Q712.215 1450.39 714.252 1450.39 Q719.622 1450.39 722.817 1453.08 Q726.011 1455.77 726.011 1460.26 Q726.011 1462.39 725.201 1464.31 Q724.414 1466.2 722.307 1468.8 Q721.729 1469.47 718.627 1472.69 Q715.525 1475.88 709.877 1481.64 Z" fill="#000000" fill-rule="nonzero" fill-opacity="1" /><path clip-path="url(#clip910)" d="M736.821 1481.64 L744.46 1481.64 L744.46 1455.28 L736.15 1456.95 L736.15 1452.69 L744.414 1451.02 L749.09 1451.02 L749.09 1481.64 L756.728 1481.64 L756.728 1485.58 L736.821 1485.58 L736.821 1481.64 Z" fill="#000000" fill-rule="nonzero" fill-opacity="1" /><path clip-path="url(#clip910)" d="M763.418 1470.7 L775.895 1470.7 L775.895 1474.49 L763.418 1474.49 L763.418 1470.7 Z" fill="#000000" fill-rule="nonzero" fill-opacity="1" /><path clip-path="url(#clip910)" d="M793.279 1454.1 Q789.668 1454.1 787.839 1457.66 Q786.034 1461.2 786.034 1468.33 Q786.034 1475.44 787.839 1479.01 Q789.668 1482.55 793.279 1482.55 Q796.913 1482.55 798.719 1479.01 Q800.548 1475.44 800.548 1468.33 Q800.548 1461.2 798.719 1457.66 Q796.913 1454.1 793.279 1454.1 M793.279 1450.39 Q799.089 1450.39 802.145 1455 Q805.223 1459.58 805.223 1468.33 Q805.223 1477.06 802.145 1481.67 Q799.089 1486.25 793.279 1486.25 Q787.469 1486.25 784.39 1481.67 Q781.335 1477.06 781.335 1468.33 Q781.335 1459.58 784.39 1455 Q787.469 1450.39 793.279 1450.39 Z" fill="#000000" fill-rule="nonzero" fill-opacity="1" /><path clip-path="url(#clip910)" d="M826.288 1455.09 L814.483 1473.54 L826.288 1473.54 L826.288 1455.09 M825.061 1451.02 L830.941 1451.02 L830.941 1473.54 L835.871 1473.54 L835.871 1477.43 L830.941 1477.43 L830.941 1485.58 L826.288 1485.58 L826.288 1477.43 L810.686 1477.43 L810.686 1472.92 L825.061 1451.02 Z" fill="#000000" fill-rule="nonzero" fill-opacity="1" /><path clip-path="url(#clip910)" d="M840.848 1470.7 L853.325 1470.7 L853.325 1474.49 L840.848 1474.49 L840.848 1470.7 Z" fill="#000000" fill-rule="nonzero" fill-opacity="1" /><path clip-path="url(#clip910)" d="M870.709 1454.1 Q867.098 1454.1 865.269 1457.66 Q863.464 1461.2 863.464 1468.33 Q863.464 1475.44 865.269 1479.01 Q867.098 1482.55 870.709 1482.55 Q874.343 1482.55 876.149 1479.01 Q877.978 1475.44 877.978 1468.33 Q877.978 1461.2 876.149 1457.66 Q874.343 1454.1 870.709 1454.1 M870.709 1450.39 Q876.519 1450.39 879.575 1455 Q882.654 1459.58 882.654 1468.33 Q882.654 1477.06 879.575 1481.67 Q876.519 1486.25 870.709 1486.25 Q864.899 1486.25 861.82 1481.67 Q858.765 1477.06 858.765 1468.33 Q858.765 1459.58 861.82 1455 Q864.899 1450.39 870.709 1450.39 Z" fill="#000000" fill-rule="nonzero" fill-opacity="1" /><path clip-path="url(#clip910)" d="M891.681 1481.64 L899.32 1481.64 L899.32 1455.28 L891.01 1456.95 L891.01 1452.69 L899.274 1451.02 L903.95 1451.02 L903.95 1481.64 L911.589 1481.64 L911.589 1485.58 L891.681 1485.58 L891.681 1481.64 Z" fill="#000000" fill-rule="nonzero" fill-opacity="1" /><path clip-path="url(#clip910)" d="M1170.8 1481.64 L1187.11 1481.64 L1187.11 1485.58 L1165.17 1485.58 L1165.17 1481.64 Q1167.83 1478.89 1172.42 1474.26 Q1177.02 1469.61 1178.2 1468.27 Q1180.45 1465.74 1181.33 1464.01 Q1182.23 1462.25 1182.23 1460.56 Q1182.23 1457.8 1180.29 1456.07 Q1178.37 1454.33 1175.26 1454.33 Q1173.06 1454.33 1170.61 1455.09 Q1168.18 1455.86 1165.4 1457.41 L1165.4 1452.69 Q1168.23 1451.55 1170.68 1450.97 Q1173.13 1450.39 1175.17 1450.39 Q1180.54 1450.39 1183.74 1453.08 Q1186.93 1455.77 1186.93 1460.26 Q1186.93 1462.39 1186.12 1464.31 Q1185.33 1466.2 1183.23 1468.8 Q1182.65 1469.47 1179.55 1472.69 Q1176.44 1475.88 1170.8 1481.64 Z" fill="#000000" fill-rule="nonzero" fill-opacity="1" /><path clip-path="url(#clip910)" d="M1206.93 1454.1 Q1203.32 1454.1 1201.49 1457.66 Q1199.68 1461.2 1199.68 1468.33 Q1199.68 1475.44 1201.49 1479.01 Q1203.32 1482.55 1206.93 1482.55 Q1210.56 1482.55 1212.37 1479.01 Q1214.2 1475.44 1214.2 1468.33 Q1214.2 1461.2 1212.37 1457.66 Q1210.56 1454.1 1206.93 1454.1 M1206.93 1450.39 Q1212.74 1450.39 1215.8 1455 Q1218.87 1459.58 1218.87 1468.33 Q1218.87 1477.06 1215.8 1481.67 Q1212.74 1486.25 1206.93 1486.25 Q1201.12 1486.25 1198.04 1481.67 Q1194.99 1477.06 1194.99 1468.33 Q1194.99 1459.58 1198.04 1455 Q1201.12 1450.39 1206.93 1450.39 Z" fill="#000000" fill-rule="nonzero" fill-opacity="1" /><path clip-path="url(#clip910)" d="M1231.12 1481.64 L1247.44 1481.64 L1247.44 1485.58 L1225.49 1485.58 L1225.49 1481.64 Q1228.16 1478.89 1232.74 1474.26 Q1237.35 1469.61 1238.53 1468.27 Q1240.77 1465.74 1241.65 1464.01 Q1242.55 1462.25 1242.55 1460.56 Q1242.55 1457.8 1240.61 1456.07 Q1238.69 1454.33 1235.59 1454.33 Q1233.39 1454.33 1230.93 1455.09 Q1228.5 1455.86 1225.73 1457.41 L1225.73 1452.69 Q1228.55 1451.55 1231 1450.97 Q1233.46 1450.39 1235.49 1450.39 Q1240.86 1450.39 1244.06 1453.08 Q1247.25 1455.77 1247.25 1460.26 Q1247.25 1462.39 1246.44 1464.31 Q1245.66 1466.2 1243.55 1468.8 Q1242.97 1469.47 1239.87 1472.69 Q1236.77 1475.88 1231.12 1481.64 Z" fill="#000000" fill-rule="nonzero" fill-opacity="1" /><path clip-path="url(#clip910)" d="M1258.06 1481.64 L1265.7 1481.64 L1265.7 1455.28 L1257.39 1456.95 L1257.39 1452.69 L1265.66 1451.02 L1270.33 1451.02 L1270.33 1481.64 L1277.97 1481.64 L1277.97 1485.58 L1258.06 1485.58 L1258.06 1481.64 Z" fill="#000000" fill-rule="nonzero" fill-opacity="1" /><path clip-path="url(#clip910)" d="M1284.66 1470.7 L1297.14 1470.7 L1297.14 1474.49 L1284.66 1474.49 L1284.66 1470.7 Z" fill="#000000" fill-rule="nonzero" fill-opacity="1" /><path clip-path="url(#clip910)" d="M1314.52 1454.1 Q1310.91 1454.1 1309.08 1457.66 Q1307.28 1461.2 1307.28 1468.33 Q1307.28 1475.44 1309.08 1479.01 Q1310.91 1482.55 1314.52 1482.55 Q1318.16 1482.55 1319.96 1479.01 Q1321.79 1475.44 1321.79 1468.33 Q1321.79 1461.2 1319.96 1457.66 Q1318.16 1454.1 1314.52 1454.1 M1314.52 1450.39 Q1320.33 1450.39 1323.39 1455 Q1326.47 1459.58 1326.47 1468.33 Q1326.47 1477.06 1323.39 1481.67 Q1320.33 1486.25 1314.52 1486.25 Q1308.71 1486.25 1305.63 1481.67 Q1302.58 1477.06 1302.58 1468.33 Q1302.58 1459.58 1305.63 1455 Q1308.71 1450.39 1314.52 1450.39 Z" fill="#000000" fill-rule="nonzero" fill-opacity="1" /><path clip-path="url(#clip910)" d="M1333.5 1451.02 L1355.73 1451.02 L1355.73 1453.01 L1343.18 1485.58 L1338.29 1485.58 L1350.1 1454.96 L1333.5 1454.96 L1333.5 1451.02 Z" fill="#000000" fill-rule="nonzero" fill-opacity="1" /><path clip-path="url(#clip910)" d="M1362.09 1470.7 L1374.57 1470.7 L1374.57 1474.49 L1362.09 1474.49 L1362.09 1470.7 Z" fill="#000000" fill-rule="nonzero" fill-opacity="1" /><path clip-path="url(#clip910)" d="M1391.95 1454.1 Q1388.34 1454.1 1386.51 1457.66 Q1384.71 1461.2 1384.71 1468.33 Q1384.71 1475.44 1386.51 1479.01 Q1388.34 1482.55 1391.95 1482.55 Q1395.59 1482.55 1397.39 1479.01 Q1399.22 1475.44 1399.22 1468.33 Q1399.22 1461.2 1397.39 1457.66 Q1395.59 1454.1 1391.95 1454.1 M1391.95 1450.39 Q1397.76 1450.39 1400.82 1455 Q1403.9 1459.58 1403.9 1468.33 Q1403.9 1477.06 1400.82 1481.67 Q1397.76 1486.25 1391.95 1486.25 Q1386.14 1486.25 1383.06 1481.67 Q1380.01 1477.06 1380.01 1468.33 Q1380.01 1459.58 1383.06 1455 Q1386.14 1450.39 1391.95 1450.39 Z" fill="#000000" fill-rule="nonzero" fill-opacity="1" /><path clip-path="url(#clip910)" d="M1412.92 1481.64 L1420.56 1481.64 L1420.56 1455.28 L1412.25 1456.95 L1412.25 1452.69 L1420.52 1451.02 L1425.19 1451.02 L1425.19 1481.64 L1432.83 1481.64 L1432.83 1485.58 L1412.92 1485.58 L1412.92 1481.64 Z" fill="#000000" fill-rule="nonzero" fill-opacity="1" /><path clip-path="url(#clip910)" d="M1697.77 1481.64 L1714.09 1481.64 L1714.09 1485.58 L1692.14 1485.58 L1692.14 1481.64 Q1694.8 1478.89 1699.39 1474.26 Q1703.99 1469.61 1705.17 1468.27 Q1707.42 1465.74 1708.3 1464.01 Q1709.2 1462.25 1709.2 1460.56 Q1709.2 1457.8 1707.26 1456.07 Q1705.34 1454.33 1702.23 1454.33 Q1700.03 1454.33 1697.58 1455.09 Q1695.15 1455.86 1692.37 1457.41 L1692.37 1452.69 Q1695.2 1451.55 1697.65 1450.97 Q1700.1 1450.39 1702.14 1450.39 Q1707.51 1450.39 1710.71 1453.08 Q1713.9 1455.77 1713.9 1460.26 Q1713.9 1462.39 1713.09 1464.31 Q1712.3 1466.2 1710.2 1468.8 Q1709.62 1469.47 1706.52 1472.69 Q1703.41 1475.88 1697.77 1481.64 Z" fill="#000000" fill-rule="nonzero" fill-opacity="1" /><path clip-path="url(#clip910)" d="M1733.9 1454.1 Q1730.29 1454.1 1728.46 1457.66 Q1726.65 1461.2 1726.65 1468.33 Q1726.65 1475.44 1728.46 1479.01 Q1730.29 1482.55 1733.9 1482.55 Q1737.53 1482.55 1739.34 1479.01 Q1741.17 1475.44 1741.17 1468.33 Q1741.17 1461.2 1739.34 1457.66 Q1737.53 1454.1 1733.9 1454.1 M1733.9 1450.39 Q1739.71 1450.39 1742.77 1455 Q1745.84 1459.58 1745.84 1468.33 Q1745.84 1477.06 1742.77 1481.67 Q1739.71 1486.25 1733.9 1486.25 Q1728.09 1486.25 1725.01 1481.67 Q1721.96 1477.06 1721.96 1468.33 Q1721.96 1459.58 1725.01 1455 Q1728.09 1450.39 1733.9 1450.39 Z" fill="#000000" fill-rule="nonzero" fill-opacity="1" /><path clip-path="url(#clip910)" d="M1758.09 1481.64 L1774.41 1481.64 L1774.41 1485.58 L1752.46 1485.58 L1752.46 1481.64 Q1755.13 1478.89 1759.71 1474.26 Q1764.32 1469.61 1765.5 1468.27 Q1767.74 1465.74 1768.62 1464.01 Q1769.53 1462.25 1769.53 1460.56 Q1769.53 1457.8 1767.58 1456.07 Q1765.66 1454.33 1762.56 1454.33 Q1760.36 1454.33 1757.9 1455.09 Q1755.47 1455.86 1752.7 1457.41 L1752.7 1452.69 Q1755.52 1451.55 1757.97 1450.97 Q1760.43 1450.39 1762.46 1450.39 Q1767.84 1450.39 1771.03 1453.08 Q1774.22 1455.77 1774.22 1460.26 Q1774.22 1462.39 1773.41 1464.31 Q1772.63 1466.2 1770.52 1468.8 Q1769.94 1469.47 1766.84 1472.69 Q1763.74 1475.88 1758.09 1481.64 Z" fill="#000000" fill-rule="nonzero" fill-opacity="1" /><path clip-path="url(#clip910)" d="M1785.03 1481.64 L1792.67 1481.64 L1792.67 1455.28 L1784.36 1456.95 L1784.36 1452.69 L1792.63 1451.02 L1797.3 1451.02 L1797.3 1481.64 L1804.94 1481.64 L1804.94 1485.58 L1785.03 1485.58 L1785.03 1481.64 Z" fill="#000000" fill-rule="nonzero" fill-opacity="1" /><path clip-path="url(#clip910)" d="M1811.63 1470.7 L1824.11 1470.7 L1824.11 1474.49 L1811.63 1474.49 L1811.63 1470.7 Z" fill="#000000" fill-rule="nonzero" fill-opacity="1" /><path clip-path="url(#clip910)" d="M1832.3 1481.64 L1839.94 1481.64 L1839.94 1455.28 L1831.63 1456.95 L1831.63 1452.69 L1839.9 1451.02 L1844.57 1451.02 L1844.57 1481.64 L1852.21 1481.64 L1852.21 1485.58 L1832.3 1485.58 L1832.3 1481.64 Z" fill="#000000" fill-rule="nonzero" fill-opacity="1" /><path clip-path="url(#clip910)" d="M1871.65 1454.1 Q1868.04 1454.1 1866.21 1457.66 Q1864.41 1461.2 1864.41 1468.33 Q1864.41 1475.44 1866.21 1479.01 Q1868.04 1482.55 1871.65 1482.55 Q1875.29 1482.55 1877.09 1479.01 Q1878.92 1475.44 1878.92 1468.33 Q1878.92 1461.2 1877.09 1457.66 Q1875.29 1454.1 1871.65 1454.1 M1871.65 1450.39 Q1877.46 1450.39 1880.52 1455 Q1883.6 1459.58 1883.6 1468.33 Q1883.6 1477.06 1880.52 1481.67 Q1877.46 1486.25 1871.65 1486.25 Q1865.84 1486.25 1862.77 1481.67 Q1859.71 1477.06 1859.71 1468.33 Q1859.71 1459.58 1862.77 1455 Q1865.84 1450.39 1871.65 1450.39 Z" fill="#000000" fill-rule="nonzero" fill-opacity="1" /><path clip-path="url(#clip910)" d="M1889.06 1470.7 L1901.54 1470.7 L1901.54 1474.49 L1889.06 1474.49 L1889.06 1470.7 Z" fill="#000000" fill-rule="nonzero" fill-opacity="1" /><path clip-path="url(#clip910)" d="M1918.92 1454.1 Q1915.31 1454.1 1913.48 1457.66 Q1911.68 1461.2 1911.68 1468.33 Q1911.68 1475.44 1913.48 1479.01 Q1915.31 1482.55 1918.92 1482.55 Q1922.56 1482.55 1924.36 1479.01 Q1926.19 1475.44 1926.19 1468.33 Q1926.19 1461.2 1924.36 1457.66 Q1922.56 1454.1 1918.92 1454.1 M1918.92 1450.39 Q1924.73 1450.39 1927.79 1455 Q1930.87 1459.58 1930.87 1468.33 Q1930.87 1477.06 1927.79 1481.67 Q1924.73 1486.25 1918.92 1486.25 Q1913.11 1486.25 1910.03 1481.67 Q1906.98 1477.06 1906.98 1468.33 Q1906.98 1459.58 1910.03 1455 Q1913.11 1450.39 1918.92 1450.39 Z" fill="#000000" fill-rule="nonzero" fill-opacity="1" /><path clip-path="url(#clip910)" d="M1939.89 1481.64 L1947.53 1481.64 L1947.53 1455.28 L1939.22 1456.95 L1939.22 1452.69 L1947.49 1451.02 L1952.16 1451.02 L1952.16 1481.64 L1959.8 1481.64 L1959.8 1485.58 L1939.89 1485.58 L1939.89 1481.64 Z" fill="#000000" fill-rule="nonzero" fill-opacity="1" /><path clip-path="url(#clip910)" d="M1243.23 1537.81 L1243.23 1518.52 L1249.09 1518.52 L1249.09 1568.04 L1243.23 1568.04 L1243.23 1562.7 Q1241.39 1565.88 1238.55 1567.44 Q1235.75 1568.97 1231.81 1568.97 Q1225.34 1568.97 1221.27 1563.81 Q1217.23 1558.65 1217.23 1550.25 Q1217.23 1541.85 1221.27 1536.69 Q1225.34 1531.54 1231.81 1531.54 Q1235.75 1531.54 1238.55 1533.1 Q1241.39 1534.62 1243.23 1537.81 M1223.28 1550.25 Q1223.28 1556.71 1225.92 1560.4 Q1228.59 1564.07 1233.24 1564.07 Q1237.88 1564.07 1240.56 1560.4 Q1243.23 1556.71 1243.23 1550.25 Q1243.23 1543.79 1240.56 1540.13 Q1237.88 1536.44 1233.24 1536.44 Q1228.59 1536.44 1225.92 1540.13 Q1223.28 1543.79 1223.28 1550.25 Z" fill="#000000" fill-rule="nonzero" fill-opacity="1" /><path clip-path="url(#clip910)" d="M1277.35 1550.12 Q1270.25 1550.12 1267.52 1551.75 Q1264.78 1553.37 1264.78 1557.29 Q1264.78 1560.4 1266.82 1562.25 Q1268.89 1564.07 1272.42 1564.07 Q1277.29 1564.07 1280.22 1560.63 Q1283.18 1557.16 1283.18 1551.43 L1283.18 1550.12 L1277.35 1550.12 M1289.03 1547.71 L1289.03 1568.04 L1283.18 1568.04 L1283.18 1562.63 Q1281.17 1565.88 1278.18 1567.44 Q1275.19 1568.97 1270.86 1568.97 Q1265.38 1568.97 1262.14 1565.91 Q1258.92 1562.82 1258.92 1557.67 Q1258.92 1551.65 1262.93 1548.6 Q1266.98 1545.54 1274.96 1545.54 L1283.18 1545.54 L1283.18 1544.97 Q1283.18 1540.93 1280.5 1538.73 Q1277.86 1536.5 1273.06 1536.5 Q1270 1536.5 1267.1 1537.23 Q1264.21 1537.97 1261.53 1539.43 L1261.53 1534.02 Q1264.75 1532.78 1267.77 1532.17 Q1270.8 1531.54 1273.66 1531.54 Q1281.39 1531.54 1285.21 1535.55 Q1289.03 1539.56 1289.03 1547.71 Z" fill="#000000" fill-rule="nonzero" fill-opacity="1" /><path clip-path="url(#clip910)" d="M1306.89 1522.27 L1306.89 1532.4 L1318.95 1532.4 L1318.95 1536.95 L1306.89 1536.95 L1306.89 1556.3 Q1306.89 1560.66 1308.07 1561.9 Q1309.28 1563.14 1312.94 1563.14 L1318.95 1563.14 L1318.95 1568.04 L1312.94 1568.04 Q1306.16 1568.04 1303.58 1565.53 Q1301 1562.98 1301 1556.3 L1301 1536.95 L1296.7 1536.95 L1296.7 1532.4 L1301 1532.4 L1301 1522.27 L1306.89 1522.27 Z" fill="#000000" fill-rule="nonzero" fill-opacity="1" /><path clip-path="url(#clip910)" d="M1357.15 1548.76 L1357.15 1551.62 L1330.22 1551.62 Q1330.6 1557.67 1333.85 1560.85 Q1337.13 1564 1342.95 1564 Q1346.32 1564 1349.48 1563.17 Q1352.66 1562.35 1355.78 1560.69 L1355.78 1566.23 Q1352.63 1567.57 1349.32 1568.27 Q1346.01 1568.97 1342.6 1568.97 Q1334.07 1568.97 1329.07 1564 Q1324.11 1559.04 1324.11 1550.57 Q1324.11 1541.82 1328.82 1536.69 Q1333.56 1531.54 1341.58 1531.54 Q1348.78 1531.54 1352.94 1536.18 Q1357.15 1540.8 1357.15 1548.76 M1351.29 1547.04 Q1351.23 1542.23 1348.58 1539.37 Q1345.97 1536.5 1341.65 1536.5 Q1336.74 1536.5 1333.78 1539.27 Q1330.86 1542.04 1330.41 1547.07 L1351.29 1547.04 Z" fill="#000000" fill-rule="nonzero" fill-opacity="1" /><polyline clip-path="url(#clip912)" style="stroke:#000000; stroke-linecap:round; stroke-linejoin:round; stroke-width:2; stroke-opacity:0.1; fill:none" points="221.618,1386.4 2352.76,1386.4 "/>
<polyline clip-path="url(#clip912)" style="stroke:#000000; stroke-linecap:round; stroke-linejoin:round; stroke-width:2; stroke-opacity:0.1; fill:none" points="221.618,898.763 2352.76,898.763 "/>
<polyline clip-path="url(#clip912)" style="stroke:#000000; stroke-linecap:round; stroke-linejoin:round; stroke-width:2; stroke-opacity:0.1; fill:none" points="221.618,411.13 2352.76,411.13 "/>
<polyline clip-path="url(#clip912)" style="stroke:#000000; stroke-linecap:round; stroke-linejoin:round; stroke-width:2; stroke-opacity:0.05; fill:none" points="221.618,1408.71 2352.76,1408.71 "/>
<polyline clip-path="url(#clip912)" style="stroke:#000000; stroke-linecap:round; stroke-linejoin:round; stroke-width:2; stroke-opacity:0.05; fill:none" points="221.618,1239.6 2352.76,1239.6 "/>
<polyline clip-path="url(#clip912)" style="stroke:#000000; stroke-linecap:round; stroke-linejoin:round; stroke-width:2; stroke-opacity:0.05; fill:none" points="221.618,1153.74 2352.76,1153.74 "/>
<polyline clip-path="url(#clip912)" style="stroke:#000000; stroke-linecap:round; stroke-linejoin:round; stroke-width:2; stroke-opacity:0.05; fill:none" points="221.618,1092.81 2352.76,1092.81 "/>
<polyline clip-path="url(#clip912)" style="stroke:#000000; stroke-linecap:round; stroke-linejoin:round; stroke-width:2; stroke-opacity:0.05; fill:none" points="221.618,1045.55 2352.76,1045.55 "/>
<polyline clip-path="url(#clip912)" style="stroke:#000000; stroke-linecap:round; stroke-linejoin:round; stroke-width:2; stroke-opacity:0.05; fill:none" points="221.618,1006.94 2352.76,1006.94 "/>
<polyline clip-path="url(#clip912)" style="stroke:#000000; stroke-linecap:round; stroke-linejoin:round; stroke-width:2; stroke-opacity:0.05; fill:none" points="221.618,974.298 2352.76,974.298 "/>
<polyline clip-path="url(#clip912)" style="stroke:#000000; stroke-linecap:round; stroke-linejoin:round; stroke-width:2; stroke-opacity:0.05; fill:none" points="221.618,946.019 2352.76,946.019 "/>
<polyline clip-path="url(#clip912)" style="stroke:#000000; stroke-linecap:round; stroke-linejoin:round; stroke-width:2; stroke-opacity:0.05; fill:none" points="221.618,921.076 2352.76,921.076 "/>
<polyline clip-path="url(#clip912)" style="stroke:#000000; stroke-linecap:round; stroke-linejoin:round; stroke-width:2; stroke-opacity:0.05; fill:none" points="221.618,751.971 2352.76,751.971 "/>
<polyline clip-path="url(#clip912)" style="stroke:#000000; stroke-linecap:round; stroke-linejoin:round; stroke-width:2; stroke-opacity:0.05; fill:none" points="221.618,666.103 2352.76,666.103 "/>
<polyline clip-path="url(#clip912)" style="stroke:#000000; stroke-linecap:round; stroke-linejoin:round; stroke-width:2; stroke-opacity:0.05; fill:none" points="221.618,605.178 2352.76,605.178 "/>
<polyline clip-path="url(#clip912)" style="stroke:#000000; stroke-linecap:round; stroke-linejoin:round; stroke-width:2; stroke-opacity:0.05; fill:none" points="221.618,557.922 2352.76,557.922 "/>
<polyline clip-path="url(#clip912)" style="stroke:#000000; stroke-linecap:round; stroke-linejoin:round; stroke-width:2; stroke-opacity:0.05; fill:none" points="221.618,519.31 2352.76,519.31 "/>
<polyline clip-path="url(#clip912)" style="stroke:#000000; stroke-linecap:round; stroke-linejoin:round; stroke-width:2; stroke-opacity:0.05; fill:none" points="221.618,486.665 2352.76,486.665 "/>
<polyline clip-path="url(#clip912)" style="stroke:#000000; stroke-linecap:round; stroke-linejoin:round; stroke-width:2; stroke-opacity:0.05; fill:none" points="221.618,458.386 2352.76,458.386 "/>
<polyline clip-path="url(#clip912)" style="stroke:#000000; stroke-linecap:round; stroke-linejoin:round; stroke-width:2; stroke-opacity:0.05; fill:none" points="221.618,433.443 2352.76,433.443 "/>
<polyline clip-path="url(#clip912)" style="stroke:#000000; stroke-linecap:round; stroke-linejoin:round; stroke-width:2; stroke-opacity:0.05; fill:none" points="221.618,264.338 2352.76,264.338 "/>
<polyline clip-path="url(#clip912)" style="stroke:#000000; stroke-linecap:round; stroke-linejoin:round; stroke-width:2; stroke-opacity:0.05; fill:none" points="221.618,178.47 2352.76,178.47 "/>
<polyline clip-path="url(#clip910)" style="stroke:#000000; stroke-linecap:round; stroke-linejoin:round; stroke-width:4; stroke-opacity:1; fill:none" points="221.618,1423.18 221.618,123.472 "/>
<polyline clip-path="url(#clip910)" style="stroke:#000000; stroke-linecap:round; stroke-linejoin:round; stroke-width:4; stroke-opacity:1; fill:none" points="221.618,1386.4 240.516,1386.4 "/>
<polyline clip-path="url(#clip910)" style="stroke:#000000; stroke-linecap:round; stroke-linejoin:round; stroke-width:4; stroke-opacity:1; fill:none" points="221.618,898.763 240.516,898.763 "/>
<polyline clip-path="url(#clip910)" style="stroke:#000000; stroke-linecap:round; stroke-linejoin:round; stroke-width:4; stroke-opacity:1; fill:none" points="221.618,411.13 240.516,411.13 "/>
<polyline clip-path="url(#clip910)" style="stroke:#000000; stroke-linecap:round; stroke-linejoin:round; stroke-width:4; stroke-opacity:1; fill:none" points="221.618,1408.71 231.067,1408.71 "/>
<polyline clip-path="url(#clip910)" style="stroke:#000000; stroke-linecap:round; stroke-linejoin:round; stroke-width:4; stroke-opacity:1; fill:none" points="221.618,1239.6 231.067,1239.6 "/>
<polyline clip-path="url(#clip910)" style="stroke:#000000; stroke-linecap:round; stroke-linejoin:round; stroke-width:4; stroke-opacity:1; fill:none" points="221.618,1153.74 231.067,1153.74 "/>
<polyline clip-path="url(#clip910)" style="stroke:#000000; stroke-linecap:round; stroke-linejoin:round; stroke-width:4; stroke-opacity:1; fill:none" points="221.618,1092.81 231.067,1092.81 "/>
<polyline clip-path="url(#clip910)" style="stroke:#000000; stroke-linecap:round; stroke-linejoin:round; stroke-width:4; stroke-opacity:1; fill:none" points="221.618,1045.55 231.067,1045.55 "/>
<polyline clip-path="url(#clip910)" style="stroke:#000000; stroke-linecap:round; stroke-linejoin:round; stroke-width:4; stroke-opacity:1; fill:none" points="221.618,1006.94 231.067,1006.94 "/>
<polyline clip-path="url(#clip910)" style="stroke:#000000; stroke-linecap:round; stroke-linejoin:round; stroke-width:4; stroke-opacity:1; fill:none" points="221.618,974.298 231.067,974.298 "/>
<polyline clip-path="url(#clip910)" style="stroke:#000000; stroke-linecap:round; stroke-linejoin:round; stroke-width:4; stroke-opacity:1; fill:none" points="221.618,946.019 231.067,946.019 "/>
<polyline clip-path="url(#clip910)" style="stroke:#000000; stroke-linecap:round; stroke-linejoin:round; stroke-width:4; stroke-opacity:1; fill:none" points="221.618,921.076 231.067,921.076 "/>
<polyline clip-path="url(#clip910)" style="stroke:#000000; stroke-linecap:round; stroke-linejoin:round; stroke-width:4; stroke-opacity:1; fill:none" points="221.618,751.971 231.067,751.971 "/>
<polyline clip-path="url(#clip910)" style="stroke:#000000; stroke-linecap:round; stroke-linejoin:round; stroke-width:4; stroke-opacity:1; fill:none" points="221.618,666.103 231.067,666.103 "/>
<polyline clip-path="url(#clip910)" style="stroke:#000000; stroke-linecap:round; stroke-linejoin:round; stroke-width:4; stroke-opacity:1; fill:none" points="221.618,605.178 231.067,605.178 "/>
<polyline clip-path="url(#clip910)" style="stroke:#000000; stroke-linecap:round; stroke-linejoin:round; stroke-width:4; stroke-opacity:1; fill:none" points="221.618,557.922 231.067,557.922 "/>
<polyline clip-path="url(#clip910)" style="stroke:#000000; stroke-linecap:round; stroke-linejoin:round; stroke-width:4; stroke-opacity:1; fill:none" points="221.618,519.31 231.067,519.31 "/>
<polyline clip-path="url(#clip910)" style="stroke:#000000; stroke-linecap:round; stroke-linejoin:round; stroke-width:4; stroke-opacity:1; fill:none" points="221.618,486.665 231.067,486.665 "/>
<polyline clip-path="url(#clip910)" style="stroke:#000000; stroke-linecap:round; stroke-linejoin:round; stroke-width:4; stroke-opacity:1; fill:none" points="221.618,458.386 231.067,458.386 "/>
<polyline clip-path="url(#clip910)" style="stroke:#000000; stroke-linecap:round; stroke-linejoin:round; stroke-width:4; stroke-opacity:1; fill:none" points="221.618,433.443 231.067,433.443 "/>
<polyline clip-path="url(#clip910)" style="stroke:#000000; stroke-linecap:round; stroke-linejoin:round; stroke-width:4; stroke-opacity:1; fill:none" points="221.618,264.338 231.067,264.338 "/>
<polyline clip-path="url(#clip910)" style="stroke:#000000; stroke-linecap:round; stroke-linejoin:round; stroke-width:4; stroke-opacity:1; fill:none" points="221.618,178.47 231.067,178.47 "/>
<path clip-path="url(#clip910)" d="M116.154 1406.19 L123.793 1406.19 L123.793 1379.82 L115.483 1381.49 L115.483 1377.23 L123.747 1375.56 L128.422 1375.56 L128.422 1406.19 L136.061 1406.19 L136.061 1410.12 L116.154 1410.12 L116.154 1406.19 Z" fill="#000000" fill-rule="nonzero" fill-opacity="1" /><path clip-path="url(#clip910)" d="M155.506 1378.64 Q151.895 1378.64 150.066 1382.21 Q148.26 1385.75 148.26 1392.88 Q148.26 1399.98 150.066 1403.55 Q151.895 1407.09 155.506 1407.09 Q159.14 1407.09 160.945 1403.55 Q162.774 1399.98 162.774 1392.88 Q162.774 1385.75 160.945 1382.21 Q159.14 1378.64 155.506 1378.64 M155.506 1374.94 Q161.316 1374.94 164.371 1379.54 Q167.45 1384.13 167.45 1392.88 Q167.45 1401.6 164.371 1406.21 Q161.316 1410.79 155.506 1410.79 Q149.695 1410.79 146.617 1406.21 Q143.561 1401.6 143.561 1392.88 Q143.561 1384.13 146.617 1379.54 Q149.695 1374.94 155.506 1374.94 Z" fill="#000000" fill-rule="nonzero" fill-opacity="1" /><path clip-path="url(#clip910)" d="M168.635 1354.63 L183.549 1354.63 L183.549 1357.83 L172.114 1357.83 L172.114 1364.71 Q172.942 1364.43 173.769 1364.3 Q174.597 1364.15 175.424 1364.15 Q180.126 1364.15 182.872 1366.73 Q185.618 1369.3 185.618 1373.7 Q185.618 1378.24 182.797 1380.76 Q179.976 1383.26 174.841 1383.26 Q173.073 1383.26 171.23 1382.96 Q169.406 1382.66 167.45 1382.05 L167.45 1378.24 Q169.143 1379.16 170.948 1379.61 Q172.754 1380.06 174.766 1380.06 Q178.02 1380.06 179.92 1378.35 Q181.819 1376.64 181.819 1373.7 Q181.819 1370.77 179.92 1369.06 Q178.02 1367.35 174.766 1367.35 Q173.243 1367.35 171.719 1367.69 Q170.215 1368.02 168.635 1368.74 L168.635 1354.63 Z" fill="#000000" fill-rule="nonzero" fill-opacity="1" /><path clip-path="url(#clip910)" d="M114.931 918.555 L122.57 918.555 L122.57 892.19 L114.26 893.856 L114.26 889.597 L122.524 887.93 L127.2 887.93 L127.2 918.555 L134.839 918.555 L134.839 922.49 L114.931 922.49 L114.931 918.555 Z" fill="#000000" fill-rule="nonzero" fill-opacity="1" /><path clip-path="url(#clip910)" d="M154.283 891.009 Q150.672 891.009 148.843 894.574 Q147.038 898.115 147.038 905.245 Q147.038 912.351 148.843 915.916 Q150.672 919.458 154.283 919.458 Q157.917 919.458 159.723 915.916 Q161.552 912.351 161.552 905.245 Q161.552 898.115 159.723 894.574 Q157.917 891.009 154.283 891.009 M154.283 887.305 Q160.093 887.305 163.149 891.912 Q166.227 896.495 166.227 905.245 Q166.227 913.972 163.149 918.578 Q160.093 923.162 154.283 923.162 Q148.473 923.162 145.394 918.578 Q142.339 913.972 142.339 905.245 Q142.339 896.495 145.394 891.912 Q148.473 887.305 154.283 887.305 Z" fill="#000000" fill-rule="nonzero" fill-opacity="1" /><path clip-path="url(#clip910)" d="M176.252 879.526 Q173.694 879.526 172.19 881.275 Q170.704 883.024 170.704 886.071 Q170.704 889.099 172.19 890.867 Q173.694 892.616 176.252 892.616 Q178.81 892.616 180.296 890.867 Q181.8 889.099 181.8 886.071 Q181.8 883.024 180.296 881.275 Q178.81 879.526 176.252 879.526 M183.794 867.621 L183.794 871.081 Q182.365 870.404 180.898 870.047 Q179.449 869.689 178.02 869.689 Q174.258 869.689 172.265 872.228 Q170.29 874.768 170.008 879.902 Q171.117 878.266 172.791 877.401 Q174.465 876.517 176.478 876.517 Q180.709 876.517 183.154 879.093 Q185.618 881.651 185.618 886.071 Q185.618 890.397 183.06 893.011 Q180.503 895.625 176.252 895.625 Q171.381 895.625 168.804 891.901 Q166.227 888.159 166.227 881.068 Q166.227 874.41 169.387 870.461 Q172.547 866.492 177.869 866.492 Q179.299 866.492 180.747 866.774 Q182.214 867.056 183.794 867.621 Z" fill="#000000" fill-rule="nonzero" fill-opacity="1" /><path clip-path="url(#clip910)" d="M116.267 430.922 L123.906 430.922 L123.906 404.557 L115.596 406.223 L115.596 401.964 L123.859 400.297 L128.535 400.297 L128.535 430.922 L136.174 430.922 L136.174 434.857 L116.267 434.857 L116.267 430.922 Z" fill="#000000" fill-rule="nonzero" fill-opacity="1" /><path clip-path="url(#clip910)" d="M155.618 403.376 Q152.007 403.376 150.179 406.941 Q148.373 410.482 148.373 417.612 Q148.373 424.718 150.179 428.283 Q152.007 431.825 155.618 431.825 Q159.253 431.825 161.058 428.283 Q162.887 424.718 162.887 417.612 Q162.887 410.482 161.058 406.941 Q159.253 403.376 155.618 403.376 M155.618 399.672 Q161.429 399.672 164.484 404.279 Q167.563 408.862 167.563 417.612 Q167.563 426.339 164.484 430.945 Q161.429 435.529 155.618 435.529 Q149.808 435.529 146.73 430.945 Q143.674 426.339 143.674 417.612 Q143.674 408.862 146.73 404.279 Q149.808 399.672 155.618 399.672 Z" fill="#000000" fill-rule="nonzero" fill-opacity="1" /><path clip-path="url(#clip910)" d="M167.563 379.367 L185.618 379.367 L185.618 380.984 L175.424 407.447 L171.456 407.447 L181.048 382.564 L167.563 382.564 L167.563 379.367 Z" fill="#000000" fill-rule="nonzero" fill-opacity="1" /><path clip-path="url(#clip910)" d="M21.7677 1084.27 L39.6235 1084.27 L39.6235 1076.19 Q39.6235 1071.7 37.3 1069.25 Q34.9765 1066.8 30.6797 1066.8 Q26.4147 1066.8 24.0912 1069.25 Q21.7677 1071.7 21.7677 1076.19 L21.7677 1084.27 M16.4842 1090.7 L16.4842 1076.19 Q16.4842 1068.2 20.1126 1064.13 Q23.7092 1060.02 30.6797 1060.02 Q37.7138 1060.02 41.3104 1064.13 Q44.907 1068.2 44.907 1076.19 L44.907 1084.27 L64.0042 1084.27 L64.0042 1090.7 L16.4842 1090.7 Z" fill="#000000" fill-rule="nonzero" fill-opacity="1" /><path clip-path="url(#clip910)" d="M32.4621 1040.16 Q32.4621 1044.87 36.1542 1047.61 Q39.8145 1050.35 46.212 1050.35 Q52.6095 1050.35 56.3017 1047.64 Q59.9619 1044.9 59.9619 1040.16 Q59.9619 1035.48 56.2698 1032.74 Q52.5777 1030.01 46.212 1030.01 Q39.8781 1030.01 36.186 1032.74 Q32.4621 1035.48 32.4621 1040.16 M27.4968 1040.16 Q27.4968 1032.52 32.4621 1028.16 Q37.4273 1023.8 46.212 1023.8 Q54.9649 1023.8 59.9619 1028.16 Q64.9272 1032.52 64.9272 1040.16 Q64.9272 1047.83 59.9619 1052.19 Q54.9649 1056.52 46.212 1056.52 Q37.4273 1056.52 32.4621 1052.19 Q27.4968 1047.83 27.4968 1040.16 Z" fill="#000000" fill-rule="nonzero" fill-opacity="1" /><path clip-path="url(#clip910)" d="M33.8307 993.436 Q33.2578 994.423 33.0032 995.601 Q32.7167 996.746 32.7167 998.147 Q32.7167 1003.11 35.9632 1005.79 Q39.1779 1008.43 45.2253 1008.43 L64.0042 1008.43 L64.0042 1014.32 L28.3562 1014.32 L28.3562 1008.43 L33.8944 1008.43 Q30.6479 1006.58 29.0883 1003.62 Q27.4968 1000.66 27.4968 996.428 Q27.4968 995.823 27.5923 995.091 Q27.656 994.359 27.8151 993.468 L33.8307 993.436 Z" fill="#000000" fill-rule="nonzero" fill-opacity="1" /><path clip-path="url(#clip910)" d="M18.2347 981.501 L28.3562 981.501 L28.3562 969.437 L32.9077 969.437 L32.9077 981.501 L52.2594 981.501 Q56.6199 981.501 57.8613 980.323 Q59.1026 979.113 59.1026 975.453 L59.1026 969.437 L64.0042 969.437 L64.0042 975.453 Q64.0042 982.233 61.4897 984.811 Q58.9434 987.389 52.2594 987.389 L32.9077 987.389 L32.9077 991.686 L28.3562 991.686 L28.3562 987.389 L18.2347 987.389 L18.2347 981.501 Z" fill="#000000" fill-rule="nonzero" fill-opacity="1" /><path clip-path="url(#clip910)" d="M14.479 943.688 L19.3487 943.688 L19.3487 949.29 Q19.3487 952.441 20.6219 953.682 Q21.895 954.892 25.2052 954.892 L28.3562 954.892 L28.3562 945.248 L32.9077 945.248 L32.9077 954.892 L64.0042 954.892 L64.0042 960.78 L32.9077 960.78 L32.9077 966.382 L28.3562 966.382 L28.3562 960.78 L25.8736 960.78 Q19.9216 960.78 17.2162 958.011 Q14.479 955.242 14.479 949.226 L14.479 943.688 Z" fill="#000000" fill-rule="nonzero" fill-opacity="1" /><path clip-path="url(#clip910)" d="M32.4621 924.973 Q32.4621 929.684 36.1542 932.421 Q39.8145 935.158 46.212 935.158 Q52.6095 935.158 56.3017 932.453 Q59.9619 929.715 59.9619 924.973 Q59.9619 920.294 56.2698 917.557 Q52.5777 914.82 46.212 914.82 Q39.8781 914.82 36.186 917.557 Q32.4621 920.294 32.4621 924.973 M27.4968 924.973 Q27.4968 917.334 32.4621 912.974 Q37.4273 908.613 46.212 908.613 Q54.9649 908.613 59.9619 912.974 Q64.9272 917.334 64.9272 924.973 Q64.9272 932.644 59.9619 937.004 Q54.9649 941.333 46.212 941.333 Q37.4273 941.333 32.4621 937.004 Q27.4968 932.644 27.4968 924.973 Z" fill="#000000" fill-rule="nonzero" fill-opacity="1" /><path clip-path="url(#clip910)" d="M14.479 898.905 L14.479 893.049 L64.0042 893.049 L64.0042 898.905 L14.479 898.905 Z" fill="#000000" fill-rule="nonzero" fill-opacity="1" /><path clip-path="url(#clip910)" d="M28.3562 880.795 L28.3562 874.939 L64.0042 874.939 L64.0042 880.795 L28.3562 880.795 M14.479 880.795 L14.479 874.939 L21.895 874.939 L21.895 880.795 L14.479 880.795 Z" fill="#000000" fill-rule="nonzero" fill-opacity="1" /><path clip-path="url(#clip910)" d="M32.4621 848.871 Q32.4621 853.582 36.1542 856.319 Q39.8145 859.056 46.212 859.056 Q52.6095 859.056 56.3017 856.351 Q59.9619 853.613 59.9619 848.871 Q59.9619 844.192 56.2698 841.455 Q52.5777 838.718 46.212 838.718 Q39.8781 838.718 36.186 841.455 Q32.4621 844.192 32.4621 848.871 M27.4968 848.871 Q27.4968 841.232 32.4621 836.872 Q37.4273 832.511 46.212 832.511 Q54.9649 832.511 59.9619 836.872 Q64.9272 841.232 64.9272 848.871 Q64.9272 856.542 59.9619 860.902 Q54.9649 865.231 46.212 865.231 Q37.4273 865.231 32.4621 860.902 Q27.4968 856.542 27.4968 848.871 Z" fill="#000000" fill-rule="nonzero" fill-opacity="1" /><path clip-path="url(#clip910)" d="M64.0042 789.574 L16.4842 807.717 L16.4842 801.001 L56.4926 785.946 L16.4842 770.859 L16.4842 764.175 L64.0042 782.286 L64.0042 789.574 Z" fill="#000000" fill-rule="nonzero" fill-opacity="1" /><path clip-path="url(#clip910)" d="M46.0847 746.351 Q46.0847 753.449 47.7079 756.186 Q49.3312 758.924 53.2461 758.924 Q56.3653 758.924 58.2114 756.887 Q60.0256 754.818 60.0256 751.285 Q60.0256 746.415 56.5881 743.487 Q53.1188 740.527 47.3897 740.527 L46.0847 740.527 L46.0847 746.351 M43.6657 734.67 L64.0042 734.67 L64.0042 740.527 L58.5933 740.527 Q61.8398 742.532 63.3994 745.524 Q64.9272 748.516 64.9272 752.844 Q64.9272 758.319 61.8716 761.565 Q58.7843 764.78 53.6281 764.78 Q47.6125 764.78 44.5569 760.77 Q41.5014 756.727 41.5014 748.738 L41.5014 740.527 L40.9285 740.527 Q36.8862 740.527 34.6901 743.2 Q32.4621 745.842 32.4621 750.648 Q32.4621 753.704 33.1941 756.6 Q33.9262 759.496 35.3903 762.17 L29.9795 762.17 Q28.7381 758.955 28.1334 755.932 Q27.4968 752.908 27.4968 750.043 Q27.4968 742.309 31.5072 738.49 Q35.5176 734.67 43.6657 734.67 Z" fill="#000000" fill-rule="nonzero" fill-opacity="1" /><path clip-path="url(#clip910)" d="M14.479 722.607 L14.479 716.751 L64.0042 716.751 L64.0042 722.607 L14.479 722.607 Z" fill="#000000" fill-rule="nonzero" fill-opacity="1" /><path clip-path="url(#clip910)" d="M49.9359 705.102 L28.3562 705.102 L28.3562 699.245 L49.7131 699.245 Q54.7739 699.245 57.3202 697.272 Q59.8346 695.298 59.8346 691.352 Q59.8346 686.609 56.8109 683.872 Q53.7872 681.103 48.5673 681.103 L28.3562 681.103 L28.3562 675.246 L64.0042 675.246 L64.0042 681.103 L58.5296 681.103 Q61.7762 683.235 63.3676 686.068 Q64.9272 688.869 64.9272 692.593 Q64.9272 698.736 61.1078 701.919 Q57.2883 705.102 49.9359 705.102 M27.4968 690.365 L27.4968 690.365 Z" fill="#000000" fill-rule="nonzero" fill-opacity="1" /><path clip-path="url(#clip910)" d="M44.7161 632.692 L47.5806 632.692 L47.5806 659.619 Q53.6281 659.237 56.8109 655.99 Q59.9619 652.712 59.9619 646.887 Q59.9619 643.513 59.1344 640.362 Q58.3069 637.179 56.6518 634.06 L62.1899 634.06 Q63.5267 637.211 64.227 640.521 Q64.9272 643.832 64.9272 647.237 Q64.9272 655.767 59.9619 660.764 Q54.9967 665.73 46.5303 665.73 Q37.7774 665.73 32.6531 661.019 Q27.4968 656.277 27.4968 648.256 Q27.4968 641.063 32.1438 636.893 Q36.7589 632.692 44.7161 632.692 M42.9973 638.548 Q38.1912 638.612 35.3266 641.253 Q32.4621 643.863 32.4621 648.192 Q32.4621 653.094 35.2312 656.054 Q38.0002 658.982 43.0292 659.428 L42.9973 638.548 Z" fill="#000000" fill-rule="nonzero" fill-opacity="1" /><path clip-path="url(#clip910)" d="M43.5384 605.319 L43.5384 588.163 L48.7583 588.163 L48.7583 605.319 L43.5384 605.319 Z" fill="#000000" fill-rule="nonzero" fill-opacity="1" /><path clip-path="url(#clip910)" d="M16.4842 558.595 L16.4842 552.134 L45.3526 552.134 Q52.9915 552.134 56.3653 549.365 Q59.7073 546.595 59.7073 540.389 Q59.7073 534.214 56.3653 531.445 Q52.9915 528.676 45.3526 528.676 L16.4842 528.676 L16.4842 522.215 L46.1484 522.215 Q55.4423 522.215 60.1847 526.83 Q64.9272 531.413 64.9272 540.389 Q64.9272 549.396 60.1847 554.011 Q55.4423 558.595 46.1484 558.595 L16.4842 558.595 Z" fill="#000000" fill-rule="nonzero" fill-opacity="1" /><path clip-path="url(#clip910)" d="M18.0438 481.665 L24.314 481.665 Q22.5634 485.326 21.704 488.572 Q20.8447 491.819 20.8447 494.842 Q20.8447 500.094 22.8817 502.959 Q24.9187 505.791 28.6745 505.791 Q31.8255 505.791 33.4488 503.913 Q35.0402 502.004 36.0269 496.72 L36.8226 492.837 Q38.1912 485.644 41.6605 482.238 Q45.098 478.801 50.8908 478.801 Q57.7976 478.801 61.3624 483.448 Q64.9272 488.063 64.9272 497.007 Q64.9272 500.38 64.1633 504.2 Q63.3994 507.987 61.9035 512.061 L55.2831 512.061 Q57.4793 508.147 58.5933 504.391 Q59.7073 500.635 59.7073 497.007 Q59.7073 491.5 57.543 488.508 Q55.3786 485.516 51.3682 485.516 Q47.8671 485.516 45.8937 487.681 Q43.9204 489.813 42.9337 494.715 L42.1698 498.63 Q40.7375 505.823 37.682 509.038 Q34.6264 512.252 29.1837 512.252 Q22.8817 512.252 19.2532 507.828 Q15.6248 503.372 15.6248 495.574 Q15.6248 492.232 16.2295 488.763 Q16.8343 485.294 18.0438 481.665 Z" fill="#000000" fill-rule="nonzero" fill-opacity="1" /><path clip-path="url(#clip910)" d="M21.7677 462.345 L58.7206 462.345 L58.7206 454.579 Q58.7206 444.744 54.2646 440.193 Q49.8086 435.609 40.1964 435.609 Q30.6479 435.609 26.2237 440.193 Q21.7677 444.744 21.7677 454.579 L21.7677 462.345 M16.4842 468.775 L16.4842 455.566 Q16.4842 441.752 22.2451 435.291 Q27.9743 428.83 40.1964 428.83 Q52.4822 428.83 58.2432 435.323 Q64.0042 441.816 64.0042 455.566 L64.0042 468.775 L16.4842 468.775 Z" fill="#000000" fill-rule="nonzero" fill-opacity="1" /><path clip-path="url(#clip910)" d="M461.451 12.096 L473.644 12.096 L489.078 53.2532 L504.593 12.096 L516.786 12.096 L516.786 72.576 L508.806 72.576 L508.806 19.4686 L493.21 60.9499 L484.987 60.9499 L469.391 19.4686 L469.391 72.576 L461.451 72.576 L461.451 12.096 Z" fill="#000000" fill-rule="nonzero" fill-opacity="1" /><path clip-path="url(#clip910)" d="M548.626 72.576 L525.536 12.096 L534.083 12.096 L553.244 63.0159 L572.446 12.096 L580.952 12.096 L557.903 72.576 L548.626 72.576 Z" fill="#000000" fill-rule="nonzero" fill-opacity="1" /><path clip-path="url(#clip910)" d="M580.831 46.5287 L602.665 46.5287 L602.665 53.1722 L580.831 53.1722 L580.831 46.5287 Z" fill="#000000" fill-rule="nonzero" fill-opacity="1" /><path clip-path="url(#clip910)" d="M614.859 12.096 L627.052 12.096 L642.486 53.2532 L658.001 12.096 L670.194 12.096 L670.194 72.576 L662.214 72.576 L662.214 19.4686 L646.618 60.9499 L638.394 60.9499 L622.798 19.4686 L622.798 72.576 L614.859 72.576 L614.859 12.096 Z" fill="#000000" fill-rule="nonzero" fill-opacity="1" /><path clip-path="url(#clip910)" d="M694.621 18.8205 L694.621 41.5461 L704.91 41.5461 Q710.622 41.5461 713.741 38.5889 Q716.86 35.6318 716.86 30.163 Q716.86 24.7348 713.741 21.7777 Q710.622 18.8205 704.91 18.8205 L694.621 18.8205 M686.438 12.096 L704.91 12.096 Q715.078 12.096 720.263 16.714 Q725.489 21.2916 725.489 30.163 Q725.489 39.1155 720.263 43.6931 Q715.078 48.2706 704.91 48.2706 L694.621 48.2706 L694.621 72.576 L686.438 72.576 L686.438 12.096 Z" fill="#000000" fill-rule="nonzero" fill-opacity="1" /><path clip-path="url(#clip910)" d="M781.756 16.7545 L781.756 25.383 Q777.624 21.5346 772.925 19.6307 Q768.266 17.7268 763 17.7268 Q752.63 17.7268 747.121 24.0867 Q741.611 30.4061 741.611 42.3968 Q741.611 54.3469 747.121 60.7069 Q752.63 67.0263 763 67.0263 Q768.266 67.0263 772.925 65.1223 Q777.624 63.2184 781.756 59.3701 L781.756 67.9175 Q777.462 70.8341 772.641 72.2924 Q767.861 73.7508 762.514 73.7508 Q748.781 73.7508 740.882 65.3654 Q732.983 56.9395 732.983 42.3968 Q732.983 27.8135 740.882 19.4281 Q748.781 11.0023 762.514 11.0023 Q767.942 11.0023 772.722 12.4606 Q777.543 13.8784 781.756 16.7545 Z" fill="#000000" fill-rule="nonzero" fill-opacity="1" /><path clip-path="url(#clip910)" d="M828.949 18.8205 L828.949 41.5461 L839.238 41.5461 Q844.95 41.5461 848.069 38.5889 Q851.188 35.6318 851.188 30.163 Q851.188 24.7348 848.069 21.7777 Q844.95 18.8205 839.238 18.8205 L828.949 18.8205 M820.766 12.096 L839.238 12.096 Q849.406 12.096 854.591 16.714 Q859.817 21.2916 859.817 30.163 Q859.817 39.1155 854.591 43.6931 Q849.406 48.2706 839.238 48.2706 L828.949 48.2706 L828.949 72.576 L820.766 72.576 L820.766 12.096 Z" fill="#000000" fill-rule="nonzero" fill-opacity="1" /><path clip-path="url(#clip910)" d="M885.094 32.4315 Q879.099 32.4315 875.615 37.1306 Q872.131 41.7891 872.131 49.9314 Q872.131 58.0738 875.575 62.7728 Q879.058 67.4314 885.094 67.4314 Q891.049 67.4314 894.533 62.7323 Q898.017 58.0333 898.017 49.9314 Q898.017 41.8701 894.533 37.1711 Q891.049 32.4315 885.094 32.4315 M885.094 26.1121 Q894.817 26.1121 900.366 32.4315 Q905.916 38.7509 905.916 49.9314 Q905.916 61.0714 900.366 67.4314 Q894.817 73.7508 885.094 73.7508 Q875.332 73.7508 869.782 67.4314 Q864.273 61.0714 864.273 49.9314 Q864.273 38.7509 869.782 32.4315 Q875.332 26.1121 885.094 26.1121 Z" fill="#000000" fill-rule="nonzero" fill-opacity="1" /><path clip-path="url(#clip910)" d="M944.562 34.1734 Q943.306 33.4443 941.807 33.1202 Q940.349 32.7556 938.566 32.7556 Q932.247 32.7556 928.844 36.8875 Q925.482 40.9789 925.482 48.6757 L925.482 72.576 L917.988 72.576 L917.988 27.2059 L925.482 27.2059 L925.482 34.2544 Q927.831 30.1225 931.599 28.1376 Q935.366 26.1121 940.754 26.1121 Q941.523 26.1121 942.455 26.2337 Q943.387 26.3147 944.521 26.5172 L944.562 34.1734 Z" fill="#000000" fill-rule="nonzero" fill-opacity="1" /><path clip-path="url(#clip910)" d="M959.753 14.324 L959.753 27.2059 L975.105 27.2059 L975.105 32.9987 L959.753 32.9987 L959.753 57.6282 Q959.753 63.1779 961.251 64.7578 Q962.791 66.3376 967.449 66.3376 L975.105 66.3376 L975.105 72.576 L967.449 72.576 Q958.821 72.576 955.54 69.3758 Q952.258 66.1351 952.258 57.6282 L952.258 32.9987 L946.79 32.9987 L946.79 27.2059 L952.258 27.2059 L952.258 14.324 L959.753 14.324 Z" fill="#000000" fill-rule="nonzero" fill-opacity="1" /><path clip-path="url(#clip910)" d="M1007.88 9.54393 L1007.88 15.7418 L1000.75 15.7418 Q996.737 15.7418 995.157 17.3622 Q993.618 18.9825 993.618 23.1955 L993.618 27.2059 L1005.89 27.2059 L1005.89 32.9987 L993.618 32.9987 L993.618 72.576 L986.124 72.576 L986.124 32.9987 L978.994 32.9987 L978.994 27.2059 L986.124 27.2059 L986.124 24.0462 Q986.124 16.471 989.648 13.0277 Q993.172 9.54393 1000.83 9.54393 L1007.88 9.54393 Z" fill="#000000" fill-rule="nonzero" fill-opacity="1" /><path clip-path="url(#clip910)" d="M1031.7 32.4315 Q1025.7 32.4315 1022.22 37.1306 Q1018.73 41.7891 1018.73 49.9314 Q1018.73 58.0738 1022.18 62.7728 Q1025.66 67.4314 1031.7 67.4314 Q1037.65 67.4314 1041.14 62.7323 Q1044.62 58.0333 1044.62 49.9314 Q1044.62 41.8701 1041.14 37.1711 Q1037.65 32.4315 1031.7 32.4315 M1031.7 26.1121 Q1041.42 26.1121 1046.97 32.4315 Q1052.52 38.7509 1052.52 49.9314 Q1052.52 61.0714 1046.97 67.4314 Q1041.42 73.7508 1031.7 73.7508 Q1021.93 73.7508 1016.38 67.4314 Q1010.87 61.0714 1010.87 49.9314 Q1010.87 38.7509 1016.38 32.4315 Q1021.93 26.1121 1031.7 26.1121 Z" fill="#000000" fill-rule="nonzero" fill-opacity="1" /><path clip-path="url(#clip910)" d="M1064.87 9.54393 L1072.33 9.54393 L1072.33 72.576 L1064.87 72.576 L1064.87 9.54393 Z" fill="#000000" fill-rule="nonzero" fill-opacity="1" /><path clip-path="url(#clip910)" d="M1087.92 27.2059 L1095.38 27.2059 L1095.38 72.576 L1087.92 72.576 L1087.92 27.2059 M1087.92 9.54393 L1095.38 9.54393 L1095.38 18.9825 L1087.92 18.9825 L1087.92 9.54393 Z" fill="#000000" fill-rule="nonzero" fill-opacity="1" /><path clip-path="url(#clip910)" d="M1128.55 32.4315 Q1122.56 32.4315 1119.07 37.1306 Q1115.59 41.7891 1115.59 49.9314 Q1115.59 58.0738 1119.03 62.7728 Q1122.52 67.4314 1128.55 67.4314 Q1134.51 67.4314 1137.99 62.7323 Q1141.48 58.0333 1141.48 49.9314 Q1141.48 41.8701 1137.99 37.1711 Q1134.51 32.4315 1128.55 32.4315 M1128.55 26.1121 Q1138.28 26.1121 1143.83 32.4315 Q1149.38 38.7509 1149.38 49.9314 Q1149.38 61.0714 1143.83 67.4314 Q1138.28 73.7508 1128.55 73.7508 Q1118.79 73.7508 1113.24 67.4314 Q1107.73 61.0714 1107.73 49.9314 Q1107.73 38.7509 1113.24 32.4315 Q1118.79 26.1121 1128.55 26.1121 Z" fill="#000000" fill-rule="nonzero" fill-opacity="1" /><path clip-path="url(#clip910)" d="M1204.02 72.576 L1180.93 12.096 L1189.48 12.096 L1208.64 63.0159 L1227.84 12.096 L1236.35 12.096 L1213.3 72.576 L1204.02 72.576 Z" fill="#000000" fill-rule="nonzero" fill-opacity="1" /><path clip-path="url(#clip910)" d="M1259.03 49.7694 Q1250 49.7694 1246.52 51.8354 Q1243.03 53.9013 1243.03 58.8839 Q1243.03 62.8538 1245.62 65.2034 Q1248.26 67.5124 1252.75 67.5124 Q1258.95 67.5124 1262.68 63.1374 Q1266.45 58.7219 1266.45 51.4303 L1266.45 49.7694 L1259.03 49.7694 M1273.9 46.6907 L1273.9 72.576 L1266.45 72.576 L1266.45 65.6895 Q1263.89 69.8214 1260.09 71.8063 Q1256.28 73.7508 1250.77 73.7508 Q1243.8 73.7508 1239.67 69.8619 Q1235.58 65.9325 1235.58 59.3701 Q1235.58 51.7138 1240.68 47.825 Q1245.83 43.9361 1256 43.9361 L1266.45 43.9361 L1266.45 43.2069 Q1266.45 38.0623 1263.04 35.2672 Q1259.68 32.4315 1253.56 32.4315 Q1249.68 32.4315 1245.99 33.3632 Q1242.3 34.295 1238.9 36.1584 L1238.9 29.2718 Q1242.99 27.692 1246.84 26.9223 Q1250.69 26.1121 1254.33 26.1121 Q1264.18 26.1121 1269.04 31.2163 Q1273.9 36.3204 1273.9 46.6907 Z" fill="#000000" fill-rule="nonzero" fill-opacity="1" /><path clip-path="url(#clip910)" d="M1289.25 9.54393 L1296.71 9.54393 L1296.71 72.576 L1289.25 72.576 L1289.25 9.54393 Z" fill="#000000" fill-rule="nonzero" fill-opacity="1" /><path clip-path="url(#clip910)" d="M1311.53 54.671 L1311.53 27.2059 L1318.99 27.2059 L1318.99 54.3874 Q1318.99 60.8284 1321.5 64.0691 Q1324.01 67.2693 1329.03 67.2693 Q1335.07 67.2693 1338.55 63.421 Q1342.08 59.5726 1342.08 52.9291 L1342.08 27.2059 L1349.53 27.2059 L1349.53 72.576 L1342.08 72.576 L1342.08 65.6084 Q1339.36 69.7404 1335.76 71.7658 Q1332.19 73.7508 1327.45 73.7508 Q1319.63 73.7508 1315.58 68.8897 Q1311.53 64.0286 1311.53 54.671 M1330.29 26.1121 L1330.29 26.1121 Z" fill="#000000" fill-rule="nonzero" fill-opacity="1" /><path clip-path="url(#clip910)" d="M1403.69 48.0275 L1403.69 51.6733 L1369.42 51.6733 Q1369.91 59.3701 1374.04 63.421 Q1378.21 67.4314 1385.62 67.4314 Q1389.92 67.4314 1393.93 66.3781 Q1397.98 65.3249 1401.95 63.2184 L1401.95 70.267 Q1397.94 71.9684 1393.73 72.8596 Q1389.51 73.7508 1385.18 73.7508 Q1374.32 73.7508 1367.96 67.4314 Q1361.64 61.1119 1361.64 50.3365 Q1361.64 39.1965 1367.64 32.6746 Q1373.67 26.1121 1383.88 26.1121 Q1393.04 26.1121 1398.34 32.0264 Q1403.69 37.9003 1403.69 48.0275 M1396.24 45.84 Q1396.16 39.7232 1392.79 36.0774 Q1389.47 32.4315 1383.96 32.4315 Q1377.72 32.4315 1373.96 35.9558 Q1370.23 39.4801 1369.66 45.8805 L1396.24 45.84 Z" fill="#000000" fill-rule="nonzero" fill-opacity="1" /><path clip-path="url(#clip910)" d="M1417.83 62.2867 L1426.38 62.2867 L1426.38 72.576 L1417.83 72.576 L1417.83 62.2867 M1417.83 29.6769 L1426.38 29.6769 L1426.38 39.9662 L1417.83 39.9662 L1417.83 29.6769 Z" fill="#000000" fill-rule="nonzero" fill-opacity="1" /><path clip-path="url(#clip910)" d="M1478.75 18.8205 L1478.75 41.5461 L1489.04 41.5461 Q1494.76 41.5461 1497.87 38.5889 Q1500.99 35.6318 1500.99 30.163 Q1500.99 24.7348 1497.87 21.7777 Q1494.76 18.8205 1489.04 18.8205 L1478.75 18.8205 M1470.57 12.096 L1489.04 12.096 Q1499.21 12.096 1504.4 16.714 Q1509.62 21.2916 1509.62 30.163 Q1509.62 39.1155 1504.4 43.6931 Q1499.21 48.2706 1489.04 48.2706 L1478.75 48.2706 L1478.75 72.576 L1470.57 72.576 L1470.57 12.096 Z" fill="#000000" fill-rule="nonzero" fill-opacity="1" /><path clip-path="url(#clip910)" d="M1556.13 48.0275 L1556.13 51.6733 L1521.86 51.6733 Q1522.34 59.3701 1526.47 63.421 Q1530.65 67.4314 1538.06 67.4314 Q1542.35 67.4314 1546.36 66.3781 Q1550.41 65.3249 1554.38 63.2184 L1554.38 70.267 Q1550.37 71.9684 1546.16 72.8596 Q1541.95 73.7508 1537.61 73.7508 Q1526.76 73.7508 1520.4 67.4314 Q1514.08 61.1119 1514.08 50.3365 Q1514.08 39.1965 1520.07 32.6746 Q1526.11 26.1121 1536.32 26.1121 Q1545.47 26.1121 1550.78 32.0264 Q1556.13 37.9003 1556.13 48.0275 M1548.67 45.84 Q1548.59 39.7232 1545.23 36.0774 Q1541.91 32.4315 1536.4 32.4315 Q1530.16 32.4315 1526.39 35.9558 Q1522.67 39.4801 1522.1 45.8805 L1548.67 45.84 Z" fill="#000000" fill-rule="nonzero" fill-opacity="1" /><path clip-path="url(#clip910)" d="M1594.65 34.1734 Q1593.39 33.4443 1591.9 33.1202 Q1590.44 32.7556 1588.66 32.7556 Q1582.34 32.7556 1578.93 36.8875 Q1575.57 40.9789 1575.57 48.6757 L1575.57 72.576 L1568.08 72.576 L1568.08 27.2059 L1575.57 27.2059 L1575.57 34.2544 Q1577.92 30.1225 1581.69 28.1376 Q1585.46 26.1121 1590.84 26.1121 Q1591.61 26.1121 1592.54 26.2337 Q1593.48 26.3147 1594.61 26.5172 L1594.65 34.1734 Z" fill="#000000" fill-rule="nonzero" fill-opacity="1" /><path clip-path="url(#clip910)" d="M1625.44 9.54393 L1625.44 15.7418 L1618.31 15.7418 Q1614.3 15.7418 1612.72 17.3622 Q1611.18 18.9825 1611.18 23.1955 L1611.18 27.2059 L1623.45 27.2059 L1623.45 32.9987 L1611.18 32.9987 L1611.18 72.576 L1603.68 72.576 L1603.68 32.9987 L1596.55 32.9987 L1596.55 27.2059 L1603.68 27.2059 L1603.68 24.0462 Q1603.68 16.471 1607.21 13.0277 Q1610.73 9.54393 1618.39 9.54393 L1625.44 9.54393 Z" fill="#000000" fill-rule="nonzero" fill-opacity="1" /><path clip-path="url(#clip910)" d="M1670.48 48.0275 L1670.48 51.6733 L1636.21 51.6733 Q1636.7 59.3701 1640.83 63.421 Q1645 67.4314 1652.42 67.4314 Q1656.71 67.4314 1660.72 66.3781 Q1664.77 65.3249 1668.74 63.2184 L1668.74 70.267 Q1664.73 71.9684 1660.52 72.8596 Q1656.31 73.7508 1651.97 73.7508 Q1641.11 73.7508 1634.75 67.4314 Q1628.44 61.1119 1628.44 50.3365 Q1628.44 39.1965 1634.43 32.6746 Q1640.47 26.1121 1650.67 26.1121 Q1659.83 26.1121 1665.14 32.0264 Q1670.48 37.9003 1670.48 48.0275 M1663.03 45.84 Q1662.95 39.7232 1659.59 36.0774 Q1656.26 32.4315 1650.76 32.4315 Q1644.52 32.4315 1640.75 35.9558 Q1637.02 39.4801 1636.46 45.8805 L1663.03 45.84 Z" fill="#000000" fill-rule="nonzero" fill-opacity="1" /><path clip-path="url(#clip910)" d="M1715.37 28.9478 L1715.37 35.9153 Q1712.21 34.1734 1709.01 33.3227 Q1705.85 32.4315 1702.61 32.4315 Q1695.36 32.4315 1691.35 37.0496 Q1687.34 41.6271 1687.34 49.9314 Q1687.34 58.2358 1691.35 62.8538 Q1695.36 67.4314 1702.61 67.4314 Q1705.85 67.4314 1709.01 66.5807 Q1712.21 65.6895 1715.37 63.9476 L1715.37 70.8341 Q1712.25 72.2924 1708.89 73.0216 Q1705.56 73.7508 1701.8 73.7508 Q1691.55 73.7508 1685.51 67.3098 Q1679.48 60.8689 1679.48 49.9314 Q1679.48 38.832 1685.55 32.472 Q1691.67 26.1121 1702.28 26.1121 Q1705.73 26.1121 1709.01 26.8413 Q1712.29 27.5299 1715.37 28.9478 Z" fill="#000000" fill-rule="nonzero" fill-opacity="1" /><path clip-path="url(#clip910)" d="M1735.7 14.324 L1735.7 27.2059 L1751.06 27.2059 L1751.06 32.9987 L1735.7 32.9987 L1735.7 57.6282 Q1735.7 63.1779 1737.2 64.7578 Q1738.74 66.3376 1743.4 66.3376 L1751.06 66.3376 L1751.06 72.576 L1743.4 72.576 Q1734.77 72.576 1731.49 69.3758 Q1728.21 66.1351 1728.21 57.6282 L1728.21 32.9987 L1722.74 32.9987 L1722.74 27.2059 L1728.21 27.2059 L1728.21 14.324 L1735.7 14.324 Z" fill="#000000" fill-rule="nonzero" fill-opacity="1" /><path clip-path="url(#clip910)" d="M1810.2 9.54393 L1810.2 15.7418 L1803.07 15.7418 Q1799.06 15.7418 1797.48 17.3622 Q1795.94 18.9825 1795.94 23.1955 L1795.94 27.2059 L1808.21 27.2059 L1808.21 32.9987 L1795.94 32.9987 L1795.94 72.576 L1788.45 72.576 L1788.45 32.9987 L1781.32 32.9987 L1781.32 27.2059 L1788.45 27.2059 L1788.45 24.0462 Q1788.45 16.471 1791.97 13.0277 Q1795.49 9.54393 1803.15 9.54393 L1810.2 9.54393 Z" fill="#000000" fill-rule="nonzero" fill-opacity="1" /><path clip-path="url(#clip910)" d="M1834.02 32.4315 Q1828.02 32.4315 1824.54 37.1306 Q1821.06 41.7891 1821.06 49.9314 Q1821.06 58.0738 1824.5 62.7728 Q1827.98 67.4314 1834.02 67.4314 Q1839.97 67.4314 1843.46 62.7323 Q1846.94 58.0333 1846.94 49.9314 Q1846.94 41.8701 1843.46 37.1711 Q1839.97 32.4315 1834.02 32.4315 M1834.02 26.1121 Q1843.74 26.1121 1849.29 32.4315 Q1854.84 38.7509 1854.84 49.9314 Q1854.84 61.0714 1849.29 67.4314 Q1843.74 73.7508 1834.02 73.7508 Q1824.26 73.7508 1818.71 67.4314 Q1813.2 61.0714 1813.2 49.9314 Q1813.2 38.7509 1818.71 32.4315 Q1824.26 26.1121 1834.02 26.1121 Z" fill="#000000" fill-rule="nonzero" fill-opacity="1" /><path clip-path="url(#clip910)" d="M1893.49 34.1734 Q1892.23 33.4443 1890.73 33.1202 Q1889.27 32.7556 1887.49 32.7556 Q1881.17 32.7556 1877.77 36.8875 Q1874.41 40.9789 1874.41 48.6757 L1874.41 72.576 L1866.91 72.576 L1866.91 27.2059 L1874.41 27.2059 L1874.41 34.2544 Q1876.76 30.1225 1880.52 28.1376 Q1884.29 26.1121 1889.68 26.1121 Q1890.45 26.1121 1891.38 26.2337 Q1892.31 26.3147 1893.45 26.5172 L1893.49 34.1734 Z" fill="#000000" fill-rule="nonzero" fill-opacity="1" /><path clip-path="url(#clip910)" d="M1938.29 48.0275 L1938.29 51.6733 L1904.02 51.6733 Q1904.5 59.3701 1908.64 63.421 Q1912.81 67.4314 1920.22 67.4314 Q1924.52 67.4314 1928.53 66.3781 Q1932.58 65.3249 1936.55 63.2184 L1936.55 70.267 Q1932.54 71.9684 1928.32 72.8596 Q1924.11 73.7508 1919.78 73.7508 Q1908.92 73.7508 1902.56 67.4314 Q1896.24 61.1119 1896.24 50.3365 Q1896.24 39.1965 1902.24 32.6746 Q1908.27 26.1121 1918.48 26.1121 Q1927.64 26.1121 1932.94 32.0264 Q1938.29 37.9003 1938.29 48.0275 M1930.84 45.84 Q1930.75 39.7232 1927.39 36.0774 Q1924.07 32.4315 1918.56 32.4315 Q1912.32 32.4315 1908.56 35.9558 Q1904.83 39.4801 1904.26 45.8805 L1930.84 45.84 Z" fill="#000000" fill-rule="nonzero" fill-opacity="1" /><path clip-path="url(#clip910)" d="M1983.17 28.9478 L1983.17 35.9153 Q1980.01 34.1734 1976.81 33.3227 Q1973.65 32.4315 1970.41 32.4315 Q1963.16 32.4315 1959.15 37.0496 Q1955.14 41.6271 1955.14 49.9314 Q1955.14 58.2358 1959.15 62.8538 Q1963.16 67.4314 1970.41 67.4314 Q1973.65 67.4314 1976.81 66.5807 Q1980.01 65.6895 1983.17 63.9476 L1983.17 70.8341 Q1980.05 72.2924 1976.69 73.0216 Q1973.37 73.7508 1969.6 73.7508 Q1959.35 73.7508 1953.32 67.3098 Q1947.28 60.8689 1947.28 49.9314 Q1947.28 38.832 1953.36 32.472 Q1959.48 26.1121 1970.09 26.1121 Q1973.53 26.1121 1976.81 26.8413 Q1980.09 27.5299 1983.17 28.9478 Z" fill="#000000" fill-rule="nonzero" fill-opacity="1" /><path clip-path="url(#clip910)" d="M2016.75 49.7694 Q2007.72 49.7694 2004.24 51.8354 Q2000.75 53.9013 2000.75 58.8839 Q2000.75 62.8538 2003.35 65.2034 Q2005.98 67.5124 2010.48 67.5124 Q2016.67 67.5124 2020.4 63.1374 Q2024.17 58.7219 2024.17 51.4303 L2024.17 49.7694 L2016.75 49.7694 M2031.62 46.6907 L2031.62 72.576 L2024.17 72.576 L2024.17 65.6895 Q2021.62 69.8214 2017.81 71.8063 Q2014 73.7508 2008.49 73.7508 Q2001.52 73.7508 1997.39 69.8619 Q1993.3 65.9325 1993.3 59.3701 Q1993.3 51.7138 1998.4 47.825 Q2003.55 43.9361 2013.72 43.9361 L2024.17 43.9361 L2024.17 43.2069 Q2024.17 38.0623 2020.77 35.2672 Q2017.4 32.4315 2011.29 32.4315 Q2007.4 32.4315 2003.71 33.3632 Q2000.02 34.295 1996.62 36.1584 L1996.62 29.2718 Q2000.71 27.692 2004.56 26.9223 Q2008.41 26.1121 2012.06 26.1121 Q2021.9 26.1121 2026.76 31.2163 Q2031.62 36.3204 2031.62 46.6907 Z" fill="#000000" fill-rule="nonzero" fill-opacity="1" /><path clip-path="url(#clip910)" d="M2075.9 28.5427 L2075.9 35.5912 Q2072.74 33.9709 2069.34 33.1607 Q2065.93 32.3505 2062.29 32.3505 Q2056.74 32.3505 2053.94 34.0519 Q2051.19 35.7533 2051.19 39.156 Q2051.19 41.7486 2053.17 43.2475 Q2055.16 44.7058 2061.15 46.0426 L2063.7 46.6097 Q2071.64 48.3111 2074.97 51.4303 Q2078.33 54.509 2078.33 60.0587 Q2078.33 66.3781 2073.31 70.0644 Q2068.32 73.7508 2059.57 73.7508 Q2055.93 73.7508 2051.96 73.0216 Q2048.03 72.3329 2043.65 70.9151 L2043.65 63.2184 Q2047.78 65.3654 2051.8 66.4591 Q2055.81 67.5124 2059.74 67.5124 Q2065 67.5124 2067.84 65.73 Q2070.67 63.9071 2070.67 60.6258 Q2070.67 57.5877 2068.61 55.9673 Q2066.58 54.3469 2059.65 52.8481 L2057.06 52.2405 Q2050.13 50.7821 2047.06 47.7845 Q2043.98 44.7463 2043.98 39.4801 Q2043.98 33.0797 2048.51 29.5959 Q2053.05 26.1121 2061.4 26.1121 Q2065.53 26.1121 2069.17 26.7198 Q2072.82 27.3274 2075.9 28.5427 Z" fill="#000000" fill-rule="nonzero" fill-opacity="1" /><path clip-path="url(#clip910)" d="M2097.57 14.324 L2097.57 27.2059 L2112.92 27.2059 L2112.92 32.9987 L2097.57 32.9987 L2097.57 57.6282 Q2097.57 63.1779 2099.07 64.7578 Q2100.61 66.3376 2105.27 66.3376 L2112.92 66.3376 L2112.92 72.576 L2105.27 72.576 Q2096.64 72.576 2093.36 69.3758 Q2090.08 66.1351 2090.08 57.6282 L2090.08 32.9987 L2084.61 32.9987 L2084.61 27.2059 L2090.08 27.2059 L2090.08 14.324 L2097.57 14.324 Z" fill="#000000" fill-rule="nonzero" fill-opacity="1" /><polyline clip-path="url(#clip912)" style="stroke:#009af9; stroke-linecap:round; stroke-linejoin:round; stroke-width:12; stroke-opacity:1; fill:none" points="281.933,1386.4 287.661,1386.4 293.389,1386.4 299.117,1386.4 304.845,1386.4 322.029,1386.4 327.757,1386.4 333.485,1386.4 339.213,1386.4 344.941,1386.4 367.853,1386.4 373.581,1386.4 379.308,1386.4 385.036,1351.66 402.22,1303.71 407.948,1270.13 413.676,1270.13 419.404,1270.13 425.132,1270.13 442.316,1270.13 448.044,1270.13 453.772,1270.13 459.5,1270.13 465.228,1270.13 482.411,1270.13 488.139,1270.13 493.867,1270.13 499.595,1270.13 505.323,1270.13 528.235,1270.13 533.963,1263.59 539.691,1261.48 545.419,1261.48 562.603,1261.48 568.331,1261.48 574.058,1219.64 579.786,1179.12 585.514,1179.12 602.698,1179.12 608.426,1179.12 614.154,1170.83 619.882,1161.57 625.61,1145.14 642.794,1140 648.522,1140 654.25,1140 659.978,1140 665.706,1109.05 682.651,1094.96 688.379,1094.96 694.107,1094.96 699.835,1094.96 705.562,1094.96 722.746,1094.96 728.474,1097.76 734.202,1091.07 739.93,1088.23 745.658,1088.23 762.842,1088.23 768.57,1088.23 774.298,1088.23 780.026,1088.23 802.937,1088.23 808.665,1088.23 814.393,1088.23 820.121,1088.23 825.849,1088.23 843.033,1088.23 848.761,1088.23 854.489,1088.23 860.217,1088.23 865.945,1088.23 883.129,1088.23 888.857,1088.23 894.584,1075.16 900.312,1069.29 906.04,1065.87 923.224,1040.74 928.952,1033.55 934.68,1033.55 940.408,1033.55 946.136,1006.52 963.32,1000.47 969.048,1000.47 974.776,1000.47 980.504,1000.47 986.232,983.161 1003.42,974.921 1009.14,971.714 1014.87,969.875 1020.6,924.844 1026.33,911.899 1043.51,900.609 1049.24,891.83 1054.97,891.83 1060.69,891.83 1066.42,891.83 1083.61,891.83 1089.33,856.57 1095.06,819.531 1100.79,755.051 1106.52,712.344 1129.43,712.344 1135.16,712.344 1140.89,708.518 1146.61,703.708 1163.8,703.708 1169.53,703.708 1175.25,690.745 1180.98,680.159 1186.71,676.77 1203.89,676.77 1209.62,676.77 1215.35,676.77 1221.08,676.77 1226.81,671.539 1243.99,661.626 1249.72,658.971 1255.44,658.971 1261.17,658.971 1266.9,658.971 1284.08,658.971 1289.81,658.971 1295.54,658.971 1301.27,662.12 1307,658.021 1329.91,654.935 1335.64,648.503 1341.36,621.828 1347.09,616.227 1364.28,616.227 1370,618.061 1375.73,613.034 1381.46,590.693 1387.19,576.979 1404.37,576.979 1410.1,576.979 1415.83,576.979 1421.56,576.979 1427.28,576.979 1444.47,576.979 1450.19,582.862 1455.92,571.293 1461.65,566.222 1467.38,566.222 1484.56,566.222 1490.29,566.222 1496.02,566.222 1501.75,566.222 1507.47,566.222 1524.66,566.222 1530.39,562.866 1536.11,557.899 1541.84,547.988 1547.57,545.416 1564.75,531.822 1570.48,523.274 1576.21,518.171 1581.94,518.171 1587.67,491.844 1604.85,481.217 1610.58,442.846 1616.31,435.75 1622.03,439.555 1627.76,428.635 1644.94,418.24 1650.67,400.94 1656.4,396.728 1662.13,396.728 1667.86,396.728 1690.77,396.728 1696.5,396.959 1702.22,394.193 1707.95,394.193 1725.14,394.193 1730.86,381.124 1736.59,374.984 1742.32,374.984 1748.05,374.984 1765.23,376.212 1770.96,370.391 1776.69,370.391 1782.42,370.391 1788.14,370.125 1805.33,358.382 1811.06,357.606 1816.78,354.296 1822.51,342.004 1828.24,330.534 1845.42,330.534 1851.15,330.534 1856.88,329.6 1862.61,317.325 1868.33,308.698 1885.52,304.56 1891.25,304.56 1896.97,304.56 1902.7,296.426 1908.43,291.56 1925.61,291.56 1931.34,291.56 1937.07,291.56 1942.8,286.611 1948.53,282.112 1965.71,282.112 1971.44,282.112 1977.17,282.112 1982.89,282.112 1988.62,282.112 2005.8,282.112 2011.53,282.112 2017.26,282.112 2022.99,282.112 2028.72,282.112 2046.14,282.112 2051.87,282.112 2057.6,282.112 2063.32,282.112 2069.05,282.112 2086.23,282.112 2091.96,275.784 2097.69,269.074 2103.42,261.567 2109.15,261.567 2126.33,261.567 2132.06,261.567 2137.79,261.567 2149.24,269.338 2166.43,264.824 2172.15,258.297 2177.88,251.329 2183.61,251.329 2189.34,251.329 2206.52,247.445 2212.25,235.237 2217.98,235.237 2223.71,235.237 2229.43,235.601 2246.62,230.606 2252.35,201.005 2258.07,196.545 2263.8,196.545 2269.53,163.277 2286.71,160.256 2292.44,160.256 "/>
<path clip-path="url(#clip910)" d="M292.656 270.476 L631.325 270.476 L631.325 166.796 L292.656 166.796  Z" fill="#ffffff" fill-rule="evenodd" fill-opacity="1"/>
<polyline clip-path="url(#clip910)" style="stroke:#000000; stroke-linecap:round; stroke-linejoin:round; stroke-width:4; stroke-opacity:1; fill:none" points="292.656,270.476 631.325,270.476 631.325,166.796 292.656,166.796 292.656,270.476 "/>
<polyline clip-path="url(#clip910)" style="stroke:#009af9; stroke-linecap:round; stroke-linejoin:round; stroke-width:12; stroke-opacity:1; fill:none" points="316.336,218.636 458.411,218.636 "/>
<path clip-path="url(#clip910)" d="M482.091 209.99 L486.605 209.99 L494.706 231.749 L502.808 209.99 L507.322 209.99 L497.6 235.916 L491.813 235.916 L482.091 209.99 Z" fill="#000000" fill-rule="nonzero" fill-opacity="1" /><path clip-path="url(#clip910)" d="M524.984 222.883 Q519.822 222.883 517.831 224.064 Q515.84 225.244 515.84 228.092 Q515.84 230.36 517.322 231.703 Q518.827 233.022 521.396 233.022 Q524.938 233.022 527.067 230.522 Q529.22 227.999 529.22 223.832 L529.22 222.883 L524.984 222.883 M533.479 221.124 L533.479 235.916 L529.22 235.916 L529.22 231.981 Q527.762 234.342 525.586 235.476 Q523.41 236.587 520.262 236.587 Q516.28 236.587 513.919 234.365 Q511.581 232.119 511.581 228.369 Q511.581 223.994 514.498 221.772 Q517.438 219.55 523.248 219.55 L529.22 219.55 L529.22 219.133 Q529.22 216.194 527.276 214.596 Q525.354 212.976 521.859 212.976 Q519.637 212.976 517.53 213.508 Q515.424 214.041 513.479 215.106 L513.479 211.17 Q515.817 210.268 518.016 209.828 Q520.215 209.365 522.299 209.365 Q527.924 209.365 530.702 212.282 Q533.479 215.198 533.479 221.124 Z" fill="#000000" fill-rule="nonzero" fill-opacity="1" /><path clip-path="url(#clip910)" d="M542.252 199.897 L546.512 199.897 L546.512 235.916 L542.252 235.916 L542.252 199.897 Z" fill="#000000" fill-rule="nonzero" fill-opacity="1" /><path clip-path="url(#clip910)" d="M554.984 225.684 L554.984 209.99 L559.243 209.99 L559.243 225.522 Q559.243 229.203 560.678 231.055 Q562.113 232.883 564.984 232.883 Q568.433 232.883 570.424 230.684 Q572.437 228.485 572.437 224.689 L572.437 209.99 L576.697 209.99 L576.697 235.916 L572.437 235.916 L572.437 231.934 Q570.886 234.295 568.826 235.453 Q566.789 236.587 564.081 236.587 Q559.613 236.587 557.299 233.809 Q554.984 231.031 554.984 225.684 M565.701 209.365 L565.701 209.365 Z" fill="#000000" fill-rule="nonzero" fill-opacity="1" /><path clip-path="url(#clip910)" d="M607.646 221.888 L607.646 223.971 L588.062 223.971 Q588.34 228.369 590.701 230.684 Q593.085 232.976 597.322 232.976 Q599.775 232.976 602.067 232.374 Q604.382 231.772 606.65 230.569 L606.65 234.596 Q604.359 235.568 601.951 236.078 Q599.544 236.587 597.067 236.587 Q590.863 236.587 587.229 232.976 Q583.618 229.365 583.618 223.207 Q583.618 216.842 587.044 213.115 Q590.493 209.365 596.326 209.365 Q601.558 209.365 604.59 212.745 Q607.646 216.101 607.646 221.888 M603.386 220.638 Q603.34 217.143 601.419 215.059 Q599.521 212.976 596.372 212.976 Q592.808 212.976 590.655 214.99 Q588.525 217.004 588.201 220.661 L603.386 220.638 Z" fill="#000000" fill-rule="nonzero" fill-opacity="1" /></svg>
