<?xml version="1.0" encoding="utf-8"?>
<svg xmlns="http://www.w3.org/2000/svg" xmlns:xlink="http://www.w3.org/1999/xlink" width="600" height="400" viewBox="0 0 2400 1600">
<defs>
  <clipPath id="clip950">
    <rect x="0" y="0" width="2400" height="1600"/>
  </clipPath>
</defs>
<path clip-path="url(#clip950)" d="M0 1600 L2400 1600 L2400 0 L0 0  Z" fill="#ffffff" fill-rule="evenodd" fill-opacity="1"/>
<defs>
  <clipPath id="clip951">
    <rect x="480" y="0" width="1681" height="1600"/>
  </clipPath>
</defs>
<path clip-path="url(#clip950)" d="M257.955 1423.18 L2352.76 1423.18 L2352.76 123.472 L257.955 123.472  Z" fill="#ffffff" fill-rule="evenodd" fill-opacity="1"/>
<defs>
  <clipPath id="clip952">
    <rect x="257" y="123" width="2096" height="1301"/>
  </clipPath>
</defs>
<polyline clip-path="url(#clip952)" style="stroke:#000000; stroke-linecap:round; stroke-linejoin:round; stroke-width:2; stroke-opacity:0.1; fill:none" points="297.888,1423.18 297.888,123.472 "/>
<polyline clip-path="url(#clip952)" style="stroke:#000000; stroke-linecap:round; stroke-linejoin:round; stroke-width:2; stroke-opacity:0.1; fill:none" points="804.613,1423.18 804.613,123.472 "/>
<polyline clip-path="url(#clip952)" style="stroke:#000000; stroke-linecap:round; stroke-linejoin:round; stroke-width:2; stroke-opacity:0.1; fill:none" points="1316.97,1423.18 1316.97,123.472 "/>
<polyline clip-path="url(#clip952)" style="stroke:#000000; stroke-linecap:round; stroke-linejoin:round; stroke-width:2; stroke-opacity:0.1; fill:none" points="1834.95,1423.18 1834.95,123.472 "/>
<polyline clip-path="url(#clip952)" style="stroke:#000000; stroke-linecap:round; stroke-linejoin:round; stroke-width:2; stroke-opacity:0.05; fill:none" points="399.233,1423.18 399.233,123.472 "/>
<polyline clip-path="url(#clip952)" style="stroke:#000000; stroke-linecap:round; stroke-linejoin:round; stroke-width:2; stroke-opacity:0.05; fill:none" points="500.578,1423.18 500.578,123.472 "/>
<polyline clip-path="url(#clip952)" style="stroke:#000000; stroke-linecap:round; stroke-linejoin:round; stroke-width:2; stroke-opacity:0.05; fill:none" points="601.923,1423.18 601.923,123.472 "/>
<polyline clip-path="url(#clip952)" style="stroke:#000000; stroke-linecap:round; stroke-linejoin:round; stroke-width:2; stroke-opacity:0.05; fill:none" points="703.268,1423.18 703.268,123.472 "/>
<polyline clip-path="url(#clip952)" style="stroke:#000000; stroke-linecap:round; stroke-linejoin:round; stroke-width:2; stroke-opacity:0.05; fill:none" points="907.084,1423.18 907.084,123.472 "/>
<polyline clip-path="url(#clip952)" style="stroke:#000000; stroke-linecap:round; stroke-linejoin:round; stroke-width:2; stroke-opacity:0.05; fill:none" points="1009.55,1423.18 1009.55,123.472 "/>
<polyline clip-path="url(#clip952)" style="stroke:#000000; stroke-linecap:round; stroke-linejoin:round; stroke-width:2; stroke-opacity:0.05; fill:none" points="1112.03,1423.18 1112.03,123.472 "/>
<polyline clip-path="url(#clip952)" style="stroke:#000000; stroke-linecap:round; stroke-linejoin:round; stroke-width:2; stroke-opacity:0.05; fill:none" points="1214.5,1423.18 1214.5,123.472 "/>
<polyline clip-path="url(#clip952)" style="stroke:#000000; stroke-linecap:round; stroke-linejoin:round; stroke-width:2; stroke-opacity:0.05; fill:none" points="1420.56,1423.18 1420.56,123.472 "/>
<polyline clip-path="url(#clip952)" style="stroke:#000000; stroke-linecap:round; stroke-linejoin:round; stroke-width:2; stroke-opacity:0.05; fill:none" points="1524.16,1423.18 1524.16,123.472 "/>
<polyline clip-path="url(#clip952)" style="stroke:#000000; stroke-linecap:round; stroke-linejoin:round; stroke-width:2; stroke-opacity:0.05; fill:none" points="1627.76,1423.18 1627.76,123.472 "/>
<polyline clip-path="url(#clip952)" style="stroke:#000000; stroke-linecap:round; stroke-linejoin:round; stroke-width:2; stroke-opacity:0.05; fill:none" points="1731.36,1423.18 1731.36,123.472 "/>
<polyline clip-path="url(#clip952)" style="stroke:#000000; stroke-linecap:round; stroke-linejoin:round; stroke-width:2; stroke-opacity:0.05; fill:none" points="1939.7,1423.18 1939.7,123.472 "/>
<polyline clip-path="url(#clip952)" style="stroke:#000000; stroke-linecap:round; stroke-linejoin:round; stroke-width:2; stroke-opacity:0.05; fill:none" points="2044.45,1423.18 2044.45,123.472 "/>
<polyline clip-path="url(#clip952)" style="stroke:#000000; stroke-linecap:round; stroke-linejoin:round; stroke-width:2; stroke-opacity:0.05; fill:none" points="2149.2,1423.18 2149.2,123.472 "/>
<polyline clip-path="url(#clip952)" style="stroke:#000000; stroke-linecap:round; stroke-linejoin:round; stroke-width:2; stroke-opacity:0.05; fill:none" points="2253.95,1423.18 2253.95,123.472 "/>
<polyline clip-path="url(#clip950)" style="stroke:#000000; stroke-linecap:round; stroke-linejoin:round; stroke-width:4; stroke-opacity:1; fill:none" points="257.955,1423.18 2352.76,1423.18 "/>
<polyline clip-path="url(#clip950)" style="stroke:#000000; stroke-linecap:round; stroke-linejoin:round; stroke-width:4; stroke-opacity:1; fill:none" points="297.888,1423.18 297.888,1404.28 "/>
<polyline clip-path="url(#clip950)" style="stroke:#000000; stroke-linecap:round; stroke-linejoin:round; stroke-width:4; stroke-opacity:1; fill:none" points="804.613,1423.18 804.613,1404.28 "/>
<polyline clip-path="url(#clip950)" style="stroke:#000000; stroke-linecap:round; stroke-linejoin:round; stroke-width:4; stroke-opacity:1; fill:none" points="1316.97,1423.18 1316.97,1404.28 "/>
<polyline clip-path="url(#clip950)" style="stroke:#000000; stroke-linecap:round; stroke-linejoin:round; stroke-width:4; stroke-opacity:1; fill:none" points="1834.95,1423.18 1834.95,1404.28 "/>
<polyline clip-path="url(#clip950)" style="stroke:#000000; stroke-linecap:round; stroke-linejoin:round; stroke-width:4; stroke-opacity:1; fill:none" points="399.233,1423.18 399.233,1413.73 "/>
<polyline clip-path="url(#clip950)" style="stroke:#000000; stroke-linecap:round; stroke-linejoin:round; stroke-width:4; stroke-opacity:1; fill:none" points="500.578,1423.18 500.578,1413.73 "/>
<polyline clip-path="url(#clip950)" style="stroke:#000000; stroke-linecap:round; stroke-linejoin:round; stroke-width:4; stroke-opacity:1; fill:none" points="601.923,1423.18 601.923,1413.73 "/>
<polyline clip-path="url(#clip950)" style="stroke:#000000; stroke-linecap:round; stroke-linejoin:round; stroke-width:4; stroke-opacity:1; fill:none" points="703.268,1423.18 703.268,1413.73 "/>
<polyline clip-path="url(#clip950)" style="stroke:#000000; stroke-linecap:round; stroke-linejoin:round; stroke-width:4; stroke-opacity:1; fill:none" points="907.084,1423.18 907.084,1413.73 "/>
<polyline clip-path="url(#clip950)" style="stroke:#000000; stroke-linecap:round; stroke-linejoin:round; stroke-width:4; stroke-opacity:1; fill:none" points="1009.55,1423.18 1009.55,1413.73 "/>
<polyline clip-path="url(#clip950)" style="stroke:#000000; stroke-linecap:round; stroke-linejoin:round; stroke-width:4; stroke-opacity:1; fill:none" points="1112.03,1423.18 1112.03,1413.73 "/>
<polyline clip-path="url(#clip950)" style="stroke:#000000; stroke-linecap:round; stroke-linejoin:round; stroke-width:4; stroke-opacity:1; fill:none" points="1214.5,1423.18 1214.5,1413.73 "/>
<polyline clip-path="url(#clip950)" style="stroke:#000000; stroke-linecap:round; stroke-linejoin:round; stroke-width:4; stroke-opacity:1; fill:none" points="1420.56,1423.18 1420.56,1413.73 "/>
<polyline clip-path="url(#clip950)" style="stroke:#000000; stroke-linecap:round; stroke-linejoin:round; stroke-width:4; stroke-opacity:1; fill:none" points="1524.16,1423.18 1524.16,1413.73 "/>
<polyline clip-path="url(#clip950)" style="stroke:#000000; stroke-linecap:round; stroke-linejoin:round; stroke-width:4; stroke-opacity:1; fill:none" points="1627.76,1423.18 1627.76,1413.73 "/>
<polyline clip-path="url(#clip950)" style="stroke:#000000; stroke-linecap:round; stroke-linejoin:round; stroke-width:4; stroke-opacity:1; fill:none" points="1731.36,1423.18 1731.36,1413.73 "/>
<polyline clip-path="url(#clip950)" style="stroke:#000000; stroke-linecap:round; stroke-linejoin:round; stroke-width:4; stroke-opacity:1; fill:none" points="1939.7,1423.18 1939.7,1413.73 "/>
<polyline clip-path="url(#clip950)" style="stroke:#000000; stroke-linecap:round; stroke-linejoin:round; stroke-width:4; stroke-opacity:1; fill:none" points="2044.45,1423.18 2044.45,1413.73 "/>
<polyline clip-path="url(#clip950)" style="stroke:#000000; stroke-linecap:round; stroke-linejoin:round; stroke-width:4; stroke-opacity:1; fill:none" points="2149.2,1423.18 2149.2,1413.73 "/>
<polyline clip-path="url(#clip950)" style="stroke:#000000; stroke-linecap:round; stroke-linejoin:round; stroke-width:4; stroke-opacity:1; fill:none" points="2253.95,1423.18 2253.95,1413.73 "/>
<path clip-path="url(#clip950)" d="M169.682 1481.64 L186.002 1481.64 L186.002 1485.58 L164.057 1485.58 L164.057 1481.64 Q166.719 1478.89 171.303 1474.26 Q175.909 1469.61 177.09 1468.27 Q179.335 1465.74 180.215 1464.01 Q181.117 1462.25 181.117 1460.56 Q181.117 1457.8 179.173 1456.07 Q177.252 1454.33 174.15 1454.33 Q171.951 1454.33 169.497 1455.09 Q167.067 1455.86 164.289 1457.41 L164.289 1452.69 Q167.113 1451.55 169.567 1450.97 Q172.02 1450.39 174.057 1450.39 Q179.428 1450.39 182.622 1453.08 Q185.816 1455.77 185.816 1460.26 Q185.816 1462.39 185.006 1464.31 Q184.219 1466.2 182.113 1468.8 Q181.534 1469.47 178.432 1472.69 Q175.33 1475.88 169.682 1481.64 Z" fill="#000000" fill-rule="nonzero" fill-opacity="1" /><path clip-path="url(#clip950)" d="M205.816 1454.1 Q202.205 1454.1 200.377 1457.66 Q198.571 1461.2 198.571 1468.33 Q198.571 1475.44 200.377 1479.01 Q202.205 1482.55 205.816 1482.55 Q209.451 1482.55 211.256 1479.01 Q213.085 1475.44 213.085 1468.33 Q213.085 1461.2 211.256 1457.66 Q209.451 1454.1 205.816 1454.1 M205.816 1450.39 Q211.627 1450.39 214.682 1455 Q217.761 1459.58 217.761 1468.33 Q217.761 1477.06 214.682 1481.67 Q211.627 1486.25 205.816 1486.25 Q200.006 1486.25 196.928 1481.67 Q193.872 1477.06 193.872 1468.33 Q193.872 1459.58 196.928 1455 Q200.006 1450.39 205.816 1450.39 Z" fill="#000000" fill-rule="nonzero" fill-opacity="1" /><path clip-path="url(#clip950)" d="M230.006 1481.64 L246.325 1481.64 L246.325 1485.58 L224.381 1485.58 L224.381 1481.64 Q227.043 1478.89 231.626 1474.26 Q236.233 1469.61 237.413 1468.27 Q239.659 1465.74 240.538 1464.01 Q241.441 1462.25 241.441 1460.56 Q241.441 1457.8 239.497 1456.07 Q237.575 1454.33 234.474 1454.33 Q232.275 1454.33 229.821 1455.09 Q227.39 1455.86 224.613 1457.41 L224.613 1452.69 Q227.437 1451.55 229.89 1450.97 Q232.344 1450.39 234.381 1450.39 Q239.751 1450.39 242.946 1453.08 Q246.14 1455.77 246.14 1460.26 Q246.14 1462.39 245.33 1464.31 Q244.543 1466.2 242.437 1468.8 Q241.858 1469.47 238.756 1472.69 Q235.654 1475.88 230.006 1481.64 Z" fill="#000000" fill-rule="nonzero" fill-opacity="1" /><path clip-path="url(#clip950)" d="M256.95 1481.64 L264.589 1481.64 L264.589 1455.28 L256.279 1456.95 L256.279 1452.69 L264.543 1451.02 L269.219 1451.02 L269.219 1481.64 L276.858 1481.64 L276.858 1485.58 L256.95 1485.58 L256.95 1481.64 Z" fill="#000000" fill-rule="nonzero" fill-opacity="1" /><path clip-path="url(#clip950)" d="M283.547 1470.7 L296.024 1470.7 L296.024 1474.49 L283.547 1474.49 L283.547 1470.7 Z" fill="#000000" fill-rule="nonzero" fill-opacity="1" /><path clip-path="url(#clip950)" d="M313.408 1454.1 Q309.797 1454.1 307.969 1457.66 Q306.163 1461.2 306.163 1468.33 Q306.163 1475.44 307.969 1479.01 Q309.797 1482.55 313.408 1482.55 Q317.043 1482.55 318.848 1479.01 Q320.677 1475.44 320.677 1468.33 Q320.677 1461.2 318.848 1457.66 Q317.043 1454.1 313.408 1454.1 M313.408 1450.39 Q319.219 1450.39 322.274 1455 Q325.353 1459.58 325.353 1468.33 Q325.353 1477.06 322.274 1481.67 Q319.219 1486.25 313.408 1486.25 Q307.598 1486.25 304.52 1481.67 Q301.464 1477.06 301.464 1468.33 Q301.464 1459.58 304.52 1455 Q307.598 1450.39 313.408 1450.39 Z" fill="#000000" fill-rule="nonzero" fill-opacity="1" /><path clip-path="url(#clip950)" d="M334.38 1481.64 L342.019 1481.64 L342.019 1455.28 L333.709 1456.95 L333.709 1452.69 L341.973 1451.02 L346.649 1451.02 L346.649 1481.64 L354.288 1481.64 L354.288 1485.58 L334.38 1485.58 L334.38 1481.64 Z" fill="#000000" fill-rule="nonzero" fill-opacity="1" /><path clip-path="url(#clip950)" d="M360.978 1470.7 L373.454 1470.7 L373.454 1474.49 L360.978 1474.49 L360.978 1470.7 Z" fill="#000000" fill-rule="nonzero" fill-opacity="1" /><path clip-path="url(#clip950)" d="M390.839 1454.1 Q387.227 1454.1 385.399 1457.66 Q383.593 1461.2 383.593 1468.33 Q383.593 1475.44 385.399 1479.01 Q387.227 1482.55 390.839 1482.55 Q394.473 1482.55 396.278 1479.01 Q398.107 1475.44 398.107 1468.33 Q398.107 1461.2 396.278 1457.66 Q394.473 1454.1 390.839 1454.1 M390.839 1450.39 Q396.649 1450.39 399.704 1455 Q402.783 1459.58 402.783 1468.33 Q402.783 1477.06 399.704 1481.67 Q396.649 1486.25 390.839 1486.25 Q385.028 1486.25 381.95 1481.67 Q378.894 1477.06 378.894 1468.33 Q378.894 1459.58 381.95 1455 Q385.028 1450.39 390.839 1450.39 Z" fill="#000000" fill-rule="nonzero" fill-opacity="1" /><path clip-path="url(#clip950)" d="M411.811 1481.64 L419.449 1481.64 L419.449 1455.28 L411.139 1456.95 L411.139 1452.69 L419.403 1451.02 L424.079 1451.02 L424.079 1481.64 L431.718 1481.64 L431.718 1485.58 L411.811 1485.58 L411.811 1481.64 Z" fill="#000000" fill-rule="nonzero" fill-opacity="1" /><path clip-path="url(#clip950)" d="M676.407 1481.64 L692.727 1481.64 L692.727 1485.58 L670.782 1485.58 L670.782 1481.64 Q673.444 1478.89 678.028 1474.26 Q682.634 1469.61 683.815 1468.27 Q686.06 1465.74 686.94 1464.01 Q687.842 1462.25 687.842 1460.56 Q687.842 1457.8 685.898 1456.07 Q683.977 1454.33 680.875 1454.33 Q678.676 1454.33 676.222 1455.09 Q673.792 1455.86 671.014 1457.41 L671.014 1452.69 Q673.838 1451.55 676.292 1450.97 Q678.745 1450.39 680.782 1450.39 Q686.153 1450.39 689.347 1453.08 Q692.541 1455.77 692.541 1460.26 Q692.541 1462.39 691.731 1464.31 Q690.944 1466.2 688.838 1468.8 Q688.259 1469.47 685.157 1472.69 Q682.055 1475.88 676.407 1481.64 Z" fill="#000000" fill-rule="nonzero" fill-opacity="1" /><path clip-path="url(#clip950)" d="M712.541 1454.1 Q708.93 1454.1 707.102 1457.66 Q705.296 1461.2 705.296 1468.33 Q705.296 1475.44 707.102 1479.01 Q708.93 1482.55 712.541 1482.55 Q716.176 1482.55 717.981 1479.01 Q719.81 1475.44 719.81 1468.33 Q719.81 1461.2 717.981 1457.66 Q716.176 1454.1 712.541 1454.1 M712.541 1450.39 Q718.351 1450.39 721.407 1455 Q724.486 1459.58 724.486 1468.33 Q724.486 1477.06 721.407 1481.67 Q718.351 1486.25 712.541 1486.25 Q706.731 1486.25 703.652 1481.67 Q700.597 1477.06 700.597 1468.33 Q700.597 1459.58 703.652 1455 Q706.731 1450.39 712.541 1450.39 Z" fill="#000000" fill-rule="nonzero" fill-opacity="1" /><path clip-path="url(#clip950)" d="M736.731 1481.64 L753.05 1481.64 L753.05 1485.58 L731.106 1485.58 L731.106 1481.64 Q733.768 1478.89 738.351 1474.26 Q742.958 1469.61 744.138 1468.27 Q746.384 1465.74 747.263 1464.01 Q748.166 1462.25 748.166 1460.56 Q748.166 1457.8 746.222 1456.07 Q744.3 1454.33 741.199 1454.33 Q739 1454.33 736.546 1455.09 Q734.115 1455.86 731.338 1457.41 L731.338 1452.69 Q734.162 1451.55 736.615 1450.97 Q739.069 1450.39 741.106 1450.39 Q746.476 1450.39 749.671 1453.08 Q752.865 1455.77 752.865 1460.26 Q752.865 1462.39 752.055 1464.31 Q751.268 1466.2 749.162 1468.8 Q748.583 1469.47 745.481 1472.69 Q742.379 1475.88 736.731 1481.64 Z" fill="#000000" fill-rule="nonzero" fill-opacity="1" /><path clip-path="url(#clip950)" d="M763.675 1481.64 L771.314 1481.64 L771.314 1455.28 L763.004 1456.95 L763.004 1452.69 L771.268 1451.02 L775.944 1451.02 L775.944 1481.64 L783.583 1481.64 L783.583 1485.58 L763.675 1485.58 L763.675 1481.64 Z" fill="#000000" fill-rule="nonzero" fill-opacity="1" /><path clip-path="url(#clip950)" d="M790.272 1470.7 L802.749 1470.7 L802.749 1474.49 L790.272 1474.49 L790.272 1470.7 Z" fill="#000000" fill-rule="nonzero" fill-opacity="1" /><path clip-path="url(#clip950)" d="M820.133 1454.1 Q816.522 1454.1 814.694 1457.66 Q812.888 1461.2 812.888 1468.33 Q812.888 1475.44 814.694 1479.01 Q816.522 1482.55 820.133 1482.55 Q823.768 1482.55 825.573 1479.01 Q827.402 1475.44 827.402 1468.33 Q827.402 1461.2 825.573 1457.66 Q823.768 1454.1 820.133 1454.1 M820.133 1450.39 Q825.944 1450.39 828.999 1455 Q832.078 1459.58 832.078 1468.33 Q832.078 1477.06 828.999 1481.67 Q825.944 1486.25 820.133 1486.25 Q814.323 1486.25 811.245 1481.67 Q808.189 1477.06 808.189 1468.33 Q808.189 1459.58 811.245 1455 Q814.323 1450.39 820.133 1450.39 Z" fill="#000000" fill-rule="nonzero" fill-opacity="1" /><path clip-path="url(#clip950)" d="M853.142 1455.09 L841.337 1473.54 L853.142 1473.54 L853.142 1455.09 M851.916 1451.02 L857.795 1451.02 L857.795 1473.54 L862.726 1473.54 L862.726 1477.43 L857.795 1477.43 L857.795 1485.58 L853.142 1485.58 L853.142 1477.43 L837.541 1477.43 L837.541 1472.92 L851.916 1451.02 Z" fill="#000000" fill-rule="nonzero" fill-opacity="1" /><path clip-path="url(#clip950)" d="M867.703 1470.7 L880.179 1470.7 L880.179 1474.49 L867.703 1474.49 L867.703 1470.7 Z" fill="#000000" fill-rule="nonzero" fill-opacity="1" /><path clip-path="url(#clip950)" d="M897.563 1454.1 Q893.952 1454.1 892.124 1457.66 Q890.318 1461.2 890.318 1468.33 Q890.318 1475.44 892.124 1479.01 Q893.952 1482.55 897.563 1482.55 Q901.198 1482.55 903.003 1479.01 Q904.832 1475.44 904.832 1468.33 Q904.832 1461.2 903.003 1457.66 Q901.198 1454.1 897.563 1454.1 M897.563 1450.39 Q903.374 1450.39 906.429 1455 Q909.508 1459.58 909.508 1468.33 Q909.508 1477.06 906.429 1481.67 Q903.374 1486.25 897.563 1486.25 Q891.753 1486.25 888.675 1481.67 Q885.619 1477.06 885.619 1468.33 Q885.619 1459.58 888.675 1455 Q891.753 1450.39 897.563 1450.39 Z" fill="#000000" fill-rule="nonzero" fill-opacity="1" /><path clip-path="url(#clip950)" d="M918.536 1481.64 L926.174 1481.64 L926.174 1455.28 L917.864 1456.95 L917.864 1452.69 L926.128 1451.02 L930.804 1451.02 L930.804 1481.64 L938.443 1481.64 L938.443 1485.58 L918.536 1485.58 L918.536 1481.64 Z" fill="#000000" fill-rule="nonzero" fill-opacity="1" /><path clip-path="url(#clip950)" d="M1188.76 1481.64 L1205.08 1481.64 L1205.08 1485.58 L1183.14 1485.58 L1183.14 1481.64 Q1185.8 1478.89 1190.38 1474.26 Q1194.99 1469.61 1196.17 1468.27 Q1198.42 1465.74 1199.29 1464.01 Q1200.2 1462.25 1200.2 1460.56 Q1200.2 1457.8 1198.25 1456.07 Q1196.33 1454.33 1193.23 1454.33 Q1191.03 1454.33 1188.58 1455.09 Q1186.15 1455.86 1183.37 1457.41 L1183.37 1452.69 Q1186.19 1451.55 1188.65 1450.97 Q1191.1 1450.39 1193.14 1450.39 Q1198.51 1450.39 1201.7 1453.08 Q1204.9 1455.77 1204.9 1460.26 Q1204.9 1462.39 1204.09 1464.31 Q1203.3 1466.2 1201.19 1468.8 Q1200.61 1469.47 1197.51 1472.69 Q1194.41 1475.88 1188.76 1481.64 Z" fill="#000000" fill-rule="nonzero" fill-opacity="1" /><path clip-path="url(#clip950)" d="M1224.9 1454.1 Q1221.29 1454.1 1219.46 1457.66 Q1217.65 1461.2 1217.65 1468.33 Q1217.65 1475.44 1219.46 1479.01 Q1221.29 1482.55 1224.9 1482.55 Q1228.53 1482.55 1230.34 1479.01 Q1232.17 1475.44 1232.17 1468.33 Q1232.17 1461.2 1230.34 1457.66 Q1228.53 1454.1 1224.9 1454.1 M1224.9 1450.39 Q1230.71 1450.39 1233.76 1455 Q1236.84 1459.58 1236.84 1468.33 Q1236.84 1477.06 1233.76 1481.67 Q1230.71 1486.25 1224.9 1486.25 Q1219.09 1486.25 1216.01 1481.67 Q1212.95 1477.06 1212.95 1468.33 Q1212.95 1459.58 1216.01 1455 Q1219.09 1450.39 1224.9 1450.39 Z" fill="#000000" fill-rule="nonzero" fill-opacity="1" /><path clip-path="url(#clip950)" d="M1249.09 1481.64 L1265.41 1481.64 L1265.41 1485.58 L1243.46 1485.58 L1243.46 1481.64 Q1246.12 1478.89 1250.71 1474.26 Q1255.31 1469.61 1256.49 1468.27 Q1258.74 1465.74 1259.62 1464.01 Q1260.52 1462.25 1260.52 1460.56 Q1260.52 1457.8 1258.58 1456.07 Q1256.66 1454.33 1253.55 1454.33 Q1251.35 1454.33 1248.9 1455.09 Q1246.47 1455.86 1243.69 1457.41 L1243.69 1452.69 Q1246.52 1451.55 1248.97 1450.97 Q1251.42 1450.39 1253.46 1450.39 Q1258.83 1450.39 1262.03 1453.08 Q1265.22 1455.77 1265.22 1460.26 Q1265.22 1462.39 1264.41 1464.31 Q1263.62 1466.2 1261.52 1468.8 Q1260.94 1469.47 1257.84 1472.69 Q1254.73 1475.88 1249.09 1481.64 Z" fill="#000000" fill-rule="nonzero" fill-opacity="1" /><path clip-path="url(#clip950)" d="M1276.03 1481.64 L1283.67 1481.64 L1283.67 1455.28 L1275.36 1456.95 L1275.36 1452.69 L1283.62 1451.02 L1288.3 1451.02 L1288.3 1481.64 L1295.94 1481.64 L1295.94 1485.58 L1276.03 1485.58 L1276.03 1481.64 Z" fill="#000000" fill-rule="nonzero" fill-opacity="1" /><path clip-path="url(#clip950)" d="M1302.63 1470.7 L1315.1 1470.7 L1315.1 1474.49 L1302.63 1474.49 L1302.63 1470.7 Z" fill="#000000" fill-rule="nonzero" fill-opacity="1" /><path clip-path="url(#clip950)" d="M1332.49 1454.1 Q1328.88 1454.1 1327.05 1457.66 Q1325.24 1461.2 1325.24 1468.33 Q1325.24 1475.44 1327.05 1479.01 Q1328.88 1482.55 1332.49 1482.55 Q1336.12 1482.55 1337.93 1479.01 Q1339.76 1475.44 1339.76 1468.33 Q1339.76 1461.2 1337.93 1457.66 Q1336.12 1454.1 1332.49 1454.1 M1332.49 1450.39 Q1338.3 1450.39 1341.35 1455 Q1344.43 1459.58 1344.43 1468.33 Q1344.43 1477.06 1341.35 1481.67 Q1338.3 1486.25 1332.49 1486.25 Q1326.68 1486.25 1323.6 1481.67 Q1320.54 1477.06 1320.54 1468.33 Q1320.54 1459.58 1323.6 1455 Q1326.68 1450.39 1332.49 1450.39 Z" fill="#000000" fill-rule="nonzero" fill-opacity="1" /><path clip-path="url(#clip950)" d="M1351.47 1451.02 L1373.69 1451.02 L1373.69 1453.01 L1361.15 1485.58 L1356.26 1485.58 L1368.07 1454.96 L1351.47 1454.96 L1351.47 1451.02 Z" fill="#000000" fill-rule="nonzero" fill-opacity="1" /><path clip-path="url(#clip950)" d="M1380.06 1470.7 L1392.53 1470.7 L1392.53 1474.49 L1380.06 1474.49 L1380.06 1470.7 Z" fill="#000000" fill-rule="nonzero" fill-opacity="1" /><path clip-path="url(#clip950)" d="M1409.92 1454.1 Q1406.31 1454.1 1404.48 1457.66 Q1402.67 1461.2 1402.67 1468.33 Q1402.67 1475.44 1404.48 1479.01 Q1406.31 1482.55 1409.92 1482.55 Q1413.55 1482.55 1415.36 1479.01 Q1417.19 1475.44 1417.19 1468.33 Q1417.19 1461.2 1415.36 1457.66 Q1413.55 1454.1 1409.92 1454.1 M1409.92 1450.39 Q1415.73 1450.39 1418.78 1455 Q1421.86 1459.58 1421.86 1468.33 Q1421.86 1477.06 1418.78 1481.67 Q1415.73 1486.25 1409.92 1486.25 Q1404.11 1486.25 1401.03 1481.67 Q1397.97 1477.06 1397.97 1468.33 Q1397.97 1459.58 1401.03 1455 Q1404.11 1450.39 1409.92 1450.39 Z" fill="#000000" fill-rule="nonzero" fill-opacity="1" /><path clip-path="url(#clip950)" d="M1430.89 1481.64 L1438.53 1481.64 L1438.53 1455.28 L1430.22 1456.95 L1430.22 1452.69 L1438.48 1451.02 L1443.16 1451.02 L1443.16 1481.64 L1450.8 1481.64 L1450.8 1485.58 L1430.89 1485.58 L1430.89 1481.64 Z" fill="#000000" fill-rule="nonzero" fill-opacity="1" /><path clip-path="url(#clip950)" d="M1706.75 1481.64 L1723.07 1481.64 L1723.07 1485.58 L1701.12 1485.58 L1701.12 1481.64 Q1703.79 1478.89 1708.37 1474.26 Q1712.97 1469.61 1714.16 1468.27 Q1716.4 1465.74 1717.28 1464.01 Q1718.18 1462.25 1718.18 1460.56 Q1718.18 1457.8 1716.24 1456.07 Q1714.32 1454.33 1711.22 1454.33 Q1709.02 1454.33 1706.56 1455.09 Q1704.13 1455.86 1701.35 1457.41 L1701.35 1452.69 Q1704.18 1451.55 1706.63 1450.97 Q1709.09 1450.39 1711.12 1450.39 Q1716.49 1450.39 1719.69 1453.08 Q1722.88 1455.77 1722.88 1460.26 Q1722.88 1462.39 1722.07 1464.31 Q1721.28 1466.2 1719.18 1468.8 Q1718.6 1469.47 1715.5 1472.69 Q1712.4 1475.88 1706.75 1481.64 Z" fill="#000000" fill-rule="nonzero" fill-opacity="1" /><path clip-path="url(#clip950)" d="M1742.88 1454.1 Q1739.27 1454.1 1737.44 1457.66 Q1735.64 1461.2 1735.64 1468.33 Q1735.64 1475.44 1737.44 1479.01 Q1739.27 1482.55 1742.88 1482.55 Q1746.52 1482.55 1748.32 1479.01 Q1750.15 1475.44 1750.15 1468.33 Q1750.15 1461.2 1748.32 1457.66 Q1746.52 1454.1 1742.88 1454.1 M1742.88 1450.39 Q1748.69 1450.39 1751.75 1455 Q1754.83 1459.58 1754.83 1468.33 Q1754.83 1477.06 1751.75 1481.67 Q1748.69 1486.25 1742.88 1486.25 Q1737.07 1486.25 1733.99 1481.67 Q1730.94 1477.06 1730.94 1468.33 Q1730.94 1459.58 1733.99 1455 Q1737.07 1450.39 1742.88 1450.39 Z" fill="#000000" fill-rule="nonzero" fill-opacity="1" /><path clip-path="url(#clip950)" d="M1767.07 1481.64 L1783.39 1481.64 L1783.39 1485.58 L1761.45 1485.58 L1761.45 1481.64 Q1764.11 1478.89 1768.69 1474.26 Q1773.3 1469.61 1774.48 1468.27 Q1776.72 1465.74 1777.6 1464.01 Q1778.51 1462.25 1778.51 1460.56 Q1778.51 1457.8 1776.56 1456.07 Q1774.64 1454.33 1771.54 1454.33 Q1769.34 1454.33 1766.89 1455.09 Q1764.46 1455.86 1761.68 1457.41 L1761.68 1452.69 Q1764.5 1451.55 1766.96 1450.97 Q1769.41 1450.39 1771.45 1450.39 Q1776.82 1450.39 1780.01 1453.08 Q1783.21 1455.77 1783.21 1460.26 Q1783.21 1462.39 1782.4 1464.31 Q1781.61 1466.2 1779.5 1468.8 Q1778.92 1469.47 1775.82 1472.69 Q1772.72 1475.88 1767.07 1481.64 Z" fill="#000000" fill-rule="nonzero" fill-opacity="1" /><path clip-path="url(#clip950)" d="M1794.02 1481.64 L1801.65 1481.64 L1801.65 1455.28 L1793.34 1456.95 L1793.34 1452.69 L1801.61 1451.02 L1806.28 1451.02 L1806.28 1481.64 L1813.92 1481.64 L1813.92 1485.58 L1794.02 1485.58 L1794.02 1481.64 Z" fill="#000000" fill-rule="nonzero" fill-opacity="1" /><path clip-path="url(#clip950)" d="M1820.61 1470.7 L1833.09 1470.7 L1833.09 1474.49 L1820.61 1474.49 L1820.61 1470.7 Z" fill="#000000" fill-rule="nonzero" fill-opacity="1" /><path clip-path="url(#clip950)" d="M1841.28 1481.64 L1848.92 1481.64 L1848.92 1455.28 L1840.61 1456.95 L1840.61 1452.69 L1848.88 1451.02 L1853.55 1451.02 L1853.55 1481.64 L1861.19 1481.64 L1861.19 1485.58 L1841.28 1485.58 L1841.28 1481.64 Z" fill="#000000" fill-rule="nonzero" fill-opacity="1" /><path clip-path="url(#clip950)" d="M1880.64 1454.1 Q1877.02 1454.1 1875.2 1457.66 Q1873.39 1461.2 1873.39 1468.33 Q1873.39 1475.44 1875.2 1479.01 Q1877.02 1482.55 1880.64 1482.55 Q1884.27 1482.55 1886.08 1479.01 Q1887.9 1475.44 1887.9 1468.33 Q1887.9 1461.2 1886.08 1457.66 Q1884.27 1454.1 1880.64 1454.1 M1880.64 1450.39 Q1886.45 1450.39 1889.5 1455 Q1892.58 1459.58 1892.58 1468.33 Q1892.58 1477.06 1889.5 1481.67 Q1886.45 1486.25 1880.64 1486.25 Q1874.83 1486.25 1871.75 1481.67 Q1868.69 1477.06 1868.69 1468.33 Q1868.69 1459.58 1871.75 1455 Q1874.83 1450.39 1880.64 1450.39 Z" fill="#000000" fill-rule="nonzero" fill-opacity="1" /><path clip-path="url(#clip950)" d="M1898.04 1470.7 L1910.52 1470.7 L1910.52 1474.49 L1898.04 1474.49 L1898.04 1470.7 Z" fill="#000000" fill-rule="nonzero" fill-opacity="1" /><path clip-path="url(#clip950)" d="M1927.9 1454.1 Q1924.29 1454.1 1922.46 1457.66 Q1920.66 1461.2 1920.66 1468.33 Q1920.66 1475.44 1922.46 1479.01 Q1924.29 1482.55 1927.9 1482.55 Q1931.54 1482.55 1933.34 1479.01 Q1935.17 1475.44 1935.17 1468.33 Q1935.17 1461.2 1933.34 1457.66 Q1931.54 1454.1 1927.9 1454.1 M1927.9 1450.39 Q1933.71 1450.39 1936.77 1455 Q1939.85 1459.58 1939.85 1468.33 Q1939.85 1477.06 1936.77 1481.67 Q1933.71 1486.25 1927.9 1486.25 Q1922.09 1486.25 1919.02 1481.67 Q1915.96 1477.06 1915.96 1468.33 Q1915.96 1459.58 1919.02 1455 Q1922.09 1450.39 1927.9 1450.39 Z" fill="#000000" fill-rule="nonzero" fill-opacity="1" /><path clip-path="url(#clip950)" d="M1948.88 1481.64 L1956.52 1481.64 L1956.52 1455.28 L1948.21 1456.95 L1948.21 1452.69 L1956.47 1451.02 L1961.14 1451.02 L1961.14 1481.64 L1968.78 1481.64 L1968.78 1485.58 L1948.88 1485.58 L1948.88 1481.64 Z" fill="#000000" fill-rule="nonzero" fill-opacity="1" /><path clip-path="url(#clip950)" d="M1261.4 1537.81 L1261.4 1518.52 L1267.26 1518.52 L1267.26 1568.04 L1261.4 1568.04 L1261.4 1562.7 Q1259.55 1565.88 1256.72 1567.44 Q1253.92 1568.97 1249.97 1568.97 Q1243.51 1568.97 1239.44 1563.81 Q1235.4 1558.65 1235.4 1550.25 Q1235.4 1541.85 1239.44 1536.69 Q1243.51 1531.54 1249.97 1531.54 Q1253.92 1531.54 1256.72 1533.1 Q1259.55 1534.62 1261.4 1537.81 M1241.44 1550.25 Q1241.44 1556.71 1244.09 1560.4 Q1246.76 1564.07 1251.41 1564.07 Q1256.05 1564.07 1258.73 1560.4 Q1261.4 1556.71 1261.4 1550.25 Q1261.4 1543.79 1258.73 1540.13 Q1256.05 1536.44 1251.41 1536.44 Q1246.76 1536.44 1244.09 1540.13 Q1241.44 1543.79 1241.44 1550.25 Z" fill="#000000" fill-rule="nonzero" fill-opacity="1" /><path clip-path="url(#clip950)" d="M1295.52 1550.12 Q1288.42 1550.12 1285.69 1551.75 Q1282.95 1553.37 1282.95 1557.29 Q1282.95 1560.4 1284.99 1562.25 Q1287.05 1564.07 1290.59 1564.07 Q1295.46 1564.07 1298.38 1560.63 Q1301.35 1557.16 1301.35 1551.43 L1301.35 1550.12 L1295.52 1550.12 M1307.2 1547.71 L1307.2 1568.04 L1301.35 1568.04 L1301.35 1562.63 Q1299.34 1565.88 1296.35 1567.44 Q1293.36 1568.97 1289.03 1568.97 Q1283.55 1568.97 1280.31 1565.91 Q1277.09 1562.82 1277.09 1557.67 Q1277.09 1551.65 1281.1 1548.6 Q1285.14 1545.54 1293.13 1545.54 L1301.35 1545.54 L1301.35 1544.97 Q1301.35 1540.93 1298.67 1538.73 Q1296.03 1536.5 1291.22 1536.5 Q1288.17 1536.5 1285.27 1537.23 Q1282.38 1537.97 1279.7 1539.43 L1279.7 1534.02 Q1282.92 1532.78 1285.94 1532.17 Q1288.96 1531.54 1291.83 1531.54 Q1299.56 1531.54 1303.38 1535.55 Q1307.2 1539.56 1307.2 1547.71 Z" fill="#000000" fill-rule="nonzero" fill-opacity="1" /><path clip-path="url(#clip950)" d="M1325.06 1522.27 L1325.06 1532.4 L1337.12 1532.4 L1337.12 1536.95 L1325.06 1536.95 L1325.06 1556.3 Q1325.06 1560.66 1326.23 1561.9 Q1327.44 1563.14 1331.1 1563.14 L1337.12 1563.14 L1337.12 1568.04 L1331.1 1568.04 Q1324.33 1568.04 1321.75 1565.53 Q1319.17 1562.98 1319.17 1556.3 L1319.17 1536.95 L1314.87 1536.95 L1314.87 1532.4 L1319.17 1532.4 L1319.17 1522.27 L1325.06 1522.27 Z" fill="#000000" fill-rule="nonzero" fill-opacity="1" /><path clip-path="url(#clip950)" d="M1375.31 1548.76 L1375.31 1551.62 L1348.39 1551.62 Q1348.77 1557.67 1352.02 1560.85 Q1355.29 1564 1361.12 1564 Q1364.49 1564 1367.64 1563.17 Q1370.83 1562.35 1373.95 1560.69 L1373.95 1566.23 Q1370.79 1567.57 1367.48 1568.27 Q1364.17 1568.97 1360.77 1568.97 Q1352.24 1568.97 1347.24 1564 Q1342.28 1559.04 1342.28 1550.57 Q1342.28 1541.82 1346.99 1536.69 Q1351.73 1531.54 1359.75 1531.54 Q1366.94 1531.54 1371.11 1536.18 Q1375.31 1540.8 1375.31 1548.76 M1369.46 1547.04 Q1369.39 1542.23 1366.75 1539.37 Q1364.14 1536.5 1359.81 1536.5 Q1354.91 1536.5 1351.95 1539.27 Q1349.02 1542.04 1348.58 1547.07 L1369.46 1547.04 Z" fill="#000000" fill-rule="nonzero" fill-opacity="1" /><polyline clip-path="url(#clip952)" style="stroke:#000000; stroke-linecap:round; stroke-linejoin:round; stroke-width:2; stroke-opacity:0.1; fill:none" points="257.955,1367.29 2352.76,1367.29 "/>
<polyline clip-path="url(#clip952)" style="stroke:#000000; stroke-linecap:round; stroke-linejoin:round; stroke-width:2; stroke-opacity:0.1; fill:none" points="257.955,565.17 2352.76,565.17 "/>
<polyline clip-path="url(#clip950)" style="stroke:#000000; stroke-linecap:round; stroke-linejoin:round; stroke-width:4; stroke-opacity:1; fill:none" points="257.955,1423.18 257.955,123.472 "/>
<polyline clip-path="url(#clip950)" style="stroke:#000000; stroke-linecap:round; stroke-linejoin:round; stroke-width:4; stroke-opacity:1; fill:none" points="257.955,1367.29 276.853,1367.29 "/>
<polyline clip-path="url(#clip950)" style="stroke:#000000; stroke-linecap:round; stroke-linejoin:round; stroke-width:4; stroke-opacity:1; fill:none" points="257.955,565.17 276.853,565.17 "/>
<path clip-path="url(#clip950)" d="M114.931 1387.09 L122.57 1387.09 L122.57 1360.72 L114.26 1362.39 L114.26 1358.13 L122.524 1356.46 L127.2 1356.46 L127.2 1387.09 L134.839 1387.09 L134.839 1391.02 L114.931 1391.02 L114.931 1387.09 Z" fill="#000000" fill-rule="nonzero" fill-opacity="1" /><path clip-path="url(#clip950)" d="M154.283 1359.54 Q150.672 1359.54 148.843 1363.1 Q147.038 1366.65 147.038 1373.78 Q147.038 1380.88 148.843 1384.45 Q150.672 1387.99 154.283 1387.99 Q157.917 1387.99 159.723 1384.45 Q161.552 1380.88 161.552 1373.78 Q161.552 1366.65 159.723 1363.1 Q157.917 1359.54 154.283 1359.54 M154.283 1355.84 Q160.093 1355.84 163.149 1360.44 Q166.227 1365.03 166.227 1373.78 Q166.227 1382.5 163.149 1387.11 Q160.093 1391.69 154.283 1391.69 Q148.473 1391.69 145.394 1387.11 Q142.339 1382.5 142.339 1373.78 Q142.339 1365.03 145.394 1360.44 Q148.473 1355.84 154.283 1355.84 Z" fill="#000000" fill-rule="nonzero" fill-opacity="1" /><path clip-path="url(#clip950)" d="M167.412 1335.53 L182.327 1335.53 L182.327 1338.73 L170.892 1338.73 L170.892 1345.61 Q171.719 1345.33 172.547 1345.2 Q173.374 1345.05 174.202 1345.05 Q178.904 1345.05 181.65 1347.62 Q184.396 1350.2 184.396 1354.6 Q184.396 1359.13 181.575 1361.65 Q178.753 1364.16 173.619 1364.16 Q171.851 1364.16 170.008 1363.85 Q168.183 1363.55 166.227 1362.95 L166.227 1359.13 Q167.92 1360.06 169.726 1360.51 Q171.531 1360.96 173.544 1360.96 Q176.797 1360.96 178.697 1359.25 Q180.597 1357.54 180.597 1354.6 Q180.597 1351.67 178.697 1349.96 Q176.797 1348.24 173.544 1348.24 Q172.02 1348.24 170.497 1348.58 Q168.992 1348.92 167.412 1349.64 L167.412 1335.53 Z" fill="#000000" fill-rule="nonzero" fill-opacity="1" /><path clip-path="url(#clip950)" d="M191.881 1358.83 L195.85 1358.83 L195.85 1363.61 L191.881 1363.61 L191.881 1358.83 Z" fill="#000000" fill-rule="nonzero" fill-opacity="1" /><path clip-path="url(#clip950)" d="M212.25 1338.03 Q209.316 1338.03 207.83 1340.93 Q206.363 1343.81 206.363 1349.6 Q206.363 1355.37 207.83 1358.27 Q209.316 1361.15 212.25 1361.15 Q215.203 1361.15 216.67 1358.27 Q218.156 1355.37 218.156 1349.6 Q218.156 1343.81 216.67 1340.93 Q215.203 1338.03 212.25 1338.03 M212.25 1335.02 Q216.971 1335.02 219.453 1338.77 Q221.955 1342.49 221.955 1349.6 Q221.955 1356.69 219.453 1360.43 Q216.971 1364.16 212.25 1364.16 Q207.529 1364.16 205.028 1360.43 Q202.545 1356.69 202.545 1349.6 Q202.545 1342.49 205.028 1338.77 Q207.529 1335.02 212.25 1335.02 Z" fill="#000000" fill-rule="nonzero" fill-opacity="1" /><path clip-path="url(#clip950)" d="M115.74 584.963 L123.379 584.963 L123.379 558.597 L115.069 560.264 L115.069 556.004 L123.333 554.338 L128.009 554.338 L128.009 584.963 L135.647 584.963 L135.647 588.898 L115.74 588.898 L115.74 584.963 Z" fill="#000000" fill-rule="nonzero" fill-opacity="1" /><path clip-path="url(#clip950)" d="M155.092 557.416 Q151.481 557.416 149.652 560.981 Q147.846 564.523 147.846 571.652 Q147.846 578.759 149.652 582.324 Q151.481 585.865 155.092 585.865 Q158.726 585.865 160.532 582.324 Q162.36 578.759 162.36 571.652 Q162.36 564.523 160.532 560.981 Q158.726 557.416 155.092 557.416 M155.092 553.713 Q160.902 553.713 163.958 558.319 Q167.036 562.902 167.036 571.652 Q167.036 580.379 163.958 584.986 Q160.902 589.569 155.092 589.569 Q149.282 589.569 146.203 584.986 Q143.147 580.379 143.147 571.652 Q143.147 562.902 146.203 558.319 Q149.282 553.713 155.092 553.713 Z" fill="#000000" fill-rule="nonzero" fill-opacity="1" /><path clip-path="url(#clip950)" d="M168.221 533.407 L183.136 533.407 L183.136 536.605 L171.701 536.605 L171.701 543.488 Q172.528 543.206 173.356 543.075 Q174.183 542.924 175.011 542.924 Q179.713 542.924 182.459 545.501 Q185.205 548.077 185.205 552.478 Q185.205 557.011 182.383 559.531 Q179.562 562.033 174.428 562.033 Q172.66 562.033 170.817 561.732 Q168.992 561.431 167.036 560.829 L167.036 557.011 Q168.729 557.933 170.534 558.384 Q172.34 558.835 174.352 558.835 Q177.606 558.835 179.506 557.124 Q181.405 555.412 181.405 552.478 Q181.405 549.544 179.506 547.833 Q177.606 546.121 174.352 546.121 Q172.829 546.121 171.306 546.46 Q169.801 546.798 168.221 547.513 L168.221 533.407 Z" fill="#000000" fill-rule="nonzero" fill-opacity="1" /><path clip-path="url(#clip950)" d="M192.69 556.71 L196.658 556.71 L196.658 561.487 L192.69 561.487 L192.69 556.71 Z" fill="#000000" fill-rule="nonzero" fill-opacity="1" /><path clip-path="url(#clip950)" d="M204.971 533.407 L219.886 533.407 L219.886 536.605 L208.451 536.605 L208.451 543.488 Q209.278 543.206 210.106 543.075 Q210.934 542.924 211.761 542.924 Q216.463 542.924 219.209 545.501 Q221.955 548.077 221.955 552.478 Q221.955 557.011 219.134 559.531 Q216.313 562.033 211.178 562.033 Q209.41 562.033 207.567 561.732 Q205.743 561.431 203.787 560.829 L203.787 557.011 Q205.479 557.933 207.285 558.384 Q209.09 558.835 211.103 558.835 Q214.357 558.835 216.256 557.124 Q218.156 555.412 218.156 552.478 Q218.156 549.544 216.256 547.833 Q214.357 546.121 211.103 546.121 Q209.579 546.121 208.056 546.46 Q206.551 546.798 204.971 547.513 L204.971 533.407 Z" fill="#000000" fill-rule="nonzero" fill-opacity="1" /><path clip-path="url(#clip950)" d="M21.7677 1084.27 L39.6235 1084.27 L39.6235 1076.19 Q39.6235 1071.7 37.3 1069.25 Q34.9765 1066.8 30.6797 1066.8 Q26.4147 1066.8 24.0912 1069.25 Q21.7677 1071.7 21.7677 1076.19 L21.7677 1084.27 M16.4842 1090.7 L16.4842 1076.19 Q16.4842 1068.2 20.1126 1064.13 Q23.7092 1060.02 30.6797 1060.02 Q37.7138 1060.02 41.3104 1064.13 Q44.907 1068.2 44.907 1076.19 L44.907 1084.27 L64.0042 1084.27 L64.0042 1090.7 L16.4842 1090.7 Z" fill="#000000" fill-rule="nonzero" fill-opacity="1" /><path clip-path="url(#clip950)" d="M32.4621 1040.16 Q32.4621 1044.87 36.1542 1047.61 Q39.8145 1050.35 46.212 1050.35 Q52.6095 1050.35 56.3017 1047.64 Q59.9619 1044.9 59.9619 1040.16 Q59.9619 1035.48 56.2698 1032.74 Q52.5777 1030.01 46.212 1030.01 Q39.8781 1030.01 36.186 1032.74 Q32.4621 1035.48 32.4621 1040.16 M27.4968 1040.16 Q27.4968 1032.52 32.4621 1028.16 Q37.4273 1023.8 46.212 1023.8 Q54.9649 1023.8 59.9619 1028.16 Q64.9272 1032.52 64.9272 1040.16 Q64.9272 1047.83 59.9619 1052.19 Q54.9649 1056.52 46.212 1056.52 Q37.4273 1056.52 32.4621 1052.19 Q27.4968 1047.83 27.4968 1040.16 Z" fill="#000000" fill-rule="nonzero" fill-opacity="1" /><path clip-path="url(#clip950)" d="M33.8307 993.436 Q33.2578 994.423 33.0032 995.601 Q32.7167 996.746 32.7167 998.147 Q32.7167 1003.11 35.9632 1005.79 Q39.1779 1008.43 45.2253 1008.43 L64.0042 1008.43 L64.0042 1014.32 L28.3562 1014.32 L28.3562 1008.43 L33.8944 1008.43 Q30.6479 1006.58 29.0883 1003.62 Q27.4968 1000.66 27.4968 996.428 Q27.4968 995.823 27.5923 995.091 Q27.656 994.359 27.8151 993.468 L33.8307 993.436 Z" fill="#000000" fill-rule="nonzero" fill-opacity="1" /><path clip-path="url(#clip950)" d="M18.2347 981.501 L28.3562 981.501 L28.3562 969.437 L32.9077 969.437 L32.9077 981.501 L52.2594 981.501 Q56.6199 981.501 57.8613 980.323 Q59.1026 979.113 59.1026 975.453 L59.1026 969.437 L64.0042 969.437 L64.0042 975.453 Q64.0042 982.233 61.4897 984.811 Q58.9434 987.389 52.2594 987.389 L32.9077 987.389 L32.9077 991.686 L28.3562 991.686 L28.3562 987.389 L18.2347 987.389 L18.2347 981.501 Z" fill="#000000" fill-rule="nonzero" fill-opacity="1" /><path clip-path="url(#clip950)" d="M14.479 943.688 L19.3487 943.688 L19.3487 949.29 Q19.3487 952.441 20.6219 953.682 Q21.895 954.892 25.2052 954.892 L28.3562 954.892 L28.3562 945.248 L32.9077 945.248 L32.9077 954.892 L64.0042 954.892 L64.0042 960.78 L32.9077 960.78 L32.9077 966.382 L28.3562 966.382 L28.3562 960.78 L25.8736 960.78 Q19.9216 960.78 17.2162 958.011 Q14.479 955.242 14.479 949.226 L14.479 943.688 Z" fill="#000000" fill-rule="nonzero" fill-opacity="1" /><path clip-path="url(#clip950)" d="M32.4621 924.973 Q32.4621 929.684 36.1542 932.421 Q39.8145 935.158 46.212 935.158 Q52.6095 935.158 56.3017 932.453 Q59.9619 929.715 59.9619 924.973 Q59.9619 920.294 56.2698 917.557 Q52.5777 914.82 46.212 914.82 Q39.8781 914.82 36.186 917.557 Q32.4621 920.294 32.4621 924.973 M27.4968 924.973 Q27.4968 917.334 32.4621 912.974 Q37.4273 908.613 46.212 908.613 Q54.9649 908.613 59.9619 912.974 Q64.9272 917.334 64.9272 924.973 Q64.9272 932.644 59.9619 937.004 Q54.9649 941.333 46.212 941.333 Q37.4273 941.333 32.4621 937.004 Q27.4968 932.644 27.4968 924.973 Z" fill="#000000" fill-rule="nonzero" fill-opacity="1" /><path clip-path="url(#clip950)" d="M14.479 898.905 L14.479 893.049 L64.0042 893.049 L64.0042 898.905 L14.479 898.905 Z" fill="#000000" fill-rule="nonzero" fill-opacity="1" /><path clip-path="url(#clip950)" d="M28.3562 880.795 L28.3562 874.939 L64.0042 874.939 L64.0042 880.795 L28.3562 880.795 M14.479 880.795 L14.479 874.939 L21.895 874.939 L21.895 880.795 L14.479 880.795 Z" fill="#000000" fill-rule="nonzero" fill-opacity="1" /><path clip-path="url(#clip950)" d="M32.4621 848.871 Q32.4621 853.582 36.1542 856.319 Q39.8145 859.056 46.212 859.056 Q52.6095 859.056 56.3017 856.351 Q59.9619 853.613 59.9619 848.871 Q59.9619 844.192 56.2698 841.455 Q52.5777 838.718 46.212 838.718 Q39.8781 838.718 36.186 841.455 Q32.4621 844.192 32.4621 848.871 M27.4968 848.871 Q27.4968 841.232 32.4621 836.872 Q37.4273 832.511 46.212 832.511 Q54.9649 832.511 59.9619 836.872 Q64.9272 841.232 64.9272 848.871 Q64.9272 856.542 59.9619 860.902 Q54.9649 865.231 46.212 865.231 Q37.4273 865.231 32.4621 860.902 Q27.4968 856.542 27.4968 848.871 Z" fill="#000000" fill-rule="nonzero" fill-opacity="1" /><path clip-path="url(#clip950)" d="M64.0042 789.574 L16.4842 807.717 L16.4842 801.001 L56.4926 785.946 L16.4842 770.859 L16.4842 764.175 L64.0042 782.286 L64.0042 789.574 Z" fill="#000000" fill-rule="nonzero" fill-opacity="1" /><path clip-path="url(#clip950)" d="M46.0847 746.351 Q46.0847 753.449 47.7079 756.186 Q49.3312 758.924 53.2461 758.924 Q56.3653 758.924 58.2114 756.887 Q60.0256 754.818 60.0256 751.285 Q60.0256 746.415 56.5881 743.487 Q53.1188 740.527 47.3897 740.527 L46.0847 740.527 L46.0847 746.351 M43.6657 734.67 L64.0042 734.67 L64.0042 740.527 L58.5933 740.527 Q61.8398 742.532 63.3994 745.524 Q64.9272 748.516 64.9272 752.844 Q64.9272 758.319 61.8716 761.565 Q58.7843 764.78 53.6281 764.78 Q47.6125 764.78 44.5569 760.77 Q41.5014 756.727 41.5014 748.738 L41.5014 740.527 L40.9285 740.527 Q36.8862 740.527 34.6901 743.2 Q32.4621 745.842 32.4621 750.648 Q32.4621 753.704 33.1941 756.6 Q33.9262 759.496 35.3903 762.17 L29.9795 762.17 Q28.7381 758.955 28.1334 755.932 Q27.4968 752.908 27.4968 750.043 Q27.4968 742.309 31.5072 738.49 Q35.5176 734.67 43.6657 734.67 Z" fill="#000000" fill-rule="nonzero" fill-opacity="1" /><path clip-path="url(#clip950)" d="M14.479 722.607 L14.479 716.751 L64.0042 716.751 L64.0042 722.607 L14.479 722.607 Z" fill="#000000" fill-rule="nonzero" fill-opacity="1" /><path clip-path="url(#clip950)" d="M49.9359 705.102 L28.3562 705.102 L28.3562 699.245 L49.7131 699.245 Q54.7739 699.245 57.3202 697.272 Q59.8346 695.298 59.8346 691.352 Q59.8346 686.609 56.8109 683.872 Q53.7872 681.103 48.5673 681.103 L28.3562 681.103 L28.3562 675.246 L64.0042 675.246 L64.0042 681.103 L58.5296 681.103 Q61.7762 683.235 63.3676 686.068 Q64.9272 688.869 64.9272 692.593 Q64.9272 698.736 61.1078 701.919 Q57.2883 705.102 49.9359 705.102 M27.4968 690.365 L27.4968 690.365 Z" fill="#000000" fill-rule="nonzero" fill-opacity="1" /><path clip-path="url(#clip950)" d="M44.7161 632.692 L47.5806 632.692 L47.5806 659.619 Q53.6281 659.237 56.8109 655.99 Q59.9619 652.712 59.9619 646.887 Q59.9619 643.513 59.1344 640.362 Q58.3069 637.179 56.6518 634.06 L62.1899 634.06 Q63.5267 637.211 64.227 640.521 Q64.9272 643.832 64.9272 647.237 Q64.9272 655.767 59.9619 660.764 Q54.9967 665.73 46.5303 665.73 Q37.7774 665.73 32.6531 661.019 Q27.4968 656.277 27.4968 648.256 Q27.4968 641.063 32.1438 636.893 Q36.7589 632.692 44.7161 632.692 M42.9973 638.548 Q38.1912 638.612 35.3266 641.253 Q32.4621 643.863 32.4621 648.192 Q32.4621 653.094 35.2312 656.054 Q38.0002 658.982 43.0292 659.428 L42.9973 638.548 Z" fill="#000000" fill-rule="nonzero" fill-opacity="1" /><path clip-path="url(#clip950)" d="M43.5384 605.319 L43.5384 588.163 L48.7583 588.163 L48.7583 605.319 L43.5384 605.319 Z" fill="#000000" fill-rule="nonzero" fill-opacity="1" /><path clip-path="url(#clip950)" d="M16.4842 558.595 L16.4842 552.134 L45.3526 552.134 Q52.9915 552.134 56.3653 549.365 Q59.7073 546.595 59.7073 540.389 Q59.7073 534.214 56.3653 531.445 Q52.9915 528.676 45.3526 528.676 L16.4842 528.676 L16.4842 522.215 L46.1484 522.215 Q55.4423 522.215 60.1847 526.83 Q64.9272 531.413 64.9272 540.389 Q64.9272 549.396 60.1847 554.011 Q55.4423 558.595 46.1484 558.595 L16.4842 558.595 Z" fill="#000000" fill-rule="nonzero" fill-opacity="1" /><path clip-path="url(#clip950)" d="M18.0438 481.665 L24.314 481.665 Q22.5634 485.326 21.704 488.572 Q20.8447 491.819 20.8447 494.842 Q20.8447 500.094 22.8817 502.959 Q24.9187 505.791 28.6745 505.791 Q31.8255 505.791 33.4488 503.913 Q35.0402 502.004 36.0269 496.72 L36.8226 492.837 Q38.1912 485.644 41.6605 482.238 Q45.098 478.801 50.8908 478.801 Q57.7976 478.801 61.3624 483.448 Q64.9272 488.063 64.9272 497.007 Q64.9272 500.38 64.1633 504.2 Q63.3994 507.987 61.9035 512.061 L55.2831 512.061 Q57.4793 508.147 58.5933 504.391 Q59.7073 500.635 59.7073 497.007 Q59.7073 491.5 57.543 488.508 Q55.3786 485.516 51.3682 485.516 Q47.8671 485.516 45.8937 487.681 Q43.9204 489.813 42.9337 494.715 L42.1698 498.63 Q40.7375 505.823 37.682 509.038 Q34.6264 512.252 29.1837 512.252 Q22.8817 512.252 19.2532 507.828 Q15.6248 503.372 15.6248 495.574 Q15.6248 492.232 16.2295 488.763 Q16.8343 485.294 18.0438 481.665 Z" fill="#000000" fill-rule="nonzero" fill-opacity="1" /><path clip-path="url(#clip950)" d="M21.7677 462.345 L58.7206 462.345 L58.7206 454.579 Q58.7206 444.744 54.2646 440.193 Q49.8086 435.609 40.1964 435.609 Q30.6479 435.609 26.2237 440.193 Q21.7677 444.744 21.7677 454.579 L21.7677 462.345 M16.4842 468.775 L16.4842 455.566 Q16.4842 441.752 22.2451 435.291 Q27.9743 428.83 40.1964 428.83 Q52.4822 428.83 58.2432 435.323 Q64.0042 441.816 64.0042 455.566 L64.0042 468.775 L16.4842 468.775 Z" fill="#000000" fill-rule="nonzero" fill-opacity="1" /><path clip-path="url(#clip950)" d="M571.858 18.8205 L571.858 41.5461 L582.147 41.5461 Q587.859 41.5461 590.978 38.5889 Q594.098 35.6318 594.098 30.163 Q594.098 24.7348 590.978 21.7777 Q587.859 18.8205 582.147 18.8205 L571.858 18.8205 M563.675 12.096 L582.147 12.096 Q592.315 12.096 597.5 16.714 Q602.726 21.2916 602.726 30.163 Q602.726 39.1155 597.5 43.6931 Q592.315 48.2706 582.147 48.2706 L571.858 48.2706 L571.858 72.576 L563.675 72.576 L563.675 12.096 Z" fill="#000000" fill-rule="nonzero" fill-opacity="1" /><path clip-path="url(#clip950)" d="M628.004 32.4315 Q622.008 32.4315 618.525 37.1306 Q615.041 41.7891 615.041 49.9314 Q615.041 58.0738 618.484 62.7728 Q621.968 67.4314 628.004 67.4314 Q633.959 67.4314 637.442 62.7323 Q640.926 58.0333 640.926 49.9314 Q640.926 41.8701 637.442 37.1711 Q633.959 32.4315 628.004 32.4315 M628.004 26.1121 Q637.726 26.1121 643.276 32.4315 Q648.825 38.7509 648.825 49.9314 Q648.825 61.0714 643.276 67.4314 Q637.726 73.7508 628.004 73.7508 Q618.241 73.7508 612.691 67.4314 Q607.182 61.0714 607.182 49.9314 Q607.182 38.7509 612.691 32.4315 Q618.241 26.1121 628.004 26.1121 Z" fill="#000000" fill-rule="nonzero" fill-opacity="1" /><path clip-path="url(#clip950)" d="M687.471 34.1734 Q686.215 33.4443 684.716 33.1202 Q683.258 32.7556 681.476 32.7556 Q675.156 32.7556 671.753 36.8875 Q668.391 40.9789 668.391 48.6757 L668.391 72.576 L660.897 72.576 L660.897 27.2059 L668.391 27.2059 L668.391 34.2544 Q670.741 30.1225 674.508 28.1376 Q678.275 26.1121 683.663 26.1121 Q684.433 26.1121 685.365 26.2337 Q686.296 26.3147 687.43 26.5172 L687.471 34.1734 Z" fill="#000000" fill-rule="nonzero" fill-opacity="1" /><path clip-path="url(#clip950)" d="M702.662 14.324 L702.662 27.2059 L718.015 27.2059 L718.015 32.9987 L702.662 32.9987 L702.662 57.6282 Q702.662 63.1779 704.161 64.7578 Q705.7 66.3376 710.359 66.3376 L718.015 66.3376 L718.015 72.576 L710.359 72.576 Q701.73 72.576 698.449 69.3758 Q695.168 66.1351 695.168 57.6282 L695.168 32.9987 L689.699 32.9987 L689.699 27.2059 L695.168 27.2059 L695.168 14.324 L702.662 14.324 Z" fill="#000000" fill-rule="nonzero" fill-opacity="1" /><path clip-path="url(#clip950)" d="M750.787 9.54393 L750.787 15.7418 L743.657 15.7418 Q739.647 15.7418 738.067 17.3622 Q736.527 18.9825 736.527 23.1955 L736.527 27.2059 L748.802 27.2059 L748.802 32.9987 L736.527 32.9987 L736.527 72.576 L729.033 72.576 L729.033 32.9987 L721.904 32.9987 L721.904 27.2059 L729.033 27.2059 L729.033 24.0462 Q729.033 16.471 732.558 13.0277 Q736.082 9.54393 743.738 9.54393 L750.787 9.54393 Z" fill="#000000" fill-rule="nonzero" fill-opacity="1" /><path clip-path="url(#clip950)" d="M774.606 32.4315 Q768.611 32.4315 765.127 37.1306 Q761.643 41.7891 761.643 49.9314 Q761.643 58.0738 765.086 62.7728 Q768.57 67.4314 774.606 67.4314 Q780.561 67.4314 784.045 62.7323 Q787.528 58.0333 787.528 49.9314 Q787.528 41.8701 784.045 37.1711 Q780.561 32.4315 774.606 32.4315 M774.606 26.1121 Q784.328 26.1121 789.878 32.4315 Q795.428 38.7509 795.428 49.9314 Q795.428 61.0714 789.878 67.4314 Q784.328 73.7508 774.606 73.7508 Q764.843 73.7508 759.294 67.4314 Q753.784 61.0714 753.784 49.9314 Q753.784 38.7509 759.294 32.4315 Q764.843 26.1121 774.606 26.1121 Z" fill="#000000" fill-rule="nonzero" fill-opacity="1" /><path clip-path="url(#clip950)" d="M807.783 9.54393 L815.236 9.54393 L815.236 72.576 L807.783 72.576 L807.783 9.54393 Z" fill="#000000" fill-rule="nonzero" fill-opacity="1" /><path clip-path="url(#clip950)" d="M830.832 27.2059 L838.286 27.2059 L838.286 72.576 L830.832 72.576 L830.832 27.2059 M830.832 9.54393 L838.286 9.54393 L838.286 18.9825 L830.832 18.9825 L830.832 9.54393 Z" fill="#000000" fill-rule="nonzero" fill-opacity="1" /><path clip-path="url(#clip950)" d="M871.463 32.4315 Q865.468 32.4315 861.984 37.1306 Q858.5 41.7891 858.5 49.9314 Q858.5 58.0738 861.943 62.7728 Q865.427 67.4314 871.463 67.4314 Q877.418 67.4314 880.902 62.7323 Q884.385 58.0333 884.385 49.9314 Q884.385 41.8701 880.902 37.1711 Q877.418 32.4315 871.463 32.4315 M871.463 26.1121 Q881.185 26.1121 886.735 32.4315 Q892.285 38.7509 892.285 49.9314 Q892.285 61.0714 886.735 67.4314 Q881.185 73.7508 871.463 73.7508 Q861.7 73.7508 856.151 67.4314 Q850.641 61.0714 850.641 49.9314 Q850.641 38.7509 856.151 32.4315 Q861.7 26.1121 871.463 26.1121 Z" fill="#000000" fill-rule="nonzero" fill-opacity="1" /><path clip-path="url(#clip950)" d="M946.931 72.576 L923.841 12.096 L932.389 12.096 L951.549 63.0159 L970.751 12.096 L979.258 12.096 L956.208 72.576 L946.931 72.576 Z" fill="#000000" fill-rule="nonzero" fill-opacity="1" /><path clip-path="url(#clip950)" d="M1001.94 49.7694 Q992.909 49.7694 989.425 51.8354 Q985.942 53.9013 985.942 58.8839 Q985.942 62.8538 988.534 65.2034 Q991.167 67.5124 995.664 67.5124 Q1001.86 67.5124 1005.59 63.1374 Q1009.36 58.7219 1009.36 51.4303 L1009.36 49.7694 L1001.94 49.7694 M1016.81 46.6907 L1016.81 72.576 L1009.36 72.576 L1009.36 65.6895 Q1006.8 69.8214 1003 71.8063 Q999.188 73.7508 993.679 73.7508 Q986.711 73.7508 982.579 69.8619 Q978.488 65.9325 978.488 59.3701 Q978.488 51.7138 983.592 47.825 Q988.737 43.9361 998.904 43.9361 L1009.36 43.9361 L1009.36 43.2069 Q1009.36 38.0623 1005.95 35.2672 Q1002.59 32.4315 996.474 32.4315 Q992.585 32.4315 988.899 33.3632 Q985.212 34.295 981.81 36.1584 L981.81 29.2718 Q985.901 27.692 989.749 26.9223 Q993.598 26.1121 997.244 26.1121 Q1007.09 26.1121 1011.95 31.2163 Q1016.81 36.3204 1016.81 46.6907 Z" fill="#000000" fill-rule="nonzero" fill-opacity="1" /><path clip-path="url(#clip950)" d="M1032.16 9.54393 L1039.62 9.54393 L1039.62 72.576 L1032.16 72.576 L1032.16 9.54393 Z" fill="#000000" fill-rule="nonzero" fill-opacity="1" /><path clip-path="url(#clip950)" d="M1054.44 54.671 L1054.44 27.2059 L1061.9 27.2059 L1061.9 54.3874 Q1061.9 60.8284 1064.41 64.0691 Q1066.92 67.2693 1071.94 67.2693 Q1077.98 67.2693 1081.46 63.421 Q1084.99 59.5726 1084.99 52.9291 L1084.99 27.2059 L1092.44 27.2059 L1092.44 72.576 L1084.99 72.576 L1084.99 65.6084 Q1082.27 69.7404 1078.67 71.7658 Q1075.1 73.7508 1070.36 73.7508 Q1062.54 73.7508 1058.49 68.8897 Q1054.44 64.0286 1054.44 54.671 M1073.2 26.1121 L1073.2 26.1121 Z" fill="#000000" fill-rule="nonzero" fill-opacity="1" /><path clip-path="url(#clip950)" d="M1146.6 48.0275 L1146.6 51.6733 L1112.33 51.6733 Q1112.82 59.3701 1116.95 63.421 Q1121.12 67.4314 1128.53 67.4314 Q1132.83 67.4314 1136.84 66.3781 Q1140.89 65.3249 1144.86 63.2184 L1144.86 70.267 Q1140.85 71.9684 1136.64 72.8596 Q1132.42 73.7508 1128.09 73.7508 Q1117.23 73.7508 1110.87 67.4314 Q1104.55 61.1119 1104.55 50.3365 Q1104.55 39.1965 1110.55 32.6746 Q1116.58 26.1121 1126.79 26.1121 Q1135.95 26.1121 1141.25 32.0264 Q1146.6 37.9003 1146.6 48.0275 M1139.15 45.84 Q1139.07 39.7232 1135.7 36.0774 Q1132.38 32.4315 1126.87 32.4315 Q1120.63 32.4315 1116.87 35.9558 Q1113.14 39.4801 1112.57 45.8805 L1139.15 45.84 Z" fill="#000000" fill-rule="nonzero" fill-opacity="1" /><path clip-path="url(#clip950)" d="M1160.74 62.2867 L1169.29 62.2867 L1169.29 72.576 L1160.74 72.576 L1160.74 62.2867 M1160.74 29.6769 L1169.29 29.6769 L1169.29 39.9662 L1160.74 39.9662 L1160.74 29.6769 Z" fill="#000000" fill-rule="nonzero" fill-opacity="1" /><path clip-path="url(#clip950)" d="M1213.48 12.096 L1225.67 12.096 L1241.11 53.2532 L1256.62 12.096 L1268.82 12.096 L1268.82 72.576 L1260.84 72.576 L1260.84 19.4686 L1245.24 60.9499 L1237.02 60.9499 L1221.42 19.4686 L1221.42 72.576 L1213.48 72.576 L1213.48 12.096 Z" fill="#000000" fill-rule="nonzero" fill-opacity="1" /><path clip-path="url(#clip950)" d="M1300.66 72.576 L1277.57 12.096 L1286.11 12.096 L1305.27 63.0159 L1324.48 12.096 L1332.98 12.096 L1309.93 72.576 L1300.66 72.576 Z" fill="#000000" fill-rule="nonzero" fill-opacity="1" /><path clip-path="url(#clip950)" d="M1332.86 46.5287 L1354.7 46.5287 L1354.7 53.1722 L1332.86 53.1722 L1332.86 46.5287 Z" fill="#000000" fill-rule="nonzero" fill-opacity="1" /><path clip-path="url(#clip950)" d="M1366.89 12.096 L1379.08 12.096 L1394.52 53.2532 L1410.03 12.096 L1422.22 12.096 L1422.22 72.576 L1414.24 72.576 L1414.24 19.4686 L1398.65 60.9499 L1390.42 60.9499 L1374.83 19.4686 L1374.83 72.576 L1366.89 72.576 L1366.89 12.096 Z" fill="#000000" fill-rule="nonzero" fill-opacity="1" /><path clip-path="url(#clip950)" d="M1446.65 18.8205 L1446.65 41.5461 L1456.94 41.5461 Q1462.65 41.5461 1465.77 38.5889 Q1468.89 35.6318 1468.89 30.163 Q1468.89 24.7348 1465.77 21.7777 Q1462.65 18.8205 1456.94 18.8205 L1446.65 18.8205 M1438.47 12.096 L1456.94 12.096 Q1467.11 12.096 1472.29 16.714 Q1477.52 21.2916 1477.52 30.163 Q1477.52 39.1155 1472.29 43.6931 Q1467.11 48.2706 1456.94 48.2706 L1446.65 48.2706 L1446.65 72.576 L1438.47 72.576 L1438.47 12.096 Z" fill="#000000" fill-rule="nonzero" fill-opacity="1" /><path clip-path="url(#clip950)" d="M1533.79 16.7545 L1533.79 25.383 Q1529.65 21.5346 1524.95 19.6307 Q1520.3 17.7268 1515.03 17.7268 Q1504.66 17.7268 1499.15 24.0867 Q1493.64 30.4061 1493.64 42.3968 Q1493.64 54.3469 1499.15 60.7069 Q1504.66 67.0263 1515.03 67.0263 Q1520.3 67.0263 1524.95 65.1223 Q1529.65 63.2184 1533.79 59.3701 L1533.79 67.9175 Q1529.49 70.8341 1524.67 72.2924 Q1519.89 73.7508 1514.54 73.7508 Q1500.81 73.7508 1492.91 65.3654 Q1485.01 56.9395 1485.01 42.3968 Q1485.01 27.8135 1492.91 19.4281 Q1500.81 11.0023 1514.54 11.0023 Q1519.97 11.0023 1524.75 12.4606 Q1529.57 13.8784 1533.79 16.7545 Z" fill="#000000" fill-rule="nonzero" fill-opacity="1" /><path clip-path="url(#clip950)" d="M1571.7 54.671 L1571.7 27.2059 L1579.16 27.2059 L1579.16 54.3874 Q1579.16 60.8284 1581.67 64.0691 Q1584.18 67.2693 1589.2 67.2693 Q1595.24 67.2693 1598.72 63.421 Q1602.25 59.5726 1602.25 52.9291 L1602.25 27.2059 L1609.7 27.2059 L1609.7 72.576 L1602.25 72.576 L1602.25 65.6084 Q1599.53 69.7404 1595.93 71.7658 Q1592.36 73.7508 1587.62 73.7508 Q1579.8 73.7508 1575.75 68.8897 Q1571.7 64.0286 1571.7 54.671 M1590.46 26.1121 L1590.46 26.1121 Z" fill="#000000" fill-rule="nonzero" fill-opacity="1" /><path clip-path="url(#clip950)" d="M1653.98 28.5427 L1653.98 35.5912 Q1650.82 33.9709 1647.41 33.1607 Q1644.01 32.3505 1640.37 32.3505 Q1634.82 32.3505 1632.02 34.0519 Q1629.27 35.7533 1629.27 39.156 Q1629.27 41.7486 1631.25 43.2475 Q1633.24 44.7058 1639.23 46.0426 L1641.78 46.6097 Q1649.72 48.3111 1653.04 51.4303 Q1656.41 54.509 1656.41 60.0587 Q1656.41 66.3781 1651.38 70.0644 Q1646.4 73.7508 1637.65 73.7508 Q1634.01 73.7508 1630.04 73.0216 Q1626.11 72.3329 1621.73 70.9151 L1621.73 63.2184 Q1625.86 65.3654 1629.87 66.4591 Q1633.88 67.5124 1637.81 67.5124 Q1643.08 67.5124 1645.91 65.73 Q1648.75 63.9071 1648.75 60.6258 Q1648.75 57.5877 1646.68 55.9673 Q1644.66 54.3469 1637.73 52.8481 L1635.14 52.2405 Q1628.21 50.7821 1625.13 47.7845 Q1622.06 44.7463 1622.06 39.4801 Q1622.06 33.0797 1626.59 29.5959 Q1631.13 26.1121 1639.47 26.1121 Q1643.61 26.1121 1647.25 26.7198 Q1650.9 27.3274 1653.98 28.5427 Z" fill="#000000" fill-rule="nonzero" fill-opacity="1" /><path clip-path="url(#clip950)" d="M1668.28 27.2059 L1675.73 27.2059 L1675.73 72.576 L1668.28 72.576 L1668.28 27.2059 M1668.28 9.54393 L1675.73 9.54393 L1675.73 18.9825 L1668.28 18.9825 L1668.28 9.54393 Z" fill="#000000" fill-rule="nonzero" fill-opacity="1" /><path clip-path="url(#clip950)" d="M1729.04 45.1919 L1729.04 72.576 L1721.59 72.576 L1721.59 45.4349 Q1721.59 38.994 1719.07 35.7938 Q1716.56 32.5936 1711.54 32.5936 Q1705.5 32.5936 1702.02 36.4419 Q1698.54 40.2903 1698.54 46.9338 L1698.54 72.576 L1691.04 72.576 L1691.04 27.2059 L1698.54 27.2059 L1698.54 34.2544 Q1701.21 30.163 1704.82 28.1376 Q1708.46 26.1121 1713.2 26.1121 Q1721.02 26.1121 1725.03 30.9732 Q1729.04 35.7938 1729.04 45.1919 Z" fill="#000000" fill-rule="nonzero" fill-opacity="1" /><path clip-path="url(#clip950)" d="M1773.76 49.3643 Q1773.76 41.2625 1770.4 36.8065 Q1767.08 32.3505 1761.04 32.3505 Q1755.05 32.3505 1751.68 36.8065 Q1748.36 41.2625 1748.36 49.3643 Q1748.36 57.4256 1751.68 61.8816 Q1755.05 66.3376 1761.04 66.3376 Q1767.08 66.3376 1770.4 61.8816 Q1773.76 57.4256 1773.76 49.3643 M1781.22 66.9452 Q1781.22 78.5308 1776.07 84.1616 Q1770.93 89.8329 1760.31 89.8329 Q1756.38 89.8329 1752.9 89.2252 Q1749.42 88.6581 1746.13 87.4428 L1746.13 80.1917 Q1749.42 81.9741 1752.62 82.8248 Q1755.82 83.6755 1759.14 83.6755 Q1766.47 83.6755 1770.12 79.8271 Q1773.76 76.0193 1773.76 68.282 L1773.76 64.5957 Q1771.45 68.6061 1767.85 70.5911 Q1764.24 72.576 1759.22 72.576 Q1750.87 72.576 1745.77 66.2161 Q1740.67 59.8562 1740.67 49.3643 Q1740.67 38.832 1745.77 32.472 Q1750.87 26.1121 1759.22 26.1121 Q1764.24 26.1121 1767.85 28.0971 Q1771.45 30.082 1773.76 34.0924 L1773.76 27.2059 L1781.22 27.2059 L1781.22 66.9452 Z" fill="#000000" fill-rule="nonzero" fill-opacity="1" /><path clip-path="url(#clip950)" d="M1823.26 12.096 L1831.45 12.096 L1831.45 36.8875 L1861.18 36.8875 L1861.18 12.096 L1869.36 12.096 L1869.36 72.576 L1861.18 72.576 L1861.18 43.7741 L1831.45 43.7741 L1831.45 72.576 L1823.26 72.576 L1823.26 12.096 Z" fill="#000000" fill-rule="nonzero" fill-opacity="1" /><path clip-path="url(#clip950)" d="M1885.65 12.096 L1897.84 12.096 L1913.27 53.2532 L1928.79 12.096 L1940.98 12.096 L1940.98 72.576 L1933 72.576 L1933 19.4686 L1917.41 60.9499 L1909.18 60.9499 L1893.59 19.4686 L1893.59 72.576 L1885.65 72.576 L1885.65 12.096 Z" fill="#000000" fill-rule="nonzero" fill-opacity="1" /><path clip-path="url(#clip950)" d="M1957.23 12.096 L1969.42 12.096 L1984.85 53.2532 L2000.37 12.096 L2012.56 12.096 L2012.56 72.576 L2004.58 72.576 L2004.58 19.4686 L1988.99 60.9499 L1980.76 60.9499 L1965.17 19.4686 L1965.17 72.576 L1957.23 72.576 L1957.23 12.096 Z" fill="#000000" fill-rule="nonzero" fill-opacity="1" /><polyline clip-path="url(#clip952)" style="stroke:#009af9; stroke-linecap:round; stroke-linejoin:round; stroke-width:12; stroke-opacity:1; fill:none" points="317.242,1367.29 317.242,1367.29 322.872,1355.63 328.502,1386.4 334.133,1352.8 339.763,1349.11 356.654,1330.96 362.284,1330.35 367.914,1335.52 373.544,1349.16 379.175,1353.03 401.696,1299.29 407.326,1287.69 412.956,1267.08 418.587,1246.93 435.478,1204.77 441.108,1191.05 446.738,829.615 452.368,1015.19 457.999,979.127 474.889,959.376 480.52,1008.3 486.15,994.406 491.78,1023.82 497.411,1032.39 514.301,1012.69 519.932,1035.24 525.562,1008.65 531.192,995.722 536.823,1006.96 559.344,991.879 564.974,1009.9 570.604,1013.74 576.234,1005.05 593.125,1003.6 598.756,983.322 604.386,945.451 610.016,1002.01 615.646,990.318 632.537,964.657 638.168,986.409 643.798,1017.5 649.428,1046.27 655.058,1041.84 671.949,1057.24 677.579,997.683 683.21,1009.15 688.84,980.467 694.47,973.531 711.127,921.724 716.757,929.492 722.387,921.64 728.017,942.193 733.648,937.573 750.538,938.357 756.169,964.143 761.799,1006.38 767.429,979.923 773.06,975.445 789.95,969.32 795.581,972.563 801.211,954.546 806.841,947.883 829.362,922.536 834.993,933.588 840.623,927.545 846.253,921.811 851.883,924.252 868.774,906.424 874.405,886.032 880.035,891.523 885.665,852.697 891.295,869.097 908.186,883.125 913.817,895.839 919.447,881.133 925.077,896.211 930.707,878.566 947.598,851.866 953.228,855.679 958.859,867.462 964.489,874.715 970.119,888.58 987.01,899.729 992.64,922.957 998.271,922.357 1003.9,922.731 1009.53,903.682 1026.42,920.306 1032.05,913.658 1037.68,930.77 1043.31,899.549 1048.94,873.697 1065.83,865.777 1071.46,870.597 1077.09,883.624 1082.72,863.433 1088.36,854.682 1105.25,813.595 1110.88,783.417 1116.51,752.017 1122.14,708.786 1127.77,676.488 1150.29,644.785 1155.92,498.011 1161.55,525.052 1167.18,514.237 1184.07,492.437 1189.7,496.635 1195.33,515.529 1200.96,533.048 1206.59,499.057 1223.48,470.138 1229.11,471.33 1234.74,480.74 1240.37,440.717 1246,444.869 1262.89,460.361 1268.52,439.918 1274.15,434.98 1279.78,434.798 1285.41,446.732 1302.31,409.152 1307.94,412.266 1313.57,412.246 1319.2,412.983 1324.83,411.507 1347.35,411.697 1352.98,435.024 1358.61,437.488 1364.24,438.809 1381.13,437.47 1386.76,455.618 1392.39,489.763 1398.02,502.042 1403.65,529.488 1420.54,512.552 1426.17,481.755 1431.8,467.696 1437.43,475.182 1443.06,477.322 1459.95,471.469 1465.58,482.5 1471.21,470.566 1476.84,469.074 1482.47,478.001 1499.37,478.292 1505,483.32 1510.63,487.38 1516.26,460.27 1521.89,471.115 1538.78,468.01 1544.41,486.597 1550.04,494.031 1555.67,481.257 1561.3,471.848 1578.19,468.427 1583.82,475.894 1589.45,490.236 1595.08,479.664 1600.71,449.464 1617.6,410.316 1623.23,384.562 1628.86,374.667 1634.49,390.718 1640.12,374.728 1657.01,364.478 1662.64,358.619 1668.27,368.236 1673.9,366.988 1679.53,357.366 1702.06,348.927 1707.69,358.246 1713.32,358.708 1718.95,346.328 1735.84,349.677 1741.47,360.302 1747.1,359.089 1752.73,364.078 1758.36,378.606 1775.25,412.223 1780.88,414.229 1786.51,391.77 1792.14,378.763 1797.77,388.531 1814.66,401.699 1820.29,435.567 1825.92,446.301 1831.55,430.52 1837.18,428.033 1854.07,462.046 1859.7,441.235 1865.33,435.506 1870.96,420.404 1876.59,430.545 1893.48,433.893 1899.12,436.259 1904.75,424.822 1910.38,395.87 1916.01,390.477 1932.9,373.284 1938.53,379.378 1944.16,383.666 1949.79,375.106 1955.42,383.948 1972.31,372.33 1977.94,339.535 1983.57,351.028 1989.2,338.133 1994.83,323.942 2011.72,311.334 2017.35,292.437 2022.98,280.639 2028.61,220.271 2034.24,215.267 2051.37,184.552 2057,204.942 2062.63,233.212 2068.26,211.673 2073.89,209.637 2090.78,206.229 2096.41,203.341 2102.04,222.309 2107.67,184.499 2113.3,160.256 2130.19,176.17 2135.82,187.31 2141.45,172.532 2152.71,197.161 2169.6,168.34 2175.23,191.993 2180.86,237.893 2186.49,217.717 2192.12,248.998 2209.01,261.954 2214.65,208.788 2220.28,212.657 2225.91,250.056 2231.54,265.548 2248.43,328.023 2254.06,315.694 2259.69,274.915 2265.32,314.585 2270.95,297.549 2287.84,295.896 2293.47,266.795 "/>
<path clip-path="url(#clip950)" d="M327.782 270.476 L662.817 270.476 L662.817 166.796 L327.782 166.796  Z" fill="#ffffff" fill-rule="evenodd" fill-opacity="1"/>
<polyline clip-path="url(#clip950)" style="stroke:#000000; stroke-linecap:round; stroke-linejoin:round; stroke-width:4; stroke-opacity:1; fill:none" points="327.782,270.476 662.817,270.476 662.817,166.796 327.782,166.796 327.782,270.476 "/>
<polyline clip-path="url(#clip950)" style="stroke:#009af9; stroke-linecap:round; stroke-linejoin:round; stroke-width:12; stroke-opacity:1; fill:none" points="351.057,218.636 490.711,218.636 "/>
<path clip-path="url(#clip950)" d="M513.986 209.99 L518.5 209.99 L526.602 231.749 L534.704 209.99 L539.217 209.99 L529.495 235.916 L523.708 235.916 L513.986 209.99 Z" fill="#000000" fill-rule="nonzero" fill-opacity="1" /><path clip-path="url(#clip950)" d="M556.879 222.883 Q551.717 222.883 549.727 224.064 Q547.736 225.244 547.736 228.092 Q547.736 230.36 549.217 231.703 Q550.722 233.022 553.291 233.022 Q556.833 233.022 558.963 230.522 Q561.116 227.999 561.116 223.832 L561.116 222.883 L556.879 222.883 M565.375 221.124 L565.375 235.916 L561.116 235.916 L561.116 231.981 Q559.657 234.342 557.481 235.476 Q555.305 236.587 552.157 236.587 Q548.176 236.587 545.815 234.365 Q543.477 232.119 543.477 228.369 Q543.477 223.994 546.393 221.772 Q549.333 219.55 555.143 219.55 L561.116 219.55 L561.116 219.133 Q561.116 216.194 559.171 214.596 Q557.25 212.976 553.754 212.976 Q551.532 212.976 549.426 213.508 Q547.319 214.041 545.375 215.106 L545.375 211.17 Q547.713 210.268 549.912 209.828 Q552.111 209.365 554.194 209.365 Q559.819 209.365 562.597 212.282 Q565.375 215.198 565.375 221.124 Z" fill="#000000" fill-rule="nonzero" fill-opacity="1" /><path clip-path="url(#clip950)" d="M574.148 199.897 L578.407 199.897 L578.407 235.916 L574.148 235.916 L574.148 199.897 Z" fill="#000000" fill-rule="nonzero" fill-opacity="1" /><path clip-path="url(#clip950)" d="M586.879 225.684 L586.879 209.99 L591.138 209.99 L591.138 225.522 Q591.138 229.203 592.574 231.055 Q594.009 232.883 596.879 232.883 Q600.328 232.883 602.319 230.684 Q604.333 228.485 604.333 224.689 L604.333 209.99 L608.592 209.99 L608.592 235.916 L604.333 235.916 L604.333 231.934 Q602.782 234.295 600.722 235.453 Q598.685 236.587 595.976 236.587 Q591.509 236.587 589.194 233.809 Q586.879 231.031 586.879 225.684 M597.597 209.365 L597.597 209.365 Z" fill="#000000" fill-rule="nonzero" fill-opacity="1" /><path clip-path="url(#clip950)" d="M639.541 221.888 L639.541 223.971 L619.958 223.971 Q620.236 228.369 622.597 230.684 Q624.981 232.976 629.217 232.976 Q631.671 232.976 633.962 232.374 Q636.277 231.772 638.546 230.569 L638.546 234.596 Q636.254 235.568 633.847 236.078 Q631.439 236.587 628.962 236.587 Q622.759 236.587 619.124 232.976 Q615.513 229.365 615.513 223.207 Q615.513 216.842 618.939 213.115 Q622.388 209.365 628.222 209.365 Q633.453 209.365 636.485 212.745 Q639.541 216.101 639.541 221.888 M635.282 220.638 Q635.235 217.143 633.314 215.059 Q631.416 212.976 628.268 212.976 Q624.703 212.976 622.55 214.99 Q620.421 217.004 620.097 220.661 L635.282 220.638 Z" fill="#000000" fill-rule="nonzero" fill-opacity="1" /></svg>
