<?xml version="1.0" encoding="utf-8"?>
<svg xmlns="http://www.w3.org/2000/svg" xmlns:xlink="http://www.w3.org/1999/xlink" width="600" height="400" viewBox="0 0 2400 1600">
<defs>
  <clipPath id="clip750">
    <rect x="0" y="0" width="2400" height="1600"/>
  </clipPath>
</defs>
<path clip-path="url(#clip750)" d="M0 1600 L2400 1600 L2400 0 L0 0  Z" fill="#ffffff" fill-rule="evenodd" fill-opacity="1"/>
<defs>
  <clipPath id="clip751">
    <rect x="480" y="0" width="1681" height="1600"/>
  </clipPath>
</defs>
<path clip-path="url(#clip750)" d="M287.822 1423.18 L2352.76 1423.18 L2352.76 47.2441 L287.822 47.2441  Z" fill="#ffffff" fill-rule="evenodd" fill-opacity="1"/>
<defs>
  <clipPath id="clip752">
    <rect x="287" y="47" width="2066" height="1377"/>
  </clipPath>
</defs>
<polyline clip-path="url(#clip752)" style="stroke:#000000; stroke-linecap:round; stroke-linejoin:round; stroke-width:2; stroke-opacity:0.1; fill:none" points="343.644,1423.18 343.644,47.2441 "/>
<polyline clip-path="url(#clip752)" style="stroke:#000000; stroke-linecap:round; stroke-linejoin:round; stroke-width:2; stroke-opacity:0.1; fill:none" points="735.833,1423.18 735.833,47.2441 "/>
<polyline clip-path="url(#clip752)" style="stroke:#000000; stroke-linecap:round; stroke-linejoin:round; stroke-width:2; stroke-opacity:0.1; fill:none" points="1128.02,1423.18 1128.02,47.2441 "/>
<polyline clip-path="url(#clip752)" style="stroke:#000000; stroke-linecap:round; stroke-linejoin:round; stroke-width:2; stroke-opacity:0.1; fill:none" points="1520.21,1423.18 1520.21,47.2441 "/>
<polyline clip-path="url(#clip752)" style="stroke:#000000; stroke-linecap:round; stroke-linejoin:round; stroke-width:2; stroke-opacity:0.1; fill:none" points="1913.47,1423.18 1913.47,47.2441 "/>
<polyline clip-path="url(#clip752)" style="stroke:#000000; stroke-linecap:round; stroke-linejoin:round; stroke-width:2; stroke-opacity:0.1; fill:none" points="2305.66,1423.18 2305.66,47.2441 "/>
<polyline clip-path="url(#clip752)" style="stroke:#000000; stroke-linecap:round; stroke-linejoin:round; stroke-width:2; stroke-opacity:0.05; fill:none" points="422.082,1423.18 422.082,47.2441 "/>
<polyline clip-path="url(#clip752)" style="stroke:#000000; stroke-linecap:round; stroke-linejoin:round; stroke-width:2; stroke-opacity:0.05; fill:none" points="500.52,1423.18 500.52,47.2441 "/>
<polyline clip-path="url(#clip752)" style="stroke:#000000; stroke-linecap:round; stroke-linejoin:round; stroke-width:2; stroke-opacity:0.05; fill:none" points="578.958,1423.18 578.958,47.2441 "/>
<polyline clip-path="url(#clip752)" style="stroke:#000000; stroke-linecap:round; stroke-linejoin:round; stroke-width:2; stroke-opacity:0.05; fill:none" points="657.395,1423.18 657.395,47.2441 "/>
<polyline clip-path="url(#clip752)" style="stroke:#000000; stroke-linecap:round; stroke-linejoin:round; stroke-width:2; stroke-opacity:0.05; fill:none" points="814.271,1423.18 814.271,47.2441 "/>
<polyline clip-path="url(#clip752)" style="stroke:#000000; stroke-linecap:round; stroke-linejoin:round; stroke-width:2; stroke-opacity:0.05; fill:none" points="892.709,1423.18 892.709,47.2441 "/>
<polyline clip-path="url(#clip752)" style="stroke:#000000; stroke-linecap:round; stroke-linejoin:round; stroke-width:2; stroke-opacity:0.05; fill:none" points="971.147,1423.18 971.147,47.2441 "/>
<polyline clip-path="url(#clip752)" style="stroke:#000000; stroke-linecap:round; stroke-linejoin:round; stroke-width:2; stroke-opacity:0.05; fill:none" points="1049.58,1423.18 1049.58,47.2441 "/>
<polyline clip-path="url(#clip752)" style="stroke:#000000; stroke-linecap:round; stroke-linejoin:round; stroke-width:2; stroke-opacity:0.05; fill:none" points="1206.46,1423.18 1206.46,47.2441 "/>
<polyline clip-path="url(#clip752)" style="stroke:#000000; stroke-linecap:round; stroke-linejoin:round; stroke-width:2; stroke-opacity:0.05; fill:none" points="1284.9,1423.18 1284.9,47.2441 "/>
<polyline clip-path="url(#clip752)" style="stroke:#000000; stroke-linecap:round; stroke-linejoin:round; stroke-width:2; stroke-opacity:0.05; fill:none" points="1363.34,1423.18 1363.34,47.2441 "/>
<polyline clip-path="url(#clip752)" style="stroke:#000000; stroke-linecap:round; stroke-linejoin:round; stroke-width:2; stroke-opacity:0.05; fill:none" points="1441.77,1423.18 1441.77,47.2441 "/>
<polyline clip-path="url(#clip752)" style="stroke:#000000; stroke-linecap:round; stroke-linejoin:round; stroke-width:2; stroke-opacity:0.05; fill:none" points="1598.86,1423.18 1598.86,47.2441 "/>
<polyline clip-path="url(#clip752)" style="stroke:#000000; stroke-linecap:round; stroke-linejoin:round; stroke-width:2; stroke-opacity:0.05; fill:none" points="1677.52,1423.18 1677.52,47.2441 "/>
<polyline clip-path="url(#clip752)" style="stroke:#000000; stroke-linecap:round; stroke-linejoin:round; stroke-width:2; stroke-opacity:0.05; fill:none" points="1756.17,1423.18 1756.17,47.2441 "/>
<polyline clip-path="url(#clip752)" style="stroke:#000000; stroke-linecap:round; stroke-linejoin:round; stroke-width:2; stroke-opacity:0.05; fill:none" points="1834.82,1423.18 1834.82,47.2441 "/>
<polyline clip-path="url(#clip752)" style="stroke:#000000; stroke-linecap:round; stroke-linejoin:round; stroke-width:2; stroke-opacity:0.05; fill:none" points="1991.91,1423.18 1991.91,47.2441 "/>
<polyline clip-path="url(#clip752)" style="stroke:#000000; stroke-linecap:round; stroke-linejoin:round; stroke-width:2; stroke-opacity:0.05; fill:none" points="2070.35,1423.18 2070.35,47.2441 "/>
<polyline clip-path="url(#clip752)" style="stroke:#000000; stroke-linecap:round; stroke-linejoin:round; stroke-width:2; stroke-opacity:0.05; fill:none" points="2148.79,1423.18 2148.79,47.2441 "/>
<polyline clip-path="url(#clip752)" style="stroke:#000000; stroke-linecap:round; stroke-linejoin:round; stroke-width:2; stroke-opacity:0.05; fill:none" points="2227.23,1423.18 2227.23,47.2441 "/>
<polyline clip-path="url(#clip750)" style="stroke:#000000; stroke-linecap:round; stroke-linejoin:round; stroke-width:4; stroke-opacity:1; fill:none" points="287.822,1423.18 2352.76,1423.18 "/>
<polyline clip-path="url(#clip750)" style="stroke:#000000; stroke-linecap:round; stroke-linejoin:round; stroke-width:4; stroke-opacity:1; fill:none" points="343.644,1423.18 343.644,1404.28 "/>
<polyline clip-path="url(#clip750)" style="stroke:#000000; stroke-linecap:round; stroke-linejoin:round; stroke-width:4; stroke-opacity:1; fill:none" points="735.833,1423.18 735.833,1404.28 "/>
<polyline clip-path="url(#clip750)" style="stroke:#000000; stroke-linecap:round; stroke-linejoin:round; stroke-width:4; stroke-opacity:1; fill:none" points="1128.02,1423.18 1128.02,1404.28 "/>
<polyline clip-path="url(#clip750)" style="stroke:#000000; stroke-linecap:round; stroke-linejoin:round; stroke-width:4; stroke-opacity:1; fill:none" points="1520.21,1423.18 1520.21,1404.28 "/>
<polyline clip-path="url(#clip750)" style="stroke:#000000; stroke-linecap:round; stroke-linejoin:round; stroke-width:4; stroke-opacity:1; fill:none" points="1913.47,1423.18 1913.47,1404.28 "/>
<polyline clip-path="url(#clip750)" style="stroke:#000000; stroke-linecap:round; stroke-linejoin:round; stroke-width:4; stroke-opacity:1; fill:none" points="2305.66,1423.18 2305.66,1404.28 "/>
<polyline clip-path="url(#clip750)" style="stroke:#000000; stroke-linecap:round; stroke-linejoin:round; stroke-width:4; stroke-opacity:1; fill:none" points="422.082,1423.18 422.082,1413.73 "/>
<polyline clip-path="url(#clip750)" style="stroke:#000000; stroke-linecap:round; stroke-linejoin:round; stroke-width:4; stroke-opacity:1; fill:none" points="500.52,1423.18 500.52,1413.73 "/>
<polyline clip-path="url(#clip750)" style="stroke:#000000; stroke-linecap:round; stroke-linejoin:round; stroke-width:4; stroke-opacity:1; fill:none" points="578.958,1423.18 578.958,1413.73 "/>
<polyline clip-path="url(#clip750)" style="stroke:#000000; stroke-linecap:round; stroke-linejoin:round; stroke-width:4; stroke-opacity:1; fill:none" points="657.395,1423.18 657.395,1413.73 "/>
<polyline clip-path="url(#clip750)" style="stroke:#000000; stroke-linecap:round; stroke-linejoin:round; stroke-width:4; stroke-opacity:1; fill:none" points="814.271,1423.18 814.271,1413.73 "/>
<polyline clip-path="url(#clip750)" style="stroke:#000000; stroke-linecap:round; stroke-linejoin:round; stroke-width:4; stroke-opacity:1; fill:none" points="892.709,1423.18 892.709,1413.73 "/>
<polyline clip-path="url(#clip750)" style="stroke:#000000; stroke-linecap:round; stroke-linejoin:round; stroke-width:4; stroke-opacity:1; fill:none" points="971.147,1423.18 971.147,1413.73 "/>
<polyline clip-path="url(#clip750)" style="stroke:#000000; stroke-linecap:round; stroke-linejoin:round; stroke-width:4; stroke-opacity:1; fill:none" points="1049.58,1423.18 1049.58,1413.73 "/>
<polyline clip-path="url(#clip750)" style="stroke:#000000; stroke-linecap:round; stroke-linejoin:round; stroke-width:4; stroke-opacity:1; fill:none" points="1206.46,1423.18 1206.46,1413.73 "/>
<polyline clip-path="url(#clip750)" style="stroke:#000000; stroke-linecap:round; stroke-linejoin:round; stroke-width:4; stroke-opacity:1; fill:none" points="1284.9,1423.18 1284.9,1413.73 "/>
<polyline clip-path="url(#clip750)" style="stroke:#000000; stroke-linecap:round; stroke-linejoin:round; stroke-width:4; stroke-opacity:1; fill:none" points="1363.34,1423.18 1363.34,1413.73 "/>
<polyline clip-path="url(#clip750)" style="stroke:#000000; stroke-linecap:round; stroke-linejoin:round; stroke-width:4; stroke-opacity:1; fill:none" points="1441.77,1423.18 1441.77,1413.73 "/>
<polyline clip-path="url(#clip750)" style="stroke:#000000; stroke-linecap:round; stroke-linejoin:round; stroke-width:4; stroke-opacity:1; fill:none" points="1598.86,1423.18 1598.86,1413.73 "/>
<polyline clip-path="url(#clip750)" style="stroke:#000000; stroke-linecap:round; stroke-linejoin:round; stroke-width:4; stroke-opacity:1; fill:none" points="1677.52,1423.18 1677.52,1413.73 "/>
<polyline clip-path="url(#clip750)" style="stroke:#000000; stroke-linecap:round; stroke-linejoin:round; stroke-width:4; stroke-opacity:1; fill:none" points="1756.17,1423.18 1756.17,1413.73 "/>
<polyline clip-path="url(#clip750)" style="stroke:#000000; stroke-linecap:round; stroke-linejoin:round; stroke-width:4; stroke-opacity:1; fill:none" points="1834.82,1423.18 1834.82,1413.73 "/>
<polyline clip-path="url(#clip750)" style="stroke:#000000; stroke-linecap:round; stroke-linejoin:round; stroke-width:4; stroke-opacity:1; fill:none" points="1991.91,1423.18 1991.91,1413.73 "/>
<polyline clip-path="url(#clip750)" style="stroke:#000000; stroke-linecap:round; stroke-linejoin:round; stroke-width:4; stroke-opacity:1; fill:none" points="2070.35,1423.18 2070.35,1413.73 "/>
<polyline clip-path="url(#clip750)" style="stroke:#000000; stroke-linecap:round; stroke-linejoin:round; stroke-width:4; stroke-opacity:1; fill:none" points="2148.79,1423.18 2148.79,1413.73 "/>
<polyline clip-path="url(#clip750)" style="stroke:#000000; stroke-linecap:round; stroke-linejoin:round; stroke-width:4; stroke-opacity:1; fill:none" points="2227.23,1423.18 2227.23,1413.73 "/>
<path clip-path="url(#clip750)" d="M215.439 1481.64 L231.758 1481.64 L231.758 1485.58 L209.814 1485.58 L209.814 1481.64 Q212.476 1478.89 217.059 1474.26 Q221.666 1469.61 222.846 1468.27 Q225.091 1465.74 225.971 1464.01 Q226.874 1462.25 226.874 1460.56 Q226.874 1457.8 224.929 1456.07 Q223.008 1454.33 219.906 1454.33 Q217.707 1454.33 215.254 1455.09 Q212.823 1455.86 210.045 1457.41 L210.045 1452.69 Q212.869 1451.55 215.323 1450.97 Q217.777 1450.39 219.814 1450.39 Q225.184 1450.39 228.379 1453.08 Q231.573 1455.77 231.573 1460.26 Q231.573 1462.39 230.763 1464.31 Q229.976 1466.2 227.869 1468.8 Q227.291 1469.47 224.189 1472.69 Q221.087 1475.88 215.439 1481.64 Z" fill="#000000" fill-rule="nonzero" fill-opacity="1" /><path clip-path="url(#clip750)" d="M251.573 1454.1 Q247.962 1454.1 246.133 1457.66 Q244.327 1461.2 244.327 1468.33 Q244.327 1475.44 246.133 1479.01 Q247.962 1482.55 251.573 1482.55 Q255.207 1482.55 257.013 1479.01 Q258.841 1475.44 258.841 1468.33 Q258.841 1461.2 257.013 1457.66 Q255.207 1454.1 251.573 1454.1 M251.573 1450.39 Q257.383 1450.39 260.439 1455 Q263.517 1459.58 263.517 1468.33 Q263.517 1477.06 260.439 1481.67 Q257.383 1486.25 251.573 1486.25 Q245.763 1486.25 242.684 1481.67 Q239.628 1477.06 239.628 1468.33 Q239.628 1459.58 242.684 1455 Q245.763 1450.39 251.573 1450.39 Z" fill="#000000" fill-rule="nonzero" fill-opacity="1" /><path clip-path="url(#clip750)" d="M272.545 1481.64 L280.184 1481.64 L280.184 1455.28 L271.874 1456.95 L271.874 1452.69 L280.137 1451.02 L284.813 1451.02 L284.813 1481.64 L292.452 1481.64 L292.452 1485.58 L272.545 1485.58 L272.545 1481.64 Z" fill="#000000" fill-rule="nonzero" fill-opacity="1" /><path clip-path="url(#clip750)" d="M300.716 1451.02 L322.938 1451.02 L322.938 1453.01 L310.392 1485.58 L305.508 1485.58 L317.313 1454.96 L300.716 1454.96 L300.716 1451.02 Z" fill="#000000" fill-rule="nonzero" fill-opacity="1" /><path clip-path="url(#clip750)" d="M329.304 1470.7 L341.781 1470.7 L341.781 1474.49 L329.304 1474.49 L329.304 1470.7 Z" fill="#000000" fill-rule="nonzero" fill-opacity="1" /><path clip-path="url(#clip750)" d="M359.165 1454.1 Q355.554 1454.1 353.725 1457.66 Q351.92 1461.2 351.92 1468.33 Q351.92 1475.44 353.725 1479.01 Q355.554 1482.55 359.165 1482.55 Q362.799 1482.55 364.605 1479.01 Q366.433 1475.44 366.433 1468.33 Q366.433 1461.2 364.605 1457.66 Q362.799 1454.1 359.165 1454.1 M359.165 1450.39 Q364.975 1450.39 368.031 1455 Q371.109 1459.58 371.109 1468.33 Q371.109 1477.06 368.031 1481.67 Q364.975 1486.25 359.165 1486.25 Q353.355 1486.25 350.276 1481.67 Q347.22 1477.06 347.22 1468.33 Q347.22 1459.58 350.276 1455 Q353.355 1450.39 359.165 1450.39 Z" fill="#000000" fill-rule="nonzero" fill-opacity="1" /><path clip-path="url(#clip750)" d="M380.137 1481.64 L387.776 1481.64 L387.776 1455.28 L379.466 1456.95 L379.466 1452.69 L387.73 1451.02 L392.405 1451.02 L392.405 1481.64 L400.044 1481.64 L400.044 1485.58 L380.137 1485.58 L380.137 1481.64 Z" fill="#000000" fill-rule="nonzero" fill-opacity="1" /><path clip-path="url(#clip750)" d="M406.734 1470.7 L419.211 1470.7 L419.211 1474.49 L406.734 1474.49 L406.734 1470.7 Z" fill="#000000" fill-rule="nonzero" fill-opacity="1" /><path clip-path="url(#clip750)" d="M436.595 1454.1 Q432.984 1454.1 431.155 1457.66 Q429.35 1461.2 429.35 1468.33 Q429.35 1475.44 431.155 1479.01 Q432.984 1482.55 436.595 1482.55 Q440.229 1482.55 442.035 1479.01 Q443.863 1475.44 443.863 1468.33 Q443.863 1461.2 442.035 1457.66 Q440.229 1454.1 436.595 1454.1 M436.595 1450.39 Q442.405 1450.39 445.461 1455 Q448.539 1459.58 448.539 1468.33 Q448.539 1477.06 445.461 1481.67 Q442.405 1486.25 436.595 1486.25 Q430.785 1486.25 427.706 1481.67 Q424.651 1477.06 424.651 1468.33 Q424.651 1459.58 427.706 1455 Q430.785 1450.39 436.595 1450.39 Z" fill="#000000" fill-rule="nonzero" fill-opacity="1" /><path clip-path="url(#clip750)" d="M457.567 1481.64 L465.206 1481.64 L465.206 1455.28 L456.896 1456.95 L456.896 1452.69 L465.16 1451.02 L469.836 1451.02 L469.836 1481.64 L477.474 1481.64 L477.474 1485.58 L457.567 1485.58 L457.567 1481.64 Z" fill="#000000" fill-rule="nonzero" fill-opacity="1" /><path clip-path="url(#clip750)" d="M607.628 1481.64 L623.947 1481.64 L623.947 1485.58 L602.003 1485.58 L602.003 1481.64 Q604.665 1478.89 609.248 1474.26 Q613.855 1469.61 615.035 1468.27 Q617.281 1465.74 618.16 1464.01 Q619.063 1462.25 619.063 1460.56 Q619.063 1457.8 617.118 1456.07 Q615.197 1454.33 612.095 1454.33 Q609.896 1454.33 607.443 1455.09 Q605.012 1455.86 602.234 1457.41 L602.234 1452.69 Q605.058 1451.55 607.512 1450.97 Q609.966 1450.39 612.003 1450.39 Q617.373 1450.39 620.568 1453.08 Q623.762 1455.77 623.762 1460.26 Q623.762 1462.39 622.952 1464.31 Q622.165 1466.2 620.058 1468.8 Q619.48 1469.47 616.378 1472.69 Q613.276 1475.88 607.628 1481.64 Z" fill="#000000" fill-rule="nonzero" fill-opacity="1" /><path clip-path="url(#clip750)" d="M643.762 1454.1 Q640.151 1454.1 638.322 1457.66 Q636.517 1461.2 636.517 1468.33 Q636.517 1475.44 638.322 1479.01 Q640.151 1482.55 643.762 1482.55 Q647.396 1482.55 649.202 1479.01 Q651.03 1475.44 651.03 1468.33 Q651.03 1461.2 649.202 1457.66 Q647.396 1454.1 643.762 1454.1 M643.762 1450.39 Q649.572 1450.39 652.628 1455 Q655.706 1459.58 655.706 1468.33 Q655.706 1477.06 652.628 1481.67 Q649.572 1486.25 643.762 1486.25 Q637.952 1486.25 634.873 1481.67 Q631.817 1477.06 631.817 1468.33 Q631.817 1459.58 634.873 1455 Q637.952 1450.39 643.762 1450.39 Z" fill="#000000" fill-rule="nonzero" fill-opacity="1" /><path clip-path="url(#clip750)" d="M664.734 1481.64 L672.373 1481.64 L672.373 1455.28 L664.063 1456.95 L664.063 1452.69 L672.327 1451.02 L677.002 1451.02 L677.002 1481.64 L684.641 1481.64 L684.641 1485.58 L664.734 1485.58 L664.734 1481.64 Z" fill="#000000" fill-rule="nonzero" fill-opacity="1" /><path clip-path="url(#clip750)" d="M704.086 1469.17 Q700.752 1469.17 698.831 1470.95 Q696.933 1472.73 696.933 1475.86 Q696.933 1478.98 698.831 1480.77 Q700.752 1482.55 704.086 1482.55 Q707.419 1482.55 709.34 1480.77 Q711.261 1478.96 711.261 1475.86 Q711.261 1472.73 709.34 1470.95 Q707.442 1469.17 704.086 1469.17 M699.41 1467.18 Q696.4 1466.44 694.711 1464.38 Q693.044 1462.32 693.044 1459.35 Q693.044 1455.21 695.984 1452.8 Q698.947 1450.39 704.086 1450.39 Q709.248 1450.39 712.187 1452.8 Q715.127 1455.21 715.127 1459.35 Q715.127 1462.32 713.437 1464.38 Q711.771 1466.44 708.785 1467.18 Q712.164 1467.96 714.039 1470.26 Q715.937 1472.55 715.937 1475.86 Q715.937 1480.88 712.859 1483.57 Q709.803 1486.25 704.086 1486.25 Q698.368 1486.25 695.289 1483.57 Q692.234 1480.88 692.234 1475.86 Q692.234 1472.55 694.132 1470.26 Q696.03 1467.96 699.41 1467.18 M697.697 1459.79 Q697.697 1462.48 699.363 1463.98 Q701.053 1465.49 704.086 1465.49 Q707.095 1465.49 708.785 1463.98 Q710.498 1462.48 710.498 1459.79 Q710.498 1457.11 708.785 1455.6 Q707.095 1454.1 704.086 1454.1 Q701.053 1454.1 699.363 1455.6 Q697.697 1457.11 697.697 1459.79 Z" fill="#000000" fill-rule="nonzero" fill-opacity="1" /><path clip-path="url(#clip750)" d="M721.493 1470.7 L733.97 1470.7 L733.97 1474.49 L721.493 1474.49 L721.493 1470.7 Z" fill="#000000" fill-rule="nonzero" fill-opacity="1" /><path clip-path="url(#clip750)" d="M751.354 1454.1 Q747.743 1454.1 745.914 1457.66 Q744.109 1461.2 744.109 1468.33 Q744.109 1475.44 745.914 1479.01 Q747.743 1482.55 751.354 1482.55 Q754.988 1482.55 756.794 1479.01 Q758.622 1475.44 758.622 1468.33 Q758.622 1461.2 756.794 1457.66 Q754.988 1454.1 751.354 1454.1 M751.354 1450.39 Q757.164 1450.39 760.22 1455 Q763.298 1459.58 763.298 1468.33 Q763.298 1477.06 760.22 1481.67 Q757.164 1486.25 751.354 1486.25 Q745.544 1486.25 742.465 1481.67 Q739.409 1477.06 739.409 1468.33 Q739.409 1459.58 742.465 1455 Q745.544 1450.39 751.354 1450.39 Z" fill="#000000" fill-rule="nonzero" fill-opacity="1" /><path clip-path="url(#clip750)" d="M772.326 1481.64 L779.965 1481.64 L779.965 1455.28 L771.655 1456.95 L771.655 1452.69 L779.919 1451.02 L784.594 1451.02 L784.594 1481.64 L792.233 1481.64 L792.233 1485.58 L772.326 1485.58 L772.326 1481.64 Z" fill="#000000" fill-rule="nonzero" fill-opacity="1" /><path clip-path="url(#clip750)" d="M798.923 1470.7 L811.4 1470.7 L811.4 1474.49 L798.923 1474.49 L798.923 1470.7 Z" fill="#000000" fill-rule="nonzero" fill-opacity="1" /><path clip-path="url(#clip750)" d="M828.784 1454.1 Q825.173 1454.1 823.344 1457.66 Q821.539 1461.2 821.539 1468.33 Q821.539 1475.44 823.344 1479.01 Q825.173 1482.55 828.784 1482.55 Q832.418 1482.55 834.224 1479.01 Q836.052 1475.44 836.052 1468.33 Q836.052 1461.2 834.224 1457.66 Q832.418 1454.1 828.784 1454.1 M828.784 1450.39 Q834.594 1450.39 837.65 1455 Q840.728 1459.58 840.728 1468.33 Q840.728 1477.06 837.65 1481.67 Q834.594 1486.25 828.784 1486.25 Q822.974 1486.25 819.895 1481.67 Q816.84 1477.06 816.84 1468.33 Q816.84 1459.58 819.895 1455 Q822.974 1450.39 828.784 1450.39 Z" fill="#000000" fill-rule="nonzero" fill-opacity="1" /><path clip-path="url(#clip750)" d="M849.756 1481.64 L857.395 1481.64 L857.395 1455.28 L849.085 1456.95 L849.085 1452.69 L857.349 1451.02 L862.025 1451.02 L862.025 1481.64 L869.663 1481.64 L869.663 1485.58 L849.756 1485.58 L849.756 1481.64 Z" fill="#000000" fill-rule="nonzero" fill-opacity="1" /><path clip-path="url(#clip750)" d="M999.817 1481.64 L1016.14 1481.64 L1016.14 1485.58 L994.192 1485.58 L994.192 1481.64 Q996.854 1478.89 1001.44 1474.26 Q1006.04 1469.61 1007.22 1468.27 Q1009.47 1465.74 1010.35 1464.01 Q1011.25 1462.25 1011.25 1460.56 Q1011.25 1457.8 1009.31 1456.07 Q1007.39 1454.33 1004.28 1454.33 Q1002.09 1454.33 999.632 1455.09 Q997.201 1455.86 994.423 1457.41 L994.423 1452.69 Q997.247 1451.55 999.701 1450.97 Q1002.15 1450.39 1004.19 1450.39 Q1009.56 1450.39 1012.76 1453.08 Q1015.95 1455.77 1015.95 1460.26 Q1015.95 1462.39 1015.14 1464.31 Q1014.35 1466.2 1012.25 1468.8 Q1011.67 1469.47 1008.57 1472.69 Q1005.46 1475.88 999.817 1481.64 Z" fill="#000000" fill-rule="nonzero" fill-opacity="1" /><path clip-path="url(#clip750)" d="M1035.95 1454.1 Q1032.34 1454.1 1030.51 1457.66 Q1028.71 1461.2 1028.71 1468.33 Q1028.71 1475.44 1030.51 1479.01 Q1032.34 1482.55 1035.95 1482.55 Q1039.59 1482.55 1041.39 1479.01 Q1043.22 1475.44 1043.22 1468.33 Q1043.22 1461.2 1041.39 1457.66 Q1039.59 1454.1 1035.95 1454.1 M1035.95 1450.39 Q1041.76 1450.39 1044.82 1455 Q1047.9 1459.58 1047.9 1468.33 Q1047.9 1477.06 1044.82 1481.67 Q1041.76 1486.25 1035.95 1486.25 Q1030.14 1486.25 1027.06 1481.67 Q1024.01 1477.06 1024.01 1468.33 Q1024.01 1459.58 1027.06 1455 Q1030.14 1450.39 1035.95 1450.39 Z" fill="#000000" fill-rule="nonzero" fill-opacity="1" /><path clip-path="url(#clip750)" d="M1056.92 1481.64 L1064.56 1481.64 L1064.56 1455.28 L1056.25 1456.95 L1056.25 1452.69 L1064.52 1451.02 L1069.19 1451.02 L1069.19 1481.64 L1076.83 1481.64 L1076.83 1485.58 L1056.92 1485.58 L1056.92 1481.64 Z" fill="#000000" fill-rule="nonzero" fill-opacity="1" /><path clip-path="url(#clip750)" d="M1086.41 1484.86 L1086.41 1480.6 Q1088.17 1481.44 1089.98 1481.88 Q1091.78 1482.32 1093.52 1482.32 Q1098.15 1482.32 1100.58 1479.21 Q1103.03 1476.09 1103.38 1469.75 Q1102.04 1471.74 1099.98 1472.8 Q1097.92 1473.87 1095.42 1473.87 Q1090.23 1473.87 1087.2 1470.74 Q1084.19 1467.59 1084.19 1462.15 Q1084.19 1456.83 1087.34 1453.61 Q1090.49 1450.39 1095.72 1450.39 Q1101.71 1450.39 1104.86 1455 Q1108.03 1459.58 1108.03 1468.33 Q1108.03 1476.51 1104.14 1481.39 Q1100.28 1486.25 1093.73 1486.25 Q1091.97 1486.25 1090.16 1485.9 Q1088.36 1485.56 1086.41 1484.86 M1095.72 1470.21 Q1098.87 1470.21 1100.7 1468.06 Q1102.55 1465.9 1102.55 1462.15 Q1102.55 1458.43 1100.7 1456.27 Q1098.87 1454.1 1095.72 1454.1 Q1092.57 1454.1 1090.72 1456.27 Q1088.89 1458.43 1088.89 1462.15 Q1088.89 1465.9 1090.72 1468.06 Q1092.57 1470.21 1095.72 1470.21 Z" fill="#000000" fill-rule="nonzero" fill-opacity="1" /><path clip-path="url(#clip750)" d="M1113.68 1470.7 L1126.16 1470.7 L1126.16 1474.49 L1113.68 1474.49 L1113.68 1470.7 Z" fill="#000000" fill-rule="nonzero" fill-opacity="1" /><path clip-path="url(#clip750)" d="M1143.54 1454.1 Q1139.93 1454.1 1138.1 1457.66 Q1136.3 1461.2 1136.3 1468.33 Q1136.3 1475.44 1138.1 1479.01 Q1139.93 1482.55 1143.54 1482.55 Q1147.18 1482.55 1148.98 1479.01 Q1150.81 1475.44 1150.81 1468.33 Q1150.81 1461.2 1148.98 1457.66 Q1147.18 1454.1 1143.54 1454.1 M1143.54 1450.39 Q1149.35 1450.39 1152.41 1455 Q1155.49 1459.58 1155.49 1468.33 Q1155.49 1477.06 1152.41 1481.67 Q1149.35 1486.25 1143.54 1486.25 Q1137.73 1486.25 1134.65 1481.67 Q1131.6 1477.06 1131.6 1468.33 Q1131.6 1459.58 1134.65 1455 Q1137.73 1450.39 1143.54 1450.39 Z" fill="#000000" fill-rule="nonzero" fill-opacity="1" /><path clip-path="url(#clip750)" d="M1164.51 1481.64 L1172.15 1481.64 L1172.15 1455.28 L1163.84 1456.95 L1163.84 1452.69 L1172.11 1451.02 L1176.78 1451.02 L1176.78 1481.64 L1184.42 1481.64 L1184.42 1485.58 L1164.51 1485.58 L1164.51 1481.64 Z" fill="#000000" fill-rule="nonzero" fill-opacity="1" /><path clip-path="url(#clip750)" d="M1191.11 1470.7 L1203.59 1470.7 L1203.59 1474.49 L1191.11 1474.49 L1191.11 1470.7 Z" fill="#000000" fill-rule="nonzero" fill-opacity="1" /><path clip-path="url(#clip750)" d="M1220.97 1454.1 Q1217.36 1454.1 1215.53 1457.66 Q1213.73 1461.2 1213.73 1468.33 Q1213.73 1475.44 1215.53 1479.01 Q1217.36 1482.55 1220.97 1482.55 Q1224.61 1482.55 1226.41 1479.01 Q1228.24 1475.44 1228.24 1468.33 Q1228.24 1461.2 1226.41 1457.66 Q1224.61 1454.1 1220.97 1454.1 M1220.97 1450.39 Q1226.78 1450.39 1229.84 1455 Q1232.92 1459.58 1232.92 1468.33 Q1232.92 1477.06 1229.84 1481.67 Q1226.78 1486.25 1220.97 1486.25 Q1215.16 1486.25 1212.08 1481.67 Q1209.03 1477.06 1209.03 1468.33 Q1209.03 1459.58 1212.08 1455 Q1215.16 1450.39 1220.97 1450.39 Z" fill="#000000" fill-rule="nonzero" fill-opacity="1" /><path clip-path="url(#clip750)" d="M1241.95 1481.64 L1249.58 1481.64 L1249.58 1455.28 L1241.27 1456.95 L1241.27 1452.69 L1249.54 1451.02 L1254.21 1451.02 L1254.21 1481.64 L1261.85 1481.64 L1261.85 1485.58 L1241.95 1485.58 L1241.95 1481.64 Z" fill="#000000" fill-rule="nonzero" fill-opacity="1" /><path clip-path="url(#clip750)" d="M1392.01 1481.64 L1408.33 1481.64 L1408.33 1485.58 L1386.38 1485.58 L1386.38 1481.64 Q1389.04 1478.89 1393.63 1474.26 Q1398.23 1469.61 1399.41 1468.27 Q1401.66 1465.74 1402.54 1464.01 Q1403.44 1462.25 1403.44 1460.56 Q1403.44 1457.8 1401.5 1456.07 Q1399.58 1454.33 1396.47 1454.33 Q1394.27 1454.33 1391.82 1455.09 Q1389.39 1455.86 1386.61 1457.41 L1386.61 1452.69 Q1389.44 1451.55 1391.89 1450.97 Q1394.34 1450.39 1396.38 1450.39 Q1401.75 1450.39 1404.95 1453.08 Q1408.14 1455.77 1408.14 1460.26 Q1408.14 1462.39 1407.33 1464.31 Q1406.54 1466.2 1404.44 1468.8 Q1403.86 1469.47 1400.76 1472.69 Q1397.65 1475.88 1392.01 1481.64 Z" fill="#000000" fill-rule="nonzero" fill-opacity="1" /><path clip-path="url(#clip750)" d="M1428.14 1454.1 Q1424.53 1454.1 1422.7 1457.66 Q1420.89 1461.2 1420.89 1468.33 Q1420.89 1475.44 1422.7 1479.01 Q1424.53 1482.55 1428.14 1482.55 Q1431.77 1482.55 1433.58 1479.01 Q1435.41 1475.44 1435.41 1468.33 Q1435.41 1461.2 1433.58 1457.66 Q1431.77 1454.1 1428.14 1454.1 M1428.14 1450.39 Q1433.95 1450.39 1437.01 1455 Q1440.08 1459.58 1440.08 1468.33 Q1440.08 1477.06 1437.01 1481.67 Q1433.95 1486.25 1428.14 1486.25 Q1422.33 1486.25 1419.25 1481.67 Q1416.2 1477.06 1416.2 1468.33 Q1416.2 1459.58 1419.25 1455 Q1422.33 1450.39 1428.14 1450.39 Z" fill="#000000" fill-rule="nonzero" fill-opacity="1" /><path clip-path="url(#clip750)" d="M1452.33 1481.64 L1468.65 1481.64 L1468.65 1485.58 L1446.7 1485.58 L1446.7 1481.64 Q1449.37 1478.89 1453.95 1474.26 Q1458.56 1469.61 1459.74 1468.27 Q1461.98 1465.74 1462.86 1464.01 Q1463.76 1462.25 1463.76 1460.56 Q1463.76 1457.8 1461.82 1456.07 Q1459.9 1454.33 1456.8 1454.33 Q1454.6 1454.33 1452.14 1455.09 Q1449.71 1455.86 1446.94 1457.41 L1446.94 1452.69 Q1449.76 1451.55 1452.21 1450.97 Q1454.67 1450.39 1456.7 1450.39 Q1462.07 1450.39 1465.27 1453.08 Q1468.46 1455.77 1468.46 1460.26 Q1468.46 1462.39 1467.65 1464.31 Q1466.87 1466.2 1464.76 1468.8 Q1464.18 1469.47 1461.08 1472.69 Q1457.98 1475.88 1452.33 1481.64 Z" fill="#000000" fill-rule="nonzero" fill-opacity="1" /><path clip-path="url(#clip750)" d="M1488.46 1454.1 Q1484.85 1454.1 1483.02 1457.66 Q1481.22 1461.2 1481.22 1468.33 Q1481.22 1475.44 1483.02 1479.01 Q1484.85 1482.55 1488.46 1482.55 Q1492.1 1482.55 1493.9 1479.01 Q1495.73 1475.44 1495.73 1468.33 Q1495.73 1461.2 1493.9 1457.66 Q1492.1 1454.1 1488.46 1454.1 M1488.46 1450.39 Q1494.27 1450.39 1497.33 1455 Q1500.41 1459.58 1500.41 1468.33 Q1500.41 1477.06 1497.33 1481.67 Q1494.27 1486.25 1488.46 1486.25 Q1482.65 1486.25 1479.57 1481.67 Q1476.52 1477.06 1476.52 1468.33 Q1476.52 1459.58 1479.57 1455 Q1482.65 1450.39 1488.46 1450.39 Z" fill="#000000" fill-rule="nonzero" fill-opacity="1" /><path clip-path="url(#clip750)" d="M1505.87 1470.7 L1518.35 1470.7 L1518.35 1474.49 L1505.87 1474.49 L1505.87 1470.7 Z" fill="#000000" fill-rule="nonzero" fill-opacity="1" /><path clip-path="url(#clip750)" d="M1535.73 1454.1 Q1532.12 1454.1 1530.29 1457.66 Q1528.49 1461.2 1528.49 1468.33 Q1528.49 1475.44 1530.29 1479.01 Q1532.12 1482.55 1535.73 1482.55 Q1539.37 1482.55 1541.17 1479.01 Q1543 1475.44 1543 1468.33 Q1543 1461.2 1541.17 1457.66 Q1539.37 1454.1 1535.73 1454.1 M1535.73 1450.39 Q1541.54 1450.39 1544.6 1455 Q1547.68 1459.58 1547.68 1468.33 Q1547.68 1477.06 1544.6 1481.67 Q1541.54 1486.25 1535.73 1486.25 Q1529.92 1486.25 1526.84 1481.67 Q1523.79 1477.06 1523.79 1468.33 Q1523.79 1459.58 1526.84 1455 Q1529.92 1450.39 1535.73 1450.39 Z" fill="#000000" fill-rule="nonzero" fill-opacity="1" /><path clip-path="url(#clip750)" d="M1556.7 1481.64 L1564.34 1481.64 L1564.34 1455.28 L1556.03 1456.95 L1556.03 1452.69 L1564.3 1451.02 L1568.97 1451.02 L1568.97 1481.64 L1576.61 1481.64 L1576.61 1485.58 L1556.7 1485.58 L1556.7 1481.64 Z" fill="#000000" fill-rule="nonzero" fill-opacity="1" /><path clip-path="url(#clip750)" d="M1583.3 1470.7 L1595.78 1470.7 L1595.78 1474.49 L1583.3 1474.49 L1583.3 1470.7 Z" fill="#000000" fill-rule="nonzero" fill-opacity="1" /><path clip-path="url(#clip750)" d="M1613.16 1454.1 Q1609.55 1454.1 1607.72 1457.66 Q1605.92 1461.2 1605.92 1468.33 Q1605.92 1475.44 1607.72 1479.01 Q1609.55 1482.55 1613.16 1482.55 Q1616.8 1482.55 1618.6 1479.01 Q1620.43 1475.44 1620.43 1468.33 Q1620.43 1461.2 1618.6 1457.66 Q1616.8 1454.1 1613.16 1454.1 M1613.16 1450.39 Q1618.97 1450.39 1622.03 1455 Q1625.11 1459.58 1625.11 1468.33 Q1625.11 1477.06 1622.03 1481.67 Q1618.97 1486.25 1613.16 1486.25 Q1607.35 1486.25 1604.27 1481.67 Q1601.22 1477.06 1601.22 1468.33 Q1601.22 1459.58 1604.27 1455 Q1607.35 1450.39 1613.16 1450.39 Z" fill="#000000" fill-rule="nonzero" fill-opacity="1" /><path clip-path="url(#clip750)" d="M1634.13 1481.64 L1641.77 1481.64 L1641.77 1455.28 L1633.46 1456.95 L1633.46 1452.69 L1641.73 1451.02 L1646.4 1451.02 L1646.4 1481.64 L1654.04 1481.64 L1654.04 1485.58 L1634.13 1485.58 L1634.13 1481.64 Z" fill="#000000" fill-rule="nonzero" fill-opacity="1" /><path clip-path="url(#clip750)" d="M1785.27 1481.64 L1801.59 1481.64 L1801.59 1485.58 L1779.64 1485.58 L1779.64 1481.64 Q1782.31 1478.89 1786.89 1474.26 Q1791.5 1469.61 1792.68 1468.27 Q1794.92 1465.74 1795.8 1464.01 Q1796.7 1462.25 1796.7 1460.56 Q1796.7 1457.8 1794.76 1456.07 Q1792.84 1454.33 1789.74 1454.33 Q1787.54 1454.33 1785.08 1455.09 Q1782.65 1455.86 1779.88 1457.41 L1779.88 1452.69 Q1782.7 1451.55 1785.15 1450.97 Q1787.61 1450.39 1789.64 1450.39 Q1795.01 1450.39 1798.21 1453.08 Q1801.4 1455.77 1801.4 1460.26 Q1801.4 1462.39 1800.59 1464.31 Q1799.81 1466.2 1797.7 1468.8 Q1797.12 1469.47 1794.02 1472.69 Q1790.92 1475.88 1785.27 1481.64 Z" fill="#000000" fill-rule="nonzero" fill-opacity="1" /><path clip-path="url(#clip750)" d="M1821.4 1454.1 Q1817.79 1454.1 1815.96 1457.66 Q1814.16 1461.2 1814.16 1468.33 Q1814.16 1475.44 1815.96 1479.01 Q1817.79 1482.55 1821.4 1482.55 Q1825.04 1482.55 1826.84 1479.01 Q1828.67 1475.44 1828.67 1468.33 Q1828.67 1461.2 1826.84 1457.66 Q1825.04 1454.1 1821.4 1454.1 M1821.4 1450.39 Q1827.21 1450.39 1830.27 1455 Q1833.35 1459.58 1833.35 1468.33 Q1833.35 1477.06 1830.27 1481.67 Q1827.21 1486.25 1821.4 1486.25 Q1815.59 1486.25 1812.51 1481.67 Q1809.46 1477.06 1809.46 1468.33 Q1809.46 1459.58 1812.51 1455 Q1815.59 1450.39 1821.4 1450.39 Z" fill="#000000" fill-rule="nonzero" fill-opacity="1" /><path clip-path="url(#clip750)" d="M1845.59 1481.64 L1861.91 1481.64 L1861.91 1485.58 L1839.97 1485.58 L1839.97 1481.64 Q1842.63 1478.89 1847.21 1474.26 Q1851.82 1469.61 1853 1468.27 Q1855.25 1465.74 1856.13 1464.01 Q1857.03 1462.25 1857.03 1460.56 Q1857.03 1457.8 1855.08 1456.07 Q1853.16 1454.33 1850.06 1454.33 Q1847.86 1454.33 1845.41 1455.09 Q1842.98 1455.86 1840.2 1457.41 L1840.2 1452.69 Q1843.02 1451.55 1845.48 1450.97 Q1847.93 1450.39 1849.97 1450.39 Q1855.34 1450.39 1858.53 1453.08 Q1861.73 1455.77 1861.73 1460.26 Q1861.73 1462.39 1860.92 1464.31 Q1860.13 1466.2 1858.02 1468.8 Q1857.44 1469.47 1854.34 1472.69 Q1851.24 1475.88 1845.59 1481.64 Z" fill="#000000" fill-rule="nonzero" fill-opacity="1" /><path clip-path="url(#clip750)" d="M1872.54 1481.64 L1880.18 1481.64 L1880.18 1455.28 L1871.87 1456.95 L1871.87 1452.69 L1880.13 1451.02 L1884.81 1451.02 L1884.81 1481.64 L1892.44 1481.64 L1892.44 1485.58 L1872.54 1485.58 L1872.54 1481.64 Z" fill="#000000" fill-rule="nonzero" fill-opacity="1" /><path clip-path="url(#clip750)" d="M1899.13 1470.7 L1911.61 1470.7 L1911.61 1474.49 L1899.13 1474.49 L1899.13 1470.7 Z" fill="#000000" fill-rule="nonzero" fill-opacity="1" /><path clip-path="url(#clip750)" d="M1929 1454.1 Q1925.38 1454.1 1923.56 1457.66 Q1921.75 1461.2 1921.75 1468.33 Q1921.75 1475.44 1923.56 1479.01 Q1925.38 1482.55 1929 1482.55 Q1932.63 1482.55 1934.44 1479.01 Q1936.26 1475.44 1936.26 1468.33 Q1936.26 1461.2 1934.44 1457.66 Q1932.63 1454.1 1929 1454.1 M1929 1450.39 Q1934.81 1450.39 1937.86 1455 Q1940.94 1459.58 1940.94 1468.33 Q1940.94 1477.06 1937.86 1481.67 Q1934.81 1486.25 1929 1486.25 Q1923.19 1486.25 1920.11 1481.67 Q1917.05 1477.06 1917.05 1468.33 Q1917.05 1459.58 1920.11 1455 Q1923.19 1450.39 1929 1450.39 Z" fill="#000000" fill-rule="nonzero" fill-opacity="1" /><path clip-path="url(#clip750)" d="M1949.97 1481.64 L1957.61 1481.64 L1957.61 1455.28 L1949.3 1456.95 L1949.3 1452.69 L1957.56 1451.02 L1962.24 1451.02 L1962.24 1481.64 L1969.87 1481.64 L1969.87 1485.58 L1949.97 1485.58 L1949.97 1481.64 Z" fill="#000000" fill-rule="nonzero" fill-opacity="1" /><path clip-path="url(#clip750)" d="M1976.56 1470.7 L1989.04 1470.7 L1989.04 1474.49 L1976.56 1474.49 L1976.56 1470.7 Z" fill="#000000" fill-rule="nonzero" fill-opacity="1" /><path clip-path="url(#clip750)" d="M2006.43 1454.1 Q2002.81 1454.1 2000.99 1457.66 Q1999.18 1461.2 1999.18 1468.33 Q1999.18 1475.44 2000.99 1479.01 Q2002.81 1482.55 2006.43 1482.55 Q2010.06 1482.55 2011.87 1479.01 Q2013.69 1475.44 2013.69 1468.33 Q2013.69 1461.2 2011.87 1457.66 Q2010.06 1454.1 2006.43 1454.1 M2006.43 1450.39 Q2012.24 1450.39 2015.29 1455 Q2018.37 1459.58 2018.37 1468.33 Q2018.37 1477.06 2015.29 1481.67 Q2012.24 1486.25 2006.43 1486.25 Q2000.62 1486.25 1997.54 1481.67 Q1994.48 1477.06 1994.48 1468.33 Q1994.48 1459.58 1997.54 1455 Q2000.62 1450.39 2006.43 1450.39 Z" fill="#000000" fill-rule="nonzero" fill-opacity="1" /><path clip-path="url(#clip750)" d="M2027.4 1481.64 L2035.04 1481.64 L2035.04 1455.28 L2026.73 1456.95 L2026.73 1452.69 L2034.99 1451.02 L2039.67 1451.02 L2039.67 1481.64 L2047.3 1481.64 L2047.3 1485.58 L2027.4 1485.58 L2027.4 1481.64 Z" fill="#000000" fill-rule="nonzero" fill-opacity="1" /><path clip-path="url(#clip750)" d="M2177.46 1481.64 L2193.78 1481.64 L2193.78 1485.58 L2171.83 1485.58 L2171.83 1481.64 Q2174.5 1478.89 2179.08 1474.26 Q2183.69 1469.61 2184.87 1468.27 Q2187.11 1465.74 2187.99 1464.01 Q2188.89 1462.25 2188.89 1460.56 Q2188.89 1457.8 2186.95 1456.07 Q2185.03 1454.33 2181.93 1454.33 Q2179.73 1454.33 2177.27 1455.09 Q2174.84 1455.86 2172.06 1457.41 L2172.06 1452.69 Q2174.89 1451.55 2177.34 1450.97 Q2179.8 1450.39 2181.83 1450.39 Q2187.2 1450.39 2190.4 1453.08 Q2193.59 1455.77 2193.59 1460.26 Q2193.59 1462.39 2192.78 1464.31 Q2192 1466.2 2189.89 1468.8 Q2189.31 1469.47 2186.21 1472.69 Q2183.11 1475.88 2177.46 1481.64 Z" fill="#000000" fill-rule="nonzero" fill-opacity="1" /><path clip-path="url(#clip750)" d="M2213.59 1454.1 Q2209.98 1454.1 2208.15 1457.66 Q2206.35 1461.2 2206.35 1468.33 Q2206.35 1475.44 2208.15 1479.01 Q2209.98 1482.55 2213.59 1482.55 Q2217.23 1482.55 2219.03 1479.01 Q2220.86 1475.44 2220.86 1468.33 Q2220.86 1461.2 2219.03 1457.66 Q2217.23 1454.1 2213.59 1454.1 M2213.59 1450.39 Q2219.4 1450.39 2222.46 1455 Q2225.54 1459.58 2225.54 1468.33 Q2225.54 1477.06 2222.46 1481.67 Q2219.4 1486.25 2213.59 1486.25 Q2207.78 1486.25 2204.7 1481.67 Q2201.65 1477.06 2201.65 1468.33 Q2201.65 1459.58 2204.7 1455 Q2207.78 1450.39 2213.59 1450.39 Z" fill="#000000" fill-rule="nonzero" fill-opacity="1" /><path clip-path="url(#clip750)" d="M2237.78 1481.64 L2254.1 1481.64 L2254.1 1485.58 L2232.16 1485.58 L2232.16 1481.64 Q2234.82 1478.89 2239.4 1474.26 Q2244.01 1469.61 2245.19 1468.27 Q2247.43 1465.74 2248.31 1464.01 Q2249.22 1462.25 2249.22 1460.56 Q2249.22 1457.8 2247.27 1456.07 Q2245.35 1454.33 2242.25 1454.33 Q2240.05 1454.33 2237.6 1455.09 Q2235.17 1455.86 2232.39 1457.41 L2232.39 1452.69 Q2235.21 1451.55 2237.67 1450.97 Q2240.12 1450.39 2242.16 1450.39 Q2247.53 1450.39 2250.72 1453.08 Q2253.92 1455.77 2253.92 1460.26 Q2253.92 1462.39 2253.11 1464.31 Q2252.32 1466.2 2250.21 1468.8 Q2249.63 1469.47 2246.53 1472.69 Q2243.43 1475.88 2237.78 1481.64 Z" fill="#000000" fill-rule="nonzero" fill-opacity="1" /><path clip-path="url(#clip750)" d="M2267.94 1481.64 L2284.26 1481.64 L2284.26 1485.58 L2262.32 1485.58 L2262.32 1481.64 Q2264.98 1478.89 2269.56 1474.26 Q2274.17 1469.61 2275.35 1468.27 Q2277.6 1465.74 2278.48 1464.01 Q2279.38 1462.25 2279.38 1460.56 Q2279.38 1457.8 2277.43 1456.07 Q2275.51 1454.33 2272.41 1454.33 Q2270.21 1454.33 2267.76 1455.09 Q2265.33 1455.86 2262.55 1457.41 L2262.55 1452.69 Q2265.37 1451.55 2267.83 1450.97 Q2270.28 1450.39 2272.32 1450.39 Q2277.69 1450.39 2280.88 1453.08 Q2284.08 1455.77 2284.08 1460.26 Q2284.08 1462.39 2283.27 1464.31 Q2282.48 1466.2 2280.37 1468.8 Q2279.8 1469.47 2276.69 1472.69 Q2273.59 1475.88 2267.94 1481.64 Z" fill="#000000" fill-rule="nonzero" fill-opacity="1" /><path clip-path="url(#clip750)" d="M2291.32 1470.7 L2303.8 1470.7 L2303.8 1474.49 L2291.32 1474.49 L2291.32 1470.7 Z" fill="#000000" fill-rule="nonzero" fill-opacity="1" /><path clip-path="url(#clip750)" d="M2321.18 1454.1 Q2317.57 1454.1 2315.74 1457.66 Q2313.94 1461.2 2313.94 1468.33 Q2313.94 1475.44 2315.74 1479.01 Q2317.57 1482.55 2321.18 1482.55 Q2324.82 1482.55 2326.62 1479.01 Q2328.45 1475.44 2328.45 1468.33 Q2328.45 1461.2 2326.62 1457.66 Q2324.82 1454.1 2321.18 1454.1 M2321.18 1450.39 Q2326.99 1450.39 2330.05 1455 Q2333.13 1459.58 2333.13 1468.33 Q2333.13 1477.06 2330.05 1481.67 Q2326.99 1486.25 2321.18 1486.25 Q2315.37 1486.25 2312.3 1481.67 Q2309.24 1477.06 2309.24 1468.33 Q2309.24 1459.58 2312.3 1455 Q2315.37 1450.39 2321.18 1450.39 Z" fill="#000000" fill-rule="nonzero" fill-opacity="1" /><path clip-path="url(#clip750)" d="M2342.16 1481.64 L2349.8 1481.64 L2349.8 1455.28 L2341.49 1456.95 L2341.49 1452.69 L2349.75 1451.02 L2354.42 1451.02 L2354.42 1481.64 L2362.06 1481.64 L2362.06 1485.58 L2342.16 1485.58 L2342.16 1481.64 Z" fill="#000000" fill-rule="nonzero" fill-opacity="1" /><path clip-path="url(#clip750)" d="M2368.75 1470.7 L2381.23 1470.7 L2381.23 1474.49 L2368.75 1474.49 L2368.75 1470.7 Z" fill="#000000" fill-rule="nonzero" fill-opacity="1" /><path clip-path="url(#clip750)" d="M2398.61 1454.1 Q2395 1454.1 2393.17 1457.66 Q2391.37 1461.2 2391.37 1468.33 Q2391.37 1475.44 2393.17 1479.01 Q2395 1482.55 2398.61 1482.55 Q2402.25 1482.55 2404.05 1479.01 Q2405.88 1475.44 2405.88 1468.33 Q2405.88 1461.2 2404.05 1457.66 Q2402.25 1454.1 2398.61 1454.1 M2398.61 1450.39 Q2404.42 1450.39 2407.48 1455 Q2410.56 1459.58 2410.56 1468.33 Q2410.56 1477.06 2407.48 1481.67 Q2404.42 1486.25 2398.61 1486.25 Q2392.8 1486.25 2389.73 1481.67 Q2386.67 1477.06 2386.67 1468.33 Q2386.67 1459.58 2389.73 1455 Q2392.8 1450.39 2398.61 1450.39 Z" fill="#000000" fill-rule="nonzero" fill-opacity="1" /><path clip-path="url(#clip750)" d="M2419.59 1481.64 L2427.23 1481.64 L2427.23 1455.28 L2418.92 1456.95 L2418.92 1452.69 L2427.18 1451.02 L2431.86 1451.02 L2431.86 1481.64 L2439.49 1481.64 L2439.49 1485.58 L2419.59 1485.58 L2419.59 1481.64 Z" fill="#000000" fill-rule="nonzero" fill-opacity="1" /><path clip-path="url(#clip750)" d="M1276.33 1537.81 L1276.33 1518.52 L1282.19 1518.52 L1282.19 1568.04 L1276.33 1568.04 L1276.33 1562.7 Q1274.49 1565.88 1271.65 1567.44 Q1268.85 1568.97 1264.91 1568.97 Q1258.45 1568.97 1254.37 1563.81 Q1250.33 1558.65 1250.33 1550.25 Q1250.33 1541.85 1254.37 1536.69 Q1258.45 1531.54 1264.91 1531.54 Q1268.85 1531.54 1271.65 1533.1 Q1274.49 1534.62 1276.33 1537.81 M1256.38 1550.25 Q1256.38 1556.71 1259.02 1560.4 Q1261.69 1564.07 1266.34 1564.07 Q1270.99 1564.07 1273.66 1560.4 Q1276.33 1556.71 1276.33 1550.25 Q1276.33 1543.79 1273.66 1540.13 Q1270.99 1536.44 1266.34 1536.44 Q1261.69 1536.44 1259.02 1540.13 Q1256.38 1543.79 1256.38 1550.25 Z" fill="#000000" fill-rule="nonzero" fill-opacity="1" /><path clip-path="url(#clip750)" d="M1310.45 1550.12 Q1303.36 1550.12 1300.62 1551.75 Q1297.88 1553.37 1297.88 1557.29 Q1297.88 1560.4 1299.92 1562.25 Q1301.99 1564.07 1305.52 1564.07 Q1310.39 1564.07 1313.32 1560.63 Q1316.28 1557.16 1316.28 1551.43 L1316.28 1550.12 L1310.45 1550.12 M1322.13 1547.71 L1322.13 1568.04 L1316.28 1568.04 L1316.28 1562.63 Q1314.27 1565.88 1311.28 1567.44 Q1308.29 1568.97 1303.96 1568.97 Q1298.49 1568.97 1295.24 1565.91 Q1292.03 1562.82 1292.03 1557.67 Q1292.03 1551.65 1296.04 1548.6 Q1300.08 1545.54 1308.07 1545.54 L1316.28 1545.54 L1316.28 1544.97 Q1316.28 1540.93 1313.6 1538.73 Q1310.96 1536.5 1306.16 1536.5 Q1303.1 1536.5 1300.2 1537.23 Q1297.31 1537.97 1294.63 1539.43 L1294.63 1534.02 Q1297.85 1532.78 1300.87 1532.17 Q1303.9 1531.54 1306.76 1531.54 Q1314.5 1531.54 1318.32 1535.55 Q1322.13 1539.56 1322.13 1547.71 Z" fill="#000000" fill-rule="nonzero" fill-opacity="1" /><path clip-path="url(#clip750)" d="M1339.99 1522.27 L1339.99 1532.4 L1352.05 1532.4 L1352.05 1536.95 L1339.99 1536.95 L1339.99 1556.3 Q1339.99 1560.66 1341.17 1561.9 Q1342.38 1563.14 1346.04 1563.14 L1352.05 1563.14 L1352.05 1568.04 L1346.04 1568.04 Q1339.26 1568.04 1336.68 1565.53 Q1334.1 1562.98 1334.1 1556.3 L1334.1 1536.95 L1329.81 1536.95 L1329.81 1532.4 L1334.1 1532.4 L1334.1 1522.27 L1339.99 1522.27 Z" fill="#000000" fill-rule="nonzero" fill-opacity="1" /><path clip-path="url(#clip750)" d="M1390.25 1548.76 L1390.25 1551.62 L1363.32 1551.62 Q1363.7 1557.67 1366.95 1560.85 Q1370.23 1564 1376.05 1564 Q1379.43 1564 1382.58 1563.17 Q1385.76 1562.35 1388.88 1560.69 L1388.88 1566.23 Q1385.73 1567.57 1382.42 1568.27 Q1379.11 1568.97 1375.7 1568.97 Q1367.17 1568.97 1362.18 1564 Q1357.21 1559.04 1357.21 1550.57 Q1357.21 1541.82 1361.92 1536.69 Q1366.66 1531.54 1374.68 1531.54 Q1381.88 1531.54 1386.05 1536.18 Q1390.25 1540.8 1390.25 1548.76 M1384.39 1547.04 Q1384.33 1542.23 1381.69 1539.37 Q1379.08 1536.5 1374.75 1536.5 Q1369.85 1536.5 1366.89 1539.27 Q1363.96 1542.04 1363.51 1547.07 L1384.39 1547.04 Z" fill="#000000" fill-rule="nonzero" fill-opacity="1" /><polyline clip-path="url(#clip752)" style="stroke:#000000; stroke-linecap:round; stroke-linejoin:round; stroke-width:2; stroke-opacity:0.1; fill:none" points="287.822,877.824 2352.76,877.824 "/>
<polyline clip-path="url(#clip752)" style="stroke:#000000; stroke-linecap:round; stroke-linejoin:round; stroke-width:2; stroke-opacity:0.1; fill:none" points="287.822,258.982 2352.76,258.982 "/>
<polyline clip-path="url(#clip750)" style="stroke:#000000; stroke-linecap:round; stroke-linejoin:round; stroke-width:4; stroke-opacity:1; fill:none" points="287.822,1423.18 287.822,47.2441 "/>
<polyline clip-path="url(#clip750)" style="stroke:#000000; stroke-linecap:round; stroke-linejoin:round; stroke-width:4; stroke-opacity:1; fill:none" points="287.822,877.824 306.719,877.824 "/>
<polyline clip-path="url(#clip750)" style="stroke:#000000; stroke-linecap:round; stroke-linejoin:round; stroke-width:4; stroke-opacity:1; fill:none" points="287.822,258.982 306.719,258.982 "/>
<path clip-path="url(#clip750)" d="M114.931 897.616 L122.57 897.616 L122.57 871.251 L114.26 872.917 L114.26 868.658 L122.524 866.991 L127.2 866.991 L127.2 897.616 L134.839 897.616 L134.839 901.551 L114.931 901.551 L114.931 897.616 Z" fill="#000000" fill-rule="nonzero" fill-opacity="1" /><path clip-path="url(#clip750)" d="M154.283 870.07 Q150.672 870.07 148.843 873.635 Q147.038 877.176 147.038 884.306 Q147.038 891.412 148.843 894.977 Q150.672 898.519 154.283 898.519 Q157.917 898.519 159.723 894.977 Q161.552 891.412 161.552 884.306 Q161.552 877.176 159.723 873.635 Q157.917 870.07 154.283 870.07 M154.283 866.366 Q160.093 866.366 163.149 870.973 Q166.227 875.556 166.227 884.306 Q166.227 893.033 163.149 897.639 Q160.093 902.223 154.283 902.223 Q148.473 902.223 145.394 897.639 Q142.339 893.033 142.339 884.306 Q142.339 875.556 145.394 870.973 Q148.473 866.366 154.283 866.366 Z" fill="#000000" fill-rule="nonzero" fill-opacity="1" /><path clip-path="url(#clip750)" d="M166.227 860.468 L190.339 860.468 L190.339 863.665 L166.227 863.665 L166.227 860.468 Z" fill="#000000" fill-rule="nonzero" fill-opacity="1" /><path clip-path="url(#clip750)" d="M206.664 848.562 Q203.73 848.562 202.244 851.459 Q200.777 854.336 200.777 860.129 Q200.777 865.903 202.244 868.799 Q203.73 871.677 206.664 871.677 Q209.617 871.677 211.084 868.799 Q212.57 865.903 212.57 860.129 Q212.57 854.336 211.084 851.459 Q209.617 848.562 206.664 848.562 M206.664 845.553 Q211.385 845.553 213.868 849.296 Q216.369 853.02 216.369 860.129 Q216.369 867.22 213.868 870.962 Q211.385 874.686 206.664 874.686 Q201.943 874.686 199.442 870.962 Q196.959 867.22 196.959 860.129 Q196.959 853.02 199.442 849.296 Q201.943 845.553 206.664 845.553 Z" fill="#000000" fill-rule="nonzero" fill-opacity="1" /><path clip-path="url(#clip750)" d="M223.046 869.364 L227.014 869.364 L227.014 874.141 L223.046 874.141 L223.046 869.364 Z" fill="#000000" fill-rule="nonzero" fill-opacity="1" /><path clip-path="url(#clip750)" d="M238.562 870.944 L251.822 870.944 L251.822 874.141 L233.992 874.141 L233.992 870.944 Q236.155 868.705 239.879 864.944 Q243.621 861.164 244.581 860.073 Q246.405 858.023 247.12 856.612 Q247.853 855.183 247.853 853.81 Q247.853 851.572 246.273 850.161 Q244.712 848.75 242.192 848.75 Q240.405 848.75 238.412 849.371 Q236.437 849.992 234.18 851.252 L234.18 847.415 Q236.474 846.493 238.468 846.023 Q240.462 845.553 242.117 845.553 Q246.48 845.553 249.076 847.735 Q251.671 849.916 251.671 853.565 Q251.671 855.295 251.013 856.857 Q250.373 858.399 248.662 860.505 Q248.192 861.051 245.671 863.665 Q243.151 866.26 238.562 870.944 Z" fill="#000000" fill-rule="nonzero" fill-opacity="1" /><path clip-path="url(#clip750)" d="M144.366 278.774 L152.004 278.774 L152.004 252.408 L143.694 254.075 L143.694 249.816 L151.958 248.149 L156.634 248.149 L156.634 278.774 L164.273 278.774 L164.273 282.709 L144.366 282.709 L144.366 278.774 Z" fill="#000000" fill-rule="nonzero" fill-opacity="1" /><path clip-path="url(#clip750)" d="M183.717 251.228 Q180.106 251.228 178.277 254.793 Q176.472 258.334 176.472 265.464 Q176.472 272.57 178.277 276.135 Q180.106 279.677 183.717 279.677 Q187.351 279.677 189.157 276.135 Q190.986 272.57 190.986 265.464 Q190.986 258.334 189.157 254.793 Q187.351 251.228 183.717 251.228 M183.717 247.524 Q189.527 247.524 192.583 252.131 Q195.662 256.714 195.662 265.464 Q195.662 274.191 192.583 278.797 Q189.527 283.381 183.717 283.381 Q177.907 283.381 174.828 278.797 Q171.773 274.191 171.773 265.464 Q171.773 256.714 174.828 252.131 Q177.907 247.524 183.717 247.524 Z" fill="#000000" fill-rule="nonzero" fill-opacity="1" /><path clip-path="url(#clip750)" d="M205.366 229.72 Q202.432 229.72 200.947 232.617 Q199.48 235.494 199.48 241.287 Q199.48 247.061 200.947 249.957 Q202.432 252.835 205.366 252.835 Q208.319 252.835 209.786 249.957 Q211.272 247.061 211.272 241.287 Q211.272 235.494 209.786 232.617 Q208.319 229.72 205.366 229.72 M205.366 226.711 Q210.087 226.711 212.57 230.454 Q215.071 234.178 215.071 241.287 Q215.071 248.378 212.57 252.12 Q210.087 255.844 205.366 255.844 Q200.646 255.844 198.144 252.12 Q195.662 248.378 195.662 241.287 Q195.662 234.178 198.144 230.454 Q200.646 226.711 205.366 226.711 Z" fill="#000000" fill-rule="nonzero" fill-opacity="1" /><path clip-path="url(#clip750)" d="M221.748 250.522 L225.716 250.522 L225.716 255.299 L221.748 255.299 L221.748 250.522 Z" fill="#000000" fill-rule="nonzero" fill-opacity="1" /><path clip-path="url(#clip750)" d="M242.117 229.72 Q239.183 229.72 237.697 232.617 Q236.23 235.494 236.23 241.287 Q236.23 247.061 237.697 249.957 Q239.183 252.835 242.117 252.835 Q245.07 252.835 246.537 249.957 Q248.022 247.061 248.022 241.287 Q248.022 235.494 246.537 232.617 Q245.07 229.72 242.117 229.72 M242.117 226.711 Q246.838 226.711 249.32 230.454 Q251.822 234.178 251.822 241.287 Q251.822 248.378 249.32 252.12 Q246.838 255.844 242.117 255.844 Q237.396 255.844 234.895 252.12 Q232.412 248.378 232.412 241.287 Q232.412 234.178 234.895 230.454 Q237.396 226.711 242.117 226.711 Z" fill="#000000" fill-rule="nonzero" fill-opacity="1" /><path clip-path="url(#clip750)" d="M46.0847 888.244 Q46.0847 895.341 47.7079 898.079 Q49.3312 900.816 53.2461 900.816 Q56.3653 900.816 58.2114 898.779 Q60.0256 896.71 60.0256 893.177 Q60.0256 888.307 56.5881 885.379 Q53.1188 882.419 47.3897 882.419 L46.0847 882.419 L46.0847 888.244 M43.6657 876.562 L64.0042 876.562 L64.0042 882.419 L58.5933 882.419 Q61.8398 884.424 63.3994 887.416 Q64.9272 890.408 64.9272 894.737 Q64.9272 900.211 61.8716 903.458 Q58.7843 906.672 53.6281 906.672 Q47.6125 906.672 44.5569 902.662 Q41.5014 898.62 41.5014 890.631 L41.5014 882.419 L40.9285 882.419 Q36.8862 882.419 34.6901 885.093 Q32.4621 887.734 32.4621 892.54 Q32.4621 895.596 33.1941 898.492 Q33.9262 901.389 35.3903 904.062 L29.9795 904.062 Q28.7381 900.848 28.1334 897.824 Q27.4968 894.8 27.4968 891.936 Q27.4968 884.201 31.5072 880.382 Q35.5176 876.562 43.6657 876.562 Z" fill="#000000" fill-rule="nonzero" fill-opacity="1" /><path clip-path="url(#clip750)" d="M29.7248 838.846 L35.1993 838.846 Q33.8307 841.328 33.1623 843.843 Q32.4621 846.325 32.4621 848.872 Q32.4621 854.569 36.0905 857.72 Q39.6872 860.871 46.212 860.871 Q52.7369 860.871 56.3653 857.72 Q59.9619 854.569 59.9619 848.872 Q59.9619 846.325 59.2935 843.843 Q58.5933 841.328 57.2247 838.846 L62.6355 838.846 Q63.7814 841.296 64.3543 843.938 Q64.9272 846.548 64.9272 849.508 Q64.9272 857.561 59.8664 862.303 Q54.8057 867.046 46.212 867.046 Q37.491 867.046 32.4939 862.271 Q27.4968 857.465 27.4968 849.126 Q27.4968 846.421 28.0697 843.843 Q28.6108 841.265 29.7248 838.846 Z" fill="#000000" fill-rule="nonzero" fill-opacity="1" /><path clip-path="url(#clip750)" d="M29.7248 803.007 L35.1993 803.007 Q33.8307 805.489 33.1623 808.004 Q32.4621 810.486 32.4621 813.033 Q32.4621 818.73 36.0905 821.881 Q39.6872 825.032 46.212 825.032 Q52.7369 825.032 56.3653 821.881 Q59.9619 818.73 59.9619 813.033 Q59.9619 810.486 59.2935 808.004 Q58.5933 805.489 57.2247 803.007 L62.6355 803.007 Q63.7814 805.458 64.3543 808.099 Q64.9272 810.709 64.9272 813.669 Q64.9272 821.722 59.8664 826.464 Q54.8057 831.207 46.212 831.207 Q37.491 831.207 32.4939 826.433 Q27.4968 821.626 27.4968 813.287 Q27.4968 810.582 28.0697 808.004 Q28.6108 805.426 29.7248 803.007 Z" fill="#000000" fill-rule="nonzero" fill-opacity="1" /><path clip-path="url(#clip750)" d="M55.9197 791.994 L55.9197 785.278 L64.0042 785.278 L64.0042 791.994 L55.9197 791.994 Z" fill="#000000" fill-rule="nonzero" fill-opacity="1" /><path clip-path="url(#clip750)" d="M33.8307 730.724 Q33.2578 731.711 33.0032 732.888 Q32.7167 734.034 32.7167 735.435 Q32.7167 740.4 35.9632 743.074 Q39.1779 745.715 45.2253 745.715 L64.0042 745.715 L64.0042 751.604 L28.3562 751.604 L28.3562 745.715 L33.8944 745.715 Q30.6479 743.869 29.0883 740.909 Q27.4968 737.949 27.4968 733.716 Q27.4968 733.111 27.5923 732.379 Q27.656 731.647 27.8151 730.756 L33.8307 730.724 Z" fill="#000000" fill-rule="nonzero" fill-opacity="1" /><path clip-path="url(#clip750)" d="M44.7161 695.522 L47.5806 695.522 L47.5806 722.449 Q53.6281 722.067 56.8109 718.82 Q59.9619 715.542 59.9619 709.717 Q59.9619 706.343 59.1344 703.192 Q58.3069 700.01 56.6518 696.89 L62.1899 696.89 Q63.5267 700.041 64.227 703.352 Q64.9272 706.662 64.9272 710.067 Q64.9272 718.597 59.9619 723.595 Q54.9967 728.56 46.5303 728.56 Q37.7774 728.56 32.6531 723.849 Q27.4968 719.107 27.4968 711.086 Q27.4968 703.893 32.1438 699.723 Q36.7589 695.522 44.7161 695.522 M42.9973 701.378 Q38.1912 701.442 35.3266 704.084 Q32.4621 706.694 32.4621 711.022 Q32.4621 715.924 35.2312 718.884 Q38.0002 721.812 43.0292 722.258 L42.9973 701.378 Z" fill="#000000" fill-rule="nonzero" fill-opacity="1" /><path clip-path="url(#clip750)" d="M18.2347 680.117 L28.3562 680.117 L28.3562 668.054 L32.9077 668.054 L32.9077 680.117 L52.2594 680.117 Q56.6199 680.117 57.8613 678.939 Q59.1026 677.73 59.1026 674.069 L59.1026 668.054 L64.0042 668.054 L64.0042 674.069 Q64.0042 680.849 61.4897 683.427 Q58.9434 686.005 52.2594 686.005 L32.9077 686.005 L32.9077 690.302 L28.3562 690.302 L28.3562 686.005 L18.2347 686.005 L18.2347 680.117 Z" fill="#000000" fill-rule="nonzero" fill-opacity="1" /><path clip-path="url(#clip750)" d="M49.9359 660.956 L28.3562 660.956 L28.3562 655.1 L49.7131 655.1 Q54.7739 655.1 57.3202 653.126 Q59.8346 651.153 59.8346 647.206 Q59.8346 642.464 56.8109 639.726 Q53.7872 636.957 48.5673 636.957 L28.3562 636.957 L28.3562 631.101 L64.0042 631.101 L64.0042 636.957 L58.5296 636.957 Q61.7762 639.09 63.3676 641.923 Q64.9272 644.723 64.9272 648.447 Q64.9272 654.59 61.1078 657.773 Q57.2883 660.956 49.9359 660.956 M27.4968 646.219 L27.4968 646.219 Z" fill="#000000" fill-rule="nonzero" fill-opacity="1" /><path clip-path="url(#clip750)" d="M33.8307 598.381 Q33.2578 599.368 33.0032 600.545 Q32.7167 601.691 32.7167 603.092 Q32.7167 608.057 35.9632 610.731 Q39.1779 613.372 45.2253 613.372 L64.0042 613.372 L64.0042 619.261 L28.3562 619.261 L28.3562 613.372 L33.8944 613.372 Q30.6479 611.526 29.0883 608.566 Q27.4968 605.606 27.4968 601.373 Q27.4968 600.768 27.5923 600.036 Q27.656 599.304 27.8151 598.413 L33.8307 598.381 Z" fill="#000000" fill-rule="nonzero" fill-opacity="1" /><path clip-path="url(#clip750)" d="M42.4881 563.752 L64.0042 563.752 L64.0042 569.608 L42.679 569.608 Q37.6183 569.608 35.1038 571.581 Q32.5894 573.555 32.5894 577.502 Q32.5894 582.244 35.6131 584.981 Q38.6368 587.719 43.8567 587.719 L64.0042 587.719 L64.0042 593.607 L28.3562 593.607 L28.3562 587.719 L33.8944 587.719 Q30.6797 585.618 29.0883 582.785 Q27.4968 579.921 27.4968 576.197 Q27.4968 570.054 31.3163 566.903 Q35.1038 563.752 42.4881 563.752 Z" fill="#000000" fill-rule="nonzero" fill-opacity="1" /><polyline clip-path="url(#clip752)" style="stroke:#009af9; stroke-linecap:round; stroke-linejoin:round; stroke-width:12; stroke-opacity:1; fill:none" points="346.263,258.982 1917.17,258.982 1918.24,281.658 1919.32,268.145 1920.39,268.145 1921.47,268.145 1924.69,282.194 1925.76,267.874 1926.84,326.528 1927.91,288.369 1928.99,288.369 1933.29,288.369 1934.36,288.369 1935.43,288.369 1936.51,288.369 1939.73,417.863 1940.81,355.878 1941.88,388.474 1942.96,649.992 1944.03,321.303 1947.25,86.1857 1948.33,86.1857 1949.4,86.1857 1950.48,377.649 1951.55,337.496 1954.78,337.496 1955.85,409.688 1956.92,477.389 1958,453.326 1959.07,453.326 1963.37,453.326 1964.45,453.326 1965.52,453.326 1966.59,453.326 1969.82,453.326 1970.89,467.882 1971.97,329.326 1973.04,411.658 1974.12,434.654 1977.34,367.619 1978.41,425.208 1979.49,478.687 1980.56,504.656 1981.64,504.656 1984.86,504.656 1985.94,504.656 1987.01,504.656 1988.08,504.656 1989.16,451.036 1992.34,418.782 1993.41,509.003 1994.49,612.724 1995.56,754.263 1996.64,736.168 1999.86,784.072 2000.93,843.365 2002.01,893.011 2003.08,871.445 2004.16,863.648 2007.38,873.365 2008.46,852.421 2009.53,852.421 2010.6,895.221 2014.9,935.279 2015.98,902.702 2017.05,936.598 2018.13,925.686 2019.2,908.878 2022.42,908.878 2023.5,908.878 2024.57,908.878 2025.65,908.878 2026.72,908.878 2029.94,908.878 2031.02,908.878 2032.09,804.087 2033.17,835.335 2034.24,816.926 2037.47,795.076 2038.54,795.076 2039.62,795.076 2040.69,795.076 2041.76,826.623 2044.99,789.816 2046.06,831.606 2047.14,777.609 2048.21,768.576 2049.29,747.237 2052.51,722.038 2053.58,692.621 2054.66,720.997 2055.73,480.852 2056.81,398.917 2060.03,370.846 2061.11,382.568 2062.18,461.509 2063.25,484.035 2064.33,504.181 2067.55,469.556 2068.63,450.196 2069.7,408.706 2070.78,408.706 2071.85,408.706 2076.15,408.706 2077.22,408.706 2078.3,586.867 2079.37,625.267 2082.59,625.267 2083.67,625.267 2084.74,722.104 2085.82,733.764 2086.89,733.764 2090.12,733.764 2091.19,733.764 2092.27,769.641 2093.34,623.305 2094.41,654.518 2097.64,733.484 2098.71,745.108 2099.79,742.415 2100.86,723.603 2101.94,723.603 2105.16,723.603 2106.23,738.866 2107.31,732.512 2108.38,693.544 2109.46,739.652 2113.76,676.551 2114.83,676.551 2115.9,654.01 2116.98,697.057 2120.2,804.004 2121.28,843.243 2122.35,843.243 2123.43,896.283 2124.5,926.447 2127.72,949.276 2128.8,949.276 2129.87,1007.26 2130.95,1001.42 2132.02,1001.42 2135.25,1001.42 2136.32,1095.54 2137.39,1064.48 2138.47,1091.35 2139.54,1085.69 2142.77,1085.69 2143.84,1085.69 2144.92,1144.38 2145.99,1102.23 2147.06,1136.67 2150.29,1094.37 2151.36,1175.18 2152.44,1156.56 2153.51,1156.56 2154.59,1253.05 2157.81,1218.65 2158.88,1207.72 2159.96,1207.72 2161.03,1207.72 2162.11,1207.72 2165.33,1207.72 2166.41,1231.63 2167.48,1206.2 2168.55,1280.09 2169.63,1264.66 2172.85,1264.66 2173.93,1264.66 2175,1264.66 2176.08,1264.66 2177.15,1264.66 2181.45,1331 2182.52,1373.7 2183.6,1363 2184.67,1053.12 2187.9,997.326 2188.97,997.326 2190.04,997.326 2191.12,1036.41 2192.19,1090.78 2195.42,1214.84 2196.49,1165.76 2197.57,1215.46 2198.64,1174.76 2199.71,1194.55 2202.94,1164.38 2204.01,1164.38 2205.09,1164.38 2206.16,1164.38 2207.24,1164.38 2210.46,1164.38 2211.53,1164.38 2212.61,1224.87 2213.68,1184.75 2214.76,1184.75 2217.98,1184.75 2219.06,1184.75 2220.13,1211.24 2221.2,1199.46 2222.28,1143.94 2225.5,1188.07 2226.58,1166.86 2227.65,1131.75 2228.73,1116.17 2229.8,1177.46 2233.02,1091.02 2234.1,1136.9 2235.17,1097.57 2236.25,1054.71 2237.32,1016.78 2240.55,990.62 2241.62,959.352 2242.69,959.352 2243.77,959.352 2244.84,959.352 2248.11,959.352 2249.19,959.352 2250.26,959.352 2251.33,959.352 2252.41,971.631 2255.63,959.289 2256.71,934.416 2257.78,1004.53 2258.86,1023.73 2259.93,1001.34 2263.15,1080.42 2264.23,1033.36 2265.3,1033.36 2267.45,1033.36 2270.68,1033.36 2271.75,998.513 2272.82,1141.32 2273.9,1183.66 2274.97,1186.62 2278.2,1186.62 2279.27,1186.62 2280.35,1220.06 2281.42,1197.64 2282.49,1197.64 2285.72,1197.64 2286.79,1225.79 2287.87,1238.26 2288.94,1362.61 2290.02,1333.97 2293.24,1384.24 2294.31,1381.21 "/>
<path clip-path="url(#clip750)" d="M1582.46 1377.32 L2283.92 1377.32 L2283.92 1273.64 L1582.46 1273.64  Z" fill="#ffffff" fill-rule="evenodd" fill-opacity="1"/>
<polyline clip-path="url(#clip750)" style="stroke:#000000; stroke-linecap:round; stroke-linejoin:round; stroke-width:4; stroke-opacity:1; fill:none" points="1582.46,1377.32 2283.92,1377.32 2283.92,1273.64 1582.46,1273.64 1582.46,1377.32 "/>
<polyline clip-path="url(#clip750)" style="stroke:#009af9; stroke-linecap:round; stroke-linejoin:round; stroke-width:12; stroke-opacity:1; fill:none" points="1605.4,1325.48 1743.06,1325.48 "/>
<path clip-path="url(#clip750)" d="M1766.01 1308.2 L1772.97 1308.2 L1781.79 1331.71 L1790.66 1308.2 L1797.63 1308.2 L1797.63 1342.76 L1793.07 1342.76 L1793.07 1312.41 L1784.15 1336.11 L1779.46 1336.11 L1770.54 1312.41 L1770.54 1342.76 L1766.01 1342.76 L1766.01 1308.2 Z" fill="#000000" fill-rule="nonzero" fill-opacity="1" /><path clip-path="url(#clip750)" d="M1815.82 1342.76 L1802.63 1308.2 L1807.51 1308.2 L1818.46 1337.29 L1829.43 1308.2 L1834.29 1308.2 L1821.12 1342.76 L1815.82 1342.76 Z" fill="#000000" fill-rule="nonzero" fill-opacity="1" /><path clip-path="url(#clip750)" d="M1834.22 1327.87 L1846.7 1327.87 L1846.7 1331.67 L1834.22 1331.67 L1834.22 1327.87 Z" fill="#000000" fill-rule="nonzero" fill-opacity="1" /><path clip-path="url(#clip750)" d="M1853.67 1308.2 L1860.64 1308.2 L1869.46 1331.71 L1878.32 1308.2 L1885.29 1308.2 L1885.29 1342.76 L1880.73 1342.76 L1880.73 1312.41 L1871.82 1336.11 L1867.12 1336.11 L1858.21 1312.41 L1858.21 1342.76 L1853.67 1342.76 L1853.67 1308.2 Z" fill="#000000" fill-rule="nonzero" fill-opacity="1" /><path clip-path="url(#clip750)" d="M1899.25 1312.04 L1899.25 1325.02 L1905.13 1325.02 Q1908.39 1325.02 1910.17 1323.33 Q1911.96 1321.64 1911.96 1318.52 Q1911.96 1315.42 1910.17 1313.73 Q1908.39 1312.04 1905.13 1312.04 L1899.25 1312.04 M1894.57 1308.2 L1905.13 1308.2 Q1910.94 1308.2 1913.9 1310.83 Q1916.89 1313.45 1916.89 1318.52 Q1916.89 1323.64 1913.9 1326.25 Q1910.94 1328.87 1905.13 1328.87 L1899.25 1328.87 L1899.25 1342.76 L1894.57 1342.76 L1894.57 1308.2 Z" fill="#000000" fill-rule="nonzero" fill-opacity="1" /><path clip-path="url(#clip750)" d="M1949.04 1310.86 L1949.04 1315.79 Q1946.68 1313.59 1943.99 1312.5 Q1941.33 1311.41 1938.32 1311.41 Q1932.39 1311.41 1929.25 1315.05 Q1926.1 1318.66 1926.1 1325.51 Q1926.1 1332.34 1929.25 1335.97 Q1932.39 1339.58 1938.32 1339.58 Q1941.33 1339.58 1943.99 1338.5 Q1946.68 1337.41 1949.04 1335.21 L1949.04 1340.09 Q1946.58 1341.76 1943.83 1342.59 Q1941.1 1343.43 1938.04 1343.43 Q1930.2 1343.43 1925.68 1338.63 Q1921.17 1333.82 1921.17 1325.51 Q1921.17 1317.18 1925.68 1312.39 Q1930.2 1307.57 1938.04 1307.57 Q1941.14 1307.57 1943.88 1308.4 Q1946.63 1309.21 1949.04 1310.86 Z" fill="#000000" fill-rule="nonzero" fill-opacity="1" /><path clip-path="url(#clip750)" d="M1957.16 1336.88 L1962.05 1336.88 L1962.05 1342.76 L1957.16 1342.76 L1957.16 1336.88 M1957.16 1318.24 L1962.05 1318.24 L1962.05 1324.12 L1957.16 1324.12 L1957.16 1318.24 Z" fill="#000000" fill-rule="nonzero" fill-opacity="1" /><path clip-path="url(#clip750)" d="M1991.98 1326.25 L1991.98 1338.91 L1999.48 1338.91 Q2003.25 1338.91 2005.06 1337.36 Q2006.89 1335.79 2006.89 1332.57 Q2006.89 1329.33 2005.06 1327.8 Q2003.25 1326.25 1999.48 1326.25 L1991.98 1326.25 M1991.98 1312.04 L1991.98 1322.45 L1998.9 1322.45 Q2002.33 1322.45 2003.99 1321.18 Q2005.68 1319.89 2005.68 1317.25 Q2005.68 1314.63 2003.99 1313.33 Q2002.33 1312.04 1998.9 1312.04 L1991.98 1312.04 M1987.3 1308.2 L1999.25 1308.2 Q2004.59 1308.2 2007.49 1310.42 Q2010.38 1312.64 2010.38 1316.74 Q2010.38 1319.91 2008.9 1321.78 Q2007.42 1323.66 2004.55 1324.12 Q2008 1324.86 2009.89 1327.22 Q2011.82 1329.56 2011.82 1333.08 Q2011.82 1337.71 2008.67 1340.23 Q2005.52 1342.76 1999.71 1342.76 L1987.3 1342.76 L1987.3 1308.2 Z" fill="#000000" fill-rule="nonzero" fill-opacity="1" /><path clip-path="url(#clip750)" d="M2041.82 1328.73 L2041.82 1330.81 L2022.23 1330.81 Q2022.51 1335.21 2024.87 1337.52 Q2027.26 1339.82 2031.49 1339.82 Q2033.95 1339.82 2036.24 1339.21 Q2038.55 1338.61 2040.82 1337.41 L2040.82 1341.44 Q2038.53 1342.41 2036.12 1342.92 Q2033.71 1343.43 2031.24 1343.43 Q2025.03 1343.43 2021.4 1339.82 Q2017.79 1336.2 2017.79 1330.05 Q2017.79 1323.68 2021.21 1319.95 Q2024.66 1316.2 2030.5 1316.2 Q2035.73 1316.2 2038.76 1319.58 Q2041.82 1322.94 2041.82 1328.73 M2037.56 1327.48 Q2037.51 1323.98 2035.59 1321.9 Q2033.69 1319.82 2030.54 1319.82 Q2026.98 1319.82 2024.82 1321.83 Q2022.7 1323.84 2022.37 1327.5 L2037.56 1327.48 Z" fill="#000000" fill-rule="nonzero" fill-opacity="1" /><path clip-path="url(#clip750)" d="M2070.36 1327.11 L2070.36 1342.76 L2066.1 1342.76 L2066.1 1327.25 Q2066.1 1323.57 2064.66 1321.74 Q2063.23 1319.91 2060.36 1319.91 Q2056.91 1319.91 2054.92 1322.11 Q2052.93 1324.31 2052.93 1328.1 L2052.93 1342.76 L2048.64 1342.76 L2048.64 1306.74 L2052.93 1306.74 L2052.93 1320.86 Q2054.45 1318.52 2056.51 1317.36 Q2058.6 1316.2 2061.31 1316.2 Q2065.77 1316.2 2068.07 1318.98 Q2070.36 1321.74 2070.36 1327.11 Z" fill="#000000" fill-rule="nonzero" fill-opacity="1" /><path clip-path="url(#clip750)" d="M2090.63 1329.72 Q2085.47 1329.72 2083.48 1330.9 Q2081.49 1332.08 2081.49 1334.93 Q2081.49 1337.2 2082.97 1338.54 Q2084.48 1339.86 2087.05 1339.86 Q2090.59 1339.86 2092.72 1337.36 Q2094.87 1334.84 2094.87 1330.67 L2094.87 1329.72 L2090.63 1329.72 M2099.13 1327.96 L2099.13 1342.76 L2094.87 1342.76 L2094.87 1338.82 Q2093.41 1341.18 2091.24 1342.32 Q2089.06 1343.43 2085.91 1343.43 Q2081.93 1343.43 2079.57 1341.2 Q2077.23 1338.96 2077.23 1335.21 Q2077.23 1330.83 2080.15 1328.61 Q2083.09 1326.39 2088.9 1326.39 L2094.87 1326.39 L2094.87 1325.97 Q2094.87 1323.03 2092.93 1321.44 Q2091.01 1319.82 2087.51 1319.82 Q2085.29 1319.82 2083.18 1320.35 Q2081.07 1320.88 2079.13 1321.95 L2079.13 1318.01 Q2081.47 1317.11 2083.67 1316.67 Q2085.87 1316.2 2087.95 1316.2 Q2093.57 1316.2 2096.35 1319.12 Q2099.13 1322.04 2099.13 1327.96 Z" fill="#000000" fill-rule="nonzero" fill-opacity="1" /><path clip-path="url(#clip750)" d="M2104.85 1316.83 L2109.36 1316.83 L2117.46 1338.59 L2125.57 1316.83 L2130.08 1316.83 L2120.36 1342.76 L2114.57 1342.76 L2104.85 1316.83 Z" fill="#000000" fill-rule="nonzero" fill-opacity="1" /><path clip-path="url(#clip750)" d="M2135.96 1316.83 L2140.22 1316.83 L2140.22 1342.76 L2135.96 1342.76 L2135.96 1316.83 M2135.96 1306.74 L2140.22 1306.74 L2140.22 1312.13 L2135.96 1312.13 L2135.96 1306.74 Z" fill="#000000" fill-rule="nonzero" fill-opacity="1" /><path clip-path="url(#clip750)" d="M2159.18 1319.82 Q2155.75 1319.82 2153.76 1322.5 Q2151.77 1325.16 2151.77 1329.82 Q2151.77 1334.47 2153.74 1337.15 Q2155.73 1339.82 2159.18 1339.82 Q2162.58 1339.82 2164.57 1337.13 Q2166.56 1334.45 2166.56 1329.82 Q2166.56 1325.21 2164.57 1322.52 Q2162.58 1319.82 2159.18 1319.82 M2159.18 1316.2 Q2164.73 1316.2 2167.9 1319.82 Q2171.07 1323.43 2171.07 1329.82 Q2171.07 1336.18 2167.9 1339.82 Q2164.73 1343.43 2159.18 1343.43 Q2153.6 1343.43 2150.43 1339.82 Q2147.28 1336.18 2147.28 1329.82 Q2147.28 1323.43 2150.43 1319.82 Q2153.6 1316.2 2159.18 1316.2 Z" fill="#000000" fill-rule="nonzero" fill-opacity="1" /><path clip-path="url(#clip750)" d="M2177.69 1332.52 L2177.69 1316.83 L2181.95 1316.83 L2181.95 1332.36 Q2181.95 1336.04 2183.39 1337.89 Q2184.82 1339.72 2187.69 1339.72 Q2191.14 1339.72 2193.13 1337.52 Q2195.15 1335.32 2195.15 1331.53 L2195.15 1316.83 L2199.41 1316.83 L2199.41 1342.76 L2195.15 1342.76 L2195.15 1338.77 Q2193.6 1341.13 2191.54 1342.29 Q2189.5 1343.43 2186.79 1343.43 Q2182.32 1343.43 2180.01 1340.65 Q2177.69 1337.87 2177.69 1332.52 M2188.41 1316.2 L2188.41 1316.2 Z" fill="#000000" fill-rule="nonzero" fill-opacity="1" /><path clip-path="url(#clip750)" d="M2223.2 1320.81 Q2222.49 1320.39 2221.63 1320.21 Q2220.8 1320 2219.78 1320 Q2216.17 1320 2214.22 1322.36 Q2212.3 1324.7 2212.3 1329.1 L2212.3 1342.76 L2208.02 1342.76 L2208.02 1316.83 L2212.3 1316.83 L2212.3 1320.86 Q2213.64 1318.5 2215.8 1317.36 Q2217.95 1316.2 2221.03 1316.2 Q2221.47 1316.2 2222 1316.27 Q2222.53 1316.32 2223.18 1316.44 L2223.2 1320.81 Z" fill="#000000" fill-rule="nonzero" fill-opacity="1" /><path clip-path="url(#clip750)" d="M2239.45 1329.72 Q2234.29 1329.72 2232.3 1330.9 Q2230.31 1332.08 2230.31 1334.93 Q2230.31 1337.2 2231.79 1338.54 Q2233.3 1339.86 2235.87 1339.86 Q2239.41 1339.86 2241.54 1337.36 Q2243.69 1334.84 2243.69 1330.67 L2243.69 1329.72 L2239.45 1329.72 M2247.95 1327.96 L2247.95 1342.76 L2243.69 1342.76 L2243.69 1338.82 Q2242.23 1341.18 2240.06 1342.32 Q2237.88 1343.43 2234.73 1343.43 Q2230.75 1343.43 2228.39 1341.2 Q2226.05 1338.96 2226.05 1335.21 Q2226.05 1330.83 2228.97 1328.61 Q2231.91 1326.39 2237.72 1326.39 L2243.69 1326.39 L2243.69 1325.97 Q2243.69 1323.03 2241.75 1321.44 Q2239.82 1319.82 2236.33 1319.82 Q2234.11 1319.82 2232 1320.35 Q2229.89 1320.88 2227.95 1321.95 L2227.95 1318.01 Q2230.29 1317.11 2232.49 1316.67 Q2234.68 1316.2 2236.77 1316.2 Q2242.39 1316.2 2245.17 1319.12 Q2247.95 1322.04 2247.95 1327.96 Z" fill="#000000" fill-rule="nonzero" fill-opacity="1" /><path clip-path="url(#clip750)" d="M2256.72 1306.74 L2260.98 1306.74 L2260.98 1342.76 L2256.72 1342.76 L2256.72 1306.74 Z" fill="#000000" fill-rule="nonzero" fill-opacity="1" /></svg>
