<?xml version="1.0" encoding="utf-8"?>
<svg xmlns="http://www.w3.org/2000/svg" xmlns:xlink="http://www.w3.org/1999/xlink" width="600" height="400" viewBox="0 0 2400 1600">
<defs>
  <clipPath id="clip870">
    <rect x="0" y="0" width="2400" height="1600"/>
  </clipPath>
</defs>
<path clip-path="url(#clip870)" d="M0 1600 L2400 1600 L2400 0 L0 0  Z" fill="#ffffff" fill-rule="evenodd" fill-opacity="1"/>
<defs>
  <clipPath id="clip871">
    <rect x="480" y="0" width="1681" height="1600"/>
  </clipPath>
</defs>
<path clip-path="url(#clip870)" d="M257.955 1423.18 L2352.76 1423.18 L2352.76 123.472 L257.955 123.472  Z" fill="#ffffff" fill-rule="evenodd" fill-opacity="1"/>
<defs>
  <clipPath id="clip872">
    <rect x="257" y="123" width="2096" height="1301"/>
  </clipPath>
</defs>
<polyline clip-path="url(#clip872)" style="stroke:#000000; stroke-linecap:round; stroke-linejoin:round; stroke-width:2; stroke-opacity:0.1; fill:none" points="297.888,1423.18 297.888,123.472 "/>
<polyline clip-path="url(#clip872)" style="stroke:#000000; stroke-linecap:round; stroke-linejoin:round; stroke-width:2; stroke-opacity:0.1; fill:none" points="804.613,1423.18 804.613,123.472 "/>
<polyline clip-path="url(#clip872)" style="stroke:#000000; stroke-linecap:round; stroke-linejoin:round; stroke-width:2; stroke-opacity:0.1; fill:none" points="1316.97,1423.18 1316.97,123.472 "/>
<polyline clip-path="url(#clip872)" style="stroke:#000000; stroke-linecap:round; stroke-linejoin:round; stroke-width:2; stroke-opacity:0.1; fill:none" points="1834.95,1423.18 1834.95,123.472 "/>
<polyline clip-path="url(#clip872)" style="stroke:#000000; stroke-linecap:round; stroke-linejoin:round; stroke-width:2; stroke-opacity:0.05; fill:none" points="399.233,1423.18 399.233,123.472 "/>
<polyline clip-path="url(#clip872)" style="stroke:#000000; stroke-linecap:round; stroke-linejoin:round; stroke-width:2; stroke-opacity:0.05; fill:none" points="500.578,1423.18 500.578,123.472 "/>
<polyline clip-path="url(#clip872)" style="stroke:#000000; stroke-linecap:round; stroke-linejoin:round; stroke-width:2; stroke-opacity:0.05; fill:none" points="601.923,1423.18 601.923,123.472 "/>
<polyline clip-path="url(#clip872)" style="stroke:#000000; stroke-linecap:round; stroke-linejoin:round; stroke-width:2; stroke-opacity:0.05; fill:none" points="703.268,1423.18 703.268,123.472 "/>
<polyline clip-path="url(#clip872)" style="stroke:#000000; stroke-linecap:round; stroke-linejoin:round; stroke-width:2; stroke-opacity:0.05; fill:none" points="907.084,1423.18 907.084,123.472 "/>
<polyline clip-path="url(#clip872)" style="stroke:#000000; stroke-linecap:round; stroke-linejoin:round; stroke-width:2; stroke-opacity:0.05; fill:none" points="1009.55,1423.18 1009.55,123.472 "/>
<polyline clip-path="url(#clip872)" style="stroke:#000000; stroke-linecap:round; stroke-linejoin:round; stroke-width:2; stroke-opacity:0.05; fill:none" points="1112.03,1423.18 1112.03,123.472 "/>
<polyline clip-path="url(#clip872)" style="stroke:#000000; stroke-linecap:round; stroke-linejoin:round; stroke-width:2; stroke-opacity:0.05; fill:none" points="1214.5,1423.18 1214.5,123.472 "/>
<polyline clip-path="url(#clip872)" style="stroke:#000000; stroke-linecap:round; stroke-linejoin:round; stroke-width:2; stroke-opacity:0.05; fill:none" points="1420.56,1423.18 1420.56,123.472 "/>
<polyline clip-path="url(#clip872)" style="stroke:#000000; stroke-linecap:round; stroke-linejoin:round; stroke-width:2; stroke-opacity:0.05; fill:none" points="1524.16,1423.18 1524.16,123.472 "/>
<polyline clip-path="url(#clip872)" style="stroke:#000000; stroke-linecap:round; stroke-linejoin:round; stroke-width:2; stroke-opacity:0.05; fill:none" points="1627.76,1423.18 1627.76,123.472 "/>
<polyline clip-path="url(#clip872)" style="stroke:#000000; stroke-linecap:round; stroke-linejoin:round; stroke-width:2; stroke-opacity:0.05; fill:none" points="1731.36,1423.18 1731.36,123.472 "/>
<polyline clip-path="url(#clip872)" style="stroke:#000000; stroke-linecap:round; stroke-linejoin:round; stroke-width:2; stroke-opacity:0.05; fill:none" points="1939.7,1423.18 1939.7,123.472 "/>
<polyline clip-path="url(#clip872)" style="stroke:#000000; stroke-linecap:round; stroke-linejoin:round; stroke-width:2; stroke-opacity:0.05; fill:none" points="2044.45,1423.18 2044.45,123.472 "/>
<polyline clip-path="url(#clip872)" style="stroke:#000000; stroke-linecap:round; stroke-linejoin:round; stroke-width:2; stroke-opacity:0.05; fill:none" points="2149.2,1423.18 2149.2,123.472 "/>
<polyline clip-path="url(#clip872)" style="stroke:#000000; stroke-linecap:round; stroke-linejoin:round; stroke-width:2; stroke-opacity:0.05; fill:none" points="2253.95,1423.18 2253.95,123.472 "/>
<polyline clip-path="url(#clip870)" style="stroke:#000000; stroke-linecap:round; stroke-linejoin:round; stroke-width:4; stroke-opacity:1; fill:none" points="257.955,1423.18 2352.76,1423.18 "/>
<polyline clip-path="url(#clip870)" style="stroke:#000000; stroke-linecap:round; stroke-linejoin:round; stroke-width:4; stroke-opacity:1; fill:none" points="297.888,1423.18 297.888,1404.28 "/>
<polyline clip-path="url(#clip870)" style="stroke:#000000; stroke-linecap:round; stroke-linejoin:round; stroke-width:4; stroke-opacity:1; fill:none" points="804.613,1423.18 804.613,1404.28 "/>
<polyline clip-path="url(#clip870)" style="stroke:#000000; stroke-linecap:round; stroke-linejoin:round; stroke-width:4; stroke-opacity:1; fill:none" points="1316.97,1423.18 1316.97,1404.28 "/>
<polyline clip-path="url(#clip870)" style="stroke:#000000; stroke-linecap:round; stroke-linejoin:round; stroke-width:4; stroke-opacity:1; fill:none" points="1834.95,1423.18 1834.95,1404.28 "/>
<polyline clip-path="url(#clip870)" style="stroke:#000000; stroke-linecap:round; stroke-linejoin:round; stroke-width:4; stroke-opacity:1; fill:none" points="399.233,1423.18 399.233,1413.73 "/>
<polyline clip-path="url(#clip870)" style="stroke:#000000; stroke-linecap:round; stroke-linejoin:round; stroke-width:4; stroke-opacity:1; fill:none" points="500.578,1423.18 500.578,1413.73 "/>
<polyline clip-path="url(#clip870)" style="stroke:#000000; stroke-linecap:round; stroke-linejoin:round; stroke-width:4; stroke-opacity:1; fill:none" points="601.923,1423.18 601.923,1413.73 "/>
<polyline clip-path="url(#clip870)" style="stroke:#000000; stroke-linecap:round; stroke-linejoin:round; stroke-width:4; stroke-opacity:1; fill:none" points="703.268,1423.18 703.268,1413.73 "/>
<polyline clip-path="url(#clip870)" style="stroke:#000000; stroke-linecap:round; stroke-linejoin:round; stroke-width:4; stroke-opacity:1; fill:none" points="907.084,1423.18 907.084,1413.73 "/>
<polyline clip-path="url(#clip870)" style="stroke:#000000; stroke-linecap:round; stroke-linejoin:round; stroke-width:4; stroke-opacity:1; fill:none" points="1009.55,1423.18 1009.55,1413.73 "/>
<polyline clip-path="url(#clip870)" style="stroke:#000000; stroke-linecap:round; stroke-linejoin:round; stroke-width:4; stroke-opacity:1; fill:none" points="1112.03,1423.18 1112.03,1413.73 "/>
<polyline clip-path="url(#clip870)" style="stroke:#000000; stroke-linecap:round; stroke-linejoin:round; stroke-width:4; stroke-opacity:1; fill:none" points="1214.5,1423.18 1214.5,1413.73 "/>
<polyline clip-path="url(#clip870)" style="stroke:#000000; stroke-linecap:round; stroke-linejoin:round; stroke-width:4; stroke-opacity:1; fill:none" points="1420.56,1423.18 1420.56,1413.73 "/>
<polyline clip-path="url(#clip870)" style="stroke:#000000; stroke-linecap:round; stroke-linejoin:round; stroke-width:4; stroke-opacity:1; fill:none" points="1524.16,1423.18 1524.16,1413.73 "/>
<polyline clip-path="url(#clip870)" style="stroke:#000000; stroke-linecap:round; stroke-linejoin:round; stroke-width:4; stroke-opacity:1; fill:none" points="1627.76,1423.18 1627.76,1413.73 "/>
<polyline clip-path="url(#clip870)" style="stroke:#000000; stroke-linecap:round; stroke-linejoin:round; stroke-width:4; stroke-opacity:1; fill:none" points="1731.36,1423.18 1731.36,1413.73 "/>
<polyline clip-path="url(#clip870)" style="stroke:#000000; stroke-linecap:round; stroke-linejoin:round; stroke-width:4; stroke-opacity:1; fill:none" points="1939.7,1423.18 1939.7,1413.73 "/>
<polyline clip-path="url(#clip870)" style="stroke:#000000; stroke-linecap:round; stroke-linejoin:round; stroke-width:4; stroke-opacity:1; fill:none" points="2044.45,1423.18 2044.45,1413.73 "/>
<polyline clip-path="url(#clip870)" style="stroke:#000000; stroke-linecap:round; stroke-linejoin:round; stroke-width:4; stroke-opacity:1; fill:none" points="2149.2,1423.18 2149.2,1413.73 "/>
<polyline clip-path="url(#clip870)" style="stroke:#000000; stroke-linecap:round; stroke-linejoin:round; stroke-width:4; stroke-opacity:1; fill:none" points="2253.95,1423.18 2253.95,1413.73 "/>
<path clip-path="url(#clip870)" d="M169.682 1481.64 L186.002 1481.64 L186.002 1485.58 L164.057 1485.58 L164.057 1481.64 Q166.719 1478.89 171.303 1474.26 Q175.909 1469.61 177.09 1468.27 Q179.335 1465.74 180.215 1464.01 Q181.117 1462.25 181.117 1460.56 Q181.117 1457.8 179.173 1456.07 Q177.252 1454.33 174.15 1454.33 Q171.951 1454.33 169.497 1455.09 Q167.067 1455.86 164.289 1457.41 L164.289 1452.69 Q167.113 1451.55 169.567 1450.97 Q172.02 1450.39 174.057 1450.39 Q179.428 1450.39 182.622 1453.08 Q185.816 1455.77 185.816 1460.26 Q185.816 1462.39 185.006 1464.31 Q184.219 1466.2 182.113 1468.8 Q181.534 1469.47 178.432 1472.69 Q175.33 1475.88 169.682 1481.64 Z" fill="#000000" fill-rule="nonzero" fill-opacity="1" /><path clip-path="url(#clip870)" d="M205.816 1454.1 Q202.205 1454.1 200.377 1457.66 Q198.571 1461.2 198.571 1468.33 Q198.571 1475.44 200.377 1479.01 Q202.205 1482.55 205.816 1482.55 Q209.451 1482.55 211.256 1479.01 Q213.085 1475.44 213.085 1468.33 Q213.085 1461.2 211.256 1457.66 Q209.451 1454.1 205.816 1454.1 M205.816 1450.39 Q211.627 1450.39 214.682 1455 Q217.761 1459.58 217.761 1468.33 Q217.761 1477.06 214.682 1481.67 Q211.627 1486.25 205.816 1486.25 Q200.006 1486.25 196.928 1481.67 Q193.872 1477.06 193.872 1468.33 Q193.872 1459.58 196.928 1455 Q200.006 1450.39 205.816 1450.39 Z" fill="#000000" fill-rule="nonzero" fill-opacity="1" /><path clip-path="url(#clip870)" d="M230.006 1481.64 L246.325 1481.64 L246.325 1485.58 L224.381 1485.58 L224.381 1481.64 Q227.043 1478.89 231.626 1474.26 Q236.233 1469.61 237.413 1468.27 Q239.659 1465.74 240.538 1464.01 Q241.441 1462.25 241.441 1460.56 Q241.441 1457.8 239.497 1456.07 Q237.575 1454.33 234.474 1454.33 Q232.275 1454.33 229.821 1455.09 Q227.39 1455.86 224.613 1457.41 L224.613 1452.69 Q227.437 1451.55 229.89 1450.97 Q232.344 1450.39 234.381 1450.39 Q239.751 1450.39 242.946 1453.08 Q246.14 1455.77 246.14 1460.26 Q246.14 1462.39 245.33 1464.31 Q244.543 1466.2 242.437 1468.8 Q241.858 1469.47 238.756 1472.69 Q235.654 1475.88 230.006 1481.64 Z" fill="#000000" fill-rule="nonzero" fill-opacity="1" /><path clip-path="url(#clip870)" d="M256.95 1481.64 L264.589 1481.64 L264.589 1455.28 L256.279 1456.95 L256.279 1452.69 L264.543 1451.02 L269.219 1451.02 L269.219 1481.64 L276.858 1481.64 L276.858 1485.58 L256.95 1485.58 L256.95 1481.64 Z" fill="#000000" fill-rule="nonzero" fill-opacity="1" /><path clip-path="url(#clip870)" d="M283.547 1470.7 L296.024 1470.7 L296.024 1474.49 L283.547 1474.49 L283.547 1470.7 Z" fill="#000000" fill-rule="nonzero" fill-opacity="1" /><path clip-path="url(#clip870)" d="M313.408 1454.1 Q309.797 1454.1 307.969 1457.66 Q306.163 1461.2 306.163 1468.33 Q306.163 1475.44 307.969 1479.01 Q309.797 1482.55 313.408 1482.55 Q317.043 1482.55 318.848 1479.01 Q320.677 1475.44 320.677 1468.33 Q320.677 1461.2 318.848 1457.66 Q317.043 1454.1 313.408 1454.1 M313.408 1450.39 Q319.219 1450.39 322.274 1455 Q325.353 1459.58 325.353 1468.33 Q325.353 1477.06 322.274 1481.67 Q319.219 1486.25 313.408 1486.25 Q307.598 1486.25 304.52 1481.67 Q301.464 1477.06 301.464 1468.33 Q301.464 1459.58 304.52 1455 Q307.598 1450.39 313.408 1450.39 Z" fill="#000000" fill-rule="nonzero" fill-opacity="1" /><path clip-path="url(#clip870)" d="M334.38 1481.64 L342.019 1481.64 L342.019 1455.28 L333.709 1456.95 L333.709 1452.69 L341.973 1451.02 L346.649 1451.02 L346.649 1481.64 L354.288 1481.64 L354.288 1485.58 L334.38 1485.58 L334.38 1481.64 Z" fill="#000000" fill-rule="nonzero" fill-opacity="1" /><path clip-path="url(#clip870)" d="M360.978 1470.7 L373.454 1470.7 L373.454 1474.49 L360.978 1474.49 L360.978 1470.7 Z" fill="#000000" fill-rule="nonzero" fill-opacity="1" /><path clip-path="url(#clip870)" d="M390.839 1454.1 Q387.227 1454.1 385.399 1457.66 Q383.593 1461.2 383.593 1468.33 Q383.593 1475.44 385.399 1479.01 Q387.227 1482.55 390.839 1482.55 Q394.473 1482.55 396.278 1479.01 Q398.107 1475.44 398.107 1468.33 Q398.107 1461.2 396.278 1457.66 Q394.473 1454.1 390.839 1454.1 M390.839 1450.39 Q396.649 1450.39 399.704 1455 Q402.783 1459.58 402.783 1468.33 Q402.783 1477.06 399.704 1481.67 Q396.649 1486.25 390.839 1486.25 Q385.028 1486.25 381.95 1481.67 Q378.894 1477.06 378.894 1468.33 Q378.894 1459.58 381.95 1455 Q385.028 1450.39 390.839 1450.39 Z" fill="#000000" fill-rule="nonzero" fill-opacity="1" /><path clip-path="url(#clip870)" d="M411.811 1481.64 L419.449 1481.64 L419.449 1455.28 L411.139 1456.95 L411.139 1452.69 L419.403 1451.02 L424.079 1451.02 L424.079 1481.64 L431.718 1481.64 L431.718 1485.58 L411.811 1485.58 L411.811 1481.64 Z" fill="#000000" fill-rule="nonzero" fill-opacity="1" /><path clip-path="url(#clip870)" d="M676.407 1481.64 L692.727 1481.64 L692.727 1485.58 L670.782 1485.58 L670.782 1481.64 Q673.444 1478.89 678.028 1474.26 Q682.634 1469.61 683.815 1468.27 Q686.06 1465.74 686.94 1464.01 Q687.842 1462.25 687.842 1460.56 Q687.842 1457.8 685.898 1456.07 Q683.977 1454.33 680.875 1454.33 Q678.676 1454.33 676.222 1455.09 Q673.792 1455.86 671.014 1457.41 L671.014 1452.69 Q673.838 1451.55 676.292 1450.97 Q678.745 1450.39 680.782 1450.39 Q686.153 1450.39 689.347 1453.08 Q692.541 1455.77 692.541 1460.26 Q692.541 1462.39 691.731 1464.31 Q690.944 1466.2 688.838 1468.8 Q688.259 1469.47 685.157 1472.69 Q682.055 1475.88 676.407 1481.64 Z" fill="#000000" fill-rule="nonzero" fill-opacity="1" /><path clip-path="url(#clip870)" d="M712.541 1454.1 Q708.93 1454.1 707.102 1457.66 Q705.296 1461.2 705.296 1468.33 Q705.296 1475.44 707.102 1479.01 Q708.93 1482.55 712.541 1482.55 Q716.176 1482.55 717.981 1479.01 Q719.81 1475.44 719.81 1468.33 Q719.81 1461.2 717.981 1457.66 Q716.176 1454.1 712.541 1454.1 M712.541 1450.39 Q718.351 1450.39 721.407 1455 Q724.486 1459.58 724.486 1468.33 Q724.486 1477.06 721.407 1481.67 Q718.351 1486.25 712.541 1486.25 Q706.731 1486.25 703.652 1481.67 Q700.597 1477.06 700.597 1468.33 Q700.597 1459.58 703.652 1455 Q706.731 1450.39 712.541 1450.39 Z" fill="#000000" fill-rule="nonzero" fill-opacity="1" /><path clip-path="url(#clip870)" d="M736.731 1481.64 L753.05 1481.64 L753.05 1485.58 L731.106 1485.58 L731.106 1481.64 Q733.768 1478.89 738.351 1474.26 Q742.958 1469.61 744.138 1468.27 Q746.384 1465.74 747.263 1464.01 Q748.166 1462.25 748.166 1460.56 Q748.166 1457.8 746.222 1456.07 Q744.3 1454.33 741.199 1454.33 Q739 1454.33 736.546 1455.09 Q734.115 1455.86 731.338 1457.41 L731.338 1452.69 Q734.162 1451.55 736.615 1450.97 Q739.069 1450.39 741.106 1450.39 Q746.476 1450.39 749.671 1453.08 Q752.865 1455.77 752.865 1460.26 Q752.865 1462.39 752.055 1464.31 Q751.268 1466.2 749.162 1468.8 Q748.583 1469.47 745.481 1472.69 Q742.379 1475.88 736.731 1481.64 Z" fill="#000000" fill-rule="nonzero" fill-opacity="1" /><path clip-path="url(#clip870)" d="M763.675 1481.64 L771.314 1481.64 L771.314 1455.28 L763.004 1456.95 L763.004 1452.69 L771.268 1451.02 L775.944 1451.02 L775.944 1481.64 L783.583 1481.64 L783.583 1485.58 L763.675 1485.58 L763.675 1481.64 Z" fill="#000000" fill-rule="nonzero" fill-opacity="1" /><path clip-path="url(#clip870)" d="M790.272 1470.7 L802.749 1470.7 L802.749 1474.49 L790.272 1474.49 L790.272 1470.7 Z" fill="#000000" fill-rule="nonzero" fill-opacity="1" /><path clip-path="url(#clip870)" d="M820.133 1454.1 Q816.522 1454.1 814.694 1457.66 Q812.888 1461.2 812.888 1468.33 Q812.888 1475.44 814.694 1479.01 Q816.522 1482.55 820.133 1482.55 Q823.768 1482.55 825.573 1479.01 Q827.402 1475.44 827.402 1468.33 Q827.402 1461.2 825.573 1457.66 Q823.768 1454.1 820.133 1454.1 M820.133 1450.39 Q825.944 1450.39 828.999 1455 Q832.078 1459.58 832.078 1468.33 Q832.078 1477.06 828.999 1481.67 Q825.944 1486.25 820.133 1486.25 Q814.323 1486.25 811.245 1481.67 Q808.189 1477.06 808.189 1468.33 Q808.189 1459.58 811.245 1455 Q814.323 1450.39 820.133 1450.39 Z" fill="#000000" fill-rule="nonzero" fill-opacity="1" /><path clip-path="url(#clip870)" d="M853.142 1455.09 L841.337 1473.54 L853.142 1473.54 L853.142 1455.09 M851.916 1451.02 L857.795 1451.02 L857.795 1473.54 L862.726 1473.54 L862.726 1477.43 L857.795 1477.43 L857.795 1485.58 L853.142 1485.58 L853.142 1477.43 L837.541 1477.43 L837.541 1472.92 L851.916 1451.02 Z" fill="#000000" fill-rule="nonzero" fill-opacity="1" /><path clip-path="url(#clip870)" d="M867.703 1470.7 L880.179 1470.7 L880.179 1474.49 L867.703 1474.49 L867.703 1470.7 Z" fill="#000000" fill-rule="nonzero" fill-opacity="1" /><path clip-path="url(#clip870)" d="M897.563 1454.1 Q893.952 1454.1 892.124 1457.66 Q890.318 1461.2 890.318 1468.33 Q890.318 1475.44 892.124 1479.01 Q893.952 1482.55 897.563 1482.55 Q901.198 1482.55 903.003 1479.01 Q904.832 1475.44 904.832 1468.33 Q904.832 1461.2 903.003 1457.66 Q901.198 1454.1 897.563 1454.1 M897.563 1450.39 Q903.374 1450.39 906.429 1455 Q909.508 1459.58 909.508 1468.33 Q909.508 1477.06 906.429 1481.67 Q903.374 1486.25 897.563 1486.25 Q891.753 1486.25 888.675 1481.67 Q885.619 1477.06 885.619 1468.33 Q885.619 1459.58 888.675 1455 Q891.753 1450.39 897.563 1450.39 Z" fill="#000000" fill-rule="nonzero" fill-opacity="1" /><path clip-path="url(#clip870)" d="M918.536 1481.64 L926.174 1481.64 L926.174 1455.28 L917.864 1456.95 L917.864 1452.69 L926.128 1451.02 L930.804 1451.02 L930.804 1481.64 L938.443 1481.64 L938.443 1485.58 L918.536 1485.58 L918.536 1481.64 Z" fill="#000000" fill-rule="nonzero" fill-opacity="1" /><path clip-path="url(#clip870)" d="M1188.76 1481.64 L1205.08 1481.64 L1205.08 1485.58 L1183.14 1485.58 L1183.14 1481.64 Q1185.8 1478.89 1190.38 1474.26 Q1194.99 1469.61 1196.17 1468.27 Q1198.42 1465.74 1199.29 1464.01 Q1200.2 1462.25 1200.2 1460.56 Q1200.2 1457.8 1198.25 1456.07 Q1196.33 1454.33 1193.23 1454.33 Q1191.03 1454.33 1188.58 1455.09 Q1186.15 1455.86 1183.37 1457.41 L1183.37 1452.69 Q1186.19 1451.55 1188.65 1450.97 Q1191.1 1450.39 1193.14 1450.39 Q1198.51 1450.39 1201.7 1453.08 Q1204.9 1455.77 1204.9 1460.26 Q1204.9 1462.39 1204.09 1464.31 Q1203.3 1466.2 1201.19 1468.8 Q1200.61 1469.47 1197.51 1472.69 Q1194.41 1475.88 1188.76 1481.64 Z" fill="#000000" fill-rule="nonzero" fill-opacity="1" /><path clip-path="url(#clip870)" d="M1224.9 1454.1 Q1221.29 1454.1 1219.46 1457.66 Q1217.65 1461.2 1217.65 1468.33 Q1217.65 1475.44 1219.46 1479.01 Q1221.29 1482.55 1224.9 1482.55 Q1228.53 1482.55 1230.34 1479.01 Q1232.17 1475.44 1232.17 1468.33 Q1232.17 1461.2 1230.34 1457.66 Q1228.53 1454.1 1224.9 1454.1 M1224.9 1450.39 Q1230.71 1450.39 1233.76 1455 Q1236.84 1459.58 1236.84 1468.33 Q1236.84 1477.06 1233.76 1481.67 Q1230.71 1486.25 1224.9 1486.25 Q1219.09 1486.25 1216.01 1481.67 Q1212.95 1477.06 1212.95 1468.33 Q1212.95 1459.58 1216.01 1455 Q1219.09 1450.39 1224.9 1450.39 Z" fill="#000000" fill-rule="nonzero" fill-opacity="1" /><path clip-path="url(#clip870)" d="M1249.09 1481.64 L1265.41 1481.64 L1265.41 1485.58 L1243.46 1485.58 L1243.46 1481.64 Q1246.12 1478.89 1250.71 1474.26 Q1255.31 1469.61 1256.49 1468.27 Q1258.74 1465.74 1259.62 1464.01 Q1260.52 1462.25 1260.52 1460.56 Q1260.52 1457.8 1258.58 1456.07 Q1256.66 1454.33 1253.55 1454.33 Q1251.35 1454.33 1248.9 1455.09 Q1246.47 1455.86 1243.69 1457.41 L1243.69 1452.69 Q1246.52 1451.55 1248.97 1450.97 Q1251.42 1450.39 1253.46 1450.39 Q1258.83 1450.39 1262.03 1453.08 Q1265.22 1455.77 1265.22 1460.26 Q1265.22 1462.39 1264.41 1464.31 Q1263.62 1466.2 1261.52 1468.8 Q1260.94 1469.47 1257.84 1472.69 Q1254.73 1475.88 1249.09 1481.64 Z" fill="#000000" fill-rule="nonzero" fill-opacity="1" /><path clip-path="url(#clip870)" d="M1276.03 1481.64 L1283.67 1481.64 L1283.67 1455.28 L1275.36 1456.95 L1275.36 1452.69 L1283.62 1451.02 L1288.3 1451.02 L1288.3 1481.64 L1295.94 1481.64 L1295.94 1485.58 L1276.03 1485.58 L1276.03 1481.64 Z" fill="#000000" fill-rule="nonzero" fill-opacity="1" /><path clip-path="url(#clip870)" d="M1302.63 1470.7 L1315.1 1470.7 L1315.1 1474.49 L1302.63 1474.49 L1302.63 1470.7 Z" fill="#000000" fill-rule="nonzero" fill-opacity="1" /><path clip-path="url(#clip870)" d="M1332.49 1454.1 Q1328.88 1454.1 1327.05 1457.66 Q1325.24 1461.2 1325.24 1468.33 Q1325.24 1475.44 1327.05 1479.01 Q1328.88 1482.55 1332.49 1482.55 Q1336.12 1482.55 1337.93 1479.01 Q1339.76 1475.44 1339.76 1468.33 Q1339.76 1461.2 1337.93 1457.66 Q1336.12 1454.1 1332.49 1454.1 M1332.49 1450.39 Q1338.3 1450.39 1341.35 1455 Q1344.43 1459.58 1344.43 1468.33 Q1344.43 1477.06 1341.35 1481.67 Q1338.3 1486.25 1332.49 1486.25 Q1326.68 1486.25 1323.6 1481.67 Q1320.54 1477.06 1320.54 1468.33 Q1320.54 1459.58 1323.6 1455 Q1326.68 1450.39 1332.49 1450.39 Z" fill="#000000" fill-rule="nonzero" fill-opacity="1" /><path clip-path="url(#clip870)" d="M1351.47 1451.02 L1373.69 1451.02 L1373.69 1453.01 L1361.15 1485.58 L1356.26 1485.58 L1368.07 1454.96 L1351.47 1454.96 L1351.47 1451.02 Z" fill="#000000" fill-rule="nonzero" fill-opacity="1" /><path clip-path="url(#clip870)" d="M1380.06 1470.7 L1392.53 1470.7 L1392.53 1474.49 L1380.06 1474.49 L1380.06 1470.7 Z" fill="#000000" fill-rule="nonzero" fill-opacity="1" /><path clip-path="url(#clip870)" d="M1409.92 1454.1 Q1406.31 1454.1 1404.48 1457.66 Q1402.67 1461.2 1402.67 1468.33 Q1402.67 1475.44 1404.48 1479.01 Q1406.31 1482.55 1409.92 1482.55 Q1413.55 1482.55 1415.36 1479.01 Q1417.19 1475.44 1417.19 1468.33 Q1417.19 1461.2 1415.36 1457.66 Q1413.55 1454.1 1409.92 1454.1 M1409.92 1450.39 Q1415.73 1450.39 1418.78 1455 Q1421.86 1459.58 1421.86 1468.33 Q1421.86 1477.06 1418.78 1481.67 Q1415.73 1486.25 1409.92 1486.25 Q1404.11 1486.25 1401.03 1481.67 Q1397.97 1477.06 1397.97 1468.33 Q1397.97 1459.58 1401.03 1455 Q1404.11 1450.39 1409.92 1450.39 Z" fill="#000000" fill-rule="nonzero" fill-opacity="1" /><path clip-path="url(#clip870)" d="M1430.89 1481.64 L1438.53 1481.64 L1438.53 1455.28 L1430.22 1456.95 L1430.22 1452.69 L1438.48 1451.02 L1443.16 1451.02 L1443.16 1481.64 L1450.8 1481.64 L1450.8 1485.58 L1430.89 1485.58 L1430.89 1481.64 Z" fill="#000000" fill-rule="nonzero" fill-opacity="1" /><path clip-path="url(#clip870)" d="M1706.75 1481.64 L1723.07 1481.64 L1723.07 1485.58 L1701.12 1485.58 L1701.12 1481.64 Q1703.79 1478.89 1708.37 1474.26 Q1712.97 1469.61 1714.16 1468.27 Q1716.4 1465.74 1717.28 1464.01 Q1718.18 1462.25 1718.18 1460.56 Q1718.18 1457.8 1716.24 1456.07 Q1714.32 1454.33 1711.22 1454.33 Q1709.02 1454.33 1706.56 1455.09 Q1704.13 1455.86 1701.35 1457.41 L1701.35 1452.69 Q1704.18 1451.55 1706.63 1450.97 Q1709.09 1450.39 1711.12 1450.39 Q1716.49 1450.39 1719.69 1453.08 Q1722.88 1455.77 1722.88 1460.26 Q1722.88 1462.39 1722.07 1464.31 Q1721.28 1466.2 1719.18 1468.8 Q1718.6 1469.47 1715.5 1472.69 Q1712.4 1475.88 1706.75 1481.64 Z" fill="#000000" fill-rule="nonzero" fill-opacity="1" /><path clip-path="url(#clip870)" d="M1742.88 1454.1 Q1739.27 1454.1 1737.44 1457.66 Q1735.64 1461.2 1735.64 1468.33 Q1735.64 1475.44 1737.44 1479.01 Q1739.27 1482.55 1742.88 1482.55 Q1746.52 1482.55 1748.32 1479.01 Q1750.15 1475.44 1750.15 1468.33 Q1750.15 1461.2 1748.32 1457.66 Q1746.52 1454.1 1742.88 1454.1 M1742.88 1450.39 Q1748.69 1450.39 1751.75 1455 Q1754.83 1459.58 1754.83 1468.33 Q1754.83 1477.06 1751.75 1481.67 Q1748.69 1486.25 1742.88 1486.25 Q1737.07 1486.25 1733.99 1481.67 Q1730.94 1477.06 1730.94 1468.33 Q1730.94 1459.58 1733.99 1455 Q1737.07 1450.39 1742.88 1450.39 Z" fill="#000000" fill-rule="nonzero" fill-opacity="1" /><path clip-path="url(#clip870)" d="M1767.07 1481.64 L1783.39 1481.64 L1783.39 1485.58 L1761.45 1485.58 L1761.45 1481.64 Q1764.11 1478.89 1768.69 1474.26 Q1773.3 1469.61 1774.48 1468.27 Q1776.72 1465.74 1777.6 1464.01 Q1778.51 1462.25 1778.51 1460.56 Q1778.51 1457.8 1776.56 1456.07 Q1774.64 1454.33 1771.54 1454.33 Q1769.34 1454.33 1766.89 1455.09 Q1764.46 1455.86 1761.68 1457.41 L1761.68 1452.69 Q1764.5 1451.55 1766.96 1450.97 Q1769.41 1450.39 1771.45 1450.39 Q1776.82 1450.39 1780.01 1453.08 Q1783.21 1455.77 1783.21 1460.26 Q1783.21 1462.39 1782.4 1464.31 Q1781.61 1466.2 1779.5 1468.8 Q1778.92 1469.47 1775.82 1472.69 Q1772.72 1475.88 1767.07 1481.64 Z" fill="#000000" fill-rule="nonzero" fill-opacity="1" /><path clip-path="url(#clip870)" d="M1794.02 1481.64 L1801.65 1481.64 L1801.65 1455.28 L1793.34 1456.95 L1793.34 1452.69 L1801.61 1451.02 L1806.28 1451.02 L1806.28 1481.64 L1813.92 1481.64 L1813.92 1485.58 L1794.02 1485.58 L1794.02 1481.64 Z" fill="#000000" fill-rule="nonzero" fill-opacity="1" /><path clip-path="url(#clip870)" d="M1820.61 1470.7 L1833.09 1470.7 L1833.09 1474.49 L1820.61 1474.49 L1820.61 1470.7 Z" fill="#000000" fill-rule="nonzero" fill-opacity="1" /><path clip-path="url(#clip870)" d="M1841.28 1481.64 L1848.92 1481.64 L1848.92 1455.28 L1840.61 1456.95 L1840.61 1452.69 L1848.88 1451.02 L1853.55 1451.02 L1853.55 1481.64 L1861.19 1481.64 L1861.19 1485.58 L1841.28 1485.58 L1841.28 1481.64 Z" fill="#000000" fill-rule="nonzero" fill-opacity="1" /><path clip-path="url(#clip870)" d="M1880.64 1454.1 Q1877.02 1454.1 1875.2 1457.66 Q1873.39 1461.2 1873.39 1468.33 Q1873.39 1475.44 1875.2 1479.01 Q1877.02 1482.55 1880.64 1482.55 Q1884.27 1482.55 1886.08 1479.01 Q1887.9 1475.44 1887.9 1468.33 Q1887.9 1461.2 1886.08 1457.66 Q1884.27 1454.1 1880.64 1454.1 M1880.64 1450.39 Q1886.45 1450.39 1889.5 1455 Q1892.58 1459.58 1892.58 1468.33 Q1892.58 1477.06 1889.5 1481.67 Q1886.45 1486.25 1880.64 1486.25 Q1874.83 1486.25 1871.75 1481.67 Q1868.69 1477.06 1868.69 1468.33 Q1868.69 1459.58 1871.75 1455 Q1874.83 1450.39 1880.64 1450.39 Z" fill="#000000" fill-rule="nonzero" fill-opacity="1" /><path clip-path="url(#clip870)" d="M1898.04 1470.7 L1910.52 1470.7 L1910.52 1474.49 L1898.04 1474.49 L1898.04 1470.7 Z" fill="#000000" fill-rule="nonzero" fill-opacity="1" /><path clip-path="url(#clip870)" d="M1927.9 1454.1 Q1924.29 1454.1 1922.46 1457.66 Q1920.66 1461.2 1920.66 1468.33 Q1920.66 1475.44 1922.46 1479.01 Q1924.29 1482.55 1927.9 1482.55 Q1931.54 1482.55 1933.34 1479.01 Q1935.17 1475.44 1935.17 1468.33 Q1935.17 1461.2 1933.34 1457.66 Q1931.54 1454.1 1927.9 1454.1 M1927.9 1450.39 Q1933.71 1450.39 1936.77 1455 Q1939.85 1459.58 1939.85 1468.33 Q1939.85 1477.06 1936.77 1481.67 Q1933.71 1486.25 1927.9 1486.25 Q1922.09 1486.25 1919.02 1481.67 Q1915.96 1477.06 1915.96 1468.33 Q1915.96 1459.58 1919.02 1455 Q1922.09 1450.39 1927.9 1450.39 Z" fill="#000000" fill-rule="nonzero" fill-opacity="1" /><path clip-path="url(#clip870)" d="M1948.88 1481.64 L1956.52 1481.64 L1956.52 1455.28 L1948.21 1456.95 L1948.21 1452.69 L1956.47 1451.02 L1961.14 1451.02 L1961.14 1481.64 L1968.78 1481.64 L1968.78 1485.58 L1948.88 1485.58 L1948.88 1481.64 Z" fill="#000000" fill-rule="nonzero" fill-opacity="1" /><path clip-path="url(#clip870)" d="M1261.4 1537.81 L1261.4 1518.52 L1267.26 1518.52 L1267.26 1568.04 L1261.4 1568.04 L1261.4 1562.7 Q1259.55 1565.88 1256.72 1567.44 Q1253.92 1568.97 1249.97 1568.97 Q1243.51 1568.97 1239.44 1563.81 Q1235.4 1558.65 1235.4 1550.25 Q1235.4 1541.85 1239.44 1536.69 Q1243.51 1531.54 1249.97 1531.54 Q1253.92 1531.54 1256.72 1533.1 Q1259.55 1534.62 1261.4 1537.81 M1241.44 1550.25 Q1241.44 1556.71 1244.09 1560.4 Q1246.76 1564.07 1251.41 1564.07 Q1256.05 1564.07 1258.73 1560.4 Q1261.4 1556.71 1261.4 1550.25 Q1261.4 1543.79 1258.73 1540.13 Q1256.05 1536.44 1251.41 1536.44 Q1246.76 1536.44 1244.09 1540.13 Q1241.44 1543.79 1241.44 1550.25 Z" fill="#000000" fill-rule="nonzero" fill-opacity="1" /><path clip-path="url(#clip870)" d="M1295.52 1550.12 Q1288.42 1550.12 1285.69 1551.75 Q1282.95 1553.37 1282.95 1557.29 Q1282.95 1560.4 1284.99 1562.25 Q1287.05 1564.07 1290.59 1564.07 Q1295.46 1564.07 1298.38 1560.63 Q1301.35 1557.16 1301.35 1551.43 L1301.35 1550.12 L1295.52 1550.12 M1307.2 1547.71 L1307.2 1568.04 L1301.35 1568.04 L1301.35 1562.63 Q1299.34 1565.88 1296.35 1567.44 Q1293.36 1568.97 1289.03 1568.97 Q1283.55 1568.97 1280.31 1565.91 Q1277.09 1562.82 1277.09 1557.67 Q1277.09 1551.65 1281.1 1548.6 Q1285.14 1545.54 1293.13 1545.54 L1301.35 1545.54 L1301.35 1544.97 Q1301.35 1540.93 1298.67 1538.73 Q1296.03 1536.5 1291.22 1536.5 Q1288.17 1536.5 1285.27 1537.23 Q1282.38 1537.97 1279.7 1539.43 L1279.7 1534.02 Q1282.92 1532.78 1285.94 1532.17 Q1288.96 1531.54 1291.83 1531.54 Q1299.56 1531.54 1303.38 1535.55 Q1307.2 1539.56 1307.2 1547.71 Z" fill="#000000" fill-rule="nonzero" fill-opacity="1" /><path clip-path="url(#clip870)" d="M1325.06 1522.27 L1325.06 1532.4 L1337.12 1532.4 L1337.12 1536.95 L1325.06 1536.95 L1325.06 1556.3 Q1325.06 1560.66 1326.23 1561.9 Q1327.44 1563.14 1331.1 1563.14 L1337.12 1563.14 L1337.12 1568.04 L1331.1 1568.04 Q1324.33 1568.04 1321.75 1565.53 Q1319.17 1562.98 1319.17 1556.3 L1319.17 1536.95 L1314.87 1536.95 L1314.87 1532.4 L1319.17 1532.4 L1319.17 1522.27 L1325.06 1522.27 Z" fill="#000000" fill-rule="nonzero" fill-opacity="1" /><path clip-path="url(#clip870)" d="M1375.31 1548.76 L1375.31 1551.62 L1348.39 1551.62 Q1348.77 1557.67 1352.02 1560.85 Q1355.29 1564 1361.12 1564 Q1364.49 1564 1367.64 1563.17 Q1370.83 1562.35 1373.95 1560.69 L1373.95 1566.23 Q1370.79 1567.57 1367.48 1568.27 Q1364.17 1568.97 1360.77 1568.97 Q1352.24 1568.97 1347.24 1564 Q1342.28 1559.04 1342.28 1550.57 Q1342.28 1541.82 1346.99 1536.69 Q1351.73 1531.54 1359.75 1531.54 Q1366.94 1531.54 1371.11 1536.18 Q1375.31 1540.8 1375.31 1548.76 M1369.46 1547.04 Q1369.39 1542.23 1366.75 1539.37 Q1364.14 1536.5 1359.81 1536.5 Q1354.91 1536.5 1351.95 1539.27 Q1349.02 1542.04 1348.58 1547.07 L1369.46 1547.04 Z" fill="#000000" fill-rule="nonzero" fill-opacity="1" /><polyline clip-path="url(#clip872)" style="stroke:#000000; stroke-linecap:round; stroke-linejoin:round; stroke-width:2; stroke-opacity:0.1; fill:none" points="257.955,1386.4 2352.76,1386.4 "/>
<polyline clip-path="url(#clip872)" style="stroke:#000000; stroke-linecap:round; stroke-linejoin:round; stroke-width:2; stroke-opacity:0.1; fill:none" points="257.955,743.203 2352.76,743.203 "/>
<polyline clip-path="url(#clip870)" style="stroke:#000000; stroke-linecap:round; stroke-linejoin:round; stroke-width:4; stroke-opacity:1; fill:none" points="257.955,1423.18 257.955,123.472 "/>
<polyline clip-path="url(#clip870)" style="stroke:#000000; stroke-linecap:round; stroke-linejoin:round; stroke-width:4; stroke-opacity:1; fill:none" points="257.955,1386.4 276.853,1386.4 "/>
<polyline clip-path="url(#clip870)" style="stroke:#000000; stroke-linecap:round; stroke-linejoin:round; stroke-width:4; stroke-opacity:1; fill:none" points="257.955,743.203 276.853,743.203 "/>
<path clip-path="url(#clip870)" d="M114.931 1406.19 L122.57 1406.19 L122.57 1379.82 L114.26 1381.49 L114.26 1377.23 L122.524 1375.56 L127.2 1375.56 L127.2 1406.19 L134.839 1406.19 L134.839 1410.12 L114.931 1410.12 L114.931 1406.19 Z" fill="#000000" fill-rule="nonzero" fill-opacity="1" /><path clip-path="url(#clip870)" d="M154.283 1378.64 Q150.672 1378.64 148.843 1382.21 Q147.038 1385.75 147.038 1392.88 Q147.038 1399.98 148.843 1403.55 Q150.672 1407.09 154.283 1407.09 Q157.917 1407.09 159.723 1403.55 Q161.552 1399.98 161.552 1392.88 Q161.552 1385.75 159.723 1382.21 Q157.917 1378.64 154.283 1378.64 M154.283 1374.94 Q160.093 1374.94 163.149 1379.54 Q166.227 1384.13 166.227 1392.88 Q166.227 1401.6 163.149 1406.21 Q160.093 1410.79 154.283 1410.79 Q148.473 1410.79 145.394 1406.21 Q142.339 1401.6 142.339 1392.88 Q142.339 1384.13 145.394 1379.54 Q148.473 1374.94 154.283 1374.94 Z" fill="#000000" fill-rule="nonzero" fill-opacity="1" /><path clip-path="url(#clip870)" d="M167.412 1354.63 L182.327 1354.63 L182.327 1357.83 L170.892 1357.83 L170.892 1364.71 Q171.719 1364.43 172.547 1364.3 Q173.374 1364.15 174.202 1364.15 Q178.904 1364.15 181.65 1366.73 Q184.396 1369.3 184.396 1373.7 Q184.396 1378.24 181.575 1380.76 Q178.753 1383.26 173.619 1383.26 Q171.851 1383.26 170.008 1382.96 Q168.183 1382.66 166.227 1382.05 L166.227 1378.24 Q167.92 1379.16 169.726 1379.61 Q171.531 1380.06 173.544 1380.06 Q176.797 1380.06 178.697 1378.35 Q180.597 1376.64 180.597 1373.7 Q180.597 1370.77 178.697 1369.06 Q176.797 1367.35 173.544 1367.35 Q172.02 1367.35 170.497 1367.69 Q168.992 1368.02 167.412 1368.74 L167.412 1354.63 Z" fill="#000000" fill-rule="nonzero" fill-opacity="1" /><path clip-path="url(#clip870)" d="M191.881 1377.94 L195.85 1377.94 L195.85 1382.71 L191.881 1382.71 L191.881 1377.94 Z" fill="#000000" fill-rule="nonzero" fill-opacity="1" /><path clip-path="url(#clip870)" d="M212.25 1357.13 Q209.316 1357.13 207.83 1360.03 Q206.363 1362.91 206.363 1368.7 Q206.363 1374.48 207.83 1377.37 Q209.316 1380.25 212.25 1380.25 Q215.203 1380.25 216.67 1377.37 Q218.156 1374.48 218.156 1368.7 Q218.156 1362.91 216.67 1360.03 Q215.203 1357.13 212.25 1357.13 M212.25 1354.13 Q216.971 1354.13 219.453 1357.87 Q221.955 1361.59 221.955 1368.7 Q221.955 1375.79 219.453 1379.53 Q216.971 1383.26 212.25 1383.26 Q207.529 1383.26 205.028 1379.53 Q202.545 1375.79 202.545 1368.7 Q202.545 1361.59 205.028 1357.87 Q207.529 1354.13 212.25 1354.13 Z" fill="#000000" fill-rule="nonzero" fill-opacity="1" /><path clip-path="url(#clip870)" d="M115.74 762.996 L123.379 762.996 L123.379 736.63 L115.069 738.297 L115.069 734.038 L123.333 732.371 L128.009 732.371 L128.009 762.996 L135.647 762.996 L135.647 766.931 L115.74 766.931 L115.74 762.996 Z" fill="#000000" fill-rule="nonzero" fill-opacity="1" /><path clip-path="url(#clip870)" d="M155.092 735.45 Q151.481 735.45 149.652 739.014 Q147.846 742.556 147.846 749.686 Q147.846 756.792 149.652 760.357 Q151.481 763.898 155.092 763.898 Q158.726 763.898 160.532 760.357 Q162.36 756.792 162.36 749.686 Q162.36 742.556 160.532 739.014 Q158.726 735.45 155.092 735.45 M155.092 731.746 Q160.902 731.746 163.958 736.352 Q167.036 740.936 167.036 749.686 Q167.036 758.412 163.958 763.019 Q160.902 767.602 155.092 767.602 Q149.282 767.602 146.203 763.019 Q143.147 758.412 143.147 749.686 Q143.147 740.936 146.203 736.352 Q149.282 731.746 155.092 731.746 Z" fill="#000000" fill-rule="nonzero" fill-opacity="1" /><path clip-path="url(#clip870)" d="M168.221 711.44 L183.136 711.44 L183.136 714.638 L171.701 714.638 L171.701 721.521 Q172.528 721.239 173.356 721.108 Q174.183 720.957 175.011 720.957 Q179.713 720.957 182.459 723.534 Q185.205 726.111 185.205 730.512 Q185.205 735.044 182.383 737.564 Q179.562 740.066 174.428 740.066 Q172.66 740.066 170.817 739.765 Q168.992 739.464 167.036 738.862 L167.036 735.044 Q168.729 735.966 170.534 736.417 Q172.34 736.869 174.352 736.869 Q177.606 736.869 179.506 735.157 Q181.405 733.446 181.405 730.512 Q181.405 727.578 179.506 725.866 Q177.606 724.155 174.352 724.155 Q172.829 724.155 171.306 724.493 Q169.801 724.832 168.221 725.546 L168.221 711.44 Z" fill="#000000" fill-rule="nonzero" fill-opacity="1" /><path clip-path="url(#clip870)" d="M192.69 734.743 L196.658 734.743 L196.658 739.52 L192.69 739.52 L192.69 734.743 Z" fill="#000000" fill-rule="nonzero" fill-opacity="1" /><path clip-path="url(#clip870)" d="M204.971 711.44 L219.886 711.44 L219.886 714.638 L208.451 714.638 L208.451 721.521 Q209.278 721.239 210.106 721.108 Q210.934 720.957 211.761 720.957 Q216.463 720.957 219.209 723.534 Q221.955 726.111 221.955 730.512 Q221.955 735.044 219.134 737.564 Q216.313 740.066 211.178 740.066 Q209.41 740.066 207.567 739.765 Q205.743 739.464 203.787 738.862 L203.787 735.044 Q205.479 735.966 207.285 736.417 Q209.09 736.869 211.103 736.869 Q214.357 736.869 216.256 735.157 Q218.156 733.446 218.156 730.512 Q218.156 727.578 216.256 725.866 Q214.357 724.155 211.103 724.155 Q209.579 724.155 208.056 724.493 Q206.551 724.832 204.971 725.546 L204.971 711.44 Z" fill="#000000" fill-rule="nonzero" fill-opacity="1" /><path clip-path="url(#clip870)" d="M21.7677 1084.27 L39.6235 1084.27 L39.6235 1076.19 Q39.6235 1071.7 37.3 1069.25 Q34.9765 1066.8 30.6797 1066.8 Q26.4147 1066.8 24.0912 1069.25 Q21.7677 1071.7 21.7677 1076.19 L21.7677 1084.27 M16.4842 1090.7 L16.4842 1076.19 Q16.4842 1068.2 20.1126 1064.13 Q23.7092 1060.02 30.6797 1060.02 Q37.7138 1060.02 41.3104 1064.13 Q44.907 1068.2 44.907 1076.19 L44.907 1084.27 L64.0042 1084.27 L64.0042 1090.7 L16.4842 1090.7 Z" fill="#000000" fill-rule="nonzero" fill-opacity="1" /><path clip-path="url(#clip870)" d="M32.4621 1040.16 Q32.4621 1044.87 36.1542 1047.61 Q39.8145 1050.35 46.212 1050.35 Q52.6095 1050.35 56.3017 1047.64 Q59.9619 1044.9 59.9619 1040.16 Q59.9619 1035.48 56.2698 1032.74 Q52.5777 1030.01 46.212 1030.01 Q39.8781 1030.01 36.186 1032.74 Q32.4621 1035.48 32.4621 1040.16 M27.4968 1040.16 Q27.4968 1032.52 32.4621 1028.16 Q37.4273 1023.8 46.212 1023.8 Q54.9649 1023.8 59.9619 1028.16 Q64.9272 1032.52 64.9272 1040.16 Q64.9272 1047.83 59.9619 1052.19 Q54.9649 1056.52 46.212 1056.52 Q37.4273 1056.52 32.4621 1052.19 Q27.4968 1047.83 27.4968 1040.16 Z" fill="#000000" fill-rule="nonzero" fill-opacity="1" /><path clip-path="url(#clip870)" d="M33.8307 993.436 Q33.2578 994.423 33.0032 995.601 Q32.7167 996.746 32.7167 998.147 Q32.7167 1003.11 35.9632 1005.79 Q39.1779 1008.43 45.2253 1008.43 L64.0042 1008.43 L64.0042 1014.32 L28.3562 1014.32 L28.3562 1008.43 L33.8944 1008.43 Q30.6479 1006.58 29.0883 1003.62 Q27.4968 1000.66 27.4968 996.428 Q27.4968 995.823 27.5923 995.091 Q27.656 994.359 27.8151 993.468 L33.8307 993.436 Z" fill="#000000" fill-rule="nonzero" fill-opacity="1" /><path clip-path="url(#clip870)" d="M18.2347 981.501 L28.3562 981.501 L28.3562 969.437 L32.9077 969.437 L32.9077 981.501 L52.2594 981.501 Q56.6199 981.501 57.8613 980.323 Q59.1026 979.113 59.1026 975.453 L59.1026 969.437 L64.0042 969.437 L64.0042 975.453 Q64.0042 982.233 61.4897 984.811 Q58.9434 987.389 52.2594 987.389 L32.9077 987.389 L32.9077 991.686 L28.3562 991.686 L28.3562 987.389 L18.2347 987.389 L18.2347 981.501 Z" fill="#000000" fill-rule="nonzero" fill-opacity="1" /><path clip-path="url(#clip870)" d="M14.479 943.688 L19.3487 943.688 L19.3487 949.29 Q19.3487 952.441 20.6219 953.682 Q21.895 954.892 25.2052 954.892 L28.3562 954.892 L28.3562 945.248 L32.9077 945.248 L32.9077 954.892 L64.0042 954.892 L64.0042 960.78 L32.9077 960.78 L32.9077 966.382 L28.3562 966.382 L28.3562 960.78 L25.8736 960.78 Q19.9216 960.78 17.2162 958.011 Q14.479 955.242 14.479 949.226 L14.479 943.688 Z" fill="#000000" fill-rule="nonzero" fill-opacity="1" /><path clip-path="url(#clip870)" d="M32.4621 924.973 Q32.4621 929.684 36.1542 932.421 Q39.8145 935.158 46.212 935.158 Q52.6095 935.158 56.3017 932.453 Q59.9619 929.715 59.9619 924.973 Q59.9619 920.294 56.2698 917.557 Q52.5777 914.82 46.212 914.82 Q39.8781 914.82 36.186 917.557 Q32.4621 920.294 32.4621 924.973 M27.4968 924.973 Q27.4968 917.334 32.4621 912.974 Q37.4273 908.613 46.212 908.613 Q54.9649 908.613 59.9619 912.974 Q64.9272 917.334 64.9272 924.973 Q64.9272 932.644 59.9619 937.004 Q54.9649 941.333 46.212 941.333 Q37.4273 941.333 32.4621 937.004 Q27.4968 932.644 27.4968 924.973 Z" fill="#000000" fill-rule="nonzero" fill-opacity="1" /><path clip-path="url(#clip870)" d="M14.479 898.905 L14.479 893.049 L64.0042 893.049 L64.0042 898.905 L14.479 898.905 Z" fill="#000000" fill-rule="nonzero" fill-opacity="1" /><path clip-path="url(#clip870)" d="M28.3562 880.795 L28.3562 874.939 L64.0042 874.939 L64.0042 880.795 L28.3562 880.795 M14.479 880.795 L14.479 874.939 L21.895 874.939 L21.895 880.795 L14.479 880.795 Z" fill="#000000" fill-rule="nonzero" fill-opacity="1" /><path clip-path="url(#clip870)" d="M32.4621 848.871 Q32.4621 853.582 36.1542 856.319 Q39.8145 859.056 46.212 859.056 Q52.6095 859.056 56.3017 856.351 Q59.9619 853.613 59.9619 848.871 Q59.9619 844.192 56.2698 841.455 Q52.5777 838.718 46.212 838.718 Q39.8781 838.718 36.186 841.455 Q32.4621 844.192 32.4621 848.871 M27.4968 848.871 Q27.4968 841.232 32.4621 836.872 Q37.4273 832.511 46.212 832.511 Q54.9649 832.511 59.9619 836.872 Q64.9272 841.232 64.9272 848.871 Q64.9272 856.542 59.9619 860.902 Q54.9649 865.231 46.212 865.231 Q37.4273 865.231 32.4621 860.902 Q27.4968 856.542 27.4968 848.871 Z" fill="#000000" fill-rule="nonzero" fill-opacity="1" /><path clip-path="url(#clip870)" d="M64.0042 789.574 L16.4842 807.717 L16.4842 801.001 L56.4926 785.946 L16.4842 770.859 L16.4842 764.175 L64.0042 782.286 L64.0042 789.574 Z" fill="#000000" fill-rule="nonzero" fill-opacity="1" /><path clip-path="url(#clip870)" d="M46.0847 746.351 Q46.0847 753.449 47.7079 756.186 Q49.3312 758.924 53.2461 758.924 Q56.3653 758.924 58.2114 756.887 Q60.0256 754.818 60.0256 751.285 Q60.0256 746.415 56.5881 743.487 Q53.1188 740.527 47.3897 740.527 L46.0847 740.527 L46.0847 746.351 M43.6657 734.67 L64.0042 734.67 L64.0042 740.527 L58.5933 740.527 Q61.8398 742.532 63.3994 745.524 Q64.9272 748.516 64.9272 752.844 Q64.9272 758.319 61.8716 761.565 Q58.7843 764.78 53.6281 764.78 Q47.6125 764.78 44.5569 760.77 Q41.5014 756.727 41.5014 748.738 L41.5014 740.527 L40.9285 740.527 Q36.8862 740.527 34.6901 743.2 Q32.4621 745.842 32.4621 750.648 Q32.4621 753.704 33.1941 756.6 Q33.9262 759.496 35.3903 762.17 L29.9795 762.17 Q28.7381 758.955 28.1334 755.932 Q27.4968 752.908 27.4968 750.043 Q27.4968 742.309 31.5072 738.49 Q35.5176 734.67 43.6657 734.67 Z" fill="#000000" fill-rule="nonzero" fill-opacity="1" /><path clip-path="url(#clip870)" d="M14.479 722.607 L14.479 716.751 L64.0042 716.751 L64.0042 722.607 L14.479 722.607 Z" fill="#000000" fill-rule="nonzero" fill-opacity="1" /><path clip-path="url(#clip870)" d="M49.9359 705.102 L28.3562 705.102 L28.3562 699.245 L49.7131 699.245 Q54.7739 699.245 57.3202 697.272 Q59.8346 695.298 59.8346 691.352 Q59.8346 686.609 56.8109 683.872 Q53.7872 681.103 48.5673 681.103 L28.3562 681.103 L28.3562 675.246 L64.0042 675.246 L64.0042 681.103 L58.5296 681.103 Q61.7762 683.235 63.3676 686.068 Q64.9272 688.869 64.9272 692.593 Q64.9272 698.736 61.1078 701.919 Q57.2883 705.102 49.9359 705.102 M27.4968 690.365 L27.4968 690.365 Z" fill="#000000" fill-rule="nonzero" fill-opacity="1" /><path clip-path="url(#clip870)" d="M44.7161 632.692 L47.5806 632.692 L47.5806 659.619 Q53.6281 659.237 56.8109 655.99 Q59.9619 652.712 59.9619 646.887 Q59.9619 643.513 59.1344 640.362 Q58.3069 637.179 56.6518 634.06 L62.1899 634.06 Q63.5267 637.211 64.227 640.521 Q64.9272 643.832 64.9272 647.237 Q64.9272 655.767 59.9619 660.764 Q54.9967 665.73 46.5303 665.73 Q37.7774 665.73 32.6531 661.019 Q27.4968 656.277 27.4968 648.256 Q27.4968 641.063 32.1438 636.893 Q36.7589 632.692 44.7161 632.692 M42.9973 638.548 Q38.1912 638.612 35.3266 641.253 Q32.4621 643.863 32.4621 648.192 Q32.4621 653.094 35.2312 656.054 Q38.0002 658.982 43.0292 659.428 L42.9973 638.548 Z" fill="#000000" fill-rule="nonzero" fill-opacity="1" /><path clip-path="url(#clip870)" d="M43.5384 605.319 L43.5384 588.163 L48.7583 588.163 L48.7583 605.319 L43.5384 605.319 Z" fill="#000000" fill-rule="nonzero" fill-opacity="1" /><path clip-path="url(#clip870)" d="M16.4842 558.595 L16.4842 552.134 L45.3526 552.134 Q52.9915 552.134 56.3653 549.365 Q59.7073 546.595 59.7073 540.389 Q59.7073 534.214 56.3653 531.445 Q52.9915 528.676 45.3526 528.676 L16.4842 528.676 L16.4842 522.215 L46.1484 522.215 Q55.4423 522.215 60.1847 526.83 Q64.9272 531.413 64.9272 540.389 Q64.9272 549.396 60.1847 554.011 Q55.4423 558.595 46.1484 558.595 L16.4842 558.595 Z" fill="#000000" fill-rule="nonzero" fill-opacity="1" /><path clip-path="url(#clip870)" d="M18.0438 481.665 L24.314 481.665 Q22.5634 485.326 21.704 488.572 Q20.8447 491.819 20.8447 494.842 Q20.8447 500.094 22.8817 502.959 Q24.9187 505.791 28.6745 505.791 Q31.8255 505.791 33.4488 503.913 Q35.0402 502.004 36.0269 496.72 L36.8226 492.837 Q38.1912 485.644 41.6605 482.238 Q45.098 478.801 50.8908 478.801 Q57.7976 478.801 61.3624 483.448 Q64.9272 488.063 64.9272 497.007 Q64.9272 500.38 64.1633 504.2 Q63.3994 507.987 61.9035 512.061 L55.2831 512.061 Q57.4793 508.147 58.5933 504.391 Q59.7073 500.635 59.7073 497.007 Q59.7073 491.5 57.543 488.508 Q55.3786 485.516 51.3682 485.516 Q47.8671 485.516 45.8937 487.681 Q43.9204 489.813 42.9337 494.715 L42.1698 498.63 Q40.7375 505.823 37.682 509.038 Q34.6264 512.252 29.1837 512.252 Q22.8817 512.252 19.2532 507.828 Q15.6248 503.372 15.6248 495.574 Q15.6248 492.232 16.2295 488.763 Q16.8343 485.294 18.0438 481.665 Z" fill="#000000" fill-rule="nonzero" fill-opacity="1" /><path clip-path="url(#clip870)" d="M21.7677 462.345 L58.7206 462.345 L58.7206 454.579 Q58.7206 444.744 54.2646 440.193 Q49.8086 435.609 40.1964 435.609 Q30.6479 435.609 26.2237 440.193 Q21.7677 444.744 21.7677 454.579 L21.7677 462.345 M16.4842 468.775 L16.4842 455.566 Q16.4842 441.752 22.2451 435.291 Q27.9743 428.83 40.1964 428.83 Q52.4822 428.83 58.2432 435.323 Q64.0042 441.816 64.0042 455.566 L64.0042 468.775 L16.4842 468.775 Z" fill="#000000" fill-rule="nonzero" fill-opacity="1" /><path clip-path="url(#clip870)" d="M427.2 18.8205 L427.2 41.5461 L437.49 41.5461 Q443.201 41.5461 446.321 38.5889 Q449.44 35.6318 449.44 30.163 Q449.44 24.7348 446.321 21.7777 Q443.201 18.8205 437.49 18.8205 L427.2 18.8205 M419.018 12.096 L437.49 12.096 Q447.657 12.096 452.843 16.714 Q458.068 21.2916 458.068 30.163 Q458.068 39.1155 452.843 43.6931 Q447.657 48.2706 437.49 48.2706 L427.2 48.2706 L427.2 72.576 L419.018 72.576 L419.018 12.096 Z" fill="#000000" fill-rule="nonzero" fill-opacity="1" /><path clip-path="url(#clip870)" d="M483.346 32.4315 Q477.351 32.4315 473.867 37.1306 Q470.383 41.7891 470.383 49.9314 Q470.383 58.0738 473.826 62.7728 Q477.31 67.4314 483.346 67.4314 Q489.301 67.4314 492.785 62.7323 Q496.268 58.0333 496.268 49.9314 Q496.268 41.8701 492.785 37.1711 Q489.301 32.4315 483.346 32.4315 M483.346 26.1121 Q493.068 26.1121 498.618 32.4315 Q504.168 38.7509 504.168 49.9314 Q504.168 61.0714 498.618 67.4314 Q493.068 73.7508 483.346 73.7508 Q473.583 73.7508 468.033 67.4314 Q462.524 61.0714 462.524 49.9314 Q462.524 38.7509 468.033 32.4315 Q473.583 26.1121 483.346 26.1121 Z" fill="#000000" fill-rule="nonzero" fill-opacity="1" /><path clip-path="url(#clip870)" d="M542.813 34.1734 Q541.557 33.4443 540.059 33.1202 Q538.6 32.7556 536.818 32.7556 Q530.498 32.7556 527.096 36.8875 Q523.733 40.9789 523.733 48.6757 L523.733 72.576 L516.239 72.576 L516.239 27.2059 L523.733 27.2059 L523.733 34.2544 Q526.083 30.1225 529.85 28.1376 Q533.618 26.1121 539.005 26.1121 Q539.775 26.1121 540.707 26.2337 Q541.638 26.3147 542.773 26.5172 L542.813 34.1734 Z" fill="#000000" fill-rule="nonzero" fill-opacity="1" /><path clip-path="url(#clip870)" d="M558.004 14.324 L558.004 27.2059 L573.357 27.2059 L573.357 32.9987 L558.004 32.9987 L558.004 57.6282 Q558.004 63.1779 559.503 64.7578 Q561.042 66.3376 565.701 66.3376 L573.357 66.3376 L573.357 72.576 L565.701 72.576 Q557.072 72.576 553.791 69.3758 Q550.51 66.1351 550.51 57.6282 L550.51 32.9987 L545.041 32.9987 L545.041 27.2059 L550.51 27.2059 L550.51 14.324 L558.004 14.324 Z" fill="#000000" fill-rule="nonzero" fill-opacity="1" /><path clip-path="url(#clip870)" d="M606.129 9.54393 L606.129 15.7418 L598.999 15.7418 Q594.989 15.7418 593.409 17.3622 Q591.87 18.9825 591.87 23.1955 L591.87 27.2059 L604.144 27.2059 L604.144 32.9987 L591.87 32.9987 L591.87 72.576 L584.375 72.576 L584.375 32.9987 L577.246 32.9987 L577.246 27.2059 L584.375 27.2059 L584.375 24.0462 Q584.375 16.471 587.9 13.0277 Q591.424 9.54393 599.08 9.54393 L606.129 9.54393 Z" fill="#000000" fill-rule="nonzero" fill-opacity="1" /><path clip-path="url(#clip870)" d="M629.948 32.4315 Q623.953 32.4315 620.469 37.1306 Q616.985 41.7891 616.985 49.9314 Q616.985 58.0738 620.429 62.7728 Q623.912 67.4314 629.948 67.4314 Q635.903 67.4314 639.387 62.7323 Q642.871 58.0333 642.871 49.9314 Q642.871 41.8701 639.387 37.1711 Q635.903 32.4315 629.948 32.4315 M629.948 26.1121 Q639.67 26.1121 645.22 32.4315 Q650.77 38.7509 650.77 49.9314 Q650.77 61.0714 645.22 67.4314 Q639.67 73.7508 629.948 73.7508 Q620.185 73.7508 614.636 67.4314 Q609.126 61.0714 609.126 49.9314 Q609.126 38.7509 614.636 32.4315 Q620.185 26.1121 629.948 26.1121 Z" fill="#000000" fill-rule="nonzero" fill-opacity="1" /><path clip-path="url(#clip870)" d="M663.125 9.54393 L670.579 9.54393 L670.579 72.576 L663.125 72.576 L663.125 9.54393 Z" fill="#000000" fill-rule="nonzero" fill-opacity="1" /><path clip-path="url(#clip870)" d="M686.175 27.2059 L693.628 27.2059 L693.628 72.576 L686.175 72.576 L686.175 27.2059 M686.175 9.54393 L693.628 9.54393 L693.628 18.9825 L686.175 18.9825 L686.175 9.54393 Z" fill="#000000" fill-rule="nonzero" fill-opacity="1" /><path clip-path="url(#clip870)" d="M726.805 32.4315 Q720.81 32.4315 717.326 37.1306 Q713.842 41.7891 713.842 49.9314 Q713.842 58.0738 717.286 62.7728 Q720.769 67.4314 726.805 67.4314 Q732.76 67.4314 736.244 62.7323 Q739.728 58.0333 739.728 49.9314 Q739.728 41.8701 736.244 37.1711 Q732.76 32.4315 726.805 32.4315 M726.805 26.1121 Q736.527 26.1121 742.077 32.4315 Q747.627 38.7509 747.627 49.9314 Q747.627 61.0714 742.077 67.4314 Q736.527 73.7508 726.805 73.7508 Q717.043 73.7508 711.493 67.4314 Q705.984 61.0714 705.984 49.9314 Q705.984 38.7509 711.493 32.4315 Q717.043 26.1121 726.805 26.1121 Z" fill="#000000" fill-rule="nonzero" fill-opacity="1" /><path clip-path="url(#clip870)" d="M802.274 72.576 L779.183 12.096 L787.731 12.096 L806.892 63.0159 L826.093 12.096 L834.6 12.096 L811.55 72.576 L802.274 72.576 Z" fill="#000000" fill-rule="nonzero" fill-opacity="1" /><path clip-path="url(#clip870)" d="M857.285 49.7694 Q848.251 49.7694 844.768 51.8354 Q841.284 53.9013 841.284 58.8839 Q841.284 62.8538 843.876 65.2034 Q846.509 67.5124 851.006 67.5124 Q857.204 67.5124 860.931 63.1374 Q864.698 58.7219 864.698 51.4303 L864.698 49.7694 L857.285 49.7694 M872.152 46.6907 L872.152 72.576 L864.698 72.576 L864.698 65.6895 Q862.146 69.8214 858.338 71.8063 Q854.53 73.7508 849.021 73.7508 Q842.053 73.7508 837.922 69.8619 Q833.83 65.9325 833.83 59.3701 Q833.83 51.7138 838.934 47.825 Q844.079 43.9361 854.247 43.9361 L864.698 43.9361 L864.698 43.2069 Q864.698 38.0623 861.295 35.2672 Q857.933 32.4315 851.816 32.4315 Q847.927 32.4315 844.241 33.3632 Q840.555 34.295 837.152 36.1584 L837.152 29.2718 Q841.243 27.692 845.092 26.9223 Q848.94 26.1121 852.586 26.1121 Q862.43 26.1121 867.291 31.2163 Q872.152 36.3204 872.152 46.6907 Z" fill="#000000" fill-rule="nonzero" fill-opacity="1" /><path clip-path="url(#clip870)" d="M887.505 9.54393 L894.958 9.54393 L894.958 72.576 L887.505 72.576 L887.505 9.54393 Z" fill="#000000" fill-rule="nonzero" fill-opacity="1" /><path clip-path="url(#clip870)" d="M909.785 54.671 L909.785 27.2059 L917.238 27.2059 L917.238 54.3874 Q917.238 60.8284 919.75 64.0691 Q922.261 67.2693 927.285 67.2693 Q933.32 67.2693 936.804 63.421 Q940.328 59.5726 940.328 52.9291 L940.328 27.2059 L947.782 27.2059 L947.782 72.576 L940.328 72.576 L940.328 65.6084 Q937.614 69.7404 934.009 71.7658 Q930.444 73.7508 925.705 73.7508 Q917.886 73.7508 913.836 68.8897 Q909.785 64.0286 909.785 54.671 M928.54 26.1121 L928.54 26.1121 Z" fill="#000000" fill-rule="nonzero" fill-opacity="1" /><path clip-path="url(#clip870)" d="M1001.94 48.0275 L1001.94 51.6733 L967.672 51.6733 Q968.158 59.3701 972.29 63.421 Q976.462 67.4314 983.876 67.4314 Q988.17 67.4314 992.18 66.3781 Q996.231 65.3249 1000.2 63.2184 L1000.2 70.267 Q996.19 71.9684 991.977 72.8596 Q987.765 73.7508 983.43 73.7508 Q972.574 73.7508 966.214 67.4314 Q959.894 61.1119 959.894 50.3365 Q959.894 39.1965 965.89 32.6746 Q971.925 26.1121 982.134 26.1121 Q991.289 26.1121 996.595 32.0264 Q1001.94 37.9003 1001.94 48.0275 M994.489 45.84 Q994.408 39.7232 991.046 36.0774 Q987.724 32.4315 982.215 32.4315 Q975.976 32.4315 972.209 35.9558 Q968.482 39.4801 967.915 45.8805 L994.489 45.84 Z" fill="#000000" fill-rule="nonzero" fill-opacity="1" /><path clip-path="url(#clip870)" d="M1016.08 62.2867 L1024.63 62.2867 L1024.63 72.576 L1016.08 72.576 L1016.08 62.2867 M1016.08 29.6769 L1024.63 29.6769 L1024.63 39.9662 L1016.08 39.9662 L1016.08 29.6769 Z" fill="#000000" fill-rule="nonzero" fill-opacity="1" /><path clip-path="url(#clip870)" d="M1068.82 12.096 L1081.02 12.096 L1096.45 53.2532 L1111.97 12.096 L1124.16 12.096 L1124.16 72.576 L1116.18 72.576 L1116.18 19.4686 L1100.58 60.9499 L1092.36 60.9499 L1076.76 19.4686 L1076.76 72.576 L1068.82 72.576 L1068.82 12.096 Z" fill="#000000" fill-rule="nonzero" fill-opacity="1" /><path clip-path="url(#clip870)" d="M1156 72.576 L1132.91 12.096 L1141.46 12.096 L1160.62 63.0159 L1179.82 12.096 L1188.32 12.096 L1165.28 72.576 L1156 72.576 Z" fill="#000000" fill-rule="nonzero" fill-opacity="1" /><path clip-path="url(#clip870)" d="M1188.2 46.5287 L1210.04 46.5287 L1210.04 53.1722 L1188.2 53.1722 L1188.2 46.5287 Z" fill="#000000" fill-rule="nonzero" fill-opacity="1" /><path clip-path="url(#clip870)" d="M1222.23 12.096 L1234.42 12.096 L1249.86 53.2532 L1265.37 12.096 L1277.57 12.096 L1277.57 72.576 L1269.59 72.576 L1269.59 19.4686 L1253.99 60.9499 L1245.77 60.9499 L1230.17 19.4686 L1230.17 72.576 L1222.23 72.576 L1222.23 12.096 Z" fill="#000000" fill-rule="nonzero" fill-opacity="1" /><path clip-path="url(#clip870)" d="M1301.99 18.8205 L1301.99 41.5461 L1312.28 41.5461 Q1317.99 41.5461 1321.11 38.5889 Q1324.23 35.6318 1324.23 30.163 Q1324.23 24.7348 1321.11 21.7777 Q1317.99 18.8205 1312.28 18.8205 L1301.99 18.8205 M1293.81 12.096 L1312.28 12.096 Q1322.45 12.096 1327.64 16.714 Q1332.86 21.2916 1332.86 30.163 Q1332.86 39.1155 1327.64 43.6931 Q1322.45 48.2706 1312.28 48.2706 L1301.99 48.2706 L1301.99 72.576 L1293.81 72.576 L1293.81 12.096 Z" fill="#000000" fill-rule="nonzero" fill-opacity="1" /><path clip-path="url(#clip870)" d="M1389.13 16.7545 L1389.13 25.383 Q1385 21.5346 1380.3 19.6307 Q1375.64 17.7268 1370.37 17.7268 Q1360 17.7268 1354.49 24.0867 Q1348.98 30.4061 1348.98 42.3968 Q1348.98 54.3469 1354.49 60.7069 Q1360 67.0263 1370.37 67.0263 Q1375.64 67.0263 1380.3 65.1223 Q1385 63.2184 1389.13 59.3701 L1389.13 67.9175 Q1384.83 70.8341 1380.01 72.2924 Q1375.23 73.7508 1369.89 73.7508 Q1356.15 73.7508 1348.25 65.3654 Q1340.36 56.9395 1340.36 42.3968 Q1340.36 27.8135 1348.25 19.4281 Q1356.15 11.0023 1369.89 11.0023 Q1375.31 11.0023 1380.09 12.4606 Q1384.92 13.8784 1389.13 16.7545 Z" fill="#000000" fill-rule="nonzero" fill-opacity="1" /><path clip-path="url(#clip870)" d="M1427.04 54.671 L1427.04 27.2059 L1434.5 27.2059 L1434.5 54.3874 Q1434.5 60.8284 1437.01 64.0691 Q1439.52 67.2693 1444.54 67.2693 Q1450.58 67.2693 1454.06 63.421 Q1457.59 59.5726 1457.59 52.9291 L1457.59 27.2059 L1465.04 27.2059 L1465.04 72.576 L1457.59 72.576 L1457.59 65.6084 Q1454.87 69.7404 1451.27 71.7658 Q1447.7 73.7508 1442.96 73.7508 Q1435.15 73.7508 1431.1 68.8897 Q1427.04 64.0286 1427.04 54.671 M1445.8 26.1121 L1445.8 26.1121 Z" fill="#000000" fill-rule="nonzero" fill-opacity="1" /><path clip-path="url(#clip870)" d="M1509.32 28.5427 L1509.32 35.5912 Q1506.16 33.9709 1502.76 33.1607 Q1499.35 32.3505 1495.71 32.3505 Q1490.16 32.3505 1487.36 34.0519 Q1484.61 35.7533 1484.61 39.156 Q1484.61 41.7486 1486.59 43.2475 Q1488.58 44.7058 1494.57 46.0426 L1497.13 46.6097 Q1505.06 48.3111 1508.39 51.4303 Q1511.75 54.509 1511.75 60.0587 Q1511.75 66.3781 1506.73 70.0644 Q1501.74 73.7508 1492.99 73.7508 Q1489.35 73.7508 1485.38 73.0216 Q1481.45 72.3329 1477.07 70.9151 L1477.07 63.2184 Q1481.21 65.3654 1485.22 66.4591 Q1489.23 67.5124 1493.16 67.5124 Q1498.42 67.5124 1501.26 65.73 Q1504.09 63.9071 1504.09 60.6258 Q1504.09 57.5877 1502.03 55.9673 Q1500 54.3469 1493.07 52.8481 L1490.48 52.2405 Q1483.55 50.7821 1480.48 47.7845 Q1477.4 44.7463 1477.4 39.4801 Q1477.4 33.0797 1481.93 29.5959 Q1486.47 26.1121 1494.82 26.1121 Q1498.95 26.1121 1502.59 26.7198 Q1506.24 27.3274 1509.32 28.5427 Z" fill="#000000" fill-rule="nonzero" fill-opacity="1" /><path clip-path="url(#clip870)" d="M1523.62 27.2059 L1531.07 27.2059 L1531.07 72.576 L1523.62 72.576 L1523.62 27.2059 M1523.62 9.54393 L1531.07 9.54393 L1531.07 18.9825 L1523.62 18.9825 L1523.62 9.54393 Z" fill="#000000" fill-rule="nonzero" fill-opacity="1" /><path clip-path="url(#clip870)" d="M1584.38 45.1919 L1584.38 72.576 L1576.93 72.576 L1576.93 45.4349 Q1576.93 38.994 1574.42 35.7938 Q1571.9 32.5936 1566.88 32.5936 Q1560.85 32.5936 1557.36 36.4419 Q1553.88 40.2903 1553.88 46.9338 L1553.88 72.576 L1546.38 72.576 L1546.38 27.2059 L1553.88 27.2059 L1553.88 34.2544 Q1556.55 30.163 1560.16 28.1376 Q1563.8 26.1121 1568.54 26.1121 Q1576.36 26.1121 1580.37 30.9732 Q1584.38 35.7938 1584.38 45.1919 Z" fill="#000000" fill-rule="nonzero" fill-opacity="1" /><path clip-path="url(#clip870)" d="M1629.1 49.3643 Q1629.1 41.2625 1625.74 36.8065 Q1622.42 32.3505 1616.38 32.3505 Q1610.39 32.3505 1607.03 36.8065 Q1603.7 41.2625 1603.7 49.3643 Q1603.7 57.4256 1607.03 61.8816 Q1610.39 66.3376 1616.38 66.3376 Q1622.42 66.3376 1625.74 61.8816 Q1629.1 57.4256 1629.1 49.3643 M1636.56 66.9452 Q1636.56 78.5308 1631.41 84.1616 Q1626.27 89.8329 1615.65 89.8329 Q1611.73 89.8329 1608.24 89.2252 Q1604.76 88.6581 1601.48 87.4428 L1601.48 80.1917 Q1604.76 81.9741 1607.96 82.8248 Q1611.16 83.6755 1614.48 83.6755 Q1621.81 83.6755 1625.46 79.8271 Q1629.1 76.0193 1629.1 68.282 L1629.1 64.5957 Q1626.79 68.6061 1623.19 70.5911 Q1619.58 72.576 1614.56 72.576 Q1606.22 72.576 1601.11 66.2161 Q1596.01 59.8562 1596.01 49.3643 Q1596.01 38.832 1601.11 32.472 Q1606.22 26.1121 1614.56 26.1121 Q1619.58 26.1121 1623.19 28.0971 Q1626.79 30.082 1629.1 34.0924 L1629.1 27.2059 L1636.56 27.2059 L1636.56 66.9452 Z" fill="#000000" fill-rule="nonzero" fill-opacity="1" /><path clip-path="url(#clip870)" d="M1686.79 43.6931 L1686.79 65.8515 L1699.91 65.8515 Q1706.52 65.8515 1709.68 63.1374 Q1712.88 60.3828 1712.88 54.752 Q1712.88 49.0808 1709.68 46.4072 Q1706.52 43.6931 1699.91 43.6931 L1686.79 43.6931 M1686.79 18.8205 L1686.79 37.0496 L1698.9 37.0496 Q1704.9 37.0496 1707.81 34.8216 Q1710.77 32.5531 1710.77 27.935 Q1710.77 23.3575 1707.81 21.089 Q1704.9 18.8205 1698.9 18.8205 L1686.79 18.8205 M1678.61 12.096 L1699.51 12.096 Q1708.87 12.096 1713.93 15.9849 Q1718.99 19.8737 1718.99 27.0438 Q1718.99 32.5936 1716.4 35.8748 Q1713.81 39.156 1708.78 39.9662 Q1714.82 41.2625 1718.14 45.3944 Q1721.5 49.4858 1721.5 55.6432 Q1721.5 63.745 1716 68.1605 Q1710.49 72.576 1700.32 72.576 L1678.61 72.576 L1678.61 12.096 Z" fill="#000000" fill-rule="nonzero" fill-opacity="1" /><path clip-path="url(#clip870)" d="M1774 48.0275 L1774 51.6733 L1739.73 51.6733 Q1740.22 59.3701 1744.35 63.421 Q1748.52 67.4314 1755.94 67.4314 Q1760.23 67.4314 1764.24 66.3781 Q1768.29 65.3249 1772.26 63.2184 L1772.26 70.267 Q1768.25 71.9684 1764.04 72.8596 Q1759.83 73.7508 1755.49 73.7508 Q1744.64 73.7508 1738.28 67.4314 Q1731.96 61.1119 1731.96 50.3365 Q1731.96 39.1965 1737.95 32.6746 Q1743.99 26.1121 1754.2 26.1121 Q1763.35 26.1121 1768.66 32.0264 Q1774 37.9003 1774 48.0275 M1766.55 45.84 Q1766.47 39.7232 1763.11 36.0774 Q1759.79 32.4315 1754.28 32.4315 Q1748.04 32.4315 1744.27 35.9558 Q1740.54 39.4801 1739.98 45.8805 L1766.55 45.84 Z" fill="#000000" fill-rule="nonzero" fill-opacity="1" /><path clip-path="url(#clip870)" d="M1823.95 45.1919 L1823.95 72.576 L1816.5 72.576 L1816.5 45.4349 Q1816.5 38.994 1813.99 35.7938 Q1811.48 32.5936 1806.45 32.5936 Q1800.42 32.5936 1796.93 36.4419 Q1793.45 40.2903 1793.45 46.9338 L1793.45 72.576 L1785.95 72.576 L1785.95 9.54393 L1793.45 9.54393 L1793.45 34.2544 Q1796.12 30.163 1799.73 28.1376 Q1803.37 26.1121 1808.11 26.1121 Q1815.93 26.1121 1819.94 30.9732 Q1823.95 35.7938 1823.95 45.1919 Z" fill="#000000" fill-rule="nonzero" fill-opacity="1" /><path clip-path="url(#clip870)" d="M1859.44 49.7694 Q1850.4 49.7694 1846.92 51.8354 Q1843.44 53.9013 1843.44 58.8839 Q1843.44 62.8538 1846.03 65.2034 Q1848.66 67.5124 1853.16 67.5124 Q1859.36 67.5124 1863.08 63.1374 Q1866.85 58.7219 1866.85 51.4303 L1866.85 49.7694 L1859.44 49.7694 M1874.3 46.6907 L1874.3 72.576 L1866.85 72.576 L1866.85 65.6895 Q1864.3 69.8214 1860.49 71.8063 Q1856.68 73.7508 1851.17 73.7508 Q1844.21 73.7508 1840.07 69.8619 Q1835.98 65.9325 1835.98 59.3701 Q1835.98 51.7138 1841.09 47.825 Q1846.23 43.9361 1856.4 43.9361 L1866.85 43.9361 L1866.85 43.2069 Q1866.85 38.0623 1863.45 35.2672 Q1860.09 32.4315 1853.97 32.4315 Q1850.08 32.4315 1846.39 33.3632 Q1842.71 34.295 1839.31 36.1584 L1839.31 29.2718 Q1843.4 27.692 1847.24 26.9223 Q1851.09 26.1121 1854.74 26.1121 Q1864.58 26.1121 1869.44 31.2163 Q1874.3 36.3204 1874.3 46.6907 Z" fill="#000000" fill-rule="nonzero" fill-opacity="1" /><path clip-path="url(#clip870)" d="M1884.31 27.2059 L1892.21 27.2059 L1906.39 65.2844 L1920.57 27.2059 L1928.47 27.2059 L1911.45 72.576 L1901.32 72.576 L1884.31 27.2059 Z" fill="#000000" fill-rule="nonzero" fill-opacity="1" /><path clip-path="url(#clip870)" d="M1938.75 27.2059 L1946.21 27.2059 L1946.21 72.576 L1938.75 72.576 L1938.75 27.2059 M1938.75 9.54393 L1946.21 9.54393 L1946.21 18.9825 L1938.75 18.9825 L1938.75 9.54393 Z" fill="#000000" fill-rule="nonzero" fill-opacity="1" /><path clip-path="url(#clip870)" d="M1979.39 32.4315 Q1973.39 32.4315 1969.91 37.1306 Q1966.42 41.7891 1966.42 49.9314 Q1966.42 58.0738 1969.87 62.7728 Q1973.35 67.4314 1979.39 67.4314 Q1985.34 67.4314 1988.82 62.7323 Q1992.31 58.0333 1992.31 49.9314 Q1992.31 41.8701 1988.82 37.1711 Q1985.34 32.4315 1979.39 32.4315 M1979.39 26.1121 Q1989.11 26.1121 1994.66 32.4315 Q2000.21 38.7509 2000.21 49.9314 Q2000.21 61.0714 1994.66 67.4314 Q1989.11 73.7508 1979.39 73.7508 Q1969.62 73.7508 1964.07 67.4314 Q1958.56 61.0714 1958.56 49.9314 Q1958.56 38.7509 1964.07 32.4315 Q1969.62 26.1121 1979.39 26.1121 Z" fill="#000000" fill-rule="nonzero" fill-opacity="1" /><path clip-path="url(#clip870)" d="M2011.79 54.671 L2011.79 27.2059 L2019.25 27.2059 L2019.25 54.3874 Q2019.25 60.8284 2021.76 64.0691 Q2024.27 67.2693 2029.29 67.2693 Q2035.33 67.2693 2038.81 63.421 Q2042.34 59.5726 2042.34 52.9291 L2042.34 27.2059 L2049.79 27.2059 L2049.79 72.576 L2042.34 72.576 L2042.34 65.6084 Q2039.62 69.7404 2036.02 71.7658 Q2032.45 73.7508 2027.71 73.7508 Q2019.89 73.7508 2015.84 68.8897 Q2011.79 64.0286 2011.79 54.671 M2030.55 26.1121 L2030.55 26.1121 Z" fill="#000000" fill-rule="nonzero" fill-opacity="1" /><path clip-path="url(#clip870)" d="M2091.43 34.1734 Q2090.18 33.4443 2088.68 33.1202 Q2087.22 32.7556 2085.44 32.7556 Q2079.12 32.7556 2075.72 36.8875 Q2072.35 40.9789 2072.35 48.6757 L2072.35 72.576 L2064.86 72.576 L2064.86 27.2059 L2072.35 27.2059 L2072.35 34.2544 Q2074.7 30.1225 2078.47 28.1376 Q2082.24 26.1121 2087.63 26.1121 Q2088.4 26.1121 2089.33 26.2337 Q2090.26 26.3147 2091.39 26.5172 L2091.43 34.1734 Z" fill="#000000" fill-rule="nonzero" fill-opacity="1" /><path clip-path="url(#clip870)" d="M2119.87 49.7694 Q2110.84 49.7694 2107.35 51.8354 Q2103.87 53.9013 2103.87 58.8839 Q2103.87 62.8538 2106.46 65.2034 Q2109.1 67.5124 2113.59 67.5124 Q2119.79 67.5124 2123.52 63.1374 Q2127.28 58.7219 2127.28 51.4303 L2127.28 49.7694 L2119.87 49.7694 M2134.74 46.6907 L2134.74 72.576 L2127.28 72.576 L2127.28 65.6895 Q2124.73 69.8214 2120.92 71.8063 Q2117.12 73.7508 2111.61 73.7508 Q2104.64 73.7508 2100.51 69.8619 Q2096.42 65.9325 2096.42 59.3701 Q2096.42 51.7138 2101.52 47.825 Q2106.66 43.9361 2116.83 43.9361 L2127.28 43.9361 L2127.28 43.2069 Q2127.28 38.0623 2123.88 35.2672 Q2120.52 32.4315 2114.4 32.4315 Q2110.51 32.4315 2106.83 33.3632 Q2103.14 34.295 2099.74 36.1584 L2099.74 29.2718 Q2103.83 27.692 2107.68 26.9223 Q2111.53 26.1121 2115.17 26.1121 Q2125.02 26.1121 2129.88 31.2163 Q2134.74 36.3204 2134.74 46.6907 Z" fill="#000000" fill-rule="nonzero" fill-opacity="1" /><path clip-path="url(#clip870)" d="M2150.09 9.54393 L2157.54 9.54393 L2157.54 72.576 L2150.09 72.576 L2150.09 9.54393 Z" fill="#000000" fill-rule="nonzero" fill-opacity="1" /><polyline clip-path="url(#clip872)" style="stroke:#009af9; stroke-linecap:round; stroke-linejoin:round; stroke-width:12; stroke-opacity:1; fill:none" points="317.242,1386.4 317.242,1386.4 322.872,1376.54 328.502,1333.7 334.133,1318.94 339.763,1315.28 356.654,1296.18 362.284,1286.61 367.914,1271.86 373.544,1209.77 379.175,1223.61 401.696,1192.12 407.326,1173.09 412.956,1179.21 418.587,1101.49 435.478,968.307 441.108,980.72 446.738,198.58 452.368,324.005 457.999,160.256 474.889,296.053 480.52,592.751 486.15,516.101 491.78,647.501 497.411,668.373 514.301,724.243 519.932,754.027 525.562,731.861 531.192,768.003 536.823,797.519 559.344,763.466 564.974,790.33 570.604,780.656 576.234,771.483 593.125,734.293 598.756,711.415 604.386,576.036 610.016,635.675 615.646,637.999 632.537,607.033 638.168,639.481 643.798,668.218 649.428,703.536 655.058,740.087 671.949,776.755 677.579,756.234 683.21,810.635 688.84,730.359 694.47,726.519 711.127,724.44 716.757,769.7 722.387,818.202 728.017,853.327 733.648,840.625 750.538,848.741 756.169,868.282 761.799,942.096 767.429,948.594 773.06,925.529 789.95,916.926 795.581,918.313 801.211,911.091 806.841,908.073 829.362,867.286 834.993,873.296 840.623,868.92 846.253,859.214 851.883,878.099 868.774,918.796 874.405,904.706 880.035,873.394 885.665,839.104 891.295,855.941 908.186,861.654 913.817,884.075 919.447,854.757 925.077,843.616 930.707,845.253 947.598,804.407 953.228,806.353 958.859,830.285 964.489,868.6 970.119,877.782 987.01,859.914 992.64,905.99 998.271,917.583 1003.9,928.348 1009.53,897.576 1026.42,885.266 1032.05,884.944 1037.68,900.985 1043.31,819.166 1048.94,787.144 1065.83,762.133 1071.46,760.925 1077.09,762.893 1082.72,747.647 1088.36,755.654 1105.25,766.032 1110.88,755.263 1116.51,719.339 1122.14,681.913 1127.77,670.426 1150.29,654.13 1155.92,514.291 1161.55,527.064 1167.18,516.229 1184.07,509.152 1189.7,516.099 1195.33,547.511 1200.96,626.238 1206.59,596.426 1223.48,584.83 1229.11,598.173 1234.74,603.495 1240.37,544.576 1246,558.458 1262.89,593.198 1268.52,567.897 1274.15,567.61 1279.78,583.156 1285.41,608.837 1302.31,576.111 1307.94,592.953 1313.57,590.484 1319.2,593.008 1324.83,590.476 1347.35,592.508 1352.98,628.605 1358.61,631.543 1364.24,648.907 1381.13,660.978 1386.76,655.316 1392.39,703.118 1398.02,642.244 1403.65,633.977 1420.54,618.435 1426.17,587.793 1431.8,575.165 1437.43,593.863 1443.06,597.857 1459.95,573.422 1465.58,582.338 1471.21,559.571 1476.84,570.742 1482.47,600.712 1499.37,596.51 1505,599.481 1510.63,536.195 1516.26,537.058 1521.89,520.858 1538.78,490.135 1544.41,569.306 1550.04,573.113 1555.67,535.297 1561.3,565.244 1578.19,554.375 1583.82,530.739 1589.45,544.665 1595.08,569.315 1600.71,561.119 1617.6,538.641 1623.23,541.414 1628.86,545.088 1634.49,547.879 1640.12,538.961 1657.01,514.17 1662.64,499.603 1668.27,502.811 1673.9,499.632 1679.53,499.026 1702.06,517.186 1707.69,535.324 1713.32,530.805 1718.95,413.29 1735.84,456.704 1741.47,476.265 1747.1,479.396 1752.73,496.272 1758.36,494.749 1775.25,512.013 1780.88,500.113 1786.51,505.216 1792.14,519.603 1797.77,512.076 1814.66,487.095 1820.29,500.464 1825.92,535.544 1831.55,524.424 1837.18,517.433 1854.07,513.639 1859.7,552.581 1865.33,576.907 1870.96,570.704 1876.59,586.655 1893.48,590.372 1899.12,581.223 1904.75,564.226 1910.38,532.914 1916.01,542.161 1932.9,543.477 1938.53,535.372 1944.16,542.721 1949.79,530.07 1955.42,543.254 1972.31,509.106 1977.94,495.408 1983.57,507.735 1989.2,496.152 1994.83,506.253 2011.72,503.653 2017.35,500.069 2022.98,485.577 2028.61,493.328 2034.24,513.099 2051.37,477.062 2057,457.167 2062.63,487.484 2068.26,485.73 2073.89,475.105 2090.78,498.003 2096.41,489.455 2102.04,507.117 2107.67,510.293 2113.3,500.982 2130.19,526.976 2135.82,525.365 2141.45,489.778 2152.71,493.515 2169.6,482.38 2175.23,466.761 2180.86,526.996 2186.49,544.98 2192.12,584.043 2209.01,573.113 2214.65,527.024 2220.28,516.165 2225.91,548.864 2231.54,546.526 2248.43,554.891 2254.06,554.936 2259.69,533.652 2265.32,517.933 2270.95,509.79 2287.84,543.69 2293.47,522.05 "/>
<path clip-path="url(#clip870)" d="M1947.89 270.476 L2282.93 270.476 L2282.93 166.796 L1947.89 166.796  Z" fill="#ffffff" fill-rule="evenodd" fill-opacity="1"/>
<polyline clip-path="url(#clip870)" style="stroke:#000000; stroke-linecap:round; stroke-linejoin:round; stroke-width:4; stroke-opacity:1; fill:none" points="1947.89,270.476 2282.93,270.476 2282.93,166.796 1947.89,166.796 1947.89,270.476 "/>
<polyline clip-path="url(#clip870)" style="stroke:#009af9; stroke-linecap:round; stroke-linejoin:round; stroke-width:12; stroke-opacity:1; fill:none" points="1971.17,218.636 2110.82,218.636 "/>
<path clip-path="url(#clip870)" d="M2134.1 209.99 L2138.61 209.99 L2146.71 231.749 L2154.82 209.99 L2159.33 209.99 L2149.61 235.916 L2143.82 235.916 L2134.1 209.99 Z" fill="#000000" fill-rule="nonzero" fill-opacity="1" /><path clip-path="url(#clip870)" d="M2176.99 222.883 Q2171.83 222.883 2169.84 224.064 Q2167.85 225.244 2167.85 228.092 Q2167.85 230.36 2169.33 231.703 Q2170.83 233.022 2173.4 233.022 Q2176.95 233.022 2179.08 230.522 Q2181.23 227.999 2181.23 223.832 L2181.23 222.883 L2176.99 222.883 M2185.49 221.124 L2185.49 235.916 L2181.23 235.916 L2181.23 231.981 Q2179.77 234.342 2177.59 235.476 Q2175.42 236.587 2172.27 236.587 Q2168.29 236.587 2165.93 234.365 Q2163.59 232.119 2163.59 228.369 Q2163.59 223.994 2166.51 221.772 Q2169.45 219.55 2175.26 219.55 L2181.23 219.55 L2181.23 219.133 Q2181.23 216.194 2179.28 214.596 Q2177.36 212.976 2173.87 212.976 Q2171.64 212.976 2169.54 213.508 Q2167.43 214.041 2165.49 215.106 L2165.49 211.17 Q2167.83 210.268 2170.02 209.828 Q2172.22 209.365 2174.31 209.365 Q2179.93 209.365 2182.71 212.282 Q2185.49 215.198 2185.49 221.124 Z" fill="#000000" fill-rule="nonzero" fill-opacity="1" /><path clip-path="url(#clip870)" d="M2194.26 199.897 L2198.52 199.897 L2198.52 235.916 L2194.26 235.916 L2194.26 199.897 Z" fill="#000000" fill-rule="nonzero" fill-opacity="1" /><path clip-path="url(#clip870)" d="M2206.99 225.684 L2206.99 209.99 L2211.25 209.99 L2211.25 225.522 Q2211.25 229.203 2212.69 231.055 Q2214.12 232.883 2216.99 232.883 Q2220.44 232.883 2222.43 230.684 Q2224.45 228.485 2224.45 224.689 L2224.45 209.99 L2228.7 209.99 L2228.7 235.916 L2224.45 235.916 L2224.45 231.934 Q2222.89 234.295 2220.83 235.453 Q2218.8 236.587 2216.09 236.587 Q2211.62 236.587 2209.31 233.809 Q2206.99 231.031 2206.99 225.684 M2217.71 209.365 L2217.71 209.365 Z" fill="#000000" fill-rule="nonzero" fill-opacity="1" /><path clip-path="url(#clip870)" d="M2259.65 221.888 L2259.65 223.971 L2240.07 223.971 Q2240.35 228.369 2242.71 230.684 Q2245.09 232.976 2249.33 232.976 Q2251.78 232.976 2254.07 232.374 Q2256.39 231.772 2258.66 230.569 L2258.66 234.596 Q2256.37 235.568 2253.96 236.078 Q2251.55 236.587 2249.07 236.587 Q2242.87 236.587 2239.24 232.976 Q2235.63 229.365 2235.63 223.207 Q2235.63 216.842 2239.05 213.115 Q2242.5 209.365 2248.33 209.365 Q2253.57 209.365 2256.6 212.745 Q2259.65 216.101 2259.65 221.888 M2255.39 220.638 Q2255.35 217.143 2253.43 215.059 Q2251.53 212.976 2248.38 212.976 Q2244.82 212.976 2242.66 214.99 Q2240.53 217.004 2240.21 220.661 L2255.39 220.638 Z" fill="#000000" fill-rule="nonzero" fill-opacity="1" /></svg>
