<?xml version="1.0" encoding="utf-8"?>
<svg xmlns="http://www.w3.org/2000/svg" xmlns:xlink="http://www.w3.org/1999/xlink" width="600" height="400" viewBox="0 0 2400 1600">
<defs>
  <clipPath id="clip230">
    <rect x="0" y="0" width="2400" height="1600"/>
  </clipPath>
</defs>
<path clip-path="url(#clip230)" d="M0 1600 L2400 1600 L2400 0 L0 0  Z" fill="#ffffff" fill-rule="evenodd" fill-opacity="1"/>
<defs>
  <clipPath id="clip231">
    <rect x="480" y="0" width="1681" height="1600"/>
  </clipPath>
</defs>
<path clip-path="url(#clip230)" d="M257.955 1423.18 L2352.76 1423.18 L2352.76 123.472 L257.955 123.472  Z" fill="#ffffff" fill-rule="evenodd" fill-opacity="1"/>
<defs>
  <clipPath id="clip232">
    <rect x="257" y="123" width="2096" height="1301"/>
  </clipPath>
</defs>
<polyline clip-path="url(#clip232)" style="stroke:#000000; stroke-linecap:round; stroke-linejoin:round; stroke-width:2; stroke-opacity:0.1; fill:none" points="297.888,1423.18 297.888,123.472 "/>
<polyline clip-path="url(#clip232)" style="stroke:#000000; stroke-linecap:round; stroke-linejoin:round; stroke-width:2; stroke-opacity:0.1; fill:none" points="804.613,1423.18 804.613,123.472 "/>
<polyline clip-path="url(#clip232)" style="stroke:#000000; stroke-linecap:round; stroke-linejoin:round; stroke-width:2; stroke-opacity:0.1; fill:none" points="1316.97,1423.18 1316.97,123.472 "/>
<polyline clip-path="url(#clip232)" style="stroke:#000000; stroke-linecap:round; stroke-linejoin:round; stroke-width:2; stroke-opacity:0.1; fill:none" points="1834.95,1423.18 1834.95,123.472 "/>
<polyline clip-path="url(#clip232)" style="stroke:#000000; stroke-linecap:round; stroke-linejoin:round; stroke-width:2; stroke-opacity:0.05; fill:none" points="399.233,1423.18 399.233,123.472 "/>
<polyline clip-path="url(#clip232)" style="stroke:#000000; stroke-linecap:round; stroke-linejoin:round; stroke-width:2; stroke-opacity:0.05; fill:none" points="500.578,1423.18 500.578,123.472 "/>
<polyline clip-path="url(#clip232)" style="stroke:#000000; stroke-linecap:round; stroke-linejoin:round; stroke-width:2; stroke-opacity:0.05; fill:none" points="601.923,1423.18 601.923,123.472 "/>
<polyline clip-path="url(#clip232)" style="stroke:#000000; stroke-linecap:round; stroke-linejoin:round; stroke-width:2; stroke-opacity:0.05; fill:none" points="703.268,1423.18 703.268,123.472 "/>
<polyline clip-path="url(#clip232)" style="stroke:#000000; stroke-linecap:round; stroke-linejoin:round; stroke-width:2; stroke-opacity:0.05; fill:none" points="907.084,1423.18 907.084,123.472 "/>
<polyline clip-path="url(#clip232)" style="stroke:#000000; stroke-linecap:round; stroke-linejoin:round; stroke-width:2; stroke-opacity:0.05; fill:none" points="1009.55,1423.18 1009.55,123.472 "/>
<polyline clip-path="url(#clip232)" style="stroke:#000000; stroke-linecap:round; stroke-linejoin:round; stroke-width:2; stroke-opacity:0.05; fill:none" points="1112.03,1423.18 1112.03,123.472 "/>
<polyline clip-path="url(#clip232)" style="stroke:#000000; stroke-linecap:round; stroke-linejoin:round; stroke-width:2; stroke-opacity:0.05; fill:none" points="1214.5,1423.18 1214.5,123.472 "/>
<polyline clip-path="url(#clip232)" style="stroke:#000000; stroke-linecap:round; stroke-linejoin:round; stroke-width:2; stroke-opacity:0.05; fill:none" points="1420.56,1423.18 1420.56,123.472 "/>
<polyline clip-path="url(#clip232)" style="stroke:#000000; stroke-linecap:round; stroke-linejoin:round; stroke-width:2; stroke-opacity:0.05; fill:none" points="1524.16,1423.18 1524.16,123.472 "/>
<polyline clip-path="url(#clip232)" style="stroke:#000000; stroke-linecap:round; stroke-linejoin:round; stroke-width:2; stroke-opacity:0.05; fill:none" points="1627.76,1423.18 1627.76,123.472 "/>
<polyline clip-path="url(#clip232)" style="stroke:#000000; stroke-linecap:round; stroke-linejoin:round; stroke-width:2; stroke-opacity:0.05; fill:none" points="1731.36,1423.18 1731.36,123.472 "/>
<polyline clip-path="url(#clip232)" style="stroke:#000000; stroke-linecap:round; stroke-linejoin:round; stroke-width:2; stroke-opacity:0.05; fill:none" points="1939.7,1423.18 1939.7,123.472 "/>
<polyline clip-path="url(#clip232)" style="stroke:#000000; stroke-linecap:round; stroke-linejoin:round; stroke-width:2; stroke-opacity:0.05; fill:none" points="2044.45,1423.18 2044.45,123.472 "/>
<polyline clip-path="url(#clip232)" style="stroke:#000000; stroke-linecap:round; stroke-linejoin:round; stroke-width:2; stroke-opacity:0.05; fill:none" points="2149.2,1423.18 2149.2,123.472 "/>
<polyline clip-path="url(#clip232)" style="stroke:#000000; stroke-linecap:round; stroke-linejoin:round; stroke-width:2; stroke-opacity:0.05; fill:none" points="2253.95,1423.18 2253.95,123.472 "/>
<polyline clip-path="url(#clip230)" style="stroke:#000000; stroke-linecap:round; stroke-linejoin:round; stroke-width:4; stroke-opacity:1; fill:none" points="257.955,1423.18 2352.76,1423.18 "/>
<polyline clip-path="url(#clip230)" style="stroke:#000000; stroke-linecap:round; stroke-linejoin:round; stroke-width:4; stroke-opacity:1; fill:none" points="297.888,1423.18 297.888,1404.28 "/>
<polyline clip-path="url(#clip230)" style="stroke:#000000; stroke-linecap:round; stroke-linejoin:round; stroke-width:4; stroke-opacity:1; fill:none" points="804.613,1423.18 804.613,1404.28 "/>
<polyline clip-path="url(#clip230)" style="stroke:#000000; stroke-linecap:round; stroke-linejoin:round; stroke-width:4; stroke-opacity:1; fill:none" points="1316.97,1423.18 1316.97,1404.28 "/>
<polyline clip-path="url(#clip230)" style="stroke:#000000; stroke-linecap:round; stroke-linejoin:round; stroke-width:4; stroke-opacity:1; fill:none" points="1834.95,1423.18 1834.95,1404.28 "/>
<polyline clip-path="url(#clip230)" style="stroke:#000000; stroke-linecap:round; stroke-linejoin:round; stroke-width:4; stroke-opacity:1; fill:none" points="399.233,1423.18 399.233,1413.73 "/>
<polyline clip-path="url(#clip230)" style="stroke:#000000; stroke-linecap:round; stroke-linejoin:round; stroke-width:4; stroke-opacity:1; fill:none" points="500.578,1423.18 500.578,1413.73 "/>
<polyline clip-path="url(#clip230)" style="stroke:#000000; stroke-linecap:round; stroke-linejoin:round; stroke-width:4; stroke-opacity:1; fill:none" points="601.923,1423.18 601.923,1413.73 "/>
<polyline clip-path="url(#clip230)" style="stroke:#000000; stroke-linecap:round; stroke-linejoin:round; stroke-width:4; stroke-opacity:1; fill:none" points="703.268,1423.18 703.268,1413.73 "/>
<polyline clip-path="url(#clip230)" style="stroke:#000000; stroke-linecap:round; stroke-linejoin:round; stroke-width:4; stroke-opacity:1; fill:none" points="907.084,1423.18 907.084,1413.73 "/>
<polyline clip-path="url(#clip230)" style="stroke:#000000; stroke-linecap:round; stroke-linejoin:round; stroke-width:4; stroke-opacity:1; fill:none" points="1009.55,1423.18 1009.55,1413.73 "/>
<polyline clip-path="url(#clip230)" style="stroke:#000000; stroke-linecap:round; stroke-linejoin:round; stroke-width:4; stroke-opacity:1; fill:none" points="1112.03,1423.18 1112.03,1413.73 "/>
<polyline clip-path="url(#clip230)" style="stroke:#000000; stroke-linecap:round; stroke-linejoin:round; stroke-width:4; stroke-opacity:1; fill:none" points="1214.5,1423.18 1214.5,1413.73 "/>
<polyline clip-path="url(#clip230)" style="stroke:#000000; stroke-linecap:round; stroke-linejoin:round; stroke-width:4; stroke-opacity:1; fill:none" points="1420.56,1423.18 1420.56,1413.73 "/>
<polyline clip-path="url(#clip230)" style="stroke:#000000; stroke-linecap:round; stroke-linejoin:round; stroke-width:4; stroke-opacity:1; fill:none" points="1524.16,1423.18 1524.16,1413.73 "/>
<polyline clip-path="url(#clip230)" style="stroke:#000000; stroke-linecap:round; stroke-linejoin:round; stroke-width:4; stroke-opacity:1; fill:none" points="1627.76,1423.18 1627.76,1413.73 "/>
<polyline clip-path="url(#clip230)" style="stroke:#000000; stroke-linecap:round; stroke-linejoin:round; stroke-width:4; stroke-opacity:1; fill:none" points="1731.36,1423.18 1731.36,1413.73 "/>
<polyline clip-path="url(#clip230)" style="stroke:#000000; stroke-linecap:round; stroke-linejoin:round; stroke-width:4; stroke-opacity:1; fill:none" points="1939.7,1423.18 1939.7,1413.73 "/>
<polyline clip-path="url(#clip230)" style="stroke:#000000; stroke-linecap:round; stroke-linejoin:round; stroke-width:4; stroke-opacity:1; fill:none" points="2044.45,1423.18 2044.45,1413.73 "/>
<polyline clip-path="url(#clip230)" style="stroke:#000000; stroke-linecap:round; stroke-linejoin:round; stroke-width:4; stroke-opacity:1; fill:none" points="2149.2,1423.18 2149.2,1413.73 "/>
<polyline clip-path="url(#clip230)" style="stroke:#000000; stroke-linecap:round; stroke-linejoin:round; stroke-width:4; stroke-opacity:1; fill:none" points="2253.95,1423.18 2253.95,1413.73 "/>
<path clip-path="url(#clip230)" d="M169.682 1481.64 L186.002 1481.64 L186.002 1485.58 L164.057 1485.58 L164.057 1481.64 Q166.719 1478.89 171.303 1474.26 Q175.909 1469.61 177.09 1468.27 Q179.335 1465.74 180.215 1464.01 Q181.117 1462.25 181.117 1460.56 Q181.117 1457.8 179.173 1456.07 Q177.252 1454.33 174.15 1454.33 Q171.951 1454.33 169.497 1455.09 Q167.067 1455.86 164.289 1457.41 L164.289 1452.69 Q167.113 1451.55 169.567 1450.97 Q172.02 1450.39 174.057 1450.39 Q179.428 1450.39 182.622 1453.08 Q185.816 1455.77 185.816 1460.26 Q185.816 1462.39 185.006 1464.31 Q184.219 1466.2 182.113 1468.8 Q181.534 1469.47 178.432 1472.69 Q175.33 1475.88 169.682 1481.64 Z" fill="#000000" fill-rule="nonzero" fill-opacity="1" /><path clip-path="url(#clip230)" d="M205.816 1454.1 Q202.205 1454.1 200.377 1457.66 Q198.571 1461.2 198.571 1468.33 Q198.571 1475.44 200.377 1479.01 Q202.205 1482.55 205.816 1482.55 Q209.451 1482.55 211.256 1479.01 Q213.085 1475.44 213.085 1468.33 Q213.085 1461.2 211.256 1457.66 Q209.451 1454.1 205.816 1454.1 M205.816 1450.39 Q211.627 1450.39 214.682 1455 Q217.761 1459.58 217.761 1468.33 Q217.761 1477.06 214.682 1481.67 Q211.627 1486.25 205.816 1486.25 Q200.006 1486.25 196.928 1481.67 Q193.872 1477.06 193.872 1468.33 Q193.872 1459.58 196.928 1455 Q200.006 1450.39 205.816 1450.39 Z" fill="#000000" fill-rule="nonzero" fill-opacity="1" /><path clip-path="url(#clip230)" d="M230.006 1481.64 L246.325 1481.64 L246.325 1485.58 L224.381 1485.58 L224.381 1481.64 Q227.043 1478.89 231.626 1474.26 Q236.233 1469.61 237.413 1468.27 Q239.659 1465.74 240.538 1464.01 Q241.441 1462.25 241.441 1460.56 Q241.441 1457.8 239.497 1456.07 Q237.575 1454.33 234.474 1454.33 Q232.275 1454.33 229.821 1455.09 Q227.39 1455.86 224.613 1457.41 L224.613 1452.69 Q227.437 1451.55 229.89 1450.97 Q232.344 1450.39 234.381 1450.39 Q239.751 1450.39 242.946 1453.08 Q246.14 1455.77 246.14 1460.26 Q246.14 1462.39 245.33 1464.31 Q244.543 1466.2 242.437 1468.8 Q241.858 1469.47 238.756 1472.69 Q235.654 1475.88 230.006 1481.64 Z" fill="#000000" fill-rule="nonzero" fill-opacity="1" /><path clip-path="url(#clip230)" d="M256.95 1481.64 L264.589 1481.64 L264.589 1455.28 L256.279 1456.95 L256.279 1452.69 L264.543 1451.02 L269.219 1451.02 L269.219 1481.64 L276.858 1481.64 L276.858 1485.58 L256.95 1485.58 L256.95 1481.64 Z" fill="#000000" fill-rule="nonzero" fill-opacity="1" /><path clip-path="url(#clip230)" d="M283.547 1470.7 L296.024 1470.7 L296.024 1474.49 L283.547 1474.49 L283.547 1470.7 Z" fill="#000000" fill-rule="nonzero" fill-opacity="1" /><path clip-path="url(#clip230)" d="M313.408 1454.1 Q309.797 1454.1 307.969 1457.66 Q306.163 1461.2 306.163 1468.33 Q306.163 1475.44 307.969 1479.01 Q309.797 1482.55 313.408 1482.55 Q317.043 1482.55 318.848 1479.01 Q320.677 1475.44 320.677 1468.33 Q320.677 1461.2 318.848 1457.66 Q317.043 1454.1 313.408 1454.1 M313.408 1450.39 Q319.219 1450.39 322.274 1455 Q325.353 1459.58 325.353 1468.33 Q325.353 1477.06 322.274 1481.67 Q319.219 1486.25 313.408 1486.25 Q307.598 1486.25 304.52 1481.67 Q301.464 1477.06 301.464 1468.33 Q301.464 1459.58 304.52 1455 Q307.598 1450.39 313.408 1450.39 Z" fill="#000000" fill-rule="nonzero" fill-opacity="1" /><path clip-path="url(#clip230)" d="M334.38 1481.64 L342.019 1481.64 L342.019 1455.28 L333.709 1456.95 L333.709 1452.69 L341.973 1451.02 L346.649 1451.02 L346.649 1481.64 L354.288 1481.64 L354.288 1485.58 L334.38 1485.58 L334.38 1481.64 Z" fill="#000000" fill-rule="nonzero" fill-opacity="1" /><path clip-path="url(#clip230)" d="M360.978 1470.7 L373.454 1470.7 L373.454 1474.49 L360.978 1474.49 L360.978 1470.7 Z" fill="#000000" fill-rule="nonzero" fill-opacity="1" /><path clip-path="url(#clip230)" d="M390.839 1454.1 Q387.227 1454.1 385.399 1457.66 Q383.593 1461.2 383.593 1468.33 Q383.593 1475.44 385.399 1479.01 Q387.227 1482.55 390.839 1482.55 Q394.473 1482.55 396.278 1479.01 Q398.107 1475.44 398.107 1468.33 Q398.107 1461.2 396.278 1457.66 Q394.473 1454.1 390.839 1454.1 M390.839 1450.39 Q396.649 1450.39 399.704 1455 Q402.783 1459.58 402.783 1468.33 Q402.783 1477.06 399.704 1481.67 Q396.649 1486.25 390.839 1486.25 Q385.028 1486.25 381.95 1481.67 Q378.894 1477.06 378.894 1468.33 Q378.894 1459.58 381.95 1455 Q385.028 1450.39 390.839 1450.39 Z" fill="#000000" fill-rule="nonzero" fill-opacity="1" /><path clip-path="url(#clip230)" d="M411.811 1481.64 L419.449 1481.64 L419.449 1455.28 L411.139 1456.95 L411.139 1452.69 L419.403 1451.02 L424.079 1451.02 L424.079 1481.64 L431.718 1481.64 L431.718 1485.58 L411.811 1485.58 L411.811 1481.64 Z" fill="#000000" fill-rule="nonzero" fill-opacity="1" /><path clip-path="url(#clip230)" d="M676.407 1481.64 L692.727 1481.64 L692.727 1485.58 L670.782 1485.58 L670.782 1481.64 Q673.444 1478.89 678.028 1474.26 Q682.634 1469.61 683.815 1468.27 Q686.06 1465.74 686.94 1464.01 Q687.842 1462.25 687.842 1460.56 Q687.842 1457.8 685.898 1456.07 Q683.977 1454.33 680.875 1454.33 Q678.676 1454.33 676.222 1455.09 Q673.792 1455.86 671.014 1457.41 L671.014 1452.69 Q673.838 1451.55 676.292 1450.97 Q678.745 1450.39 680.782 1450.39 Q686.153 1450.39 689.347 1453.08 Q692.541 1455.77 692.541 1460.26 Q692.541 1462.39 691.731 1464.31 Q690.944 1466.2 688.838 1468.8 Q688.259 1469.47 685.157 1472.69 Q682.055 1475.88 676.407 1481.64 Z" fill="#000000" fill-rule="nonzero" fill-opacity="1" /><path clip-path="url(#clip230)" d="M712.541 1454.1 Q708.93 1454.1 707.102 1457.66 Q705.296 1461.2 705.296 1468.33 Q705.296 1475.44 707.102 1479.01 Q708.93 1482.55 712.541 1482.55 Q716.176 1482.55 717.981 1479.01 Q719.81 1475.44 719.81 1468.33 Q719.81 1461.2 717.981 1457.66 Q716.176 1454.1 712.541 1454.1 M712.541 1450.39 Q718.351 1450.39 721.407 1455 Q724.486 1459.58 724.486 1468.33 Q724.486 1477.06 721.407 1481.67 Q718.351 1486.25 712.541 1486.25 Q706.731 1486.25 703.652 1481.67 Q700.597 1477.06 700.597 1468.33 Q700.597 1459.58 703.652 1455 Q706.731 1450.39 712.541 1450.39 Z" fill="#000000" fill-rule="nonzero" fill-opacity="1" /><path clip-path="url(#clip230)" d="M736.731 1481.64 L753.05 1481.64 L753.05 1485.58 L731.106 1485.58 L731.106 1481.64 Q733.768 1478.89 738.351 1474.26 Q742.958 1469.61 744.138 1468.27 Q746.384 1465.74 747.263 1464.01 Q748.166 1462.25 748.166 1460.56 Q748.166 1457.8 746.222 1456.07 Q744.3 1454.33 741.199 1454.33 Q739 1454.33 736.546 1455.09 Q734.115 1455.86 731.338 1457.41 L731.338 1452.69 Q734.162 1451.55 736.615 1450.97 Q739.069 1450.39 741.106 1450.39 Q746.476 1450.39 749.671 1453.08 Q752.865 1455.77 752.865 1460.26 Q752.865 1462.39 752.055 1464.31 Q751.268 1466.2 749.162 1468.8 Q748.583 1469.47 745.481 1472.69 Q742.379 1475.88 736.731 1481.64 Z" fill="#000000" fill-rule="nonzero" fill-opacity="1" /><path clip-path="url(#clip230)" d="M763.675 1481.64 L771.314 1481.64 L771.314 1455.28 L763.004 1456.95 L763.004 1452.69 L771.268 1451.02 L775.944 1451.02 L775.944 1481.64 L783.583 1481.64 L783.583 1485.58 L763.675 1485.58 L763.675 1481.64 Z" fill="#000000" fill-rule="nonzero" fill-opacity="1" /><path clip-path="url(#clip230)" d="M790.272 1470.7 L802.749 1470.7 L802.749 1474.49 L790.272 1474.49 L790.272 1470.7 Z" fill="#000000" fill-rule="nonzero" fill-opacity="1" /><path clip-path="url(#clip230)" d="M820.133 1454.1 Q816.522 1454.1 814.694 1457.66 Q812.888 1461.2 812.888 1468.33 Q812.888 1475.44 814.694 1479.01 Q816.522 1482.55 820.133 1482.55 Q823.768 1482.55 825.573 1479.01 Q827.402 1475.44 827.402 1468.33 Q827.402 1461.2 825.573 1457.66 Q823.768 1454.1 820.133 1454.1 M820.133 1450.39 Q825.944 1450.39 828.999 1455 Q832.078 1459.58 832.078 1468.33 Q832.078 1477.06 828.999 1481.67 Q825.944 1486.25 820.133 1486.25 Q814.323 1486.25 811.245 1481.67 Q808.189 1477.06 808.189 1468.33 Q808.189 1459.58 811.245 1455 Q814.323 1450.39 820.133 1450.39 Z" fill="#000000" fill-rule="nonzero" fill-opacity="1" /><path clip-path="url(#clip230)" d="M853.142 1455.09 L841.337 1473.54 L853.142 1473.54 L853.142 1455.09 M851.916 1451.02 L857.795 1451.02 L857.795 1473.54 L862.726 1473.54 L862.726 1477.43 L857.795 1477.43 L857.795 1485.58 L853.142 1485.58 L853.142 1477.43 L837.541 1477.43 L837.541 1472.92 L851.916 1451.02 Z" fill="#000000" fill-rule="nonzero" fill-opacity="1" /><path clip-path="url(#clip230)" d="M867.703 1470.7 L880.179 1470.7 L880.179 1474.49 L867.703 1474.49 L867.703 1470.7 Z" fill="#000000" fill-rule="nonzero" fill-opacity="1" /><path clip-path="url(#clip230)" d="M897.563 1454.1 Q893.952 1454.1 892.124 1457.66 Q890.318 1461.2 890.318 1468.33 Q890.318 1475.44 892.124 1479.01 Q893.952 1482.55 897.563 1482.55 Q901.198 1482.55 903.003 1479.01 Q904.832 1475.44 904.832 1468.33 Q904.832 1461.2 903.003 1457.66 Q901.198 1454.1 897.563 1454.1 M897.563 1450.39 Q903.374 1450.39 906.429 1455 Q909.508 1459.58 909.508 1468.33 Q909.508 1477.06 906.429 1481.67 Q903.374 1486.25 897.563 1486.25 Q891.753 1486.25 888.675 1481.67 Q885.619 1477.06 885.619 1468.33 Q885.619 1459.58 888.675 1455 Q891.753 1450.39 897.563 1450.39 Z" fill="#000000" fill-rule="nonzero" fill-opacity="1" /><path clip-path="url(#clip230)" d="M918.536 1481.64 L926.174 1481.64 L926.174 1455.28 L917.864 1456.95 L917.864 1452.69 L926.128 1451.02 L930.804 1451.02 L930.804 1481.64 L938.443 1481.64 L938.443 1485.58 L918.536 1485.58 L918.536 1481.64 Z" fill="#000000" fill-rule="nonzero" fill-opacity="1" /><path clip-path="url(#clip230)" d="M1188.76 1481.64 L1205.08 1481.64 L1205.08 1485.58 L1183.14 1485.58 L1183.14 1481.64 Q1185.8 1478.89 1190.38 1474.26 Q1194.99 1469.61 1196.17 1468.27 Q1198.42 1465.74 1199.29 1464.01 Q1200.2 1462.25 1200.2 1460.56 Q1200.2 1457.8 1198.25 1456.07 Q1196.33 1454.33 1193.23 1454.33 Q1191.03 1454.33 1188.58 1455.09 Q1186.15 1455.86 1183.37 1457.41 L1183.37 1452.69 Q1186.19 1451.55 1188.65 1450.97 Q1191.1 1450.39 1193.14 1450.39 Q1198.51 1450.39 1201.7 1453.08 Q1204.9 1455.77 1204.9 1460.26 Q1204.9 1462.39 1204.09 1464.31 Q1203.3 1466.2 1201.19 1468.8 Q1200.61 1469.47 1197.51 1472.69 Q1194.41 1475.88 1188.76 1481.64 Z" fill="#000000" fill-rule="nonzero" fill-opacity="1" /><path clip-path="url(#clip230)" d="M1224.9 1454.1 Q1221.29 1454.1 1219.46 1457.66 Q1217.65 1461.2 1217.65 1468.33 Q1217.65 1475.44 1219.46 1479.01 Q1221.29 1482.55 1224.9 1482.55 Q1228.53 1482.55 1230.34 1479.01 Q1232.17 1475.44 1232.17 1468.33 Q1232.17 1461.2 1230.34 1457.66 Q1228.53 1454.1 1224.9 1454.1 M1224.9 1450.39 Q1230.71 1450.39 1233.76 1455 Q1236.84 1459.58 1236.84 1468.33 Q1236.84 1477.06 1233.76 1481.67 Q1230.71 1486.25 1224.9 1486.25 Q1219.09 1486.25 1216.01 1481.67 Q1212.95 1477.06 1212.95 1468.33 Q1212.95 1459.58 1216.01 1455 Q1219.09 1450.39 1224.9 1450.39 Z" fill="#000000" fill-rule="nonzero" fill-opacity="1" /><path clip-path="url(#clip230)" d="M1249.09 1481.64 L1265.41 1481.64 L1265.41 1485.58 L1243.46 1485.58 L1243.46 1481.64 Q1246.12 1478.89 1250.71 1474.26 Q1255.31 1469.61 1256.49 1468.27 Q1258.74 1465.74 1259.62 1464.01 Q1260.52 1462.25 1260.52 1460.56 Q1260.52 1457.8 1258.58 1456.07 Q1256.66 1454.33 1253.55 1454.33 Q1251.35 1454.33 1248.9 1455.09 Q1246.47 1455.86 1243.69 1457.41 L1243.69 1452.69 Q1246.52 1451.55 1248.97 1450.97 Q1251.42 1450.39 1253.46 1450.39 Q1258.83 1450.39 1262.03 1453.08 Q1265.22 1455.77 1265.22 1460.26 Q1265.22 1462.39 1264.41 1464.31 Q1263.62 1466.2 1261.52 1468.8 Q1260.94 1469.47 1257.84 1472.69 Q1254.73 1475.88 1249.09 1481.64 Z" fill="#000000" fill-rule="nonzero" fill-opacity="1" /><path clip-path="url(#clip230)" d="M1276.03 1481.64 L1283.67 1481.64 L1283.67 1455.28 L1275.36 1456.95 L1275.36 1452.69 L1283.62 1451.02 L1288.3 1451.02 L1288.3 1481.64 L1295.94 1481.64 L1295.94 1485.58 L1276.03 1485.58 L1276.03 1481.64 Z" fill="#000000" fill-rule="nonzero" fill-opacity="1" /><path clip-path="url(#clip230)" d="M1302.63 1470.7 L1315.1 1470.7 L1315.1 1474.49 L1302.63 1474.49 L1302.63 1470.7 Z" fill="#000000" fill-rule="nonzero" fill-opacity="1" /><path clip-path="url(#clip230)" d="M1332.49 1454.1 Q1328.88 1454.1 1327.05 1457.66 Q1325.24 1461.2 1325.24 1468.33 Q1325.24 1475.44 1327.05 1479.01 Q1328.88 1482.55 1332.49 1482.55 Q1336.12 1482.55 1337.93 1479.01 Q1339.76 1475.44 1339.76 1468.33 Q1339.76 1461.2 1337.93 1457.66 Q1336.12 1454.1 1332.49 1454.1 M1332.49 1450.39 Q1338.3 1450.39 1341.35 1455 Q1344.43 1459.58 1344.43 1468.33 Q1344.43 1477.06 1341.35 1481.67 Q1338.3 1486.25 1332.49 1486.25 Q1326.68 1486.25 1323.6 1481.67 Q1320.54 1477.06 1320.54 1468.33 Q1320.54 1459.58 1323.6 1455 Q1326.68 1450.39 1332.49 1450.39 Z" fill="#000000" fill-rule="nonzero" fill-opacity="1" /><path clip-path="url(#clip230)" d="M1351.47 1451.02 L1373.69 1451.02 L1373.69 1453.01 L1361.15 1485.58 L1356.26 1485.58 L1368.07 1454.96 L1351.47 1454.96 L1351.47 1451.02 Z" fill="#000000" fill-rule="nonzero" fill-opacity="1" /><path clip-path="url(#clip230)" d="M1380.06 1470.7 L1392.53 1470.7 L1392.53 1474.49 L1380.06 1474.49 L1380.06 1470.7 Z" fill="#000000" fill-rule="nonzero" fill-opacity="1" /><path clip-path="url(#clip230)" d="M1409.92 1454.1 Q1406.31 1454.1 1404.48 1457.66 Q1402.67 1461.2 1402.67 1468.33 Q1402.67 1475.44 1404.48 1479.01 Q1406.31 1482.55 1409.92 1482.55 Q1413.55 1482.55 1415.36 1479.01 Q1417.19 1475.44 1417.19 1468.33 Q1417.19 1461.2 1415.36 1457.66 Q1413.55 1454.1 1409.92 1454.1 M1409.92 1450.39 Q1415.73 1450.39 1418.78 1455 Q1421.86 1459.58 1421.86 1468.33 Q1421.86 1477.06 1418.78 1481.67 Q1415.73 1486.25 1409.92 1486.25 Q1404.11 1486.25 1401.03 1481.67 Q1397.97 1477.06 1397.97 1468.33 Q1397.97 1459.58 1401.03 1455 Q1404.11 1450.39 1409.92 1450.39 Z" fill="#000000" fill-rule="nonzero" fill-opacity="1" /><path clip-path="url(#clip230)" d="M1430.89 1481.64 L1438.53 1481.64 L1438.53 1455.28 L1430.22 1456.95 L1430.22 1452.69 L1438.48 1451.02 L1443.16 1451.02 L1443.16 1481.64 L1450.8 1481.64 L1450.8 1485.58 L1430.89 1485.58 L1430.89 1481.64 Z" fill="#000000" fill-rule="nonzero" fill-opacity="1" /><path clip-path="url(#clip230)" d="M1706.75 1481.64 L1723.07 1481.64 L1723.07 1485.58 L1701.12 1485.58 L1701.12 1481.64 Q1703.79 1478.89 1708.37 1474.26 Q1712.97 1469.61 1714.16 1468.27 Q1716.4 1465.74 1717.28 1464.01 Q1718.18 1462.25 1718.18 1460.56 Q1718.18 1457.8 1716.24 1456.07 Q1714.32 1454.33 1711.22 1454.33 Q1709.02 1454.33 1706.56 1455.09 Q1704.13 1455.86 1701.35 1457.41 L1701.35 1452.69 Q1704.18 1451.55 1706.63 1450.97 Q1709.09 1450.39 1711.12 1450.39 Q1716.49 1450.39 1719.69 1453.08 Q1722.88 1455.77 1722.88 1460.26 Q1722.88 1462.39 1722.07 1464.31 Q1721.28 1466.2 1719.18 1468.8 Q1718.6 1469.47 1715.5 1472.69 Q1712.4 1475.88 1706.75 1481.64 Z" fill="#000000" fill-rule="nonzero" fill-opacity="1" /><path clip-path="url(#clip230)" d="M1742.88 1454.1 Q1739.27 1454.1 1737.44 1457.66 Q1735.64 1461.2 1735.64 1468.33 Q1735.64 1475.44 1737.44 1479.01 Q1739.27 1482.55 1742.88 1482.55 Q1746.52 1482.55 1748.32 1479.01 Q1750.15 1475.44 1750.15 1468.33 Q1750.15 1461.2 1748.32 1457.66 Q1746.52 1454.1 1742.88 1454.1 M1742.88 1450.39 Q1748.69 1450.39 1751.75 1455 Q1754.83 1459.58 1754.83 1468.33 Q1754.83 1477.06 1751.75 1481.67 Q1748.69 1486.25 1742.88 1486.25 Q1737.07 1486.25 1733.99 1481.67 Q1730.94 1477.06 1730.94 1468.33 Q1730.94 1459.58 1733.99 1455 Q1737.07 1450.39 1742.88 1450.39 Z" fill="#000000" fill-rule="nonzero" fill-opacity="1" /><path clip-path="url(#clip230)" d="M1767.07 1481.64 L1783.39 1481.64 L1783.39 1485.58 L1761.45 1485.58 L1761.45 1481.64 Q1764.11 1478.89 1768.69 1474.26 Q1773.3 1469.61 1774.48 1468.27 Q1776.72 1465.74 1777.6 1464.01 Q1778.51 1462.25 1778.51 1460.56 Q1778.51 1457.8 1776.56 1456.07 Q1774.64 1454.33 1771.54 1454.33 Q1769.34 1454.33 1766.89 1455.09 Q1764.46 1455.86 1761.68 1457.41 L1761.68 1452.69 Q1764.5 1451.55 1766.96 1450.97 Q1769.41 1450.39 1771.45 1450.39 Q1776.82 1450.39 1780.01 1453.08 Q1783.21 1455.77 1783.21 1460.26 Q1783.21 1462.39 1782.4 1464.31 Q1781.61 1466.2 1779.5 1468.8 Q1778.92 1469.47 1775.82 1472.69 Q1772.72 1475.88 1767.07 1481.64 Z" fill="#000000" fill-rule="nonzero" fill-opacity="1" /><path clip-path="url(#clip230)" d="M1794.02 1481.64 L1801.65 1481.64 L1801.65 1455.28 L1793.34 1456.95 L1793.34 1452.69 L1801.61 1451.02 L1806.28 1451.02 L1806.28 1481.64 L1813.92 1481.64 L1813.92 1485.58 L1794.02 1485.58 L1794.02 1481.64 Z" fill="#000000" fill-rule="nonzero" fill-opacity="1" /><path clip-path="url(#clip230)" d="M1820.61 1470.7 L1833.09 1470.7 L1833.09 1474.49 L1820.61 1474.49 L1820.61 1470.7 Z" fill="#000000" fill-rule="nonzero" fill-opacity="1" /><path clip-path="url(#clip230)" d="M1841.28 1481.64 L1848.92 1481.64 L1848.92 1455.28 L1840.61 1456.95 L1840.61 1452.69 L1848.88 1451.02 L1853.55 1451.02 L1853.55 1481.64 L1861.19 1481.64 L1861.19 1485.58 L1841.28 1485.58 L1841.28 1481.64 Z" fill="#000000" fill-rule="nonzero" fill-opacity="1" /><path clip-path="url(#clip230)" d="M1880.64 1454.1 Q1877.02 1454.1 1875.2 1457.66 Q1873.39 1461.2 1873.39 1468.33 Q1873.39 1475.44 1875.2 1479.01 Q1877.02 1482.55 1880.64 1482.55 Q1884.27 1482.55 1886.08 1479.01 Q1887.9 1475.44 1887.9 1468.33 Q1887.9 1461.2 1886.08 1457.66 Q1884.27 1454.1 1880.64 1454.1 M1880.64 1450.39 Q1886.45 1450.39 1889.5 1455 Q1892.58 1459.58 1892.58 1468.33 Q1892.58 1477.06 1889.5 1481.67 Q1886.45 1486.25 1880.64 1486.25 Q1874.83 1486.25 1871.75 1481.67 Q1868.69 1477.06 1868.69 1468.33 Q1868.69 1459.58 1871.75 1455 Q1874.83 1450.39 1880.64 1450.39 Z" fill="#000000" fill-rule="nonzero" fill-opacity="1" /><path clip-path="url(#clip230)" d="M1898.04 1470.7 L1910.52 1470.7 L1910.52 1474.49 L1898.04 1474.49 L1898.04 1470.7 Z" fill="#000000" fill-rule="nonzero" fill-opacity="1" /><path clip-path="url(#clip230)" d="M1927.9 1454.1 Q1924.29 1454.1 1922.46 1457.66 Q1920.66 1461.2 1920.66 1468.33 Q1920.66 1475.44 1922.46 1479.01 Q1924.29 1482.55 1927.9 1482.55 Q1931.54 1482.55 1933.34 1479.01 Q1935.17 1475.44 1935.17 1468.33 Q1935.17 1461.2 1933.34 1457.66 Q1931.54 1454.1 1927.9 1454.1 M1927.9 1450.39 Q1933.71 1450.39 1936.77 1455 Q1939.85 1459.58 1939.85 1468.33 Q1939.85 1477.06 1936.77 1481.67 Q1933.71 1486.25 1927.9 1486.25 Q1922.09 1486.25 1919.02 1481.67 Q1915.96 1477.06 1915.96 1468.33 Q1915.96 1459.58 1919.02 1455 Q1922.09 1450.39 1927.9 1450.39 Z" fill="#000000" fill-rule="nonzero" fill-opacity="1" /><path clip-path="url(#clip230)" d="M1948.88 1481.64 L1956.52 1481.64 L1956.52 1455.28 L1948.21 1456.95 L1948.21 1452.69 L1956.47 1451.02 L1961.14 1451.02 L1961.14 1481.64 L1968.78 1481.64 L1968.78 1485.58 L1948.88 1485.58 L1948.88 1481.64 Z" fill="#000000" fill-rule="nonzero" fill-opacity="1" /><path clip-path="url(#clip230)" d="M1261.4 1537.81 L1261.4 1518.52 L1267.26 1518.52 L1267.26 1568.04 L1261.4 1568.04 L1261.4 1562.7 Q1259.55 1565.88 1256.72 1567.44 Q1253.92 1568.97 1249.97 1568.97 Q1243.51 1568.97 1239.44 1563.81 Q1235.4 1558.65 1235.4 1550.25 Q1235.4 1541.85 1239.44 1536.69 Q1243.51 1531.54 1249.97 1531.54 Q1253.92 1531.54 1256.72 1533.1 Q1259.55 1534.62 1261.4 1537.81 M1241.44 1550.25 Q1241.44 1556.71 1244.09 1560.4 Q1246.76 1564.07 1251.41 1564.07 Q1256.05 1564.07 1258.73 1560.4 Q1261.4 1556.71 1261.4 1550.25 Q1261.4 1543.79 1258.73 1540.13 Q1256.05 1536.44 1251.41 1536.44 Q1246.76 1536.44 1244.09 1540.13 Q1241.44 1543.79 1241.44 1550.25 Z" fill="#000000" fill-rule="nonzero" fill-opacity="1" /><path clip-path="url(#clip230)" d="M1295.52 1550.12 Q1288.42 1550.12 1285.69 1551.75 Q1282.95 1553.37 1282.95 1557.29 Q1282.95 1560.4 1284.99 1562.25 Q1287.05 1564.07 1290.59 1564.07 Q1295.46 1564.07 1298.38 1560.63 Q1301.35 1557.16 1301.35 1551.43 L1301.35 1550.12 L1295.52 1550.12 M1307.2 1547.71 L1307.2 1568.04 L1301.35 1568.04 L1301.35 1562.63 Q1299.34 1565.88 1296.35 1567.44 Q1293.36 1568.97 1289.03 1568.97 Q1283.55 1568.97 1280.31 1565.91 Q1277.09 1562.82 1277.09 1557.67 Q1277.09 1551.65 1281.1 1548.6 Q1285.14 1545.54 1293.13 1545.54 L1301.35 1545.54 L1301.35 1544.97 Q1301.35 1540.93 1298.67 1538.73 Q1296.03 1536.5 1291.22 1536.5 Q1288.17 1536.5 1285.27 1537.23 Q1282.38 1537.97 1279.7 1539.43 L1279.7 1534.02 Q1282.92 1532.78 1285.94 1532.17 Q1288.96 1531.54 1291.83 1531.54 Q1299.56 1531.54 1303.38 1535.55 Q1307.2 1539.56 1307.2 1547.71 Z" fill="#000000" fill-rule="nonzero" fill-opacity="1" /><path clip-path="url(#clip230)" d="M1325.06 1522.27 L1325.06 1532.4 L1337.12 1532.4 L1337.12 1536.95 L1325.06 1536.95 L1325.06 1556.3 Q1325.06 1560.66 1326.23 1561.9 Q1327.44 1563.14 1331.1 1563.14 L1337.12 1563.14 L1337.12 1568.04 L1331.1 1568.04 Q1324.33 1568.04 1321.75 1565.53 Q1319.17 1562.98 1319.17 1556.3 L1319.17 1536.95 L1314.87 1536.95 L1314.87 1532.4 L1319.17 1532.4 L1319.17 1522.27 L1325.06 1522.27 Z" fill="#000000" fill-rule="nonzero" fill-opacity="1" /><path clip-path="url(#clip230)" d="M1375.31 1548.76 L1375.31 1551.62 L1348.39 1551.62 Q1348.77 1557.67 1352.02 1560.85 Q1355.29 1564 1361.12 1564 Q1364.49 1564 1367.64 1563.17 Q1370.83 1562.35 1373.95 1560.69 L1373.95 1566.23 Q1370.79 1567.57 1367.48 1568.27 Q1364.17 1568.97 1360.77 1568.97 Q1352.24 1568.97 1347.24 1564 Q1342.28 1559.04 1342.28 1550.57 Q1342.28 1541.82 1346.99 1536.69 Q1351.73 1531.54 1359.75 1531.54 Q1366.94 1531.54 1371.11 1536.18 Q1375.31 1540.8 1375.31 1548.76 M1369.46 1547.04 Q1369.39 1542.23 1366.75 1539.37 Q1364.14 1536.5 1359.81 1536.5 Q1354.91 1536.5 1351.95 1539.27 Q1349.02 1542.04 1348.58 1547.07 L1369.46 1547.04 Z" fill="#000000" fill-rule="nonzero" fill-opacity="1" /><polyline clip-path="url(#clip232)" style="stroke:#000000; stroke-linecap:round; stroke-linejoin:round; stroke-width:2; stroke-opacity:0.1; fill:none" points="257.955,1386.4 2352.76,1386.4 "/>
<polyline clip-path="url(#clip232)" style="stroke:#000000; stroke-linecap:round; stroke-linejoin:round; stroke-width:2; stroke-opacity:0.1; fill:none" points="257.955,751.555 2352.76,751.555 "/>
<polyline clip-path="url(#clip230)" style="stroke:#000000; stroke-linecap:round; stroke-linejoin:round; stroke-width:4; stroke-opacity:1; fill:none" points="257.955,1423.18 257.955,123.472 "/>
<polyline clip-path="url(#clip230)" style="stroke:#000000; stroke-linecap:round; stroke-linejoin:round; stroke-width:4; stroke-opacity:1; fill:none" points="257.955,1386.4 276.853,1386.4 "/>
<polyline clip-path="url(#clip230)" style="stroke:#000000; stroke-linecap:round; stroke-linejoin:round; stroke-width:4; stroke-opacity:1; fill:none" points="257.955,751.555 276.853,751.555 "/>
<path clip-path="url(#clip230)" d="M114.931 1406.19 L122.57 1406.19 L122.57 1379.82 L114.26 1381.49 L114.26 1377.23 L122.524 1375.56 L127.2 1375.56 L127.2 1406.19 L134.839 1406.19 L134.839 1410.12 L114.931 1410.12 L114.931 1406.19 Z" fill="#000000" fill-rule="nonzero" fill-opacity="1" /><path clip-path="url(#clip230)" d="M154.283 1378.64 Q150.672 1378.64 148.843 1382.21 Q147.038 1385.75 147.038 1392.88 Q147.038 1399.98 148.843 1403.55 Q150.672 1407.09 154.283 1407.09 Q157.917 1407.09 159.723 1403.55 Q161.552 1399.98 161.552 1392.88 Q161.552 1385.75 159.723 1382.21 Q157.917 1378.64 154.283 1378.64 M154.283 1374.94 Q160.093 1374.94 163.149 1379.54 Q166.227 1384.13 166.227 1392.88 Q166.227 1401.6 163.149 1406.21 Q160.093 1410.79 154.283 1410.79 Q148.473 1410.79 145.394 1406.21 Q142.339 1401.6 142.339 1392.88 Q142.339 1384.13 145.394 1379.54 Q148.473 1374.94 154.283 1374.94 Z" fill="#000000" fill-rule="nonzero" fill-opacity="1" /><path clip-path="url(#clip230)" d="M167.412 1354.63 L182.327 1354.63 L182.327 1357.83 L170.892 1357.83 L170.892 1364.71 Q171.719 1364.43 172.547 1364.3 Q173.374 1364.15 174.202 1364.15 Q178.904 1364.15 181.65 1366.73 Q184.396 1369.3 184.396 1373.7 Q184.396 1378.24 181.575 1380.76 Q178.753 1383.26 173.619 1383.26 Q171.851 1383.26 170.008 1382.96 Q168.183 1382.66 166.227 1382.05 L166.227 1378.24 Q167.92 1379.16 169.726 1379.61 Q171.531 1380.06 173.544 1380.06 Q176.797 1380.06 178.697 1378.35 Q180.597 1376.64 180.597 1373.7 Q180.597 1370.77 178.697 1369.06 Q176.797 1367.35 173.544 1367.35 Q172.02 1367.35 170.497 1367.69 Q168.992 1368.02 167.412 1368.74 L167.412 1354.63 Z" fill="#000000" fill-rule="nonzero" fill-opacity="1" /><path clip-path="url(#clip230)" d="M191.881 1377.94 L195.85 1377.94 L195.85 1382.71 L191.881 1382.71 L191.881 1377.94 Z" fill="#000000" fill-rule="nonzero" fill-opacity="1" /><path clip-path="url(#clip230)" d="M212.25 1357.13 Q209.316 1357.13 207.83 1360.03 Q206.363 1362.91 206.363 1368.7 Q206.363 1374.48 207.83 1377.37 Q209.316 1380.25 212.25 1380.25 Q215.203 1380.25 216.67 1377.37 Q218.156 1374.48 218.156 1368.7 Q218.156 1362.91 216.67 1360.03 Q215.203 1357.13 212.25 1357.13 M212.25 1354.13 Q216.971 1354.13 219.453 1357.87 Q221.955 1361.59 221.955 1368.7 Q221.955 1375.79 219.453 1379.53 Q216.971 1383.26 212.25 1383.26 Q207.529 1383.26 205.028 1379.53 Q202.545 1375.79 202.545 1368.7 Q202.545 1361.59 205.028 1357.87 Q207.529 1354.13 212.25 1354.13 Z" fill="#000000" fill-rule="nonzero" fill-opacity="1" /><path clip-path="url(#clip230)" d="M115.74 771.348 L123.379 771.348 L123.379 744.982 L115.069 746.649 L115.069 742.389 L123.333 740.723 L128.009 740.723 L128.009 771.348 L135.647 771.348 L135.647 775.283 L115.74 775.283 L115.74 771.348 Z" fill="#000000" fill-rule="nonzero" fill-opacity="1" /><path clip-path="url(#clip230)" d="M155.092 743.801 Q151.481 743.801 149.652 747.366 Q147.846 750.908 147.846 758.037 Q147.846 765.144 149.652 768.709 Q151.481 772.25 155.092 772.25 Q158.726 772.25 160.532 768.709 Q162.36 765.144 162.36 758.037 Q162.36 750.908 160.532 747.366 Q158.726 743.801 155.092 743.801 M155.092 740.098 Q160.902 740.098 163.958 744.704 Q167.036 749.288 167.036 758.037 Q167.036 766.764 163.958 771.371 Q160.902 775.954 155.092 775.954 Q149.282 775.954 146.203 771.371 Q143.147 766.764 143.147 758.037 Q143.147 749.288 146.203 744.704 Q149.282 740.098 155.092 740.098 Z" fill="#000000" fill-rule="nonzero" fill-opacity="1" /><path clip-path="url(#clip230)" d="M168.221 719.792 L183.136 719.792 L183.136 722.99 L171.701 722.99 L171.701 729.873 Q172.528 729.591 173.356 729.46 Q174.183 729.309 175.011 729.309 Q179.713 729.309 182.459 731.886 Q185.205 734.462 185.205 738.863 Q185.205 743.396 182.383 745.916 Q179.562 748.418 174.428 748.418 Q172.66 748.418 170.817 748.117 Q168.992 747.816 167.036 747.214 L167.036 743.396 Q168.729 744.318 170.534 744.769 Q172.34 745.22 174.352 745.22 Q177.606 745.22 179.506 743.509 Q181.405 741.797 181.405 738.863 Q181.405 735.929 179.506 734.218 Q177.606 732.506 174.352 732.506 Q172.829 732.506 171.306 732.845 Q169.801 733.183 168.221 733.898 L168.221 719.792 Z" fill="#000000" fill-rule="nonzero" fill-opacity="1" /><path clip-path="url(#clip230)" d="M192.69 743.095 L196.658 743.095 L196.658 747.872 L192.69 747.872 L192.69 743.095 Z" fill="#000000" fill-rule="nonzero" fill-opacity="1" /><path clip-path="url(#clip230)" d="M204.971 719.792 L219.886 719.792 L219.886 722.99 L208.451 722.99 L208.451 729.873 Q209.278 729.591 210.106 729.46 Q210.934 729.309 211.761 729.309 Q216.463 729.309 219.209 731.886 Q221.955 734.462 221.955 738.863 Q221.955 743.396 219.134 745.916 Q216.313 748.418 211.178 748.418 Q209.41 748.418 207.567 748.117 Q205.743 747.816 203.787 747.214 L203.787 743.396 Q205.479 744.318 207.285 744.769 Q209.09 745.22 211.103 745.22 Q214.357 745.22 216.256 743.509 Q218.156 741.797 218.156 738.863 Q218.156 735.929 216.256 734.218 Q214.357 732.506 211.103 732.506 Q209.579 732.506 208.056 732.845 Q206.551 733.183 204.971 733.898 L204.971 719.792 Z" fill="#000000" fill-rule="nonzero" fill-opacity="1" /><path clip-path="url(#clip230)" d="M21.7677 1084.27 L39.6235 1084.27 L39.6235 1076.19 Q39.6235 1071.7 37.3 1069.25 Q34.9765 1066.8 30.6797 1066.8 Q26.4147 1066.8 24.0912 1069.25 Q21.7677 1071.7 21.7677 1076.19 L21.7677 1084.27 M16.4842 1090.7 L16.4842 1076.19 Q16.4842 1068.2 20.1126 1064.13 Q23.7092 1060.02 30.6797 1060.02 Q37.7138 1060.02 41.3104 1064.13 Q44.907 1068.2 44.907 1076.19 L44.907 1084.27 L64.0042 1084.27 L64.0042 1090.7 L16.4842 1090.7 Z" fill="#000000" fill-rule="nonzero" fill-opacity="1" /><path clip-path="url(#clip230)" d="M32.4621 1040.16 Q32.4621 1044.87 36.1542 1047.61 Q39.8145 1050.35 46.212 1050.35 Q52.6095 1050.35 56.3017 1047.64 Q59.9619 1044.9 59.9619 1040.16 Q59.9619 1035.48 56.2698 1032.74 Q52.5777 1030.01 46.212 1030.01 Q39.8781 1030.01 36.186 1032.74 Q32.4621 1035.48 32.4621 1040.16 M27.4968 1040.16 Q27.4968 1032.52 32.4621 1028.16 Q37.4273 1023.8 46.212 1023.8 Q54.9649 1023.8 59.9619 1028.16 Q64.9272 1032.52 64.9272 1040.16 Q64.9272 1047.83 59.9619 1052.19 Q54.9649 1056.52 46.212 1056.52 Q37.4273 1056.52 32.4621 1052.19 Q27.4968 1047.83 27.4968 1040.16 Z" fill="#000000" fill-rule="nonzero" fill-opacity="1" /><path clip-path="url(#clip230)" d="M33.8307 993.436 Q33.2578 994.423 33.0032 995.601 Q32.7167 996.746 32.7167 998.147 Q32.7167 1003.11 35.9632 1005.79 Q39.1779 1008.43 45.2253 1008.43 L64.0042 1008.43 L64.0042 1014.32 L28.3562 1014.32 L28.3562 1008.43 L33.8944 1008.43 Q30.6479 1006.58 29.0883 1003.62 Q27.4968 1000.66 27.4968 996.428 Q27.4968 995.823 27.5923 995.091 Q27.656 994.359 27.8151 993.468 L33.8307 993.436 Z" fill="#000000" fill-rule="nonzero" fill-opacity="1" /><path clip-path="url(#clip230)" d="M18.2347 981.501 L28.3562 981.501 L28.3562 969.437 L32.9077 969.437 L32.9077 981.501 L52.2594 981.501 Q56.6199 981.501 57.8613 980.323 Q59.1026 979.113 59.1026 975.453 L59.1026 969.437 L64.0042 969.437 L64.0042 975.453 Q64.0042 982.233 61.4897 984.811 Q58.9434 987.389 52.2594 987.389 L32.9077 987.389 L32.9077 991.686 L28.3562 991.686 L28.3562 987.389 L18.2347 987.389 L18.2347 981.501 Z" fill="#000000" fill-rule="nonzero" fill-opacity="1" /><path clip-path="url(#clip230)" d="M14.479 943.688 L19.3487 943.688 L19.3487 949.29 Q19.3487 952.441 20.6219 953.682 Q21.895 954.892 25.2052 954.892 L28.3562 954.892 L28.3562 945.248 L32.9077 945.248 L32.9077 954.892 L64.0042 954.892 L64.0042 960.78 L32.9077 960.78 L32.9077 966.382 L28.3562 966.382 L28.3562 960.78 L25.8736 960.78 Q19.9216 960.78 17.2162 958.011 Q14.479 955.242 14.479 949.226 L14.479 943.688 Z" fill="#000000" fill-rule="nonzero" fill-opacity="1" /><path clip-path="url(#clip230)" d="M32.4621 924.973 Q32.4621 929.684 36.1542 932.421 Q39.8145 935.158 46.212 935.158 Q52.6095 935.158 56.3017 932.453 Q59.9619 929.715 59.9619 924.973 Q59.9619 920.294 56.2698 917.557 Q52.5777 914.82 46.212 914.82 Q39.8781 914.82 36.186 917.557 Q32.4621 920.294 32.4621 924.973 M27.4968 924.973 Q27.4968 917.334 32.4621 912.974 Q37.4273 908.613 46.212 908.613 Q54.9649 908.613 59.9619 912.974 Q64.9272 917.334 64.9272 924.973 Q64.9272 932.644 59.9619 937.004 Q54.9649 941.333 46.212 941.333 Q37.4273 941.333 32.4621 937.004 Q27.4968 932.644 27.4968 924.973 Z" fill="#000000" fill-rule="nonzero" fill-opacity="1" /><path clip-path="url(#clip230)" d="M14.479 898.905 L14.479 893.049 L64.0042 893.049 L64.0042 898.905 L14.479 898.905 Z" fill="#000000" fill-rule="nonzero" fill-opacity="1" /><path clip-path="url(#clip230)" d="M28.3562 880.795 L28.3562 874.939 L64.0042 874.939 L64.0042 880.795 L28.3562 880.795 M14.479 880.795 L14.479 874.939 L21.895 874.939 L21.895 880.795 L14.479 880.795 Z" fill="#000000" fill-rule="nonzero" fill-opacity="1" /><path clip-path="url(#clip230)" d="M32.4621 848.871 Q32.4621 853.582 36.1542 856.319 Q39.8145 859.056 46.212 859.056 Q52.6095 859.056 56.3017 856.351 Q59.9619 853.613 59.9619 848.871 Q59.9619 844.192 56.2698 841.455 Q52.5777 838.718 46.212 838.718 Q39.8781 838.718 36.186 841.455 Q32.4621 844.192 32.4621 848.871 M27.4968 848.871 Q27.4968 841.232 32.4621 836.872 Q37.4273 832.511 46.212 832.511 Q54.9649 832.511 59.9619 836.872 Q64.9272 841.232 64.9272 848.871 Q64.9272 856.542 59.9619 860.902 Q54.9649 865.231 46.212 865.231 Q37.4273 865.231 32.4621 860.902 Q27.4968 856.542 27.4968 848.871 Z" fill="#000000" fill-rule="nonzero" fill-opacity="1" /><path clip-path="url(#clip230)" d="M64.0042 789.574 L16.4842 807.717 L16.4842 801.001 L56.4926 785.946 L16.4842 770.859 L16.4842 764.175 L64.0042 782.286 L64.0042 789.574 Z" fill="#000000" fill-rule="nonzero" fill-opacity="1" /><path clip-path="url(#clip230)" d="M46.0847 746.351 Q46.0847 753.449 47.7079 756.186 Q49.3312 758.924 53.2461 758.924 Q56.3653 758.924 58.2114 756.887 Q60.0256 754.818 60.0256 751.285 Q60.0256 746.415 56.5881 743.487 Q53.1188 740.527 47.3897 740.527 L46.0847 740.527 L46.0847 746.351 M43.6657 734.67 L64.0042 734.67 L64.0042 740.527 L58.5933 740.527 Q61.8398 742.532 63.3994 745.524 Q64.9272 748.516 64.9272 752.844 Q64.9272 758.319 61.8716 761.565 Q58.7843 764.78 53.6281 764.78 Q47.6125 764.78 44.5569 760.77 Q41.5014 756.727 41.5014 748.738 L41.5014 740.527 L40.9285 740.527 Q36.8862 740.527 34.6901 743.2 Q32.4621 745.842 32.4621 750.648 Q32.4621 753.704 33.1941 756.6 Q33.9262 759.496 35.3903 762.17 L29.9795 762.17 Q28.7381 758.955 28.1334 755.932 Q27.4968 752.908 27.4968 750.043 Q27.4968 742.309 31.5072 738.49 Q35.5176 734.67 43.6657 734.67 Z" fill="#000000" fill-rule="nonzero" fill-opacity="1" /><path clip-path="url(#clip230)" d="M14.479 722.607 L14.479 716.751 L64.0042 716.751 L64.0042 722.607 L14.479 722.607 Z" fill="#000000" fill-rule="nonzero" fill-opacity="1" /><path clip-path="url(#clip230)" d="M49.9359 705.102 L28.3562 705.102 L28.3562 699.245 L49.7131 699.245 Q54.7739 699.245 57.3202 697.272 Q59.8346 695.298 59.8346 691.352 Q59.8346 686.609 56.8109 683.872 Q53.7872 681.103 48.5673 681.103 L28.3562 681.103 L28.3562 675.246 L64.0042 675.246 L64.0042 681.103 L58.5296 681.103 Q61.7762 683.235 63.3676 686.068 Q64.9272 688.869 64.9272 692.593 Q64.9272 698.736 61.1078 701.919 Q57.2883 705.102 49.9359 705.102 M27.4968 690.365 L27.4968 690.365 Z" fill="#000000" fill-rule="nonzero" fill-opacity="1" /><path clip-path="url(#clip230)" d="M44.7161 632.692 L47.5806 632.692 L47.5806 659.619 Q53.6281 659.237 56.8109 655.99 Q59.9619 652.712 59.9619 646.887 Q59.9619 643.513 59.1344 640.362 Q58.3069 637.179 56.6518 634.06 L62.1899 634.06 Q63.5267 637.211 64.227 640.521 Q64.9272 643.832 64.9272 647.237 Q64.9272 655.767 59.9619 660.764 Q54.9967 665.73 46.5303 665.73 Q37.7774 665.73 32.6531 661.019 Q27.4968 656.277 27.4968 648.256 Q27.4968 641.063 32.1438 636.893 Q36.7589 632.692 44.7161 632.692 M42.9973 638.548 Q38.1912 638.612 35.3266 641.253 Q32.4621 643.863 32.4621 648.192 Q32.4621 653.094 35.2312 656.054 Q38.0002 658.982 43.0292 659.428 L42.9973 638.548 Z" fill="#000000" fill-rule="nonzero" fill-opacity="1" /><path clip-path="url(#clip230)" d="M43.5384 605.319 L43.5384 588.163 L48.7583 588.163 L48.7583 605.319 L43.5384 605.319 Z" fill="#000000" fill-rule="nonzero" fill-opacity="1" /><path clip-path="url(#clip230)" d="M16.4842 558.595 L16.4842 552.134 L45.3526 552.134 Q52.9915 552.134 56.3653 549.365 Q59.7073 546.595 59.7073 540.389 Q59.7073 534.214 56.3653 531.445 Q52.9915 528.676 45.3526 528.676 L16.4842 528.676 L16.4842 522.215 L46.1484 522.215 Q55.4423 522.215 60.1847 526.83 Q64.9272 531.413 64.9272 540.389 Q64.9272 549.396 60.1847 554.011 Q55.4423 558.595 46.1484 558.595 L16.4842 558.595 Z" fill="#000000" fill-rule="nonzero" fill-opacity="1" /><path clip-path="url(#clip230)" d="M18.0438 481.665 L24.314 481.665 Q22.5634 485.326 21.704 488.572 Q20.8447 491.819 20.8447 494.842 Q20.8447 500.094 22.8817 502.959 Q24.9187 505.791 28.6745 505.791 Q31.8255 505.791 33.4488 503.913 Q35.0402 502.004 36.0269 496.72 L36.8226 492.837 Q38.1912 485.644 41.6605 482.238 Q45.098 478.801 50.8908 478.801 Q57.7976 478.801 61.3624 483.448 Q64.9272 488.063 64.9272 497.007 Q64.9272 500.38 64.1633 504.2 Q63.3994 507.987 61.9035 512.061 L55.2831 512.061 Q57.4793 508.147 58.5933 504.391 Q59.7073 500.635 59.7073 497.007 Q59.7073 491.5 57.543 488.508 Q55.3786 485.516 51.3682 485.516 Q47.8671 485.516 45.8937 487.681 Q43.9204 489.813 42.9337 494.715 L42.1698 498.63 Q40.7375 505.823 37.682 509.038 Q34.6264 512.252 29.1837 512.252 Q22.8817 512.252 19.2532 507.828 Q15.6248 503.372 15.6248 495.574 Q15.6248 492.232 16.2295 488.763 Q16.8343 485.294 18.0438 481.665 Z" fill="#000000" fill-rule="nonzero" fill-opacity="1" /><path clip-path="url(#clip230)" d="M21.7677 462.345 L58.7206 462.345 L58.7206 454.579 Q58.7206 444.744 54.2646 440.193 Q49.8086 435.609 40.1964 435.609 Q30.6479 435.609 26.2237 440.193 Q21.7677 444.744 21.7677 454.579 L21.7677 462.345 M16.4842 468.775 L16.4842 455.566 Q16.4842 441.752 22.2451 435.291 Q27.9743 428.83 40.1964 428.83 Q52.4822 428.83 58.2432 435.323 Q64.0042 441.816 64.0042 455.566 L64.0042 468.775 L16.4842 468.775 Z" fill="#000000" fill-rule="nonzero" fill-opacity="1" /><path clip-path="url(#clip230)" d="M461.127 18.8205 L461.127 41.5461 L471.416 41.5461 Q477.128 41.5461 480.247 38.5889 Q483.366 35.6318 483.366 30.163 Q483.366 24.7348 480.247 21.7777 Q477.128 18.8205 471.416 18.8205 L461.127 18.8205 M452.944 12.096 L471.416 12.096 Q481.584 12.096 486.769 16.714 Q491.995 21.2916 491.995 30.163 Q491.995 39.1155 486.769 43.6931 Q481.584 48.2706 471.416 48.2706 L461.127 48.2706 L461.127 72.576 L452.944 72.576 L452.944 12.096 Z" fill="#000000" fill-rule="nonzero" fill-opacity="1" /><path clip-path="url(#clip230)" d="M517.272 32.4315 Q511.277 32.4315 507.793 37.1306 Q504.309 41.7891 504.309 49.9314 Q504.309 58.0738 507.753 62.7728 Q511.236 67.4314 517.272 67.4314 Q523.227 67.4314 526.711 62.7323 Q530.195 58.0333 530.195 49.9314 Q530.195 41.8701 526.711 37.1711 Q523.227 32.4315 517.272 32.4315 M517.272 26.1121 Q526.994 26.1121 532.544 32.4315 Q538.094 38.7509 538.094 49.9314 Q538.094 61.0714 532.544 67.4314 Q526.994 73.7508 517.272 73.7508 Q507.51 73.7508 501.96 67.4314 Q496.451 61.0714 496.451 49.9314 Q496.451 38.7509 501.96 32.4315 Q507.51 26.1121 517.272 26.1121 Z" fill="#000000" fill-rule="nonzero" fill-opacity="1" /><path clip-path="url(#clip230)" d="M576.74 34.1734 Q575.484 33.4443 573.985 33.1202 Q572.527 32.7556 570.744 32.7556 Q564.425 32.7556 561.022 36.8875 Q557.66 40.9789 557.66 48.6757 L557.66 72.576 L550.166 72.576 L550.166 27.2059 L557.66 27.2059 L557.66 34.2544 Q560.009 30.1225 563.777 28.1376 Q567.544 26.1121 572.932 26.1121 Q573.701 26.1121 574.633 26.2337 Q575.565 26.3147 576.699 26.5172 L576.74 34.1734 Z" fill="#000000" fill-rule="nonzero" fill-opacity="1" /><path clip-path="url(#clip230)" d="M591.93 14.324 L591.93 27.2059 L607.283 27.2059 L607.283 32.9987 L591.93 32.9987 L591.93 57.6282 Q591.93 63.1779 593.429 64.7578 Q594.969 66.3376 599.627 66.3376 L607.283 66.3376 L607.283 72.576 L599.627 72.576 Q590.999 72.576 587.717 69.3758 Q584.436 66.1351 584.436 57.6282 L584.436 32.9987 L578.968 32.9987 L578.968 27.2059 L584.436 27.2059 L584.436 14.324 L591.93 14.324 Z" fill="#000000" fill-rule="nonzero" fill-opacity="1" /><path clip-path="url(#clip230)" d="M640.055 9.54393 L640.055 15.7418 L632.926 15.7418 Q628.915 15.7418 627.335 17.3622 Q625.796 18.9825 625.796 23.1955 L625.796 27.2059 L638.07 27.2059 L638.07 32.9987 L625.796 32.9987 L625.796 72.576 L618.302 72.576 L618.302 32.9987 L611.172 32.9987 L611.172 27.2059 L618.302 27.2059 L618.302 24.0462 Q618.302 16.471 621.826 13.0277 Q625.35 9.54393 633.007 9.54393 L640.055 9.54393 Z" fill="#000000" fill-rule="nonzero" fill-opacity="1" /><path clip-path="url(#clip230)" d="M663.874 32.4315 Q657.879 32.4315 654.395 37.1306 Q650.912 41.7891 650.912 49.9314 Q650.912 58.0738 654.355 62.7728 Q657.839 67.4314 663.874 67.4314 Q669.829 67.4314 673.313 62.7323 Q676.797 58.0333 676.797 49.9314 Q676.797 41.8701 673.313 37.1711 Q669.829 32.4315 663.874 32.4315 M663.874 26.1121 Q673.597 26.1121 679.146 32.4315 Q684.696 38.7509 684.696 49.9314 Q684.696 61.0714 679.146 67.4314 Q673.597 73.7508 663.874 73.7508 Q654.112 73.7508 648.562 67.4314 Q643.053 61.0714 643.053 49.9314 Q643.053 38.7509 648.562 32.4315 Q654.112 26.1121 663.874 26.1121 Z" fill="#000000" fill-rule="nonzero" fill-opacity="1" /><path clip-path="url(#clip230)" d="M697.051 9.54393 L704.505 9.54393 L704.505 72.576 L697.051 72.576 L697.051 9.54393 Z" fill="#000000" fill-rule="nonzero" fill-opacity="1" /><path clip-path="url(#clip230)" d="M720.101 27.2059 L727.555 27.2059 L727.555 72.576 L720.101 72.576 L720.101 27.2059 M720.101 9.54393 L727.555 9.54393 L727.555 18.9825 L720.101 18.9825 L720.101 9.54393 Z" fill="#000000" fill-rule="nonzero" fill-opacity="1" /><path clip-path="url(#clip230)" d="M760.732 32.4315 Q754.736 32.4315 751.252 37.1306 Q747.769 41.7891 747.769 49.9314 Q747.769 58.0738 751.212 62.7728 Q754.696 67.4314 760.732 67.4314 Q766.686 67.4314 770.17 62.7323 Q773.654 58.0333 773.654 49.9314 Q773.654 41.8701 770.17 37.1711 Q766.686 32.4315 760.732 32.4315 M760.732 26.1121 Q770.454 26.1121 776.003 32.4315 Q781.553 38.7509 781.553 49.9314 Q781.553 61.0714 776.003 67.4314 Q770.454 73.7508 760.732 73.7508 Q750.969 73.7508 745.419 67.4314 Q739.91 61.0714 739.91 49.9314 Q739.91 38.7509 745.419 32.4315 Q750.969 26.1121 760.732 26.1121 Z" fill="#000000" fill-rule="nonzero" fill-opacity="1" /><path clip-path="url(#clip230)" d="M836.2 72.576 L813.11 12.096 L821.657 12.096 L840.818 63.0159 L860.019 12.096 L868.526 12.096 L845.476 72.576 L836.2 72.576 Z" fill="#000000" fill-rule="nonzero" fill-opacity="1" /><path clip-path="url(#clip230)" d="M891.211 49.7694 Q882.178 49.7694 878.694 51.8354 Q875.21 53.9013 875.21 58.8839 Q875.21 62.8538 877.803 65.2034 Q880.436 67.5124 884.932 67.5124 Q891.13 67.5124 894.857 63.1374 Q898.624 58.7219 898.624 51.4303 L898.624 49.7694 L891.211 49.7694 M906.078 46.6907 L906.078 72.576 L898.624 72.576 L898.624 65.6895 Q896.072 69.8214 892.264 71.8063 Q888.457 73.7508 882.947 73.7508 Q875.98 73.7508 871.848 69.8619 Q867.756 65.9325 867.756 59.3701 Q867.756 51.7138 872.861 47.825 Q878.005 43.9361 888.173 43.9361 L898.624 43.9361 L898.624 43.2069 Q898.624 38.0623 895.222 35.2672 Q891.859 32.4315 885.742 32.4315 Q881.854 32.4315 878.167 33.3632 Q874.481 34.295 871.078 36.1584 L871.078 29.2718 Q875.17 27.692 879.018 26.9223 Q882.866 26.1121 886.512 26.1121 Q896.356 26.1121 901.217 31.2163 Q906.078 36.3204 906.078 46.6907 Z" fill="#000000" fill-rule="nonzero" fill-opacity="1" /><path clip-path="url(#clip230)" d="M921.431 9.54393 L928.885 9.54393 L928.885 72.576 L921.431 72.576 L921.431 9.54393 Z" fill="#000000" fill-rule="nonzero" fill-opacity="1" /><path clip-path="url(#clip230)" d="M943.711 54.671 L943.711 27.2059 L951.165 27.2059 L951.165 54.3874 Q951.165 60.8284 953.676 64.0691 Q956.188 67.2693 961.211 67.2693 Q967.247 67.2693 970.73 63.421 Q974.255 59.5726 974.255 52.9291 L974.255 27.2059 L981.708 27.2059 L981.708 72.576 L974.255 72.576 L974.255 65.6084 Q971.541 69.7404 967.935 71.7658 Q964.371 73.7508 959.631 73.7508 Q951.813 73.7508 947.762 68.8897 Q943.711 64.0286 943.711 54.671 M962.467 26.1121 L962.467 26.1121 Z" fill="#000000" fill-rule="nonzero" fill-opacity="1" /><path clip-path="url(#clip230)" d="M1035.87 48.0275 L1035.87 51.6733 L1001.6 51.6733 Q1002.08 59.3701 1006.22 63.421 Q1010.39 67.4314 1017.8 67.4314 Q1022.1 67.4314 1026.11 66.3781 Q1030.16 65.3249 1034.13 63.2184 L1034.13 70.267 Q1030.12 71.9684 1025.9 72.8596 Q1021.69 73.7508 1017.36 73.7508 Q1006.5 73.7508 1000.14 67.4314 Q993.821 61.1119 993.821 50.3365 Q993.821 39.1965 999.816 32.6746 Q1005.85 26.1121 1016.06 26.1121 Q1025.22 26.1121 1030.52 32.0264 Q1035.87 37.9003 1035.87 48.0275 M1028.42 45.84 Q1028.33 39.7232 1024.97 36.0774 Q1021.65 32.4315 1016.14 32.4315 Q1009.9 32.4315 1006.14 35.9558 Q1002.41 39.4801 1001.84 45.8805 L1028.42 45.84 Z" fill="#000000" fill-rule="nonzero" fill-opacity="1" /><path clip-path="url(#clip230)" d="M1050.01 62.2867 L1058.55 62.2867 L1058.55 72.576 L1050.01 72.576 L1050.01 62.2867 M1050.01 29.6769 L1058.55 29.6769 L1058.55 39.9662 L1050.01 39.9662 L1050.01 29.6769 Z" fill="#000000" fill-rule="nonzero" fill-opacity="1" /><path clip-path="url(#clip230)" d="M1102.75 12.096 L1114.94 12.096 L1130.38 53.2532 L1145.89 12.096 L1158.08 12.096 L1158.08 72.576 L1150.1 72.576 L1150.1 19.4686 L1134.51 60.9499 L1126.29 60.9499 L1110.69 19.4686 L1110.69 72.576 L1102.75 72.576 L1102.75 12.096 Z" fill="#000000" fill-rule="nonzero" fill-opacity="1" /><path clip-path="url(#clip230)" d="M1189.92 72.576 L1166.83 12.096 L1175.38 12.096 L1194.54 63.0159 L1213.74 12.096 L1222.25 12.096 L1199.2 72.576 L1189.92 72.576 Z" fill="#000000" fill-rule="nonzero" fill-opacity="1" /><path clip-path="url(#clip230)" d="M1222.13 46.5287 L1243.96 46.5287 L1243.96 53.1722 L1222.13 53.1722 L1222.13 46.5287 Z" fill="#000000" fill-rule="nonzero" fill-opacity="1" /><path clip-path="url(#clip230)" d="M1256.16 12.096 L1268.35 12.096 L1283.78 53.2532 L1299.3 12.096 L1311.49 12.096 L1311.49 72.576 L1303.51 72.576 L1303.51 19.4686 L1287.92 60.9499 L1279.69 60.9499 L1264.1 19.4686 L1264.1 72.576 L1256.16 72.576 L1256.16 12.096 Z" fill="#000000" fill-rule="nonzero" fill-opacity="1" /><path clip-path="url(#clip230)" d="M1335.92 18.8205 L1335.92 41.5461 L1346.21 41.5461 Q1351.92 41.5461 1355.04 38.5889 Q1358.16 35.6318 1358.16 30.163 Q1358.16 24.7348 1355.04 21.7777 Q1351.92 18.8205 1346.21 18.8205 L1335.92 18.8205 M1327.74 12.096 L1346.21 12.096 Q1356.38 12.096 1361.56 16.714 Q1366.79 21.2916 1366.79 30.163 Q1366.79 39.1155 1361.56 43.6931 Q1356.38 48.2706 1346.21 48.2706 L1335.92 48.2706 L1335.92 72.576 L1327.74 72.576 L1327.74 12.096 Z" fill="#000000" fill-rule="nonzero" fill-opacity="1" /><path clip-path="url(#clip230)" d="M1423.05 16.7545 L1423.05 25.383 Q1418.92 21.5346 1414.22 19.6307 Q1409.56 17.7268 1404.3 17.7268 Q1393.93 17.7268 1388.42 24.0867 Q1382.91 30.4061 1382.91 42.3968 Q1382.91 54.3469 1388.42 60.7069 Q1393.93 67.0263 1404.3 67.0263 Q1409.56 67.0263 1414.22 65.1223 Q1418.92 63.2184 1423.05 59.3701 L1423.05 67.9175 Q1418.76 70.8341 1413.94 72.2924 Q1409.16 73.7508 1403.81 73.7508 Q1390.08 73.7508 1382.18 65.3654 Q1374.28 56.9395 1374.28 42.3968 Q1374.28 27.8135 1382.18 19.4281 Q1390.08 11.0023 1403.81 11.0023 Q1409.24 11.0023 1414.02 12.4606 Q1418.84 13.8784 1423.05 16.7545 Z" fill="#000000" fill-rule="nonzero" fill-opacity="1" /><path clip-path="url(#clip230)" d="M1460.97 54.671 L1460.97 27.2059 L1468.42 27.2059 L1468.42 54.3874 Q1468.42 60.8284 1470.94 64.0691 Q1473.45 67.2693 1478.47 67.2693 Q1484.51 67.2693 1487.99 63.421 Q1491.51 59.5726 1491.51 52.9291 L1491.51 27.2059 L1498.97 27.2059 L1498.97 72.576 L1491.51 72.576 L1491.51 65.6084 Q1488.8 69.7404 1485.2 71.7658 Q1481.63 73.7508 1476.89 73.7508 Q1469.07 73.7508 1465.02 68.8897 Q1460.97 64.0286 1460.97 54.671 M1479.73 26.1121 L1479.73 26.1121 Z" fill="#000000" fill-rule="nonzero" fill-opacity="1" /><path clip-path="url(#clip230)" d="M1543.24 28.5427 L1543.24 35.5912 Q1540.09 33.9709 1536.68 33.1607 Q1533.28 32.3505 1529.63 32.3505 Q1524.08 32.3505 1521.29 34.0519 Q1518.53 35.7533 1518.53 39.156 Q1518.53 41.7486 1520.52 43.2475 Q1522.5 44.7058 1528.5 46.0426 L1531.05 46.6097 Q1538.99 48.3111 1542.31 51.4303 Q1545.68 54.509 1545.68 60.0587 Q1545.68 66.3781 1540.65 70.0644 Q1535.67 73.7508 1526.92 73.7508 Q1523.27 73.7508 1519.3 73.0216 Q1515.37 72.3329 1511 70.9151 L1511 63.2184 Q1515.13 65.3654 1519.14 66.4591 Q1523.15 67.5124 1527.08 67.5124 Q1532.35 67.5124 1535.18 65.73 Q1538.02 63.9071 1538.02 60.6258 Q1538.02 57.5877 1535.95 55.9673 Q1533.93 54.3469 1527 52.8481 L1524.41 52.2405 Q1517.48 50.7821 1514.4 47.7845 Q1511.32 44.7463 1511.32 39.4801 Q1511.32 33.0797 1515.86 29.5959 Q1520.4 26.1121 1528.74 26.1121 Q1532.87 26.1121 1536.52 26.7198 Q1540.17 27.3274 1543.24 28.5427 Z" fill="#000000" fill-rule="nonzero" fill-opacity="1" /><path clip-path="url(#clip230)" d="M1557.54 27.2059 L1565 27.2059 L1565 72.576 L1557.54 72.576 L1557.54 27.2059 M1557.54 9.54393 L1565 9.54393 L1565 18.9825 L1557.54 18.9825 L1557.54 9.54393 Z" fill="#000000" fill-rule="nonzero" fill-opacity="1" /><path clip-path="url(#clip230)" d="M1618.31 45.1919 L1618.31 72.576 L1610.85 72.576 L1610.85 45.4349 Q1610.85 38.994 1608.34 35.7938 Q1605.83 32.5936 1600.81 32.5936 Q1594.77 32.5936 1591.29 36.4419 Q1587.8 40.2903 1587.8 46.9338 L1587.8 72.576 L1580.31 72.576 L1580.31 27.2059 L1587.8 27.2059 L1587.8 34.2544 Q1590.48 30.163 1594.08 28.1376 Q1597.73 26.1121 1602.47 26.1121 Q1610.29 26.1121 1614.3 30.9732 Q1618.31 35.7938 1618.31 45.1919 Z" fill="#000000" fill-rule="nonzero" fill-opacity="1" /><path clip-path="url(#clip230)" d="M1663.03 49.3643 Q1663.03 41.2625 1659.67 36.8065 Q1656.35 32.3505 1650.31 32.3505 Q1644.31 32.3505 1640.95 36.8065 Q1637.63 41.2625 1637.63 49.3643 Q1637.63 57.4256 1640.95 61.8816 Q1644.31 66.3376 1650.31 66.3376 Q1656.35 66.3376 1659.67 61.8816 Q1663.03 57.4256 1663.03 49.3643 M1670.48 66.9452 Q1670.48 78.5308 1665.34 84.1616 Q1660.19 89.8329 1649.58 89.8329 Q1645.65 89.8329 1642.17 89.2252 Q1638.68 88.6581 1635.4 87.4428 L1635.4 80.1917 Q1638.68 81.9741 1641.88 82.8248 Q1645.08 83.6755 1648.41 83.6755 Q1655.74 83.6755 1659.38 79.8271 Q1663.03 76.0193 1663.03 68.282 L1663.03 64.5957 Q1660.72 68.6061 1657.12 70.5911 Q1653.51 72.576 1648.49 72.576 Q1640.14 72.576 1635.04 66.2161 Q1629.93 59.8562 1629.93 49.3643 Q1629.93 38.832 1635.04 32.472 Q1640.14 26.1121 1648.49 26.1121 Q1653.51 26.1121 1657.12 28.0971 Q1660.72 30.082 1663.03 34.0924 L1663.03 27.2059 L1670.48 27.2059 L1670.48 66.9452 Z" fill="#000000" fill-rule="nonzero" fill-opacity="1" /><path clip-path="url(#clip230)" d="M1712.53 12.096 L1720.71 12.096 L1720.71 65.6895 L1750.16 65.6895 L1750.16 72.576 L1712.53 72.576 L1712.53 12.096 Z" fill="#000000" fill-rule="nonzero" fill-opacity="1" /><path clip-path="url(#clip230)" d="M1779.05 49.7694 Q1770.01 49.7694 1766.53 51.8354 Q1763.05 53.9013 1763.05 58.8839 Q1763.05 62.8538 1765.64 65.2034 Q1768.27 67.5124 1772.77 67.5124 Q1778.97 67.5124 1782.69 63.1374 Q1786.46 58.7219 1786.46 51.4303 L1786.46 49.7694 L1779.05 49.7694 M1793.91 46.6907 L1793.91 72.576 L1786.46 72.576 L1786.46 65.6895 Q1783.91 69.8214 1780.1 71.8063 Q1776.29 73.7508 1770.78 73.7508 Q1763.82 73.7508 1759.68 69.8619 Q1755.59 65.9325 1755.59 59.3701 Q1755.59 51.7138 1760.7 47.825 Q1765.84 43.9361 1776.01 43.9361 L1786.46 43.9361 L1786.46 43.2069 Q1786.46 38.0623 1783.06 35.2672 Q1779.7 32.4315 1773.58 32.4315 Q1769.69 32.4315 1766 33.3632 Q1762.32 34.295 1758.91 36.1584 L1758.91 29.2718 Q1763.01 27.692 1766.85 26.9223 Q1770.7 26.1121 1774.35 26.1121 Q1784.19 26.1121 1789.05 31.2163 Q1793.91 36.3204 1793.91 46.6907 Z" fill="#000000" fill-rule="nonzero" fill-opacity="1" /><path clip-path="url(#clip230)" d="M1838.19 28.5427 L1838.19 35.5912 Q1835.03 33.9709 1831.63 33.1607 Q1828.23 32.3505 1824.58 32.3505 Q1819.03 32.3505 1816.24 34.0519 Q1813.48 35.7533 1813.48 39.156 Q1813.48 41.7486 1815.47 43.2475 Q1817.45 44.7058 1823.45 46.0426 L1826 46.6097 Q1833.94 48.3111 1837.26 51.4303 Q1840.62 54.509 1840.62 60.0587 Q1840.62 66.3781 1835.6 70.0644 Q1830.62 73.7508 1821.87 73.7508 Q1818.22 73.7508 1814.25 73.0216 Q1810.32 72.3329 1805.95 70.9151 L1805.95 63.2184 Q1810.08 65.3654 1814.09 66.4591 Q1818.1 67.5124 1822.03 67.5124 Q1827.29 67.5124 1830.13 65.73 Q1832.97 63.9071 1832.97 60.6258 Q1832.97 57.5877 1830.9 55.9673 Q1828.87 54.3469 1821.95 52.8481 L1819.35 52.2405 Q1812.43 50.7821 1809.35 47.7845 Q1806.27 44.7463 1806.27 39.4801 Q1806.27 33.0797 1810.81 29.5959 Q1815.34 26.1121 1823.69 26.1121 Q1827.82 26.1121 1831.47 26.7198 Q1835.11 27.3274 1838.19 28.5427 Z" fill="#000000" fill-rule="nonzero" fill-opacity="1" /><path clip-path="url(#clip230)" d="M1859.86 14.324 L1859.86 27.2059 L1875.22 27.2059 L1875.22 32.9987 L1859.86 32.9987 L1859.86 57.6282 Q1859.86 63.1779 1861.36 64.7578 Q1862.9 66.3376 1867.56 66.3376 L1875.22 66.3376 L1875.22 72.576 L1867.56 72.576 Q1858.93 72.576 1855.65 69.3758 Q1852.37 66.1351 1852.37 57.6282 L1852.37 32.9987 L1846.9 32.9987 L1846.9 27.2059 L1852.37 27.2059 L1852.37 14.324 L1859.86 14.324 Z" fill="#000000" fill-rule="nonzero" fill-opacity="1" /><path clip-path="url(#clip230)" d="M1927.31 72.576 L1904.22 12.096 L1912.77 12.096 L1931.93 63.0159 L1951.13 12.096 L1959.64 12.096 L1936.59 72.576 L1927.31 72.576 Z" fill="#000000" fill-rule="nonzero" fill-opacity="1" /><path clip-path="url(#clip230)" d="M1982.32 49.7694 Q1973.29 49.7694 1969.8 51.8354 Q1966.32 53.9013 1966.32 58.8839 Q1966.32 62.8538 1968.91 65.2034 Q1971.55 67.5124 1976.04 67.5124 Q1982.24 67.5124 1985.97 63.1374 Q1989.74 58.7219 1989.74 51.4303 L1989.74 49.7694 L1982.32 49.7694 M1997.19 46.6907 L1997.19 72.576 L1989.74 72.576 L1989.74 65.6895 Q1987.18 69.8214 1983.38 71.8063 Q1979.57 73.7508 1974.06 73.7508 Q1967.09 73.7508 1962.96 69.8619 Q1958.87 65.9325 1958.87 59.3701 Q1958.87 51.7138 1963.97 47.825 Q1969.12 43.9361 1979.28 43.9361 L1989.74 43.9361 L1989.74 43.2069 Q1989.74 38.0623 1986.33 35.2672 Q1982.97 32.4315 1976.85 32.4315 Q1972.96 32.4315 1969.28 33.3632 Q1965.59 34.295 1962.19 36.1584 L1962.19 29.2718 Q1966.28 27.692 1970.13 26.9223 Q1973.98 26.1121 1977.62 26.1121 Q1987.47 26.1121 1992.33 31.2163 Q1997.19 36.3204 1997.19 46.6907 Z" fill="#000000" fill-rule="nonzero" fill-opacity="1" /><path clip-path="url(#clip230)" d="M2012.54 9.54393 L2020 9.54393 L2020 72.576 L2012.54 72.576 L2012.54 9.54393 Z" fill="#000000" fill-rule="nonzero" fill-opacity="1" /><path clip-path="url(#clip230)" d="M2034.82 54.671 L2034.82 27.2059 L2042.28 27.2059 L2042.28 54.3874 Q2042.28 60.8284 2044.79 64.0691 Q2047.3 67.2693 2052.32 67.2693 Q2058.36 67.2693 2061.84 63.421 Q2065.37 59.5726 2065.37 52.9291 L2065.37 27.2059 L2072.82 27.2059 L2072.82 72.576 L2065.37 72.576 L2065.37 65.6084 Q2062.65 69.7404 2059.05 71.7658 Q2055.48 73.7508 2050.74 73.7508 Q2042.92 73.7508 2038.87 68.8897 Q2034.82 64.0286 2034.82 54.671 M2053.58 26.1121 L2053.58 26.1121 Z" fill="#000000" fill-rule="nonzero" fill-opacity="1" /><path clip-path="url(#clip230)" d="M2126.98 48.0275 L2126.98 51.6733 L2092.71 51.6733 Q2093.2 59.3701 2097.33 63.421 Q2101.5 67.4314 2108.91 67.4314 Q2113.21 67.4314 2117.22 66.3781 Q2121.27 65.3249 2125.24 63.2184 L2125.24 70.267 Q2121.23 71.9684 2117.01 72.8596 Q2112.8 73.7508 2108.47 73.7508 Q2097.61 73.7508 2091.25 67.4314 Q2084.93 61.1119 2084.93 50.3365 Q2084.93 39.1965 2090.93 32.6746 Q2096.96 26.1121 2107.17 26.1121 Q2116.33 26.1121 2121.63 32.0264 Q2126.98 37.9003 2126.98 48.0275 M2119.53 45.84 Q2119.45 39.7232 2116.08 36.0774 Q2112.76 32.4315 2107.25 32.4315 Q2101.01 32.4315 2097.25 35.9558 Q2093.52 39.4801 2092.95 45.8805 L2119.53 45.84 Z" fill="#000000" fill-rule="nonzero" fill-opacity="1" /><polyline clip-path="url(#clip232)" style="stroke:#009af9; stroke-linecap:round; stroke-linejoin:round; stroke-width:12; stroke-opacity:1; fill:none" points="317.242,1386.4 322.872,1350.21 328.502,1304.57 334.133,1246.02 339.763,1224.68 356.654,1207.38 362.284,1123.53 367.914,1105.44 373.544,1106.01 379.175,1128.83 401.696,1095.5 407.326,1127.98 412.956,1133.17 418.587,1108.17 435.478,1128.68 441.108,1076.48 446.738,1144.78 452.368,1148.22 457.999,1142.31 474.889,1134.87 480.52,1162.9 486.15,1102.85 491.78,1111.49 497.411,1112.75 514.301,1077.7 519.932,1020.18 525.562,988.307 531.192,1071.57 536.823,1039.08 559.344,1060.39 564.974,1053.91 570.604,1086.57 576.234,995.767 593.125,972.475 598.756,1026.45 604.386,997.14 610.016,1051.05 615.646,1053.88 632.537,983.578 638.168,865.275 643.798,933.494 649.428,962.762 655.058,975.059 671.949,944.926 677.579,881.498 683.21,925.304 688.84,905.157 694.47,833.661 711.127,779.271 716.757,795.934 722.387,802.662 728.017,838.849 733.648,812.782 750.538,780.843 756.169,823.681 761.799,893.675 767.429,850.81 773.06,865.791 789.95,883.648 795.581,853.292 801.211,875.255 806.841,876.621 829.362,893.179 834.993,896.984 840.623,930.762 846.253,953.723 851.883,945.068 868.774,966.633 874.405,959.344 880.035,928.796 885.665,897.302 891.295,930.001 908.186,910.835 913.817,932.964 919.447,904.027 925.077,892.312 930.707,886.904 947.598,872.371 953.228,887.529 958.859,883.948 964.489,894.39 970.119,902.785 987.01,895.21 992.64,896.148 998.271,890.881 1003.9,898.05 1009.53,886.029 1026.42,883.524 1032.05,876.057 1037.68,878.341 1043.31,801.108 1048.94,795.615 1065.83,762.217 1071.46,765.616 1077.09,806.35 1082.72,810.714 1088.36,817.886 1105.25,792.118 1110.88,764.91 1116.51,720.435 1122.14,576.885 1127.77,592.783 1150.29,487.083 1155.92,169.333 1161.55,235.755 1167.18,244.564 1184.07,206.582 1189.7,208.246 1195.33,241.856 1200.96,272.167 1206.59,241.024 1223.48,203.91 1229.11,199.091 1234.74,215.323 1240.37,175.493 1246,183.173 1262.89,201.342 1268.52,181.745 1274.15,179.076 1279.78,184.557 1285.41,200.093 1302.31,166.392 1307.94,173.388 1313.57,172.475 1319.2,181.991 1324.83,189.793 1347.35,197.603 1352.98,229.728 1358.61,219.37 1364.24,227.247 1381.13,244.226 1386.76,265.163 1392.39,314.788 1398.02,310.234 1403.65,328.753 1420.54,327.472 1426.17,278.817 1431.8,278.385 1437.43,294.632 1443.06,296.704 1459.95,282.519 1465.58,297.124 1471.21,286.747 1476.84,288.69 1482.47,298.126 1499.37,305.348 1505,314.29 1510.63,328.943 1516.26,300.869 1521.89,310.177 1538.78,305.261 1544.41,323.451 1550.04,329.17 1555.67,317.733 1561.3,309.712 1578.19,279.988 1583.82,257.702 1589.45,266.83 1595.08,309.635 1600.71,300.083 1617.6,269.173 1623.23,197.381 1628.86,194.847 1634.49,206.593 1640.12,193.278 1657.01,192.013 1662.64,199.427 1668.27,198.049 1673.9,199.156 1679.53,188.375 1702.06,192.542 1707.69,200.634 1713.32,202.123 1718.95,206.405 1735.84,209.716 1741.47,216.691 1747.1,205.128 1752.73,214.772 1758.36,242.852 1775.25,266.674 1780.88,263.896 1786.51,256.071 1792.14,246.697 1797.77,250.916 1814.66,255.728 1820.29,272.565 1825.92,264.314 1831.55,267.849 1837.18,251.266 1854.07,226.746 1859.7,209.033 1865.33,228.635 1870.96,232.639 1876.59,212.063 1893.48,217.764 1899.12,220.567 1904.75,223.32 1910.38,215.216 1916.01,214.577 1932.9,202.239 1938.53,204.813 1944.16,197.931 1949.79,214.855 1955.42,208.545 1972.31,204.309 1977.94,193.71 1983.57,218.936 1989.2,210.907 1994.83,212.405 2011.72,170.27 2017.35,186.989 2022.98,167.432 2028.61,160.256 2034.24,163.823 2051.37,186.636 2057,225.623 2062.63,249.692 2068.26,229.269 2073.89,231.362 2090.78,239.376 2096.41,236.026 2102.04,250.133 2107.67,261.505 2113.3,240.039 2130.19,248.722 2135.82,262.434 2141.45,257.961 2152.71,282.17 2169.6,261.458 2175.23,276.573 2180.86,301.202 2186.49,297.451 2192.12,314.281 2209.01,311.217 2214.65,275.394 2220.28,278.1 2225.91,311.876 2231.54,307.252 2248.43,336.938 2254.06,346.873 2259.69,348.812 2265.32,376.153 2270.95,383.47 2287.84,392.359 2293.47,391.071 "/>
<path clip-path="url(#clip230)" d="M327.782 270.476 L662.817 270.476 L662.817 166.796 L327.782 166.796  Z" fill="#ffffff" fill-rule="evenodd" fill-opacity="1"/>
<polyline clip-path="url(#clip230)" style="stroke:#000000; stroke-linecap:round; stroke-linejoin:round; stroke-width:4; stroke-opacity:1; fill:none" points="327.782,270.476 662.817,270.476 662.817,166.796 327.782,166.796 327.782,270.476 "/>
<polyline clip-path="url(#clip230)" style="stroke:#009af9; stroke-linecap:round; stroke-linejoin:round; stroke-width:12; stroke-opacity:1; fill:none" points="351.057,218.636 490.711,218.636 "/>
<path clip-path="url(#clip230)" d="M513.986 209.99 L518.5 209.99 L526.602 231.749 L534.704 209.99 L539.217 209.99 L529.495 235.916 L523.708 235.916 L513.986 209.99 Z" fill="#000000" fill-rule="nonzero" fill-opacity="1" /><path clip-path="url(#clip230)" d="M556.879 222.883 Q551.717 222.883 549.727 224.064 Q547.736 225.244 547.736 228.092 Q547.736 230.36 549.217 231.703 Q550.722 233.022 553.291 233.022 Q556.833 233.022 558.963 230.522 Q561.116 227.999 561.116 223.832 L561.116 222.883 L556.879 222.883 M565.375 221.124 L565.375 235.916 L561.116 235.916 L561.116 231.981 Q559.657 234.342 557.481 235.476 Q555.305 236.587 552.157 236.587 Q548.176 236.587 545.815 234.365 Q543.477 232.119 543.477 228.369 Q543.477 223.994 546.393 221.772 Q549.333 219.55 555.143 219.55 L561.116 219.55 L561.116 219.133 Q561.116 216.194 559.171 214.596 Q557.25 212.976 553.754 212.976 Q551.532 212.976 549.426 213.508 Q547.319 214.041 545.375 215.106 L545.375 211.17 Q547.713 210.268 549.912 209.828 Q552.111 209.365 554.194 209.365 Q559.819 209.365 562.597 212.282 Q565.375 215.198 565.375 221.124 Z" fill="#000000" fill-rule="nonzero" fill-opacity="1" /><path clip-path="url(#clip230)" d="M574.148 199.897 L578.407 199.897 L578.407 235.916 L574.148 235.916 L574.148 199.897 Z" fill="#000000" fill-rule="nonzero" fill-opacity="1" /><path clip-path="url(#clip230)" d="M586.879 225.684 L586.879 209.99 L591.138 209.99 L591.138 225.522 Q591.138 229.203 592.574 231.055 Q594.009 232.883 596.879 232.883 Q600.328 232.883 602.319 230.684 Q604.333 228.485 604.333 224.689 L604.333 209.99 L608.592 209.99 L608.592 235.916 L604.333 235.916 L604.333 231.934 Q602.782 234.295 600.722 235.453 Q598.685 236.587 595.976 236.587 Q591.509 236.587 589.194 233.809 Q586.879 231.031 586.879 225.684 M597.597 209.365 L597.597 209.365 Z" fill="#000000" fill-rule="nonzero" fill-opacity="1" /><path clip-path="url(#clip230)" d="M639.541 221.888 L639.541 223.971 L619.958 223.971 Q620.236 228.369 622.597 230.684 Q624.981 232.976 629.217 232.976 Q631.671 232.976 633.962 232.374 Q636.277 231.772 638.546 230.569 L638.546 234.596 Q636.254 235.568 633.847 236.078 Q631.439 236.587 628.962 236.587 Q622.759 236.587 619.124 232.976 Q615.513 229.365 615.513 223.207 Q615.513 216.842 618.939 213.115 Q622.388 209.365 628.222 209.365 Q633.453 209.365 636.485 212.745 Q639.541 216.101 639.541 221.888 M635.282 220.638 Q635.235 217.143 633.314 215.059 Q631.416 212.976 628.268 212.976 Q624.703 212.976 622.55 214.99 Q620.421 217.004 620.097 220.661 L635.282 220.638 Z" fill="#000000" fill-rule="nonzero" fill-opacity="1" /></svg>
