<?xml version="1.0" encoding="utf-8"?>
<svg xmlns="http://www.w3.org/2000/svg" xmlns:xlink="http://www.w3.org/1999/xlink" width="600" height="400" viewBox="0 0 2400 1600">
<defs>
  <clipPath id="clip510">
    <rect x="0" y="0" width="2400" height="1600"/>
  </clipPath>
</defs>
<path clip-path="url(#clip510)" d="M0 1600 L2400 1600 L2400 0 L0 0  Z" fill="#ffffff" fill-rule="evenodd" fill-opacity="1"/>
<defs>
  <clipPath id="clip511">
    <rect x="480" y="0" width="1681" height="1600"/>
  </clipPath>
</defs>
<path clip-path="url(#clip510)" d="M221.637 1423.18 L2352.76 1423.18 L2352.76 47.2441 L221.637 47.2441  Z" fill="#ffffff" fill-rule="evenodd" fill-opacity="1"/>
<defs>
  <clipPath id="clip512">
    <rect x="221" y="47" width="2132" height="1377"/>
  </clipPath>
</defs>
<polyline clip-path="url(#clip512)" style="stroke:#000000; stroke-linecap:round; stroke-linejoin:round; stroke-width:2; stroke-opacity:0.1; fill:none" points="262.262,1423.18 262.262,47.2441 "/>
<polyline clip-path="url(#clip512)" style="stroke:#000000; stroke-linecap:round; stroke-linejoin:round; stroke-width:2; stroke-opacity:0.1; fill:none" points="777.772,1423.18 777.772,47.2441 "/>
<polyline clip-path="url(#clip512)" style="stroke:#000000; stroke-linecap:round; stroke-linejoin:round; stroke-width:2; stroke-opacity:0.1; fill:none" points="1299.01,1423.18 1299.01,47.2441 "/>
<polyline clip-path="url(#clip512)" style="stroke:#000000; stroke-linecap:round; stroke-linejoin:round; stroke-width:2; stroke-opacity:0.1; fill:none" points="1825.98,1423.18 1825.98,47.2441 "/>
<polyline clip-path="url(#clip512)" style="stroke:#000000; stroke-linecap:round; stroke-linejoin:round; stroke-width:2; stroke-opacity:0.05; fill:none" points="365.364,1423.18 365.364,47.2441 "/>
<polyline clip-path="url(#clip512)" style="stroke:#000000; stroke-linecap:round; stroke-linejoin:round; stroke-width:2; stroke-opacity:0.05; fill:none" points="468.466,1423.18 468.466,47.2441 "/>
<polyline clip-path="url(#clip512)" style="stroke:#000000; stroke-linecap:round; stroke-linejoin:round; stroke-width:2; stroke-opacity:0.05; fill:none" points="571.568,1423.18 571.568,47.2441 "/>
<polyline clip-path="url(#clip512)" style="stroke:#000000; stroke-linecap:round; stroke-linejoin:round; stroke-width:2; stroke-opacity:0.05; fill:none" points="674.67,1423.18 674.67,47.2441 "/>
<polyline clip-path="url(#clip512)" style="stroke:#000000; stroke-linecap:round; stroke-linejoin:round; stroke-width:2; stroke-opacity:0.05; fill:none" points="882.02,1423.18 882.02,47.2441 "/>
<polyline clip-path="url(#clip512)" style="stroke:#000000; stroke-linecap:round; stroke-linejoin:round; stroke-width:2; stroke-opacity:0.05; fill:none" points="986.267,1423.18 986.267,47.2441 "/>
<polyline clip-path="url(#clip512)" style="stroke:#000000; stroke-linecap:round; stroke-linejoin:round; stroke-width:2; stroke-opacity:0.05; fill:none" points="1090.52,1423.18 1090.52,47.2441 "/>
<polyline clip-path="url(#clip512)" style="stroke:#000000; stroke-linecap:round; stroke-linejoin:round; stroke-width:2; stroke-opacity:0.05; fill:none" points="1194.76,1423.18 1194.76,47.2441 "/>
<polyline clip-path="url(#clip512)" style="stroke:#000000; stroke-linecap:round; stroke-linejoin:round; stroke-width:2; stroke-opacity:0.05; fill:none" points="1404.4,1423.18 1404.4,47.2441 "/>
<polyline clip-path="url(#clip512)" style="stroke:#000000; stroke-linecap:round; stroke-linejoin:round; stroke-width:2; stroke-opacity:0.05; fill:none" points="1509.8,1423.18 1509.8,47.2441 "/>
<polyline clip-path="url(#clip512)" style="stroke:#000000; stroke-linecap:round; stroke-linejoin:round; stroke-width:2; stroke-opacity:0.05; fill:none" points="1615.19,1423.18 1615.19,47.2441 "/>
<polyline clip-path="url(#clip512)" style="stroke:#000000; stroke-linecap:round; stroke-linejoin:round; stroke-width:2; stroke-opacity:0.05; fill:none" points="1720.58,1423.18 1720.58,47.2441 "/>
<polyline clip-path="url(#clip512)" style="stroke:#000000; stroke-linecap:round; stroke-linejoin:round; stroke-width:2; stroke-opacity:0.05; fill:none" points="1932.54,1423.18 1932.54,47.2441 "/>
<polyline clip-path="url(#clip512)" style="stroke:#000000; stroke-linecap:round; stroke-linejoin:round; stroke-width:2; stroke-opacity:0.05; fill:none" points="2039.1,1423.18 2039.1,47.2441 "/>
<polyline clip-path="url(#clip512)" style="stroke:#000000; stroke-linecap:round; stroke-linejoin:round; stroke-width:2; stroke-opacity:0.05; fill:none" points="2145.67,1423.18 2145.67,47.2441 "/>
<polyline clip-path="url(#clip512)" style="stroke:#000000; stroke-linecap:round; stroke-linejoin:round; stroke-width:2; stroke-opacity:0.05; fill:none" points="2252.23,1423.18 2252.23,47.2441 "/>
<polyline clip-path="url(#clip510)" style="stroke:#000000; stroke-linecap:round; stroke-linejoin:round; stroke-width:4; stroke-opacity:1; fill:none" points="221.637,1423.18 2352.76,1423.18 "/>
<polyline clip-path="url(#clip510)" style="stroke:#000000; stroke-linecap:round; stroke-linejoin:round; stroke-width:4; stroke-opacity:1; fill:none" points="262.262,1423.18 262.262,1404.28 "/>
<polyline clip-path="url(#clip510)" style="stroke:#000000; stroke-linecap:round; stroke-linejoin:round; stroke-width:4; stroke-opacity:1; fill:none" points="777.772,1423.18 777.772,1404.28 "/>
<polyline clip-path="url(#clip510)" style="stroke:#000000; stroke-linecap:round; stroke-linejoin:round; stroke-width:4; stroke-opacity:1; fill:none" points="1299.01,1423.18 1299.01,1404.28 "/>
<polyline clip-path="url(#clip510)" style="stroke:#000000; stroke-linecap:round; stroke-linejoin:round; stroke-width:4; stroke-opacity:1; fill:none" points="1825.98,1423.18 1825.98,1404.28 "/>
<polyline clip-path="url(#clip510)" style="stroke:#000000; stroke-linecap:round; stroke-linejoin:round; stroke-width:4; stroke-opacity:1; fill:none" points="365.364,1423.18 365.364,1413.73 "/>
<polyline clip-path="url(#clip510)" style="stroke:#000000; stroke-linecap:round; stroke-linejoin:round; stroke-width:4; stroke-opacity:1; fill:none" points="468.466,1423.18 468.466,1413.73 "/>
<polyline clip-path="url(#clip510)" style="stroke:#000000; stroke-linecap:round; stroke-linejoin:round; stroke-width:4; stroke-opacity:1; fill:none" points="571.568,1423.18 571.568,1413.73 "/>
<polyline clip-path="url(#clip510)" style="stroke:#000000; stroke-linecap:round; stroke-linejoin:round; stroke-width:4; stroke-opacity:1; fill:none" points="674.67,1423.18 674.67,1413.73 "/>
<polyline clip-path="url(#clip510)" style="stroke:#000000; stroke-linecap:round; stroke-linejoin:round; stroke-width:4; stroke-opacity:1; fill:none" points="882.02,1423.18 882.02,1413.73 "/>
<polyline clip-path="url(#clip510)" style="stroke:#000000; stroke-linecap:round; stroke-linejoin:round; stroke-width:4; stroke-opacity:1; fill:none" points="986.267,1423.18 986.267,1413.73 "/>
<polyline clip-path="url(#clip510)" style="stroke:#000000; stroke-linecap:round; stroke-linejoin:round; stroke-width:4; stroke-opacity:1; fill:none" points="1090.52,1423.18 1090.52,1413.73 "/>
<polyline clip-path="url(#clip510)" style="stroke:#000000; stroke-linecap:round; stroke-linejoin:round; stroke-width:4; stroke-opacity:1; fill:none" points="1194.76,1423.18 1194.76,1413.73 "/>
<polyline clip-path="url(#clip510)" style="stroke:#000000; stroke-linecap:round; stroke-linejoin:round; stroke-width:4; stroke-opacity:1; fill:none" points="1404.4,1423.18 1404.4,1413.73 "/>
<polyline clip-path="url(#clip510)" style="stroke:#000000; stroke-linecap:round; stroke-linejoin:round; stroke-width:4; stroke-opacity:1; fill:none" points="1509.8,1423.18 1509.8,1413.73 "/>
<polyline clip-path="url(#clip510)" style="stroke:#000000; stroke-linecap:round; stroke-linejoin:round; stroke-width:4; stroke-opacity:1; fill:none" points="1615.19,1423.18 1615.19,1413.73 "/>
<polyline clip-path="url(#clip510)" style="stroke:#000000; stroke-linecap:round; stroke-linejoin:round; stroke-width:4; stroke-opacity:1; fill:none" points="1720.58,1423.18 1720.58,1413.73 "/>
<polyline clip-path="url(#clip510)" style="stroke:#000000; stroke-linecap:round; stroke-linejoin:round; stroke-width:4; stroke-opacity:1; fill:none" points="1932.54,1423.18 1932.54,1413.73 "/>
<polyline clip-path="url(#clip510)" style="stroke:#000000; stroke-linecap:round; stroke-linejoin:round; stroke-width:4; stroke-opacity:1; fill:none" points="2039.1,1423.18 2039.1,1413.73 "/>
<polyline clip-path="url(#clip510)" style="stroke:#000000; stroke-linecap:round; stroke-linejoin:round; stroke-width:4; stroke-opacity:1; fill:none" points="2145.67,1423.18 2145.67,1413.73 "/>
<polyline clip-path="url(#clip510)" style="stroke:#000000; stroke-linecap:round; stroke-linejoin:round; stroke-width:4; stroke-opacity:1; fill:none" points="2252.23,1423.18 2252.23,1413.73 "/>
<path clip-path="url(#clip510)" d="M134.057 1481.64 L150.376 1481.64 L150.376 1485.58 L128.432 1485.58 L128.432 1481.64 Q131.094 1478.89 135.677 1474.26 Q140.284 1469.61 141.464 1468.27 Q143.71 1465.74 144.589 1464.01 Q145.492 1462.25 145.492 1460.56 Q145.492 1457.8 143.548 1456.07 Q141.626 1454.33 138.524 1454.33 Q136.325 1454.33 133.872 1455.09 Q131.441 1455.86 128.663 1457.41 L128.663 1452.69 Q131.487 1451.55 133.941 1450.97 Q136.395 1450.39 138.432 1450.39 Q143.802 1450.39 146.997 1453.08 Q150.191 1455.77 150.191 1460.26 Q150.191 1462.39 149.381 1464.31 Q148.594 1466.2 146.487 1468.8 Q145.909 1469.47 142.807 1472.69 Q139.705 1475.88 134.057 1481.64 Z" fill="#000000" fill-rule="nonzero" fill-opacity="1" /><path clip-path="url(#clip510)" d="M170.191 1454.1 Q166.58 1454.1 164.751 1457.66 Q162.946 1461.2 162.946 1468.33 Q162.946 1475.44 164.751 1479.01 Q166.58 1482.55 170.191 1482.55 Q173.825 1482.55 175.631 1479.01 Q177.459 1475.44 177.459 1468.33 Q177.459 1461.2 175.631 1457.66 Q173.825 1454.1 170.191 1454.1 M170.191 1450.39 Q176.001 1450.39 179.057 1455 Q182.135 1459.58 182.135 1468.33 Q182.135 1477.06 179.057 1481.67 Q176.001 1486.25 170.191 1486.25 Q164.381 1486.25 161.302 1481.67 Q158.247 1477.06 158.247 1468.33 Q158.247 1459.58 161.302 1455 Q164.381 1450.39 170.191 1450.39 Z" fill="#000000" fill-rule="nonzero" fill-opacity="1" /><path clip-path="url(#clip510)" d="M194.381 1481.64 L210.7 1481.64 L210.7 1485.58 L188.756 1485.58 L188.756 1481.64 Q191.418 1478.89 196.001 1474.26 Q200.607 1469.61 201.788 1468.27 Q204.033 1465.74 204.913 1464.01 Q205.816 1462.25 205.816 1460.56 Q205.816 1457.8 203.871 1456.07 Q201.95 1454.33 198.848 1454.33 Q196.649 1454.33 194.195 1455.09 Q191.765 1455.86 188.987 1457.41 L188.987 1452.69 Q191.811 1451.55 194.265 1450.97 Q196.719 1450.39 198.756 1450.39 Q204.126 1450.39 207.32 1453.08 Q210.515 1455.77 210.515 1460.26 Q210.515 1462.39 209.705 1464.31 Q208.918 1466.2 206.811 1468.8 Q206.232 1469.47 203.131 1472.69 Q200.029 1475.88 194.381 1481.64 Z" fill="#000000" fill-rule="nonzero" fill-opacity="1" /><path clip-path="url(#clip510)" d="M221.325 1481.64 L228.964 1481.64 L228.964 1455.28 L220.654 1456.95 L220.654 1452.69 L228.917 1451.02 L233.593 1451.02 L233.593 1481.64 L241.232 1481.64 L241.232 1485.58 L221.325 1485.58 L221.325 1481.64 Z" fill="#000000" fill-rule="nonzero" fill-opacity="1" /><path clip-path="url(#clip510)" d="M247.922 1470.7 L260.399 1470.7 L260.399 1474.49 L247.922 1474.49 L247.922 1470.7 Z" fill="#000000" fill-rule="nonzero" fill-opacity="1" /><path clip-path="url(#clip510)" d="M277.783 1454.1 Q274.172 1454.1 272.343 1457.66 Q270.538 1461.2 270.538 1468.33 Q270.538 1475.44 272.343 1479.01 Q274.172 1482.55 277.783 1482.55 Q281.417 1482.55 283.223 1479.01 Q285.051 1475.44 285.051 1468.33 Q285.051 1461.2 283.223 1457.66 Q281.417 1454.1 277.783 1454.1 M277.783 1450.39 Q283.593 1450.39 286.649 1455 Q289.727 1459.58 289.727 1468.33 Q289.727 1477.06 286.649 1481.67 Q283.593 1486.25 277.783 1486.25 Q271.973 1486.25 268.894 1481.67 Q265.839 1477.06 265.839 1468.33 Q265.839 1459.58 268.894 1455 Q271.973 1450.39 277.783 1450.39 Z" fill="#000000" fill-rule="nonzero" fill-opacity="1" /><path clip-path="url(#clip510)" d="M298.755 1481.64 L306.394 1481.64 L306.394 1455.28 L298.084 1456.95 L298.084 1452.69 L306.348 1451.02 L311.023 1451.02 L311.023 1481.64 L318.662 1481.64 L318.662 1485.58 L298.755 1485.58 L298.755 1481.64 Z" fill="#000000" fill-rule="nonzero" fill-opacity="1" /><path clip-path="url(#clip510)" d="M325.352 1470.7 L337.829 1470.7 L337.829 1474.49 L325.352 1474.49 L325.352 1470.7 Z" fill="#000000" fill-rule="nonzero" fill-opacity="1" /><path clip-path="url(#clip510)" d="M355.213 1454.1 Q351.602 1454.1 349.773 1457.66 Q347.968 1461.2 347.968 1468.33 Q347.968 1475.44 349.773 1479.01 Q351.602 1482.55 355.213 1482.55 Q358.847 1482.55 360.653 1479.01 Q362.482 1475.44 362.482 1468.33 Q362.482 1461.2 360.653 1457.66 Q358.847 1454.1 355.213 1454.1 M355.213 1450.39 Q361.023 1450.39 364.079 1455 Q367.157 1459.58 367.157 1468.33 Q367.157 1477.06 364.079 1481.67 Q361.023 1486.25 355.213 1486.25 Q349.403 1486.25 346.324 1481.67 Q343.269 1477.06 343.269 1468.33 Q343.269 1459.58 346.324 1455 Q349.403 1450.39 355.213 1450.39 Z" fill="#000000" fill-rule="nonzero" fill-opacity="1" /><path clip-path="url(#clip510)" d="M376.185 1481.64 L383.824 1481.64 L383.824 1455.28 L375.514 1456.95 L375.514 1452.69 L383.778 1451.02 L388.454 1451.02 L388.454 1481.64 L396.092 1481.64 L396.092 1485.58 L376.185 1485.58 L376.185 1481.64 Z" fill="#000000" fill-rule="nonzero" fill-opacity="1" /><path clip-path="url(#clip510)" d="M649.567 1481.64 L665.886 1481.64 L665.886 1485.58 L643.942 1485.58 L643.942 1481.64 Q646.604 1478.89 651.187 1474.26 Q655.794 1469.61 656.974 1468.27 Q659.22 1465.74 660.099 1464.01 Q661.002 1462.25 661.002 1460.56 Q661.002 1457.8 659.058 1456.07 Q657.136 1454.33 654.035 1454.33 Q651.835 1454.33 649.382 1455.09 Q646.951 1455.86 644.173 1457.41 L644.173 1452.69 Q646.998 1451.55 649.451 1450.97 Q651.905 1450.39 653.942 1450.39 Q659.312 1450.39 662.507 1453.08 Q665.701 1455.77 665.701 1460.26 Q665.701 1462.39 664.891 1464.31 Q664.104 1466.2 661.997 1468.8 Q661.419 1469.47 658.317 1472.69 Q655.215 1475.88 649.567 1481.64 Z" fill="#000000" fill-rule="nonzero" fill-opacity="1" /><path clip-path="url(#clip510)" d="M685.701 1454.1 Q682.09 1454.1 680.261 1457.66 Q678.456 1461.2 678.456 1468.33 Q678.456 1475.44 680.261 1479.01 Q682.09 1482.55 685.701 1482.55 Q689.335 1482.55 691.141 1479.01 Q692.969 1475.44 692.969 1468.33 Q692.969 1461.2 691.141 1457.66 Q689.335 1454.1 685.701 1454.1 M685.701 1450.39 Q691.511 1450.39 694.567 1455 Q697.645 1459.58 697.645 1468.33 Q697.645 1477.06 694.567 1481.67 Q691.511 1486.25 685.701 1486.25 Q679.891 1486.25 676.812 1481.67 Q673.757 1477.06 673.757 1468.33 Q673.757 1459.58 676.812 1455 Q679.891 1450.39 685.701 1450.39 Z" fill="#000000" fill-rule="nonzero" fill-opacity="1" /><path clip-path="url(#clip510)" d="M709.891 1481.64 L726.21 1481.64 L726.21 1485.58 L704.266 1485.58 L704.266 1481.64 Q706.928 1478.89 711.511 1474.26 Q716.118 1469.61 717.298 1468.27 Q719.543 1465.74 720.423 1464.01 Q721.326 1462.25 721.326 1460.56 Q721.326 1457.8 719.381 1456.07 Q717.46 1454.33 714.358 1454.33 Q712.159 1454.33 709.706 1455.09 Q707.275 1455.86 704.497 1457.41 L704.497 1452.69 Q707.321 1451.55 709.775 1450.97 Q712.229 1450.39 714.266 1450.39 Q719.636 1450.39 722.83 1453.08 Q726.025 1455.77 726.025 1460.26 Q726.025 1462.39 725.215 1464.31 Q724.428 1466.2 722.321 1468.8 Q721.742 1469.47 718.641 1472.69 Q715.539 1475.88 709.891 1481.64 Z" fill="#000000" fill-rule="nonzero" fill-opacity="1" /><path clip-path="url(#clip510)" d="M736.835 1481.64 L744.474 1481.64 L744.474 1455.28 L736.164 1456.95 L736.164 1452.69 L744.428 1451.02 L749.103 1451.02 L749.103 1481.64 L756.742 1481.64 L756.742 1485.58 L736.835 1485.58 L736.835 1481.64 Z" fill="#000000" fill-rule="nonzero" fill-opacity="1" /><path clip-path="url(#clip510)" d="M763.432 1470.7 L775.909 1470.7 L775.909 1474.49 L763.432 1474.49 L763.432 1470.7 Z" fill="#000000" fill-rule="nonzero" fill-opacity="1" /><path clip-path="url(#clip510)" d="M793.293 1454.1 Q789.682 1454.1 787.853 1457.66 Q786.048 1461.2 786.048 1468.33 Q786.048 1475.44 787.853 1479.01 Q789.682 1482.55 793.293 1482.55 Q796.927 1482.55 798.733 1479.01 Q800.561 1475.44 800.561 1468.33 Q800.561 1461.2 798.733 1457.66 Q796.927 1454.1 793.293 1454.1 M793.293 1450.39 Q799.103 1450.39 802.159 1455 Q805.237 1459.58 805.237 1468.33 Q805.237 1477.06 802.159 1481.67 Q799.103 1486.25 793.293 1486.25 Q787.483 1486.25 784.404 1481.67 Q781.349 1477.06 781.349 1468.33 Q781.349 1459.58 784.404 1455 Q787.483 1450.39 793.293 1450.39 Z" fill="#000000" fill-rule="nonzero" fill-opacity="1" /><path clip-path="url(#clip510)" d="M826.302 1455.09 L814.497 1473.54 L826.302 1473.54 L826.302 1455.09 M825.075 1451.02 L830.955 1451.02 L830.955 1473.54 L835.885 1473.54 L835.885 1477.43 L830.955 1477.43 L830.955 1485.58 L826.302 1485.58 L826.302 1477.43 L810.7 1477.43 L810.7 1472.92 L825.075 1451.02 Z" fill="#000000" fill-rule="nonzero" fill-opacity="1" /><path clip-path="url(#clip510)" d="M840.862 1470.7 L853.339 1470.7 L853.339 1474.49 L840.862 1474.49 L840.862 1470.7 Z" fill="#000000" fill-rule="nonzero" fill-opacity="1" /><path clip-path="url(#clip510)" d="M870.723 1454.1 Q867.112 1454.1 865.283 1457.66 Q863.478 1461.2 863.478 1468.33 Q863.478 1475.44 865.283 1479.01 Q867.112 1482.55 870.723 1482.55 Q874.357 1482.55 876.163 1479.01 Q877.992 1475.44 877.992 1468.33 Q877.992 1461.2 876.163 1457.66 Q874.357 1454.1 870.723 1454.1 M870.723 1450.39 Q876.533 1450.39 879.589 1455 Q882.668 1459.58 882.668 1468.33 Q882.668 1477.06 879.589 1481.67 Q876.533 1486.25 870.723 1486.25 Q864.913 1486.25 861.834 1481.67 Q858.779 1477.06 858.779 1468.33 Q858.779 1459.58 861.834 1455 Q864.913 1450.39 870.723 1450.39 Z" fill="#000000" fill-rule="nonzero" fill-opacity="1" /><path clip-path="url(#clip510)" d="M891.695 1481.64 L899.334 1481.64 L899.334 1455.28 L891.024 1456.95 L891.024 1452.69 L899.288 1451.02 L903.964 1451.02 L903.964 1481.64 L911.603 1481.64 L911.603 1485.58 L891.695 1485.58 L891.695 1481.64 Z" fill="#000000" fill-rule="nonzero" fill-opacity="1" /><path clip-path="url(#clip510)" d="M1170.8 1481.64 L1187.12 1481.64 L1187.12 1485.58 L1165.18 1485.58 L1165.18 1481.64 Q1167.84 1478.89 1172.43 1474.26 Q1177.03 1469.61 1178.21 1468.27 Q1180.46 1465.74 1181.34 1464.01 Q1182.24 1462.25 1182.24 1460.56 Q1182.24 1457.8 1180.3 1456.07 Q1178.37 1454.33 1175.27 1454.33 Q1173.07 1454.33 1170.62 1455.09 Q1168.19 1455.86 1165.41 1457.41 L1165.41 1452.69 Q1168.24 1451.55 1170.69 1450.97 Q1173.14 1450.39 1175.18 1450.39 Q1180.55 1450.39 1183.74 1453.08 Q1186.94 1455.77 1186.94 1460.26 Q1186.94 1462.39 1186.13 1464.31 Q1185.34 1466.2 1183.24 1468.8 Q1182.66 1469.47 1179.55 1472.69 Q1176.45 1475.88 1170.8 1481.64 Z" fill="#000000" fill-rule="nonzero" fill-opacity="1" /><path clip-path="url(#clip510)" d="M1206.94 1454.1 Q1203.33 1454.1 1201.5 1457.66 Q1199.69 1461.2 1199.69 1468.33 Q1199.69 1475.44 1201.5 1479.01 Q1203.33 1482.55 1206.94 1482.55 Q1210.57 1482.55 1212.38 1479.01 Q1214.21 1475.44 1214.21 1468.33 Q1214.21 1461.2 1212.38 1457.66 Q1210.57 1454.1 1206.94 1454.1 M1206.94 1450.39 Q1212.75 1450.39 1215.8 1455 Q1218.88 1459.58 1218.88 1468.33 Q1218.88 1477.06 1215.8 1481.67 Q1212.75 1486.25 1206.94 1486.25 Q1201.13 1486.25 1198.05 1481.67 Q1194.99 1477.06 1194.99 1468.33 Q1194.99 1459.58 1198.05 1455 Q1201.13 1450.39 1206.94 1450.39 Z" fill="#000000" fill-rule="nonzero" fill-opacity="1" /><path clip-path="url(#clip510)" d="M1231.13 1481.64 L1247.45 1481.64 L1247.45 1485.58 L1225.5 1485.58 L1225.5 1481.64 Q1228.17 1478.89 1232.75 1474.26 Q1237.36 1469.61 1238.54 1468.27 Q1240.78 1465.74 1241.66 1464.01 Q1242.56 1462.25 1242.56 1460.56 Q1242.56 1457.8 1240.62 1456.07 Q1238.7 1454.33 1235.6 1454.33 Q1233.4 1454.33 1230.94 1455.09 Q1228.51 1455.86 1225.74 1457.41 L1225.74 1452.69 Q1228.56 1451.55 1231.01 1450.97 Q1233.47 1450.39 1235.5 1450.39 Q1240.87 1450.39 1244.07 1453.08 Q1247.26 1455.77 1247.26 1460.26 Q1247.26 1462.39 1246.45 1464.31 Q1245.67 1466.2 1243.56 1468.8 Q1242.98 1469.47 1239.88 1472.69 Q1236.78 1475.88 1231.13 1481.64 Z" fill="#000000" fill-rule="nonzero" fill-opacity="1" /><path clip-path="url(#clip510)" d="M1258.07 1481.64 L1265.71 1481.64 L1265.71 1455.28 L1257.4 1456.95 L1257.4 1452.69 L1265.67 1451.02 L1270.34 1451.02 L1270.34 1481.64 L1277.98 1481.64 L1277.98 1485.58 L1258.07 1485.58 L1258.07 1481.64 Z" fill="#000000" fill-rule="nonzero" fill-opacity="1" /><path clip-path="url(#clip510)" d="M1284.67 1470.7 L1297.15 1470.7 L1297.15 1474.49 L1284.67 1474.49 L1284.67 1470.7 Z" fill="#000000" fill-rule="nonzero" fill-opacity="1" /><path clip-path="url(#clip510)" d="M1314.53 1454.1 Q1310.92 1454.1 1309.09 1457.66 Q1307.29 1461.2 1307.29 1468.33 Q1307.29 1475.44 1309.09 1479.01 Q1310.92 1482.55 1314.53 1482.55 Q1318.17 1482.55 1319.97 1479.01 Q1321.8 1475.44 1321.8 1468.33 Q1321.8 1461.2 1319.97 1457.66 Q1318.17 1454.1 1314.53 1454.1 M1314.53 1450.39 Q1320.34 1450.39 1323.4 1455 Q1326.48 1459.58 1326.48 1468.33 Q1326.48 1477.06 1323.4 1481.67 Q1320.34 1486.25 1314.53 1486.25 Q1308.72 1486.25 1305.64 1481.67 Q1302.59 1477.06 1302.59 1468.33 Q1302.59 1459.58 1305.64 1455 Q1308.72 1450.39 1314.53 1450.39 Z" fill="#000000" fill-rule="nonzero" fill-opacity="1" /><path clip-path="url(#clip510)" d="M1333.51 1451.02 L1355.73 1451.02 L1355.73 1453.01 L1343.19 1485.58 L1338.3 1485.58 L1350.11 1454.96 L1333.51 1454.96 L1333.51 1451.02 Z" fill="#000000" fill-rule="nonzero" fill-opacity="1" /><path clip-path="url(#clip510)" d="M1362.1 1470.7 L1374.58 1470.7 L1374.58 1474.49 L1362.1 1474.49 L1362.1 1470.7 Z" fill="#000000" fill-rule="nonzero" fill-opacity="1" /><path clip-path="url(#clip510)" d="M1391.96 1454.1 Q1388.35 1454.1 1386.52 1457.66 Q1384.72 1461.2 1384.72 1468.33 Q1384.72 1475.44 1386.52 1479.01 Q1388.35 1482.55 1391.96 1482.55 Q1395.6 1482.55 1397.4 1479.01 Q1399.23 1475.44 1399.23 1468.33 Q1399.23 1461.2 1397.4 1457.66 Q1395.6 1454.1 1391.96 1454.1 M1391.96 1450.39 Q1397.77 1450.39 1400.83 1455 Q1403.91 1459.58 1403.91 1468.33 Q1403.91 1477.06 1400.83 1481.67 Q1397.77 1486.25 1391.96 1486.25 Q1386.15 1486.25 1383.07 1481.67 Q1380.02 1477.06 1380.02 1468.33 Q1380.02 1459.58 1383.07 1455 Q1386.15 1450.39 1391.96 1450.39 Z" fill="#000000" fill-rule="nonzero" fill-opacity="1" /><path clip-path="url(#clip510)" d="M1412.93 1481.64 L1420.57 1481.64 L1420.57 1455.28 L1412.26 1456.95 L1412.26 1452.69 L1420.53 1451.02 L1425.2 1451.02 L1425.2 1481.64 L1432.84 1481.64 L1432.84 1485.58 L1412.93 1485.58 L1412.93 1481.64 Z" fill="#000000" fill-rule="nonzero" fill-opacity="1" /><path clip-path="url(#clip510)" d="M1697.77 1481.64 L1714.09 1481.64 L1714.09 1485.58 L1692.15 1485.58 L1692.15 1481.64 Q1694.81 1478.89 1699.39 1474.26 Q1704 1469.61 1705.18 1468.27 Q1707.42 1465.74 1708.3 1464.01 Q1709.21 1462.25 1709.21 1460.56 Q1709.21 1457.8 1707.26 1456.07 Q1705.34 1454.33 1702.24 1454.33 Q1700.04 1454.33 1697.59 1455.09 Q1695.16 1455.86 1692.38 1457.41 L1692.38 1452.69 Q1695.2 1451.55 1697.66 1450.97 Q1700.11 1450.39 1702.15 1450.39 Q1707.52 1450.39 1710.71 1453.08 Q1713.91 1455.77 1713.91 1460.26 Q1713.91 1462.39 1713.09 1464.31 Q1712.31 1466.2 1710.2 1468.8 Q1709.62 1469.47 1706.52 1472.69 Q1703.42 1475.88 1697.77 1481.64 Z" fill="#000000" fill-rule="nonzero" fill-opacity="1" /><path clip-path="url(#clip510)" d="M1733.9 1454.1 Q1730.29 1454.1 1728.47 1457.66 Q1726.66 1461.2 1726.66 1468.33 Q1726.66 1475.44 1728.47 1479.01 Q1730.29 1482.55 1733.9 1482.55 Q1737.54 1482.55 1739.34 1479.01 Q1741.17 1475.44 1741.17 1468.33 Q1741.17 1461.2 1739.34 1457.66 Q1737.54 1454.1 1733.9 1454.1 M1733.9 1450.39 Q1739.72 1450.39 1742.77 1455 Q1745.85 1459.58 1745.85 1468.33 Q1745.85 1477.06 1742.77 1481.67 Q1739.72 1486.25 1733.9 1486.25 Q1728.09 1486.25 1725.02 1481.67 Q1721.96 1477.06 1721.96 1468.33 Q1721.96 1459.58 1725.02 1455 Q1728.09 1450.39 1733.9 1450.39 Z" fill="#000000" fill-rule="nonzero" fill-opacity="1" /><path clip-path="url(#clip510)" d="M1758.09 1481.64 L1774.41 1481.64 L1774.41 1485.58 L1752.47 1485.58 L1752.47 1481.64 Q1755.13 1478.89 1759.71 1474.26 Q1764.32 1469.61 1765.5 1468.27 Q1767.75 1465.74 1768.63 1464.01 Q1769.53 1462.25 1769.53 1460.56 Q1769.53 1457.8 1767.59 1456.07 Q1765.66 1454.33 1762.56 1454.33 Q1760.36 1454.33 1757.91 1455.09 Q1755.48 1455.86 1752.7 1457.41 L1752.7 1452.69 Q1755.53 1451.55 1757.98 1450.97 Q1760.43 1450.39 1762.47 1450.39 Q1767.84 1450.39 1771.03 1453.08 Q1774.23 1455.77 1774.23 1460.26 Q1774.23 1462.39 1773.42 1464.31 Q1772.63 1466.2 1770.53 1468.8 Q1769.95 1469.47 1766.84 1472.69 Q1763.74 1475.88 1758.09 1481.64 Z" fill="#000000" fill-rule="nonzero" fill-opacity="1" /><path clip-path="url(#clip510)" d="M1785.04 1481.64 L1792.68 1481.64 L1792.68 1455.28 L1784.37 1456.95 L1784.37 1452.69 L1792.63 1451.02 L1797.31 1451.02 L1797.31 1481.64 L1804.95 1481.64 L1804.95 1485.58 L1785.04 1485.58 L1785.04 1481.64 Z" fill="#000000" fill-rule="nonzero" fill-opacity="1" /><path clip-path="url(#clip510)" d="M1811.64 1470.7 L1824.11 1470.7 L1824.11 1474.49 L1811.64 1474.49 L1811.64 1470.7 Z" fill="#000000" fill-rule="nonzero" fill-opacity="1" /><path clip-path="url(#clip510)" d="M1832.31 1481.64 L1839.95 1481.64 L1839.95 1455.28 L1831.64 1456.95 L1831.64 1452.69 L1839.9 1451.02 L1844.58 1451.02 L1844.58 1481.64 L1852.21 1481.64 L1852.21 1485.58 L1832.31 1485.58 L1832.31 1481.64 Z" fill="#000000" fill-rule="nonzero" fill-opacity="1" /><path clip-path="url(#clip510)" d="M1871.66 1454.1 Q1868.05 1454.1 1866.22 1457.66 Q1864.41 1461.2 1864.41 1468.33 Q1864.41 1475.44 1866.22 1479.01 Q1868.05 1482.55 1871.66 1482.55 Q1875.29 1482.55 1877.1 1479.01 Q1878.93 1475.44 1878.93 1468.33 Q1878.93 1461.2 1877.1 1457.66 Q1875.29 1454.1 1871.66 1454.1 M1871.66 1450.39 Q1877.47 1450.39 1880.52 1455 Q1883.6 1459.58 1883.6 1468.33 Q1883.6 1477.06 1880.52 1481.67 Q1877.47 1486.25 1871.66 1486.25 Q1865.85 1486.25 1862.77 1481.67 Q1859.71 1477.06 1859.71 1468.33 Q1859.71 1459.58 1862.77 1455 Q1865.85 1450.39 1871.66 1450.39 Z" fill="#000000" fill-rule="nonzero" fill-opacity="1" /><path clip-path="url(#clip510)" d="M1889.07 1470.7 L1901.54 1470.7 L1901.54 1474.49 L1889.07 1474.49 L1889.07 1470.7 Z" fill="#000000" fill-rule="nonzero" fill-opacity="1" /><path clip-path="url(#clip510)" d="M1918.93 1454.1 Q1915.32 1454.1 1913.49 1457.66 Q1911.68 1461.2 1911.68 1468.33 Q1911.68 1475.44 1913.49 1479.01 Q1915.32 1482.55 1918.93 1482.55 Q1922.56 1482.55 1924.37 1479.01 Q1926.2 1475.44 1926.2 1468.33 Q1926.2 1461.2 1924.37 1457.66 Q1922.56 1454.1 1918.93 1454.1 M1918.93 1450.39 Q1924.74 1450.39 1927.79 1455 Q1930.87 1459.58 1930.87 1468.33 Q1930.87 1477.06 1927.79 1481.67 Q1924.74 1486.25 1918.93 1486.25 Q1913.12 1486.25 1910.04 1481.67 Q1906.98 1477.06 1906.98 1468.33 Q1906.98 1459.58 1910.04 1455 Q1913.12 1450.39 1918.93 1450.39 Z" fill="#000000" fill-rule="nonzero" fill-opacity="1" /><path clip-path="url(#clip510)" d="M1939.9 1481.64 L1947.54 1481.64 L1947.54 1455.28 L1939.23 1456.95 L1939.23 1452.69 L1947.49 1451.02 L1952.17 1451.02 L1952.17 1481.64 L1959.81 1481.64 L1959.81 1485.58 L1939.9 1485.58 L1939.9 1481.64 Z" fill="#000000" fill-rule="nonzero" fill-opacity="1" /><path clip-path="url(#clip510)" d="M1243.24 1537.81 L1243.24 1518.52 L1249.1 1518.52 L1249.1 1568.04 L1243.24 1568.04 L1243.24 1562.7 Q1241.4 1565.88 1238.56 1567.44 Q1235.76 1568.97 1231.81 1568.97 Q1225.35 1568.97 1221.28 1563.81 Q1217.24 1558.65 1217.24 1550.25 Q1217.24 1541.85 1221.28 1536.69 Q1225.35 1531.54 1231.81 1531.54 Q1235.76 1531.54 1238.56 1533.1 Q1241.4 1534.62 1243.24 1537.81 M1223.28 1550.25 Q1223.28 1556.71 1225.93 1560.4 Q1228.6 1564.07 1233.25 1564.07 Q1237.89 1564.07 1240.57 1560.4 Q1243.24 1556.71 1243.24 1550.25 Q1243.24 1543.79 1240.57 1540.13 Q1237.89 1536.44 1233.25 1536.44 Q1228.6 1536.44 1225.93 1540.13 Q1223.28 1543.79 1223.28 1550.25 Z" fill="#000000" fill-rule="nonzero" fill-opacity="1" /><path clip-path="url(#clip510)" d="M1277.36 1550.12 Q1270.26 1550.12 1267.53 1551.75 Q1264.79 1553.37 1264.79 1557.29 Q1264.79 1560.4 1266.83 1562.25 Q1268.9 1564.07 1272.43 1564.07 Q1277.3 1564.07 1280.23 1560.63 Q1283.19 1557.16 1283.19 1551.43 L1283.19 1550.12 L1277.36 1550.12 M1289.04 1547.71 L1289.04 1568.04 L1283.19 1568.04 L1283.19 1562.63 Q1281.18 1565.88 1278.19 1567.44 Q1275.2 1568.97 1270.87 1568.97 Q1265.39 1568.97 1262.15 1565.91 Q1258.93 1562.82 1258.93 1557.67 Q1258.93 1551.65 1262.94 1548.6 Q1266.99 1545.54 1274.97 1545.54 L1283.19 1545.54 L1283.19 1544.97 Q1283.19 1540.93 1280.51 1538.73 Q1277.87 1536.5 1273.06 1536.5 Q1270.01 1536.5 1267.11 1537.23 Q1264.22 1537.97 1261.54 1539.43 L1261.54 1534.02 Q1264.76 1532.78 1267.78 1532.17 Q1270.8 1531.54 1273.67 1531.54 Q1281.4 1531.54 1285.22 1535.55 Q1289.04 1539.56 1289.04 1547.71 Z" fill="#000000" fill-rule="nonzero" fill-opacity="1" /><path clip-path="url(#clip510)" d="M1306.9 1522.27 L1306.9 1532.4 L1318.96 1532.4 L1318.96 1536.95 L1306.9 1536.95 L1306.9 1556.3 Q1306.9 1560.66 1308.08 1561.9 Q1309.29 1563.14 1312.95 1563.14 L1318.96 1563.14 L1318.96 1568.04 L1312.95 1568.04 Q1306.17 1568.04 1303.59 1565.53 Q1301.01 1562.98 1301.01 1556.3 L1301.01 1536.95 L1296.71 1536.95 L1296.71 1532.4 L1301.01 1532.4 L1301.01 1522.27 L1306.9 1522.27 Z" fill="#000000" fill-rule="nonzero" fill-opacity="1" /><path clip-path="url(#clip510)" d="M1357.16 1548.76 L1357.16 1551.62 L1330.23 1551.62 Q1330.61 1557.67 1333.86 1560.85 Q1337.14 1564 1342.96 1564 Q1346.33 1564 1349.48 1563.17 Q1352.67 1562.35 1355.79 1560.69 L1355.79 1566.23 Q1352.64 1567.57 1349.33 1568.27 Q1346.02 1568.97 1342.61 1568.97 Q1334.08 1568.97 1329.08 1564 Q1324.12 1559.04 1324.12 1550.57 Q1324.12 1541.82 1328.83 1536.69 Q1333.57 1531.54 1341.59 1531.54 Q1348.78 1531.54 1352.95 1536.18 Q1357.16 1540.8 1357.16 1548.76 M1351.3 1547.04 Q1351.24 1542.23 1348.59 1539.37 Q1345.98 1536.5 1341.66 1536.5 Q1336.75 1536.5 1333.79 1539.27 Q1330.87 1542.04 1330.42 1547.07 L1351.3 1547.04 Z" fill="#000000" fill-rule="nonzero" fill-opacity="1" /><polyline clip-path="url(#clip512)" style="stroke:#000000; stroke-linecap:round; stroke-linejoin:round; stroke-width:2; stroke-opacity:0.1; fill:none" points="221.637,1377.47 2352.76,1377.47 "/>
<polyline clip-path="url(#clip512)" style="stroke:#000000; stroke-linecap:round; stroke-linejoin:round; stroke-width:2; stroke-opacity:0.1; fill:none" points="221.637,475.207 2352.76,475.207 "/>
<polyline clip-path="url(#clip512)" style="stroke:#000000; stroke-linecap:round; stroke-linejoin:round; stroke-width:2; stroke-opacity:0.05; fill:none" points="221.637,1418.76 2352.76,1418.76 "/>
<polyline clip-path="url(#clip512)" style="stroke:#000000; stroke-linecap:round; stroke-linejoin:round; stroke-width:2; stroke-opacity:0.05; fill:none" points="221.637,1105.86 2352.76,1105.86 "/>
<polyline clip-path="url(#clip512)" style="stroke:#000000; stroke-linecap:round; stroke-linejoin:round; stroke-width:2; stroke-opacity:0.05; fill:none" points="221.637,946.981 2352.76,946.981 "/>
<polyline clip-path="url(#clip512)" style="stroke:#000000; stroke-linecap:round; stroke-linejoin:round; stroke-width:2; stroke-opacity:0.05; fill:none" points="221.637,834.253 2352.76,834.253 "/>
<polyline clip-path="url(#clip512)" style="stroke:#000000; stroke-linecap:round; stroke-linejoin:round; stroke-width:2; stroke-opacity:0.05; fill:none" points="221.637,746.815 2352.76,746.815 "/>
<polyline clip-path="url(#clip512)" style="stroke:#000000; stroke-linecap:round; stroke-linejoin:round; stroke-width:2; stroke-opacity:0.05; fill:none" points="221.637,675.373 2352.76,675.373 "/>
<polyline clip-path="url(#clip512)" style="stroke:#000000; stroke-linecap:round; stroke-linejoin:round; stroke-width:2; stroke-opacity:0.05; fill:none" points="221.637,614.969 2352.76,614.969 "/>
<polyline clip-path="url(#clip512)" style="stroke:#000000; stroke-linecap:round; stroke-linejoin:round; stroke-width:2; stroke-opacity:0.05; fill:none" points="221.637,562.645 2352.76,562.645 "/>
<polyline clip-path="url(#clip512)" style="stroke:#000000; stroke-linecap:round; stroke-linejoin:round; stroke-width:2; stroke-opacity:0.05; fill:none" points="221.637,516.492 2352.76,516.492 "/>
<polyline clip-path="url(#clip512)" style="stroke:#000000; stroke-linecap:round; stroke-linejoin:round; stroke-width:2; stroke-opacity:0.05; fill:none" points="221.637,203.598 2352.76,203.598 "/>
<polyline clip-path="url(#clip510)" style="stroke:#000000; stroke-linecap:round; stroke-linejoin:round; stroke-width:4; stroke-opacity:1; fill:none" points="221.637,1423.18 221.637,47.2441 "/>
<polyline clip-path="url(#clip510)" style="stroke:#000000; stroke-linecap:round; stroke-linejoin:round; stroke-width:4; stroke-opacity:1; fill:none" points="221.637,1377.47 240.535,1377.47 "/>
<polyline clip-path="url(#clip510)" style="stroke:#000000; stroke-linecap:round; stroke-linejoin:round; stroke-width:4; stroke-opacity:1; fill:none" points="221.637,475.207 240.535,475.207 "/>
<polyline clip-path="url(#clip510)" style="stroke:#000000; stroke-linecap:round; stroke-linejoin:round; stroke-width:4; stroke-opacity:1; fill:none" points="221.637,1418.76 231.086,1418.76 "/>
<polyline clip-path="url(#clip510)" style="stroke:#000000; stroke-linecap:round; stroke-linejoin:round; stroke-width:4; stroke-opacity:1; fill:none" points="221.637,1105.86 231.086,1105.86 "/>
<polyline clip-path="url(#clip510)" style="stroke:#000000; stroke-linecap:round; stroke-linejoin:round; stroke-width:4; stroke-opacity:1; fill:none" points="221.637,946.981 231.086,946.981 "/>
<polyline clip-path="url(#clip510)" style="stroke:#000000; stroke-linecap:round; stroke-linejoin:round; stroke-width:4; stroke-opacity:1; fill:none" points="221.637,834.253 231.086,834.253 "/>
<polyline clip-path="url(#clip510)" style="stroke:#000000; stroke-linecap:round; stroke-linejoin:round; stroke-width:4; stroke-opacity:1; fill:none" points="221.637,746.815 231.086,746.815 "/>
<polyline clip-path="url(#clip510)" style="stroke:#000000; stroke-linecap:round; stroke-linejoin:round; stroke-width:4; stroke-opacity:1; fill:none" points="221.637,675.373 231.086,675.373 "/>
<polyline clip-path="url(#clip510)" style="stroke:#000000; stroke-linecap:round; stroke-linejoin:round; stroke-width:4; stroke-opacity:1; fill:none" points="221.637,614.969 231.086,614.969 "/>
<polyline clip-path="url(#clip510)" style="stroke:#000000; stroke-linecap:round; stroke-linejoin:round; stroke-width:4; stroke-opacity:1; fill:none" points="221.637,562.645 231.086,562.645 "/>
<polyline clip-path="url(#clip510)" style="stroke:#000000; stroke-linecap:round; stroke-linejoin:round; stroke-width:4; stroke-opacity:1; fill:none" points="221.637,516.492 231.086,516.492 "/>
<polyline clip-path="url(#clip510)" style="stroke:#000000; stroke-linecap:round; stroke-linejoin:round; stroke-width:4; stroke-opacity:1; fill:none" points="221.637,203.598 231.086,203.598 "/>
<path clip-path="url(#clip510)" d="M114.931 1397.26 L122.57 1397.26 L122.57 1370.9 L114.26 1372.56 L114.26 1368.3 L122.524 1366.64 L127.2 1366.64 L127.2 1397.26 L134.839 1397.26 L134.839 1401.2 L114.931 1401.2 L114.931 1397.26 Z" fill="#000000" fill-rule="nonzero" fill-opacity="1" /><path clip-path="url(#clip510)" d="M154.283 1369.72 Q150.672 1369.72 148.843 1373.28 Q147.038 1376.82 147.038 1383.95 Q147.038 1391.06 148.843 1394.62 Q150.672 1398.16 154.283 1398.16 Q157.917 1398.16 159.723 1394.62 Q161.552 1391.06 161.552 1383.95 Q161.552 1376.82 159.723 1373.28 Q157.917 1369.72 154.283 1369.72 M154.283 1366.01 Q160.093 1366.01 163.149 1370.62 Q166.227 1375.2 166.227 1383.95 Q166.227 1392.68 163.149 1397.29 Q160.093 1401.87 154.283 1401.87 Q148.473 1401.87 145.394 1397.29 Q142.339 1392.68 142.339 1383.95 Q142.339 1375.2 145.394 1370.62 Q148.473 1366.01 154.283 1366.01 Z" fill="#000000" fill-rule="nonzero" fill-opacity="1" /><path clip-path="url(#clip510)" d="M175.932 1348.21 Q172.998 1348.21 171.512 1351.1 Q170.045 1353.98 170.045 1359.78 Q170.045 1365.55 171.512 1368.45 Q172.998 1371.32 175.932 1371.32 Q178.885 1371.32 180.352 1368.45 Q181.838 1365.55 181.838 1359.78 Q181.838 1353.98 180.352 1351.1 Q178.885 1348.21 175.932 1348.21 M175.932 1345.2 Q180.653 1345.2 183.136 1348.94 Q185.637 1352.67 185.637 1359.78 Q185.637 1366.87 183.136 1370.61 Q180.653 1374.33 175.932 1374.33 Q171.212 1374.33 168.71 1370.61 Q166.227 1366.87 166.227 1359.78 Q166.227 1352.67 168.71 1348.94 Q171.212 1345.2 175.932 1345.2 Z" fill="#000000" fill-rule="nonzero" fill-opacity="1" /><path clip-path="url(#clip510)" d="M117.621 494.999 L125.26 494.999 L125.26 468.633 L116.95 470.3 L116.95 466.041 L125.214 464.374 L129.889 464.374 L129.889 494.999 L137.528 494.999 L137.528 498.934 L117.621 498.934 L117.621 494.999 Z" fill="#000000" fill-rule="nonzero" fill-opacity="1" /><path clip-path="url(#clip510)" d="M156.973 467.453 Q153.362 467.453 151.533 471.018 Q149.727 474.559 149.727 481.689 Q149.727 488.795 151.533 492.36 Q153.362 495.902 156.973 495.902 Q160.607 495.902 162.412 492.36 Q164.241 488.795 164.241 481.689 Q164.241 474.559 162.412 471.018 Q160.607 467.453 156.973 467.453 M156.973 463.749 Q162.783 463.749 165.838 468.356 Q168.917 472.939 168.917 481.689 Q168.917 490.416 165.838 495.022 Q162.783 499.605 156.973 499.605 Q151.162 499.605 148.084 495.022 Q145.028 490.416 145.028 481.689 Q145.028 472.939 148.084 468.356 Q151.162 463.749 156.973 463.749 Z" fill="#000000" fill-rule="nonzero" fill-opacity="1" /><path clip-path="url(#clip510)" d="M169.462 468.326 L175.669 468.326 L175.669 446.904 L168.917 448.259 L168.917 444.798 L175.631 443.444 L179.431 443.444 L179.431 468.326 L185.637 468.326 L185.637 471.524 L169.462 471.524 L169.462 468.326 Z" fill="#000000" fill-rule="nonzero" fill-opacity="1" /><path clip-path="url(#clip510)" d="M46.0847 888.244 Q46.0847 895.341 47.7079 898.079 Q49.3312 900.816 53.2461 900.816 Q56.3653 900.816 58.2114 898.779 Q60.0256 896.71 60.0256 893.177 Q60.0256 888.307 56.5881 885.379 Q53.1188 882.419 47.3897 882.419 L46.0847 882.419 L46.0847 888.244 M43.6657 876.562 L64.0042 876.562 L64.0042 882.419 L58.5933 882.419 Q61.8398 884.424 63.3994 887.416 Q64.9272 890.408 64.9272 894.737 Q64.9272 900.211 61.8716 903.458 Q58.7843 906.672 53.6281 906.672 Q47.6125 906.672 44.5569 902.662 Q41.5014 898.62 41.5014 890.631 L41.5014 882.419 L40.9285 882.419 Q36.8862 882.419 34.6901 885.093 Q32.4621 887.734 32.4621 892.54 Q32.4621 895.596 33.1941 898.492 Q33.9262 901.389 35.3903 904.062 L29.9795 904.062 Q28.7381 900.848 28.1334 897.824 Q27.4968 894.8 27.4968 891.936 Q27.4968 884.201 31.5072 880.382 Q35.5176 876.562 43.6657 876.562 Z" fill="#000000" fill-rule="nonzero" fill-opacity="1" /><path clip-path="url(#clip510)" d="M29.7248 838.846 L35.1993 838.846 Q33.8307 841.328 33.1623 843.843 Q32.4621 846.325 32.4621 848.872 Q32.4621 854.569 36.0905 857.72 Q39.6872 860.871 46.212 860.871 Q52.7369 860.871 56.3653 857.72 Q59.9619 854.569 59.9619 848.872 Q59.9619 846.325 59.2935 843.843 Q58.5933 841.328 57.2247 838.846 L62.6355 838.846 Q63.7814 841.296 64.3543 843.938 Q64.9272 846.548 64.9272 849.508 Q64.9272 857.561 59.8664 862.303 Q54.8057 867.046 46.212 867.046 Q37.491 867.046 32.4939 862.271 Q27.4968 857.465 27.4968 849.126 Q27.4968 846.421 28.0697 843.843 Q28.6108 841.265 29.7248 838.846 Z" fill="#000000" fill-rule="nonzero" fill-opacity="1" /><path clip-path="url(#clip510)" d="M29.7248 803.007 L35.1993 803.007 Q33.8307 805.489 33.1623 808.004 Q32.4621 810.486 32.4621 813.033 Q32.4621 818.73 36.0905 821.881 Q39.6872 825.032 46.212 825.032 Q52.7369 825.032 56.3653 821.881 Q59.9619 818.73 59.9619 813.033 Q59.9619 810.486 59.2935 808.004 Q58.5933 805.489 57.2247 803.007 L62.6355 803.007 Q63.7814 805.458 64.3543 808.099 Q64.9272 810.709 64.9272 813.669 Q64.9272 821.722 59.8664 826.464 Q54.8057 831.207 46.212 831.207 Q37.491 831.207 32.4939 826.433 Q27.4968 821.626 27.4968 813.287 Q27.4968 810.582 28.0697 808.004 Q28.6108 805.426 29.7248 803.007 Z" fill="#000000" fill-rule="nonzero" fill-opacity="1" /><path clip-path="url(#clip510)" d="M55.9197 791.994 L55.9197 785.278 L64.0042 785.278 L64.0042 791.994 L55.9197 791.994 Z" fill="#000000" fill-rule="nonzero" fill-opacity="1" /><path clip-path="url(#clip510)" d="M33.8307 730.724 Q33.2578 731.711 33.0032 732.888 Q32.7167 734.034 32.7167 735.435 Q32.7167 740.4 35.9632 743.074 Q39.1779 745.715 45.2253 745.715 L64.0042 745.715 L64.0042 751.604 L28.3562 751.604 L28.3562 745.715 L33.8944 745.715 Q30.6479 743.869 29.0883 740.909 Q27.4968 737.949 27.4968 733.716 Q27.4968 733.111 27.5923 732.379 Q27.656 731.647 27.8151 730.756 L33.8307 730.724 Z" fill="#000000" fill-rule="nonzero" fill-opacity="1" /><path clip-path="url(#clip510)" d="M44.7161 695.522 L47.5806 695.522 L47.5806 722.449 Q53.6281 722.067 56.8109 718.82 Q59.9619 715.542 59.9619 709.717 Q59.9619 706.343 59.1344 703.192 Q58.3069 700.01 56.6518 696.89 L62.1899 696.89 Q63.5267 700.041 64.227 703.352 Q64.9272 706.662 64.9272 710.067 Q64.9272 718.597 59.9619 723.595 Q54.9967 728.56 46.5303 728.56 Q37.7774 728.56 32.6531 723.849 Q27.4968 719.107 27.4968 711.086 Q27.4968 703.893 32.1438 699.723 Q36.7589 695.522 44.7161 695.522 M42.9973 701.378 Q38.1912 701.442 35.3266 704.084 Q32.4621 706.694 32.4621 711.022 Q32.4621 715.924 35.2312 718.884 Q38.0002 721.812 43.0292 722.258 L42.9973 701.378 Z" fill="#000000" fill-rule="nonzero" fill-opacity="1" /><path clip-path="url(#clip510)" d="M18.2347 680.117 L28.3562 680.117 L28.3562 668.054 L32.9077 668.054 L32.9077 680.117 L52.2594 680.117 Q56.6199 680.117 57.8613 678.939 Q59.1026 677.73 59.1026 674.069 L59.1026 668.054 L64.0042 668.054 L64.0042 674.069 Q64.0042 680.849 61.4897 683.427 Q58.9434 686.005 52.2594 686.005 L32.9077 686.005 L32.9077 690.302 L28.3562 690.302 L28.3562 686.005 L18.2347 686.005 L18.2347 680.117 Z" fill="#000000" fill-rule="nonzero" fill-opacity="1" /><path clip-path="url(#clip510)" d="M49.9359 660.956 L28.3562 660.956 L28.3562 655.1 L49.7131 655.1 Q54.7739 655.1 57.3202 653.126 Q59.8346 651.153 59.8346 647.206 Q59.8346 642.464 56.8109 639.726 Q53.7872 636.957 48.5673 636.957 L28.3562 636.957 L28.3562 631.101 L64.0042 631.101 L64.0042 636.957 L58.5296 636.957 Q61.7762 639.09 63.3676 641.923 Q64.9272 644.723 64.9272 648.447 Q64.9272 654.59 61.1078 657.773 Q57.2883 660.956 49.9359 660.956 M27.4968 646.219 L27.4968 646.219 Z" fill="#000000" fill-rule="nonzero" fill-opacity="1" /><path clip-path="url(#clip510)" d="M33.8307 598.381 Q33.2578 599.368 33.0032 600.545 Q32.7167 601.691 32.7167 603.092 Q32.7167 608.057 35.9632 610.731 Q39.1779 613.372 45.2253 613.372 L64.0042 613.372 L64.0042 619.261 L28.3562 619.261 L28.3562 613.372 L33.8944 613.372 Q30.6479 611.526 29.0883 608.566 Q27.4968 605.606 27.4968 601.373 Q27.4968 600.768 27.5923 600.036 Q27.656 599.304 27.8151 598.413 L33.8307 598.381 Z" fill="#000000" fill-rule="nonzero" fill-opacity="1" /><path clip-path="url(#clip510)" d="M42.4881 563.752 L64.0042 563.752 L64.0042 569.608 L42.679 569.608 Q37.6183 569.608 35.1038 571.581 Q32.5894 573.555 32.5894 577.502 Q32.5894 582.244 35.6131 584.981 Q38.6368 587.719 43.8567 587.719 L64.0042 587.719 L64.0042 593.607 L28.3562 593.607 L28.3562 587.719 L33.8944 587.719 Q30.6797 585.618 29.0883 582.785 Q27.4968 579.921 27.4968 576.197 Q27.4968 570.054 31.3163 566.903 Q35.1038 563.752 42.4881 563.752 Z" fill="#000000" fill-rule="nonzero" fill-opacity="1" /><polyline clip-path="url(#clip512)" style="stroke:#009af9; stroke-linecap:round; stroke-linejoin:round; stroke-width:12; stroke-opacity:1; fill:none" points="281.952,1377.47 281.952,1377.47 287.68,1384.08 293.408,1380.14 299.135,1380.14 304.863,1380.14 322.047,1384.24 327.775,1373.74 333.503,1381.23 339.231,1370.07 344.959,1383.84 367.87,1372.54 373.598,1372.54 379.326,1372.54 385.054,1308.27 402.237,1219.55 407.965,1175.06 413.693,618.587 419.421,694.845 425.149,575.2 442.333,575.2 448.061,632.636 453.788,595.947 459.516,598.882 465.244,598.882 482.428,598.882 488.156,598.882 493.884,598.882 499.612,598.882 505.339,566.852 528.251,555.507 533.979,567.642 539.707,598.42 545.435,524.67 562.618,479.91 568.346,448.233 574.074,370.825 579.802,295.852 585.53,312.117 602.714,265.398 608.442,265.398 614.169,265.398 619.897,279.682 625.625,264.78 642.809,264.78 648.537,264.78 654.265,264.78 659.993,264.78 665.72,207.525 682.665,181.451 688.393,204.09 694.121,208.062 699.849,242.888 705.577,244.266 722.761,234.045 728.489,264.081 734.216,321.533 739.944,317.061 745.672,317.061 762.856,317.061 768.584,323.279 774.312,328.594 780.04,362.513 802.951,313.595 808.679,313.668 814.407,345.642 820.135,343.746 825.863,332.302 843.046,332.302 848.774,333.02 854.502,336.793 860.23,340.133 865.958,355.342 883.142,371.599 888.869,372.413 894.597,371.236 900.325,371.236 906.053,371.236 923.237,371.236 928.965,385.858 934.693,391.735 940.42,381.106 946.148,391.609 963.332,397.959 969.06,393.687 974.788,393.687 980.516,393.687 986.244,393.687 1003.43,419.182 1009.16,436.438 1014.88,460.488 1020.61,460.237 1026.34,437.439 1043.52,430.184 1049.25,430.184 1054.98,430.277 1060.71,412.05 1066.43,401.71 1083.62,407.519 1089.35,414.541 1095.07,391.027 1100.8,258.959 1106.53,184.93 1129.44,184.93 1135.17,184.93 1140.9,184.93 1146.62,199.068 1163.81,158.445 1169.54,158.445 1175.26,186.682 1180.99,242.02 1186.72,186.011 1203.9,130.02 1209.63,112.843 1215.36,112.843 1221.09,129.217 1226.81,126.948 1244,113.679 1249.73,118.819 1255.45,102.236 1261.18,97.0676 1266.91,97.0676 1284.09,97.0676 1289.82,97.0676 1295.55,100.075 1301.28,91.1408 1307.01,104.586 1329.92,86.1857 1335.64,114.762 1341.37,143.063 1347.1,143.063 1364.28,143.063 1370.01,158.92 1375.74,163.977 1381.47,152.946 1387.2,152.946 1404.38,163.678 1410.11,153.707 1415.84,153.707 1421.56,190.451 1427.29,193.046 1444.47,171.798 1450.2,185.356 1455.93,176.605 1461.66,176.605 1467.39,187.259 1484.57,189.181 1490.3,184.437 1496.03,240.099 1501.75,216.741 1507.48,241.857 1524.67,226.079 1530.39,228.752 1536.12,222.214 1541.85,239.132 1547.58,240.054 1564.76,236.333 1570.49,236.333 1576.22,236.333 1581.94,261.819 1587.67,256.164 1604.86,245.605 1610.58,245.605 1616.31,245.605 1622.04,255.695 1627.77,245.616 1644.95,229.778 1650.68,229.778 1656.41,229.778 1662.13,238.369 1667.86,237.959 1690.77,217.21 1696.5,220.759 1702.23,222.793 1707.96,222.793 1725.14,222.793 1730.87,229.537 1736.6,221.513 1742.33,232.91 1748.05,224.705 1765.24,256.627 1770.96,248.951 1776.69,248.951 1782.42,248.951 1788.15,261.454 1805.33,275.789 1811.06,272.116 1816.79,272.116 1822.52,272.116 1828.24,272.116 1845.43,272.116 1851.16,272.116 1856.88,289.754 1862.61,285.324 1868.34,276.798 1885.52,276.798 1891.25,276.798 1896.98,280.353 1902.71,272.627 1908.43,269.54 1925.62,265.526 1931.35,256.754 1937.07,257.149 1942.8,262.52 1948.53,257.639 1965.71,252.846 1971.44,252.846 1977.17,245.103 1982.9,243.269 1988.62,237.559 2005.81,243.698 2011.54,234.074 2017.26,240.93 2022.99,230.155 2028.72,217.092 2046.14,220.199 2051.87,209.531 2057.6,203.305 2063.33,174.147 2069.05,171.204 2086.24,160.388 2091.97,159.901 2097.69,170.514 2103.42,176.324 2109.15,168.02 2126.33,168.02 2132.06,168.02 2137.79,153.842 2149.24,158.951 2166.43,158.951 2172.16,176.899 2177.88,205.66 2183.61,209.698 2189.34,202.866 2206.52,207.637 2212.25,191.595 2217.98,182.091 2223.71,180.161 2229.43,180.161 2246.62,210.945 2252.35,217.063 2258.07,211.654 2263.8,216.073 2269.53,221.065 2286.71,256.505 2292.44,227.512 "/>
<path clip-path="url(#clip510)" d="M1573.63 1377.32 L2281.72 1377.32 L2281.72 1273.64 L1573.63 1273.64  Z" fill="#ffffff" fill-rule="evenodd" fill-opacity="1"/>
<polyline clip-path="url(#clip510)" style="stroke:#000000; stroke-linecap:round; stroke-linejoin:round; stroke-width:4; stroke-opacity:1; fill:none" points="1573.63,1377.32 2281.72,1377.32 2281.72,1273.64 1573.63,1273.64 1573.63,1377.32 "/>
<polyline clip-path="url(#clip510)" style="stroke:#009af9; stroke-linecap:round; stroke-linejoin:round; stroke-width:12; stroke-opacity:1; fill:none" points="1597.31,1325.48 1739.39,1325.48 "/>
<path clip-path="url(#clip510)" d="M1763.07 1308.2 L1770.03 1308.2 L1778.85 1331.71 L1787.72 1308.2 L1794.69 1308.2 L1794.69 1342.76 L1790.13 1342.76 L1790.13 1312.41 L1781.21 1336.11 L1776.51 1336.11 L1767.6 1312.41 L1767.6 1342.76 L1763.07 1342.76 L1763.07 1308.2 Z" fill="#000000" fill-rule="nonzero" fill-opacity="1" /><path clip-path="url(#clip510)" d="M1812.88 1342.76 L1799.69 1308.2 L1804.57 1308.2 L1815.52 1337.29 L1826.49 1308.2 L1831.35 1308.2 L1818.18 1342.76 L1812.88 1342.76 Z" fill="#000000" fill-rule="nonzero" fill-opacity="1" /><path clip-path="url(#clip510)" d="M1831.28 1327.87 L1843.76 1327.87 L1843.76 1331.67 L1831.28 1331.67 L1831.28 1327.87 Z" fill="#000000" fill-rule="nonzero" fill-opacity="1" /><path clip-path="url(#clip510)" d="M1850.73 1308.2 L1857.69 1308.2 L1866.51 1331.71 L1875.38 1308.2 L1882.35 1308.2 L1882.35 1342.76 L1877.79 1342.76 L1877.79 1312.41 L1868.87 1336.11 L1864.18 1336.11 L1855.26 1312.41 L1855.26 1342.76 L1850.73 1342.76 L1850.73 1308.2 Z" fill="#000000" fill-rule="nonzero" fill-opacity="1" /><path clip-path="url(#clip510)" d="M1896.31 1312.04 L1896.31 1325.02 L1902.18 1325.02 Q1905.45 1325.02 1907.23 1323.33 Q1909.01 1321.64 1909.01 1318.52 Q1909.01 1315.42 1907.23 1313.73 Q1905.45 1312.04 1902.18 1312.04 L1896.31 1312.04 M1891.63 1308.2 L1902.18 1308.2 Q1908 1308.2 1910.96 1310.83 Q1913.94 1313.45 1913.94 1318.52 Q1913.94 1323.64 1910.96 1326.25 Q1908 1328.87 1902.18 1328.87 L1896.31 1328.87 L1896.31 1342.76 L1891.63 1342.76 L1891.63 1308.2 Z" fill="#000000" fill-rule="nonzero" fill-opacity="1" /><path clip-path="url(#clip510)" d="M1946.1 1310.86 L1946.1 1315.79 Q1943.74 1313.59 1941.05 1312.5 Q1938.39 1311.41 1935.38 1311.41 Q1929.45 1311.41 1926.31 1315.05 Q1923.16 1318.66 1923.16 1325.51 Q1923.16 1332.34 1926.31 1335.97 Q1929.45 1339.58 1935.38 1339.58 Q1938.39 1339.58 1941.05 1338.5 Q1943.74 1337.41 1946.1 1335.21 L1946.1 1340.09 Q1943.64 1341.76 1940.89 1342.59 Q1938.16 1343.43 1935.1 1343.43 Q1927.25 1343.43 1922.74 1338.63 Q1918.23 1333.82 1918.23 1325.51 Q1918.23 1317.18 1922.74 1312.39 Q1927.25 1307.57 1935.1 1307.57 Q1938.2 1307.57 1940.93 1308.4 Q1943.69 1309.21 1946.1 1310.86 Z" fill="#000000" fill-rule="nonzero" fill-opacity="1" /><path clip-path="url(#clip510)" d="M1954.22 1336.88 L1959.11 1336.88 L1959.11 1342.76 L1954.22 1342.76 L1954.22 1336.88 M1954.22 1318.24 L1959.11 1318.24 L1959.11 1324.12 L1954.22 1324.12 L1954.22 1318.24 Z" fill="#000000" fill-rule="nonzero" fill-opacity="1" /><path clip-path="url(#clip510)" d="M1989.04 1326.25 L1989.04 1338.91 L1996.54 1338.91 Q2000.31 1338.91 2002.11 1337.36 Q2003.94 1335.79 2003.94 1332.57 Q2003.94 1329.33 2002.11 1327.8 Q2000.31 1326.25 1996.54 1326.25 L1989.04 1326.25 M1989.04 1312.04 L1989.04 1322.45 L1995.96 1322.45 Q1999.38 1322.45 2001.05 1321.18 Q2002.74 1319.89 2002.74 1317.25 Q2002.74 1314.63 2001.05 1313.33 Q1999.38 1312.04 1995.96 1312.04 L1989.04 1312.04 M1984.36 1308.2 L1996.3 1308.2 Q2001.65 1308.2 2004.55 1310.42 Q2007.44 1312.64 2007.44 1316.74 Q2007.44 1319.91 2005.96 1321.78 Q2004.48 1323.66 2001.61 1324.12 Q2005.05 1324.86 2006.95 1327.22 Q2008.87 1329.56 2008.87 1333.08 Q2008.87 1337.71 2005.73 1340.23 Q2002.58 1342.76 1996.77 1342.76 L1984.36 1342.76 L1984.36 1308.2 Z" fill="#000000" fill-rule="nonzero" fill-opacity="1" /><path clip-path="url(#clip510)" d="M2038.87 1328.73 L2038.87 1330.81 L2019.29 1330.81 Q2019.57 1335.21 2021.93 1337.52 Q2024.31 1339.82 2028.55 1339.82 Q2031 1339.82 2033.3 1339.21 Q2035.61 1338.61 2037.88 1337.41 L2037.88 1341.44 Q2035.59 1342.41 2033.18 1342.92 Q2030.77 1343.43 2028.3 1343.43 Q2022.09 1343.43 2018.46 1339.82 Q2014.85 1336.2 2014.85 1330.05 Q2014.85 1323.68 2018.27 1319.95 Q2021.72 1316.2 2027.55 1316.2 Q2032.79 1316.2 2035.82 1319.58 Q2038.87 1322.94 2038.87 1328.73 M2034.61 1327.48 Q2034.57 1323.98 2032.65 1321.9 Q2030.75 1319.82 2027.6 1319.82 Q2024.04 1319.82 2021.88 1321.83 Q2019.75 1323.84 2019.43 1327.5 L2034.61 1327.48 Z" fill="#000000" fill-rule="nonzero" fill-opacity="1" /><path clip-path="url(#clip510)" d="M2067.42 1327.11 L2067.42 1342.76 L2063.16 1342.76 L2063.16 1327.25 Q2063.16 1323.57 2061.72 1321.74 Q2060.29 1319.91 2057.42 1319.91 Q2053.97 1319.91 2051.98 1322.11 Q2049.99 1324.31 2049.99 1328.1 L2049.99 1342.76 L2045.7 1342.76 L2045.7 1306.74 L2049.99 1306.74 L2049.99 1320.86 Q2051.51 1318.52 2053.57 1317.36 Q2055.66 1316.2 2058.36 1316.2 Q2062.83 1316.2 2065.12 1318.98 Q2067.42 1321.74 2067.42 1327.11 Z" fill="#000000" fill-rule="nonzero" fill-opacity="1" /><path clip-path="url(#clip510)" d="M2087.69 1329.72 Q2082.53 1329.72 2080.54 1330.9 Q2078.55 1332.08 2078.55 1334.93 Q2078.55 1337.2 2080.03 1338.54 Q2081.54 1339.86 2084.11 1339.86 Q2087.65 1339.86 2089.78 1337.36 Q2091.93 1334.84 2091.93 1330.67 L2091.93 1329.72 L2087.69 1329.72 M2096.19 1327.96 L2096.19 1342.76 L2091.93 1342.76 L2091.93 1338.82 Q2090.47 1341.18 2088.3 1342.32 Q2086.12 1343.43 2082.97 1343.43 Q2078.99 1343.43 2076.63 1341.2 Q2074.29 1338.96 2074.29 1335.21 Q2074.29 1330.83 2077.21 1328.61 Q2080.15 1326.39 2085.96 1326.39 L2091.93 1326.39 L2091.93 1325.97 Q2091.93 1323.03 2089.98 1321.44 Q2088.06 1319.82 2084.57 1319.82 Q2082.35 1319.82 2080.24 1320.35 Q2078.13 1320.88 2076.19 1321.95 L2076.19 1318.01 Q2078.53 1317.11 2080.73 1316.67 Q2082.92 1316.2 2085.01 1316.2 Q2090.63 1316.2 2093.41 1319.12 Q2096.19 1322.04 2096.19 1327.96 Z" fill="#000000" fill-rule="nonzero" fill-opacity="1" /><path clip-path="url(#clip510)" d="M2101.91 1316.83 L2106.42 1316.83 L2114.52 1338.59 L2122.62 1316.83 L2127.14 1316.83 L2117.42 1342.76 L2111.63 1342.76 L2101.91 1316.83 Z" fill="#000000" fill-rule="nonzero" fill-opacity="1" /><path clip-path="url(#clip510)" d="M2133.02 1316.83 L2137.28 1316.83 L2137.28 1342.76 L2133.02 1342.76 L2133.02 1316.83 M2133.02 1306.74 L2137.28 1306.74 L2137.28 1312.13 L2133.02 1312.13 L2133.02 1306.74 Z" fill="#000000" fill-rule="nonzero" fill-opacity="1" /><path clip-path="url(#clip510)" d="M2156.23 1319.82 Q2152.81 1319.82 2150.82 1322.5 Q2148.83 1325.16 2148.83 1329.82 Q2148.83 1334.47 2150.79 1337.15 Q2152.79 1339.82 2156.23 1339.82 Q2159.64 1339.82 2161.63 1337.13 Q2163.62 1334.45 2163.62 1329.82 Q2163.62 1325.21 2161.63 1322.52 Q2159.64 1319.82 2156.23 1319.82 M2156.23 1316.2 Q2161.79 1316.2 2164.96 1319.82 Q2168.13 1323.43 2168.13 1329.82 Q2168.13 1336.18 2164.96 1339.82 Q2161.79 1343.43 2156.23 1343.43 Q2150.66 1343.43 2147.48 1339.82 Q2144.34 1336.18 2144.34 1329.82 Q2144.34 1323.43 2147.48 1319.82 Q2150.66 1316.2 2156.23 1316.2 Z" fill="#000000" fill-rule="nonzero" fill-opacity="1" /><path clip-path="url(#clip510)" d="M2174.75 1332.52 L2174.75 1316.83 L2179.01 1316.83 L2179.01 1332.36 Q2179.01 1336.04 2180.45 1337.89 Q2181.88 1339.72 2184.75 1339.72 Q2188.2 1339.72 2190.19 1337.52 Q2192.21 1335.32 2192.21 1331.53 L2192.21 1316.83 L2196.47 1316.83 L2196.47 1342.76 L2192.21 1342.76 L2192.21 1338.77 Q2190.66 1341.13 2188.6 1342.29 Q2186.56 1343.43 2183.85 1343.43 Q2179.38 1343.43 2177.07 1340.65 Q2174.75 1337.87 2174.75 1332.52 M2185.47 1316.2 L2185.47 1316.2 Z" fill="#000000" fill-rule="nonzero" fill-opacity="1" /><path clip-path="url(#clip510)" d="M2220.26 1320.81 Q2219.54 1320.39 2218.69 1320.21 Q2217.85 1320 2216.84 1320 Q2213.22 1320 2211.28 1322.36 Q2209.36 1324.7 2209.36 1329.1 L2209.36 1342.76 L2205.08 1342.76 L2205.08 1316.83 L2209.36 1316.83 L2209.36 1320.86 Q2210.7 1318.5 2212.85 1317.36 Q2215.01 1316.2 2218.09 1316.2 Q2218.53 1316.2 2219.06 1316.27 Q2219.59 1316.32 2220.24 1316.44 L2220.26 1320.81 Z" fill="#000000" fill-rule="nonzero" fill-opacity="1" /><path clip-path="url(#clip510)" d="M2236.51 1329.72 Q2231.35 1329.72 2229.36 1330.9 Q2227.37 1332.08 2227.37 1334.93 Q2227.37 1337.2 2228.85 1338.54 Q2230.35 1339.86 2232.92 1339.86 Q2236.47 1339.86 2238.6 1337.36 Q2240.75 1334.84 2240.75 1330.67 L2240.75 1329.72 L2236.51 1329.72 M2245.01 1327.96 L2245.01 1342.76 L2240.75 1342.76 L2240.75 1338.82 Q2239.29 1341.18 2237.11 1342.32 Q2234.94 1343.43 2231.79 1343.43 Q2227.81 1343.43 2225.45 1341.2 Q2223.11 1338.96 2223.11 1335.21 Q2223.11 1330.83 2226.03 1328.61 Q2228.97 1326.39 2234.78 1326.39 L2240.75 1326.39 L2240.75 1325.97 Q2240.75 1323.03 2238.8 1321.44 Q2236.88 1319.82 2233.39 1319.82 Q2231.16 1319.82 2229.06 1320.35 Q2226.95 1320.88 2225.01 1321.95 L2225.01 1318.01 Q2227.35 1317.11 2229.54 1316.67 Q2231.74 1316.2 2233.83 1316.2 Q2239.45 1316.2 2242.23 1319.12 Q2245.01 1322.04 2245.01 1327.96 Z" fill="#000000" fill-rule="nonzero" fill-opacity="1" /><path clip-path="url(#clip510)" d="M2253.78 1306.74 L2258.04 1306.74 L2258.04 1342.76 L2253.78 1342.76 L2253.78 1306.74 Z" fill="#000000" fill-rule="nonzero" fill-opacity="1" /></svg>
