<?xml version="1.0" encoding="utf-8"?>
<svg xmlns="http://www.w3.org/2000/svg" xmlns:xlink="http://www.w3.org/1999/xlink" width="600" height="400" viewBox="0 0 2400 1600">
<defs>
  <clipPath id="clip450">
    <rect x="0" y="0" width="2400" height="1600"/>
  </clipPath>
</defs>
<path clip-path="url(#clip450)" d="M0 1600 L2400 1600 L2400 0 L0 0  Z" fill="#ffffff" fill-rule="evenodd" fill-opacity="1"/>
<defs>
  <clipPath id="clip451">
    <rect x="480" y="0" width="1681" height="1600"/>
  </clipPath>
</defs>
<path clip-path="url(#clip450)" d="M287.822 1423.18 L2352.76 1423.18 L2352.76 47.2441 L287.822 47.2441  Z" fill="#ffffff" fill-rule="evenodd" fill-opacity="1"/>
<defs>
  <clipPath id="clip452">
    <rect x="287" y="47" width="2066" height="1377"/>
  </clipPath>
</defs>
<polyline clip-path="url(#clip452)" style="stroke:#000000; stroke-linecap:round; stroke-linejoin:round; stroke-width:2; stroke-opacity:0.1; fill:none" points="327.185,1423.18 327.185,47.2441 "/>
<polyline clip-path="url(#clip452)" style="stroke:#000000; stroke-linecap:round; stroke-linejoin:round; stroke-width:2; stroke-opacity:0.1; fill:none" points="826.685,1423.18 826.685,47.2441 "/>
<polyline clip-path="url(#clip452)" style="stroke:#000000; stroke-linecap:round; stroke-linejoin:round; stroke-width:2; stroke-opacity:0.1; fill:none" points="1331.74,1423.18 1331.74,47.2441 "/>
<polyline clip-path="url(#clip452)" style="stroke:#000000; stroke-linecap:round; stroke-linejoin:round; stroke-width:2; stroke-opacity:0.1; fill:none" points="1842.34,1423.18 1842.34,47.2441 "/>
<polyline clip-path="url(#clip452)" style="stroke:#000000; stroke-linecap:round; stroke-linejoin:round; stroke-width:2; stroke-opacity:0.05; fill:none" points="427.085,1423.18 427.085,47.2441 "/>
<polyline clip-path="url(#clip452)" style="stroke:#000000; stroke-linecap:round; stroke-linejoin:round; stroke-width:2; stroke-opacity:0.05; fill:none" points="526.985,1423.18 526.985,47.2441 "/>
<polyline clip-path="url(#clip452)" style="stroke:#000000; stroke-linecap:round; stroke-linejoin:round; stroke-width:2; stroke-opacity:0.05; fill:none" points="626.885,1423.18 626.885,47.2441 "/>
<polyline clip-path="url(#clip452)" style="stroke:#000000; stroke-linecap:round; stroke-linejoin:round; stroke-width:2; stroke-opacity:0.05; fill:none" points="726.785,1423.18 726.785,47.2441 "/>
<polyline clip-path="url(#clip452)" style="stroke:#000000; stroke-linecap:round; stroke-linejoin:round; stroke-width:2; stroke-opacity:0.05; fill:none" points="927.695,1423.18 927.695,47.2441 "/>
<polyline clip-path="url(#clip452)" style="stroke:#000000; stroke-linecap:round; stroke-linejoin:round; stroke-width:2; stroke-opacity:0.05; fill:none" points="1028.71,1423.18 1028.71,47.2441 "/>
<polyline clip-path="url(#clip452)" style="stroke:#000000; stroke-linecap:round; stroke-linejoin:round; stroke-width:2; stroke-opacity:0.05; fill:none" points="1129.72,1423.18 1129.72,47.2441 "/>
<polyline clip-path="url(#clip452)" style="stroke:#000000; stroke-linecap:round; stroke-linejoin:round; stroke-width:2; stroke-opacity:0.05; fill:none" points="1230.73,1423.18 1230.73,47.2441 "/>
<polyline clip-path="url(#clip452)" style="stroke:#000000; stroke-linecap:round; stroke-linejoin:round; stroke-width:2; stroke-opacity:0.05; fill:none" points="1433.86,1423.18 1433.86,47.2441 "/>
<polyline clip-path="url(#clip452)" style="stroke:#000000; stroke-linecap:round; stroke-linejoin:round; stroke-width:2; stroke-opacity:0.05; fill:none" points="1535.98,1423.18 1535.98,47.2441 "/>
<polyline clip-path="url(#clip452)" style="stroke:#000000; stroke-linecap:round; stroke-linejoin:round; stroke-width:2; stroke-opacity:0.05; fill:none" points="1638.1,1423.18 1638.1,47.2441 "/>
<polyline clip-path="url(#clip452)" style="stroke:#000000; stroke-linecap:round; stroke-linejoin:round; stroke-width:2; stroke-opacity:0.05; fill:none" points="1740.22,1423.18 1740.22,47.2441 "/>
<polyline clip-path="url(#clip452)" style="stroke:#000000; stroke-linecap:round; stroke-linejoin:round; stroke-width:2; stroke-opacity:0.05; fill:none" points="1945.59,1423.18 1945.59,47.2441 "/>
<polyline clip-path="url(#clip452)" style="stroke:#000000; stroke-linecap:round; stroke-linejoin:round; stroke-width:2; stroke-opacity:0.05; fill:none" points="2048.85,1423.18 2048.85,47.2441 "/>
<polyline clip-path="url(#clip452)" style="stroke:#000000; stroke-linecap:round; stroke-linejoin:round; stroke-width:2; stroke-opacity:0.05; fill:none" points="2152.1,1423.18 2152.1,47.2441 "/>
<polyline clip-path="url(#clip452)" style="stroke:#000000; stroke-linecap:round; stroke-linejoin:round; stroke-width:2; stroke-opacity:0.05; fill:none" points="2255.35,1423.18 2255.35,47.2441 "/>
<polyline clip-path="url(#clip450)" style="stroke:#000000; stroke-linecap:round; stroke-linejoin:round; stroke-width:4; stroke-opacity:1; fill:none" points="287.822,1423.18 2352.76,1423.18 "/>
<polyline clip-path="url(#clip450)" style="stroke:#000000; stroke-linecap:round; stroke-linejoin:round; stroke-width:4; stroke-opacity:1; fill:none" points="327.185,1423.18 327.185,1404.28 "/>
<polyline clip-path="url(#clip450)" style="stroke:#000000; stroke-linecap:round; stroke-linejoin:round; stroke-width:4; stroke-opacity:1; fill:none" points="826.685,1423.18 826.685,1404.28 "/>
<polyline clip-path="url(#clip450)" style="stroke:#000000; stroke-linecap:round; stroke-linejoin:round; stroke-width:4; stroke-opacity:1; fill:none" points="1331.74,1423.18 1331.74,1404.28 "/>
<polyline clip-path="url(#clip450)" style="stroke:#000000; stroke-linecap:round; stroke-linejoin:round; stroke-width:4; stroke-opacity:1; fill:none" points="1842.34,1423.18 1842.34,1404.28 "/>
<polyline clip-path="url(#clip450)" style="stroke:#000000; stroke-linecap:round; stroke-linejoin:round; stroke-width:4; stroke-opacity:1; fill:none" points="427.085,1423.18 427.085,1413.73 "/>
<polyline clip-path="url(#clip450)" style="stroke:#000000; stroke-linecap:round; stroke-linejoin:round; stroke-width:4; stroke-opacity:1; fill:none" points="526.985,1423.18 526.985,1413.73 "/>
<polyline clip-path="url(#clip450)" style="stroke:#000000; stroke-linecap:round; stroke-linejoin:round; stroke-width:4; stroke-opacity:1; fill:none" points="626.885,1423.18 626.885,1413.73 "/>
<polyline clip-path="url(#clip450)" style="stroke:#000000; stroke-linecap:round; stroke-linejoin:round; stroke-width:4; stroke-opacity:1; fill:none" points="726.785,1423.18 726.785,1413.73 "/>
<polyline clip-path="url(#clip450)" style="stroke:#000000; stroke-linecap:round; stroke-linejoin:round; stroke-width:4; stroke-opacity:1; fill:none" points="927.695,1423.18 927.695,1413.73 "/>
<polyline clip-path="url(#clip450)" style="stroke:#000000; stroke-linecap:round; stroke-linejoin:round; stroke-width:4; stroke-opacity:1; fill:none" points="1028.71,1423.18 1028.71,1413.73 "/>
<polyline clip-path="url(#clip450)" style="stroke:#000000; stroke-linecap:round; stroke-linejoin:round; stroke-width:4; stroke-opacity:1; fill:none" points="1129.72,1423.18 1129.72,1413.73 "/>
<polyline clip-path="url(#clip450)" style="stroke:#000000; stroke-linecap:round; stroke-linejoin:round; stroke-width:4; stroke-opacity:1; fill:none" points="1230.73,1423.18 1230.73,1413.73 "/>
<polyline clip-path="url(#clip450)" style="stroke:#000000; stroke-linecap:round; stroke-linejoin:round; stroke-width:4; stroke-opacity:1; fill:none" points="1433.86,1423.18 1433.86,1413.73 "/>
<polyline clip-path="url(#clip450)" style="stroke:#000000; stroke-linecap:round; stroke-linejoin:round; stroke-width:4; stroke-opacity:1; fill:none" points="1535.98,1423.18 1535.98,1413.73 "/>
<polyline clip-path="url(#clip450)" style="stroke:#000000; stroke-linecap:round; stroke-linejoin:round; stroke-width:4; stroke-opacity:1; fill:none" points="1638.1,1423.18 1638.1,1413.73 "/>
<polyline clip-path="url(#clip450)" style="stroke:#000000; stroke-linecap:round; stroke-linejoin:round; stroke-width:4; stroke-opacity:1; fill:none" points="1740.22,1423.18 1740.22,1413.73 "/>
<polyline clip-path="url(#clip450)" style="stroke:#000000; stroke-linecap:round; stroke-linejoin:round; stroke-width:4; stroke-opacity:1; fill:none" points="1945.59,1423.18 1945.59,1413.73 "/>
<polyline clip-path="url(#clip450)" style="stroke:#000000; stroke-linecap:round; stroke-linejoin:round; stroke-width:4; stroke-opacity:1; fill:none" points="2048.85,1423.18 2048.85,1413.73 "/>
<polyline clip-path="url(#clip450)" style="stroke:#000000; stroke-linecap:round; stroke-linejoin:round; stroke-width:4; stroke-opacity:1; fill:none" points="2152.1,1423.18 2152.1,1413.73 "/>
<polyline clip-path="url(#clip450)" style="stroke:#000000; stroke-linecap:round; stroke-linejoin:round; stroke-width:4; stroke-opacity:1; fill:none" points="2255.35,1423.18 2255.35,1413.73 "/>
<path clip-path="url(#clip450)" d="M198.98 1481.64 L215.299 1481.64 L215.299 1485.58 L193.355 1485.58 L193.355 1481.64 Q196.017 1478.89 200.6 1474.26 Q205.207 1469.61 206.387 1468.27 Q208.632 1465.74 209.512 1464.01 Q210.415 1462.25 210.415 1460.56 Q210.415 1457.8 208.47 1456.07 Q206.549 1454.33 203.447 1454.33 Q201.248 1454.33 198.795 1455.09 Q196.364 1455.86 193.586 1457.41 L193.586 1452.69 Q196.41 1451.55 198.864 1450.97 Q201.318 1450.39 203.355 1450.39 Q208.725 1450.39 211.919 1453.08 Q215.114 1455.77 215.114 1460.26 Q215.114 1462.39 214.304 1464.31 Q213.517 1466.2 211.41 1468.8 Q210.831 1469.47 207.73 1472.69 Q204.628 1475.88 198.98 1481.64 Z" fill="#000000" fill-rule="nonzero" fill-opacity="1" /><path clip-path="url(#clip450)" d="M235.114 1454.1 Q231.503 1454.1 229.674 1457.66 Q227.868 1461.2 227.868 1468.33 Q227.868 1475.44 229.674 1479.01 Q231.503 1482.55 235.114 1482.55 Q238.748 1482.55 240.554 1479.01 Q242.382 1475.44 242.382 1468.33 Q242.382 1461.2 240.554 1457.66 Q238.748 1454.1 235.114 1454.1 M235.114 1450.39 Q240.924 1450.39 243.979 1455 Q247.058 1459.58 247.058 1468.33 Q247.058 1477.06 243.979 1481.67 Q240.924 1486.25 235.114 1486.25 Q229.304 1486.25 226.225 1481.67 Q223.169 1477.06 223.169 1468.33 Q223.169 1459.58 226.225 1455 Q229.304 1450.39 235.114 1450.39 Z" fill="#000000" fill-rule="nonzero" fill-opacity="1" /><path clip-path="url(#clip450)" d="M259.303 1481.64 L275.623 1481.64 L275.623 1485.58 L253.678 1485.58 L253.678 1481.64 Q256.341 1478.89 260.924 1474.26 Q265.53 1469.61 266.711 1468.27 Q268.956 1465.74 269.836 1464.01 Q270.739 1462.25 270.739 1460.56 Q270.739 1457.8 268.794 1456.07 Q266.873 1454.33 263.771 1454.33 Q261.572 1454.33 259.118 1455.09 Q256.688 1455.86 253.91 1457.41 L253.91 1452.69 Q256.734 1451.55 259.188 1450.97 Q261.641 1450.39 263.678 1450.39 Q269.049 1450.39 272.243 1453.08 Q275.438 1455.77 275.438 1460.26 Q275.438 1462.39 274.627 1464.31 Q273.84 1466.2 271.734 1468.8 Q271.155 1469.47 268.053 1472.69 Q264.952 1475.88 259.303 1481.64 Z" fill="#000000" fill-rule="nonzero" fill-opacity="1" /><path clip-path="url(#clip450)" d="M286.248 1481.64 L293.887 1481.64 L293.887 1455.28 L285.576 1456.95 L285.576 1452.69 L293.84 1451.02 L298.516 1451.02 L298.516 1481.64 L306.155 1481.64 L306.155 1485.58 L286.248 1485.58 L286.248 1481.64 Z" fill="#000000" fill-rule="nonzero" fill-opacity="1" /><path clip-path="url(#clip450)" d="M312.845 1470.7 L325.322 1470.7 L325.322 1474.49 L312.845 1474.49 L312.845 1470.7 Z" fill="#000000" fill-rule="nonzero" fill-opacity="1" /><path clip-path="url(#clip450)" d="M342.706 1454.1 Q339.095 1454.1 337.266 1457.66 Q335.46 1461.2 335.46 1468.33 Q335.46 1475.44 337.266 1479.01 Q339.095 1482.55 342.706 1482.55 Q346.34 1482.55 348.146 1479.01 Q349.974 1475.44 349.974 1468.33 Q349.974 1461.2 348.146 1457.66 Q346.34 1454.1 342.706 1454.1 M342.706 1450.39 Q348.516 1450.39 351.571 1455 Q354.65 1459.58 354.65 1468.33 Q354.65 1477.06 351.571 1481.67 Q348.516 1486.25 342.706 1486.25 Q336.896 1486.25 333.817 1481.67 Q330.761 1477.06 330.761 1468.33 Q330.761 1459.58 333.817 1455 Q336.896 1450.39 342.706 1450.39 Z" fill="#000000" fill-rule="nonzero" fill-opacity="1" /><path clip-path="url(#clip450)" d="M363.678 1481.64 L371.317 1481.64 L371.317 1455.28 L363.007 1456.95 L363.007 1452.69 L371.27 1451.02 L375.946 1451.02 L375.946 1481.64 L383.585 1481.64 L383.585 1485.58 L363.678 1485.58 L363.678 1481.64 Z" fill="#000000" fill-rule="nonzero" fill-opacity="1" /><path clip-path="url(#clip450)" d="M390.275 1470.7 L402.752 1470.7 L402.752 1474.49 L390.275 1474.49 L390.275 1470.7 Z" fill="#000000" fill-rule="nonzero" fill-opacity="1" /><path clip-path="url(#clip450)" d="M420.136 1454.1 Q416.525 1454.1 414.696 1457.66 Q412.891 1461.2 412.891 1468.33 Q412.891 1475.44 414.696 1479.01 Q416.525 1482.55 420.136 1482.55 Q423.77 1482.55 425.576 1479.01 Q427.404 1475.44 427.404 1468.33 Q427.404 1461.2 425.576 1457.66 Q423.77 1454.1 420.136 1454.1 M420.136 1450.39 Q425.946 1450.39 429.002 1455 Q432.08 1459.58 432.08 1468.33 Q432.08 1477.06 429.002 1481.67 Q425.946 1486.25 420.136 1486.25 Q414.326 1486.25 411.247 1481.67 Q408.192 1477.06 408.192 1468.33 Q408.192 1459.58 411.247 1455 Q414.326 1450.39 420.136 1450.39 Z" fill="#000000" fill-rule="nonzero" fill-opacity="1" /><path clip-path="url(#clip450)" d="M441.108 1481.64 L448.747 1481.64 L448.747 1455.28 L440.437 1456.95 L440.437 1452.69 L448.701 1451.02 L453.376 1451.02 L453.376 1481.64 L461.015 1481.64 L461.015 1485.58 L441.108 1485.58 L441.108 1481.64 Z" fill="#000000" fill-rule="nonzero" fill-opacity="1" /><path clip-path="url(#clip450)" d="M698.48 1481.64 L714.799 1481.64 L714.799 1485.58 L692.855 1485.58 L692.855 1481.64 Q695.517 1478.89 700.1 1474.26 Q704.707 1469.61 705.887 1468.27 Q708.133 1465.74 709.012 1464.01 Q709.915 1462.25 709.915 1460.56 Q709.915 1457.8 707.971 1456.07 Q706.049 1454.33 702.948 1454.33 Q700.749 1454.33 698.295 1455.09 Q695.864 1455.86 693.087 1457.41 L693.087 1452.69 Q695.911 1451.55 698.364 1450.97 Q700.818 1450.39 702.855 1450.39 Q708.225 1450.39 711.42 1453.08 Q714.614 1455.77 714.614 1460.26 Q714.614 1462.39 713.804 1464.31 Q713.017 1466.2 710.91 1468.8 Q710.332 1469.47 707.23 1472.69 Q704.128 1475.88 698.48 1481.64 Z" fill="#000000" fill-rule="nonzero" fill-opacity="1" /><path clip-path="url(#clip450)" d="M734.614 1454.1 Q731.003 1454.1 729.174 1457.66 Q727.369 1461.2 727.369 1468.33 Q727.369 1475.44 729.174 1479.01 Q731.003 1482.55 734.614 1482.55 Q738.248 1482.55 740.054 1479.01 Q741.883 1475.44 741.883 1468.33 Q741.883 1461.2 740.054 1457.66 Q738.248 1454.1 734.614 1454.1 M734.614 1450.39 Q740.424 1450.39 743.48 1455 Q746.558 1459.58 746.558 1468.33 Q746.558 1477.06 743.48 1481.67 Q740.424 1486.25 734.614 1486.25 Q728.804 1486.25 725.725 1481.67 Q722.67 1477.06 722.67 1468.33 Q722.67 1459.58 725.725 1455 Q728.804 1450.39 734.614 1450.39 Z" fill="#000000" fill-rule="nonzero" fill-opacity="1" /><path clip-path="url(#clip450)" d="M758.804 1481.64 L775.123 1481.64 L775.123 1485.58 L753.179 1485.58 L753.179 1481.64 Q755.841 1478.89 760.424 1474.26 Q765.031 1469.61 766.211 1468.27 Q768.456 1465.74 769.336 1464.01 Q770.239 1462.25 770.239 1460.56 Q770.239 1457.8 768.294 1456.07 Q766.373 1454.33 763.271 1454.33 Q761.072 1454.33 758.619 1455.09 Q756.188 1455.86 753.41 1457.41 L753.41 1452.69 Q756.234 1451.55 758.688 1450.97 Q761.142 1450.39 763.179 1450.39 Q768.549 1450.39 771.744 1453.08 Q774.938 1455.77 774.938 1460.26 Q774.938 1462.39 774.128 1464.31 Q773.341 1466.2 771.234 1468.8 Q770.656 1469.47 767.554 1472.69 Q764.452 1475.88 758.804 1481.64 Z" fill="#000000" fill-rule="nonzero" fill-opacity="1" /><path clip-path="url(#clip450)" d="M785.748 1481.64 L793.387 1481.64 L793.387 1455.28 L785.077 1456.95 L785.077 1452.69 L793.341 1451.02 L798.017 1451.02 L798.017 1481.64 L805.655 1481.64 L805.655 1485.58 L785.748 1485.58 L785.748 1481.64 Z" fill="#000000" fill-rule="nonzero" fill-opacity="1" /><path clip-path="url(#clip450)" d="M812.345 1470.7 L824.822 1470.7 L824.822 1474.49 L812.345 1474.49 L812.345 1470.7 Z" fill="#000000" fill-rule="nonzero" fill-opacity="1" /><path clip-path="url(#clip450)" d="M842.206 1454.1 Q838.595 1454.1 836.766 1457.66 Q834.961 1461.2 834.961 1468.33 Q834.961 1475.44 836.766 1479.01 Q838.595 1482.55 842.206 1482.55 Q845.84 1482.55 847.646 1479.01 Q849.475 1475.44 849.475 1468.33 Q849.475 1461.2 847.646 1457.66 Q845.84 1454.1 842.206 1454.1 M842.206 1450.39 Q848.016 1450.39 851.072 1455 Q854.15 1459.58 854.15 1468.33 Q854.15 1477.06 851.072 1481.67 Q848.016 1486.25 842.206 1486.25 Q836.396 1486.25 833.317 1481.67 Q830.262 1477.06 830.262 1468.33 Q830.262 1459.58 833.317 1455 Q836.396 1450.39 842.206 1450.39 Z" fill="#000000" fill-rule="nonzero" fill-opacity="1" /><path clip-path="url(#clip450)" d="M875.215 1455.09 L863.41 1473.54 L875.215 1473.54 L875.215 1455.09 M873.988 1451.02 L879.868 1451.02 L879.868 1473.54 L884.798 1473.54 L884.798 1477.43 L879.868 1477.43 L879.868 1485.58 L875.215 1485.58 L875.215 1477.43 L859.613 1477.43 L859.613 1472.92 L873.988 1451.02 Z" fill="#000000" fill-rule="nonzero" fill-opacity="1" /><path clip-path="url(#clip450)" d="M889.775 1470.7 L902.252 1470.7 L902.252 1474.49 L889.775 1474.49 L889.775 1470.7 Z" fill="#000000" fill-rule="nonzero" fill-opacity="1" /><path clip-path="url(#clip450)" d="M919.636 1454.1 Q916.025 1454.1 914.196 1457.66 Q912.391 1461.2 912.391 1468.33 Q912.391 1475.44 914.196 1479.01 Q916.025 1482.55 919.636 1482.55 Q923.27 1482.55 925.076 1479.01 Q926.905 1475.44 926.905 1468.33 Q926.905 1461.2 925.076 1457.66 Q923.27 1454.1 919.636 1454.1 M919.636 1450.39 Q925.446 1450.39 928.502 1455 Q931.581 1459.58 931.581 1468.33 Q931.581 1477.06 928.502 1481.67 Q925.446 1486.25 919.636 1486.25 Q913.826 1486.25 910.747 1481.67 Q907.692 1477.06 907.692 1468.33 Q907.692 1459.58 910.747 1455 Q913.826 1450.39 919.636 1450.39 Z" fill="#000000" fill-rule="nonzero" fill-opacity="1" /><path clip-path="url(#clip450)" d="M940.608 1481.64 L948.247 1481.64 L948.247 1455.28 L939.937 1456.95 L939.937 1452.69 L948.201 1451.02 L952.877 1451.02 L952.877 1481.64 L960.516 1481.64 L960.516 1485.58 L940.608 1485.58 L940.608 1481.64 Z" fill="#000000" fill-rule="nonzero" fill-opacity="1" /><path clip-path="url(#clip450)" d="M1203.53 1481.64 L1219.85 1481.64 L1219.85 1485.58 L1197.91 1485.58 L1197.91 1481.64 Q1200.57 1478.89 1205.15 1474.26 Q1209.76 1469.61 1210.94 1468.27 Q1213.18 1465.74 1214.06 1464.01 Q1214.97 1462.25 1214.97 1460.56 Q1214.97 1457.8 1213.02 1456.07 Q1211.1 1454.33 1208 1454.33 Q1205.8 1454.33 1203.35 1455.09 Q1200.91 1455.86 1198.14 1457.41 L1198.14 1452.69 Q1200.96 1451.55 1203.41 1450.97 Q1205.87 1450.39 1207.91 1450.39 Q1213.28 1450.39 1216.47 1453.08 Q1219.66 1455.77 1219.66 1460.26 Q1219.66 1462.39 1218.85 1464.31 Q1218.07 1466.2 1215.96 1468.8 Q1215.38 1469.47 1212.28 1472.69 Q1209.18 1475.88 1203.53 1481.64 Z" fill="#000000" fill-rule="nonzero" fill-opacity="1" /><path clip-path="url(#clip450)" d="M1239.66 1454.1 Q1236.05 1454.1 1234.22 1457.66 Q1232.42 1461.2 1232.42 1468.33 Q1232.42 1475.44 1234.22 1479.01 Q1236.05 1482.55 1239.66 1482.55 Q1243.3 1482.55 1245.1 1479.01 Q1246.93 1475.44 1246.93 1468.33 Q1246.93 1461.2 1245.1 1457.66 Q1243.3 1454.1 1239.66 1454.1 M1239.66 1450.39 Q1245.47 1450.39 1248.53 1455 Q1251.61 1459.58 1251.61 1468.33 Q1251.61 1477.06 1248.53 1481.67 Q1245.47 1486.25 1239.66 1486.25 Q1233.85 1486.25 1230.78 1481.67 Q1227.72 1477.06 1227.72 1468.33 Q1227.72 1459.58 1230.78 1455 Q1233.85 1450.39 1239.66 1450.39 Z" fill="#000000" fill-rule="nonzero" fill-opacity="1" /><path clip-path="url(#clip450)" d="M1263.85 1481.64 L1280.17 1481.64 L1280.17 1485.58 L1258.23 1485.58 L1258.23 1481.64 Q1260.89 1478.89 1265.47 1474.26 Q1270.08 1469.61 1271.26 1468.27 Q1273.51 1465.74 1274.39 1464.01 Q1275.29 1462.25 1275.29 1460.56 Q1275.29 1457.8 1273.34 1456.07 Q1271.42 1454.33 1268.32 1454.33 Q1266.12 1454.33 1263.67 1455.09 Q1261.24 1455.86 1258.46 1457.41 L1258.46 1452.69 Q1261.28 1451.55 1263.74 1450.97 Q1266.19 1450.39 1268.23 1450.39 Q1273.6 1450.39 1276.79 1453.08 Q1279.99 1455.77 1279.99 1460.26 Q1279.99 1462.39 1279.18 1464.31 Q1278.39 1466.2 1276.28 1468.8 Q1275.71 1469.47 1272.6 1472.69 Q1269.5 1475.88 1263.85 1481.64 Z" fill="#000000" fill-rule="nonzero" fill-opacity="1" /><path clip-path="url(#clip450)" d="M1290.8 1481.64 L1298.44 1481.64 L1298.44 1455.28 L1290.13 1456.95 L1290.13 1452.69 L1298.39 1451.02 L1303.07 1451.02 L1303.07 1481.64 L1310.71 1481.64 L1310.71 1485.58 L1290.8 1485.58 L1290.8 1481.64 Z" fill="#000000" fill-rule="nonzero" fill-opacity="1" /><path clip-path="url(#clip450)" d="M1317.4 1470.7 L1329.87 1470.7 L1329.87 1474.49 L1317.4 1474.49 L1317.4 1470.7 Z" fill="#000000" fill-rule="nonzero" fill-opacity="1" /><path clip-path="url(#clip450)" d="M1347.26 1454.1 Q1343.65 1454.1 1341.82 1457.66 Q1340.01 1461.2 1340.01 1468.33 Q1340.01 1475.44 1341.82 1479.01 Q1343.65 1482.55 1347.26 1482.55 Q1350.89 1482.55 1352.7 1479.01 Q1354.52 1475.44 1354.52 1468.33 Q1354.52 1461.2 1352.7 1457.66 Q1350.89 1454.1 1347.26 1454.1 M1347.26 1450.39 Q1353.07 1450.39 1356.12 1455 Q1359.2 1459.58 1359.2 1468.33 Q1359.2 1477.06 1356.12 1481.67 Q1353.07 1486.25 1347.26 1486.25 Q1341.45 1486.25 1338.37 1481.67 Q1335.31 1477.06 1335.31 1468.33 Q1335.31 1459.58 1338.37 1455 Q1341.45 1450.39 1347.26 1450.39 Z" fill="#000000" fill-rule="nonzero" fill-opacity="1" /><path clip-path="url(#clip450)" d="M1366.24 1451.02 L1388.46 1451.02 L1388.46 1453.01 L1375.91 1485.58 L1371.03 1485.58 L1382.83 1454.96 L1366.24 1454.96 L1366.24 1451.02 Z" fill="#000000" fill-rule="nonzero" fill-opacity="1" /><path clip-path="url(#clip450)" d="M1394.83 1470.7 L1407.3 1470.7 L1407.3 1474.49 L1394.83 1474.49 L1394.83 1470.7 Z" fill="#000000" fill-rule="nonzero" fill-opacity="1" /><path clip-path="url(#clip450)" d="M1424.69 1454.1 Q1421.08 1454.1 1419.25 1457.66 Q1417.44 1461.2 1417.44 1468.33 Q1417.44 1475.44 1419.25 1479.01 Q1421.08 1482.55 1424.69 1482.55 Q1428.32 1482.55 1430.13 1479.01 Q1431.96 1475.44 1431.96 1468.33 Q1431.96 1461.2 1430.13 1457.66 Q1428.32 1454.1 1424.69 1454.1 M1424.69 1450.39 Q1430.5 1450.39 1433.55 1455 Q1436.63 1459.58 1436.63 1468.33 Q1436.63 1477.06 1433.55 1481.67 Q1430.5 1486.25 1424.69 1486.25 Q1418.88 1486.25 1415.8 1481.67 Q1412.74 1477.06 1412.74 1468.33 Q1412.74 1459.58 1415.8 1455 Q1418.88 1450.39 1424.69 1450.39 Z" fill="#000000" fill-rule="nonzero" fill-opacity="1" /><path clip-path="url(#clip450)" d="M1445.66 1481.64 L1453.3 1481.64 L1453.3 1455.28 L1444.99 1456.95 L1444.99 1452.69 L1453.25 1451.02 L1457.93 1451.02 L1457.93 1481.64 L1465.57 1481.64 L1465.57 1485.58 L1445.66 1485.58 L1445.66 1481.64 Z" fill="#000000" fill-rule="nonzero" fill-opacity="1" /><path clip-path="url(#clip450)" d="M1714.13 1481.64 L1730.45 1481.64 L1730.45 1485.58 L1708.51 1485.58 L1708.51 1481.64 Q1711.17 1478.89 1715.75 1474.26 Q1720.36 1469.61 1721.54 1468.27 Q1723.78 1465.74 1724.66 1464.01 Q1725.57 1462.25 1725.57 1460.56 Q1725.57 1457.8 1723.62 1456.07 Q1721.7 1454.33 1718.6 1454.33 Q1716.4 1454.33 1713.95 1455.09 Q1711.51 1455.86 1708.74 1457.41 L1708.74 1452.69 Q1711.56 1451.55 1714.01 1450.97 Q1716.47 1450.39 1718.51 1450.39 Q1723.88 1450.39 1727.07 1453.08 Q1730.26 1455.77 1730.26 1460.26 Q1730.26 1462.39 1729.45 1464.31 Q1728.67 1466.2 1726.56 1468.8 Q1725.98 1469.47 1722.88 1472.69 Q1719.78 1475.88 1714.13 1481.64 Z" fill="#000000" fill-rule="nonzero" fill-opacity="1" /><path clip-path="url(#clip450)" d="M1750.26 1454.1 Q1746.65 1454.1 1744.82 1457.66 Q1743.02 1461.2 1743.02 1468.33 Q1743.02 1475.44 1744.82 1479.01 Q1746.65 1482.55 1750.26 1482.55 Q1753.9 1482.55 1755.7 1479.01 Q1757.53 1475.44 1757.53 1468.33 Q1757.53 1461.2 1755.7 1457.66 Q1753.9 1454.1 1750.26 1454.1 M1750.26 1450.39 Q1756.07 1450.39 1759.13 1455 Q1762.21 1459.58 1762.21 1468.33 Q1762.21 1477.06 1759.13 1481.67 Q1756.07 1486.25 1750.26 1486.25 Q1744.45 1486.25 1741.38 1481.67 Q1738.32 1477.06 1738.32 1468.33 Q1738.32 1459.58 1741.38 1455 Q1744.45 1450.39 1750.26 1450.39 Z" fill="#000000" fill-rule="nonzero" fill-opacity="1" /><path clip-path="url(#clip450)" d="M1774.45 1481.64 L1790.77 1481.64 L1790.77 1485.58 L1768.83 1485.58 L1768.83 1481.64 Q1771.49 1478.89 1776.07 1474.26 Q1780.68 1469.61 1781.86 1468.27 Q1784.11 1465.74 1784.99 1464.01 Q1785.89 1462.25 1785.89 1460.56 Q1785.89 1457.8 1783.95 1456.07 Q1782.02 1454.33 1778.92 1454.33 Q1776.72 1454.33 1774.27 1455.09 Q1771.84 1455.86 1769.06 1457.41 L1769.06 1452.69 Q1771.88 1451.55 1774.34 1450.97 Q1776.79 1450.39 1778.83 1450.39 Q1784.2 1450.39 1787.39 1453.08 Q1790.59 1455.77 1790.59 1460.26 Q1790.59 1462.39 1789.78 1464.31 Q1788.99 1466.2 1786.88 1468.8 Q1786.31 1469.47 1783.2 1472.69 Q1780.1 1475.88 1774.45 1481.64 Z" fill="#000000" fill-rule="nonzero" fill-opacity="1" /><path clip-path="url(#clip450)" d="M1801.4 1481.64 L1809.04 1481.64 L1809.04 1455.28 L1800.73 1456.95 L1800.73 1452.69 L1808.99 1451.02 L1813.67 1451.02 L1813.67 1481.64 L1821.31 1481.64 L1821.31 1485.58 L1801.4 1485.58 L1801.4 1481.64 Z" fill="#000000" fill-rule="nonzero" fill-opacity="1" /><path clip-path="url(#clip450)" d="M1828 1470.7 L1840.47 1470.7 L1840.47 1474.49 L1828 1474.49 L1828 1470.7 Z" fill="#000000" fill-rule="nonzero" fill-opacity="1" /><path clip-path="url(#clip450)" d="M1848.67 1481.64 L1856.31 1481.64 L1856.31 1455.28 L1848 1456.95 L1848 1452.69 L1856.26 1451.02 L1860.94 1451.02 L1860.94 1481.64 L1868.57 1481.64 L1868.57 1485.58 L1848.67 1485.58 L1848.67 1481.64 Z" fill="#000000" fill-rule="nonzero" fill-opacity="1" /><path clip-path="url(#clip450)" d="M1888.02 1454.1 Q1884.41 1454.1 1882.58 1457.66 Q1880.77 1461.2 1880.77 1468.33 Q1880.77 1475.44 1882.58 1479.01 Q1884.41 1482.55 1888.02 1482.55 Q1891.65 1482.55 1893.46 1479.01 Q1895.29 1475.44 1895.29 1468.33 Q1895.29 1461.2 1893.46 1457.66 Q1891.65 1454.1 1888.02 1454.1 M1888.02 1450.39 Q1893.83 1450.39 1896.88 1455 Q1899.96 1459.58 1899.96 1468.33 Q1899.96 1477.06 1896.88 1481.67 Q1893.83 1486.25 1888.02 1486.25 Q1882.21 1486.25 1879.13 1481.67 Q1876.07 1477.06 1876.07 1468.33 Q1876.07 1459.58 1879.13 1455 Q1882.21 1450.39 1888.02 1450.39 Z" fill="#000000" fill-rule="nonzero" fill-opacity="1" /><path clip-path="url(#clip450)" d="M1905.43 1470.7 L1917.9 1470.7 L1917.9 1474.49 L1905.43 1474.49 L1905.43 1470.7 Z" fill="#000000" fill-rule="nonzero" fill-opacity="1" /><path clip-path="url(#clip450)" d="M1935.29 1454.1 Q1931.68 1454.1 1929.85 1457.66 Q1928.04 1461.2 1928.04 1468.33 Q1928.04 1475.44 1929.85 1479.01 Q1931.68 1482.55 1935.29 1482.55 Q1938.92 1482.55 1940.73 1479.01 Q1942.56 1475.44 1942.56 1468.33 Q1942.56 1461.2 1940.73 1457.66 Q1938.92 1454.1 1935.29 1454.1 M1935.29 1450.39 Q1941.1 1450.39 1944.15 1455 Q1947.23 1459.58 1947.23 1468.33 Q1947.23 1477.06 1944.15 1481.67 Q1941.1 1486.25 1935.29 1486.25 Q1929.48 1486.25 1926.4 1481.67 Q1923.34 1477.06 1923.34 1468.33 Q1923.34 1459.58 1926.4 1455 Q1929.48 1450.39 1935.29 1450.39 Z" fill="#000000" fill-rule="nonzero" fill-opacity="1" /><path clip-path="url(#clip450)" d="M1956.26 1481.64 L1963.9 1481.64 L1963.9 1455.28 L1955.59 1456.95 L1955.59 1452.69 L1963.85 1451.02 L1968.53 1451.02 L1968.53 1481.64 L1976.17 1481.64 L1976.17 1485.58 L1956.26 1485.58 L1956.26 1481.64 Z" fill="#000000" fill-rule="nonzero" fill-opacity="1" /><path clip-path="url(#clip450)" d="M1276.33 1537.81 L1276.33 1518.52 L1282.19 1518.52 L1282.19 1568.04 L1276.33 1568.04 L1276.33 1562.7 Q1274.49 1565.88 1271.65 1567.44 Q1268.85 1568.97 1264.91 1568.97 Q1258.45 1568.97 1254.37 1563.81 Q1250.33 1558.65 1250.33 1550.25 Q1250.33 1541.85 1254.37 1536.69 Q1258.45 1531.54 1264.91 1531.54 Q1268.85 1531.54 1271.65 1533.1 Q1274.49 1534.62 1276.33 1537.81 M1256.38 1550.25 Q1256.38 1556.71 1259.02 1560.4 Q1261.69 1564.07 1266.34 1564.07 Q1270.99 1564.07 1273.66 1560.4 Q1276.33 1556.71 1276.33 1550.25 Q1276.33 1543.79 1273.66 1540.13 Q1270.99 1536.44 1266.34 1536.44 Q1261.69 1536.44 1259.02 1540.13 Q1256.38 1543.79 1256.38 1550.25 Z" fill="#000000" fill-rule="nonzero" fill-opacity="1" /><path clip-path="url(#clip450)" d="M1310.45 1550.12 Q1303.36 1550.12 1300.62 1551.75 Q1297.88 1553.37 1297.88 1557.29 Q1297.88 1560.4 1299.92 1562.25 Q1301.99 1564.07 1305.52 1564.07 Q1310.39 1564.07 1313.32 1560.63 Q1316.28 1557.16 1316.28 1551.43 L1316.28 1550.12 L1310.45 1550.12 M1322.13 1547.71 L1322.13 1568.04 L1316.28 1568.04 L1316.28 1562.63 Q1314.27 1565.88 1311.28 1567.44 Q1308.29 1568.97 1303.96 1568.97 Q1298.49 1568.97 1295.24 1565.91 Q1292.03 1562.82 1292.03 1557.67 Q1292.03 1551.65 1296.04 1548.6 Q1300.08 1545.54 1308.07 1545.54 L1316.28 1545.54 L1316.28 1544.97 Q1316.28 1540.93 1313.6 1538.73 Q1310.96 1536.5 1306.16 1536.5 Q1303.1 1536.5 1300.2 1537.23 Q1297.31 1537.97 1294.63 1539.43 L1294.63 1534.02 Q1297.85 1532.78 1300.87 1532.17 Q1303.9 1531.54 1306.76 1531.54 Q1314.5 1531.54 1318.32 1535.55 Q1322.13 1539.56 1322.13 1547.71 Z" fill="#000000" fill-rule="nonzero" fill-opacity="1" /><path clip-path="url(#clip450)" d="M1339.99 1522.27 L1339.99 1532.4 L1352.05 1532.4 L1352.05 1536.95 L1339.99 1536.95 L1339.99 1556.3 Q1339.99 1560.66 1341.17 1561.9 Q1342.38 1563.14 1346.04 1563.14 L1352.05 1563.14 L1352.05 1568.04 L1346.04 1568.04 Q1339.26 1568.04 1336.68 1565.53 Q1334.1 1562.98 1334.1 1556.3 L1334.1 1536.95 L1329.81 1536.95 L1329.81 1532.4 L1334.1 1532.4 L1334.1 1522.27 L1339.99 1522.27 Z" fill="#000000" fill-rule="nonzero" fill-opacity="1" /><path clip-path="url(#clip450)" d="M1390.25 1548.76 L1390.25 1551.62 L1363.32 1551.62 Q1363.7 1557.67 1366.95 1560.85 Q1370.23 1564 1376.05 1564 Q1379.43 1564 1382.58 1563.17 Q1385.76 1562.35 1388.88 1560.69 L1388.88 1566.23 Q1385.73 1567.57 1382.42 1568.27 Q1379.11 1568.97 1375.7 1568.97 Q1367.17 1568.97 1362.18 1564 Q1357.21 1559.04 1357.21 1550.57 Q1357.21 1541.82 1361.92 1536.69 Q1366.66 1531.54 1374.68 1531.54 Q1381.88 1531.54 1386.05 1536.18 Q1390.25 1540.8 1390.25 1548.76 M1384.39 1547.04 Q1384.33 1542.23 1381.69 1539.37 Q1379.08 1536.5 1374.75 1536.5 Q1369.85 1536.5 1366.89 1539.27 Q1363.96 1542.04 1363.51 1547.07 L1384.39 1547.04 Z" fill="#000000" fill-rule="nonzero" fill-opacity="1" /><polyline clip-path="url(#clip452)" style="stroke:#000000; stroke-linecap:round; stroke-linejoin:round; stroke-width:2; stroke-opacity:0.1; fill:none" points="287.822,877.824 2352.76,877.824 "/>
<polyline clip-path="url(#clip452)" style="stroke:#000000; stroke-linecap:round; stroke-linejoin:round; stroke-width:2; stroke-opacity:0.1; fill:none" points="287.822,258.982 2352.76,258.982 "/>
<polyline clip-path="url(#clip450)" style="stroke:#000000; stroke-linecap:round; stroke-linejoin:round; stroke-width:4; stroke-opacity:1; fill:none" points="287.822,1423.18 287.822,47.2441 "/>
<polyline clip-path="url(#clip450)" style="stroke:#000000; stroke-linecap:round; stroke-linejoin:round; stroke-width:4; stroke-opacity:1; fill:none" points="287.822,877.824 306.719,877.824 "/>
<polyline clip-path="url(#clip450)" style="stroke:#000000; stroke-linecap:round; stroke-linejoin:round; stroke-width:4; stroke-opacity:1; fill:none" points="287.822,258.982 306.719,258.982 "/>
<path clip-path="url(#clip450)" d="M114.931 897.616 L122.57 897.616 L122.57 871.251 L114.26 872.917 L114.26 868.658 L122.524 866.991 L127.2 866.991 L127.2 897.616 L134.839 897.616 L134.839 901.551 L114.931 901.551 L114.931 897.616 Z" fill="#000000" fill-rule="nonzero" fill-opacity="1" /><path clip-path="url(#clip450)" d="M154.283 870.07 Q150.672 870.07 148.843 873.635 Q147.038 877.176 147.038 884.306 Q147.038 891.412 148.843 894.977 Q150.672 898.519 154.283 898.519 Q157.917 898.519 159.723 894.977 Q161.552 891.412 161.552 884.306 Q161.552 877.176 159.723 873.635 Q157.917 870.07 154.283 870.07 M154.283 866.366 Q160.093 866.366 163.149 870.973 Q166.227 875.556 166.227 884.306 Q166.227 893.033 163.149 897.639 Q160.093 902.223 154.283 902.223 Q148.473 902.223 145.394 897.639 Q142.339 893.033 142.339 884.306 Q142.339 875.556 145.394 870.973 Q148.473 866.366 154.283 866.366 Z" fill="#000000" fill-rule="nonzero" fill-opacity="1" /><path clip-path="url(#clip450)" d="M166.227 860.468 L190.339 860.468 L190.339 863.665 L166.227 863.665 L166.227 860.468 Z" fill="#000000" fill-rule="nonzero" fill-opacity="1" /><path clip-path="url(#clip450)" d="M206.664 848.562 Q203.73 848.562 202.244 851.459 Q200.777 854.336 200.777 860.129 Q200.777 865.903 202.244 868.799 Q203.73 871.677 206.664 871.677 Q209.617 871.677 211.084 868.799 Q212.57 865.903 212.57 860.129 Q212.57 854.336 211.084 851.459 Q209.617 848.562 206.664 848.562 M206.664 845.553 Q211.385 845.553 213.868 849.296 Q216.369 853.02 216.369 860.129 Q216.369 867.22 213.868 870.962 Q211.385 874.686 206.664 874.686 Q201.943 874.686 199.442 870.962 Q196.959 867.22 196.959 860.129 Q196.959 853.02 199.442 849.296 Q201.943 845.553 206.664 845.553 Z" fill="#000000" fill-rule="nonzero" fill-opacity="1" /><path clip-path="url(#clip450)" d="M223.046 869.364 L227.014 869.364 L227.014 874.141 L223.046 874.141 L223.046 869.364 Z" fill="#000000" fill-rule="nonzero" fill-opacity="1" /><path clip-path="url(#clip450)" d="M238.562 870.944 L251.822 870.944 L251.822 874.141 L233.992 874.141 L233.992 870.944 Q236.155 868.705 239.879 864.944 Q243.621 861.164 244.581 860.073 Q246.405 858.023 247.12 856.612 Q247.853 855.183 247.853 853.81 Q247.853 851.572 246.273 850.161 Q244.712 848.75 242.192 848.75 Q240.405 848.75 238.412 849.371 Q236.437 849.992 234.18 851.252 L234.18 847.415 Q236.474 846.493 238.468 846.023 Q240.462 845.553 242.117 845.553 Q246.48 845.553 249.076 847.735 Q251.671 849.916 251.671 853.565 Q251.671 855.295 251.013 856.857 Q250.373 858.399 248.662 860.505 Q248.192 861.051 245.671 863.665 Q243.151 866.26 238.562 870.944 Z" fill="#000000" fill-rule="nonzero" fill-opacity="1" /><path clip-path="url(#clip450)" d="M144.366 278.774 L152.004 278.774 L152.004 252.408 L143.694 254.075 L143.694 249.816 L151.958 248.149 L156.634 248.149 L156.634 278.774 L164.273 278.774 L164.273 282.709 L144.366 282.709 L144.366 278.774 Z" fill="#000000" fill-rule="nonzero" fill-opacity="1" /><path clip-path="url(#clip450)" d="M183.717 251.228 Q180.106 251.228 178.277 254.793 Q176.472 258.334 176.472 265.464 Q176.472 272.57 178.277 276.135 Q180.106 279.677 183.717 279.677 Q187.351 279.677 189.157 276.135 Q190.986 272.57 190.986 265.464 Q190.986 258.334 189.157 254.793 Q187.351 251.228 183.717 251.228 M183.717 247.524 Q189.527 247.524 192.583 252.131 Q195.662 256.714 195.662 265.464 Q195.662 274.191 192.583 278.797 Q189.527 283.381 183.717 283.381 Q177.907 283.381 174.828 278.797 Q171.773 274.191 171.773 265.464 Q171.773 256.714 174.828 252.131 Q177.907 247.524 183.717 247.524 Z" fill="#000000" fill-rule="nonzero" fill-opacity="1" /><path clip-path="url(#clip450)" d="M205.366 229.72 Q202.432 229.72 200.947 232.617 Q199.48 235.494 199.48 241.287 Q199.48 247.061 200.947 249.957 Q202.432 252.835 205.366 252.835 Q208.319 252.835 209.786 249.957 Q211.272 247.061 211.272 241.287 Q211.272 235.494 209.786 232.617 Q208.319 229.72 205.366 229.72 M205.366 226.711 Q210.087 226.711 212.57 230.454 Q215.071 234.178 215.071 241.287 Q215.071 248.378 212.57 252.12 Q210.087 255.844 205.366 255.844 Q200.646 255.844 198.144 252.12 Q195.662 248.378 195.662 241.287 Q195.662 234.178 198.144 230.454 Q200.646 226.711 205.366 226.711 Z" fill="#000000" fill-rule="nonzero" fill-opacity="1" /><path clip-path="url(#clip450)" d="M221.748 250.522 L225.716 250.522 L225.716 255.299 L221.748 255.299 L221.748 250.522 Z" fill="#000000" fill-rule="nonzero" fill-opacity="1" /><path clip-path="url(#clip450)" d="M242.117 229.72 Q239.183 229.72 237.697 232.617 Q236.23 235.494 236.23 241.287 Q236.23 247.061 237.697 249.957 Q239.183 252.835 242.117 252.835 Q245.07 252.835 246.537 249.957 Q248.022 247.061 248.022 241.287 Q248.022 235.494 246.537 232.617 Q245.07 229.72 242.117 229.72 M242.117 226.711 Q246.838 226.711 249.32 230.454 Q251.822 234.178 251.822 241.287 Q251.822 248.378 249.32 252.12 Q246.838 255.844 242.117 255.844 Q237.396 255.844 234.895 252.12 Q232.412 248.378 232.412 241.287 Q232.412 234.178 234.895 230.454 Q237.396 226.711 242.117 226.711 Z" fill="#000000" fill-rule="nonzero" fill-opacity="1" /><path clip-path="url(#clip450)" d="M46.0847 888.244 Q46.0847 895.341 47.7079 898.079 Q49.3312 900.816 53.2461 900.816 Q56.3653 900.816 58.2114 898.779 Q60.0256 896.71 60.0256 893.177 Q60.0256 888.307 56.5881 885.379 Q53.1188 882.419 47.3897 882.419 L46.0847 882.419 L46.0847 888.244 M43.6657 876.562 L64.0042 876.562 L64.0042 882.419 L58.5933 882.419 Q61.8398 884.424 63.3994 887.416 Q64.9272 890.408 64.9272 894.737 Q64.9272 900.211 61.8716 903.458 Q58.7843 906.672 53.6281 906.672 Q47.6125 906.672 44.5569 902.662 Q41.5014 898.62 41.5014 890.631 L41.5014 882.419 L40.9285 882.419 Q36.8862 882.419 34.6901 885.093 Q32.4621 887.734 32.4621 892.54 Q32.4621 895.596 33.1941 898.492 Q33.9262 901.389 35.3903 904.062 L29.9795 904.062 Q28.7381 900.848 28.1334 897.824 Q27.4968 894.8 27.4968 891.936 Q27.4968 884.201 31.5072 880.382 Q35.5176 876.562 43.6657 876.562 Z" fill="#000000" fill-rule="nonzero" fill-opacity="1" /><path clip-path="url(#clip450)" d="M29.7248 838.846 L35.1993 838.846 Q33.8307 841.328 33.1623 843.843 Q32.4621 846.325 32.4621 848.872 Q32.4621 854.569 36.0905 857.72 Q39.6872 860.871 46.212 860.871 Q52.7369 860.871 56.3653 857.72 Q59.9619 854.569 59.9619 848.872 Q59.9619 846.325 59.2935 843.843 Q58.5933 841.328 57.2247 838.846 L62.6355 838.846 Q63.7814 841.296 64.3543 843.938 Q64.9272 846.548 64.9272 849.508 Q64.9272 857.561 59.8664 862.303 Q54.8057 867.046 46.212 867.046 Q37.491 867.046 32.4939 862.271 Q27.4968 857.465 27.4968 849.126 Q27.4968 846.421 28.0697 843.843 Q28.6108 841.265 29.7248 838.846 Z" fill="#000000" fill-rule="nonzero" fill-opacity="1" /><path clip-path="url(#clip450)" d="M29.7248 803.007 L35.1993 803.007 Q33.8307 805.489 33.1623 808.004 Q32.4621 810.486 32.4621 813.033 Q32.4621 818.73 36.0905 821.881 Q39.6872 825.032 46.212 825.032 Q52.7369 825.032 56.3653 821.881 Q59.9619 818.73 59.9619 813.033 Q59.9619 810.486 59.2935 808.004 Q58.5933 805.489 57.2247 803.007 L62.6355 803.007 Q63.7814 805.458 64.3543 808.099 Q64.9272 810.709 64.9272 813.669 Q64.9272 821.722 59.8664 826.464 Q54.8057 831.207 46.212 831.207 Q37.491 831.207 32.4939 826.433 Q27.4968 821.626 27.4968 813.287 Q27.4968 810.582 28.0697 808.004 Q28.6108 805.426 29.7248 803.007 Z" fill="#000000" fill-rule="nonzero" fill-opacity="1" /><path clip-path="url(#clip450)" d="M55.9197 791.994 L55.9197 785.278 L64.0042 785.278 L64.0042 791.994 L55.9197 791.994 Z" fill="#000000" fill-rule="nonzero" fill-opacity="1" /><path clip-path="url(#clip450)" d="M33.8307 730.724 Q33.2578 731.711 33.0032 732.888 Q32.7167 734.034 32.7167 735.435 Q32.7167 740.4 35.9632 743.074 Q39.1779 745.715 45.2253 745.715 L64.0042 745.715 L64.0042 751.604 L28.3562 751.604 L28.3562 745.715 L33.8944 745.715 Q30.6479 743.869 29.0883 740.909 Q27.4968 737.949 27.4968 733.716 Q27.4968 733.111 27.5923 732.379 Q27.656 731.647 27.8151 730.756 L33.8307 730.724 Z" fill="#000000" fill-rule="nonzero" fill-opacity="1" /><path clip-path="url(#clip450)" d="M44.7161 695.522 L47.5806 695.522 L47.5806 722.449 Q53.6281 722.067 56.8109 718.82 Q59.9619 715.542 59.9619 709.717 Q59.9619 706.343 59.1344 703.192 Q58.3069 700.01 56.6518 696.89 L62.1899 696.89 Q63.5267 700.041 64.227 703.352 Q64.9272 706.662 64.9272 710.067 Q64.9272 718.597 59.9619 723.595 Q54.9967 728.56 46.5303 728.56 Q37.7774 728.56 32.6531 723.849 Q27.4968 719.107 27.4968 711.086 Q27.4968 703.893 32.1438 699.723 Q36.7589 695.522 44.7161 695.522 M42.9973 701.378 Q38.1912 701.442 35.3266 704.084 Q32.4621 706.694 32.4621 711.022 Q32.4621 715.924 35.2312 718.884 Q38.0002 721.812 43.0292 722.258 L42.9973 701.378 Z" fill="#000000" fill-rule="nonzero" fill-opacity="1" /><path clip-path="url(#clip450)" d="M18.2347 680.117 L28.3562 680.117 L28.3562 668.054 L32.9077 668.054 L32.9077 680.117 L52.2594 680.117 Q56.6199 680.117 57.8613 678.939 Q59.1026 677.73 59.1026 674.069 L59.1026 668.054 L64.0042 668.054 L64.0042 674.069 Q64.0042 680.849 61.4897 683.427 Q58.9434 686.005 52.2594 686.005 L32.9077 686.005 L32.9077 690.302 L28.3562 690.302 L28.3562 686.005 L18.2347 686.005 L18.2347 680.117 Z" fill="#000000" fill-rule="nonzero" fill-opacity="1" /><path clip-path="url(#clip450)" d="M49.9359 660.956 L28.3562 660.956 L28.3562 655.1 L49.7131 655.1 Q54.7739 655.1 57.3202 653.126 Q59.8346 651.153 59.8346 647.206 Q59.8346 642.464 56.8109 639.726 Q53.7872 636.957 48.5673 636.957 L28.3562 636.957 L28.3562 631.101 L64.0042 631.101 L64.0042 636.957 L58.5296 636.957 Q61.7762 639.09 63.3676 641.923 Q64.9272 644.723 64.9272 648.447 Q64.9272 654.59 61.1078 657.773 Q57.2883 660.956 49.9359 660.956 M27.4968 646.219 L27.4968 646.219 Z" fill="#000000" fill-rule="nonzero" fill-opacity="1" /><path clip-path="url(#clip450)" d="M33.8307 598.381 Q33.2578 599.368 33.0032 600.545 Q32.7167 601.691 32.7167 603.092 Q32.7167 608.057 35.9632 610.731 Q39.1779 613.372 45.2253 613.372 L64.0042 613.372 L64.0042 619.261 L28.3562 619.261 L28.3562 613.372 L33.8944 613.372 Q30.6479 611.526 29.0883 608.566 Q27.4968 605.606 27.4968 601.373 Q27.4968 600.768 27.5923 600.036 Q27.656 599.304 27.8151 598.413 L33.8307 598.381 Z" fill="#000000" fill-rule="nonzero" fill-opacity="1" /><path clip-path="url(#clip450)" d="M42.4881 563.752 L64.0042 563.752 L64.0042 569.608 L42.679 569.608 Q37.6183 569.608 35.1038 571.581 Q32.5894 573.555 32.5894 577.502 Q32.5894 582.244 35.6131 584.981 Q38.6368 587.719 43.8567 587.719 L64.0042 587.719 L64.0042 593.607 L28.3562 593.607 L28.3562 587.719 L33.8944 587.719 Q30.6797 585.618 29.0883 582.785 Q27.4968 579.921 27.4968 576.197 Q27.4968 570.054 31.3163 566.903 Q35.1038 563.752 42.4881 563.752 Z" fill="#000000" fill-rule="nonzero" fill-opacity="1" /><polyline clip-path="url(#clip452)" style="stroke:#009af9; stroke-linecap:round; stroke-linejoin:round; stroke-width:12; stroke-opacity:1; fill:none" points="346.263,258.982 346.263,258.982 351.813,281.658 357.363,268.145 362.913,268.145 368.463,268.145 385.113,282.194 390.663,267.874 396.213,326.528 401.763,288.369 407.313,288.369 429.513,288.369 435.063,288.369 440.613,288.369 446.163,288.369 462.813,417.863 468.363,355.878 473.913,388.474 479.463,649.992 485.013,321.303 501.663,86.1857 507.213,86.1857 512.763,86.1857 518.313,377.649 523.863,337.496 540.513,337.496 546.063,409.688 551.613,477.389 557.163,453.326 562.713,453.326 584.913,453.326 590.463,453.326 596.013,453.326 601.563,453.326 618.213,453.326 623.763,467.882 629.313,329.326 634.863,411.658 640.413,434.654 657.063,367.619 662.613,425.208 668.163,478.687 673.713,504.656 679.263,504.656 695.913,504.656 701.463,504.656 707.013,504.656 712.563,504.656 718.113,451.036 734.532,418.782 740.082,509.003 745.632,612.724 751.182,754.263 756.732,736.168 773.382,784.072 778.932,843.365 784.482,893.011 790.032,871.445 795.582,863.648 812.232,873.365 817.782,852.421 823.332,852.421 828.882,895.221 851.082,935.279 856.632,902.702 862.182,936.598 867.732,925.686 873.282,908.878 889.932,908.878 895.482,908.878 901.032,908.878 906.582,908.878 912.132,908.878 928.782,908.878 934.332,908.878 939.882,804.087 945.432,835.335 950.982,816.926 967.632,795.076 973.182,795.076 978.732,795.076 984.282,795.076 989.832,826.623 1006.48,789.816 1012.03,831.606 1017.58,777.609 1023.13,768.576 1028.68,747.237 1045.33,722.038 1050.88,692.621 1056.43,720.997 1061.98,480.852 1067.53,398.917 1084.18,370.846 1089.73,382.568 1095.28,461.509 1100.83,484.035 1106.38,504.181 1123.03,469.556 1128.58,450.196 1134.13,408.706 1139.68,408.706 1145.23,408.706 1167.43,408.706 1172.98,408.706 1178.53,586.867 1184.08,625.267 1200.73,625.267 1206.28,625.267 1211.83,722.104 1217.38,733.764 1222.93,733.764 1239.58,733.764 1245.13,733.764 1250.68,769.641 1256.23,623.305 1261.78,654.518 1278.43,733.484 1283.98,745.108 1289.53,742.415 1295.08,723.603 1300.63,723.603 1317.28,723.603 1322.83,738.866 1328.38,732.512 1333.93,693.544 1339.48,739.652 1361.68,676.551 1367.23,676.551 1372.78,654.01 1378.33,697.057 1394.98,804.004 1400.53,843.243 1406.08,843.243 1411.63,896.283 1417.18,926.447 1433.83,949.276 1439.38,949.276 1444.93,1007.26 1450.48,1001.42 1456.03,1001.42 1472.68,1001.42 1478.23,1095.54 1483.78,1064.48 1489.33,1091.35 1494.88,1085.69 1511.53,1085.69 1517.08,1085.69 1522.63,1144.38 1528.18,1102.23 1533.73,1136.67 1550.38,1094.37 1555.93,1175.18 1561.48,1156.56 1567.03,1156.56 1572.58,1253.05 1589.23,1218.65 1594.78,1207.72 1600.33,1207.72 1605.88,1207.72 1611.43,1207.72 1628.08,1207.72 1633.63,1231.63 1639.18,1206.2 1644.73,1280.09 1650.28,1264.66 1666.93,1264.66 1672.48,1264.66 1678.03,1264.66 1683.58,1264.66 1689.13,1264.66 1711.33,1331 1716.88,1373.7 1722.43,1363 1727.98,1053.12 1744.63,997.326 1750.18,997.326 1755.73,997.326 1761.28,1036.41 1766.83,1090.78 1783.48,1214.84 1789.03,1165.76 1794.58,1215.46 1800.13,1174.76 1805.68,1194.55 1822.33,1164.38 1827.88,1164.38 1833.43,1164.38 1838.98,1164.38 1844.53,1164.38 1861.18,1164.38 1866.73,1164.38 1872.28,1224.87 1877.83,1184.75 1883.38,1184.75 1900.03,1184.75 1905.58,1184.75 1911.13,1211.24 1916.68,1199.46 1922.23,1143.94 1938.88,1188.07 1944.43,1166.86 1949.98,1131.75 1955.53,1116.17 1961.08,1177.46 1977.73,1091.02 1983.28,1136.9 1988.83,1097.57 1994.38,1054.71 1999.93,1016.78 2016.58,990.62 2022.13,959.352 2027.68,959.352 2033.23,959.352 2038.78,959.352 2055.66,959.352 2061.21,959.352 2066.76,959.352 2072.31,959.352 2077.86,971.631 2094.51,959.289 2100.06,934.416 2105.61,1004.53 2111.16,1023.73 2116.71,1001.34 2133.36,1080.42 2138.91,1033.36 2144.46,1033.36 2155.56,1033.36 2172.21,1033.36 2177.76,998.513 2183.31,1141.32 2188.86,1183.66 2194.41,1186.62 2211.06,1186.62 2216.61,1186.62 2222.16,1220.06 2227.71,1197.64 2233.26,1197.64 2249.91,1197.64 2255.46,1225.79 2261.01,1238.26 2266.56,1362.61 2272.11,1333.97 2288.76,1384.24 2294.31,1381.21 "/>
<path clip-path="url(#clip450)" d="M1582.46 1377.32 L2283.92 1377.32 L2283.92 1273.64 L1582.46 1273.64  Z" fill="#ffffff" fill-rule="evenodd" fill-opacity="1"/>
<polyline clip-path="url(#clip450)" style="stroke:#000000; stroke-linecap:round; stroke-linejoin:round; stroke-width:4; stroke-opacity:1; fill:none" points="1582.46,1377.32 2283.92,1377.32 2283.92,1273.64 1582.46,1273.64 1582.46,1377.32 "/>
<polyline clip-path="url(#clip450)" style="stroke:#009af9; stroke-linecap:round; stroke-linejoin:round; stroke-width:12; stroke-opacity:1; fill:none" points="1605.4,1325.48 1743.06,1325.48 "/>
<path clip-path="url(#clip450)" d="M1766.01 1308.2 L1772.97 1308.2 L1781.79 1331.71 L1790.66 1308.2 L1797.63 1308.2 L1797.63 1342.76 L1793.07 1342.76 L1793.07 1312.41 L1784.15 1336.11 L1779.46 1336.11 L1770.54 1312.41 L1770.54 1342.76 L1766.01 1342.76 L1766.01 1308.2 Z" fill="#000000" fill-rule="nonzero" fill-opacity="1" /><path clip-path="url(#clip450)" d="M1815.82 1342.76 L1802.63 1308.2 L1807.51 1308.2 L1818.46 1337.29 L1829.43 1308.2 L1834.29 1308.2 L1821.12 1342.76 L1815.82 1342.76 Z" fill="#000000" fill-rule="nonzero" fill-opacity="1" /><path clip-path="url(#clip450)" d="M1834.22 1327.87 L1846.7 1327.87 L1846.7 1331.67 L1834.22 1331.67 L1834.22 1327.87 Z" fill="#000000" fill-rule="nonzero" fill-opacity="1" /><path clip-path="url(#clip450)" d="M1853.67 1308.2 L1860.64 1308.2 L1869.46 1331.71 L1878.32 1308.2 L1885.29 1308.2 L1885.29 1342.76 L1880.73 1342.76 L1880.73 1312.41 L1871.82 1336.11 L1867.12 1336.11 L1858.21 1312.41 L1858.21 1342.76 L1853.67 1342.76 L1853.67 1308.2 Z" fill="#000000" fill-rule="nonzero" fill-opacity="1" /><path clip-path="url(#clip450)" d="M1899.25 1312.04 L1899.25 1325.02 L1905.13 1325.02 Q1908.39 1325.02 1910.17 1323.33 Q1911.96 1321.64 1911.96 1318.52 Q1911.96 1315.42 1910.17 1313.73 Q1908.39 1312.04 1905.13 1312.04 L1899.25 1312.04 M1894.57 1308.2 L1905.13 1308.2 Q1910.94 1308.2 1913.9 1310.83 Q1916.89 1313.45 1916.89 1318.52 Q1916.89 1323.64 1913.9 1326.25 Q1910.94 1328.87 1905.13 1328.87 L1899.25 1328.87 L1899.25 1342.76 L1894.57 1342.76 L1894.57 1308.2 Z" fill="#000000" fill-rule="nonzero" fill-opacity="1" /><path clip-path="url(#clip450)" d="M1949.04 1310.86 L1949.04 1315.79 Q1946.68 1313.59 1943.99 1312.5 Q1941.33 1311.41 1938.32 1311.41 Q1932.39 1311.41 1929.25 1315.05 Q1926.1 1318.66 1926.1 1325.51 Q1926.1 1332.34 1929.25 1335.97 Q1932.39 1339.58 1938.32 1339.58 Q1941.33 1339.58 1943.99 1338.5 Q1946.68 1337.41 1949.04 1335.21 L1949.04 1340.09 Q1946.58 1341.76 1943.83 1342.59 Q1941.1 1343.43 1938.04 1343.43 Q1930.2 1343.43 1925.68 1338.63 Q1921.17 1333.82 1921.17 1325.51 Q1921.17 1317.18 1925.68 1312.39 Q1930.2 1307.57 1938.04 1307.57 Q1941.14 1307.57 1943.88 1308.4 Q1946.63 1309.21 1949.04 1310.86 Z" fill="#000000" fill-rule="nonzero" fill-opacity="1" /><path clip-path="url(#clip450)" d="M1957.16 1336.88 L1962.05 1336.88 L1962.05 1342.76 L1957.16 1342.76 L1957.16 1336.88 M1957.16 1318.24 L1962.05 1318.24 L1962.05 1324.12 L1957.16 1324.12 L1957.16 1318.24 Z" fill="#000000" fill-rule="nonzero" fill-opacity="1" /><path clip-path="url(#clip450)" d="M1991.98 1326.25 L1991.98 1338.91 L1999.48 1338.91 Q2003.25 1338.91 2005.06 1337.36 Q2006.89 1335.79 2006.89 1332.57 Q2006.89 1329.33 2005.06 1327.8 Q2003.25 1326.25 1999.48 1326.25 L1991.98 1326.25 M1991.98 1312.04 L1991.98 1322.45 L1998.9 1322.45 Q2002.33 1322.45 2003.99 1321.18 Q2005.68 1319.89 2005.68 1317.25 Q2005.68 1314.63 2003.99 1313.33 Q2002.33 1312.04 1998.9 1312.04 L1991.98 1312.04 M1987.3 1308.2 L1999.25 1308.2 Q2004.59 1308.2 2007.49 1310.42 Q2010.38 1312.64 2010.38 1316.74 Q2010.38 1319.91 2008.9 1321.78 Q2007.42 1323.66 2004.55 1324.12 Q2008 1324.86 2009.89 1327.22 Q2011.82 1329.56 2011.82 1333.08 Q2011.82 1337.71 2008.67 1340.23 Q2005.52 1342.76 1999.71 1342.76 L1987.3 1342.76 L1987.3 1308.2 Z" fill="#000000" fill-rule="nonzero" fill-opacity="1" /><path clip-path="url(#clip450)" d="M2041.82 1328.73 L2041.82 1330.81 L2022.23 1330.81 Q2022.51 1335.21 2024.87 1337.52 Q2027.26 1339.82 2031.49 1339.82 Q2033.95 1339.82 2036.24 1339.21 Q2038.55 1338.61 2040.82 1337.41 L2040.82 1341.44 Q2038.53 1342.41 2036.12 1342.92 Q2033.71 1343.43 2031.24 1343.43 Q2025.03 1343.43 2021.4 1339.82 Q2017.79 1336.2 2017.79 1330.05 Q2017.79 1323.68 2021.21 1319.95 Q2024.66 1316.2 2030.5 1316.2 Q2035.73 1316.2 2038.76 1319.58 Q2041.82 1322.94 2041.82 1328.73 M2037.56 1327.48 Q2037.51 1323.98 2035.59 1321.9 Q2033.69 1319.82 2030.54 1319.82 Q2026.98 1319.82 2024.82 1321.83 Q2022.7 1323.84 2022.37 1327.5 L2037.56 1327.48 Z" fill="#000000" fill-rule="nonzero" fill-opacity="1" /><path clip-path="url(#clip450)" d="M2070.36 1327.11 L2070.36 1342.76 L2066.1 1342.76 L2066.1 1327.25 Q2066.1 1323.57 2064.66 1321.74 Q2063.23 1319.91 2060.36 1319.91 Q2056.91 1319.91 2054.92 1322.11 Q2052.93 1324.31 2052.93 1328.1 L2052.93 1342.76 L2048.64 1342.76 L2048.64 1306.74 L2052.93 1306.74 L2052.93 1320.86 Q2054.45 1318.52 2056.51 1317.36 Q2058.6 1316.2 2061.31 1316.2 Q2065.77 1316.2 2068.07 1318.98 Q2070.36 1321.74 2070.36 1327.11 Z" fill="#000000" fill-rule="nonzero" fill-opacity="1" /><path clip-path="url(#clip450)" d="M2090.63 1329.72 Q2085.47 1329.72 2083.48 1330.9 Q2081.49 1332.08 2081.49 1334.93 Q2081.49 1337.2 2082.97 1338.54 Q2084.48 1339.86 2087.05 1339.86 Q2090.59 1339.86 2092.72 1337.36 Q2094.87 1334.84 2094.87 1330.67 L2094.87 1329.72 L2090.63 1329.72 M2099.13 1327.96 L2099.13 1342.76 L2094.87 1342.76 L2094.87 1338.82 Q2093.41 1341.18 2091.24 1342.32 Q2089.06 1343.43 2085.91 1343.43 Q2081.93 1343.43 2079.57 1341.2 Q2077.23 1338.96 2077.23 1335.21 Q2077.23 1330.83 2080.15 1328.61 Q2083.09 1326.39 2088.9 1326.39 L2094.87 1326.39 L2094.87 1325.97 Q2094.87 1323.03 2092.93 1321.44 Q2091.01 1319.82 2087.51 1319.82 Q2085.29 1319.82 2083.18 1320.35 Q2081.07 1320.88 2079.13 1321.95 L2079.13 1318.01 Q2081.47 1317.11 2083.67 1316.67 Q2085.87 1316.2 2087.95 1316.2 Q2093.57 1316.2 2096.35 1319.12 Q2099.13 1322.04 2099.13 1327.96 Z" fill="#000000" fill-rule="nonzero" fill-opacity="1" /><path clip-path="url(#clip450)" d="M2104.85 1316.83 L2109.36 1316.83 L2117.46 1338.59 L2125.57 1316.83 L2130.08 1316.83 L2120.36 1342.76 L2114.57 1342.76 L2104.85 1316.83 Z" fill="#000000" fill-rule="nonzero" fill-opacity="1" /><path clip-path="url(#clip450)" d="M2135.96 1316.83 L2140.22 1316.83 L2140.22 1342.76 L2135.96 1342.76 L2135.96 1316.83 M2135.96 1306.74 L2140.22 1306.74 L2140.22 1312.13 L2135.96 1312.13 L2135.96 1306.74 Z" fill="#000000" fill-rule="nonzero" fill-opacity="1" /><path clip-path="url(#clip450)" d="M2159.18 1319.82 Q2155.75 1319.82 2153.76 1322.5 Q2151.77 1325.16 2151.77 1329.82 Q2151.77 1334.47 2153.74 1337.15 Q2155.73 1339.82 2159.18 1339.82 Q2162.58 1339.82 2164.57 1337.13 Q2166.56 1334.45 2166.56 1329.82 Q2166.56 1325.21 2164.57 1322.52 Q2162.58 1319.82 2159.18 1319.82 M2159.18 1316.2 Q2164.73 1316.2 2167.9 1319.82 Q2171.07 1323.43 2171.07 1329.82 Q2171.07 1336.18 2167.9 1339.82 Q2164.73 1343.43 2159.18 1343.43 Q2153.6 1343.43 2150.43 1339.82 Q2147.28 1336.18 2147.28 1329.82 Q2147.28 1323.43 2150.43 1319.82 Q2153.6 1316.2 2159.18 1316.2 Z" fill="#000000" fill-rule="nonzero" fill-opacity="1" /><path clip-path="url(#clip450)" d="M2177.69 1332.52 L2177.69 1316.83 L2181.95 1316.83 L2181.95 1332.36 Q2181.95 1336.04 2183.39 1337.89 Q2184.82 1339.72 2187.69 1339.72 Q2191.14 1339.72 2193.13 1337.52 Q2195.15 1335.32 2195.15 1331.53 L2195.15 1316.83 L2199.41 1316.83 L2199.41 1342.76 L2195.15 1342.76 L2195.15 1338.77 Q2193.6 1341.13 2191.54 1342.29 Q2189.5 1343.43 2186.79 1343.43 Q2182.32 1343.43 2180.01 1340.65 Q2177.69 1337.87 2177.69 1332.52 M2188.41 1316.2 L2188.41 1316.2 Z" fill="#000000" fill-rule="nonzero" fill-opacity="1" /><path clip-path="url(#clip450)" d="M2223.2 1320.81 Q2222.49 1320.39 2221.63 1320.21 Q2220.8 1320 2219.78 1320 Q2216.17 1320 2214.22 1322.36 Q2212.3 1324.7 2212.3 1329.1 L2212.3 1342.76 L2208.02 1342.76 L2208.02 1316.83 L2212.3 1316.83 L2212.3 1320.86 Q2213.64 1318.5 2215.8 1317.36 Q2217.95 1316.2 2221.03 1316.2 Q2221.47 1316.2 2222 1316.27 Q2222.53 1316.32 2223.18 1316.44 L2223.2 1320.81 Z" fill="#000000" fill-rule="nonzero" fill-opacity="1" /><path clip-path="url(#clip450)" d="M2239.45 1329.72 Q2234.29 1329.72 2232.3 1330.9 Q2230.31 1332.08 2230.31 1334.93 Q2230.31 1337.2 2231.79 1338.54 Q2233.3 1339.86 2235.87 1339.86 Q2239.41 1339.86 2241.54 1337.36 Q2243.69 1334.84 2243.69 1330.67 L2243.69 1329.72 L2239.45 1329.72 M2247.95 1327.96 L2247.95 1342.76 L2243.69 1342.76 L2243.69 1338.82 Q2242.23 1341.18 2240.06 1342.32 Q2237.88 1343.43 2234.73 1343.43 Q2230.75 1343.43 2228.39 1341.2 Q2226.05 1338.96 2226.05 1335.21 Q2226.05 1330.83 2228.97 1328.61 Q2231.91 1326.39 2237.72 1326.39 L2243.69 1326.39 L2243.69 1325.97 Q2243.69 1323.03 2241.75 1321.44 Q2239.82 1319.82 2236.33 1319.82 Q2234.11 1319.82 2232 1320.35 Q2229.89 1320.88 2227.95 1321.95 L2227.95 1318.01 Q2230.29 1317.11 2232.49 1316.67 Q2234.68 1316.2 2236.77 1316.2 Q2242.39 1316.2 2245.17 1319.12 Q2247.95 1322.04 2247.95 1327.96 Z" fill="#000000" fill-rule="nonzero" fill-opacity="1" /><path clip-path="url(#clip450)" d="M2256.72 1306.74 L2260.98 1306.74 L2260.98 1342.76 L2256.72 1342.76 L2256.72 1306.74 Z" fill="#000000" fill-rule="nonzero" fill-opacity="1" /></svg>
