<?xml version="1.0" encoding="utf-8"?>
<svg xmlns="http://www.w3.org/2000/svg" xmlns:xlink="http://www.w3.org/1999/xlink" width="600" height="400" viewBox="0 0 2400 1600">
<defs>
  <clipPath id="clip090">
    <rect x="0" y="0" width="2400" height="1600"/>
  </clipPath>
</defs>
<path clip-path="url(#clip090)" d="M0 1600 L2400 1600 L2400 0 L0 0  Z" fill="#ffffff" fill-rule="evenodd" fill-opacity="1"/>
<defs>
  <clipPath id="clip091">
    <rect x="480" y="0" width="1681" height="1600"/>
  </clipPath>
</defs>
<path clip-path="url(#clip090)" d="M222.69 1423.18 L2352.76 1423.18 L2352.76 47.2441 L222.69 47.2441  Z" fill="#ffffff" fill-rule="evenodd" fill-opacity="1"/>
<defs>
  <clipPath id="clip092">
    <rect x="222" y="47" width="2131" height="1377"/>
  </clipPath>
</defs>
<polyline clip-path="url(#clip092)" style="stroke:#000000; stroke-linecap:round; stroke-linejoin:round; stroke-width:2; stroke-opacity:0.1; fill:none" points="263.295,1423.18 263.295,47.2441 "/>
<polyline clip-path="url(#clip092)" style="stroke:#000000; stroke-linecap:round; stroke-linejoin:round; stroke-width:2; stroke-opacity:0.1; fill:none" points="778.551,1423.18 778.551,47.2441 "/>
<polyline clip-path="url(#clip092)" style="stroke:#000000; stroke-linecap:round; stroke-linejoin:round; stroke-width:2; stroke-opacity:0.1; fill:none" points="1299.53,1423.18 1299.53,47.2441 "/>
<polyline clip-path="url(#clip092)" style="stroke:#000000; stroke-linecap:round; stroke-linejoin:round; stroke-width:2; stroke-opacity:0.1; fill:none" points="1826.24,1423.18 1826.24,47.2441 "/>
<polyline clip-path="url(#clip092)" style="stroke:#000000; stroke-linecap:round; stroke-linejoin:round; stroke-width:2; stroke-opacity:0.05; fill:none" points="366.346,1423.18 366.346,47.2441 "/>
<polyline clip-path="url(#clip092)" style="stroke:#000000; stroke-linecap:round; stroke-linejoin:round; stroke-width:2; stroke-opacity:0.05; fill:none" points="469.397,1423.18 469.397,47.2441 "/>
<polyline clip-path="url(#clip092)" style="stroke:#000000; stroke-linecap:round; stroke-linejoin:round; stroke-width:2; stroke-opacity:0.05; fill:none" points="572.449,1423.18 572.449,47.2441 "/>
<polyline clip-path="url(#clip092)" style="stroke:#000000; stroke-linecap:round; stroke-linejoin:round; stroke-width:2; stroke-opacity:0.05; fill:none" points="675.5,1423.18 675.5,47.2441 "/>
<polyline clip-path="url(#clip092)" style="stroke:#000000; stroke-linecap:round; stroke-linejoin:round; stroke-width:2; stroke-opacity:0.05; fill:none" points="882.747,1423.18 882.747,47.2441 "/>
<polyline clip-path="url(#clip092)" style="stroke:#000000; stroke-linecap:round; stroke-linejoin:round; stroke-width:2; stroke-opacity:0.05; fill:none" points="986.943,1423.18 986.943,47.2441 "/>
<polyline clip-path="url(#clip092)" style="stroke:#000000; stroke-linecap:round; stroke-linejoin:round; stroke-width:2; stroke-opacity:0.05; fill:none" points="1091.14,1423.18 1091.14,47.2441 "/>
<polyline clip-path="url(#clip092)" style="stroke:#000000; stroke-linecap:round; stroke-linejoin:round; stroke-width:2; stroke-opacity:0.05; fill:none" points="1195.33,1423.18 1195.33,47.2441 "/>
<polyline clip-path="url(#clip092)" style="stroke:#000000; stroke-linecap:round; stroke-linejoin:round; stroke-width:2; stroke-opacity:0.05; fill:none" points="1404.87,1423.18 1404.87,47.2441 "/>
<polyline clip-path="url(#clip092)" style="stroke:#000000; stroke-linecap:round; stroke-linejoin:round; stroke-width:2; stroke-opacity:0.05; fill:none" points="1510.21,1423.18 1510.21,47.2441 "/>
<polyline clip-path="url(#clip092)" style="stroke:#000000; stroke-linecap:round; stroke-linejoin:round; stroke-width:2; stroke-opacity:0.05; fill:none" points="1615.55,1423.18 1615.55,47.2441 "/>
<polyline clip-path="url(#clip092)" style="stroke:#000000; stroke-linecap:round; stroke-linejoin:round; stroke-width:2; stroke-opacity:0.05; fill:none" points="1720.9,1423.18 1720.9,47.2441 "/>
<polyline clip-path="url(#clip092)" style="stroke:#000000; stroke-linecap:round; stroke-linejoin:round; stroke-width:2; stroke-opacity:0.05; fill:none" points="1932.75,1423.18 1932.75,47.2441 "/>
<polyline clip-path="url(#clip092)" style="stroke:#000000; stroke-linecap:round; stroke-linejoin:round; stroke-width:2; stroke-opacity:0.05; fill:none" points="2039.26,1423.18 2039.26,47.2441 "/>
<polyline clip-path="url(#clip092)" style="stroke:#000000; stroke-linecap:round; stroke-linejoin:round; stroke-width:2; stroke-opacity:0.05; fill:none" points="2145.77,1423.18 2145.77,47.2441 "/>
<polyline clip-path="url(#clip092)" style="stroke:#000000; stroke-linecap:round; stroke-linejoin:round; stroke-width:2; stroke-opacity:0.05; fill:none" points="2252.28,1423.18 2252.28,47.2441 "/>
<polyline clip-path="url(#clip090)" style="stroke:#000000; stroke-linecap:round; stroke-linejoin:round; stroke-width:4; stroke-opacity:1; fill:none" points="222.69,1423.18 2352.76,1423.18 "/>
<polyline clip-path="url(#clip090)" style="stroke:#000000; stroke-linecap:round; stroke-linejoin:round; stroke-width:4; stroke-opacity:1; fill:none" points="263.295,1423.18 263.295,1404.28 "/>
<polyline clip-path="url(#clip090)" style="stroke:#000000; stroke-linecap:round; stroke-linejoin:round; stroke-width:4; stroke-opacity:1; fill:none" points="778.551,1423.18 778.551,1404.28 "/>
<polyline clip-path="url(#clip090)" style="stroke:#000000; stroke-linecap:round; stroke-linejoin:round; stroke-width:4; stroke-opacity:1; fill:none" points="1299.53,1423.18 1299.53,1404.28 "/>
<polyline clip-path="url(#clip090)" style="stroke:#000000; stroke-linecap:round; stroke-linejoin:round; stroke-width:4; stroke-opacity:1; fill:none" points="1826.24,1423.18 1826.24,1404.28 "/>
<polyline clip-path="url(#clip090)" style="stroke:#000000; stroke-linecap:round; stroke-linejoin:round; stroke-width:4; stroke-opacity:1; fill:none" points="366.346,1423.18 366.346,1413.73 "/>
<polyline clip-path="url(#clip090)" style="stroke:#000000; stroke-linecap:round; stroke-linejoin:round; stroke-width:4; stroke-opacity:1; fill:none" points="469.397,1423.18 469.397,1413.73 "/>
<polyline clip-path="url(#clip090)" style="stroke:#000000; stroke-linecap:round; stroke-linejoin:round; stroke-width:4; stroke-opacity:1; fill:none" points="572.449,1423.18 572.449,1413.73 "/>
<polyline clip-path="url(#clip090)" style="stroke:#000000; stroke-linecap:round; stroke-linejoin:round; stroke-width:4; stroke-opacity:1; fill:none" points="675.5,1423.18 675.5,1413.73 "/>
<polyline clip-path="url(#clip090)" style="stroke:#000000; stroke-linecap:round; stroke-linejoin:round; stroke-width:4; stroke-opacity:1; fill:none" points="882.747,1423.18 882.747,1413.73 "/>
<polyline clip-path="url(#clip090)" style="stroke:#000000; stroke-linecap:round; stroke-linejoin:round; stroke-width:4; stroke-opacity:1; fill:none" points="986.943,1423.18 986.943,1413.73 "/>
<polyline clip-path="url(#clip090)" style="stroke:#000000; stroke-linecap:round; stroke-linejoin:round; stroke-width:4; stroke-opacity:1; fill:none" points="1091.14,1423.18 1091.14,1413.73 "/>
<polyline clip-path="url(#clip090)" style="stroke:#000000; stroke-linecap:round; stroke-linejoin:round; stroke-width:4; stroke-opacity:1; fill:none" points="1195.33,1423.18 1195.33,1413.73 "/>
<polyline clip-path="url(#clip090)" style="stroke:#000000; stroke-linecap:round; stroke-linejoin:round; stroke-width:4; stroke-opacity:1; fill:none" points="1404.87,1423.18 1404.87,1413.73 "/>
<polyline clip-path="url(#clip090)" style="stroke:#000000; stroke-linecap:round; stroke-linejoin:round; stroke-width:4; stroke-opacity:1; fill:none" points="1510.21,1423.18 1510.21,1413.73 "/>
<polyline clip-path="url(#clip090)" style="stroke:#000000; stroke-linecap:round; stroke-linejoin:round; stroke-width:4; stroke-opacity:1; fill:none" points="1615.55,1423.18 1615.55,1413.73 "/>
<polyline clip-path="url(#clip090)" style="stroke:#000000; stroke-linecap:round; stroke-linejoin:round; stroke-width:4; stroke-opacity:1; fill:none" points="1720.9,1423.18 1720.9,1413.73 "/>
<polyline clip-path="url(#clip090)" style="stroke:#000000; stroke-linecap:round; stroke-linejoin:round; stroke-width:4; stroke-opacity:1; fill:none" points="1932.75,1423.18 1932.75,1413.73 "/>
<polyline clip-path="url(#clip090)" style="stroke:#000000; stroke-linecap:round; stroke-linejoin:round; stroke-width:4; stroke-opacity:1; fill:none" points="2039.26,1423.18 2039.26,1413.73 "/>
<polyline clip-path="url(#clip090)" style="stroke:#000000; stroke-linecap:round; stroke-linejoin:round; stroke-width:4; stroke-opacity:1; fill:none" points="2145.77,1423.18 2145.77,1413.73 "/>
<polyline clip-path="url(#clip090)" style="stroke:#000000; stroke-linecap:round; stroke-linejoin:round; stroke-width:4; stroke-opacity:1; fill:none" points="2252.28,1423.18 2252.28,1413.73 "/>
<path clip-path="url(#clip090)" d="M135.09 1481.64 L151.409 1481.64 L151.409 1485.58 L129.465 1485.58 L129.465 1481.64 Q132.127 1478.89 136.71 1474.26 Q141.317 1469.61 142.497 1468.27 Q144.743 1465.74 145.622 1464.01 Q146.525 1462.25 146.525 1460.56 Q146.525 1457.8 144.581 1456.07 Q142.659 1454.33 139.558 1454.33 Q137.358 1454.33 134.905 1455.09 Q132.474 1455.86 129.696 1457.41 L129.696 1452.69 Q132.521 1451.55 134.974 1450.97 Q137.428 1450.39 139.465 1450.39 Q144.835 1450.39 148.03 1453.08 Q151.224 1455.77 151.224 1460.26 Q151.224 1462.39 150.414 1464.31 Q149.627 1466.2 147.52 1468.8 Q146.942 1469.47 143.84 1472.69 Q140.738 1475.88 135.09 1481.64 Z" fill="#000000" fill-rule="nonzero" fill-opacity="1" /><path clip-path="url(#clip090)" d="M171.224 1454.1 Q167.613 1454.1 165.784 1457.66 Q163.979 1461.2 163.979 1468.33 Q163.979 1475.44 165.784 1479.01 Q167.613 1482.55 171.224 1482.55 Q174.858 1482.55 176.664 1479.01 Q178.493 1475.44 178.493 1468.33 Q178.493 1461.2 176.664 1457.66 Q174.858 1454.1 171.224 1454.1 M171.224 1450.39 Q177.034 1450.39 180.09 1455 Q183.168 1459.58 183.168 1468.33 Q183.168 1477.06 180.09 1481.67 Q177.034 1486.25 171.224 1486.25 Q165.414 1486.25 162.335 1481.67 Q159.28 1477.06 159.28 1468.33 Q159.28 1459.58 162.335 1455 Q165.414 1450.39 171.224 1450.39 Z" fill="#000000" fill-rule="nonzero" fill-opacity="1" /><path clip-path="url(#clip090)" d="M195.414 1481.64 L211.733 1481.64 L211.733 1485.58 L189.789 1485.58 L189.789 1481.64 Q192.451 1478.89 197.034 1474.26 Q201.641 1469.61 202.821 1468.27 Q205.066 1465.74 205.946 1464.01 Q206.849 1462.25 206.849 1460.56 Q206.849 1457.8 204.904 1456.07 Q202.983 1454.33 199.881 1454.33 Q197.682 1454.33 195.229 1455.09 Q192.798 1455.86 190.02 1457.41 L190.02 1452.69 Q192.844 1451.55 195.298 1450.97 Q197.752 1450.39 199.789 1450.39 Q205.159 1450.39 208.353 1453.08 Q211.548 1455.77 211.548 1460.26 Q211.548 1462.39 210.738 1464.31 Q209.951 1466.2 207.844 1468.8 Q207.266 1469.47 204.164 1472.69 Q201.062 1475.88 195.414 1481.64 Z" fill="#000000" fill-rule="nonzero" fill-opacity="1" /><path clip-path="url(#clip090)" d="M222.358 1481.64 L229.997 1481.64 L229.997 1455.28 L221.687 1456.95 L221.687 1452.69 L229.951 1451.02 L234.626 1451.02 L234.626 1481.64 L242.265 1481.64 L242.265 1485.58 L222.358 1485.58 L222.358 1481.64 Z" fill="#000000" fill-rule="nonzero" fill-opacity="1" /><path clip-path="url(#clip090)" d="M248.955 1470.7 L261.432 1470.7 L261.432 1474.49 L248.955 1474.49 L248.955 1470.7 Z" fill="#000000" fill-rule="nonzero" fill-opacity="1" /><path clip-path="url(#clip090)" d="M278.816 1454.1 Q275.205 1454.1 273.376 1457.66 Q271.571 1461.2 271.571 1468.33 Q271.571 1475.44 273.376 1479.01 Q275.205 1482.55 278.816 1482.55 Q282.45 1482.55 284.256 1479.01 Q286.085 1475.44 286.085 1468.33 Q286.085 1461.2 284.256 1457.66 Q282.45 1454.1 278.816 1454.1 M278.816 1450.39 Q284.626 1450.39 287.682 1455 Q290.76 1459.58 290.76 1468.33 Q290.76 1477.06 287.682 1481.67 Q284.626 1486.25 278.816 1486.25 Q273.006 1486.25 269.927 1481.67 Q266.872 1477.06 266.872 1468.33 Q266.872 1459.58 269.927 1455 Q273.006 1450.39 278.816 1450.39 Z" fill="#000000" fill-rule="nonzero" fill-opacity="1" /><path clip-path="url(#clip090)" d="M299.788 1481.64 L307.427 1481.64 L307.427 1455.28 L299.117 1456.95 L299.117 1452.69 L307.381 1451.02 L312.057 1451.02 L312.057 1481.64 L319.695 1481.64 L319.695 1485.58 L299.788 1485.58 L299.788 1481.64 Z" fill="#000000" fill-rule="nonzero" fill-opacity="1" /><path clip-path="url(#clip090)" d="M326.385 1470.7 L338.862 1470.7 L338.862 1474.49 L326.385 1474.49 L326.385 1470.7 Z" fill="#000000" fill-rule="nonzero" fill-opacity="1" /><path clip-path="url(#clip090)" d="M356.246 1454.1 Q352.635 1454.1 350.806 1457.66 Q349.001 1461.2 349.001 1468.33 Q349.001 1475.44 350.806 1479.01 Q352.635 1482.55 356.246 1482.55 Q359.88 1482.55 361.686 1479.01 Q363.515 1475.44 363.515 1468.33 Q363.515 1461.2 361.686 1457.66 Q359.88 1454.1 356.246 1454.1 M356.246 1450.39 Q362.056 1450.39 365.112 1455 Q368.191 1459.58 368.191 1468.33 Q368.191 1477.06 365.112 1481.67 Q362.056 1486.25 356.246 1486.25 Q350.436 1486.25 347.357 1481.67 Q344.302 1477.06 344.302 1468.33 Q344.302 1459.58 347.357 1455 Q350.436 1450.39 356.246 1450.39 Z" fill="#000000" fill-rule="nonzero" fill-opacity="1" /><path clip-path="url(#clip090)" d="M377.218 1481.64 L384.857 1481.64 L384.857 1455.28 L376.547 1456.95 L376.547 1452.69 L384.811 1451.02 L389.487 1451.02 L389.487 1481.64 L397.126 1481.64 L397.126 1485.58 L377.218 1485.58 L377.218 1481.64 Z" fill="#000000" fill-rule="nonzero" fill-opacity="1" /><path clip-path="url(#clip090)" d="M650.345 1481.64 L666.665 1481.64 L666.665 1485.58 L644.72 1485.58 L644.72 1481.64 Q647.382 1478.89 651.966 1474.26 Q656.572 1469.61 657.753 1468.27 Q659.998 1465.74 660.878 1464.01 Q661.78 1462.25 661.78 1460.56 Q661.78 1457.8 659.836 1456.07 Q657.915 1454.33 654.813 1454.33 Q652.614 1454.33 650.16 1455.09 Q647.73 1455.86 644.952 1457.41 L644.952 1452.69 Q647.776 1451.55 650.23 1450.97 Q652.683 1450.39 654.72 1450.39 Q660.091 1450.39 663.285 1453.08 Q666.479 1455.77 666.479 1460.26 Q666.479 1462.39 665.669 1464.31 Q664.882 1466.2 662.776 1468.8 Q662.197 1469.47 659.095 1472.69 Q655.993 1475.88 650.345 1481.64 Z" fill="#000000" fill-rule="nonzero" fill-opacity="1" /><path clip-path="url(#clip090)" d="M686.479 1454.1 Q682.868 1454.1 681.04 1457.66 Q679.234 1461.2 679.234 1468.33 Q679.234 1475.44 681.04 1479.01 Q682.868 1482.55 686.479 1482.55 Q690.114 1482.55 691.919 1479.01 Q693.748 1475.44 693.748 1468.33 Q693.748 1461.2 691.919 1457.66 Q690.114 1454.1 686.479 1454.1 M686.479 1450.39 Q692.29 1450.39 695.345 1455 Q698.424 1459.58 698.424 1468.33 Q698.424 1477.06 695.345 1481.67 Q692.29 1486.25 686.479 1486.25 Q680.669 1486.25 677.591 1481.67 Q674.535 1477.06 674.535 1468.33 Q674.535 1459.58 677.591 1455 Q680.669 1450.39 686.479 1450.39 Z" fill="#000000" fill-rule="nonzero" fill-opacity="1" /><path clip-path="url(#clip090)" d="M710.669 1481.64 L726.988 1481.64 L726.988 1485.58 L705.044 1485.58 L705.044 1481.64 Q707.706 1478.89 712.289 1474.26 Q716.896 1469.61 718.076 1468.27 Q720.322 1465.74 721.201 1464.01 Q722.104 1462.25 722.104 1460.56 Q722.104 1457.8 720.16 1456.07 Q718.238 1454.33 715.137 1454.33 Q712.938 1454.33 710.484 1455.09 Q708.053 1455.86 705.276 1457.41 L705.276 1452.69 Q708.1 1451.55 710.553 1450.97 Q713.007 1450.39 715.044 1450.39 Q720.414 1450.39 723.609 1453.08 Q726.803 1455.77 726.803 1460.26 Q726.803 1462.39 725.993 1464.31 Q725.206 1466.2 723.1 1468.8 Q722.521 1469.47 719.419 1472.69 Q716.317 1475.88 710.669 1481.64 Z" fill="#000000" fill-rule="nonzero" fill-opacity="1" /><path clip-path="url(#clip090)" d="M737.613 1481.64 L745.252 1481.64 L745.252 1455.28 L736.942 1456.95 L736.942 1452.69 L745.206 1451.02 L749.882 1451.02 L749.882 1481.64 L757.521 1481.64 L757.521 1485.58 L737.613 1485.58 L737.613 1481.64 Z" fill="#000000" fill-rule="nonzero" fill-opacity="1" /><path clip-path="url(#clip090)" d="M764.21 1470.7 L776.687 1470.7 L776.687 1474.49 L764.21 1474.49 L764.21 1470.7 Z" fill="#000000" fill-rule="nonzero" fill-opacity="1" /><path clip-path="url(#clip090)" d="M794.071 1454.1 Q790.46 1454.1 788.632 1457.66 Q786.826 1461.2 786.826 1468.33 Q786.826 1475.44 788.632 1479.01 Q790.46 1482.55 794.071 1482.55 Q797.706 1482.55 799.511 1479.01 Q801.34 1475.44 801.34 1468.33 Q801.34 1461.2 799.511 1457.66 Q797.706 1454.1 794.071 1454.1 M794.071 1450.39 Q799.882 1450.39 802.937 1455 Q806.016 1459.58 806.016 1468.33 Q806.016 1477.06 802.937 1481.67 Q799.882 1486.25 794.071 1486.25 Q788.261 1486.25 785.183 1481.67 Q782.127 1477.06 782.127 1468.33 Q782.127 1459.58 785.183 1455 Q788.261 1450.39 794.071 1450.39 Z" fill="#000000" fill-rule="nonzero" fill-opacity="1" /><path clip-path="url(#clip090)" d="M827.08 1455.09 L815.275 1473.54 L827.08 1473.54 L827.08 1455.09 M825.854 1451.02 L831.733 1451.02 L831.733 1473.54 L836.664 1473.54 L836.664 1477.43 L831.733 1477.43 L831.733 1485.58 L827.08 1485.58 L827.08 1477.43 L811.479 1477.43 L811.479 1472.92 L825.854 1451.02 Z" fill="#000000" fill-rule="nonzero" fill-opacity="1" /><path clip-path="url(#clip090)" d="M841.641 1470.7 L854.117 1470.7 L854.117 1474.49 L841.641 1474.49 L841.641 1470.7 Z" fill="#000000" fill-rule="nonzero" fill-opacity="1" /><path clip-path="url(#clip090)" d="M871.502 1454.1 Q867.89 1454.1 866.062 1457.66 Q864.256 1461.2 864.256 1468.33 Q864.256 1475.44 866.062 1479.01 Q867.89 1482.55 871.502 1482.55 Q875.136 1482.55 876.941 1479.01 Q878.77 1475.44 878.77 1468.33 Q878.77 1461.2 876.941 1457.66 Q875.136 1454.1 871.502 1454.1 M871.502 1450.39 Q877.312 1450.39 880.367 1455 Q883.446 1459.58 883.446 1468.33 Q883.446 1477.06 880.367 1481.67 Q877.312 1486.25 871.502 1486.25 Q865.691 1486.25 862.613 1481.67 Q859.557 1477.06 859.557 1468.33 Q859.557 1459.58 862.613 1455 Q865.691 1450.39 871.502 1450.39 Z" fill="#000000" fill-rule="nonzero" fill-opacity="1" /><path clip-path="url(#clip090)" d="M892.474 1481.64 L900.112 1481.64 L900.112 1455.28 L891.802 1456.95 L891.802 1452.69 L900.066 1451.02 L904.742 1451.02 L904.742 1481.64 L912.381 1481.64 L912.381 1485.58 L892.474 1485.58 L892.474 1481.64 Z" fill="#000000" fill-rule="nonzero" fill-opacity="1" /><path clip-path="url(#clip090)" d="M1171.33 1481.64 L1187.65 1481.64 L1187.65 1485.58 L1165.7 1485.58 L1165.7 1481.64 Q1168.36 1478.89 1172.95 1474.26 Q1177.55 1469.61 1178.73 1468.27 Q1180.98 1465.74 1181.86 1464.01 Q1182.76 1462.25 1182.76 1460.56 Q1182.76 1457.8 1180.82 1456.07 Q1178.9 1454.33 1175.79 1454.33 Q1173.59 1454.33 1171.14 1455.09 Q1168.71 1455.86 1165.93 1457.41 L1165.93 1452.69 Q1168.76 1451.55 1171.21 1450.97 Q1173.66 1450.39 1175.7 1450.39 Q1181.07 1450.39 1184.27 1453.08 Q1187.46 1455.77 1187.46 1460.26 Q1187.46 1462.39 1186.65 1464.31 Q1185.86 1466.2 1183.76 1468.8 Q1183.18 1469.47 1180.08 1472.69 Q1176.97 1475.88 1171.33 1481.64 Z" fill="#000000" fill-rule="nonzero" fill-opacity="1" /><path clip-path="url(#clip090)" d="M1207.46 1454.1 Q1203.85 1454.1 1202.02 1457.66 Q1200.21 1461.2 1200.21 1468.33 Q1200.21 1475.44 1202.02 1479.01 Q1203.85 1482.55 1207.46 1482.55 Q1211.09 1482.55 1212.9 1479.01 Q1214.73 1475.44 1214.73 1468.33 Q1214.73 1461.2 1212.9 1457.66 Q1211.09 1454.1 1207.46 1454.1 M1207.46 1450.39 Q1213.27 1450.39 1216.33 1455 Q1219.4 1459.58 1219.4 1468.33 Q1219.4 1477.06 1216.33 1481.67 Q1213.27 1486.25 1207.46 1486.25 Q1201.65 1486.25 1198.57 1481.67 Q1195.52 1477.06 1195.52 1468.33 Q1195.52 1459.58 1198.57 1455 Q1201.65 1450.39 1207.46 1450.39 Z" fill="#000000" fill-rule="nonzero" fill-opacity="1" /><path clip-path="url(#clip090)" d="M1231.65 1481.64 L1247.97 1481.64 L1247.97 1485.58 L1226.02 1485.58 L1226.02 1481.64 Q1228.69 1478.89 1233.27 1474.26 Q1237.88 1469.61 1239.06 1468.27 Q1241.3 1465.74 1242.18 1464.01 Q1243.08 1462.25 1243.08 1460.56 Q1243.08 1457.8 1241.14 1456.07 Q1239.22 1454.33 1236.12 1454.33 Q1233.92 1454.33 1231.46 1455.09 Q1229.03 1455.86 1226.26 1457.41 L1226.26 1452.69 Q1229.08 1451.55 1231.53 1450.97 Q1233.99 1450.39 1236.02 1450.39 Q1241.39 1450.39 1244.59 1453.08 Q1247.78 1455.77 1247.78 1460.26 Q1247.78 1462.39 1246.97 1464.31 Q1246.19 1466.2 1244.08 1468.8 Q1243.5 1469.47 1240.4 1472.69 Q1237.3 1475.88 1231.65 1481.64 Z" fill="#000000" fill-rule="nonzero" fill-opacity="1" /><path clip-path="url(#clip090)" d="M1258.59 1481.64 L1266.23 1481.64 L1266.23 1455.28 L1257.92 1456.95 L1257.92 1452.69 L1266.19 1451.02 L1270.86 1451.02 L1270.86 1481.64 L1278.5 1481.64 L1278.5 1485.58 L1258.59 1485.58 L1258.59 1481.64 Z" fill="#000000" fill-rule="nonzero" fill-opacity="1" /><path clip-path="url(#clip090)" d="M1285.19 1470.7 L1297.67 1470.7 L1297.67 1474.49 L1285.19 1474.49 L1285.19 1470.7 Z" fill="#000000" fill-rule="nonzero" fill-opacity="1" /><path clip-path="url(#clip090)" d="M1315.05 1454.1 Q1311.44 1454.1 1309.61 1457.66 Q1307.81 1461.2 1307.81 1468.33 Q1307.81 1475.44 1309.61 1479.01 Q1311.44 1482.55 1315.05 1482.55 Q1318.69 1482.55 1320.49 1479.01 Q1322.32 1475.44 1322.32 1468.33 Q1322.32 1461.2 1320.49 1457.66 Q1318.69 1454.1 1315.05 1454.1 M1315.05 1450.39 Q1320.86 1450.39 1323.92 1455 Q1327 1459.58 1327 1468.33 Q1327 1477.06 1323.92 1481.67 Q1320.86 1486.25 1315.05 1486.25 Q1309.24 1486.25 1306.16 1481.67 Q1303.11 1477.06 1303.11 1468.33 Q1303.11 1459.58 1306.16 1455 Q1309.24 1450.39 1315.05 1450.39 Z" fill="#000000" fill-rule="nonzero" fill-opacity="1" /><path clip-path="url(#clip090)" d="M1334.03 1451.02 L1356.26 1451.02 L1356.26 1453.01 L1343.71 1485.58 L1338.82 1485.58 L1350.63 1454.96 L1334.03 1454.96 L1334.03 1451.02 Z" fill="#000000" fill-rule="nonzero" fill-opacity="1" /><path clip-path="url(#clip090)" d="M1362.62 1470.7 L1375.1 1470.7 L1375.1 1474.49 L1362.62 1474.49 L1362.62 1470.7 Z" fill="#000000" fill-rule="nonzero" fill-opacity="1" /><path clip-path="url(#clip090)" d="M1392.48 1454.1 Q1388.87 1454.1 1387.04 1457.66 Q1385.24 1461.2 1385.24 1468.33 Q1385.24 1475.44 1387.04 1479.01 Q1388.87 1482.55 1392.48 1482.55 Q1396.12 1482.55 1397.92 1479.01 Q1399.75 1475.44 1399.75 1468.33 Q1399.75 1461.2 1397.92 1457.66 Q1396.12 1454.1 1392.48 1454.1 M1392.48 1450.39 Q1398.29 1450.39 1401.35 1455 Q1404.43 1459.58 1404.43 1468.33 Q1404.43 1477.06 1401.35 1481.67 Q1398.29 1486.25 1392.48 1486.25 Q1386.67 1486.25 1383.59 1481.67 Q1380.54 1477.06 1380.54 1468.33 Q1380.54 1459.58 1383.59 1455 Q1386.67 1450.39 1392.48 1450.39 Z" fill="#000000" fill-rule="nonzero" fill-opacity="1" /><path clip-path="url(#clip090)" d="M1413.45 1481.64 L1421.09 1481.64 L1421.09 1455.28 L1412.78 1456.95 L1412.78 1452.69 L1421.05 1451.02 L1425.72 1451.02 L1425.72 1481.64 L1433.36 1481.64 L1433.36 1485.58 L1413.45 1485.58 L1413.45 1481.64 Z" fill="#000000" fill-rule="nonzero" fill-opacity="1" /><path clip-path="url(#clip090)" d="M1698.03 1481.64 L1714.35 1481.64 L1714.35 1485.58 L1692.41 1485.58 L1692.41 1481.64 Q1695.07 1478.89 1699.65 1474.26 Q1704.26 1469.61 1705.44 1468.27 Q1707.68 1465.74 1708.56 1464.01 Q1709.47 1462.25 1709.47 1460.56 Q1709.47 1457.8 1707.52 1456.07 Q1705.6 1454.33 1702.5 1454.33 Q1700.3 1454.33 1697.85 1455.09 Q1695.42 1455.86 1692.64 1457.41 L1692.64 1452.69 Q1695.46 1451.55 1697.92 1450.97 Q1700.37 1450.39 1702.41 1450.39 Q1707.78 1450.39 1710.97 1453.08 Q1714.17 1455.77 1714.17 1460.26 Q1714.17 1462.39 1713.36 1464.31 Q1712.57 1466.2 1710.46 1468.8 Q1709.88 1469.47 1706.78 1472.69 Q1703.68 1475.88 1698.03 1481.64 Z" fill="#000000" fill-rule="nonzero" fill-opacity="1" /><path clip-path="url(#clip090)" d="M1734.17 1454.1 Q1730.55 1454.1 1728.73 1457.66 Q1726.92 1461.2 1726.92 1468.33 Q1726.92 1475.44 1728.73 1479.01 Q1730.55 1482.55 1734.17 1482.55 Q1737.8 1482.55 1739.61 1479.01 Q1741.43 1475.44 1741.43 1468.33 Q1741.43 1461.2 1739.61 1457.66 Q1737.8 1454.1 1734.17 1454.1 M1734.17 1450.39 Q1739.98 1450.39 1743.03 1455 Q1746.11 1459.58 1746.11 1468.33 Q1746.11 1477.06 1743.03 1481.67 Q1739.98 1486.25 1734.17 1486.25 Q1728.36 1486.25 1725.28 1481.67 Q1722.22 1477.06 1722.22 1468.33 Q1722.22 1459.58 1725.28 1455 Q1728.36 1450.39 1734.17 1450.39 Z" fill="#000000" fill-rule="nonzero" fill-opacity="1" /><path clip-path="url(#clip090)" d="M1758.35 1481.64 L1774.67 1481.64 L1774.67 1485.58 L1752.73 1485.58 L1752.73 1481.64 Q1755.39 1478.89 1759.98 1474.26 Q1764.58 1469.61 1765.76 1468.27 Q1768.01 1465.74 1768.89 1464.01 Q1769.79 1462.25 1769.79 1460.56 Q1769.79 1457.8 1767.85 1456.07 Q1765.92 1454.33 1762.82 1454.33 Q1760.62 1454.33 1758.17 1455.09 Q1755.74 1455.86 1752.96 1457.41 L1752.96 1452.69 Q1755.79 1451.55 1758.24 1450.97 Q1760.69 1450.39 1762.73 1450.39 Q1768.1 1450.39 1771.29 1453.08 Q1774.49 1455.77 1774.49 1460.26 Q1774.49 1462.39 1773.68 1464.31 Q1772.89 1466.2 1770.79 1468.8 Q1770.21 1469.47 1767.1 1472.69 Q1764 1475.88 1758.35 1481.64 Z" fill="#000000" fill-rule="nonzero" fill-opacity="1" /><path clip-path="url(#clip090)" d="M1785.3 1481.64 L1792.94 1481.64 L1792.94 1455.28 L1784.63 1456.95 L1784.63 1452.69 L1792.89 1451.02 L1797.57 1451.02 L1797.57 1481.64 L1805.21 1481.64 L1805.21 1485.58 L1785.3 1485.58 L1785.3 1481.64 Z" fill="#000000" fill-rule="nonzero" fill-opacity="1" /><path clip-path="url(#clip090)" d="M1811.9 1470.7 L1824.37 1470.7 L1824.37 1474.49 L1811.9 1474.49 L1811.9 1470.7 Z" fill="#000000" fill-rule="nonzero" fill-opacity="1" /><path clip-path="url(#clip090)" d="M1832.57 1481.64 L1840.21 1481.64 L1840.21 1455.28 L1831.9 1456.95 L1831.9 1452.69 L1840.16 1451.02 L1844.84 1451.02 L1844.84 1481.64 L1852.47 1481.64 L1852.47 1485.58 L1832.57 1485.58 L1832.57 1481.64 Z" fill="#000000" fill-rule="nonzero" fill-opacity="1" /><path clip-path="url(#clip090)" d="M1871.92 1454.1 Q1868.31 1454.1 1866.48 1457.66 Q1864.67 1461.2 1864.67 1468.33 Q1864.67 1475.44 1866.48 1479.01 Q1868.31 1482.55 1871.92 1482.55 Q1875.55 1482.55 1877.36 1479.01 Q1879.19 1475.44 1879.19 1468.33 Q1879.19 1461.2 1877.36 1457.66 Q1875.55 1454.1 1871.92 1454.1 M1871.92 1450.39 Q1877.73 1450.39 1880.78 1455 Q1883.86 1459.58 1883.86 1468.33 Q1883.86 1477.06 1880.78 1481.67 Q1877.73 1486.25 1871.92 1486.25 Q1866.11 1486.25 1863.03 1481.67 Q1859.97 1477.06 1859.97 1468.33 Q1859.97 1459.58 1863.03 1455 Q1866.11 1450.39 1871.92 1450.39 Z" fill="#000000" fill-rule="nonzero" fill-opacity="1" /><path clip-path="url(#clip090)" d="M1889.33 1470.7 L1901.8 1470.7 L1901.8 1474.49 L1889.33 1474.49 L1889.33 1470.7 Z" fill="#000000" fill-rule="nonzero" fill-opacity="1" /><path clip-path="url(#clip090)" d="M1919.19 1454.1 Q1915.58 1454.1 1913.75 1457.66 Q1911.94 1461.2 1911.94 1468.33 Q1911.94 1475.44 1913.75 1479.01 Q1915.58 1482.55 1919.19 1482.55 Q1922.82 1482.55 1924.63 1479.01 Q1926.46 1475.44 1926.46 1468.33 Q1926.46 1461.2 1924.63 1457.66 Q1922.82 1454.1 1919.19 1454.1 M1919.19 1450.39 Q1925 1450.39 1928.05 1455 Q1931.13 1459.58 1931.13 1468.33 Q1931.13 1477.06 1928.05 1481.67 Q1925 1486.25 1919.19 1486.25 Q1913.38 1486.25 1910.3 1481.67 Q1907.24 1477.06 1907.24 1468.33 Q1907.24 1459.58 1910.3 1455 Q1913.38 1450.39 1919.19 1450.39 Z" fill="#000000" fill-rule="nonzero" fill-opacity="1" /><path clip-path="url(#clip090)" d="M1940.16 1481.64 L1947.8 1481.64 L1947.8 1455.28 L1939.49 1456.95 L1939.49 1452.69 L1947.75 1451.02 L1952.43 1451.02 L1952.43 1481.64 L1960.07 1481.64 L1960.07 1485.58 L1940.16 1485.58 L1940.16 1481.64 Z" fill="#000000" fill-rule="nonzero" fill-opacity="1" /><path clip-path="url(#clip090)" d="M1243.77 1537.81 L1243.77 1518.52 L1249.62 1518.52 L1249.62 1568.04 L1243.77 1568.04 L1243.77 1562.7 Q1241.92 1565.88 1239.09 1567.44 Q1236.29 1568.97 1232.34 1568.97 Q1225.88 1568.97 1221.81 1563.81 Q1217.76 1558.65 1217.76 1550.25 Q1217.76 1541.85 1221.81 1536.69 Q1225.88 1531.54 1232.34 1531.54 Q1236.29 1531.54 1239.09 1533.1 Q1241.92 1534.62 1243.77 1537.81 M1223.81 1550.25 Q1223.81 1556.71 1226.45 1560.4 Q1229.13 1564.07 1233.77 1564.07 Q1238.42 1564.07 1241.09 1560.4 Q1243.77 1556.71 1243.77 1550.25 Q1243.77 1543.79 1241.09 1540.13 Q1238.42 1536.44 1233.77 1536.44 Q1229.13 1536.44 1226.45 1540.13 Q1223.81 1543.79 1223.81 1550.25 Z" fill="#000000" fill-rule="nonzero" fill-opacity="1" /><path clip-path="url(#clip090)" d="M1277.89 1550.12 Q1270.79 1550.12 1268.05 1551.75 Q1265.32 1553.37 1265.32 1557.29 Q1265.32 1560.4 1267.35 1562.25 Q1269.42 1564.07 1272.95 1564.07 Q1277.82 1564.07 1280.75 1560.63 Q1283.71 1557.16 1283.71 1551.43 L1283.71 1550.12 L1277.89 1550.12 M1289.57 1547.71 L1289.57 1568.04 L1283.71 1568.04 L1283.71 1562.63 Q1281.71 1565.88 1278.72 1567.44 Q1275.72 1568.97 1271.4 1568.97 Q1265.92 1568.97 1262.67 1565.91 Q1259.46 1562.82 1259.46 1557.67 Q1259.46 1551.65 1263.47 1548.6 Q1267.51 1545.54 1275.5 1545.54 L1283.71 1545.54 L1283.71 1544.97 Q1283.71 1540.93 1281.04 1538.73 Q1278.4 1536.5 1273.59 1536.5 Q1270.54 1536.5 1267.64 1537.23 Q1264.74 1537.97 1262.07 1539.43 L1262.07 1534.02 Q1265.28 1532.78 1268.31 1532.17 Q1271.33 1531.54 1274.2 1531.54 Q1281.93 1531.54 1285.75 1535.55 Q1289.57 1539.56 1289.57 1547.71 Z" fill="#000000" fill-rule="nonzero" fill-opacity="1" /><path clip-path="url(#clip090)" d="M1307.42 1522.27 L1307.42 1532.4 L1319.49 1532.4 L1319.49 1536.95 L1307.42 1536.95 L1307.42 1556.3 Q1307.42 1560.66 1308.6 1561.9 Q1309.81 1563.14 1313.47 1563.14 L1319.49 1563.14 L1319.49 1568.04 L1313.47 1568.04 Q1306.69 1568.04 1304.11 1565.53 Q1301.54 1562.98 1301.54 1556.3 L1301.54 1536.95 L1297.24 1536.95 L1297.24 1532.4 L1301.54 1532.4 L1301.54 1522.27 L1307.42 1522.27 Z" fill="#000000" fill-rule="nonzero" fill-opacity="1" /><path clip-path="url(#clip090)" d="M1357.68 1548.76 L1357.68 1551.62 L1330.76 1551.62 Q1331.14 1557.67 1334.38 1560.85 Q1337.66 1564 1343.49 1564 Q1346.86 1564 1350.01 1563.17 Q1353.19 1562.35 1356.31 1560.69 L1356.31 1566.23 Q1353.16 1567.57 1349.85 1568.27 Q1346.54 1568.97 1343.14 1568.97 Q1334.61 1568.97 1329.61 1564 Q1324.64 1559.04 1324.64 1550.57 Q1324.64 1541.82 1329.35 1536.69 Q1334.1 1531.54 1342.12 1531.54 Q1349.31 1531.54 1353.48 1536.18 Q1357.68 1540.8 1357.68 1548.76 M1351.83 1547.04 Q1351.76 1542.23 1349.12 1539.37 Q1346.51 1536.5 1342.18 1536.5 Q1337.28 1536.5 1334.32 1539.27 Q1331.39 1542.04 1330.95 1547.07 L1351.83 1547.04 Z" fill="#000000" fill-rule="nonzero" fill-opacity="1" /><polyline clip-path="url(#clip092)" style="stroke:#000000; stroke-linecap:round; stroke-linejoin:round; stroke-width:2; stroke-opacity:0.1; fill:none" points="222.69,1384.24 2352.76,1384.24 "/>
<polyline clip-path="url(#clip092)" style="stroke:#000000; stroke-linecap:round; stroke-linejoin:round; stroke-width:2; stroke-opacity:0.1; fill:none" points="222.69,1084.94 2352.76,1084.94 "/>
<polyline clip-path="url(#clip092)" style="stroke:#000000; stroke-linecap:round; stroke-linejoin:round; stroke-width:2; stroke-opacity:0.1; fill:none" points="222.69,785.643 2352.76,785.643 "/>
<polyline clip-path="url(#clip092)" style="stroke:#000000; stroke-linecap:round; stroke-linejoin:round; stroke-width:2; stroke-opacity:0.1; fill:none" points="222.69,486.345 2352.76,486.345 "/>
<polyline clip-path="url(#clip092)" style="stroke:#000000; stroke-linecap:round; stroke-linejoin:round; stroke-width:2; stroke-opacity:0.1; fill:none" points="222.69,187.048 2352.76,187.048 "/>
<polyline clip-path="url(#clip092)" style="stroke:#000000; stroke-linecap:round; stroke-linejoin:round; stroke-width:2; stroke-opacity:0.05; fill:none" points="222.69,1413.24 2352.76,1413.24 "/>
<polyline clip-path="url(#clip092)" style="stroke:#000000; stroke-linecap:round; stroke-linejoin:round; stroke-width:2; stroke-opacity:0.05; fill:none" points="222.69,1397.93 2352.76,1397.93 "/>
<polyline clip-path="url(#clip092)" style="stroke:#000000; stroke-linecap:round; stroke-linejoin:round; stroke-width:2; stroke-opacity:0.05; fill:none" points="222.69,1294.14 2352.76,1294.14 "/>
<polyline clip-path="url(#clip092)" style="stroke:#000000; stroke-linecap:round; stroke-linejoin:round; stroke-width:2; stroke-opacity:0.05; fill:none" points="222.69,1241.44 2352.76,1241.44 "/>
<polyline clip-path="url(#clip092)" style="stroke:#000000; stroke-linecap:round; stroke-linejoin:round; stroke-width:2; stroke-opacity:0.05; fill:none" points="222.69,1204.04 2352.76,1204.04 "/>
<polyline clip-path="url(#clip092)" style="stroke:#000000; stroke-linecap:round; stroke-linejoin:round; stroke-width:2; stroke-opacity:0.05; fill:none" points="222.69,1175.04 2352.76,1175.04 "/>
<polyline clip-path="url(#clip092)" style="stroke:#000000; stroke-linecap:round; stroke-linejoin:round; stroke-width:2; stroke-opacity:0.05; fill:none" points="222.69,1151.34 2352.76,1151.34 "/>
<polyline clip-path="url(#clip092)" style="stroke:#000000; stroke-linecap:round; stroke-linejoin:round; stroke-width:2; stroke-opacity:0.05; fill:none" points="222.69,1131.3 2352.76,1131.3 "/>
<polyline clip-path="url(#clip092)" style="stroke:#000000; stroke-linecap:round; stroke-linejoin:round; stroke-width:2; stroke-opacity:0.05; fill:none" points="222.69,1113.95 2352.76,1113.95 "/>
<polyline clip-path="url(#clip092)" style="stroke:#000000; stroke-linecap:round; stroke-linejoin:round; stroke-width:2; stroke-opacity:0.05; fill:none" points="222.69,1098.64 2352.76,1098.64 "/>
<polyline clip-path="url(#clip092)" style="stroke:#000000; stroke-linecap:round; stroke-linejoin:round; stroke-width:2; stroke-opacity:0.05; fill:none" points="222.69,994.843 2352.76,994.843 "/>
<polyline clip-path="url(#clip092)" style="stroke:#000000; stroke-linecap:round; stroke-linejoin:round; stroke-width:2; stroke-opacity:0.05; fill:none" points="222.69,942.139 2352.76,942.139 "/>
<polyline clip-path="url(#clip092)" style="stroke:#000000; stroke-linecap:round; stroke-linejoin:round; stroke-width:2; stroke-opacity:0.05; fill:none" points="222.69,904.746 2352.76,904.746 "/>
<polyline clip-path="url(#clip092)" style="stroke:#000000; stroke-linecap:round; stroke-linejoin:round; stroke-width:2; stroke-opacity:0.05; fill:none" points="222.69,875.741 2352.76,875.741 "/>
<polyline clip-path="url(#clip092)" style="stroke:#000000; stroke-linecap:round; stroke-linejoin:round; stroke-width:2; stroke-opacity:0.05; fill:none" points="222.69,852.042 2352.76,852.042 "/>
<polyline clip-path="url(#clip092)" style="stroke:#000000; stroke-linecap:round; stroke-linejoin:round; stroke-width:2; stroke-opacity:0.05; fill:none" points="222.69,832.005 2352.76,832.005 "/>
<polyline clip-path="url(#clip092)" style="stroke:#000000; stroke-linecap:round; stroke-linejoin:round; stroke-width:2; stroke-opacity:0.05; fill:none" points="222.69,814.648 2352.76,814.648 "/>
<polyline clip-path="url(#clip092)" style="stroke:#000000; stroke-linecap:round; stroke-linejoin:round; stroke-width:2; stroke-opacity:0.05; fill:none" points="222.69,799.338 2352.76,799.338 "/>
<polyline clip-path="url(#clip092)" style="stroke:#000000; stroke-linecap:round; stroke-linejoin:round; stroke-width:2; stroke-opacity:0.05; fill:none" points="222.69,695.545 2352.76,695.545 "/>
<polyline clip-path="url(#clip092)" style="stroke:#000000; stroke-linecap:round; stroke-linejoin:round; stroke-width:2; stroke-opacity:0.05; fill:none" points="222.69,642.842 2352.76,642.842 "/>
<polyline clip-path="url(#clip092)" style="stroke:#000000; stroke-linecap:round; stroke-linejoin:round; stroke-width:2; stroke-opacity:0.05; fill:none" points="222.69,605.448 2352.76,605.448 "/>
<polyline clip-path="url(#clip092)" style="stroke:#000000; stroke-linecap:round; stroke-linejoin:round; stroke-width:2; stroke-opacity:0.05; fill:none" points="222.69,576.443 2352.76,576.443 "/>
<polyline clip-path="url(#clip092)" style="stroke:#000000; stroke-linecap:round; stroke-linejoin:round; stroke-width:2; stroke-opacity:0.05; fill:none" points="222.69,552.744 2352.76,552.744 "/>
<polyline clip-path="url(#clip092)" style="stroke:#000000; stroke-linecap:round; stroke-linejoin:round; stroke-width:2; stroke-opacity:0.05; fill:none" points="222.69,532.707 2352.76,532.707 "/>
<polyline clip-path="url(#clip092)" style="stroke:#000000; stroke-linecap:round; stroke-linejoin:round; stroke-width:2; stroke-opacity:0.05; fill:none" points="222.69,515.35 2352.76,515.35 "/>
<polyline clip-path="url(#clip092)" style="stroke:#000000; stroke-linecap:round; stroke-linejoin:round; stroke-width:2; stroke-opacity:0.05; fill:none" points="222.69,500.041 2352.76,500.041 "/>
<polyline clip-path="url(#clip092)" style="stroke:#000000; stroke-linecap:round; stroke-linejoin:round; stroke-width:2; stroke-opacity:0.05; fill:none" points="222.69,396.248 2352.76,396.248 "/>
<polyline clip-path="url(#clip092)" style="stroke:#000000; stroke-linecap:round; stroke-linejoin:round; stroke-width:2; stroke-opacity:0.05; fill:none" points="222.69,343.544 2352.76,343.544 "/>
<polyline clip-path="url(#clip092)" style="stroke:#000000; stroke-linecap:round; stroke-linejoin:round; stroke-width:2; stroke-opacity:0.05; fill:none" points="222.69,306.15 2352.76,306.15 "/>
<polyline clip-path="url(#clip092)" style="stroke:#000000; stroke-linecap:round; stroke-linejoin:round; stroke-width:2; stroke-opacity:0.05; fill:none" points="222.69,277.145 2352.76,277.145 "/>
<polyline clip-path="url(#clip092)" style="stroke:#000000; stroke-linecap:round; stroke-linejoin:round; stroke-width:2; stroke-opacity:0.05; fill:none" points="222.69,253.447 2352.76,253.447 "/>
<polyline clip-path="url(#clip092)" style="stroke:#000000; stroke-linecap:round; stroke-linejoin:round; stroke-width:2; stroke-opacity:0.05; fill:none" points="222.69,233.41 2352.76,233.41 "/>
<polyline clip-path="url(#clip092)" style="stroke:#000000; stroke-linecap:round; stroke-linejoin:round; stroke-width:2; stroke-opacity:0.05; fill:none" points="222.69,216.053 2352.76,216.053 "/>
<polyline clip-path="url(#clip092)" style="stroke:#000000; stroke-linecap:round; stroke-linejoin:round; stroke-width:2; stroke-opacity:0.05; fill:none" points="222.69,200.743 2352.76,200.743 "/>
<polyline clip-path="url(#clip092)" style="stroke:#000000; stroke-linecap:round; stroke-linejoin:round; stroke-width:2; stroke-opacity:0.05; fill:none" points="222.69,96.9503 2352.76,96.9503 "/>
<polyline clip-path="url(#clip090)" style="stroke:#000000; stroke-linecap:round; stroke-linejoin:round; stroke-width:4; stroke-opacity:1; fill:none" points="222.69,1423.18 222.69,47.2441 "/>
<polyline clip-path="url(#clip090)" style="stroke:#000000; stroke-linecap:round; stroke-linejoin:round; stroke-width:4; stroke-opacity:1; fill:none" points="222.69,1384.24 241.588,1384.24 "/>
<polyline clip-path="url(#clip090)" style="stroke:#000000; stroke-linecap:round; stroke-linejoin:round; stroke-width:4; stroke-opacity:1; fill:none" points="222.69,1084.94 241.588,1084.94 "/>
<polyline clip-path="url(#clip090)" style="stroke:#000000; stroke-linecap:round; stroke-linejoin:round; stroke-width:4; stroke-opacity:1; fill:none" points="222.69,785.643 241.588,785.643 "/>
<polyline clip-path="url(#clip090)" style="stroke:#000000; stroke-linecap:round; stroke-linejoin:round; stroke-width:4; stroke-opacity:1; fill:none" points="222.69,486.345 241.588,486.345 "/>
<polyline clip-path="url(#clip090)" style="stroke:#000000; stroke-linecap:round; stroke-linejoin:round; stroke-width:4; stroke-opacity:1; fill:none" points="222.69,187.048 241.588,187.048 "/>
<polyline clip-path="url(#clip090)" style="stroke:#000000; stroke-linecap:round; stroke-linejoin:round; stroke-width:4; stroke-opacity:1; fill:none" points="222.69,1413.24 232.139,1413.24 "/>
<polyline clip-path="url(#clip090)" style="stroke:#000000; stroke-linecap:round; stroke-linejoin:round; stroke-width:4; stroke-opacity:1; fill:none" points="222.69,1397.93 232.139,1397.93 "/>
<polyline clip-path="url(#clip090)" style="stroke:#000000; stroke-linecap:round; stroke-linejoin:round; stroke-width:4; stroke-opacity:1; fill:none" points="222.69,1294.14 232.139,1294.14 "/>
<polyline clip-path="url(#clip090)" style="stroke:#000000; stroke-linecap:round; stroke-linejoin:round; stroke-width:4; stroke-opacity:1; fill:none" points="222.69,1241.44 232.139,1241.44 "/>
<polyline clip-path="url(#clip090)" style="stroke:#000000; stroke-linecap:round; stroke-linejoin:round; stroke-width:4; stroke-opacity:1; fill:none" points="222.69,1204.04 232.139,1204.04 "/>
<polyline clip-path="url(#clip090)" style="stroke:#000000; stroke-linecap:round; stroke-linejoin:round; stroke-width:4; stroke-opacity:1; fill:none" points="222.69,1175.04 232.139,1175.04 "/>
<polyline clip-path="url(#clip090)" style="stroke:#000000; stroke-linecap:round; stroke-linejoin:round; stroke-width:4; stroke-opacity:1; fill:none" points="222.69,1151.34 232.139,1151.34 "/>
<polyline clip-path="url(#clip090)" style="stroke:#000000; stroke-linecap:round; stroke-linejoin:round; stroke-width:4; stroke-opacity:1; fill:none" points="222.69,1131.3 232.139,1131.3 "/>
<polyline clip-path="url(#clip090)" style="stroke:#000000; stroke-linecap:round; stroke-linejoin:round; stroke-width:4; stroke-opacity:1; fill:none" points="222.69,1113.95 232.139,1113.95 "/>
<polyline clip-path="url(#clip090)" style="stroke:#000000; stroke-linecap:round; stroke-linejoin:round; stroke-width:4; stroke-opacity:1; fill:none" points="222.69,1098.64 232.139,1098.64 "/>
<polyline clip-path="url(#clip090)" style="stroke:#000000; stroke-linecap:round; stroke-linejoin:round; stroke-width:4; stroke-opacity:1; fill:none" points="222.69,994.843 232.139,994.843 "/>
<polyline clip-path="url(#clip090)" style="stroke:#000000; stroke-linecap:round; stroke-linejoin:round; stroke-width:4; stroke-opacity:1; fill:none" points="222.69,942.139 232.139,942.139 "/>
<polyline clip-path="url(#clip090)" style="stroke:#000000; stroke-linecap:round; stroke-linejoin:round; stroke-width:4; stroke-opacity:1; fill:none" points="222.69,904.746 232.139,904.746 "/>
<polyline clip-path="url(#clip090)" style="stroke:#000000; stroke-linecap:round; stroke-linejoin:round; stroke-width:4; stroke-opacity:1; fill:none" points="222.69,875.741 232.139,875.741 "/>
<polyline clip-path="url(#clip090)" style="stroke:#000000; stroke-linecap:round; stroke-linejoin:round; stroke-width:4; stroke-opacity:1; fill:none" points="222.69,852.042 232.139,852.042 "/>
<polyline clip-path="url(#clip090)" style="stroke:#000000; stroke-linecap:round; stroke-linejoin:round; stroke-width:4; stroke-opacity:1; fill:none" points="222.69,832.005 232.139,832.005 "/>
<polyline clip-path="url(#clip090)" style="stroke:#000000; stroke-linecap:round; stroke-linejoin:round; stroke-width:4; stroke-opacity:1; fill:none" points="222.69,814.648 232.139,814.648 "/>
<polyline clip-path="url(#clip090)" style="stroke:#000000; stroke-linecap:round; stroke-linejoin:round; stroke-width:4; stroke-opacity:1; fill:none" points="222.69,799.338 232.139,799.338 "/>
<polyline clip-path="url(#clip090)" style="stroke:#000000; stroke-linecap:round; stroke-linejoin:round; stroke-width:4; stroke-opacity:1; fill:none" points="222.69,695.545 232.139,695.545 "/>
<polyline clip-path="url(#clip090)" style="stroke:#000000; stroke-linecap:round; stroke-linejoin:round; stroke-width:4; stroke-opacity:1; fill:none" points="222.69,642.842 232.139,642.842 "/>
<polyline clip-path="url(#clip090)" style="stroke:#000000; stroke-linecap:round; stroke-linejoin:round; stroke-width:4; stroke-opacity:1; fill:none" points="222.69,605.448 232.139,605.448 "/>
<polyline clip-path="url(#clip090)" style="stroke:#000000; stroke-linecap:round; stroke-linejoin:round; stroke-width:4; stroke-opacity:1; fill:none" points="222.69,576.443 232.139,576.443 "/>
<polyline clip-path="url(#clip090)" style="stroke:#000000; stroke-linecap:round; stroke-linejoin:round; stroke-width:4; stroke-opacity:1; fill:none" points="222.69,552.744 232.139,552.744 "/>
<polyline clip-path="url(#clip090)" style="stroke:#000000; stroke-linecap:round; stroke-linejoin:round; stroke-width:4; stroke-opacity:1; fill:none" points="222.69,532.707 232.139,532.707 "/>
<polyline clip-path="url(#clip090)" style="stroke:#000000; stroke-linecap:round; stroke-linejoin:round; stroke-width:4; stroke-opacity:1; fill:none" points="222.69,515.35 232.139,515.35 "/>
<polyline clip-path="url(#clip090)" style="stroke:#000000; stroke-linecap:round; stroke-linejoin:round; stroke-width:4; stroke-opacity:1; fill:none" points="222.69,500.041 232.139,500.041 "/>
<polyline clip-path="url(#clip090)" style="stroke:#000000; stroke-linecap:round; stroke-linejoin:round; stroke-width:4; stroke-opacity:1; fill:none" points="222.69,396.248 232.139,396.248 "/>
<polyline clip-path="url(#clip090)" style="stroke:#000000; stroke-linecap:round; stroke-linejoin:round; stroke-width:4; stroke-opacity:1; fill:none" points="222.69,343.544 232.139,343.544 "/>
<polyline clip-path="url(#clip090)" style="stroke:#000000; stroke-linecap:round; stroke-linejoin:round; stroke-width:4; stroke-opacity:1; fill:none" points="222.69,306.15 232.139,306.15 "/>
<polyline clip-path="url(#clip090)" style="stroke:#000000; stroke-linecap:round; stroke-linejoin:round; stroke-width:4; stroke-opacity:1; fill:none" points="222.69,277.145 232.139,277.145 "/>
<polyline clip-path="url(#clip090)" style="stroke:#000000; stroke-linecap:round; stroke-linejoin:round; stroke-width:4; stroke-opacity:1; fill:none" points="222.69,253.447 232.139,253.447 "/>
<polyline clip-path="url(#clip090)" style="stroke:#000000; stroke-linecap:round; stroke-linejoin:round; stroke-width:4; stroke-opacity:1; fill:none" points="222.69,233.41 232.139,233.41 "/>
<polyline clip-path="url(#clip090)" style="stroke:#000000; stroke-linecap:round; stroke-linejoin:round; stroke-width:4; stroke-opacity:1; fill:none" points="222.69,216.053 232.139,216.053 "/>
<polyline clip-path="url(#clip090)" style="stroke:#000000; stroke-linecap:round; stroke-linejoin:round; stroke-width:4; stroke-opacity:1; fill:none" points="222.69,200.743 232.139,200.743 "/>
<polyline clip-path="url(#clip090)" style="stroke:#000000; stroke-linecap:round; stroke-linejoin:round; stroke-width:4; stroke-opacity:1; fill:none" points="222.69,96.9503 232.139,96.9503 "/>
<path clip-path="url(#clip090)" d="M115.985 1404.03 L123.624 1404.03 L123.624 1377.67 L115.313 1379.33 L115.313 1375.07 L123.577 1373.41 L128.253 1373.41 L128.253 1404.03 L135.892 1404.03 L135.892 1407.97 L115.985 1407.97 L115.985 1404.03 Z" fill="#000000" fill-rule="nonzero" fill-opacity="1" /><path clip-path="url(#clip090)" d="M155.336 1376.48 Q151.725 1376.48 149.897 1380.05 Q148.091 1383.59 148.091 1390.72 Q148.091 1397.83 149.897 1401.39 Q151.725 1404.93 155.336 1404.93 Q158.971 1404.93 160.776 1401.39 Q162.605 1397.83 162.605 1390.72 Q162.605 1383.59 160.776 1380.05 Q158.971 1376.48 155.336 1376.48 M155.336 1372.78 Q161.146 1372.78 164.202 1377.39 Q167.281 1381.97 167.281 1390.72 Q167.281 1399.45 164.202 1404.05 Q161.146 1408.64 155.336 1408.64 Q149.526 1408.64 146.447 1404.05 Q143.392 1399.45 143.392 1390.72 Q143.392 1381.97 146.447 1377.39 Q149.526 1372.78 155.336 1372.78 Z" fill="#000000" fill-rule="nonzero" fill-opacity="1" /><path clip-path="url(#clip090)" d="M176.986 1354.98 Q174.052 1354.98 172.566 1357.87 Q171.099 1360.75 171.099 1366.54 Q171.099 1372.32 172.566 1375.21 Q174.052 1378.09 176.986 1378.09 Q179.938 1378.09 181.405 1375.21 Q182.891 1372.32 182.891 1366.54 Q182.891 1360.75 181.405 1357.87 Q179.938 1354.98 176.986 1354.98 M176.986 1351.97 Q181.706 1351.97 184.189 1355.71 Q186.69 1359.43 186.69 1366.54 Q186.69 1373.63 184.189 1377.38 Q181.706 1381.1 176.986 1381.1 Q172.265 1381.1 169.763 1377.38 Q167.281 1373.63 167.281 1366.54 Q167.281 1359.43 169.763 1355.71 Q172.265 1351.97 176.986 1351.97 Z" fill="#000000" fill-rule="nonzero" fill-opacity="1" /><path clip-path="url(#clip090)" d="M118.674 1104.73 L126.313 1104.73 L126.313 1078.37 L118.003 1080.03 L118.003 1075.77 L126.267 1074.11 L130.943 1074.11 L130.943 1104.73 L138.581 1104.73 L138.581 1108.67 L118.674 1108.67 L118.674 1104.73 Z" fill="#000000" fill-rule="nonzero" fill-opacity="1" /><path clip-path="url(#clip090)" d="M158.026 1077.19 Q154.415 1077.19 152.586 1080.75 Q150.781 1084.29 150.781 1091.42 Q150.781 1098.53 152.586 1102.09 Q154.415 1105.64 158.026 1105.64 Q161.66 1105.64 163.466 1102.09 Q165.294 1098.53 165.294 1091.42 Q165.294 1084.29 163.466 1080.75 Q161.66 1077.19 158.026 1077.19 M158.026 1073.48 Q163.836 1073.48 166.892 1078.09 Q169.97 1082.67 169.97 1091.42 Q169.97 1100.15 166.892 1104.76 Q163.836 1109.34 158.026 1109.34 Q152.216 1109.34 149.137 1104.76 Q146.081 1100.15 146.081 1091.42 Q146.081 1082.67 149.137 1078.09 Q152.216 1073.48 158.026 1073.48 Z" fill="#000000" fill-rule="nonzero" fill-opacity="1" /><path clip-path="url(#clip090)" d="M170.516 1078.06 L176.722 1078.06 L176.722 1056.64 L169.97 1057.99 L169.97 1054.53 L176.685 1053.18 L180.484 1053.18 L180.484 1078.06 L186.69 1078.06 L186.69 1081.26 L170.516 1081.26 L170.516 1078.06 Z" fill="#000000" fill-rule="nonzero" fill-opacity="1" /><path clip-path="url(#clip090)" d="M117.565 805.435 L125.203 805.435 L125.203 779.07 L116.893 780.737 L116.893 776.477 L125.157 774.811 L129.833 774.811 L129.833 805.435 L137.472 805.435 L137.472 809.371 L117.565 809.371 L117.565 805.435 Z" fill="#000000" fill-rule="nonzero" fill-opacity="1" /><path clip-path="url(#clip090)" d="M156.916 777.889 Q153.305 777.889 151.476 781.454 Q149.671 784.996 149.671 792.125 Q149.671 799.232 151.476 802.797 Q153.305 806.338 156.916 806.338 Q160.55 806.338 162.356 802.797 Q164.185 799.232 164.185 792.125 Q164.185 784.996 162.356 781.454 Q160.55 777.889 156.916 777.889 M156.916 774.186 Q162.726 774.186 165.782 778.792 Q168.861 783.375 168.861 792.125 Q168.861 800.852 165.782 805.459 Q162.726 810.042 156.916 810.042 Q151.106 810.042 148.027 805.459 Q144.972 800.852 144.972 792.125 Q144.972 783.375 148.027 778.792 Q151.106 774.186 156.916 774.186 Z" fill="#000000" fill-rule="nonzero" fill-opacity="1" /><path clip-path="url(#clip090)" d="M173.431 778.763 L186.69 778.763 L186.69 781.96 L168.861 781.96 L168.861 778.763 Q171.023 776.525 174.747 772.763 Q178.49 768.983 179.449 767.892 Q181.274 765.842 181.988 764.431 Q182.722 763.002 182.722 761.629 Q182.722 759.391 181.142 757.98 Q179.581 756.57 177.061 756.57 Q175.274 756.57 173.28 757.19 Q171.306 757.811 169.049 759.071 L169.049 755.234 Q171.343 754.313 173.337 753.843 Q175.33 753.372 176.986 753.372 Q181.349 753.372 183.944 755.554 Q186.54 757.736 186.54 761.385 Q186.54 763.115 185.882 764.676 Q185.242 766.218 183.531 768.325 Q183.06 768.87 180.54 771.484 Q178.02 774.08 173.431 778.763 Z" fill="#000000" fill-rule="nonzero" fill-opacity="1" /><path clip-path="url(#clip090)" d="M116.906 506.138 L124.545 506.138 L124.545 479.772 L116.235 481.439 L116.235 477.18 L124.499 475.513 L129.175 475.513 L129.175 506.138 L136.814 506.138 L136.814 510.073 L116.906 510.073 L116.906 506.138 Z" fill="#000000" fill-rule="nonzero" fill-opacity="1" /><path clip-path="url(#clip090)" d="M156.258 478.592 Q152.647 478.592 150.818 482.157 Q149.013 485.698 149.013 492.828 Q149.013 499.934 150.818 503.499 Q152.647 507.041 156.258 507.041 Q159.892 507.041 161.698 503.499 Q163.526 499.934 163.526 492.828 Q163.526 485.698 161.698 482.157 Q159.892 478.592 156.258 478.592 M156.258 474.888 Q162.068 474.888 165.124 479.494 Q168.202 484.078 168.202 492.828 Q168.202 501.555 165.124 506.161 Q162.068 510.744 156.258 510.744 Q150.448 510.744 147.369 506.161 Q144.314 501.555 144.314 492.828 Q144.314 484.078 147.369 479.494 Q150.448 474.888 156.258 474.888 Z" fill="#000000" fill-rule="nonzero" fill-opacity="1" /><path clip-path="url(#clip090)" d="M180.898 467.522 Q183.625 468.105 185.148 469.949 Q186.69 471.792 186.69 474.5 Q186.69 478.657 183.832 480.932 Q180.973 483.208 175.707 483.208 Q173.939 483.208 172.058 482.851 Q170.196 482.512 168.202 481.816 L168.202 478.149 Q169.782 479.07 171.663 479.541 Q173.544 480.011 175.594 480.011 Q179.167 480.011 181.029 478.6 Q182.91 477.19 182.91 474.5 Q182.91 472.017 181.161 470.626 Q179.431 469.215 176.327 469.215 L173.055 469.215 L173.055 466.093 L176.478 466.093 Q179.28 466.093 180.766 464.983 Q182.252 463.855 182.252 461.748 Q182.252 459.585 180.709 458.438 Q179.186 457.272 176.327 457.272 Q174.766 457.272 172.979 457.611 Q171.193 457.949 169.049 458.664 L169.049 455.279 Q171.212 454.677 173.092 454.376 Q174.992 454.075 176.666 454.075 Q180.992 454.075 183.512 456.05 Q186.032 458.006 186.032 461.353 Q186.032 463.686 184.697 465.303 Q183.361 466.902 180.898 467.522 Z" fill="#000000" fill-rule="nonzero" fill-opacity="1" /><path clip-path="url(#clip090)" d="M114.931 206.84 L122.57 206.84 L122.57 180.475 L114.26 182.141 L114.26 177.882 L122.524 176.215 L127.2 176.215 L127.2 206.84 L134.839 206.84 L134.839 210.775 L114.931 210.775 L114.931 206.84 Z" fill="#000000" fill-rule="nonzero" fill-opacity="1" /><path clip-path="url(#clip090)" d="M154.283 179.294 Q150.672 179.294 148.843 182.859 Q147.038 186.401 147.038 193.53 Q147.038 200.637 148.843 204.201 Q150.672 207.743 154.283 207.743 Q157.917 207.743 159.723 204.201 Q161.552 200.637 161.552 193.53 Q161.552 186.401 159.723 182.859 Q157.917 179.294 154.283 179.294 M154.283 175.59 Q160.093 175.59 163.149 180.197 Q166.227 184.78 166.227 193.53 Q166.227 202.257 163.149 206.863 Q160.093 211.447 154.283 211.447 Q148.473 211.447 145.394 206.863 Q142.339 202.257 142.339 193.53 Q142.339 184.78 145.394 180.197 Q148.473 175.59 154.283 175.59 Z" fill="#000000" fill-rule="nonzero" fill-opacity="1" /><path clip-path="url(#clip090)" d="M178.904 158.595 L169.312 173.585 L178.904 173.585 L178.904 158.595 M177.907 155.285 L182.684 155.285 L182.684 173.585 L186.69 173.585 L186.69 176.745 L182.684 176.745 L182.684 183.365 L178.904 183.365 L178.904 176.745 L166.227 176.745 L166.227 173.077 L177.907 155.285 Z" fill="#000000" fill-rule="nonzero" fill-opacity="1" /><path clip-path="url(#clip090)" d="M46.0847 888.244 Q46.0847 895.341 47.7079 898.079 Q49.3312 900.816 53.2461 900.816 Q56.3653 900.816 58.2114 898.779 Q60.0256 896.71 60.0256 893.177 Q60.0256 888.307 56.5881 885.379 Q53.1188 882.419 47.3897 882.419 L46.0847 882.419 L46.0847 888.244 M43.6657 876.562 L64.0042 876.562 L64.0042 882.419 L58.5933 882.419 Q61.8398 884.424 63.3994 887.416 Q64.9272 890.408 64.9272 894.737 Q64.9272 900.211 61.8716 903.458 Q58.7843 906.672 53.6281 906.672 Q47.6125 906.672 44.5569 902.662 Q41.5014 898.62 41.5014 890.631 L41.5014 882.419 L40.9285 882.419 Q36.8862 882.419 34.6901 885.093 Q32.4621 887.734 32.4621 892.54 Q32.4621 895.596 33.1941 898.492 Q33.9262 901.389 35.3903 904.062 L29.9795 904.062 Q28.7381 900.848 28.1334 897.824 Q27.4968 894.8 27.4968 891.936 Q27.4968 884.201 31.5072 880.382 Q35.5176 876.562 43.6657 876.562 Z" fill="#000000" fill-rule="nonzero" fill-opacity="1" /><path clip-path="url(#clip090)" d="M29.7248 838.846 L35.1993 838.846 Q33.8307 841.328 33.1623 843.843 Q32.4621 846.325 32.4621 848.872 Q32.4621 854.569 36.0905 857.72 Q39.6872 860.871 46.212 860.871 Q52.7369 860.871 56.3653 857.72 Q59.9619 854.569 59.9619 848.872 Q59.9619 846.325 59.2935 843.843 Q58.5933 841.328 57.2247 838.846 L62.6355 838.846 Q63.7814 841.296 64.3543 843.938 Q64.9272 846.548 64.9272 849.508 Q64.9272 857.561 59.8664 862.303 Q54.8057 867.046 46.212 867.046 Q37.491 867.046 32.4939 862.271 Q27.4968 857.465 27.4968 849.126 Q27.4968 846.421 28.0697 843.843 Q28.6108 841.265 29.7248 838.846 Z" fill="#000000" fill-rule="nonzero" fill-opacity="1" /><path clip-path="url(#clip090)" d="M29.7248 803.007 L35.1993 803.007 Q33.8307 805.489 33.1623 808.004 Q32.4621 810.486 32.4621 813.033 Q32.4621 818.73 36.0905 821.881 Q39.6872 825.032 46.212 825.032 Q52.7369 825.032 56.3653 821.881 Q59.9619 818.73 59.9619 813.033 Q59.9619 810.486 59.2935 808.004 Q58.5933 805.489 57.2247 803.007 L62.6355 803.007 Q63.7814 805.458 64.3543 808.099 Q64.9272 810.709 64.9272 813.669 Q64.9272 821.722 59.8664 826.464 Q54.8057 831.207 46.212 831.207 Q37.491 831.207 32.4939 826.433 Q27.4968 821.626 27.4968 813.287 Q27.4968 810.582 28.0697 808.004 Q28.6108 805.426 29.7248 803.007 Z" fill="#000000" fill-rule="nonzero" fill-opacity="1" /><path clip-path="url(#clip090)" d="M55.9197 791.994 L55.9197 785.278 L64.0042 785.278 L64.0042 791.994 L55.9197 791.994 Z" fill="#000000" fill-rule="nonzero" fill-opacity="1" /><path clip-path="url(#clip090)" d="M33.8307 730.724 Q33.2578 731.711 33.0032 732.888 Q32.7167 734.034 32.7167 735.435 Q32.7167 740.4 35.9632 743.074 Q39.1779 745.715 45.2253 745.715 L64.0042 745.715 L64.0042 751.604 L28.3562 751.604 L28.3562 745.715 L33.8944 745.715 Q30.6479 743.869 29.0883 740.909 Q27.4968 737.949 27.4968 733.716 Q27.4968 733.111 27.5923 732.379 Q27.656 731.647 27.8151 730.756 L33.8307 730.724 Z" fill="#000000" fill-rule="nonzero" fill-opacity="1" /><path clip-path="url(#clip090)" d="M44.7161 695.522 L47.5806 695.522 L47.5806 722.449 Q53.6281 722.067 56.8109 718.82 Q59.9619 715.542 59.9619 709.717 Q59.9619 706.343 59.1344 703.192 Q58.3069 700.01 56.6518 696.89 L62.1899 696.89 Q63.5267 700.041 64.227 703.352 Q64.9272 706.662 64.9272 710.067 Q64.9272 718.597 59.9619 723.595 Q54.9967 728.56 46.5303 728.56 Q37.7774 728.56 32.6531 723.849 Q27.4968 719.107 27.4968 711.086 Q27.4968 703.893 32.1438 699.723 Q36.7589 695.522 44.7161 695.522 M42.9973 701.378 Q38.1912 701.442 35.3266 704.084 Q32.4621 706.694 32.4621 711.022 Q32.4621 715.924 35.2312 718.884 Q38.0002 721.812 43.0292 722.258 L42.9973 701.378 Z" fill="#000000" fill-rule="nonzero" fill-opacity="1" /><path clip-path="url(#clip090)" d="M18.2347 680.117 L28.3562 680.117 L28.3562 668.054 L32.9077 668.054 L32.9077 680.117 L52.2594 680.117 Q56.6199 680.117 57.8613 678.939 Q59.1026 677.73 59.1026 674.069 L59.1026 668.054 L64.0042 668.054 L64.0042 674.069 Q64.0042 680.849 61.4897 683.427 Q58.9434 686.005 52.2594 686.005 L32.9077 686.005 L32.9077 690.302 L28.3562 690.302 L28.3562 686.005 L18.2347 686.005 L18.2347 680.117 Z" fill="#000000" fill-rule="nonzero" fill-opacity="1" /><path clip-path="url(#clip090)" d="M49.9359 660.956 L28.3562 660.956 L28.3562 655.1 L49.7131 655.1 Q54.7739 655.1 57.3202 653.126 Q59.8346 651.153 59.8346 647.206 Q59.8346 642.464 56.8109 639.726 Q53.7872 636.957 48.5673 636.957 L28.3562 636.957 L28.3562 631.101 L64.0042 631.101 L64.0042 636.957 L58.5296 636.957 Q61.7762 639.09 63.3676 641.923 Q64.9272 644.723 64.9272 648.447 Q64.9272 654.59 61.1078 657.773 Q57.2883 660.956 49.9359 660.956 M27.4968 646.219 L27.4968 646.219 Z" fill="#000000" fill-rule="nonzero" fill-opacity="1" /><path clip-path="url(#clip090)" d="M33.8307 598.381 Q33.2578 599.368 33.0032 600.545 Q32.7167 601.691 32.7167 603.092 Q32.7167 608.057 35.9632 610.731 Q39.1779 613.372 45.2253 613.372 L64.0042 613.372 L64.0042 619.261 L28.3562 619.261 L28.3562 613.372 L33.8944 613.372 Q30.6479 611.526 29.0883 608.566 Q27.4968 605.606 27.4968 601.373 Q27.4968 600.768 27.5923 600.036 Q27.656 599.304 27.8151 598.413 L33.8307 598.381 Z" fill="#000000" fill-rule="nonzero" fill-opacity="1" /><path clip-path="url(#clip090)" d="M42.4881 563.752 L64.0042 563.752 L64.0042 569.608 L42.679 569.608 Q37.6183 569.608 35.1038 571.581 Q32.5894 573.555 32.5894 577.502 Q32.5894 582.244 35.6131 584.981 Q38.6368 587.719 43.8567 587.719 L64.0042 587.719 L64.0042 593.607 L28.3562 593.607 L28.3562 587.719 L33.8944 587.719 Q30.6797 585.618 29.0883 582.785 Q27.4968 579.921 27.4968 576.197 Q27.4968 570.054 31.3163 566.903 Q35.1038 563.752 42.4881 563.752 Z" fill="#000000" fill-rule="nonzero" fill-opacity="1" /><polyline clip-path="url(#clip092)" style="stroke:#009af9; stroke-linecap:round; stroke-linejoin:round; stroke-width:12; stroke-opacity:1; fill:none" points="282.975,1384.24 282.975,1384.24 288.7,1372.34 294.425,1364.27 300.15,1364.27 305.875,1364.27 323.051,1357.6 328.776,1328.03 334.501,1328.03 340.226,1316.67 345.951,1307.92 368.851,1275.47 374.576,1279.06 380.301,1278.91 386.026,1257.63 403.201,1227.67 408.927,1206.75 414.652,1206.75 420.377,1205.43 426.102,1203.32 443.277,1186.7 449.002,1191.61 454.727,1166.92 460.452,1159.82 466.177,1159.82 483.352,1159.82 489.077,1146.95 494.802,1135.78 500.527,1142.76 506.253,1132.04 529.153,1128.78 534.878,1129.25 540.603,1137.47 546.328,1114.26 563.503,1099.78 569.228,1080.12 574.953,1058.34 580.678,1032.33 586.403,1029.71 603.579,1029.71 609.304,1029.71 615.029,1032.52 620.754,1027.37 626.479,1022.61 643.654,1006.19 649.379,1002.78 655.104,1002.78 660.829,1002.78 666.554,993.521 683.491,964.675 689.216,966.008 694.941,965.484 700.666,955.755 706.391,959.273 723.566,953.242 729.291,952.225 735.016,948.446 740.741,946.681 746.466,940.242 763.642,940.584 769.367,929.282 775.092,922.302 780.817,922.599 803.717,915.811 809.442,915.835 815.167,915.967 820.892,913.713 826.617,915.13 843.792,910.439 849.518,905.805 855.243,899.022 860.968,891.6 866.693,887.724 883.868,887.851 889.593,884.78 895.318,880.257 901.043,877.64 906.768,875.448 923.943,859.344 929.668,854.752 935.393,849.614 941.118,845.083 946.844,828.939 964.019,825.317 969.744,828.258 975.469,825.098 981.194,810.576 986.919,807.542 1004.09,804.638 1009.82,799.875 1015.54,798.779 1021.27,771.847 1026.99,764.079 1044.17,763.72 1049.89,761.4 1055.62,744.288 1061.34,743.21 1067.07,747.22 1084.24,731.621 1089.97,707.97 1095.7,685.146 1101.42,645.577 1107.15,619.362 1130.05,619.362 1135.77,619.362 1141.5,626.451 1147.22,618.773 1164.4,604.049 1170.12,600.889 1175.85,592.208 1181.57,585.802 1187.3,573.83 1204.47,555.976 1210.2,550.479 1215.92,550.479 1221.65,550.479 1227.37,554.614 1244.55,551.72 1250.27,534.741 1256,532.521 1261.72,526.735 1267.45,530.895 1284.62,527.318 1290.35,526.105 1296.07,525.512 1301.8,523.281 1307.52,523.912 1330.42,522.076 1336.15,518.121 1341.87,521.73 1347.6,518.776 1364.77,515.238 1370.5,513.963 1376.22,515.599 1381.95,502.523 1387.67,494.539 1404.85,494.539 1410.57,470.909 1416.3,472.269 1422.02,475.803 1427.75,475.95 1444.92,473.511 1450.65,473.226 1456.37,470.767 1462.1,473.249 1467.82,474.505 1485,469.553 1490.72,470.773 1496.45,453.57 1502.17,445.728 1507.9,443.599 1525.07,435.668 1530.8,425.183 1536.52,424.98 1542.25,418.883 1547.97,417.317 1565.15,408.97 1570.88,408.971 1576.6,416.12 1582.33,420.028 1588.05,401.489 1605.23,395.174 1610.95,371.448 1616.68,367.013 1622.4,369.874 1628.13,364.755 1645.3,358.682 1651.03,354.056 1656.75,353.144 1662.48,343.073 1668.2,337.727 1691.1,329.328 1696.83,328.976 1702.55,330.156 1708.28,303.58 1725.45,306.885 1731.18,309.272 1736.9,304.305 1742.63,302.42 1748.35,294.492 1765.53,300.431 1771.25,299.562 1776.98,290.961 1782.7,281.255 1788.43,280.11 1805.6,272.816 1811.33,272.334 1817.05,270.06 1822.78,270.936 1828.5,266.262 1845.68,259.553 1851.4,255.114 1857.13,254.558 1862.85,247.124 1868.58,241.758 1885.75,239.184 1891.48,225.926 1897.2,225.54 1902.93,221.429 1908.65,221.004 1925.83,216.98 1931.55,217.856 1937.28,217.626 1943,213.46 1948.73,211.2 1965.9,195.704 1971.63,193.151 1977.35,196.804 1983.08,187.041 1988.8,186.204 2005.98,180.454 2011.7,175.974 2017.43,178.844 2023.15,164.17 2028.88,159.924 2046.29,159.924 2052.02,163.235 2057.74,158.896 2063.47,149.564 2069.19,146.927 2086.37,146.835 2092.09,141.66 2097.82,137.842 2103.54,133.199 2109.27,132.632 2126.44,129.544 2132.17,127.185 2137.89,129.78 2149.34,132.798 2166.52,129.429 2172.24,133.925 2177.97,140.454 2183.69,139.936 2189.42,139.941 2206.6,138.988 2212.32,137.812 2218.05,137.389 2223.77,130.777 2229.5,128.643 2246.67,127.694 2252.4,110.438 2258.12,110.084 2263.85,111.22 2269.57,88.4998 2286.75,86.6419 2292.47,86.1857 "/>
<path clip-path="url(#clip090)" d="M293.693 196.789 L888.271 196.789 L888.271 93.1086 L293.693 93.1086  Z" fill="#ffffff" fill-rule="evenodd" fill-opacity="1"/>
<polyline clip-path="url(#clip090)" style="stroke:#000000; stroke-linecap:round; stroke-linejoin:round; stroke-width:4; stroke-opacity:1; fill:none" points="293.693,196.789 888.271,196.789 888.271,93.1086 293.693,93.1086 293.693,196.789 "/>
<polyline clip-path="url(#clip090)" style="stroke:#009af9; stroke-linecap:round; stroke-linejoin:round; stroke-width:12; stroke-opacity:1; fill:none" points="317.36,144.949 459.364,144.949 "/>
<path clip-path="url(#clip090)" d="M483.032 127.669 L489.999 127.669 L498.819 151.187 L507.684 127.669 L514.652 127.669 L514.652 162.229 L510.092 162.229 L510.092 131.882 L501.18 155.585 L496.481 155.585 L487.569 131.882 L487.569 162.229 L483.032 162.229 L483.032 127.669 Z" fill="#000000" fill-rule="nonzero" fill-opacity="1" /><path clip-path="url(#clip090)" d="M532.846 162.229 L519.652 127.669 L524.536 127.669 L535.485 156.766 L546.457 127.669 L551.318 127.669 L538.147 162.229 L532.846 162.229 Z" fill="#000000" fill-rule="nonzero" fill-opacity="1" /><path clip-path="url(#clip090)" d="M551.249 147.344 L563.726 147.344 L563.726 151.141 L551.249 151.141 L551.249 147.344 Z" fill="#000000" fill-rule="nonzero" fill-opacity="1" /><path clip-path="url(#clip090)" d="M570.693 127.669 L577.661 127.669 L586.48 151.187 L595.346 127.669 L602.313 127.669 L602.313 162.229 L597.753 162.229 L597.753 131.882 L588.841 155.585 L584.142 155.585 L575.23 131.882 L575.23 162.229 L570.693 162.229 L570.693 127.669 Z" fill="#000000" fill-rule="nonzero" fill-opacity="1" /><path clip-path="url(#clip090)" d="M616.272 131.511 L616.272 144.497 L622.151 144.497 Q625.415 144.497 627.198 142.807 Q628.98 141.118 628.98 137.993 Q628.98 134.891 627.198 133.201 Q625.415 131.511 622.151 131.511 L616.272 131.511 M611.596 127.669 L622.151 127.669 Q627.961 127.669 630.924 130.307 Q633.91 132.923 633.91 137.993 Q633.91 143.108 630.924 145.724 Q627.961 148.34 622.151 148.34 L616.272 148.34 L616.272 162.229 L611.596 162.229 L611.596 127.669 Z" fill="#000000" fill-rule="nonzero" fill-opacity="1" /><path clip-path="url(#clip090)" d="M666.063 130.331 L666.063 135.261 Q663.702 133.062 661.017 131.974 Q658.355 130.886 655.346 130.886 Q649.42 130.886 646.272 134.52 Q643.123 138.132 643.123 144.983 Q643.123 151.812 646.272 155.446 Q649.42 159.057 655.346 159.057 Q658.355 159.057 661.017 157.969 Q663.702 156.881 666.063 154.682 L666.063 159.567 Q663.609 161.233 660.855 162.067 Q658.123 162.9 655.068 162.9 Q647.221 162.9 642.707 158.108 Q638.193 153.293 638.193 144.983 Q638.193 136.65 642.707 131.858 Q647.221 127.044 655.068 127.044 Q658.17 127.044 660.901 127.877 Q663.656 128.687 666.063 130.331 Z" fill="#000000" fill-rule="nonzero" fill-opacity="1" /><path clip-path="url(#clip090)" d="M674.188 156.349 L679.072 156.349 L679.072 162.229 L674.188 162.229 L674.188 156.349 M674.188 137.715 L679.072 137.715 L679.072 143.594 L674.188 143.594 L674.188 137.715 Z" fill="#000000" fill-rule="nonzero" fill-opacity="1" /><path clip-path="url(#clip090)" d="M709.003 131.511 L709.003 144.497 L714.882 144.497 Q718.146 144.497 719.929 142.807 Q721.711 141.118 721.711 137.993 Q721.711 134.891 719.929 133.201 Q718.146 131.511 714.882 131.511 L709.003 131.511 M704.327 127.669 L714.882 127.669 Q720.692 127.669 723.655 130.307 Q726.641 132.923 726.641 137.993 Q726.641 143.108 723.655 145.724 Q720.692 148.34 714.882 148.34 L709.003 148.34 L709.003 162.229 L704.327 162.229 L704.327 127.669 Z" fill="#000000" fill-rule="nonzero" fill-opacity="1" /><path clip-path="url(#clip090)" d="M753.215 148.201 L753.215 150.284 L733.632 150.284 Q733.91 154.682 736.271 156.997 Q738.655 159.289 742.891 159.289 Q745.345 159.289 747.637 158.687 Q749.952 158.085 752.22 156.881 L752.22 160.909 Q749.928 161.881 747.521 162.391 Q745.114 162.9 742.637 162.9 Q736.433 162.9 732.799 159.289 Q729.188 155.678 729.188 149.52 Q729.188 143.155 732.614 139.428 Q736.063 135.678 741.896 135.678 Q747.127 135.678 750.16 139.057 Q753.215 142.414 753.215 148.201 M748.956 146.951 Q748.91 143.456 746.989 141.372 Q745.09 139.289 741.942 139.289 Q738.378 139.289 736.225 141.303 Q734.095 143.317 733.771 146.974 L748.956 146.951 Z" fill="#000000" fill-rule="nonzero" fill-opacity="1" /><path clip-path="url(#clip090)" d="M775.229 140.284 Q774.512 139.868 773.655 139.682 Q772.822 139.474 771.803 139.474 Q768.192 139.474 766.248 141.835 Q764.326 144.173 764.326 148.571 L764.326 162.229 L760.044 162.229 L760.044 136.303 L764.326 136.303 L764.326 140.331 Q765.669 137.969 767.822 136.835 Q769.975 135.678 773.053 135.678 Q773.493 135.678 774.025 135.747 Q774.558 135.794 775.206 135.909 L775.229 140.284 Z" fill="#000000" fill-rule="nonzero" fill-opacity="1" /><path clip-path="url(#clip090)" d="M792.822 126.21 L792.822 129.752 L788.748 129.752 Q786.456 129.752 785.553 130.678 Q784.674 131.604 784.674 134.011 L784.674 136.303 L791.687 136.303 L791.687 139.613 L784.674 139.613 L784.674 162.229 L780.391 162.229 L780.391 139.613 L776.317 139.613 L776.317 136.303 L780.391 136.303 L780.391 134.497 Q780.391 130.169 782.405 128.201 Q784.419 126.21 788.794 126.21 L792.822 126.21 Z" fill="#000000" fill-rule="nonzero" fill-opacity="1" /><path clip-path="url(#clip090)" d="M818.562 148.201 L818.562 150.284 L798.979 150.284 Q799.257 154.682 801.618 156.997 Q804.002 159.289 808.238 159.289 Q810.692 159.289 812.984 158.687 Q815.298 158.085 817.567 156.881 L817.567 160.909 Q815.275 161.881 812.868 162.391 Q810.46 162.9 807.984 162.9 Q801.78 162.9 798.146 159.289 Q794.535 155.678 794.535 149.52 Q794.535 143.155 797.961 139.428 Q801.41 135.678 807.243 135.678 Q812.474 135.678 815.507 139.057 Q818.562 142.414 818.562 148.201 M814.303 146.951 Q814.257 143.456 812.335 141.372 Q810.437 139.289 807.289 139.289 Q803.724 139.289 801.572 141.303 Q799.442 143.317 799.118 146.974 L814.303 146.951 Z" fill="#000000" fill-rule="nonzero" fill-opacity="1" /><path clip-path="url(#clip090)" d="M844.21 137.298 L844.21 141.28 Q842.405 140.284 840.576 139.798 Q838.771 139.289 836.919 139.289 Q832.775 139.289 830.484 141.928 Q828.192 144.544 828.192 149.289 Q828.192 154.034 830.484 156.673 Q832.775 159.289 836.919 159.289 Q838.771 159.289 840.576 158.803 Q842.405 158.293 844.21 157.298 L844.21 161.233 Q842.428 162.067 840.507 162.483 Q838.608 162.9 836.456 162.9 Q830.599 162.9 827.15 159.219 Q823.701 155.539 823.701 149.289 Q823.701 142.946 827.173 139.312 Q830.669 135.678 836.733 135.678 Q838.701 135.678 840.576 136.095 Q842.451 136.488 844.21 137.298 Z" fill="#000000" fill-rule="nonzero" fill-opacity="1" /><path clip-path="url(#clip090)" d="M855.831 128.942 L855.831 136.303 L864.604 136.303 L864.604 139.613 L855.831 139.613 L855.831 153.687 Q855.831 156.858 856.687 157.761 Q857.567 158.664 860.229 158.664 L864.604 158.664 L864.604 162.229 L860.229 162.229 Q855.298 162.229 853.423 160.4 Q851.548 158.548 851.548 153.687 L851.548 139.613 L848.423 139.613 L848.423 136.303 L851.548 136.303 L851.548 128.942 L855.831 128.942 Z" fill="#000000" fill-rule="nonzero" fill-opacity="1" /></svg>
