<?xml version="1.0" encoding="utf-8"?>
<svg xmlns="http://www.w3.org/2000/svg" xmlns:xlink="http://www.w3.org/1999/xlink" width="600" height="400" viewBox="0 0 2400 1600">
<defs>
  <clipPath id="clip150">
    <rect x="0" y="0" width="2400" height="1600"/>
  </clipPath>
</defs>
<path clip-path="url(#clip150)" d="M0 1600 L2400 1600 L2400 0 L0 0  Z" fill="#ffffff" fill-rule="evenodd" fill-opacity="1"/>
<defs>
  <clipPath id="clip151">
    <rect x="480" y="0" width="1681" height="1600"/>
  </clipPath>
</defs>
<path clip-path="url(#clip150)" d="M257.955 1423.18 L2352.76 1423.18 L2352.76 123.472 L257.955 123.472  Z" fill="#ffffff" fill-rule="evenodd" fill-opacity="1"/>
<defs>
  <clipPath id="clip152">
    <rect x="257" y="123" width="2096" height="1301"/>
  </clipPath>
</defs>
<polyline clip-path="url(#clip152)" style="stroke:#000000; stroke-linecap:round; stroke-linejoin:round; stroke-width:2; stroke-opacity:0.1; fill:none" points="298.424,1423.18 298.424,123.472 "/>
<polyline clip-path="url(#clip152)" style="stroke:#000000; stroke-linecap:round; stroke-linejoin:round; stroke-width:2; stroke-opacity:0.1; fill:none" points="791.112,1423.18 791.112,123.472 "/>
<polyline clip-path="url(#clip152)" style="stroke:#000000; stroke-linecap:round; stroke-linejoin:round; stroke-width:2; stroke-opacity:0.1; fill:none" points="1289.27,1423.18 1289.27,123.472 "/>
<polyline clip-path="url(#clip152)" style="stroke:#000000; stroke-linecap:round; stroke-linejoin:round; stroke-width:2; stroke-opacity:0.1; fill:none" points="1792.91,1423.18 1792.91,123.472 "/>
<polyline clip-path="url(#clip152)" style="stroke:#000000; stroke-linecap:round; stroke-linejoin:round; stroke-width:2; stroke-opacity:0.1; fill:none" points="2296.55,1423.18 2296.55,123.472 "/>
<polyline clip-path="url(#clip152)" style="stroke:#000000; stroke-linecap:round; stroke-linejoin:round; stroke-width:2; stroke-opacity:0.05; fill:none" points="396.961,1423.18 396.961,123.472 "/>
<polyline clip-path="url(#clip152)" style="stroke:#000000; stroke-linecap:round; stroke-linejoin:round; stroke-width:2; stroke-opacity:0.05; fill:none" points="495.499,1423.18 495.499,123.472 "/>
<polyline clip-path="url(#clip152)" style="stroke:#000000; stroke-linecap:round; stroke-linejoin:round; stroke-width:2; stroke-opacity:0.05; fill:none" points="594.037,1423.18 594.037,123.472 "/>
<polyline clip-path="url(#clip152)" style="stroke:#000000; stroke-linecap:round; stroke-linejoin:round; stroke-width:2; stroke-opacity:0.05; fill:none" points="692.574,1423.18 692.574,123.472 "/>
<polyline clip-path="url(#clip152)" style="stroke:#000000; stroke-linecap:round; stroke-linejoin:round; stroke-width:2; stroke-opacity:0.05; fill:none" points="890.745,1423.18 890.745,123.472 "/>
<polyline clip-path="url(#clip152)" style="stroke:#000000; stroke-linecap:round; stroke-linejoin:round; stroke-width:2; stroke-opacity:0.05; fill:none" points="990.377,1423.18 990.377,123.472 "/>
<polyline clip-path="url(#clip152)" style="stroke:#000000; stroke-linecap:round; stroke-linejoin:round; stroke-width:2; stroke-opacity:0.05; fill:none" points="1090.01,1423.18 1090.01,123.472 "/>
<polyline clip-path="url(#clip152)" style="stroke:#000000; stroke-linecap:round; stroke-linejoin:round; stroke-width:2; stroke-opacity:0.05; fill:none" points="1189.64,1423.18 1189.64,123.472 "/>
<polyline clip-path="url(#clip152)" style="stroke:#000000; stroke-linecap:round; stroke-linejoin:round; stroke-width:2; stroke-opacity:0.05; fill:none" points="1390,1423.18 1390,123.472 "/>
<polyline clip-path="url(#clip152)" style="stroke:#000000; stroke-linecap:round; stroke-linejoin:round; stroke-width:2; stroke-opacity:0.05; fill:none" points="1490.73,1423.18 1490.73,123.472 "/>
<polyline clip-path="url(#clip152)" style="stroke:#000000; stroke-linecap:round; stroke-linejoin:round; stroke-width:2; stroke-opacity:0.05; fill:none" points="1591.46,1423.18 1591.46,123.472 "/>
<polyline clip-path="url(#clip152)" style="stroke:#000000; stroke-linecap:round; stroke-linejoin:round; stroke-width:2; stroke-opacity:0.05; fill:none" points="1692.18,1423.18 1692.18,123.472 "/>
<polyline clip-path="url(#clip152)" style="stroke:#000000; stroke-linecap:round; stroke-linejoin:round; stroke-width:2; stroke-opacity:0.05; fill:none" points="1893.64,1423.18 1893.64,123.472 "/>
<polyline clip-path="url(#clip152)" style="stroke:#000000; stroke-linecap:round; stroke-linejoin:round; stroke-width:2; stroke-opacity:0.05; fill:none" points="1994.37,1423.18 1994.37,123.472 "/>
<polyline clip-path="url(#clip152)" style="stroke:#000000; stroke-linecap:round; stroke-linejoin:round; stroke-width:2; stroke-opacity:0.05; fill:none" points="2095.09,1423.18 2095.09,123.472 "/>
<polyline clip-path="url(#clip152)" style="stroke:#000000; stroke-linecap:round; stroke-linejoin:round; stroke-width:2; stroke-opacity:0.05; fill:none" points="2195.82,1423.18 2195.82,123.472 "/>
<polyline clip-path="url(#clip150)" style="stroke:#000000; stroke-linecap:round; stroke-linejoin:round; stroke-width:4; stroke-opacity:1; fill:none" points="257.955,1423.18 2352.76,1423.18 "/>
<polyline clip-path="url(#clip150)" style="stroke:#000000; stroke-linecap:round; stroke-linejoin:round; stroke-width:4; stroke-opacity:1; fill:none" points="298.424,1423.18 298.424,1404.28 "/>
<polyline clip-path="url(#clip150)" style="stroke:#000000; stroke-linecap:round; stroke-linejoin:round; stroke-width:4; stroke-opacity:1; fill:none" points="791.112,1423.18 791.112,1404.28 "/>
<polyline clip-path="url(#clip150)" style="stroke:#000000; stroke-linecap:round; stroke-linejoin:round; stroke-width:4; stroke-opacity:1; fill:none" points="1289.27,1423.18 1289.27,1404.28 "/>
<polyline clip-path="url(#clip150)" style="stroke:#000000; stroke-linecap:round; stroke-linejoin:round; stroke-width:4; stroke-opacity:1; fill:none" points="1792.91,1423.18 1792.91,1404.28 "/>
<polyline clip-path="url(#clip150)" style="stroke:#000000; stroke-linecap:round; stroke-linejoin:round; stroke-width:4; stroke-opacity:1; fill:none" points="2296.55,1423.18 2296.55,1404.28 "/>
<polyline clip-path="url(#clip150)" style="stroke:#000000; stroke-linecap:round; stroke-linejoin:round; stroke-width:4; stroke-opacity:1; fill:none" points="396.961,1423.18 396.961,1413.73 "/>
<polyline clip-path="url(#clip150)" style="stroke:#000000; stroke-linecap:round; stroke-linejoin:round; stroke-width:4; stroke-opacity:1; fill:none" points="495.499,1423.18 495.499,1413.73 "/>
<polyline clip-path="url(#clip150)" style="stroke:#000000; stroke-linecap:round; stroke-linejoin:round; stroke-width:4; stroke-opacity:1; fill:none" points="594.037,1423.18 594.037,1413.73 "/>
<polyline clip-path="url(#clip150)" style="stroke:#000000; stroke-linecap:round; stroke-linejoin:round; stroke-width:4; stroke-opacity:1; fill:none" points="692.574,1423.18 692.574,1413.73 "/>
<polyline clip-path="url(#clip150)" style="stroke:#000000; stroke-linecap:round; stroke-linejoin:round; stroke-width:4; stroke-opacity:1; fill:none" points="890.745,1423.18 890.745,1413.73 "/>
<polyline clip-path="url(#clip150)" style="stroke:#000000; stroke-linecap:round; stroke-linejoin:round; stroke-width:4; stroke-opacity:1; fill:none" points="990.377,1423.18 990.377,1413.73 "/>
<polyline clip-path="url(#clip150)" style="stroke:#000000; stroke-linecap:round; stroke-linejoin:round; stroke-width:4; stroke-opacity:1; fill:none" points="1090.01,1423.18 1090.01,1413.73 "/>
<polyline clip-path="url(#clip150)" style="stroke:#000000; stroke-linecap:round; stroke-linejoin:round; stroke-width:4; stroke-opacity:1; fill:none" points="1189.64,1423.18 1189.64,1413.73 "/>
<polyline clip-path="url(#clip150)" style="stroke:#000000; stroke-linecap:round; stroke-linejoin:round; stroke-width:4; stroke-opacity:1; fill:none" points="1390,1423.18 1390,1413.73 "/>
<polyline clip-path="url(#clip150)" style="stroke:#000000; stroke-linecap:round; stroke-linejoin:round; stroke-width:4; stroke-opacity:1; fill:none" points="1490.73,1423.18 1490.73,1413.73 "/>
<polyline clip-path="url(#clip150)" style="stroke:#000000; stroke-linecap:round; stroke-linejoin:round; stroke-width:4; stroke-opacity:1; fill:none" points="1591.46,1423.18 1591.46,1413.73 "/>
<polyline clip-path="url(#clip150)" style="stroke:#000000; stroke-linecap:round; stroke-linejoin:round; stroke-width:4; stroke-opacity:1; fill:none" points="1692.18,1423.18 1692.18,1413.73 "/>
<polyline clip-path="url(#clip150)" style="stroke:#000000; stroke-linecap:round; stroke-linejoin:round; stroke-width:4; stroke-opacity:1; fill:none" points="1893.64,1423.18 1893.64,1413.73 "/>
<polyline clip-path="url(#clip150)" style="stroke:#000000; stroke-linecap:round; stroke-linejoin:round; stroke-width:4; stroke-opacity:1; fill:none" points="1994.37,1423.18 1994.37,1413.73 "/>
<polyline clip-path="url(#clip150)" style="stroke:#000000; stroke-linecap:round; stroke-linejoin:round; stroke-width:4; stroke-opacity:1; fill:none" points="2095.09,1423.18 2095.09,1413.73 "/>
<polyline clip-path="url(#clip150)" style="stroke:#000000; stroke-linecap:round; stroke-linejoin:round; stroke-width:4; stroke-opacity:1; fill:none" points="2195.82,1423.18 2195.82,1413.73 "/>
<path clip-path="url(#clip150)" d="M170.218 1481.64 L186.538 1481.64 L186.538 1485.58 L164.593 1485.58 L164.593 1481.64 Q167.255 1478.89 171.839 1474.26 Q176.445 1469.61 177.626 1468.27 Q179.871 1465.74 180.751 1464.01 Q181.654 1462.25 181.654 1460.56 Q181.654 1457.8 179.709 1456.07 Q177.788 1454.33 174.686 1454.33 Q172.487 1454.33 170.033 1455.09 Q167.603 1455.86 164.825 1457.41 L164.825 1452.69 Q167.649 1451.55 170.103 1450.97 Q172.556 1450.39 174.593 1450.39 Q179.964 1450.39 183.158 1453.08 Q186.353 1455.77 186.353 1460.26 Q186.353 1462.39 185.542 1464.31 Q184.755 1466.2 182.649 1468.8 Q182.07 1469.47 178.968 1472.69 Q175.867 1475.88 170.218 1481.64 Z" fill="#000000" fill-rule="nonzero" fill-opacity="1" /><path clip-path="url(#clip150)" d="M206.352 1454.1 Q202.741 1454.1 200.913 1457.66 Q199.107 1461.2 199.107 1468.33 Q199.107 1475.44 200.913 1479.01 Q202.741 1482.55 206.352 1482.55 Q209.987 1482.55 211.792 1479.01 Q213.621 1475.44 213.621 1468.33 Q213.621 1461.2 211.792 1457.66 Q209.987 1454.1 206.352 1454.1 M206.352 1450.39 Q212.163 1450.39 215.218 1455 Q218.297 1459.58 218.297 1468.33 Q218.297 1477.06 215.218 1481.67 Q212.163 1486.25 206.352 1486.25 Q200.542 1486.25 197.464 1481.67 Q194.408 1477.06 194.408 1468.33 Q194.408 1459.58 197.464 1455 Q200.542 1450.39 206.352 1450.39 Z" fill="#000000" fill-rule="nonzero" fill-opacity="1" /><path clip-path="url(#clip150)" d="M230.542 1481.64 L246.862 1481.64 L246.862 1485.58 L224.917 1485.58 L224.917 1481.64 Q227.579 1478.89 232.163 1474.26 Q236.769 1469.61 237.95 1468.27 Q240.195 1465.74 241.075 1464.01 Q241.977 1462.25 241.977 1460.56 Q241.977 1457.8 240.033 1456.07 Q238.112 1454.33 235.01 1454.33 Q232.811 1454.33 230.357 1455.09 Q227.926 1455.86 225.149 1457.41 L225.149 1452.69 Q227.973 1451.55 230.426 1450.97 Q232.88 1450.39 234.917 1450.39 Q240.287 1450.39 243.482 1453.08 Q246.676 1455.77 246.676 1460.26 Q246.676 1462.39 245.866 1464.31 Q245.079 1466.2 242.973 1468.8 Q242.394 1469.47 239.292 1472.69 Q236.19 1475.88 230.542 1481.64 Z" fill="#000000" fill-rule="nonzero" fill-opacity="1" /><path clip-path="url(#clip150)" d="M257.486 1481.64 L265.125 1481.64 L265.125 1455.28 L256.815 1456.95 L256.815 1452.69 L265.079 1451.02 L269.755 1451.02 L269.755 1481.64 L277.394 1481.64 L277.394 1485.58 L257.486 1485.58 L257.486 1481.64 Z" fill="#000000" fill-rule="nonzero" fill-opacity="1" /><path clip-path="url(#clip150)" d="M284.084 1470.7 L296.56 1470.7 L296.56 1474.49 L284.084 1474.49 L284.084 1470.7 Z" fill="#000000" fill-rule="nonzero" fill-opacity="1" /><path clip-path="url(#clip150)" d="M313.945 1454.1 Q310.333 1454.1 308.505 1457.66 Q306.699 1461.2 306.699 1468.33 Q306.699 1475.44 308.505 1479.01 Q310.333 1482.55 313.945 1482.55 Q317.579 1482.55 319.384 1479.01 Q321.213 1475.44 321.213 1468.33 Q321.213 1461.2 319.384 1457.66 Q317.579 1454.1 313.945 1454.1 M313.945 1450.39 Q319.755 1450.39 322.81 1455 Q325.889 1459.58 325.889 1468.33 Q325.889 1477.06 322.81 1481.67 Q319.755 1486.25 313.945 1486.25 Q308.134 1486.25 305.056 1481.67 Q302 1477.06 302 1468.33 Q302 1459.58 305.056 1455 Q308.134 1450.39 313.945 1450.39 Z" fill="#000000" fill-rule="nonzero" fill-opacity="1" /><path clip-path="url(#clip150)" d="M334.917 1481.64 L342.555 1481.64 L342.555 1455.28 L334.245 1456.95 L334.245 1452.69 L342.509 1451.02 L347.185 1451.02 L347.185 1481.64 L354.824 1481.64 L354.824 1485.58 L334.917 1485.58 L334.917 1481.64 Z" fill="#000000" fill-rule="nonzero" fill-opacity="1" /><path clip-path="url(#clip150)" d="M361.514 1470.7 L373.99 1470.7 L373.99 1474.49 L361.514 1474.49 L361.514 1470.7 Z" fill="#000000" fill-rule="nonzero" fill-opacity="1" /><path clip-path="url(#clip150)" d="M391.375 1454.1 Q387.764 1454.1 385.935 1457.66 Q384.129 1461.2 384.129 1468.33 Q384.129 1475.44 385.935 1479.01 Q387.764 1482.55 391.375 1482.55 Q395.009 1482.55 396.814 1479.01 Q398.643 1475.44 398.643 1468.33 Q398.643 1461.2 396.814 1457.66 Q395.009 1454.1 391.375 1454.1 M391.375 1450.39 Q397.185 1450.39 400.24 1455 Q403.319 1459.58 403.319 1468.33 Q403.319 1477.06 400.24 1481.67 Q397.185 1486.25 391.375 1486.25 Q385.564 1486.25 382.486 1481.67 Q379.43 1477.06 379.43 1468.33 Q379.43 1459.58 382.486 1455 Q385.564 1450.39 391.375 1450.39 Z" fill="#000000" fill-rule="nonzero" fill-opacity="1" /><path clip-path="url(#clip150)" d="M412.347 1481.64 L419.986 1481.64 L419.986 1455.28 L411.675 1456.95 L411.675 1452.69 L419.939 1451.02 L424.615 1451.02 L424.615 1481.64 L432.254 1481.64 L432.254 1485.58 L412.347 1485.58 L412.347 1481.64 Z" fill="#000000" fill-rule="nonzero" fill-opacity="1" /><path clip-path="url(#clip150)" d="M662.907 1481.64 L679.226 1481.64 L679.226 1485.58 L657.282 1485.58 L657.282 1481.64 Q659.944 1478.89 664.527 1474.26 Q669.134 1469.61 670.314 1468.27 Q672.559 1465.74 673.439 1464.01 Q674.342 1462.25 674.342 1460.56 Q674.342 1457.8 672.397 1456.07 Q670.476 1454.33 667.374 1454.33 Q665.175 1454.33 662.722 1455.09 Q660.291 1455.86 657.513 1457.41 L657.513 1452.69 Q660.337 1451.55 662.791 1450.97 Q665.245 1450.39 667.282 1450.39 Q672.652 1450.39 675.846 1453.08 Q679.041 1455.77 679.041 1460.26 Q679.041 1462.39 678.231 1464.31 Q677.444 1466.2 675.337 1468.8 Q674.758 1469.47 671.657 1472.69 Q668.555 1475.88 662.907 1481.64 Z" fill="#000000" fill-rule="nonzero" fill-opacity="1" /><path clip-path="url(#clip150)" d="M699.041 1454.1 Q695.43 1454.1 693.601 1457.66 Q691.795 1461.2 691.795 1468.33 Q691.795 1475.44 693.601 1479.01 Q695.43 1482.55 699.041 1482.55 Q702.675 1482.55 704.481 1479.01 Q706.309 1475.44 706.309 1468.33 Q706.309 1461.2 704.481 1457.66 Q702.675 1454.1 699.041 1454.1 M699.041 1450.39 Q704.851 1450.39 707.906 1455 Q710.985 1459.58 710.985 1468.33 Q710.985 1477.06 707.906 1481.67 Q704.851 1486.25 699.041 1486.25 Q693.231 1486.25 690.152 1481.67 Q687.096 1477.06 687.096 1468.33 Q687.096 1459.58 690.152 1455 Q693.231 1450.39 699.041 1450.39 Z" fill="#000000" fill-rule="nonzero" fill-opacity="1" /><path clip-path="url(#clip150)" d="M723.23 1481.64 L739.55 1481.64 L739.55 1485.58 L717.605 1485.58 L717.605 1481.64 Q720.267 1478.89 724.851 1474.26 Q729.457 1469.61 730.638 1468.27 Q732.883 1465.74 733.763 1464.01 Q734.666 1462.25 734.666 1460.56 Q734.666 1457.8 732.721 1456.07 Q730.8 1454.33 727.698 1454.33 Q725.499 1454.33 723.045 1455.09 Q720.615 1455.86 717.837 1457.41 L717.837 1452.69 Q720.661 1451.55 723.115 1450.97 Q725.568 1450.39 727.605 1450.39 Q732.976 1450.39 736.17 1453.08 Q739.365 1455.77 739.365 1460.26 Q739.365 1462.39 738.554 1464.31 Q737.767 1466.2 735.661 1468.8 Q735.082 1469.47 731.98 1472.69 Q728.879 1475.88 723.23 1481.64 Z" fill="#000000" fill-rule="nonzero" fill-opacity="1" /><path clip-path="url(#clip150)" d="M750.175 1481.64 L757.814 1481.64 L757.814 1455.28 L749.503 1456.95 L749.503 1452.69 L757.767 1451.02 L762.443 1451.02 L762.443 1481.64 L770.082 1481.64 L770.082 1485.58 L750.175 1485.58 L750.175 1481.64 Z" fill="#000000" fill-rule="nonzero" fill-opacity="1" /><path clip-path="url(#clip150)" d="M776.772 1470.7 L789.249 1470.7 L789.249 1474.49 L776.772 1474.49 L776.772 1470.7 Z" fill="#000000" fill-rule="nonzero" fill-opacity="1" /><path clip-path="url(#clip150)" d="M806.633 1454.1 Q803.022 1454.1 801.193 1457.66 Q799.387 1461.2 799.387 1468.33 Q799.387 1475.44 801.193 1479.01 Q803.022 1482.55 806.633 1482.55 Q810.267 1482.55 812.073 1479.01 Q813.901 1475.44 813.901 1468.33 Q813.901 1461.2 812.073 1457.66 Q810.267 1454.1 806.633 1454.1 M806.633 1450.39 Q812.443 1450.39 815.498 1455 Q818.577 1459.58 818.577 1468.33 Q818.577 1477.06 815.498 1481.67 Q812.443 1486.25 806.633 1486.25 Q800.823 1486.25 797.744 1481.67 Q794.688 1477.06 794.688 1468.33 Q794.688 1459.58 797.744 1455 Q800.823 1450.39 806.633 1450.39 Z" fill="#000000" fill-rule="nonzero" fill-opacity="1" /><path clip-path="url(#clip150)" d="M839.642 1455.09 L827.836 1473.54 L839.642 1473.54 L839.642 1455.09 M838.415 1451.02 L844.295 1451.02 L844.295 1473.54 L849.225 1473.54 L849.225 1477.43 L844.295 1477.43 L844.295 1485.58 L839.642 1485.58 L839.642 1477.43 L824.04 1477.43 L824.04 1472.92 L838.415 1451.02 Z" fill="#000000" fill-rule="nonzero" fill-opacity="1" /><path clip-path="url(#clip150)" d="M854.202 1470.7 L866.679 1470.7 L866.679 1474.49 L854.202 1474.49 L854.202 1470.7 Z" fill="#000000" fill-rule="nonzero" fill-opacity="1" /><path clip-path="url(#clip150)" d="M884.063 1454.1 Q880.452 1454.1 878.623 1457.66 Q876.818 1461.2 876.818 1468.33 Q876.818 1475.44 878.623 1479.01 Q880.452 1482.55 884.063 1482.55 Q887.697 1482.55 889.503 1479.01 Q891.331 1475.44 891.331 1468.33 Q891.331 1461.2 889.503 1457.66 Q887.697 1454.1 884.063 1454.1 M884.063 1450.39 Q889.873 1450.39 892.929 1455 Q896.007 1459.58 896.007 1468.33 Q896.007 1477.06 892.929 1481.67 Q889.873 1486.25 884.063 1486.25 Q878.253 1486.25 875.174 1481.67 Q872.119 1477.06 872.119 1468.33 Q872.119 1459.58 875.174 1455 Q878.253 1450.39 884.063 1450.39 Z" fill="#000000" fill-rule="nonzero" fill-opacity="1" /><path clip-path="url(#clip150)" d="M905.035 1481.64 L912.674 1481.64 L912.674 1455.28 L904.364 1456.95 L904.364 1452.69 L912.628 1451.02 L917.303 1451.02 L917.303 1481.64 L924.942 1481.64 L924.942 1485.58 L905.035 1485.58 L905.035 1481.64 Z" fill="#000000" fill-rule="nonzero" fill-opacity="1" /><path clip-path="url(#clip150)" d="M1161.07 1481.64 L1177.39 1481.64 L1177.39 1485.58 L1155.44 1485.58 L1155.44 1481.64 Q1158.11 1478.89 1162.69 1474.26 Q1167.3 1469.61 1168.48 1468.27 Q1170.72 1465.74 1171.6 1464.01 Q1172.5 1462.25 1172.5 1460.56 Q1172.5 1457.8 1170.56 1456.07 Q1168.64 1454.33 1165.54 1454.33 Q1163.34 1454.33 1160.88 1455.09 Q1158.45 1455.86 1155.68 1457.41 L1155.68 1452.69 Q1158.5 1451.55 1160.95 1450.97 Q1163.41 1450.39 1165.44 1450.39 Q1170.81 1450.39 1174.01 1453.08 Q1177.2 1455.77 1177.2 1460.26 Q1177.2 1462.39 1176.39 1464.31 Q1175.61 1466.2 1173.5 1468.8 Q1172.92 1469.47 1169.82 1472.69 Q1166.72 1475.88 1161.07 1481.64 Z" fill="#000000" fill-rule="nonzero" fill-opacity="1" /><path clip-path="url(#clip150)" d="M1197.2 1454.1 Q1193.59 1454.1 1191.76 1457.66 Q1189.96 1461.2 1189.96 1468.33 Q1189.96 1475.44 1191.76 1479.01 Q1193.59 1482.55 1197.2 1482.55 Q1200.84 1482.55 1202.64 1479.01 Q1204.47 1475.44 1204.47 1468.33 Q1204.47 1461.2 1202.64 1457.66 Q1200.84 1454.1 1197.2 1454.1 M1197.2 1450.39 Q1203.01 1450.39 1206.07 1455 Q1209.15 1459.58 1209.15 1468.33 Q1209.15 1477.06 1206.07 1481.67 Q1203.01 1486.25 1197.2 1486.25 Q1191.39 1486.25 1188.31 1481.67 Q1185.26 1477.06 1185.26 1468.33 Q1185.26 1459.58 1188.31 1455 Q1191.39 1450.39 1197.2 1450.39 Z" fill="#000000" fill-rule="nonzero" fill-opacity="1" /><path clip-path="url(#clip150)" d="M1221.39 1481.64 L1237.71 1481.64 L1237.71 1485.58 L1215.77 1485.58 L1215.77 1481.64 Q1218.43 1478.89 1223.01 1474.26 Q1227.62 1469.61 1228.8 1468.27 Q1231.05 1465.74 1231.93 1464.01 Q1232.83 1462.25 1232.83 1460.56 Q1232.83 1457.8 1230.88 1456.07 Q1228.96 1454.33 1225.86 1454.33 Q1223.66 1454.33 1221.21 1455.09 Q1218.78 1455.86 1216 1457.41 L1216 1452.69 Q1218.82 1451.55 1221.28 1450.97 Q1223.73 1450.39 1225.77 1450.39 Q1231.14 1450.39 1234.33 1453.08 Q1237.53 1455.77 1237.53 1460.26 Q1237.53 1462.39 1236.72 1464.31 Q1235.93 1466.2 1233.82 1468.8 Q1233.24 1469.47 1230.14 1472.69 Q1227.04 1475.88 1221.39 1481.64 Z" fill="#000000" fill-rule="nonzero" fill-opacity="1" /><path clip-path="url(#clip150)" d="M1248.34 1481.64 L1255.98 1481.64 L1255.98 1455.28 L1247.67 1456.95 L1247.67 1452.69 L1255.93 1451.02 L1260.61 1451.02 L1260.61 1481.64 L1268.24 1481.64 L1268.24 1485.58 L1248.34 1485.58 L1248.34 1481.64 Z" fill="#000000" fill-rule="nonzero" fill-opacity="1" /><path clip-path="url(#clip150)" d="M1274.93 1470.7 L1287.41 1470.7 L1287.41 1474.49 L1274.93 1474.49 L1274.93 1470.7 Z" fill="#000000" fill-rule="nonzero" fill-opacity="1" /><path clip-path="url(#clip150)" d="M1304.8 1454.1 Q1301.18 1454.1 1299.36 1457.66 Q1297.55 1461.2 1297.55 1468.33 Q1297.55 1475.44 1299.36 1479.01 Q1301.18 1482.55 1304.8 1482.55 Q1308.43 1482.55 1310.24 1479.01 Q1312.06 1475.44 1312.06 1468.33 Q1312.06 1461.2 1310.24 1457.66 Q1308.43 1454.1 1304.8 1454.1 M1304.8 1450.39 Q1310.61 1450.39 1313.66 1455 Q1316.74 1459.58 1316.74 1468.33 Q1316.74 1477.06 1313.66 1481.67 Q1310.61 1486.25 1304.8 1486.25 Q1298.99 1486.25 1295.91 1481.67 Q1292.85 1477.06 1292.85 1468.33 Q1292.85 1459.58 1295.91 1455 Q1298.99 1450.39 1304.8 1450.39 Z" fill="#000000" fill-rule="nonzero" fill-opacity="1" /><path clip-path="url(#clip150)" d="M1323.78 1451.02 L1346 1451.02 L1346 1453.01 L1333.45 1485.58 L1328.57 1485.58 L1340.37 1454.96 L1323.78 1454.96 L1323.78 1451.02 Z" fill="#000000" fill-rule="nonzero" fill-opacity="1" /><path clip-path="url(#clip150)" d="M1352.36 1470.7 L1364.84 1470.7 L1364.84 1474.49 L1352.36 1474.49 L1352.36 1470.7 Z" fill="#000000" fill-rule="nonzero" fill-opacity="1" /><path clip-path="url(#clip150)" d="M1382.23 1454.1 Q1378.61 1454.1 1376.79 1457.66 Q1374.98 1461.2 1374.98 1468.33 Q1374.98 1475.44 1376.79 1479.01 Q1378.61 1482.55 1382.23 1482.55 Q1385.86 1482.55 1387.67 1479.01 Q1389.49 1475.44 1389.49 1468.33 Q1389.49 1461.2 1387.67 1457.66 Q1385.86 1454.1 1382.23 1454.1 M1382.23 1450.39 Q1388.04 1450.39 1391.09 1455 Q1394.17 1459.58 1394.17 1468.33 Q1394.17 1477.06 1391.09 1481.67 Q1388.04 1486.25 1382.23 1486.25 Q1376.42 1486.25 1373.34 1481.67 Q1370.28 1477.06 1370.28 1468.33 Q1370.28 1459.58 1373.34 1455 Q1376.42 1450.39 1382.23 1450.39 Z" fill="#000000" fill-rule="nonzero" fill-opacity="1" /><path clip-path="url(#clip150)" d="M1403.2 1481.64 L1410.84 1481.64 L1410.84 1455.28 L1402.53 1456.95 L1402.53 1452.69 L1410.79 1451.02 L1415.47 1451.02 L1415.47 1481.64 L1423.1 1481.64 L1423.1 1485.58 L1403.2 1485.58 L1403.2 1481.64 Z" fill="#000000" fill-rule="nonzero" fill-opacity="1" /><path clip-path="url(#clip150)" d="M1664.71 1481.64 L1681.03 1481.64 L1681.03 1485.58 L1659.08 1485.58 L1659.08 1481.64 Q1661.74 1478.89 1666.33 1474.26 Q1670.93 1469.61 1672.11 1468.27 Q1674.36 1465.74 1675.24 1464.01 Q1676.14 1462.25 1676.14 1460.56 Q1676.14 1457.8 1674.2 1456.07 Q1672.28 1454.33 1669.17 1454.33 Q1666.97 1454.33 1664.52 1455.09 Q1662.09 1455.86 1659.31 1457.41 L1659.31 1452.69 Q1662.14 1451.55 1664.59 1450.97 Q1667.04 1450.39 1669.08 1450.39 Q1674.45 1450.39 1677.65 1453.08 Q1680.84 1455.77 1680.84 1460.26 Q1680.84 1462.39 1680.03 1464.31 Q1679.24 1466.2 1677.14 1468.8 Q1676.56 1469.47 1673.46 1472.69 Q1670.35 1475.88 1664.71 1481.64 Z" fill="#000000" fill-rule="nonzero" fill-opacity="1" /><path clip-path="url(#clip150)" d="M1700.84 1454.1 Q1697.23 1454.1 1695.4 1457.66 Q1693.59 1461.2 1693.59 1468.33 Q1693.59 1475.44 1695.4 1479.01 Q1697.23 1482.55 1700.84 1482.55 Q1704.47 1482.55 1706.28 1479.01 Q1708.11 1475.44 1708.11 1468.33 Q1708.11 1461.2 1706.28 1457.66 Q1704.47 1454.1 1700.84 1454.1 M1700.84 1450.39 Q1706.65 1450.39 1709.71 1455 Q1712.78 1459.58 1712.78 1468.33 Q1712.78 1477.06 1709.71 1481.67 Q1706.65 1486.25 1700.84 1486.25 Q1695.03 1486.25 1691.95 1481.67 Q1688.9 1477.06 1688.9 1468.33 Q1688.9 1459.58 1691.95 1455 Q1695.03 1450.39 1700.84 1450.39 Z" fill="#000000" fill-rule="nonzero" fill-opacity="1" /><path clip-path="url(#clip150)" d="M1725.03 1481.64 L1741.35 1481.64 L1741.35 1485.58 L1719.4 1485.58 L1719.4 1481.64 Q1722.07 1478.89 1726.65 1474.26 Q1731.26 1469.61 1732.44 1468.27 Q1734.68 1465.74 1735.56 1464.01 Q1736.47 1462.25 1736.47 1460.56 Q1736.47 1457.8 1734.52 1456.07 Q1732.6 1454.33 1729.5 1454.33 Q1727.3 1454.33 1724.84 1455.09 Q1722.41 1455.86 1719.64 1457.41 L1719.64 1452.69 Q1722.46 1451.55 1724.91 1450.97 Q1727.37 1450.39 1729.4 1450.39 Q1734.78 1450.39 1737.97 1453.08 Q1741.16 1455.77 1741.16 1460.26 Q1741.16 1462.39 1740.35 1464.31 Q1739.57 1466.2 1737.46 1468.8 Q1736.88 1469.47 1733.78 1472.69 Q1730.68 1475.88 1725.03 1481.64 Z" fill="#000000" fill-rule="nonzero" fill-opacity="1" /><path clip-path="url(#clip150)" d="M1751.97 1481.64 L1759.61 1481.64 L1759.61 1455.28 L1751.3 1456.95 L1751.3 1452.69 L1759.57 1451.02 L1764.24 1451.02 L1764.24 1481.64 L1771.88 1481.64 L1771.88 1485.58 L1751.97 1485.58 L1751.97 1481.64 Z" fill="#000000" fill-rule="nonzero" fill-opacity="1" /><path clip-path="url(#clip150)" d="M1778.57 1470.7 L1791.05 1470.7 L1791.05 1474.49 L1778.57 1474.49 L1778.57 1470.7 Z" fill="#000000" fill-rule="nonzero" fill-opacity="1" /><path clip-path="url(#clip150)" d="M1799.24 1481.64 L1806.88 1481.64 L1806.88 1455.28 L1798.57 1456.95 L1798.57 1452.69 L1806.84 1451.02 L1811.51 1451.02 L1811.51 1481.64 L1819.15 1481.64 L1819.15 1485.58 L1799.24 1485.58 L1799.24 1481.64 Z" fill="#000000" fill-rule="nonzero" fill-opacity="1" /><path clip-path="url(#clip150)" d="M1838.59 1454.1 Q1834.98 1454.1 1833.15 1457.66 Q1831.35 1461.2 1831.35 1468.33 Q1831.35 1475.44 1833.15 1479.01 Q1834.98 1482.55 1838.59 1482.55 Q1842.23 1482.55 1844.03 1479.01 Q1845.86 1475.44 1845.86 1468.33 Q1845.86 1461.2 1844.03 1457.66 Q1842.23 1454.1 1838.59 1454.1 M1838.59 1450.39 Q1844.4 1450.39 1847.46 1455 Q1850.54 1459.58 1850.54 1468.33 Q1850.54 1477.06 1847.46 1481.67 Q1844.4 1486.25 1838.59 1486.25 Q1832.78 1486.25 1829.71 1481.67 Q1826.65 1477.06 1826.65 1468.33 Q1826.65 1459.58 1829.71 1455 Q1832.78 1450.39 1838.59 1450.39 Z" fill="#000000" fill-rule="nonzero" fill-opacity="1" /><path clip-path="url(#clip150)" d="M1856 1470.7 L1868.48 1470.7 L1868.48 1474.49 L1856 1474.49 L1856 1470.7 Z" fill="#000000" fill-rule="nonzero" fill-opacity="1" /><path clip-path="url(#clip150)" d="M1885.86 1454.1 Q1882.25 1454.1 1880.42 1457.66 Q1878.62 1461.2 1878.62 1468.33 Q1878.62 1475.44 1880.42 1479.01 Q1882.25 1482.55 1885.86 1482.55 Q1889.5 1482.55 1891.3 1479.01 Q1893.13 1475.44 1893.13 1468.33 Q1893.13 1461.2 1891.3 1457.66 Q1889.5 1454.1 1885.86 1454.1 M1885.86 1450.39 Q1891.67 1450.39 1894.73 1455 Q1897.81 1459.58 1897.81 1468.33 Q1897.81 1477.06 1894.73 1481.67 Q1891.67 1486.25 1885.86 1486.25 Q1880.05 1486.25 1876.97 1481.67 Q1873.92 1477.06 1873.92 1468.33 Q1873.92 1459.58 1876.97 1455 Q1880.05 1450.39 1885.86 1450.39 Z" fill="#000000" fill-rule="nonzero" fill-opacity="1" /><path clip-path="url(#clip150)" d="M1906.83 1481.64 L1914.47 1481.64 L1914.47 1455.28 L1906.16 1456.95 L1906.16 1452.69 L1914.43 1451.02 L1919.1 1451.02 L1919.1 1481.64 L1926.74 1481.64 L1926.74 1485.58 L1906.83 1485.58 L1906.83 1481.64 Z" fill="#000000" fill-rule="nonzero" fill-opacity="1" /><path clip-path="url(#clip150)" d="M2168.34 1481.64 L2184.66 1481.64 L2184.66 1485.58 L2162.72 1485.58 L2162.72 1481.64 Q2165.38 1478.89 2169.96 1474.26 Q2174.57 1469.61 2175.75 1468.27 Q2178 1465.74 2178.88 1464.01 Q2179.78 1462.25 2179.78 1460.56 Q2179.78 1457.8 2177.83 1456.07 Q2175.91 1454.33 2172.81 1454.33 Q2170.61 1454.33 2168.16 1455.09 Q2165.73 1455.86 2162.95 1457.41 L2162.95 1452.69 Q2165.77 1451.55 2168.23 1450.97 Q2170.68 1450.39 2172.72 1450.39 Q2178.09 1450.39 2181.28 1453.08 Q2184.48 1455.77 2184.48 1460.26 Q2184.48 1462.39 2183.67 1464.31 Q2182.88 1466.2 2180.77 1468.8 Q2180.19 1469.47 2177.09 1472.69 Q2173.99 1475.88 2168.34 1481.64 Z" fill="#000000" fill-rule="nonzero" fill-opacity="1" /><path clip-path="url(#clip150)" d="M2204.48 1454.1 Q2200.87 1454.1 2199.04 1457.66 Q2197.23 1461.2 2197.23 1468.33 Q2197.23 1475.44 2199.04 1479.01 Q2200.87 1482.55 2204.48 1482.55 Q2208.11 1482.55 2209.92 1479.01 Q2211.75 1475.44 2211.75 1468.33 Q2211.75 1461.2 2209.92 1457.66 Q2208.11 1454.1 2204.48 1454.1 M2204.48 1450.39 Q2210.29 1450.39 2213.34 1455 Q2216.42 1459.58 2216.42 1468.33 Q2216.42 1477.06 2213.34 1481.67 Q2210.29 1486.25 2204.48 1486.25 Q2198.67 1486.25 2195.59 1481.67 Q2192.53 1477.06 2192.53 1468.33 Q2192.53 1459.58 2195.59 1455 Q2198.67 1450.39 2204.48 1450.39 Z" fill="#000000" fill-rule="nonzero" fill-opacity="1" /><path clip-path="url(#clip150)" d="M2228.67 1481.64 L2244.99 1481.64 L2244.99 1485.58 L2223.04 1485.58 L2223.04 1481.64 Q2225.7 1478.89 2230.29 1474.26 Q2234.89 1469.61 2236.07 1468.27 Q2238.32 1465.74 2239.2 1464.01 Q2240.1 1462.25 2240.1 1460.56 Q2240.1 1457.8 2238.16 1456.07 Q2236.24 1454.33 2233.13 1454.33 Q2230.94 1454.33 2228.48 1455.09 Q2226.05 1455.86 2223.27 1457.41 L2223.27 1452.69 Q2226.1 1451.55 2228.55 1450.97 Q2231 1450.39 2233.04 1450.39 Q2238.41 1450.39 2241.61 1453.08 Q2244.8 1455.77 2244.8 1460.26 Q2244.8 1462.39 2243.99 1464.31 Q2243.2 1466.2 2241.1 1468.8 Q2240.52 1469.47 2237.42 1472.69 Q2234.31 1475.88 2228.67 1481.64 Z" fill="#000000" fill-rule="nonzero" fill-opacity="1" /><path clip-path="url(#clip150)" d="M2258.83 1481.64 L2275.15 1481.64 L2275.15 1485.58 L2253.2 1485.58 L2253.2 1481.64 Q2255.87 1478.89 2260.45 1474.26 Q2265.06 1469.61 2266.24 1468.27 Q2268.48 1465.74 2269.36 1464.01 Q2270.26 1462.25 2270.26 1460.56 Q2270.26 1457.8 2268.32 1456.07 Q2266.4 1454.33 2263.3 1454.33 Q2261.1 1454.33 2258.64 1455.09 Q2256.21 1455.86 2253.44 1457.41 L2253.44 1452.69 Q2256.26 1451.55 2258.71 1450.97 Q2261.17 1450.39 2263.2 1450.39 Q2268.57 1450.39 2271.77 1453.08 Q2274.96 1455.77 2274.96 1460.26 Q2274.96 1462.39 2274.15 1464.31 Q2273.37 1466.2 2271.26 1468.8 Q2270.68 1469.47 2267.58 1472.69 Q2264.48 1475.88 2258.83 1481.64 Z" fill="#000000" fill-rule="nonzero" fill-opacity="1" /><path clip-path="url(#clip150)" d="M2282.21 1470.7 L2294.68 1470.7 L2294.68 1474.49 L2282.21 1474.49 L2282.21 1470.7 Z" fill="#000000" fill-rule="nonzero" fill-opacity="1" /><path clip-path="url(#clip150)" d="M2312.07 1454.1 Q2308.46 1454.1 2306.63 1457.66 Q2304.82 1461.2 2304.82 1468.33 Q2304.82 1475.44 2306.63 1479.01 Q2308.46 1482.55 2312.07 1482.55 Q2315.7 1482.55 2317.51 1479.01 Q2319.34 1475.44 2319.34 1468.33 Q2319.34 1461.2 2317.51 1457.66 Q2315.7 1454.1 2312.07 1454.1 M2312.07 1450.39 Q2317.88 1450.39 2320.93 1455 Q2324.01 1459.58 2324.01 1468.33 Q2324.01 1477.06 2320.93 1481.67 Q2317.88 1486.25 2312.07 1486.25 Q2306.26 1486.25 2303.18 1481.67 Q2300.12 1477.06 2300.12 1468.33 Q2300.12 1459.58 2303.18 1455 Q2306.26 1450.39 2312.07 1450.39 Z" fill="#000000" fill-rule="nonzero" fill-opacity="1" /><path clip-path="url(#clip150)" d="M2333.04 1481.64 L2340.68 1481.64 L2340.68 1455.28 L2332.37 1456.95 L2332.37 1452.69 L2340.63 1451.02 L2345.31 1451.02 L2345.31 1481.64 L2352.95 1481.64 L2352.95 1485.58 L2333.04 1485.58 L2333.04 1481.64 Z" fill="#000000" fill-rule="nonzero" fill-opacity="1" /><path clip-path="url(#clip150)" d="M2359.64 1470.7 L2372.12 1470.7 L2372.12 1474.49 L2359.64 1474.49 L2359.64 1470.7 Z" fill="#000000" fill-rule="nonzero" fill-opacity="1" /><path clip-path="url(#clip150)" d="M2389.5 1454.1 Q2385.89 1454.1 2384.06 1457.66 Q2382.25 1461.2 2382.25 1468.33 Q2382.25 1475.44 2384.06 1479.01 Q2385.89 1482.55 2389.5 1482.55 Q2393.13 1482.55 2394.94 1479.01 Q2396.77 1475.44 2396.77 1468.33 Q2396.77 1461.2 2394.94 1457.66 Q2393.13 1454.1 2389.5 1454.1 M2389.5 1450.39 Q2395.31 1450.39 2398.36 1455 Q2401.44 1459.58 2401.44 1468.33 Q2401.44 1477.06 2398.36 1481.67 Q2395.31 1486.25 2389.5 1486.25 Q2383.69 1486.25 2380.61 1481.67 Q2377.55 1477.06 2377.55 1468.33 Q2377.55 1459.58 2380.61 1455 Q2383.69 1450.39 2389.5 1450.39 Z" fill="#000000" fill-rule="nonzero" fill-opacity="1" /><path clip-path="url(#clip150)" d="M2410.47 1481.64 L2418.11 1481.64 L2418.11 1455.28 L2409.8 1456.95 L2409.8 1452.69 L2418.06 1451.02 L2422.74 1451.02 L2422.74 1481.64 L2430.38 1481.64 L2430.38 1485.58 L2410.47 1485.58 L2410.47 1481.64 Z" fill="#000000" fill-rule="nonzero" fill-opacity="1" /><path clip-path="url(#clip150)" d="M1261.4 1537.81 L1261.4 1518.52 L1267.26 1518.52 L1267.26 1568.04 L1261.4 1568.04 L1261.4 1562.7 Q1259.55 1565.88 1256.72 1567.44 Q1253.92 1568.97 1249.97 1568.97 Q1243.51 1568.97 1239.44 1563.81 Q1235.4 1558.65 1235.4 1550.25 Q1235.4 1541.85 1239.44 1536.69 Q1243.51 1531.54 1249.97 1531.54 Q1253.92 1531.54 1256.72 1533.1 Q1259.55 1534.62 1261.4 1537.81 M1241.44 1550.25 Q1241.44 1556.71 1244.09 1560.4 Q1246.76 1564.07 1251.41 1564.07 Q1256.05 1564.07 1258.73 1560.4 Q1261.4 1556.71 1261.4 1550.25 Q1261.4 1543.79 1258.73 1540.13 Q1256.05 1536.44 1251.41 1536.44 Q1246.76 1536.44 1244.09 1540.13 Q1241.44 1543.79 1241.44 1550.25 Z" fill="#000000" fill-rule="nonzero" fill-opacity="1" /><path clip-path="url(#clip150)" d="M1295.52 1550.12 Q1288.42 1550.12 1285.69 1551.75 Q1282.95 1553.37 1282.95 1557.29 Q1282.95 1560.4 1284.99 1562.25 Q1287.05 1564.07 1290.59 1564.07 Q1295.46 1564.07 1298.38 1560.63 Q1301.35 1557.16 1301.35 1551.43 L1301.35 1550.12 L1295.52 1550.12 M1307.2 1547.71 L1307.2 1568.04 L1301.35 1568.04 L1301.35 1562.63 Q1299.34 1565.88 1296.35 1567.44 Q1293.36 1568.97 1289.03 1568.97 Q1283.55 1568.97 1280.31 1565.91 Q1277.09 1562.82 1277.09 1557.67 Q1277.09 1551.65 1281.1 1548.6 Q1285.14 1545.54 1293.13 1545.54 L1301.35 1545.54 L1301.35 1544.97 Q1301.35 1540.93 1298.67 1538.73 Q1296.03 1536.5 1291.22 1536.5 Q1288.17 1536.5 1285.27 1537.23 Q1282.38 1537.97 1279.7 1539.43 L1279.7 1534.02 Q1282.92 1532.78 1285.94 1532.17 Q1288.96 1531.54 1291.83 1531.54 Q1299.56 1531.54 1303.38 1535.55 Q1307.2 1539.56 1307.2 1547.71 Z" fill="#000000" fill-rule="nonzero" fill-opacity="1" /><path clip-path="url(#clip150)" d="M1325.06 1522.27 L1325.06 1532.4 L1337.12 1532.4 L1337.12 1536.95 L1325.06 1536.95 L1325.06 1556.3 Q1325.06 1560.66 1326.23 1561.9 Q1327.44 1563.14 1331.1 1563.14 L1337.12 1563.14 L1337.12 1568.04 L1331.1 1568.04 Q1324.33 1568.04 1321.75 1565.53 Q1319.17 1562.98 1319.17 1556.3 L1319.17 1536.95 L1314.87 1536.95 L1314.87 1532.4 L1319.17 1532.4 L1319.17 1522.27 L1325.06 1522.27 Z" fill="#000000" fill-rule="nonzero" fill-opacity="1" /><path clip-path="url(#clip150)" d="M1375.31 1548.76 L1375.31 1551.62 L1348.39 1551.62 Q1348.77 1557.67 1352.02 1560.85 Q1355.29 1564 1361.12 1564 Q1364.49 1564 1367.64 1563.17 Q1370.83 1562.35 1373.95 1560.69 L1373.95 1566.23 Q1370.79 1567.57 1367.48 1568.27 Q1364.17 1568.97 1360.77 1568.97 Q1352.24 1568.97 1347.24 1564 Q1342.28 1559.04 1342.28 1550.57 Q1342.28 1541.82 1346.99 1536.69 Q1351.73 1531.54 1359.75 1531.54 Q1366.94 1531.54 1371.11 1536.18 Q1375.31 1540.8 1375.31 1548.76 M1369.46 1547.04 Q1369.39 1542.23 1366.75 1539.37 Q1364.14 1536.5 1359.81 1536.5 Q1354.91 1536.5 1351.95 1539.27 Q1349.02 1542.04 1348.58 1547.07 L1369.46 1547.04 Z" fill="#000000" fill-rule="nonzero" fill-opacity="1" /><polyline clip-path="url(#clip152)" style="stroke:#000000; stroke-linecap:round; stroke-linejoin:round; stroke-width:2; stroke-opacity:0.1; fill:none" points="257.955,1345.45 2352.76,1345.45 "/>
<polyline clip-path="url(#clip152)" style="stroke:#000000; stroke-linecap:round; stroke-linejoin:round; stroke-width:2; stroke-opacity:0.1; fill:none" points="257.955,558.133 2352.76,558.133 "/>
<polyline clip-path="url(#clip150)" style="stroke:#000000; stroke-linecap:round; stroke-linejoin:round; stroke-width:4; stroke-opacity:1; fill:none" points="257.955,1423.18 257.955,123.472 "/>
<polyline clip-path="url(#clip150)" style="stroke:#000000; stroke-linecap:round; stroke-linejoin:round; stroke-width:4; stroke-opacity:1; fill:none" points="257.955,1345.45 276.853,1345.45 "/>
<polyline clip-path="url(#clip150)" style="stroke:#000000; stroke-linecap:round; stroke-linejoin:round; stroke-width:4; stroke-opacity:1; fill:none" points="257.955,558.133 276.853,558.133 "/>
<path clip-path="url(#clip150)" d="M114.931 1365.24 L122.57 1365.24 L122.57 1338.88 L114.26 1340.54 L114.26 1336.29 L122.524 1334.62 L127.2 1334.62 L127.2 1365.24 L134.839 1365.24 L134.839 1369.18 L114.931 1369.18 L114.931 1365.24 Z" fill="#000000" fill-rule="nonzero" fill-opacity="1" /><path clip-path="url(#clip150)" d="M154.283 1337.7 Q150.672 1337.7 148.843 1341.26 Q147.038 1344.8 147.038 1351.93 Q147.038 1359.04 148.843 1362.6 Q150.672 1366.15 154.283 1366.15 Q157.917 1366.15 159.723 1362.6 Q161.552 1359.04 161.552 1351.93 Q161.552 1344.8 159.723 1341.26 Q157.917 1337.7 154.283 1337.7 M154.283 1333.99 Q160.093 1333.99 163.149 1338.6 Q166.227 1343.18 166.227 1351.93 Q166.227 1360.66 163.149 1365.27 Q160.093 1369.85 154.283 1369.85 Q148.473 1369.85 145.394 1365.27 Q142.339 1360.66 142.339 1351.93 Q142.339 1343.18 145.394 1338.6 Q148.473 1333.99 154.283 1333.99 Z" fill="#000000" fill-rule="nonzero" fill-opacity="1" /><path clip-path="url(#clip150)" d="M167.412 1313.69 L182.327 1313.69 L182.327 1316.89 L170.892 1316.89 L170.892 1323.77 Q171.719 1323.49 172.547 1323.36 Q173.374 1323.21 174.202 1323.21 Q178.904 1323.21 181.65 1325.78 Q184.396 1328.36 184.396 1332.76 Q184.396 1337.29 181.575 1339.81 Q178.753 1342.31 173.619 1342.31 Q171.851 1342.31 170.008 1342.01 Q168.183 1341.71 166.227 1341.11 L166.227 1337.29 Q167.92 1338.21 169.726 1338.67 Q171.531 1339.12 173.544 1339.12 Q176.797 1339.12 178.697 1337.41 Q180.597 1335.69 180.597 1332.76 Q180.597 1329.83 178.697 1328.11 Q176.797 1326.4 173.544 1326.4 Q172.02 1326.4 170.497 1326.74 Q168.992 1327.08 167.412 1327.79 L167.412 1313.69 Z" fill="#000000" fill-rule="nonzero" fill-opacity="1" /><path clip-path="url(#clip150)" d="M191.881 1336.99 L195.85 1336.99 L195.85 1341.77 L191.881 1341.77 L191.881 1336.99 Z" fill="#000000" fill-rule="nonzero" fill-opacity="1" /><path clip-path="url(#clip150)" d="M212.25 1316.19 Q209.316 1316.19 207.83 1319.09 Q206.363 1321.96 206.363 1327.76 Q206.363 1333.53 207.83 1336.43 Q209.316 1339.3 212.25 1339.3 Q215.203 1339.3 216.67 1336.43 Q218.156 1333.53 218.156 1327.76 Q218.156 1321.96 216.67 1319.09 Q215.203 1316.19 212.25 1316.19 M212.25 1313.18 Q216.971 1313.18 219.453 1316.92 Q221.955 1320.65 221.955 1327.76 Q221.955 1334.85 219.453 1338.59 Q216.971 1342.31 212.25 1342.31 Q207.529 1342.31 205.028 1338.59 Q202.545 1334.85 202.545 1327.76 Q202.545 1320.65 205.028 1316.92 Q207.529 1313.18 212.25 1313.18 Z" fill="#000000" fill-rule="nonzero" fill-opacity="1" /><path clip-path="url(#clip150)" d="M115.74 577.925 L123.379 577.925 L123.379 551.559 L115.069 553.226 L115.069 548.967 L123.333 547.3 L128.009 547.3 L128.009 577.925 L135.647 577.925 L135.647 581.86 L115.74 581.86 L115.74 577.925 Z" fill="#000000" fill-rule="nonzero" fill-opacity="1" /><path clip-path="url(#clip150)" d="M155.092 550.379 Q151.481 550.379 149.652 553.944 Q147.846 557.485 147.846 564.615 Q147.846 571.721 149.652 575.286 Q151.481 578.828 155.092 578.828 Q158.726 578.828 160.532 575.286 Q162.36 571.721 162.36 564.615 Q162.36 557.485 160.532 553.944 Q158.726 550.379 155.092 550.379 M155.092 546.675 Q160.902 546.675 163.958 551.282 Q167.036 555.865 167.036 564.615 Q167.036 573.342 163.958 577.948 Q160.902 582.532 155.092 582.532 Q149.282 582.532 146.203 577.948 Q143.147 573.342 143.147 564.615 Q143.147 555.865 146.203 551.282 Q149.282 546.675 155.092 546.675 Z" fill="#000000" fill-rule="nonzero" fill-opacity="1" /><path clip-path="url(#clip150)" d="M168.221 526.37 L183.136 526.37 L183.136 529.567 L171.701 529.567 L171.701 536.451 Q172.528 536.169 173.356 536.037 Q174.183 535.887 175.011 535.887 Q179.713 535.887 182.459 538.463 Q185.205 541.04 185.205 545.441 Q185.205 549.974 182.383 552.494 Q179.562 554.995 174.428 554.995 Q172.66 554.995 170.817 554.694 Q168.992 554.393 167.036 553.792 L167.036 549.974 Q168.729 550.895 170.534 551.347 Q172.34 551.798 174.352 551.798 Q177.606 551.798 179.506 550.086 Q181.405 548.375 181.405 545.441 Q181.405 542.507 179.506 540.795 Q177.606 539.084 174.352 539.084 Q172.829 539.084 171.306 539.422 Q169.801 539.761 168.221 540.476 L168.221 526.37 Z" fill="#000000" fill-rule="nonzero" fill-opacity="1" /><path clip-path="url(#clip150)" d="M192.69 549.673 L196.658 549.673 L196.658 554.45 L192.69 554.45 L192.69 549.673 Z" fill="#000000" fill-rule="nonzero" fill-opacity="1" /><path clip-path="url(#clip150)" d="M204.971 526.37 L219.886 526.37 L219.886 529.567 L208.451 529.567 L208.451 536.451 Q209.278 536.169 210.106 536.037 Q210.934 535.887 211.761 535.887 Q216.463 535.887 219.209 538.463 Q221.955 541.04 221.955 545.441 Q221.955 549.974 219.134 552.494 Q216.313 554.995 211.178 554.995 Q209.41 554.995 207.567 554.694 Q205.743 554.393 203.787 553.792 L203.787 549.974 Q205.479 550.895 207.285 551.347 Q209.09 551.798 211.103 551.798 Q214.357 551.798 216.256 550.086 Q218.156 548.375 218.156 545.441 Q218.156 542.507 216.256 540.795 Q214.357 539.084 211.103 539.084 Q209.579 539.084 208.056 539.422 Q206.551 539.761 204.971 540.476 L204.971 526.37 Z" fill="#000000" fill-rule="nonzero" fill-opacity="1" /><path clip-path="url(#clip150)" d="M21.7677 1084.27 L39.6235 1084.27 L39.6235 1076.19 Q39.6235 1071.7 37.3 1069.25 Q34.9765 1066.8 30.6797 1066.8 Q26.4147 1066.8 24.0912 1069.25 Q21.7677 1071.7 21.7677 1076.19 L21.7677 1084.27 M16.4842 1090.7 L16.4842 1076.19 Q16.4842 1068.2 20.1126 1064.13 Q23.7092 1060.02 30.6797 1060.02 Q37.7138 1060.02 41.3104 1064.13 Q44.907 1068.2 44.907 1076.19 L44.907 1084.27 L64.0042 1084.27 L64.0042 1090.7 L16.4842 1090.7 Z" fill="#000000" fill-rule="nonzero" fill-opacity="1" /><path clip-path="url(#clip150)" d="M32.4621 1040.16 Q32.4621 1044.87 36.1542 1047.61 Q39.8145 1050.35 46.212 1050.35 Q52.6095 1050.35 56.3017 1047.64 Q59.9619 1044.9 59.9619 1040.16 Q59.9619 1035.48 56.2698 1032.74 Q52.5777 1030.01 46.212 1030.01 Q39.8781 1030.01 36.186 1032.74 Q32.4621 1035.48 32.4621 1040.16 M27.4968 1040.16 Q27.4968 1032.52 32.4621 1028.16 Q37.4273 1023.8 46.212 1023.8 Q54.9649 1023.8 59.9619 1028.16 Q64.9272 1032.52 64.9272 1040.16 Q64.9272 1047.83 59.9619 1052.19 Q54.9649 1056.52 46.212 1056.52 Q37.4273 1056.52 32.4621 1052.19 Q27.4968 1047.83 27.4968 1040.16 Z" fill="#000000" fill-rule="nonzero" fill-opacity="1" /><path clip-path="url(#clip150)" d="M33.8307 993.436 Q33.2578 994.423 33.0032 995.601 Q32.7167 996.746 32.7167 998.147 Q32.7167 1003.11 35.9632 1005.79 Q39.1779 1008.43 45.2253 1008.43 L64.0042 1008.43 L64.0042 1014.32 L28.3562 1014.32 L28.3562 1008.43 L33.8944 1008.43 Q30.6479 1006.58 29.0883 1003.62 Q27.4968 1000.66 27.4968 996.428 Q27.4968 995.823 27.5923 995.091 Q27.656 994.359 27.8151 993.468 L33.8307 993.436 Z" fill="#000000" fill-rule="nonzero" fill-opacity="1" /><path clip-path="url(#clip150)" d="M18.2347 981.501 L28.3562 981.501 L28.3562 969.437 L32.9077 969.437 L32.9077 981.501 L52.2594 981.501 Q56.6199 981.501 57.8613 980.323 Q59.1026 979.113 59.1026 975.453 L59.1026 969.437 L64.0042 969.437 L64.0042 975.453 Q64.0042 982.233 61.4897 984.811 Q58.9434 987.389 52.2594 987.389 L32.9077 987.389 L32.9077 991.686 L28.3562 991.686 L28.3562 987.389 L18.2347 987.389 L18.2347 981.501 Z" fill="#000000" fill-rule="nonzero" fill-opacity="1" /><path clip-path="url(#clip150)" d="M14.479 943.688 L19.3487 943.688 L19.3487 949.29 Q19.3487 952.441 20.6219 953.682 Q21.895 954.892 25.2052 954.892 L28.3562 954.892 L28.3562 945.248 L32.9077 945.248 L32.9077 954.892 L64.0042 954.892 L64.0042 960.78 L32.9077 960.78 L32.9077 966.382 L28.3562 966.382 L28.3562 960.78 L25.8736 960.78 Q19.9216 960.78 17.2162 958.011 Q14.479 955.242 14.479 949.226 L14.479 943.688 Z" fill="#000000" fill-rule="nonzero" fill-opacity="1" /><path clip-path="url(#clip150)" d="M32.4621 924.973 Q32.4621 929.684 36.1542 932.421 Q39.8145 935.158 46.212 935.158 Q52.6095 935.158 56.3017 932.453 Q59.9619 929.715 59.9619 924.973 Q59.9619 920.294 56.2698 917.557 Q52.5777 914.82 46.212 914.82 Q39.8781 914.82 36.186 917.557 Q32.4621 920.294 32.4621 924.973 M27.4968 924.973 Q27.4968 917.334 32.4621 912.974 Q37.4273 908.613 46.212 908.613 Q54.9649 908.613 59.9619 912.974 Q64.9272 917.334 64.9272 924.973 Q64.9272 932.644 59.9619 937.004 Q54.9649 941.333 46.212 941.333 Q37.4273 941.333 32.4621 937.004 Q27.4968 932.644 27.4968 924.973 Z" fill="#000000" fill-rule="nonzero" fill-opacity="1" /><path clip-path="url(#clip150)" d="M14.479 898.905 L14.479 893.049 L64.0042 893.049 L64.0042 898.905 L14.479 898.905 Z" fill="#000000" fill-rule="nonzero" fill-opacity="1" /><path clip-path="url(#clip150)" d="M28.3562 880.795 L28.3562 874.939 L64.0042 874.939 L64.0042 880.795 L28.3562 880.795 M14.479 880.795 L14.479 874.939 L21.895 874.939 L21.895 880.795 L14.479 880.795 Z" fill="#000000" fill-rule="nonzero" fill-opacity="1" /><path clip-path="url(#clip150)" d="M32.4621 848.871 Q32.4621 853.582 36.1542 856.319 Q39.8145 859.056 46.212 859.056 Q52.6095 859.056 56.3017 856.351 Q59.9619 853.613 59.9619 848.871 Q59.9619 844.192 56.2698 841.455 Q52.5777 838.718 46.212 838.718 Q39.8781 838.718 36.186 841.455 Q32.4621 844.192 32.4621 848.871 M27.4968 848.871 Q27.4968 841.232 32.4621 836.872 Q37.4273 832.511 46.212 832.511 Q54.9649 832.511 59.9619 836.872 Q64.9272 841.232 64.9272 848.871 Q64.9272 856.542 59.9619 860.902 Q54.9649 865.231 46.212 865.231 Q37.4273 865.231 32.4621 860.902 Q27.4968 856.542 27.4968 848.871 Z" fill="#000000" fill-rule="nonzero" fill-opacity="1" /><path clip-path="url(#clip150)" d="M64.0042 789.574 L16.4842 807.717 L16.4842 801.001 L56.4926 785.946 L16.4842 770.859 L16.4842 764.175 L64.0042 782.286 L64.0042 789.574 Z" fill="#000000" fill-rule="nonzero" fill-opacity="1" /><path clip-path="url(#clip150)" d="M46.0847 746.351 Q46.0847 753.449 47.7079 756.186 Q49.3312 758.924 53.2461 758.924 Q56.3653 758.924 58.2114 756.887 Q60.0256 754.818 60.0256 751.285 Q60.0256 746.415 56.5881 743.487 Q53.1188 740.527 47.3897 740.527 L46.0847 740.527 L46.0847 746.351 M43.6657 734.67 L64.0042 734.67 L64.0042 740.527 L58.5933 740.527 Q61.8398 742.532 63.3994 745.524 Q64.9272 748.516 64.9272 752.844 Q64.9272 758.319 61.8716 761.565 Q58.7843 764.78 53.6281 764.78 Q47.6125 764.78 44.5569 760.77 Q41.5014 756.727 41.5014 748.738 L41.5014 740.527 L40.9285 740.527 Q36.8862 740.527 34.6901 743.2 Q32.4621 745.842 32.4621 750.648 Q32.4621 753.704 33.1941 756.6 Q33.9262 759.496 35.3903 762.17 L29.9795 762.17 Q28.7381 758.955 28.1334 755.932 Q27.4968 752.908 27.4968 750.043 Q27.4968 742.309 31.5072 738.49 Q35.5176 734.67 43.6657 734.67 Z" fill="#000000" fill-rule="nonzero" fill-opacity="1" /><path clip-path="url(#clip150)" d="M14.479 722.607 L14.479 716.751 L64.0042 716.751 L64.0042 722.607 L14.479 722.607 Z" fill="#000000" fill-rule="nonzero" fill-opacity="1" /><path clip-path="url(#clip150)" d="M49.9359 705.102 L28.3562 705.102 L28.3562 699.245 L49.7131 699.245 Q54.7739 699.245 57.3202 697.272 Q59.8346 695.298 59.8346 691.352 Q59.8346 686.609 56.8109 683.872 Q53.7872 681.103 48.5673 681.103 L28.3562 681.103 L28.3562 675.246 L64.0042 675.246 L64.0042 681.103 L58.5296 681.103 Q61.7762 683.235 63.3676 686.068 Q64.9272 688.869 64.9272 692.593 Q64.9272 698.736 61.1078 701.919 Q57.2883 705.102 49.9359 705.102 M27.4968 690.365 L27.4968 690.365 Z" fill="#000000" fill-rule="nonzero" fill-opacity="1" /><path clip-path="url(#clip150)" d="M44.7161 632.692 L47.5806 632.692 L47.5806 659.619 Q53.6281 659.237 56.8109 655.99 Q59.9619 652.712 59.9619 646.887 Q59.9619 643.513 59.1344 640.362 Q58.3069 637.179 56.6518 634.06 L62.1899 634.06 Q63.5267 637.211 64.227 640.521 Q64.9272 643.832 64.9272 647.237 Q64.9272 655.767 59.9619 660.764 Q54.9967 665.73 46.5303 665.73 Q37.7774 665.73 32.6531 661.019 Q27.4968 656.277 27.4968 648.256 Q27.4968 641.063 32.1438 636.893 Q36.7589 632.692 44.7161 632.692 M42.9973 638.548 Q38.1912 638.612 35.3266 641.253 Q32.4621 643.863 32.4621 648.192 Q32.4621 653.094 35.2312 656.054 Q38.0002 658.982 43.0292 659.428 L42.9973 638.548 Z" fill="#000000" fill-rule="nonzero" fill-opacity="1" /><path clip-path="url(#clip150)" d="M43.5384 605.319 L43.5384 588.163 L48.7583 588.163 L48.7583 605.319 L43.5384 605.319 Z" fill="#000000" fill-rule="nonzero" fill-opacity="1" /><path clip-path="url(#clip150)" d="M16.4842 558.595 L16.4842 552.134 L45.3526 552.134 Q52.9915 552.134 56.3653 549.365 Q59.7073 546.595 59.7073 540.389 Q59.7073 534.214 56.3653 531.445 Q52.9915 528.676 45.3526 528.676 L16.4842 528.676 L16.4842 522.215 L46.1484 522.215 Q55.4423 522.215 60.1847 526.83 Q64.9272 531.413 64.9272 540.389 Q64.9272 549.396 60.1847 554.011 Q55.4423 558.595 46.1484 558.595 L16.4842 558.595 Z" fill="#000000" fill-rule="nonzero" fill-opacity="1" /><path clip-path="url(#clip150)" d="M18.0438 481.665 L24.314 481.665 Q22.5634 485.326 21.704 488.572 Q20.8447 491.819 20.8447 494.842 Q20.8447 500.094 22.8817 502.959 Q24.9187 505.791 28.6745 505.791 Q31.8255 505.791 33.4488 503.913 Q35.0402 502.004 36.0269 496.72 L36.8226 492.837 Q38.1912 485.644 41.6605 482.238 Q45.098 478.801 50.8908 478.801 Q57.7976 478.801 61.3624 483.448 Q64.9272 488.063 64.9272 497.007 Q64.9272 500.38 64.1633 504.2 Q63.3994 507.987 61.9035 512.061 L55.2831 512.061 Q57.4793 508.147 58.5933 504.391 Q59.7073 500.635 59.7073 497.007 Q59.7073 491.5 57.543 488.508 Q55.3786 485.516 51.3682 485.516 Q47.8671 485.516 45.8937 487.681 Q43.9204 489.813 42.9337 494.715 L42.1698 498.63 Q40.7375 505.823 37.682 509.038 Q34.6264 512.252 29.1837 512.252 Q22.8817 512.252 19.2532 507.828 Q15.6248 503.372 15.6248 495.574 Q15.6248 492.232 16.2295 488.763 Q16.8343 485.294 18.0438 481.665 Z" fill="#000000" fill-rule="nonzero" fill-opacity="1" /><path clip-path="url(#clip150)" d="M21.7677 462.345 L58.7206 462.345 L58.7206 454.579 Q58.7206 444.744 54.2646 440.193 Q49.8086 435.609 40.1964 435.609 Q30.6479 435.609 26.2237 440.193 Q21.7677 444.744 21.7677 454.579 L21.7677 462.345 M16.4842 468.775 L16.4842 455.566 Q16.4842 441.752 22.2451 435.291 Q27.9743 428.83 40.1964 428.83 Q52.4822 428.83 58.2432 435.323 Q64.0042 441.816 64.0042 455.566 L64.0042 468.775 L16.4842 468.775 Z" fill="#000000" fill-rule="nonzero" fill-opacity="1" /><path clip-path="url(#clip150)" d="M461.127 18.8205 L461.127 41.5461 L471.416 41.5461 Q477.128 41.5461 480.247 38.5889 Q483.366 35.6318 483.366 30.163 Q483.366 24.7348 480.247 21.7777 Q477.128 18.8205 471.416 18.8205 L461.127 18.8205 M452.944 12.096 L471.416 12.096 Q481.584 12.096 486.769 16.714 Q491.995 21.2916 491.995 30.163 Q491.995 39.1155 486.769 43.6931 Q481.584 48.2706 471.416 48.2706 L461.127 48.2706 L461.127 72.576 L452.944 72.576 L452.944 12.096 Z" fill="#000000" fill-rule="nonzero" fill-opacity="1" /><path clip-path="url(#clip150)" d="M517.272 32.4315 Q511.277 32.4315 507.793 37.1306 Q504.309 41.7891 504.309 49.9314 Q504.309 58.0738 507.753 62.7728 Q511.236 67.4314 517.272 67.4314 Q523.227 67.4314 526.711 62.7323 Q530.195 58.0333 530.195 49.9314 Q530.195 41.8701 526.711 37.1711 Q523.227 32.4315 517.272 32.4315 M517.272 26.1121 Q526.994 26.1121 532.544 32.4315 Q538.094 38.7509 538.094 49.9314 Q538.094 61.0714 532.544 67.4314 Q526.994 73.7508 517.272 73.7508 Q507.51 73.7508 501.96 67.4314 Q496.451 61.0714 496.451 49.9314 Q496.451 38.7509 501.96 32.4315 Q507.51 26.1121 517.272 26.1121 Z" fill="#000000" fill-rule="nonzero" fill-opacity="1" /><path clip-path="url(#clip150)" d="M576.74 34.1734 Q575.484 33.4443 573.985 33.1202 Q572.527 32.7556 570.744 32.7556 Q564.425 32.7556 561.022 36.8875 Q557.66 40.9789 557.66 48.6757 L557.66 72.576 L550.166 72.576 L550.166 27.2059 L557.66 27.2059 L557.66 34.2544 Q560.009 30.1225 563.777 28.1376 Q567.544 26.1121 572.932 26.1121 Q573.701 26.1121 574.633 26.2337 Q575.565 26.3147 576.699 26.5172 L576.74 34.1734 Z" fill="#000000" fill-rule="nonzero" fill-opacity="1" /><path clip-path="url(#clip150)" d="M591.93 14.324 L591.93 27.2059 L607.283 27.2059 L607.283 32.9987 L591.93 32.9987 L591.93 57.6282 Q591.93 63.1779 593.429 64.7578 Q594.969 66.3376 599.627 66.3376 L607.283 66.3376 L607.283 72.576 L599.627 72.576 Q590.999 72.576 587.717 69.3758 Q584.436 66.1351 584.436 57.6282 L584.436 32.9987 L578.968 32.9987 L578.968 27.2059 L584.436 27.2059 L584.436 14.324 L591.93 14.324 Z" fill="#000000" fill-rule="nonzero" fill-opacity="1" /><path clip-path="url(#clip150)" d="M640.055 9.54393 L640.055 15.7418 L632.926 15.7418 Q628.915 15.7418 627.335 17.3622 Q625.796 18.9825 625.796 23.1955 L625.796 27.2059 L638.07 27.2059 L638.07 32.9987 L625.796 32.9987 L625.796 72.576 L618.302 72.576 L618.302 32.9987 L611.172 32.9987 L611.172 27.2059 L618.302 27.2059 L618.302 24.0462 Q618.302 16.471 621.826 13.0277 Q625.35 9.54393 633.007 9.54393 L640.055 9.54393 Z" fill="#000000" fill-rule="nonzero" fill-opacity="1" /><path clip-path="url(#clip150)" d="M663.874 32.4315 Q657.879 32.4315 654.395 37.1306 Q650.912 41.7891 650.912 49.9314 Q650.912 58.0738 654.355 62.7728 Q657.839 67.4314 663.874 67.4314 Q669.829 67.4314 673.313 62.7323 Q676.797 58.0333 676.797 49.9314 Q676.797 41.8701 673.313 37.1711 Q669.829 32.4315 663.874 32.4315 M663.874 26.1121 Q673.597 26.1121 679.146 32.4315 Q684.696 38.7509 684.696 49.9314 Q684.696 61.0714 679.146 67.4314 Q673.597 73.7508 663.874 73.7508 Q654.112 73.7508 648.562 67.4314 Q643.053 61.0714 643.053 49.9314 Q643.053 38.7509 648.562 32.4315 Q654.112 26.1121 663.874 26.1121 Z" fill="#000000" fill-rule="nonzero" fill-opacity="1" /><path clip-path="url(#clip150)" d="M697.051 9.54393 L704.505 9.54393 L704.505 72.576 L697.051 72.576 L697.051 9.54393 Z" fill="#000000" fill-rule="nonzero" fill-opacity="1" /><path clip-path="url(#clip150)" d="M720.101 27.2059 L727.555 27.2059 L727.555 72.576 L720.101 72.576 L720.101 27.2059 M720.101 9.54393 L727.555 9.54393 L727.555 18.9825 L720.101 18.9825 L720.101 9.54393 Z" fill="#000000" fill-rule="nonzero" fill-opacity="1" /><path clip-path="url(#clip150)" d="M760.732 32.4315 Q754.736 32.4315 751.252 37.1306 Q747.769 41.7891 747.769 49.9314 Q747.769 58.0738 751.212 62.7728 Q754.696 67.4314 760.732 67.4314 Q766.686 67.4314 770.17 62.7323 Q773.654 58.0333 773.654 49.9314 Q773.654 41.8701 770.17 37.1711 Q766.686 32.4315 760.732 32.4315 M760.732 26.1121 Q770.454 26.1121 776.003 32.4315 Q781.553 38.7509 781.553 49.9314 Q781.553 61.0714 776.003 67.4314 Q770.454 73.7508 760.732 73.7508 Q750.969 73.7508 745.419 67.4314 Q739.91 61.0714 739.91 49.9314 Q739.91 38.7509 745.419 32.4315 Q750.969 26.1121 760.732 26.1121 Z" fill="#000000" fill-rule="nonzero" fill-opacity="1" /><path clip-path="url(#clip150)" d="M836.2 72.576 L813.11 12.096 L821.657 12.096 L840.818 63.0159 L860.019 12.096 L868.526 12.096 L845.476 72.576 L836.2 72.576 Z" fill="#000000" fill-rule="nonzero" fill-opacity="1" /><path clip-path="url(#clip150)" d="M891.211 49.7694 Q882.178 49.7694 878.694 51.8354 Q875.21 53.9013 875.21 58.8839 Q875.21 62.8538 877.803 65.2034 Q880.436 67.5124 884.932 67.5124 Q891.13 67.5124 894.857 63.1374 Q898.624 58.7219 898.624 51.4303 L898.624 49.7694 L891.211 49.7694 M906.078 46.6907 L906.078 72.576 L898.624 72.576 L898.624 65.6895 Q896.072 69.8214 892.264 71.8063 Q888.457 73.7508 882.947 73.7508 Q875.98 73.7508 871.848 69.8619 Q867.756 65.9325 867.756 59.3701 Q867.756 51.7138 872.861 47.825 Q878.005 43.9361 888.173 43.9361 L898.624 43.9361 L898.624 43.2069 Q898.624 38.0623 895.222 35.2672 Q891.859 32.4315 885.742 32.4315 Q881.854 32.4315 878.167 33.3632 Q874.481 34.295 871.078 36.1584 L871.078 29.2718 Q875.17 27.692 879.018 26.9223 Q882.866 26.1121 886.512 26.1121 Q896.356 26.1121 901.217 31.2163 Q906.078 36.3204 906.078 46.6907 Z" fill="#000000" fill-rule="nonzero" fill-opacity="1" /><path clip-path="url(#clip150)" d="M921.431 9.54393 L928.885 9.54393 L928.885 72.576 L921.431 72.576 L921.431 9.54393 Z" fill="#000000" fill-rule="nonzero" fill-opacity="1" /><path clip-path="url(#clip150)" d="M943.711 54.671 L943.711 27.2059 L951.165 27.2059 L951.165 54.3874 Q951.165 60.8284 953.676 64.0691 Q956.188 67.2693 961.211 67.2693 Q967.247 67.2693 970.73 63.421 Q974.255 59.5726 974.255 52.9291 L974.255 27.2059 L981.708 27.2059 L981.708 72.576 L974.255 72.576 L974.255 65.6084 Q971.541 69.7404 967.935 71.7658 Q964.371 73.7508 959.631 73.7508 Q951.813 73.7508 947.762 68.8897 Q943.711 64.0286 943.711 54.671 M962.467 26.1121 L962.467 26.1121 Z" fill="#000000" fill-rule="nonzero" fill-opacity="1" /><path clip-path="url(#clip150)" d="M1035.87 48.0275 L1035.87 51.6733 L1001.6 51.6733 Q1002.08 59.3701 1006.22 63.421 Q1010.39 67.4314 1017.8 67.4314 Q1022.1 67.4314 1026.11 66.3781 Q1030.16 65.3249 1034.13 63.2184 L1034.13 70.267 Q1030.12 71.9684 1025.9 72.8596 Q1021.69 73.7508 1017.36 73.7508 Q1006.5 73.7508 1000.14 67.4314 Q993.821 61.1119 993.821 50.3365 Q993.821 39.1965 999.816 32.6746 Q1005.85 26.1121 1016.06 26.1121 Q1025.22 26.1121 1030.52 32.0264 Q1035.87 37.9003 1035.87 48.0275 M1028.42 45.84 Q1028.33 39.7232 1024.97 36.0774 Q1021.65 32.4315 1016.14 32.4315 Q1009.9 32.4315 1006.14 35.9558 Q1002.41 39.4801 1001.84 45.8805 L1028.42 45.84 Z" fill="#000000" fill-rule="nonzero" fill-opacity="1" /><path clip-path="url(#clip150)" d="M1050.01 62.2867 L1058.55 62.2867 L1058.55 72.576 L1050.01 72.576 L1050.01 62.2867 M1050.01 29.6769 L1058.55 29.6769 L1058.55 39.9662 L1050.01 39.9662 L1050.01 29.6769 Z" fill="#000000" fill-rule="nonzero" fill-opacity="1" /><path clip-path="url(#clip150)" d="M1102.75 12.096 L1114.94 12.096 L1130.38 53.2532 L1145.89 12.096 L1158.08 12.096 L1158.08 72.576 L1150.1 72.576 L1150.1 19.4686 L1134.51 60.9499 L1126.29 60.9499 L1110.69 19.4686 L1110.69 72.576 L1102.75 72.576 L1102.75 12.096 Z" fill="#000000" fill-rule="nonzero" fill-opacity="1" /><path clip-path="url(#clip150)" d="M1189.92 72.576 L1166.83 12.096 L1175.38 12.096 L1194.54 63.0159 L1213.74 12.096 L1222.25 12.096 L1199.2 72.576 L1189.92 72.576 Z" fill="#000000" fill-rule="nonzero" fill-opacity="1" /><path clip-path="url(#clip150)" d="M1222.13 46.5287 L1243.96 46.5287 L1243.96 53.1722 L1222.13 53.1722 L1222.13 46.5287 Z" fill="#000000" fill-rule="nonzero" fill-opacity="1" /><path clip-path="url(#clip150)" d="M1256.16 12.096 L1268.35 12.096 L1283.78 53.2532 L1299.3 12.096 L1311.49 12.096 L1311.49 72.576 L1303.51 72.576 L1303.51 19.4686 L1287.92 60.9499 L1279.69 60.9499 L1264.1 19.4686 L1264.1 72.576 L1256.16 72.576 L1256.16 12.096 Z" fill="#000000" fill-rule="nonzero" fill-opacity="1" /><path clip-path="url(#clip150)" d="M1335.92 18.8205 L1335.92 41.5461 L1346.21 41.5461 Q1351.92 41.5461 1355.04 38.5889 Q1358.16 35.6318 1358.16 30.163 Q1358.16 24.7348 1355.04 21.7777 Q1351.92 18.8205 1346.21 18.8205 L1335.92 18.8205 M1327.74 12.096 L1346.21 12.096 Q1356.38 12.096 1361.56 16.714 Q1366.79 21.2916 1366.79 30.163 Q1366.79 39.1155 1361.56 43.6931 Q1356.38 48.2706 1346.21 48.2706 L1335.92 48.2706 L1335.92 72.576 L1327.74 72.576 L1327.74 12.096 Z" fill="#000000" fill-rule="nonzero" fill-opacity="1" /><path clip-path="url(#clip150)" d="M1423.05 16.7545 L1423.05 25.383 Q1418.92 21.5346 1414.22 19.6307 Q1409.56 17.7268 1404.3 17.7268 Q1393.93 17.7268 1388.42 24.0867 Q1382.91 30.4061 1382.91 42.3968 Q1382.91 54.3469 1388.42 60.7069 Q1393.93 67.0263 1404.3 67.0263 Q1409.56 67.0263 1414.22 65.1223 Q1418.92 63.2184 1423.05 59.3701 L1423.05 67.9175 Q1418.76 70.8341 1413.94 72.2924 Q1409.16 73.7508 1403.81 73.7508 Q1390.08 73.7508 1382.18 65.3654 Q1374.28 56.9395 1374.28 42.3968 Q1374.28 27.8135 1382.18 19.4281 Q1390.08 11.0023 1403.81 11.0023 Q1409.24 11.0023 1414.02 12.4606 Q1418.84 13.8784 1423.05 16.7545 Z" fill="#000000" fill-rule="nonzero" fill-opacity="1" /><path clip-path="url(#clip150)" d="M1460.97 54.671 L1460.97 27.2059 L1468.42 27.2059 L1468.42 54.3874 Q1468.42 60.8284 1470.94 64.0691 Q1473.45 67.2693 1478.47 67.2693 Q1484.51 67.2693 1487.99 63.421 Q1491.51 59.5726 1491.51 52.9291 L1491.51 27.2059 L1498.97 27.2059 L1498.97 72.576 L1491.51 72.576 L1491.51 65.6084 Q1488.8 69.7404 1485.2 71.7658 Q1481.63 73.7508 1476.89 73.7508 Q1469.07 73.7508 1465.02 68.8897 Q1460.97 64.0286 1460.97 54.671 M1479.73 26.1121 L1479.73 26.1121 Z" fill="#000000" fill-rule="nonzero" fill-opacity="1" /><path clip-path="url(#clip150)" d="M1543.24 28.5427 L1543.24 35.5912 Q1540.09 33.9709 1536.68 33.1607 Q1533.28 32.3505 1529.63 32.3505 Q1524.08 32.3505 1521.29 34.0519 Q1518.53 35.7533 1518.53 39.156 Q1518.53 41.7486 1520.52 43.2475 Q1522.5 44.7058 1528.5 46.0426 L1531.05 46.6097 Q1538.99 48.3111 1542.31 51.4303 Q1545.68 54.509 1545.68 60.0587 Q1545.68 66.3781 1540.65 70.0644 Q1535.67 73.7508 1526.92 73.7508 Q1523.27 73.7508 1519.3 73.0216 Q1515.37 72.3329 1511 70.9151 L1511 63.2184 Q1515.13 65.3654 1519.14 66.4591 Q1523.15 67.5124 1527.08 67.5124 Q1532.35 67.5124 1535.18 65.73 Q1538.02 63.9071 1538.02 60.6258 Q1538.02 57.5877 1535.95 55.9673 Q1533.93 54.3469 1527 52.8481 L1524.41 52.2405 Q1517.48 50.7821 1514.4 47.7845 Q1511.32 44.7463 1511.32 39.4801 Q1511.32 33.0797 1515.86 29.5959 Q1520.4 26.1121 1528.74 26.1121 Q1532.87 26.1121 1536.52 26.7198 Q1540.17 27.3274 1543.24 28.5427 Z" fill="#000000" fill-rule="nonzero" fill-opacity="1" /><path clip-path="url(#clip150)" d="M1557.54 27.2059 L1565 27.2059 L1565 72.576 L1557.54 72.576 L1557.54 27.2059 M1557.54 9.54393 L1565 9.54393 L1565 18.9825 L1557.54 18.9825 L1557.54 9.54393 Z" fill="#000000" fill-rule="nonzero" fill-opacity="1" /><path clip-path="url(#clip150)" d="M1618.31 45.1919 L1618.31 72.576 L1610.85 72.576 L1610.85 45.4349 Q1610.85 38.994 1608.34 35.7938 Q1605.83 32.5936 1600.81 32.5936 Q1594.77 32.5936 1591.29 36.4419 Q1587.8 40.2903 1587.8 46.9338 L1587.8 72.576 L1580.31 72.576 L1580.31 27.2059 L1587.8 27.2059 L1587.8 34.2544 Q1590.48 30.163 1594.08 28.1376 Q1597.73 26.1121 1602.47 26.1121 Q1610.29 26.1121 1614.3 30.9732 Q1618.31 35.7938 1618.31 45.1919 Z" fill="#000000" fill-rule="nonzero" fill-opacity="1" /><path clip-path="url(#clip150)" d="M1663.03 49.3643 Q1663.03 41.2625 1659.67 36.8065 Q1656.35 32.3505 1650.31 32.3505 Q1644.31 32.3505 1640.95 36.8065 Q1637.63 41.2625 1637.63 49.3643 Q1637.63 57.4256 1640.95 61.8816 Q1644.31 66.3376 1650.31 66.3376 Q1656.35 66.3376 1659.67 61.8816 Q1663.03 57.4256 1663.03 49.3643 M1670.48 66.9452 Q1670.48 78.5308 1665.34 84.1616 Q1660.19 89.8329 1649.58 89.8329 Q1645.65 89.8329 1642.17 89.2252 Q1638.68 88.6581 1635.4 87.4428 L1635.4 80.1917 Q1638.68 81.9741 1641.88 82.8248 Q1645.08 83.6755 1648.41 83.6755 Q1655.74 83.6755 1659.38 79.8271 Q1663.03 76.0193 1663.03 68.282 L1663.03 64.5957 Q1660.72 68.6061 1657.12 70.5911 Q1653.51 72.576 1648.49 72.576 Q1640.14 72.576 1635.04 66.2161 Q1629.93 59.8562 1629.93 49.3643 Q1629.93 38.832 1635.04 32.472 Q1640.14 26.1121 1648.49 26.1121 Q1653.51 26.1121 1657.12 28.0971 Q1660.72 30.082 1663.03 34.0924 L1663.03 27.2059 L1670.48 27.2059 L1670.48 66.9452 Z" fill="#000000" fill-rule="nonzero" fill-opacity="1" /><path clip-path="url(#clip150)" d="M1712.53 12.096 L1720.71 12.096 L1720.71 65.6895 L1750.16 65.6895 L1750.16 72.576 L1712.53 72.576 L1712.53 12.096 Z" fill="#000000" fill-rule="nonzero" fill-opacity="1" /><path clip-path="url(#clip150)" d="M1779.05 49.7694 Q1770.01 49.7694 1766.53 51.8354 Q1763.05 53.9013 1763.05 58.8839 Q1763.05 62.8538 1765.64 65.2034 Q1768.27 67.5124 1772.77 67.5124 Q1778.97 67.5124 1782.69 63.1374 Q1786.46 58.7219 1786.46 51.4303 L1786.46 49.7694 L1779.05 49.7694 M1793.91 46.6907 L1793.91 72.576 L1786.46 72.576 L1786.46 65.6895 Q1783.91 69.8214 1780.1 71.8063 Q1776.29 73.7508 1770.78 73.7508 Q1763.82 73.7508 1759.68 69.8619 Q1755.59 65.9325 1755.59 59.3701 Q1755.59 51.7138 1760.7 47.825 Q1765.84 43.9361 1776.01 43.9361 L1786.46 43.9361 L1786.46 43.2069 Q1786.46 38.0623 1783.06 35.2672 Q1779.7 32.4315 1773.58 32.4315 Q1769.69 32.4315 1766 33.3632 Q1762.32 34.295 1758.91 36.1584 L1758.91 29.2718 Q1763.01 27.692 1766.85 26.9223 Q1770.7 26.1121 1774.35 26.1121 Q1784.19 26.1121 1789.05 31.2163 Q1793.91 36.3204 1793.91 46.6907 Z" fill="#000000" fill-rule="nonzero" fill-opacity="1" /><path clip-path="url(#clip150)" d="M1838.19 28.5427 L1838.19 35.5912 Q1835.03 33.9709 1831.63 33.1607 Q1828.23 32.3505 1824.58 32.3505 Q1819.03 32.3505 1816.24 34.0519 Q1813.48 35.7533 1813.48 39.156 Q1813.48 41.7486 1815.47 43.2475 Q1817.45 44.7058 1823.45 46.0426 L1826 46.6097 Q1833.94 48.3111 1837.26 51.4303 Q1840.62 54.509 1840.62 60.0587 Q1840.62 66.3781 1835.6 70.0644 Q1830.62 73.7508 1821.87 73.7508 Q1818.22 73.7508 1814.25 73.0216 Q1810.32 72.3329 1805.95 70.9151 L1805.95 63.2184 Q1810.08 65.3654 1814.09 66.4591 Q1818.1 67.5124 1822.03 67.5124 Q1827.29 67.5124 1830.13 65.73 Q1832.97 63.9071 1832.97 60.6258 Q1832.97 57.5877 1830.9 55.9673 Q1828.87 54.3469 1821.95 52.8481 L1819.35 52.2405 Q1812.43 50.7821 1809.35 47.7845 Q1806.27 44.7463 1806.27 39.4801 Q1806.27 33.0797 1810.81 29.5959 Q1815.34 26.1121 1823.69 26.1121 Q1827.82 26.1121 1831.47 26.7198 Q1835.11 27.3274 1838.19 28.5427 Z" fill="#000000" fill-rule="nonzero" fill-opacity="1" /><path clip-path="url(#clip150)" d="M1859.86 14.324 L1859.86 27.2059 L1875.22 27.2059 L1875.22 32.9987 L1859.86 32.9987 L1859.86 57.6282 Q1859.86 63.1779 1861.36 64.7578 Q1862.9 66.3376 1867.56 66.3376 L1875.22 66.3376 L1875.22 72.576 L1867.56 72.576 Q1858.93 72.576 1855.65 69.3758 Q1852.37 66.1351 1852.37 57.6282 L1852.37 32.9987 L1846.9 32.9987 L1846.9 27.2059 L1852.37 27.2059 L1852.37 14.324 L1859.86 14.324 Z" fill="#000000" fill-rule="nonzero" fill-opacity="1" /><path clip-path="url(#clip150)" d="M1927.31 72.576 L1904.22 12.096 L1912.77 12.096 L1931.93 63.0159 L1951.13 12.096 L1959.64 12.096 L1936.59 72.576 L1927.31 72.576 Z" fill="#000000" fill-rule="nonzero" fill-opacity="1" /><path clip-path="url(#clip150)" d="M1982.32 49.7694 Q1973.29 49.7694 1969.8 51.8354 Q1966.32 53.9013 1966.32 58.8839 Q1966.32 62.8538 1968.91 65.2034 Q1971.55 67.5124 1976.04 67.5124 Q1982.24 67.5124 1985.97 63.1374 Q1989.74 58.7219 1989.74 51.4303 L1989.74 49.7694 L1982.32 49.7694 M1997.19 46.6907 L1997.19 72.576 L1989.74 72.576 L1989.74 65.6895 Q1987.18 69.8214 1983.38 71.8063 Q1979.57 73.7508 1974.06 73.7508 Q1967.09 73.7508 1962.96 69.8619 Q1958.87 65.9325 1958.87 59.3701 Q1958.87 51.7138 1963.97 47.825 Q1969.12 43.9361 1979.28 43.9361 L1989.74 43.9361 L1989.74 43.2069 Q1989.74 38.0623 1986.33 35.2672 Q1982.97 32.4315 1976.85 32.4315 Q1972.96 32.4315 1969.28 33.3632 Q1965.59 34.295 1962.19 36.1584 L1962.19 29.2718 Q1966.28 27.692 1970.13 26.9223 Q1973.98 26.1121 1977.62 26.1121 Q1987.47 26.1121 1992.33 31.2163 Q1997.19 36.3204 1997.19 46.6907 Z" fill="#000000" fill-rule="nonzero" fill-opacity="1" /><path clip-path="url(#clip150)" d="M2012.54 9.54393 L2020 9.54393 L2020 72.576 L2012.54 72.576 L2012.54 9.54393 Z" fill="#000000" fill-rule="nonzero" fill-opacity="1" /><path clip-path="url(#clip150)" d="M2034.82 54.671 L2034.82 27.2059 L2042.28 27.2059 L2042.28 54.3874 Q2042.28 60.8284 2044.79 64.0691 Q2047.3 67.2693 2052.32 67.2693 Q2058.36 67.2693 2061.84 63.421 Q2065.37 59.5726 2065.37 52.9291 L2065.37 27.2059 L2072.82 27.2059 L2072.82 72.576 L2065.37 72.576 L2065.37 65.6084 Q2062.65 69.7404 2059.05 71.7658 Q2055.48 73.7508 2050.74 73.7508 Q2042.92 73.7508 2038.87 68.8897 Q2034.82 64.0286 2034.82 54.671 M2053.58 26.1121 L2053.58 26.1121 Z" fill="#000000" fill-rule="nonzero" fill-opacity="1" /><path clip-path="url(#clip150)" d="M2126.98 48.0275 L2126.98 51.6733 L2092.71 51.6733 Q2093.2 59.3701 2097.33 63.421 Q2101.5 67.4314 2108.91 67.4314 Q2113.21 67.4314 2117.22 66.3781 Q2121.27 65.3249 2125.24 63.2184 L2125.24 70.267 Q2121.23 71.9684 2117.01 72.8596 Q2112.8 73.7508 2108.47 73.7508 Q2097.61 73.7508 2091.25 67.4314 Q2084.93 61.1119 2084.93 50.3365 Q2084.93 39.1965 2090.93 32.6746 Q2096.96 26.1121 2107.17 26.1121 Q2116.33 26.1121 2121.63 32.0264 Q2126.98 37.9003 2126.98 48.0275 M2119.53 45.84 Q2119.45 39.7232 2116.08 36.0774 Q2112.76 32.4315 2107.25 32.4315 Q2101.01 32.4315 2097.25 35.9558 Q2093.52 39.4801 2092.95 45.8805 L2119.53 45.84 Z" fill="#000000" fill-rule="nonzero" fill-opacity="1" /><polyline clip-path="url(#clip152)" style="stroke:#009af9; stroke-linecap:round; stroke-linejoin:round; stroke-width:12; stroke-opacity:1; fill:none" points="317.242,1345.45 322.716,1338.02 328.19,1357.32 333.665,1362.1 339.139,1368.04 355.562,1362.77 361.036,1327.99 366.511,1300.06 371.985,1329.83 377.459,1386.4 399.356,1343.76 404.831,1378.78 410.305,1375.55 415.779,1336.99 432.202,1348.86 437.677,1324.13 443.151,577.734 448.625,1016.1 454.1,865.733 470.523,839.968 475.997,986.928 481.471,941.757 486.945,995.732 492.42,957.014 508.843,887.383 514.317,952.302 519.791,963.533 525.266,988.084 530.74,970.964 552.637,963.51 558.112,992.01 563.586,1026.9 569.06,1032.5 585.483,1026.31 590.957,1033.95 596.432,967.267 601.906,1027.4 607.38,1033.45 623.803,961.34 629.278,883.886 634.752,948.652 640.226,988.503 645.701,999.003 662.123,941.303 667.598,860.685 673.072,911.389 678.546,884.998 684.021,807.343 700.216,708.279 705.69,739.993 711.164,735.652 716.639,755.776 722.113,737.552 738.536,740.62 744.01,813.257 749.484,909.314 754.959,828.219 760.433,856.147 776.856,867.193 782.33,842.568 787.805,864.243 793.279,884.203 815.176,876.755 820.651,881.304 826.125,922.199 831.599,942.161 837.073,937.728 853.496,978.189 858.971,987.527 864.445,956.979 869.919,972.706 875.394,1001.43 891.817,1029.24 897.291,1036.78 902.765,1016.18 908.24,1019.88 913.714,1006.83 930.137,938.585 935.611,942.763 941.085,980.095 946.56,1022.34 952.034,1033.84 968.457,1056.01 973.931,1078.93 979.406,1098.16 984.88,1124.05 990.354,1110.87 1006.78,1111.56 1012.25,1100.53 1017.73,1120.99 1023.2,1100.41 1028.67,1102.48 1045.1,1054.03 1050.57,1050.12 1056.05,1121.47 1061.52,1126.32 1066.99,1146.77 1083.42,1098.78 1088.89,1022.8 1094.37,960.771 1099.84,743.056 1105.31,757.444 1127.21,617.743 1132.69,160.256 1138.16,295.315 1143.64,342.601 1160.06,248.223 1165.53,247.601 1171.01,322.488 1176.48,419.571 1181.96,321.657 1198.38,223.797 1203.85,199.75 1209.33,245.988 1214.8,180.45 1220.28,197.206 1236.7,239.697 1242.17,208.727 1247.65,208.375 1253.12,227.406 1258.6,260.012 1275.02,210.608 1280.49,230.67 1285.97,227.647 1291.44,257.991 1296.92,287.106 1318.81,313.949 1324.29,384.39 1329.76,342.173 1335.24,367.604 1351.66,422.773 1357.13,477.203 1362.61,588.701 1368.08,538.051 1373.56,558.098 1389.98,564.781 1395.45,415.113 1400.93,452.793 1406.4,514.892 1411.88,519.499 1428.3,461.059 1433.77,500.897 1439.25,485.069 1444.72,498.741 1450.2,518.944 1466.62,553.419 1472.09,585.436 1477.57,666.39 1483.04,587.066 1488.52,602.001 1504.94,585.946 1510.41,588.212 1515.89,594.975 1521.36,586.246 1526.84,596.581 1543.26,621.416 1548.73,634.725 1554.21,652.391 1559.68,650.804 1565.16,643.899 1581.58,638.629 1587.05,637.202 1592.53,624.148 1598,628.627 1603.48,611.248 1619.9,609.679 1625.37,618.873 1630.85,617.165 1636.32,617.466 1641.8,607.572 1663.69,611.844 1669.17,620.918 1674.64,625.548 1680.12,583.806 1696.54,582.967 1702.02,586.892 1707.49,575.459 1712.96,595.096 1718.44,641.302 1734.86,677.245 1740.34,684.666 1745.81,686.941 1751.28,677.887 1756.76,704.686 1773.18,679.075 1778.66,677.096 1784.13,665.051 1789.6,669.657 1795.08,645.069 1811.5,609.769 1816.98,586.867 1822.45,611.182 1827.92,616.15 1833.4,590.631 1849.82,597.702 1855.3,601.178 1860.77,605.723 1866.24,597.125 1871.72,592.729 1888.14,582.927 1893.62,586.039 1899.09,580.484 1904.56,602.467 1910.04,604.836 1926.46,589.966 1931.94,581.503 1937.41,617.614 1942.88,617.605 1948.36,641.182 1964.78,595.104 1970.26,612.391 1975.73,584.581 1981.21,576.237 1986.68,580.585 2003.33,614.482 2008.8,691.535 2014.28,717.817 2019.75,662.005 2025.23,666.909 2041.65,688.167 2047.12,667.391 2052.6,685.392 2058.07,711.452 2063.55,644.921 2079.97,672.166 2085.45,680.847 2090.92,670.571 2101.87,714.334 2118.29,691.445 2123.77,720.495 2129.24,760.466 2134.71,762.168 2140.19,798.737 2156.61,807.142 2162.09,756.331 2167.56,766.971 2173.03,796.377 2178.51,802.958 2194.93,850.717 2200.41,846.456 2205.88,797.073 2211.35,845.25 2216.83,859.515 2233.25,861.535 2238.73,828.874 2244.2,821.272 2249.67,815.712 2271.57,786.247 2277.05,800.155 2282.52,807.434 2287.99,816.959 2293.47,822.093 "/>
<path clip-path="url(#clip150)" d="M1947.89 270.476 L2282.93 270.476 L2282.93 166.796 L1947.89 166.796  Z" fill="#ffffff" fill-rule="evenodd" fill-opacity="1"/>
<polyline clip-path="url(#clip150)" style="stroke:#000000; stroke-linecap:round; stroke-linejoin:round; stroke-width:4; stroke-opacity:1; fill:none" points="1947.89,270.476 2282.93,270.476 2282.93,166.796 1947.89,166.796 1947.89,270.476 "/>
<polyline clip-path="url(#clip150)" style="stroke:#009af9; stroke-linecap:round; stroke-linejoin:round; stroke-width:12; stroke-opacity:1; fill:none" points="1971.17,218.636 2110.82,218.636 "/>
<path clip-path="url(#clip150)" d="M2134.1 209.99 L2138.61 209.99 L2146.71 231.749 L2154.82 209.99 L2159.33 209.99 L2149.61 235.916 L2143.82 235.916 L2134.1 209.99 Z" fill="#000000" fill-rule="nonzero" fill-opacity="1" /><path clip-path="url(#clip150)" d="M2176.99 222.883 Q2171.83 222.883 2169.84 224.064 Q2167.85 225.244 2167.85 228.092 Q2167.85 230.36 2169.33 231.703 Q2170.83 233.022 2173.4 233.022 Q2176.95 233.022 2179.08 230.522 Q2181.23 227.999 2181.23 223.832 L2181.23 222.883 L2176.99 222.883 M2185.49 221.124 L2185.49 235.916 L2181.23 235.916 L2181.23 231.981 Q2179.77 234.342 2177.59 235.476 Q2175.42 236.587 2172.27 236.587 Q2168.29 236.587 2165.93 234.365 Q2163.59 232.119 2163.59 228.369 Q2163.59 223.994 2166.51 221.772 Q2169.45 219.55 2175.26 219.55 L2181.23 219.55 L2181.23 219.133 Q2181.23 216.194 2179.28 214.596 Q2177.36 212.976 2173.87 212.976 Q2171.64 212.976 2169.54 213.508 Q2167.43 214.041 2165.49 215.106 L2165.49 211.17 Q2167.83 210.268 2170.02 209.828 Q2172.22 209.365 2174.31 209.365 Q2179.93 209.365 2182.71 212.282 Q2185.49 215.198 2185.49 221.124 Z" fill="#000000" fill-rule="nonzero" fill-opacity="1" /><path clip-path="url(#clip150)" d="M2194.26 199.897 L2198.52 199.897 L2198.52 235.916 L2194.26 235.916 L2194.26 199.897 Z" fill="#000000" fill-rule="nonzero" fill-opacity="1" /><path clip-path="url(#clip150)" d="M2206.99 225.684 L2206.99 209.99 L2211.25 209.99 L2211.25 225.522 Q2211.25 229.203 2212.69 231.055 Q2214.12 232.883 2216.99 232.883 Q2220.44 232.883 2222.43 230.684 Q2224.45 228.485 2224.45 224.689 L2224.45 209.99 L2228.7 209.99 L2228.7 235.916 L2224.45 235.916 L2224.45 231.934 Q2222.89 234.295 2220.83 235.453 Q2218.8 236.587 2216.09 236.587 Q2211.62 236.587 2209.31 233.809 Q2206.99 231.031 2206.99 225.684 M2217.71 209.365 L2217.71 209.365 Z" fill="#000000" fill-rule="nonzero" fill-opacity="1" /><path clip-path="url(#clip150)" d="M2259.65 221.888 L2259.65 223.971 L2240.07 223.971 Q2240.35 228.369 2242.71 230.684 Q2245.09 232.976 2249.33 232.976 Q2251.78 232.976 2254.07 232.374 Q2256.39 231.772 2258.66 230.569 L2258.66 234.596 Q2256.37 235.568 2253.96 236.078 Q2251.55 236.587 2249.07 236.587 Q2242.87 236.587 2239.24 232.976 Q2235.63 229.365 2235.63 223.207 Q2235.63 216.842 2239.05 213.115 Q2242.5 209.365 2248.33 209.365 Q2253.57 209.365 2256.6 212.745 Q2259.65 216.101 2259.65 221.888 M2255.39 220.638 Q2255.35 217.143 2253.43 215.059 Q2251.53 212.976 2248.38 212.976 Q2244.82 212.976 2242.66 214.99 Q2240.53 217.004 2240.21 220.661 L2255.39 220.638 Z" fill="#000000" fill-rule="nonzero" fill-opacity="1" /></svg>
