<?xml version="1.0" encoding="utf-8"?>
<svg xmlns="http://www.w3.org/2000/svg" xmlns:xlink="http://www.w3.org/1999/xlink" width="600" height="400" viewBox="0 0 2400 1600">
<defs>
  <clipPath id="clip190">
    <rect x="0" y="0" width="2400" height="1600"/>
  </clipPath>
</defs>
<path clip-path="url(#clip190)" d="M0 1600 L2400 1600 L2400 0 L0 0  Z" fill="#ffffff" fill-rule="evenodd" fill-opacity="1"/>
<defs>
  <clipPath id="clip191">
    <rect x="480" y="0" width="1681" height="1600"/>
  </clipPath>
</defs>
<path clip-path="url(#clip190)" d="M258.387 1423.18 L2352.76 1423.18 L2352.76 47.2441 L258.387 47.2441  Z" fill="#ffffff" fill-rule="evenodd" fill-opacity="1"/>
<defs>
  <clipPath id="clip192">
    <rect x="258" y="47" width="2095" height="1377"/>
  </clipPath>
</defs>
<polyline clip-path="url(#clip192)" style="stroke:#000000; stroke-linecap:round; stroke-linejoin:round; stroke-width:2; stroke-opacity:0.1; fill:none" points="298.312,1423.18 298.312,47.2441 "/>
<polyline clip-path="url(#clip192)" style="stroke:#000000; stroke-linecap:round; stroke-linejoin:round; stroke-width:2; stroke-opacity:0.1; fill:none" points="804.932,1423.18 804.932,47.2441 "/>
<polyline clip-path="url(#clip192)" style="stroke:#000000; stroke-linecap:round; stroke-linejoin:round; stroke-width:2; stroke-opacity:0.1; fill:none" points="1317.18,1423.18 1317.18,47.2441 "/>
<polyline clip-path="url(#clip192)" style="stroke:#000000; stroke-linecap:round; stroke-linejoin:round; stroke-width:2; stroke-opacity:0.1; fill:none" points="1835.06,1423.18 1835.06,47.2441 "/>
<polyline clip-path="url(#clip192)" style="stroke:#000000; stroke-linecap:round; stroke-linejoin:round; stroke-width:2; stroke-opacity:0.05; fill:none" points="399.636,1423.18 399.636,47.2441 "/>
<polyline clip-path="url(#clip192)" style="stroke:#000000; stroke-linecap:round; stroke-linejoin:round; stroke-width:2; stroke-opacity:0.05; fill:none" points="500.96,1423.18 500.96,47.2441 "/>
<polyline clip-path="url(#clip192)" style="stroke:#000000; stroke-linecap:round; stroke-linejoin:round; stroke-width:2; stroke-opacity:0.05; fill:none" points="602.284,1423.18 602.284,47.2441 "/>
<polyline clip-path="url(#clip192)" style="stroke:#000000; stroke-linecap:round; stroke-linejoin:round; stroke-width:2; stroke-opacity:0.05; fill:none" points="703.608,1423.18 703.608,47.2441 "/>
<polyline clip-path="url(#clip192)" style="stroke:#000000; stroke-linecap:round; stroke-linejoin:round; stroke-width:2; stroke-opacity:0.05; fill:none" points="907.382,1423.18 907.382,47.2441 "/>
<polyline clip-path="url(#clip192)" style="stroke:#000000; stroke-linecap:round; stroke-linejoin:round; stroke-width:2; stroke-opacity:0.05; fill:none" points="1009.83,1423.18 1009.83,47.2441 "/>
<polyline clip-path="url(#clip192)" style="stroke:#000000; stroke-linecap:round; stroke-linejoin:round; stroke-width:2; stroke-opacity:0.05; fill:none" points="1112.28,1423.18 1112.28,47.2441 "/>
<polyline clip-path="url(#clip192)" style="stroke:#000000; stroke-linecap:round; stroke-linejoin:round; stroke-width:2; stroke-opacity:0.05; fill:none" points="1214.73,1423.18 1214.73,47.2441 "/>
<polyline clip-path="url(#clip192)" style="stroke:#000000; stroke-linecap:round; stroke-linejoin:round; stroke-width:2; stroke-opacity:0.05; fill:none" points="1420.76,1423.18 1420.76,47.2441 "/>
<polyline clip-path="url(#clip192)" style="stroke:#000000; stroke-linecap:round; stroke-linejoin:round; stroke-width:2; stroke-opacity:0.05; fill:none" points="1524.33,1423.18 1524.33,47.2441 "/>
<polyline clip-path="url(#clip192)" style="stroke:#000000; stroke-linecap:round; stroke-linejoin:round; stroke-width:2; stroke-opacity:0.05; fill:none" points="1627.91,1423.18 1627.91,47.2441 "/>
<polyline clip-path="url(#clip192)" style="stroke:#000000; stroke-linecap:round; stroke-linejoin:round; stroke-width:2; stroke-opacity:0.05; fill:none" points="1731.48,1423.18 1731.48,47.2441 "/>
<polyline clip-path="url(#clip192)" style="stroke:#000000; stroke-linecap:round; stroke-linejoin:round; stroke-width:2; stroke-opacity:0.05; fill:none" points="1939.79,1423.18 1939.79,47.2441 "/>
<polyline clip-path="url(#clip192)" style="stroke:#000000; stroke-linecap:round; stroke-linejoin:round; stroke-width:2; stroke-opacity:0.05; fill:none" points="2044.51,1423.18 2044.51,47.2441 "/>
<polyline clip-path="url(#clip192)" style="stroke:#000000; stroke-linecap:round; stroke-linejoin:round; stroke-width:2; stroke-opacity:0.05; fill:none" points="2149.24,1423.18 2149.24,47.2441 "/>
<polyline clip-path="url(#clip192)" style="stroke:#000000; stroke-linecap:round; stroke-linejoin:round; stroke-width:2; stroke-opacity:0.05; fill:none" points="2253.97,1423.18 2253.97,47.2441 "/>
<polyline clip-path="url(#clip190)" style="stroke:#000000; stroke-linecap:round; stroke-linejoin:round; stroke-width:4; stroke-opacity:1; fill:none" points="258.387,1423.18 2352.76,1423.18 "/>
<polyline clip-path="url(#clip190)" style="stroke:#000000; stroke-linecap:round; stroke-linejoin:round; stroke-width:4; stroke-opacity:1; fill:none" points="298.312,1423.18 298.312,1404.28 "/>
<polyline clip-path="url(#clip190)" style="stroke:#000000; stroke-linecap:round; stroke-linejoin:round; stroke-width:4; stroke-opacity:1; fill:none" points="804.932,1423.18 804.932,1404.28 "/>
<polyline clip-path="url(#clip190)" style="stroke:#000000; stroke-linecap:round; stroke-linejoin:round; stroke-width:4; stroke-opacity:1; fill:none" points="1317.18,1423.18 1317.18,1404.28 "/>
<polyline clip-path="url(#clip190)" style="stroke:#000000; stroke-linecap:round; stroke-linejoin:round; stroke-width:4; stroke-opacity:1; fill:none" points="1835.06,1423.18 1835.06,1404.28 "/>
<polyline clip-path="url(#clip190)" style="stroke:#000000; stroke-linecap:round; stroke-linejoin:round; stroke-width:4; stroke-opacity:1; fill:none" points="399.636,1423.18 399.636,1413.73 "/>
<polyline clip-path="url(#clip190)" style="stroke:#000000; stroke-linecap:round; stroke-linejoin:round; stroke-width:4; stroke-opacity:1; fill:none" points="500.96,1423.18 500.96,1413.73 "/>
<polyline clip-path="url(#clip190)" style="stroke:#000000; stroke-linecap:round; stroke-linejoin:round; stroke-width:4; stroke-opacity:1; fill:none" points="602.284,1423.18 602.284,1413.73 "/>
<polyline clip-path="url(#clip190)" style="stroke:#000000; stroke-linecap:round; stroke-linejoin:round; stroke-width:4; stroke-opacity:1; fill:none" points="703.608,1423.18 703.608,1413.73 "/>
<polyline clip-path="url(#clip190)" style="stroke:#000000; stroke-linecap:round; stroke-linejoin:round; stroke-width:4; stroke-opacity:1; fill:none" points="907.382,1423.18 907.382,1413.73 "/>
<polyline clip-path="url(#clip190)" style="stroke:#000000; stroke-linecap:round; stroke-linejoin:round; stroke-width:4; stroke-opacity:1; fill:none" points="1009.83,1423.18 1009.83,1413.73 "/>
<polyline clip-path="url(#clip190)" style="stroke:#000000; stroke-linecap:round; stroke-linejoin:round; stroke-width:4; stroke-opacity:1; fill:none" points="1112.28,1423.18 1112.28,1413.73 "/>
<polyline clip-path="url(#clip190)" style="stroke:#000000; stroke-linecap:round; stroke-linejoin:round; stroke-width:4; stroke-opacity:1; fill:none" points="1214.73,1423.18 1214.73,1413.73 "/>
<polyline clip-path="url(#clip190)" style="stroke:#000000; stroke-linecap:round; stroke-linejoin:round; stroke-width:4; stroke-opacity:1; fill:none" points="1420.76,1423.18 1420.76,1413.73 "/>
<polyline clip-path="url(#clip190)" style="stroke:#000000; stroke-linecap:round; stroke-linejoin:round; stroke-width:4; stroke-opacity:1; fill:none" points="1524.33,1423.18 1524.33,1413.73 "/>
<polyline clip-path="url(#clip190)" style="stroke:#000000; stroke-linecap:round; stroke-linejoin:round; stroke-width:4; stroke-opacity:1; fill:none" points="1627.91,1423.18 1627.91,1413.73 "/>
<polyline clip-path="url(#clip190)" style="stroke:#000000; stroke-linecap:round; stroke-linejoin:round; stroke-width:4; stroke-opacity:1; fill:none" points="1731.48,1423.18 1731.48,1413.73 "/>
<polyline clip-path="url(#clip190)" style="stroke:#000000; stroke-linecap:round; stroke-linejoin:round; stroke-width:4; stroke-opacity:1; fill:none" points="1939.79,1423.18 1939.79,1413.73 "/>
<polyline clip-path="url(#clip190)" style="stroke:#000000; stroke-linecap:round; stroke-linejoin:round; stroke-width:4; stroke-opacity:1; fill:none" points="2044.51,1423.18 2044.51,1413.73 "/>
<polyline clip-path="url(#clip190)" style="stroke:#000000; stroke-linecap:round; stroke-linejoin:round; stroke-width:4; stroke-opacity:1; fill:none" points="2149.24,1423.18 2149.24,1413.73 "/>
<polyline clip-path="url(#clip190)" style="stroke:#000000; stroke-linecap:round; stroke-linejoin:round; stroke-width:4; stroke-opacity:1; fill:none" points="2253.97,1423.18 2253.97,1413.73 "/>
<path clip-path="url(#clip190)" d="M170.107 1481.64 L186.426 1481.64 L186.426 1485.58 L164.482 1485.58 L164.482 1481.64 Q167.144 1478.89 171.727 1474.26 Q176.333 1469.61 177.514 1468.27 Q179.759 1465.74 180.639 1464.01 Q181.542 1462.25 181.542 1460.56 Q181.542 1457.8 179.597 1456.07 Q177.676 1454.33 174.574 1454.33 Q172.375 1454.33 169.921 1455.09 Q167.491 1455.86 164.713 1457.41 L164.713 1452.69 Q167.537 1451.55 169.991 1450.97 Q172.445 1450.39 174.482 1450.39 Q179.852 1450.39 183.046 1453.08 Q186.241 1455.77 186.241 1460.26 Q186.241 1462.39 185.431 1464.31 Q184.644 1466.2 182.537 1468.8 Q181.958 1469.47 178.857 1472.69 Q175.755 1475.88 170.107 1481.64 Z" fill="#000000" fill-rule="nonzero" fill-opacity="1" /><path clip-path="url(#clip190)" d="M206.241 1454.1 Q202.63 1454.1 200.801 1457.66 Q198.995 1461.2 198.995 1468.33 Q198.995 1475.44 200.801 1479.01 Q202.63 1482.55 206.241 1482.55 Q209.875 1482.55 211.68 1479.01 Q213.509 1475.44 213.509 1468.33 Q213.509 1461.2 211.68 1457.66 Q209.875 1454.1 206.241 1454.1 M206.241 1450.39 Q212.051 1450.39 215.106 1455 Q218.185 1459.58 218.185 1468.33 Q218.185 1477.06 215.106 1481.67 Q212.051 1486.25 206.241 1486.25 Q200.431 1486.25 197.352 1481.67 Q194.296 1477.06 194.296 1468.33 Q194.296 1459.58 197.352 1455 Q200.431 1450.39 206.241 1450.39 Z" fill="#000000" fill-rule="nonzero" fill-opacity="1" /><path clip-path="url(#clip190)" d="M230.43 1481.64 L246.75 1481.64 L246.75 1485.58 L224.805 1485.58 L224.805 1481.64 Q227.467 1478.89 232.051 1474.26 Q236.657 1469.61 237.838 1468.27 Q240.083 1465.74 240.963 1464.01 Q241.866 1462.25 241.866 1460.56 Q241.866 1457.8 239.921 1456.07 Q238 1454.33 234.898 1454.33 Q232.699 1454.33 230.245 1455.09 Q227.815 1455.86 225.037 1457.41 L225.037 1452.69 Q227.861 1451.55 230.315 1450.97 Q232.768 1450.39 234.805 1450.39 Q240.176 1450.39 243.37 1453.08 Q246.565 1455.77 246.565 1460.26 Q246.565 1462.39 245.754 1464.31 Q244.967 1466.2 242.861 1468.8 Q242.282 1469.47 239.18 1472.69 Q236.079 1475.88 230.43 1481.64 Z" fill="#000000" fill-rule="nonzero" fill-opacity="1" /><path clip-path="url(#clip190)" d="M257.375 1481.64 L265.014 1481.64 L265.014 1455.28 L256.703 1456.95 L256.703 1452.69 L264.967 1451.02 L269.643 1451.02 L269.643 1481.64 L277.282 1481.64 L277.282 1485.58 L257.375 1485.58 L257.375 1481.64 Z" fill="#000000" fill-rule="nonzero" fill-opacity="1" /><path clip-path="url(#clip190)" d="M283.972 1470.7 L296.449 1470.7 L296.449 1474.49 L283.972 1474.49 L283.972 1470.7 Z" fill="#000000" fill-rule="nonzero" fill-opacity="1" /><path clip-path="url(#clip190)" d="M313.833 1454.1 Q310.222 1454.1 308.393 1457.66 Q306.587 1461.2 306.587 1468.33 Q306.587 1475.44 308.393 1479.01 Q310.222 1482.55 313.833 1482.55 Q317.467 1482.55 319.273 1479.01 Q321.101 1475.44 321.101 1468.33 Q321.101 1461.2 319.273 1457.66 Q317.467 1454.1 313.833 1454.1 M313.833 1450.39 Q319.643 1450.39 322.698 1455 Q325.777 1459.58 325.777 1468.33 Q325.777 1477.06 322.698 1481.67 Q319.643 1486.25 313.833 1486.25 Q308.023 1486.25 304.944 1481.67 Q301.888 1477.06 301.888 1468.33 Q301.888 1459.58 304.944 1455 Q308.023 1450.39 313.833 1450.39 Z" fill="#000000" fill-rule="nonzero" fill-opacity="1" /><path clip-path="url(#clip190)" d="M334.805 1481.64 L342.444 1481.64 L342.444 1455.28 L334.134 1456.95 L334.134 1452.69 L342.397 1451.02 L347.073 1451.02 L347.073 1481.64 L354.712 1481.64 L354.712 1485.58 L334.805 1485.58 L334.805 1481.64 Z" fill="#000000" fill-rule="nonzero" fill-opacity="1" /><path clip-path="url(#clip190)" d="M361.402 1470.7 L373.879 1470.7 L373.879 1474.49 L361.402 1474.49 L361.402 1470.7 Z" fill="#000000" fill-rule="nonzero" fill-opacity="1" /><path clip-path="url(#clip190)" d="M391.263 1454.1 Q387.652 1454.1 385.823 1457.66 Q384.018 1461.2 384.018 1468.33 Q384.018 1475.44 385.823 1479.01 Q387.652 1482.55 391.263 1482.55 Q394.897 1482.55 396.703 1479.01 Q398.531 1475.44 398.531 1468.33 Q398.531 1461.2 396.703 1457.66 Q394.897 1454.1 391.263 1454.1 M391.263 1450.39 Q397.073 1450.39 400.129 1455 Q403.207 1459.58 403.207 1468.33 Q403.207 1477.06 400.129 1481.67 Q397.073 1486.25 391.263 1486.25 Q385.453 1486.25 382.374 1481.67 Q379.318 1477.06 379.318 1468.33 Q379.318 1459.58 382.374 1455 Q385.453 1450.39 391.263 1450.39 Z" fill="#000000" fill-rule="nonzero" fill-opacity="1" /><path clip-path="url(#clip190)" d="M412.235 1481.64 L419.874 1481.64 L419.874 1455.28 L411.564 1456.95 L411.564 1452.69 L419.828 1451.02 L424.503 1451.02 L424.503 1481.64 L432.142 1481.64 L432.142 1485.58 L412.235 1485.58 L412.235 1481.64 Z" fill="#000000" fill-rule="nonzero" fill-opacity="1" /><path clip-path="url(#clip190)" d="M676.727 1481.64 L693.046 1481.64 L693.046 1485.58 L671.102 1485.58 L671.102 1481.64 Q673.764 1478.89 678.347 1474.26 Q682.954 1469.61 684.134 1468.27 Q686.38 1465.74 687.259 1464.01 Q688.162 1462.25 688.162 1460.56 Q688.162 1457.8 686.218 1456.07 Q684.296 1454.33 681.195 1454.33 Q678.995 1454.33 676.542 1455.09 Q674.111 1455.86 671.333 1457.41 L671.333 1452.69 Q674.158 1451.55 676.611 1450.97 Q679.065 1450.39 681.102 1450.39 Q686.472 1450.39 689.667 1453.08 Q692.861 1455.77 692.861 1460.26 Q692.861 1462.39 692.051 1464.31 Q691.264 1466.2 689.157 1468.8 Q688.579 1469.47 685.477 1472.69 Q682.375 1475.88 676.727 1481.64 Z" fill="#000000" fill-rule="nonzero" fill-opacity="1" /><path clip-path="url(#clip190)" d="M712.861 1454.1 Q709.25 1454.1 707.421 1457.66 Q705.616 1461.2 705.616 1468.33 Q705.616 1475.44 707.421 1479.01 Q709.25 1482.55 712.861 1482.55 Q716.495 1482.55 718.301 1479.01 Q720.13 1475.44 720.13 1468.33 Q720.13 1461.2 718.301 1457.66 Q716.495 1454.1 712.861 1454.1 M712.861 1450.39 Q718.671 1450.39 721.727 1455 Q724.805 1459.58 724.805 1468.33 Q724.805 1477.06 721.727 1481.67 Q718.671 1486.25 712.861 1486.25 Q707.051 1486.25 703.972 1481.67 Q700.917 1477.06 700.917 1468.33 Q700.917 1459.58 703.972 1455 Q707.051 1450.39 712.861 1450.39 Z" fill="#000000" fill-rule="nonzero" fill-opacity="1" /><path clip-path="url(#clip190)" d="M737.051 1481.64 L753.37 1481.64 L753.37 1485.58 L731.426 1485.58 L731.426 1481.64 Q734.088 1478.89 738.671 1474.26 Q743.278 1469.61 744.458 1468.27 Q746.703 1465.74 747.583 1464.01 Q748.486 1462.25 748.486 1460.56 Q748.486 1457.8 746.541 1456.07 Q744.62 1454.33 741.518 1454.33 Q739.319 1454.33 736.866 1455.09 Q734.435 1455.86 731.657 1457.41 L731.657 1452.69 Q734.481 1451.55 736.935 1450.97 Q739.389 1450.39 741.426 1450.39 Q746.796 1450.39 749.99 1453.08 Q753.185 1455.77 753.185 1460.26 Q753.185 1462.39 752.375 1464.31 Q751.588 1466.2 749.481 1468.8 Q748.903 1469.47 745.801 1472.69 Q742.699 1475.88 737.051 1481.64 Z" fill="#000000" fill-rule="nonzero" fill-opacity="1" /><path clip-path="url(#clip190)" d="M763.995 1481.64 L771.634 1481.64 L771.634 1455.28 L763.324 1456.95 L763.324 1452.69 L771.588 1451.02 L776.263 1451.02 L776.263 1481.64 L783.902 1481.64 L783.902 1485.58 L763.995 1485.58 L763.995 1481.64 Z" fill="#000000" fill-rule="nonzero" fill-opacity="1" /><path clip-path="url(#clip190)" d="M790.592 1470.7 L803.069 1470.7 L803.069 1474.49 L790.592 1474.49 L790.592 1470.7 Z" fill="#000000" fill-rule="nonzero" fill-opacity="1" /><path clip-path="url(#clip190)" d="M820.453 1454.1 Q816.842 1454.1 815.013 1457.66 Q813.208 1461.2 813.208 1468.33 Q813.208 1475.44 815.013 1479.01 Q816.842 1482.55 820.453 1482.55 Q824.087 1482.55 825.893 1479.01 Q827.722 1475.44 827.722 1468.33 Q827.722 1461.2 825.893 1457.66 Q824.087 1454.1 820.453 1454.1 M820.453 1450.39 Q826.263 1450.39 829.319 1455 Q832.397 1459.58 832.397 1468.33 Q832.397 1477.06 829.319 1481.67 Q826.263 1486.25 820.453 1486.25 Q814.643 1486.25 811.564 1481.67 Q808.509 1477.06 808.509 1468.33 Q808.509 1459.58 811.564 1455 Q814.643 1450.39 820.453 1450.39 Z" fill="#000000" fill-rule="nonzero" fill-opacity="1" /><path clip-path="url(#clip190)" d="M853.462 1455.09 L841.657 1473.54 L853.462 1473.54 L853.462 1455.09 M852.235 1451.02 L858.115 1451.02 L858.115 1473.54 L863.045 1473.54 L863.045 1477.43 L858.115 1477.43 L858.115 1485.58 L853.462 1485.58 L853.462 1477.43 L837.86 1477.43 L837.86 1472.92 L852.235 1451.02 Z" fill="#000000" fill-rule="nonzero" fill-opacity="1" /><path clip-path="url(#clip190)" d="M868.022 1470.7 L880.499 1470.7 L880.499 1474.49 L868.022 1474.49 L868.022 1470.7 Z" fill="#000000" fill-rule="nonzero" fill-opacity="1" /><path clip-path="url(#clip190)" d="M897.883 1454.1 Q894.272 1454.1 892.443 1457.66 Q890.638 1461.2 890.638 1468.33 Q890.638 1475.44 892.443 1479.01 Q894.272 1482.55 897.883 1482.55 Q901.517 1482.55 903.323 1479.01 Q905.152 1475.44 905.152 1468.33 Q905.152 1461.2 903.323 1457.66 Q901.517 1454.1 897.883 1454.1 M897.883 1450.39 Q903.693 1450.39 906.749 1455 Q909.828 1459.58 909.828 1468.33 Q909.828 1477.06 906.749 1481.67 Q903.693 1486.25 897.883 1486.25 Q892.073 1486.25 888.994 1481.67 Q885.939 1477.06 885.939 1468.33 Q885.939 1459.58 888.994 1455 Q892.073 1450.39 897.883 1450.39 Z" fill="#000000" fill-rule="nonzero" fill-opacity="1" /><path clip-path="url(#clip190)" d="M918.855 1481.64 L926.494 1481.64 L926.494 1455.28 L918.184 1456.95 L918.184 1452.69 L926.448 1451.02 L931.124 1451.02 L931.124 1481.64 L938.763 1481.64 L938.763 1485.58 L918.855 1485.58 L918.855 1481.64 Z" fill="#000000" fill-rule="nonzero" fill-opacity="1" /><path clip-path="url(#clip190)" d="M1188.98 1481.64 L1205.3 1481.64 L1205.3 1485.58 L1183.35 1485.58 L1183.35 1481.64 Q1186.01 1478.89 1190.6 1474.26 Q1195.2 1469.61 1196.38 1468.27 Q1198.63 1465.74 1199.51 1464.01 Q1200.41 1462.25 1200.41 1460.56 Q1200.41 1457.8 1198.47 1456.07 Q1196.55 1454.33 1193.44 1454.33 Q1191.24 1454.33 1188.79 1455.09 Q1186.36 1455.86 1183.58 1457.41 L1183.58 1452.69 Q1186.41 1451.55 1188.86 1450.97 Q1191.31 1450.39 1193.35 1450.39 Q1198.72 1450.39 1201.92 1453.08 Q1205.11 1455.77 1205.11 1460.26 Q1205.11 1462.39 1204.3 1464.31 Q1203.51 1466.2 1201.41 1468.8 Q1200.83 1469.47 1197.73 1472.69 Q1194.62 1475.88 1188.98 1481.64 Z" fill="#000000" fill-rule="nonzero" fill-opacity="1" /><path clip-path="url(#clip190)" d="M1225.11 1454.1 Q1221.5 1454.1 1219.67 1457.66 Q1217.87 1461.2 1217.87 1468.33 Q1217.87 1475.44 1219.67 1479.01 Q1221.5 1482.55 1225.11 1482.55 Q1228.74 1482.55 1230.55 1479.01 Q1232.38 1475.44 1232.38 1468.33 Q1232.38 1461.2 1230.55 1457.66 Q1228.74 1454.1 1225.11 1454.1 M1225.11 1450.39 Q1230.92 1450.39 1233.98 1455 Q1237.05 1459.58 1237.05 1468.33 Q1237.05 1477.06 1233.98 1481.67 Q1230.92 1486.25 1225.11 1486.25 Q1219.3 1486.25 1216.22 1481.67 Q1213.17 1477.06 1213.17 1468.33 Q1213.17 1459.58 1216.22 1455 Q1219.3 1450.39 1225.11 1450.39 Z" fill="#000000" fill-rule="nonzero" fill-opacity="1" /><path clip-path="url(#clip190)" d="M1249.3 1481.64 L1265.62 1481.64 L1265.62 1485.58 L1243.68 1485.58 L1243.68 1481.64 Q1246.34 1478.89 1250.92 1474.26 Q1255.53 1469.61 1256.71 1468.27 Q1258.95 1465.74 1259.83 1464.01 Q1260.74 1462.25 1260.74 1460.56 Q1260.74 1457.8 1258.79 1456.07 Q1256.87 1454.33 1253.77 1454.33 Q1251.57 1454.33 1249.11 1455.09 Q1246.68 1455.86 1243.91 1457.41 L1243.91 1452.69 Q1246.73 1451.55 1249.18 1450.97 Q1251.64 1450.39 1253.68 1450.39 Q1259.05 1450.39 1262.24 1453.08 Q1265.43 1455.77 1265.43 1460.26 Q1265.43 1462.39 1264.62 1464.31 Q1263.84 1466.2 1261.73 1468.8 Q1261.15 1469.47 1258.05 1472.69 Q1254.95 1475.88 1249.3 1481.64 Z" fill="#000000" fill-rule="nonzero" fill-opacity="1" /><path clip-path="url(#clip190)" d="M1276.24 1481.64 L1283.88 1481.64 L1283.88 1455.28 L1275.57 1456.95 L1275.57 1452.69 L1283.84 1451.02 L1288.51 1451.02 L1288.51 1481.64 L1296.15 1481.64 L1296.15 1485.58 L1276.24 1485.58 L1276.24 1481.64 Z" fill="#000000" fill-rule="nonzero" fill-opacity="1" /><path clip-path="url(#clip190)" d="M1302.84 1470.7 L1315.32 1470.7 L1315.32 1474.49 L1302.84 1474.49 L1302.84 1470.7 Z" fill="#000000" fill-rule="nonzero" fill-opacity="1" /><path clip-path="url(#clip190)" d="M1332.7 1454.1 Q1329.09 1454.1 1327.26 1457.66 Q1325.46 1461.2 1325.46 1468.33 Q1325.46 1475.44 1327.26 1479.01 Q1329.09 1482.55 1332.7 1482.55 Q1336.34 1482.55 1338.14 1479.01 Q1339.97 1475.44 1339.97 1468.33 Q1339.97 1461.2 1338.14 1457.66 Q1336.34 1454.1 1332.7 1454.1 M1332.7 1450.39 Q1338.51 1450.39 1341.57 1455 Q1344.65 1459.58 1344.65 1468.33 Q1344.65 1477.06 1341.57 1481.67 Q1338.51 1486.25 1332.7 1486.25 Q1326.89 1486.25 1323.81 1481.67 Q1320.76 1477.06 1320.76 1468.33 Q1320.76 1459.58 1323.81 1455 Q1326.89 1450.39 1332.7 1450.39 Z" fill="#000000" fill-rule="nonzero" fill-opacity="1" /><path clip-path="url(#clip190)" d="M1351.68 1451.02 L1373.91 1451.02 L1373.91 1453.01 L1361.36 1485.58 L1356.48 1485.58 L1368.28 1454.96 L1351.68 1454.96 L1351.68 1451.02 Z" fill="#000000" fill-rule="nonzero" fill-opacity="1" /><path clip-path="url(#clip190)" d="M1380.27 1470.7 L1392.75 1470.7 L1392.75 1474.49 L1380.27 1474.49 L1380.27 1470.7 Z" fill="#000000" fill-rule="nonzero" fill-opacity="1" /><path clip-path="url(#clip190)" d="M1410.13 1454.1 Q1406.52 1454.1 1404.69 1457.66 Q1402.89 1461.2 1402.89 1468.33 Q1402.89 1475.44 1404.69 1479.01 Q1406.52 1482.55 1410.13 1482.55 Q1413.77 1482.55 1415.57 1479.01 Q1417.4 1475.44 1417.4 1468.33 Q1417.4 1461.2 1415.57 1457.66 Q1413.77 1454.1 1410.13 1454.1 M1410.13 1450.39 Q1415.94 1450.39 1419 1455 Q1422.08 1459.58 1422.08 1468.33 Q1422.08 1477.06 1419 1481.67 Q1415.94 1486.25 1410.13 1486.25 Q1404.32 1486.25 1401.24 1481.67 Q1398.19 1477.06 1398.19 1468.33 Q1398.19 1459.58 1401.24 1455 Q1404.32 1450.39 1410.13 1450.39 Z" fill="#000000" fill-rule="nonzero" fill-opacity="1" /><path clip-path="url(#clip190)" d="M1431.1 1481.64 L1438.74 1481.64 L1438.74 1455.28 L1430.43 1456.95 L1430.43 1452.69 L1438.7 1451.02 L1443.37 1451.02 L1443.37 1481.64 L1451.01 1481.64 L1451.01 1485.58 L1431.1 1485.58 L1431.1 1481.64 Z" fill="#000000" fill-rule="nonzero" fill-opacity="1" /><path clip-path="url(#clip190)" d="M1706.85 1481.64 L1723.17 1481.64 L1723.17 1485.58 L1701.23 1485.58 L1701.23 1481.64 Q1703.89 1478.89 1708.48 1474.26 Q1713.08 1469.61 1714.26 1468.27 Q1716.51 1465.74 1717.39 1464.01 Q1718.29 1462.25 1718.29 1460.56 Q1718.29 1457.8 1716.35 1456.07 Q1714.42 1454.33 1711.32 1454.33 Q1709.12 1454.33 1706.67 1455.09 Q1704.24 1455.86 1701.46 1457.41 L1701.46 1452.69 Q1704.29 1451.55 1706.74 1450.97 Q1709.19 1450.39 1711.23 1450.39 Q1716.6 1450.39 1719.79 1453.08 Q1722.99 1455.77 1722.99 1460.26 Q1722.99 1462.39 1722.18 1464.31 Q1721.39 1466.2 1719.29 1468.8 Q1718.71 1469.47 1715.6 1472.69 Q1712.5 1475.88 1706.85 1481.64 Z" fill="#000000" fill-rule="nonzero" fill-opacity="1" /><path clip-path="url(#clip190)" d="M1742.99 1454.1 Q1739.38 1454.1 1737.55 1457.66 Q1735.74 1461.2 1735.74 1468.33 Q1735.74 1475.44 1737.55 1479.01 Q1739.38 1482.55 1742.99 1482.55 Q1746.62 1482.55 1748.43 1479.01 Q1750.26 1475.44 1750.26 1468.33 Q1750.26 1461.2 1748.43 1457.66 Q1746.62 1454.1 1742.99 1454.1 M1742.99 1450.39 Q1748.8 1450.39 1751.85 1455 Q1754.93 1459.58 1754.93 1468.33 Q1754.93 1477.06 1751.85 1481.67 Q1748.8 1486.25 1742.99 1486.25 Q1737.18 1486.25 1734.1 1481.67 Q1731.04 1477.06 1731.04 1468.33 Q1731.04 1459.58 1734.1 1455 Q1737.18 1450.39 1742.99 1450.39 Z" fill="#000000" fill-rule="nonzero" fill-opacity="1" /><path clip-path="url(#clip190)" d="M1767.18 1481.64 L1783.5 1481.64 L1783.5 1485.58 L1761.55 1485.58 L1761.55 1481.64 Q1764.22 1478.89 1768.8 1474.26 Q1773.41 1469.61 1774.59 1468.27 Q1776.83 1465.74 1777.71 1464.01 Q1778.61 1462.25 1778.61 1460.56 Q1778.61 1457.8 1776.67 1456.07 Q1774.75 1454.33 1771.65 1454.33 Q1769.45 1454.33 1766.99 1455.09 Q1764.56 1455.86 1761.79 1457.41 L1761.79 1452.69 Q1764.61 1451.55 1767.06 1450.97 Q1769.52 1450.39 1771.55 1450.39 Q1776.92 1450.39 1780.12 1453.08 Q1783.31 1455.77 1783.31 1460.26 Q1783.31 1462.39 1782.5 1464.31 Q1781.72 1466.2 1779.61 1468.8 Q1779.03 1469.47 1775.93 1472.69 Q1772.83 1475.88 1767.18 1481.64 Z" fill="#000000" fill-rule="nonzero" fill-opacity="1" /><path clip-path="url(#clip190)" d="M1794.12 1481.64 L1801.76 1481.64 L1801.76 1455.28 L1793.45 1456.95 L1793.45 1452.69 L1801.72 1451.02 L1806.39 1451.02 L1806.39 1481.64 L1814.03 1481.64 L1814.03 1485.58 L1794.12 1485.58 L1794.12 1481.64 Z" fill="#000000" fill-rule="nonzero" fill-opacity="1" /><path clip-path="url(#clip190)" d="M1820.72 1470.7 L1833.2 1470.7 L1833.2 1474.49 L1820.72 1474.49 L1820.72 1470.7 Z" fill="#000000" fill-rule="nonzero" fill-opacity="1" /><path clip-path="url(#clip190)" d="M1841.39 1481.64 L1849.03 1481.64 L1849.03 1455.28 L1840.72 1456.95 L1840.72 1452.69 L1848.98 1451.02 L1853.66 1451.02 L1853.66 1481.64 L1861.3 1481.64 L1861.3 1485.58 L1841.39 1485.58 L1841.39 1481.64 Z" fill="#000000" fill-rule="nonzero" fill-opacity="1" /><path clip-path="url(#clip190)" d="M1880.74 1454.1 Q1877.13 1454.1 1875.3 1457.66 Q1873.5 1461.2 1873.5 1468.33 Q1873.5 1475.44 1875.3 1479.01 Q1877.13 1482.55 1880.74 1482.55 Q1884.38 1482.55 1886.18 1479.01 Q1888.01 1475.44 1888.01 1468.33 Q1888.01 1461.2 1886.18 1457.66 Q1884.38 1454.1 1880.74 1454.1 M1880.74 1450.39 Q1886.55 1450.39 1889.61 1455 Q1892.69 1459.58 1892.69 1468.33 Q1892.69 1477.06 1889.61 1481.67 Q1886.55 1486.25 1880.74 1486.25 Q1874.93 1486.25 1871.85 1481.67 Q1868.8 1477.06 1868.8 1468.33 Q1868.8 1459.58 1871.85 1455 Q1874.93 1450.39 1880.74 1450.39 Z" fill="#000000" fill-rule="nonzero" fill-opacity="1" /><path clip-path="url(#clip190)" d="M1898.15 1470.7 L1910.63 1470.7 L1910.63 1474.49 L1898.15 1474.49 L1898.15 1470.7 Z" fill="#000000" fill-rule="nonzero" fill-opacity="1" /><path clip-path="url(#clip190)" d="M1928.01 1454.1 Q1924.4 1454.1 1922.57 1457.66 Q1920.77 1461.2 1920.77 1468.33 Q1920.77 1475.44 1922.57 1479.01 Q1924.4 1482.55 1928.01 1482.55 Q1931.65 1482.55 1933.45 1479.01 Q1935.28 1475.44 1935.28 1468.33 Q1935.28 1461.2 1933.45 1457.66 Q1931.65 1454.1 1928.01 1454.1 M1928.01 1450.39 Q1933.82 1450.39 1936.88 1455 Q1939.96 1459.58 1939.96 1468.33 Q1939.96 1477.06 1936.88 1481.67 Q1933.82 1486.25 1928.01 1486.25 Q1922.2 1486.25 1919.12 1481.67 Q1916.07 1477.06 1916.07 1468.33 Q1916.07 1459.58 1919.12 1455 Q1922.2 1450.39 1928.01 1450.39 Z" fill="#000000" fill-rule="nonzero" fill-opacity="1" /><path clip-path="url(#clip190)" d="M1948.98 1481.64 L1956.62 1481.64 L1956.62 1455.28 L1948.31 1456.95 L1948.31 1452.69 L1956.58 1451.02 L1961.25 1451.02 L1961.25 1481.64 L1968.89 1481.64 L1968.89 1485.58 L1948.98 1485.58 L1948.98 1481.64 Z" fill="#000000" fill-rule="nonzero" fill-opacity="1" /><path clip-path="url(#clip190)" d="M1261.62 1537.81 L1261.62 1518.52 L1267.47 1518.52 L1267.47 1568.04 L1261.62 1568.04 L1261.62 1562.7 Q1259.77 1565.88 1256.94 1567.44 Q1254.14 1568.97 1250.19 1568.97 Q1243.73 1568.97 1239.65 1563.81 Q1235.61 1558.65 1235.61 1550.25 Q1235.61 1541.85 1239.65 1536.69 Q1243.73 1531.54 1250.19 1531.54 Q1254.14 1531.54 1256.94 1533.1 Q1259.77 1534.62 1261.62 1537.81 M1241.66 1550.25 Q1241.66 1556.71 1244.3 1560.4 Q1246.98 1564.07 1251.62 1564.07 Q1256.27 1564.07 1258.94 1560.4 Q1261.62 1556.71 1261.62 1550.25 Q1261.62 1543.79 1258.94 1540.13 Q1256.27 1536.44 1251.62 1536.44 Q1246.98 1536.44 1244.3 1540.13 Q1241.66 1543.79 1241.66 1550.25 Z" fill="#000000" fill-rule="nonzero" fill-opacity="1" /><path clip-path="url(#clip190)" d="M1295.74 1550.12 Q1288.64 1550.12 1285.9 1551.75 Q1283.16 1553.37 1283.16 1557.29 Q1283.16 1560.4 1285.2 1562.25 Q1287.27 1564.07 1290.8 1564.07 Q1295.67 1564.07 1298.6 1560.63 Q1301.56 1557.16 1301.56 1551.43 L1301.56 1550.12 L1295.74 1550.12 M1307.42 1547.71 L1307.42 1568.04 L1301.56 1568.04 L1301.56 1562.63 Q1299.56 1565.88 1296.56 1567.44 Q1293.57 1568.97 1289.24 1568.97 Q1283.77 1568.97 1280.52 1565.91 Q1277.31 1562.82 1277.31 1557.67 Q1277.31 1551.65 1281.32 1548.6 Q1285.36 1545.54 1293.35 1545.54 L1301.56 1545.54 L1301.56 1544.97 Q1301.56 1540.93 1298.89 1538.73 Q1296.25 1536.5 1291.44 1536.5 Q1288.38 1536.5 1285.49 1537.23 Q1282.59 1537.97 1279.92 1539.43 L1279.92 1534.02 Q1283.13 1532.78 1286.16 1532.17 Q1289.18 1531.54 1292.04 1531.54 Q1299.78 1531.54 1303.6 1535.55 Q1307.42 1539.56 1307.42 1547.71 Z" fill="#000000" fill-rule="nonzero" fill-opacity="1" /><path clip-path="url(#clip190)" d="M1325.27 1522.27 L1325.27 1532.4 L1337.34 1532.4 L1337.34 1536.95 L1325.27 1536.95 L1325.27 1556.3 Q1325.27 1560.66 1326.45 1561.9 Q1327.66 1563.14 1331.32 1563.14 L1337.34 1563.14 L1337.34 1568.04 L1331.32 1568.04 Q1324.54 1568.04 1321.96 1565.53 Q1319.39 1562.98 1319.39 1556.3 L1319.39 1536.95 L1315.09 1536.95 L1315.09 1532.4 L1319.39 1532.4 L1319.39 1522.27 L1325.27 1522.27 Z" fill="#000000" fill-rule="nonzero" fill-opacity="1" /><path clip-path="url(#clip190)" d="M1375.53 1548.76 L1375.53 1551.62 L1348.6 1551.62 Q1348.99 1557.67 1352.23 1560.85 Q1355.51 1564 1361.34 1564 Q1364.71 1564 1367.86 1563.17 Q1371.04 1562.35 1374.16 1560.69 L1374.16 1566.23 Q1371.01 1567.57 1367.7 1568.27 Q1364.39 1568.97 1360.99 1568.97 Q1352.46 1568.97 1347.46 1564 Q1342.49 1559.04 1342.49 1550.57 Q1342.49 1541.82 1347.2 1536.69 Q1351.95 1531.54 1359.97 1531.54 Q1367.16 1531.54 1371.33 1536.18 Q1375.53 1540.8 1375.53 1548.76 M1369.67 1547.04 Q1369.61 1542.23 1366.97 1539.37 Q1364.36 1536.5 1360.03 1536.5 Q1355.13 1536.5 1352.17 1539.27 Q1349.24 1542.04 1348.79 1547.07 L1369.67 1547.04 Z" fill="#000000" fill-rule="nonzero" fill-opacity="1" /><polyline clip-path="url(#clip192)" style="stroke:#000000; stroke-linecap:round; stroke-linejoin:round; stroke-width:2; stroke-opacity:0.1; fill:none" points="258.387,1384.24 2352.76,1384.24 "/>
<polyline clip-path="url(#clip192)" style="stroke:#000000; stroke-linecap:round; stroke-linejoin:round; stroke-width:2; stroke-opacity:0.1; fill:none" points="258.387,671.659 2352.76,671.659 "/>
<polyline clip-path="url(#clip190)" style="stroke:#000000; stroke-linecap:round; stroke-linejoin:round; stroke-width:4; stroke-opacity:1; fill:none" points="258.387,1423.18 258.387,47.2441 "/>
<polyline clip-path="url(#clip190)" style="stroke:#000000; stroke-linecap:round; stroke-linejoin:round; stroke-width:4; stroke-opacity:1; fill:none" points="258.387,1384.24 277.285,1384.24 "/>
<polyline clip-path="url(#clip190)" style="stroke:#000000; stroke-linecap:round; stroke-linejoin:round; stroke-width:4; stroke-opacity:1; fill:none" points="258.387,671.659 277.285,671.659 "/>
<path clip-path="url(#clip190)" d="M114.931 1404.03 L122.57 1404.03 L122.57 1377.67 L114.26 1379.33 L114.26 1375.07 L122.524 1373.41 L127.2 1373.41 L127.2 1404.03 L134.839 1404.03 L134.839 1407.97 L114.931 1407.97 L114.931 1404.03 Z" fill="#000000" fill-rule="nonzero" fill-opacity="1" /><path clip-path="url(#clip190)" d="M154.283 1376.48 Q150.672 1376.48 148.843 1380.05 Q147.038 1383.59 147.038 1390.72 Q147.038 1397.83 148.843 1401.39 Q150.672 1404.93 154.283 1404.93 Q157.917 1404.93 159.723 1401.39 Q161.552 1397.83 161.552 1390.72 Q161.552 1383.59 159.723 1380.05 Q157.917 1376.48 154.283 1376.48 M154.283 1372.78 Q160.093 1372.78 163.149 1377.39 Q166.227 1381.97 166.227 1390.72 Q166.227 1399.45 163.149 1404.05 Q160.093 1408.64 154.283 1408.64 Q148.473 1408.64 145.394 1404.05 Q142.339 1399.45 142.339 1390.72 Q142.339 1381.97 145.394 1377.39 Q148.473 1372.78 154.283 1372.78 Z" fill="#000000" fill-rule="nonzero" fill-opacity="1" /><path clip-path="url(#clip190)" d="M175.932 1354.98 Q172.998 1354.98 171.512 1357.87 Q170.045 1360.75 170.045 1366.54 Q170.045 1372.32 171.512 1375.21 Q172.998 1378.09 175.932 1378.09 Q178.885 1378.09 180.352 1375.21 Q181.838 1372.32 181.838 1366.54 Q181.838 1360.75 180.352 1357.87 Q178.885 1354.98 175.932 1354.98 M175.932 1351.97 Q180.653 1351.97 183.136 1355.71 Q185.637 1359.43 185.637 1366.54 Q185.637 1373.63 183.136 1377.38 Q180.653 1381.1 175.932 1381.1 Q171.212 1381.1 168.71 1377.38 Q166.227 1373.63 166.227 1366.54 Q166.227 1359.43 168.71 1355.71 Q171.212 1351.97 175.932 1351.97 Z" fill="#000000" fill-rule="nonzero" fill-opacity="1" /><path clip-path="url(#clip190)" d="M192.314 1375.78 L196.282 1375.78 L196.282 1380.56 L192.314 1380.56 L192.314 1375.78 Z" fill="#000000" fill-rule="nonzero" fill-opacity="1" /><path clip-path="url(#clip190)" d="M212.683 1354.98 Q209.749 1354.98 208.263 1357.87 Q206.796 1360.75 206.796 1366.54 Q206.796 1372.32 208.263 1375.21 Q209.749 1378.09 212.683 1378.09 Q215.635 1378.09 217.102 1375.21 Q218.588 1372.32 218.588 1366.54 Q218.588 1360.75 217.102 1357.87 Q215.635 1354.98 212.683 1354.98 M212.683 1351.97 Q217.403 1351.97 219.886 1355.71 Q222.387 1359.43 222.387 1366.54 Q222.387 1373.63 219.886 1377.38 Q217.403 1381.1 212.683 1381.1 Q207.962 1381.1 205.46 1377.38 Q202.978 1373.63 202.978 1366.54 Q202.978 1359.43 205.46 1355.71 Q207.962 1351.97 212.683 1351.97 Z" fill="#000000" fill-rule="nonzero" fill-opacity="1" /><path clip-path="url(#clip190)" d="M116.229 691.451 L123.868 691.451 L123.868 665.086 L115.558 666.752 L115.558 662.493 L123.822 660.826 L128.498 660.826 L128.498 691.451 L136.136 691.451 L136.136 695.386 L116.229 695.386 L116.229 691.451 Z" fill="#000000" fill-rule="nonzero" fill-opacity="1" /><path clip-path="url(#clip190)" d="M155.581 663.905 Q151.97 663.905 150.141 667.47 Q148.335 671.011 148.335 678.141 Q148.335 685.247 150.141 688.812 Q151.97 692.354 155.581 692.354 Q159.215 692.354 161.021 688.812 Q162.849 685.247 162.849 678.141 Q162.849 671.011 161.021 667.47 Q159.215 663.905 155.581 663.905 M155.581 660.201 Q161.391 660.201 164.447 664.808 Q167.525 669.391 167.525 678.141 Q167.525 686.868 164.447 691.474 Q161.391 696.058 155.581 696.058 Q149.771 696.058 146.692 691.474 Q143.636 686.868 143.636 678.141 Q143.636 669.391 146.692 664.808 Q149.771 660.201 155.581 660.201 Z" fill="#000000" fill-rule="nonzero" fill-opacity="1" /><path clip-path="url(#clip190)" d="M177.23 642.397 Q174.296 642.397 172.81 645.294 Q171.343 648.171 171.343 653.964 Q171.343 659.738 172.81 662.634 Q174.296 665.512 177.23 665.512 Q180.183 665.512 181.65 662.634 Q183.136 659.738 183.136 653.964 Q183.136 648.171 181.65 645.294 Q180.183 642.397 177.23 642.397 M177.23 639.388 Q181.951 639.388 184.433 643.131 Q186.935 646.855 186.935 653.964 Q186.935 661.055 184.433 664.797 Q181.951 668.521 177.23 668.521 Q172.509 668.521 170.008 664.797 Q167.525 661.055 167.525 653.964 Q167.525 646.855 170.008 643.131 Q172.509 639.388 177.23 639.388 Z" fill="#000000" fill-rule="nonzero" fill-opacity="1" /><path clip-path="url(#clip190)" d="M193.612 663.199 L197.58 663.199 L197.58 667.976 L193.612 667.976 L193.612 663.199 Z" fill="#000000" fill-rule="nonzero" fill-opacity="1" /><path clip-path="url(#clip190)" d="M209.128 664.779 L222.387 664.779 L222.387 667.976 L204.558 667.976 L204.558 664.779 Q206.721 662.54 210.445 658.779 Q214.187 654.999 215.146 653.908 Q216.971 651.858 217.686 650.447 Q218.419 649.018 218.419 647.645 Q218.419 645.407 216.839 643.996 Q215.278 642.585 212.758 642.585 Q210.971 642.585 208.978 643.206 Q207.003 643.827 204.746 645.087 L204.746 641.25 Q207.04 640.328 209.034 639.858 Q211.028 639.388 212.683 639.388 Q217.046 639.388 219.642 641.57 Q222.237 643.751 222.237 647.4 Q222.237 649.13 221.579 650.692 Q220.939 652.234 219.228 654.34 Q218.758 654.886 216.237 657.5 Q213.717 660.095 209.128 664.779 Z" fill="#000000" fill-rule="nonzero" fill-opacity="1" /><path clip-path="url(#clip190)" d="M46.0847 888.244 Q46.0847 895.341 47.7079 898.079 Q49.3312 900.816 53.2461 900.816 Q56.3653 900.816 58.2114 898.779 Q60.0256 896.71 60.0256 893.177 Q60.0256 888.307 56.5881 885.379 Q53.1188 882.419 47.3897 882.419 L46.0847 882.419 L46.0847 888.244 M43.6657 876.562 L64.0042 876.562 L64.0042 882.419 L58.5933 882.419 Q61.8398 884.424 63.3994 887.416 Q64.9272 890.408 64.9272 894.737 Q64.9272 900.211 61.8716 903.458 Q58.7843 906.672 53.6281 906.672 Q47.6125 906.672 44.5569 902.662 Q41.5014 898.62 41.5014 890.631 L41.5014 882.419 L40.9285 882.419 Q36.8862 882.419 34.6901 885.093 Q32.4621 887.734 32.4621 892.54 Q32.4621 895.596 33.1941 898.492 Q33.9262 901.389 35.3903 904.062 L29.9795 904.062 Q28.7381 900.848 28.1334 897.824 Q27.4968 894.8 27.4968 891.936 Q27.4968 884.201 31.5072 880.382 Q35.5176 876.562 43.6657 876.562 Z" fill="#000000" fill-rule="nonzero" fill-opacity="1" /><path clip-path="url(#clip190)" d="M29.7248 838.846 L35.1993 838.846 Q33.8307 841.328 33.1623 843.843 Q32.4621 846.325 32.4621 848.872 Q32.4621 854.569 36.0905 857.72 Q39.6872 860.871 46.212 860.871 Q52.7369 860.871 56.3653 857.72 Q59.9619 854.569 59.9619 848.872 Q59.9619 846.325 59.2935 843.843 Q58.5933 841.328 57.2247 838.846 L62.6355 838.846 Q63.7814 841.296 64.3543 843.938 Q64.9272 846.548 64.9272 849.508 Q64.9272 857.561 59.8664 862.303 Q54.8057 867.046 46.212 867.046 Q37.491 867.046 32.4939 862.271 Q27.4968 857.465 27.4968 849.126 Q27.4968 846.421 28.0697 843.843 Q28.6108 841.265 29.7248 838.846 Z" fill="#000000" fill-rule="nonzero" fill-opacity="1" /><path clip-path="url(#clip190)" d="M29.7248 803.007 L35.1993 803.007 Q33.8307 805.489 33.1623 808.004 Q32.4621 810.486 32.4621 813.033 Q32.4621 818.73 36.0905 821.881 Q39.6872 825.032 46.212 825.032 Q52.7369 825.032 56.3653 821.881 Q59.9619 818.73 59.9619 813.033 Q59.9619 810.486 59.2935 808.004 Q58.5933 805.489 57.2247 803.007 L62.6355 803.007 Q63.7814 805.458 64.3543 808.099 Q64.9272 810.709 64.9272 813.669 Q64.9272 821.722 59.8664 826.464 Q54.8057 831.207 46.212 831.207 Q37.491 831.207 32.4939 826.433 Q27.4968 821.626 27.4968 813.287 Q27.4968 810.582 28.0697 808.004 Q28.6108 805.426 29.7248 803.007 Z" fill="#000000" fill-rule="nonzero" fill-opacity="1" /><path clip-path="url(#clip190)" d="M55.9197 791.994 L55.9197 785.278 L64.0042 785.278 L64.0042 791.994 L55.9197 791.994 Z" fill="#000000" fill-rule="nonzero" fill-opacity="1" /><path clip-path="url(#clip190)" d="M33.8307 730.724 Q33.2578 731.711 33.0032 732.888 Q32.7167 734.034 32.7167 735.435 Q32.7167 740.4 35.9632 743.074 Q39.1779 745.715 45.2253 745.715 L64.0042 745.715 L64.0042 751.604 L28.3562 751.604 L28.3562 745.715 L33.8944 745.715 Q30.6479 743.869 29.0883 740.909 Q27.4968 737.949 27.4968 733.716 Q27.4968 733.111 27.5923 732.379 Q27.656 731.647 27.8151 730.756 L33.8307 730.724 Z" fill="#000000" fill-rule="nonzero" fill-opacity="1" /><path clip-path="url(#clip190)" d="M44.7161 695.522 L47.5806 695.522 L47.5806 722.449 Q53.6281 722.067 56.8109 718.82 Q59.9619 715.542 59.9619 709.717 Q59.9619 706.343 59.1344 703.192 Q58.3069 700.01 56.6518 696.89 L62.1899 696.89 Q63.5267 700.041 64.227 703.352 Q64.9272 706.662 64.9272 710.067 Q64.9272 718.597 59.9619 723.595 Q54.9967 728.56 46.5303 728.56 Q37.7774 728.56 32.6531 723.849 Q27.4968 719.107 27.4968 711.086 Q27.4968 703.893 32.1438 699.723 Q36.7589 695.522 44.7161 695.522 M42.9973 701.378 Q38.1912 701.442 35.3266 704.084 Q32.4621 706.694 32.4621 711.022 Q32.4621 715.924 35.2312 718.884 Q38.0002 721.812 43.0292 722.258 L42.9973 701.378 Z" fill="#000000" fill-rule="nonzero" fill-opacity="1" /><path clip-path="url(#clip190)" d="M18.2347 680.117 L28.3562 680.117 L28.3562 668.054 L32.9077 668.054 L32.9077 680.117 L52.2594 680.117 Q56.6199 680.117 57.8613 678.939 Q59.1026 677.73 59.1026 674.069 L59.1026 668.054 L64.0042 668.054 L64.0042 674.069 Q64.0042 680.849 61.4897 683.427 Q58.9434 686.005 52.2594 686.005 L32.9077 686.005 L32.9077 690.302 L28.3562 690.302 L28.3562 686.005 L18.2347 686.005 L18.2347 680.117 Z" fill="#000000" fill-rule="nonzero" fill-opacity="1" /><path clip-path="url(#clip190)" d="M49.9359 660.956 L28.3562 660.956 L28.3562 655.1 L49.7131 655.1 Q54.7739 655.1 57.3202 653.126 Q59.8346 651.153 59.8346 647.206 Q59.8346 642.464 56.8109 639.726 Q53.7872 636.957 48.5673 636.957 L28.3562 636.957 L28.3562 631.101 L64.0042 631.101 L64.0042 636.957 L58.5296 636.957 Q61.7762 639.09 63.3676 641.923 Q64.9272 644.723 64.9272 648.447 Q64.9272 654.59 61.1078 657.773 Q57.2883 660.956 49.9359 660.956 M27.4968 646.219 L27.4968 646.219 Z" fill="#000000" fill-rule="nonzero" fill-opacity="1" /><path clip-path="url(#clip190)" d="M33.8307 598.381 Q33.2578 599.368 33.0032 600.545 Q32.7167 601.691 32.7167 603.092 Q32.7167 608.057 35.9632 610.731 Q39.1779 613.372 45.2253 613.372 L64.0042 613.372 L64.0042 619.261 L28.3562 619.261 L28.3562 613.372 L33.8944 613.372 Q30.6479 611.526 29.0883 608.566 Q27.4968 605.606 27.4968 601.373 Q27.4968 600.768 27.5923 600.036 Q27.656 599.304 27.8151 598.413 L33.8307 598.381 Z" fill="#000000" fill-rule="nonzero" fill-opacity="1" /><path clip-path="url(#clip190)" d="M42.4881 563.752 L64.0042 563.752 L64.0042 569.608 L42.679 569.608 Q37.6183 569.608 35.1038 571.581 Q32.5894 573.555 32.5894 577.502 Q32.5894 582.244 35.6131 584.981 Q38.6368 587.719 43.8567 587.719 L64.0042 587.719 L64.0042 593.607 L28.3562 593.607 L28.3562 587.719 L33.8944 587.719 Q30.6797 585.618 29.0883 582.785 Q27.4968 579.921 27.4968 576.197 Q27.4968 570.054 31.3163 566.903 Q35.1038 563.752 42.4881 563.752 Z" fill="#000000" fill-rule="nonzero" fill-opacity="1" /><polyline clip-path="url(#clip192)" style="stroke:#009af9; stroke-linecap:round; stroke-linejoin:round; stroke-width:12; stroke-opacity:1; fill:none" points="317.662,1384.24 323.291,1343.35 328.92,1312.56 334.549,1265.04 340.179,1260.36 357.066,1252.62 362.695,1204.17 368.324,1207.76 373.953,1192.37 379.582,1214.18 402.099,1171.57 407.728,1181.2 413.357,1185.76 418.986,1167.52 435.873,1147.9 441.503,1098.33 447.132,829.761 452.761,1079.08 458.39,999.276 475.277,967.74 480.906,1087.33 486.535,1031.84 492.165,1061 497.794,1035.09 514.681,996.714 520.31,998.433 525.939,989.338 531.568,1015.1 537.198,993.131 559.714,992.17 565.343,1011.02 570.972,1058.21 576.601,1016 593.489,1030.22 599.118,1036.3 604.747,970.088 610.376,1050.15 616.005,1058.17 632.892,983.418 638.522,972.89 644.151,1021.54 649.78,1069.21 655.409,1074.79 672.296,1056.47 677.925,983.596 683.555,999.564 689.184,947.363 694.813,906.232 711.466,829.004 717.095,873.411 722.724,854.153 728.353,893.98 733.982,882.679 750.869,896.55 756.498,973.402 762.128,1043.57 767.757,974.136 773.386,968.793 790.273,994.52 795.902,974.308 801.531,971.667 807.16,975.861 829.677,948.404 835.306,959.935 840.935,983.507 846.564,985.926 852.193,997.275 869.081,1027.4 874.71,1024.75 880.339,1010.96 885.968,998.885 891.597,1010.85 908.485,1024.45 914.114,1048.59 919.743,1007.36 925.372,1012.46 931.001,988.011 947.888,947.118 953.517,947.873 959.147,950.391 964.776,972.031 970.405,988.645 987.292,989.085 992.921,1017.02 998.55,1023.49 1004.18,1034.28 1009.81,1001.27 1026.7,1019.7 1032.33,1007.37 1037.95,1045.65 1043.58,987.461 1049.21,952.127 1066.1,911.922 1071.73,915.99 1077.36,951.128 1082.99,935.793 1088.62,946.196 1105.5,907.053 1111.13,855.863 1116.76,776.674 1122.39,636.455 1128.02,639.901 1150.54,522.66 1156.17,86.1857 1161.79,236.072 1167.42,269.159 1184.31,164.04 1189.94,159.156 1195.57,243.581 1201.2,333.63 1206.83,240.172 1223.71,147.605 1229.34,127.037 1234.97,177.914 1240.6,117.095 1246.23,147.992 1263.12,182.92 1268.75,144.795 1274.38,138.634 1280.01,156.058 1285.64,193.128 1302.52,139.441 1308.15,169.879 1313.78,167.012 1319.41,191.2 1325.04,224.184 1347.56,264.619 1353.18,341.949 1358.81,309.103 1364.44,316.54 1381.33,372.277 1386.96,436.462 1392.59,542.5 1398.22,508.873 1403.85,544.559 1420.73,556.721 1426.36,406.472 1431.99,422.769 1437.62,485.79 1443.25,492.342 1460.14,436.758 1465.77,482.064 1471.4,455.677 1477.03,462.175 1482.65,488.968 1499.54,519.56 1505.17,538.288 1510.8,611.085 1516.43,538.693 1522.06,556.82 1538.95,531.804 1544.57,564.574 1550.2,570.795 1555.83,549.912 1561.46,551.597 1578.35,522.126 1583.98,509.92 1589.61,531.517 1595.24,589.483 1600.87,555.859 1617.75,496.861 1623.38,370.36 1629.01,366.36 1634.64,429.927 1640.27,401.771 1657.16,370.761 1662.79,313.249 1668.42,362.563 1674.04,343.104 1679.67,354.438 1702.19,306.363 1707.82,322.849 1713.45,305.955 1719.08,284.278 1735.96,259.792 1741.59,330.479 1747.22,333.022 1752.85,347.991 1758.48,381.915 1775.37,468.26 1781,487.562 1786.63,456.017 1792.26,438.048 1797.88,442.865 1814.77,436.605 1820.4,492.125 1826.03,519.055 1831.66,480.72 1837.29,463.443 1854.18,501.672 1859.8,491.73 1865.43,504.395 1871.06,472.05 1876.69,486.799 1893.58,484.332 1899.21,476.88 1904.84,449.02 1910.47,403.477 1916.1,396.949 1932.98,354.398 1938.61,381.866 1944.24,376.177 1949.87,404.057 1955.5,444.3 1972.39,427.888 1978.02,438.018 1983.65,471.965 1989.27,445.736 1994.9,447.436 2011.79,400.505 2017.42,378.801 2023.05,336.616 2028.68,342.076 2034.31,315.44 2051.43,265.445 2057.06,369.697 2062.69,407.075 2068.32,373.655 2073.95,369.278 2090.83,332.151 2096.46,332.893 2102.09,348.037 2107.72,371.13 2113.35,363.472 2130.24,360.396 2135.87,389.122 2141.5,384.825 2152.75,433.486 2169.64,432.268 2175.27,500.818 2180.9,616.728 2186.53,571.032 2192.16,613.566 2209.04,609.564 2214.67,535.104 2220.3,512.293 2225.93,585.151 2231.56,619.393 2248.45,720.078 2254.08,710.137 2259.71,687.141 2265.34,704.574 2270.96,626.111 2287.85,635.306 2293.48,592.594 "/>
<path clip-path="url(#clip190)" d="M328.2 196.789 L872.727 196.789 L872.727 93.1086 L328.2 93.1086  Z" fill="#ffffff" fill-rule="evenodd" fill-opacity="1"/>
<polyline clip-path="url(#clip190)" style="stroke:#000000; stroke-linecap:round; stroke-linejoin:round; stroke-width:4; stroke-opacity:1; fill:none" points="328.2,196.789 872.727,196.789 872.727,93.1086 328.2,93.1086 328.2,196.789 "/>
<polyline clip-path="url(#clip190)" style="stroke:#009af9; stroke-linecap:round; stroke-linejoin:round; stroke-width:12; stroke-opacity:1; fill:none" points="351.471,144.949 491.095,144.949 "/>
<path clip-path="url(#clip190)" d="M514.366 127.669 L519.042 127.669 L519.042 141.835 L536.032 141.835 L536.032 127.669 L540.708 127.669 L540.708 162.229 L536.032 162.229 L536.032 145.77 L519.042 145.77 L519.042 162.229 L514.366 162.229 L514.366 127.669 Z" fill="#000000" fill-rule="nonzero" fill-opacity="1" /><path clip-path="url(#clip190)" d="M559.875 139.289 Q556.449 139.289 554.458 141.974 Q552.467 144.636 552.467 149.289 Q552.467 153.942 554.435 156.627 Q556.426 159.289 559.875 159.289 Q563.278 159.289 565.268 156.604 Q567.259 153.918 567.259 149.289 Q567.259 144.682 565.268 141.997 Q563.278 139.289 559.875 139.289 M559.875 135.678 Q565.43 135.678 568.602 139.289 Q571.773 142.9 571.773 149.289 Q571.773 155.655 568.602 159.289 Q565.43 162.9 559.875 162.9 Q554.296 162.9 551.125 159.289 Q547.977 155.655 547.977 149.289 Q547.977 142.9 551.125 139.289 Q554.296 135.678 559.875 135.678 Z" fill="#000000" fill-rule="nonzero" fill-opacity="1" /><path clip-path="url(#clip190)" d="M599.018 141.28 Q600.615 138.409 602.838 137.044 Q605.06 135.678 608.069 135.678 Q612.12 135.678 614.319 138.525 Q616.518 141.349 616.518 146.581 L616.518 162.229 L612.236 162.229 L612.236 146.719 Q612.236 142.993 610.916 141.187 Q609.597 139.382 606.888 139.382 Q603.578 139.382 601.657 141.581 Q599.736 143.78 599.736 147.576 L599.736 162.229 L595.453 162.229 L595.453 146.719 Q595.453 142.969 594.134 141.187 Q592.814 139.382 590.06 139.382 Q586.796 139.382 584.875 141.604 Q582.953 143.803 582.953 147.576 L582.953 162.229 L578.671 162.229 L578.671 136.303 L582.953 136.303 L582.953 140.331 Q584.412 137.946 586.449 136.812 Q588.486 135.678 591.287 135.678 Q594.111 135.678 596.078 137.113 Q598.069 138.548 599.018 141.28 Z" fill="#000000" fill-rule="nonzero" fill-opacity="1" /><path clip-path="url(#clip190)" d="M635.06 139.289 Q631.634 139.289 629.643 141.974 Q627.652 144.636 627.652 149.289 Q627.652 153.942 629.62 156.627 Q631.611 159.289 635.06 159.289 Q638.462 159.289 640.453 156.604 Q642.444 153.918 642.444 149.289 Q642.444 144.682 640.453 141.997 Q638.462 139.289 635.06 139.289 M635.06 135.678 Q640.615 135.678 643.786 139.289 Q646.958 142.9 646.958 149.289 Q646.958 155.655 643.786 159.289 Q640.615 162.9 635.06 162.9 Q629.481 162.9 626.31 159.289 Q623.162 155.655 623.162 149.289 Q623.162 142.9 626.31 139.289 Q629.481 135.678 635.06 135.678 Z" fill="#000000" fill-rule="nonzero" fill-opacity="1" /><path clip-path="url(#clip190)" d="M671.078 148.965 Q671.078 144.335 669.157 141.789 Q667.259 139.243 663.809 139.243 Q660.384 139.243 658.462 141.789 Q656.564 144.335 656.564 148.965 Q656.564 153.571 658.462 156.118 Q660.384 158.664 663.809 158.664 Q667.259 158.664 669.157 156.118 Q671.078 153.571 671.078 148.965 M675.337 159.011 Q675.337 165.631 672.397 168.849 Q669.458 172.09 663.393 172.09 Q661.147 172.09 659.157 171.742 Q657.166 171.418 655.291 170.724 L655.291 166.58 Q657.166 167.599 658.995 168.085 Q660.823 168.571 662.722 168.571 Q666.911 168.571 668.995 166.372 Q671.078 164.196 671.078 159.775 L671.078 157.668 Q669.759 159.96 667.698 161.094 Q665.638 162.229 662.768 162.229 Q657.999 162.229 655.083 158.594 Q652.166 154.96 652.166 148.965 Q652.166 142.946 655.083 139.312 Q657.999 135.678 662.768 135.678 Q665.638 135.678 667.698 136.812 Q669.759 137.946 671.078 140.238 L671.078 136.303 L675.337 136.303 L675.337 159.011 Z" fill="#000000" fill-rule="nonzero" fill-opacity="1" /><path clip-path="url(#clip190)" d="M706.286 148.201 L706.286 150.284 L686.703 150.284 Q686.981 154.682 689.342 156.997 Q691.726 159.289 695.962 159.289 Q698.416 159.289 700.707 158.687 Q703.022 158.085 705.291 156.881 L705.291 160.909 Q702.999 161.881 700.592 162.391 Q698.184 162.9 695.707 162.9 Q689.504 162.9 685.87 159.289 Q682.258 155.678 682.258 149.52 Q682.258 143.155 685.684 139.428 Q689.133 135.678 694.967 135.678 Q700.198 135.678 703.231 139.057 Q706.286 142.414 706.286 148.201 M702.027 146.951 Q701.981 143.456 700.059 141.372 Q698.161 139.289 695.013 139.289 Q691.448 139.289 689.295 141.303 Q687.166 143.317 686.842 146.974 L702.027 146.951 Z" fill="#000000" fill-rule="nonzero" fill-opacity="1" /><path clip-path="url(#clip190)" d="M734.828 146.581 L734.828 162.229 L730.568 162.229 L730.568 146.719 Q730.568 143.039 729.133 141.21 Q727.698 139.382 724.828 139.382 Q721.379 139.382 719.388 141.581 Q717.397 143.78 717.397 147.576 L717.397 162.229 L713.115 162.229 L713.115 136.303 L717.397 136.303 L717.397 140.331 Q718.925 137.993 720.985 136.835 Q723.068 135.678 725.777 135.678 Q730.244 135.678 732.536 138.456 Q734.828 141.21 734.828 146.581 Z" fill="#000000" fill-rule="nonzero" fill-opacity="1" /><path clip-path="url(#clip190)" d="M765.499 148.201 L765.499 150.284 L745.916 150.284 Q746.193 154.682 748.554 156.997 Q750.939 159.289 755.175 159.289 Q757.628 159.289 759.92 158.687 Q762.235 158.085 764.503 156.881 L764.503 160.909 Q762.212 161.881 759.804 162.391 Q757.397 162.9 754.92 162.9 Q748.716 162.9 745.082 159.289 Q741.471 155.678 741.471 149.52 Q741.471 143.155 744.897 139.428 Q748.346 135.678 754.179 135.678 Q759.411 135.678 762.443 139.057 Q765.499 142.414 765.499 148.201 M761.24 146.951 Q761.193 143.456 759.272 141.372 Q757.374 139.289 754.226 139.289 Q750.661 139.289 748.508 141.303 Q746.378 143.317 746.054 146.974 L761.24 146.951 Z" fill="#000000" fill-rule="nonzero" fill-opacity="1" /><path clip-path="url(#clip190)" d="M782.536 139.289 Q779.11 139.289 777.119 141.974 Q775.128 144.636 775.128 149.289 Q775.128 153.942 777.096 156.627 Q779.087 159.289 782.536 159.289 Q785.938 159.289 787.929 156.604 Q789.92 153.918 789.92 149.289 Q789.92 144.682 787.929 141.997 Q785.938 139.289 782.536 139.289 M782.536 135.678 Q788.091 135.678 791.263 139.289 Q794.434 142.9 794.434 149.289 Q794.434 155.655 791.263 159.289 Q788.091 162.9 782.536 162.9 Q776.957 162.9 773.786 159.289 Q770.638 155.655 770.638 149.289 Q770.638 142.9 773.786 139.289 Q776.957 135.678 782.536 135.678 Z" fill="#000000" fill-rule="nonzero" fill-opacity="1" /><path clip-path="url(#clip190)" d="M801.054 151.997 L801.054 136.303 L805.313 136.303 L805.313 151.835 Q805.313 155.516 806.749 157.368 Q808.184 159.196 811.054 159.196 Q814.503 159.196 816.494 156.997 Q818.508 154.798 818.508 151.002 L818.508 136.303 L822.767 136.303 L822.767 162.229 L818.508 162.229 L818.508 158.247 Q816.957 160.608 814.897 161.766 Q812.86 162.9 810.151 162.9 Q805.684 162.9 803.369 160.122 Q801.054 157.344 801.054 151.997 M811.772 135.678 L811.772 135.678 Z" fill="#000000" fill-rule="nonzero" fill-opacity="1" /><path clip-path="url(#clip190)" d="M848.068 137.067 L848.068 141.094 Q846.262 140.169 844.318 139.706 Q842.373 139.243 840.29 139.243 Q837.119 139.243 835.522 140.215 Q833.947 141.187 833.947 143.131 Q833.947 144.613 835.082 145.469 Q836.216 146.303 839.642 147.067 L841.1 147.391 Q845.637 148.363 847.535 150.145 Q849.457 151.905 849.457 155.076 Q849.457 158.687 846.586 160.793 Q843.739 162.9 838.739 162.9 Q836.656 162.9 834.387 162.483 Q832.142 162.09 829.642 161.28 L829.642 156.881 Q832.003 158.108 834.295 158.733 Q836.586 159.335 838.832 159.335 Q841.841 159.335 843.461 158.317 Q845.082 157.275 845.082 155.4 Q845.082 153.664 843.901 152.738 Q842.744 151.812 838.785 150.956 L837.304 150.608 Q833.346 149.775 831.586 148.062 Q829.827 146.326 829.827 143.317 Q829.827 139.659 832.42 137.669 Q835.012 135.678 839.781 135.678 Q842.142 135.678 844.225 136.025 Q846.309 136.372 848.068 137.067 Z" fill="#000000" fill-rule="nonzero" fill-opacity="1" /></svg>
