<?xml version="1.0" encoding="utf-8"?>
<svg xmlns="http://www.w3.org/2000/svg" xmlns:xlink="http://www.w3.org/1999/xlink" width="800" height="600" viewBox="0 0 3200 2400">
<defs>
  <clipPath id="clip730">
    <rect x="0" y="0" width="3200" height="2400"/>
  </clipPath>
</defs>
<path clip-path="url(#clip730)" d="M0 2400 L3200 2400 L3200 0 L0 0  Z" fill="#ffffff" fill-rule="evenodd" fill-opacity="1"/>
<defs>
  <clipPath id="clip731">
    <rect x="640" y="0" width="2241" height="2241"/>
  </clipPath>
</defs>
<path clip-path="url(#clip730)" d="M216.167 2204.92 L3152.76 2204.92 L3152.76 47.2441 L216.167 47.2441  Z" fill="#ffffff" fill-rule="evenodd" fill-opacity="1"/>
<defs>
  <clipPath id="clip732">
    <rect x="216" y="47" width="2938" height="2159"/>
  </clipPath>
</defs>
<polyline clip-path="url(#clip732)" style="stroke:#000000; stroke-linecap:round; stroke-linejoin:round; stroke-width:2; stroke-opacity:0.1; fill:none" points="272.147,2204.92 272.147,47.2441 "/>
<polyline clip-path="url(#clip732)" style="stroke:#000000; stroke-linecap:round; stroke-linejoin:round; stroke-width:2; stroke-opacity:0.1; fill:none" points="982.497,2204.92 982.497,47.2441 "/>
<polyline clip-path="url(#clip732)" style="stroke:#000000; stroke-linecap:round; stroke-linejoin:round; stroke-width:2; stroke-opacity:0.1; fill:none" points="1700.74,2204.92 1700.74,47.2441 "/>
<polyline clip-path="url(#clip732)" style="stroke:#000000; stroke-linecap:round; stroke-linejoin:round; stroke-width:2; stroke-opacity:0.1; fill:none" points="2426.88,2204.92 2426.88,47.2441 "/>
<polyline clip-path="url(#clip732)" style="stroke:#000000; stroke-linecap:round; stroke-linejoin:round; stroke-width:2; stroke-opacity:0.05; fill:none" points="414.217,2204.92 414.217,47.2441 "/>
<polyline clip-path="url(#clip732)" style="stroke:#000000; stroke-linecap:round; stroke-linejoin:round; stroke-width:2; stroke-opacity:0.05; fill:none" points="556.287,2204.92 556.287,47.2441 "/>
<polyline clip-path="url(#clip732)" style="stroke:#000000; stroke-linecap:round; stroke-linejoin:round; stroke-width:2; stroke-opacity:0.05; fill:none" points="698.357,2204.92 698.357,47.2441 "/>
<polyline clip-path="url(#clip732)" style="stroke:#000000; stroke-linecap:round; stroke-linejoin:round; stroke-width:2; stroke-opacity:0.05; fill:none" points="840.427,2204.92 840.427,47.2441 "/>
<polyline clip-path="url(#clip732)" style="stroke:#000000; stroke-linecap:round; stroke-linejoin:round; stroke-width:2; stroke-opacity:0.05; fill:none" points="1126.15,2204.92 1126.15,47.2441 "/>
<polyline clip-path="url(#clip732)" style="stroke:#000000; stroke-linecap:round; stroke-linejoin:round; stroke-width:2; stroke-opacity:0.05; fill:none" points="1269.79,2204.92 1269.79,47.2441 "/>
<polyline clip-path="url(#clip732)" style="stroke:#000000; stroke-linecap:round; stroke-linejoin:round; stroke-width:2; stroke-opacity:0.05; fill:none" points="1413.44,2204.92 1413.44,47.2441 "/>
<polyline clip-path="url(#clip732)" style="stroke:#000000; stroke-linecap:round; stroke-linejoin:round; stroke-width:2; stroke-opacity:0.05; fill:none" points="1557.09,2204.92 1557.09,47.2441 "/>
<polyline clip-path="url(#clip732)" style="stroke:#000000; stroke-linecap:round; stroke-linejoin:round; stroke-width:2; stroke-opacity:0.05; fill:none" points="1845.97,2204.92 1845.97,47.2441 "/>
<polyline clip-path="url(#clip732)" style="stroke:#000000; stroke-linecap:round; stroke-linejoin:round; stroke-width:2; stroke-opacity:0.05; fill:none" points="1991.19,2204.92 1991.19,47.2441 "/>
<polyline clip-path="url(#clip732)" style="stroke:#000000; stroke-linecap:round; stroke-linejoin:round; stroke-width:2; stroke-opacity:0.05; fill:none" points="2136.42,2204.92 2136.42,47.2441 "/>
<polyline clip-path="url(#clip732)" style="stroke:#000000; stroke-linecap:round; stroke-linejoin:round; stroke-width:2; stroke-opacity:0.05; fill:none" points="2281.65,2204.92 2281.65,47.2441 "/>
<polyline clip-path="url(#clip732)" style="stroke:#000000; stroke-linecap:round; stroke-linejoin:round; stroke-width:2; stroke-opacity:0.05; fill:none" points="2573.72,2204.92 2573.72,47.2441 "/>
<polyline clip-path="url(#clip732)" style="stroke:#000000; stroke-linecap:round; stroke-linejoin:round; stroke-width:2; stroke-opacity:0.05; fill:none" points="2720.56,2204.92 2720.56,47.2441 "/>
<polyline clip-path="url(#clip732)" style="stroke:#000000; stroke-linecap:round; stroke-linejoin:round; stroke-width:2; stroke-opacity:0.05; fill:none" points="2867.4,2204.92 2867.4,47.2441 "/>
<polyline clip-path="url(#clip732)" style="stroke:#000000; stroke-linecap:round; stroke-linejoin:round; stroke-width:2; stroke-opacity:0.05; fill:none" points="3014.24,2204.92 3014.24,47.2441 "/>
<polyline clip-path="url(#clip730)" style="stroke:#000000; stroke-linecap:round; stroke-linejoin:round; stroke-width:4; stroke-opacity:1; fill:none" points="216.167,2204.92 3152.76,2204.92 "/>
<polyline clip-path="url(#clip730)" style="stroke:#000000; stroke-linecap:round; stroke-linejoin:round; stroke-width:4; stroke-opacity:1; fill:none" points="272.147,2204.92 272.147,2186.02 "/>
<polyline clip-path="url(#clip730)" style="stroke:#000000; stroke-linecap:round; stroke-linejoin:round; stroke-width:4; stroke-opacity:1; fill:none" points="982.497,2204.92 982.497,2186.02 "/>
<polyline clip-path="url(#clip730)" style="stroke:#000000; stroke-linecap:round; stroke-linejoin:round; stroke-width:4; stroke-opacity:1; fill:none" points="1700.74,2204.92 1700.74,2186.02 "/>
<polyline clip-path="url(#clip730)" style="stroke:#000000; stroke-linecap:round; stroke-linejoin:round; stroke-width:4; stroke-opacity:1; fill:none" points="2426.88,2204.92 2426.88,2186.02 "/>
<polyline clip-path="url(#clip730)" style="stroke:#000000; stroke-linecap:round; stroke-linejoin:round; stroke-width:4; stroke-opacity:1; fill:none" points="414.217,2204.92 414.217,2195.47 "/>
<polyline clip-path="url(#clip730)" style="stroke:#000000; stroke-linecap:round; stroke-linejoin:round; stroke-width:4; stroke-opacity:1; fill:none" points="556.287,2204.92 556.287,2195.47 "/>
<polyline clip-path="url(#clip730)" style="stroke:#000000; stroke-linecap:round; stroke-linejoin:round; stroke-width:4; stroke-opacity:1; fill:none" points="698.357,2204.92 698.357,2195.47 "/>
<polyline clip-path="url(#clip730)" style="stroke:#000000; stroke-linecap:round; stroke-linejoin:round; stroke-width:4; stroke-opacity:1; fill:none" points="840.427,2204.92 840.427,2195.47 "/>
<polyline clip-path="url(#clip730)" style="stroke:#000000; stroke-linecap:round; stroke-linejoin:round; stroke-width:4; stroke-opacity:1; fill:none" points="1126.15,2204.92 1126.15,2195.47 "/>
<polyline clip-path="url(#clip730)" style="stroke:#000000; stroke-linecap:round; stroke-linejoin:round; stroke-width:4; stroke-opacity:1; fill:none" points="1269.79,2204.92 1269.79,2195.47 "/>
<polyline clip-path="url(#clip730)" style="stroke:#000000; stroke-linecap:round; stroke-linejoin:round; stroke-width:4; stroke-opacity:1; fill:none" points="1413.44,2204.92 1413.44,2195.47 "/>
<polyline clip-path="url(#clip730)" style="stroke:#000000; stroke-linecap:round; stroke-linejoin:round; stroke-width:4; stroke-opacity:1; fill:none" points="1557.09,2204.92 1557.09,2195.47 "/>
<polyline clip-path="url(#clip730)" style="stroke:#000000; stroke-linecap:round; stroke-linejoin:round; stroke-width:4; stroke-opacity:1; fill:none" points="1845.97,2204.92 1845.97,2195.47 "/>
<polyline clip-path="url(#clip730)" style="stroke:#000000; stroke-linecap:round; stroke-linejoin:round; stroke-width:4; stroke-opacity:1; fill:none" points="1991.19,2204.92 1991.19,2195.47 "/>
<polyline clip-path="url(#clip730)" style="stroke:#000000; stroke-linecap:round; stroke-linejoin:round; stroke-width:4; stroke-opacity:1; fill:none" points="2136.42,2204.92 2136.42,2195.47 "/>
<polyline clip-path="url(#clip730)" style="stroke:#000000; stroke-linecap:round; stroke-linejoin:round; stroke-width:4; stroke-opacity:1; fill:none" points="2281.65,2204.92 2281.65,2195.47 "/>
<polyline clip-path="url(#clip730)" style="stroke:#000000; stroke-linecap:round; stroke-linejoin:round; stroke-width:4; stroke-opacity:1; fill:none" points="2573.72,2204.92 2573.72,2195.47 "/>
<polyline clip-path="url(#clip730)" style="stroke:#000000; stroke-linecap:round; stroke-linejoin:round; stroke-width:4; stroke-opacity:1; fill:none" points="2720.56,2204.92 2720.56,2195.47 "/>
<polyline clip-path="url(#clip730)" style="stroke:#000000; stroke-linecap:round; stroke-linejoin:round; stroke-width:4; stroke-opacity:1; fill:none" points="2867.4,2204.92 2867.4,2195.47 "/>
<polyline clip-path="url(#clip730)" style="stroke:#000000; stroke-linecap:round; stroke-linejoin:round; stroke-width:4; stroke-opacity:1; fill:none" points="3014.24,2204.92 3014.24,2195.47 "/>
<path clip-path="url(#clip730)" d="M143.942 2269.78 L160.261 2269.78 L160.261 2273.72 L138.317 2273.72 L138.317 2269.78 Q140.979 2267.03 145.562 2262.4 Q150.169 2257.75 151.349 2256.41 Q153.594 2253.88 154.474 2252.15 Q155.377 2250.39 155.377 2248.7 Q155.377 2245.94 153.432 2244.21 Q151.511 2242.47 148.409 2242.47 Q146.21 2242.47 143.757 2243.23 Q141.326 2244 138.548 2245.55 L138.548 2240.83 Q141.372 2239.69 143.826 2239.11 Q146.28 2238.53 148.317 2238.53 Q153.687 2238.53 156.881 2241.22 Q160.076 2243.91 160.076 2248.4 Q160.076 2250.53 159.266 2252.45 Q158.479 2254.34 156.372 2256.94 Q155.793 2257.61 152.692 2260.83 Q149.59 2264.02 143.942 2269.78 Z" fill="#000000" fill-rule="nonzero" fill-opacity="1" /><path clip-path="url(#clip730)" d="M180.076 2242.24 Q176.465 2242.24 174.636 2245.8 Q172.83 2249.34 172.83 2256.47 Q172.83 2263.58 174.636 2267.15 Q176.465 2270.69 180.076 2270.69 Q183.71 2270.69 185.516 2267.15 Q187.344 2263.58 187.344 2256.47 Q187.344 2249.34 185.516 2245.8 Q183.71 2242.24 180.076 2242.24 M180.076 2238.53 Q185.886 2238.53 188.941 2243.14 Q192.02 2247.72 192.02 2256.47 Q192.02 2265.2 188.941 2269.81 Q185.886 2274.39 180.076 2274.39 Q174.266 2274.39 171.187 2269.81 Q168.131 2265.2 168.131 2256.47 Q168.131 2247.72 171.187 2243.14 Q174.266 2238.53 180.076 2238.53 Z" fill="#000000" fill-rule="nonzero" fill-opacity="1" /><path clip-path="url(#clip730)" d="M204.265 2269.78 L220.585 2269.78 L220.585 2273.72 L198.64 2273.72 L198.64 2269.78 Q201.302 2267.03 205.886 2262.4 Q210.492 2257.75 211.673 2256.41 Q213.918 2253.88 214.798 2252.15 Q215.701 2250.39 215.701 2248.7 Q215.701 2245.94 213.756 2244.21 Q211.835 2242.47 208.733 2242.47 Q206.534 2242.47 204.08 2243.23 Q201.65 2244 198.872 2245.55 L198.872 2240.83 Q201.696 2239.69 204.15 2239.11 Q206.603 2238.53 208.64 2238.53 Q214.011 2238.53 217.205 2241.22 Q220.4 2243.91 220.4 2248.4 Q220.4 2250.53 219.589 2252.45 Q218.802 2254.34 216.696 2256.94 Q216.117 2257.61 213.015 2260.83 Q209.914 2264.02 204.265 2269.78 Z" fill="#000000" fill-rule="nonzero" fill-opacity="1" /><path clip-path="url(#clip730)" d="M231.21 2269.78 L238.849 2269.78 L238.849 2243.42 L230.538 2245.09 L230.538 2240.83 L238.802 2239.16 L243.478 2239.16 L243.478 2269.78 L251.117 2269.78 L251.117 2273.72 L231.21 2273.72 L231.21 2269.78 Z" fill="#000000" fill-rule="nonzero" fill-opacity="1" /><path clip-path="url(#clip730)" d="M257.807 2258.84 L270.284 2258.84 L270.284 2262.63 L257.807 2262.63 L257.807 2258.84 Z" fill="#000000" fill-rule="nonzero" fill-opacity="1" /><path clip-path="url(#clip730)" d="M287.668 2242.24 Q284.057 2242.24 282.228 2245.8 Q280.422 2249.34 280.422 2256.47 Q280.422 2263.58 282.228 2267.15 Q284.057 2270.69 287.668 2270.69 Q291.302 2270.69 293.108 2267.15 Q294.936 2263.58 294.936 2256.47 Q294.936 2249.34 293.108 2245.8 Q291.302 2242.24 287.668 2242.24 M287.668 2238.53 Q293.478 2238.53 296.533 2243.14 Q299.612 2247.72 299.612 2256.47 Q299.612 2265.2 296.533 2269.81 Q293.478 2274.39 287.668 2274.39 Q281.858 2274.39 278.779 2269.81 Q275.723 2265.2 275.723 2256.47 Q275.723 2247.72 278.779 2243.14 Q281.858 2238.53 287.668 2238.53 Z" fill="#000000" fill-rule="nonzero" fill-opacity="1" /><path clip-path="url(#clip730)" d="M308.64 2269.78 L316.279 2269.78 L316.279 2243.42 L307.969 2245.09 L307.969 2240.83 L316.232 2239.16 L320.908 2239.16 L320.908 2269.78 L328.547 2269.78 L328.547 2273.72 L308.64 2273.72 L308.64 2269.78 Z" fill="#000000" fill-rule="nonzero" fill-opacity="1" /><path clip-path="url(#clip730)" d="M335.237 2258.84 L347.714 2258.84 L347.714 2262.63 L335.237 2262.63 L335.237 2258.84 Z" fill="#000000" fill-rule="nonzero" fill-opacity="1" /><path clip-path="url(#clip730)" d="M365.098 2242.24 Q361.487 2242.24 359.658 2245.8 Q357.853 2249.34 357.853 2256.47 Q357.853 2263.58 359.658 2267.15 Q361.487 2270.69 365.098 2270.69 Q368.732 2270.69 370.538 2267.15 Q372.366 2263.58 372.366 2256.47 Q372.366 2249.34 370.538 2245.8 Q368.732 2242.24 365.098 2242.24 M365.098 2238.53 Q370.908 2238.53 373.964 2243.14 Q377.042 2247.72 377.042 2256.47 Q377.042 2265.2 373.964 2269.81 Q370.908 2274.39 365.098 2274.39 Q359.288 2274.39 356.209 2269.81 Q353.154 2265.2 353.154 2256.47 Q353.154 2247.72 356.209 2243.14 Q359.288 2238.53 365.098 2238.53 Z" fill="#000000" fill-rule="nonzero" fill-opacity="1" /><path clip-path="url(#clip730)" d="M386.07 2269.78 L393.709 2269.78 L393.709 2243.42 L385.399 2245.09 L385.399 2240.83 L393.663 2239.16 L398.338 2239.16 L398.338 2269.78 L405.977 2269.78 L405.977 2273.72 L386.07 2273.72 L386.07 2269.78 Z" fill="#000000" fill-rule="nonzero" fill-opacity="1" /><path clip-path="url(#clip730)" d="M854.292 2269.78 L870.611 2269.78 L870.611 2273.72 L848.667 2273.72 L848.667 2269.78 Q851.329 2267.03 855.912 2262.4 Q860.519 2257.75 861.699 2256.41 Q863.945 2253.88 864.824 2252.15 Q865.727 2250.39 865.727 2248.7 Q865.727 2245.94 863.783 2244.21 Q861.861 2242.47 858.76 2242.47 Q856.561 2242.47 854.107 2243.23 Q851.676 2244 848.899 2245.55 L848.899 2240.83 Q851.723 2239.69 854.176 2239.11 Q856.63 2238.53 858.667 2238.53 Q864.037 2238.53 867.232 2241.22 Q870.426 2243.91 870.426 2248.4 Q870.426 2250.53 869.616 2252.45 Q868.829 2254.34 866.723 2256.94 Q866.144 2257.61 863.042 2260.83 Q859.94 2264.02 854.292 2269.78 Z" fill="#000000" fill-rule="nonzero" fill-opacity="1" /><path clip-path="url(#clip730)" d="M890.426 2242.24 Q886.815 2242.24 884.986 2245.8 Q883.181 2249.34 883.181 2256.47 Q883.181 2263.58 884.986 2267.15 Q886.815 2270.69 890.426 2270.69 Q894.06 2270.69 895.866 2267.15 Q897.695 2263.58 897.695 2256.47 Q897.695 2249.34 895.866 2245.8 Q894.06 2242.24 890.426 2242.24 M890.426 2238.53 Q896.236 2238.53 899.292 2243.14 Q902.371 2247.72 902.371 2256.47 Q902.371 2265.2 899.292 2269.81 Q896.236 2274.39 890.426 2274.39 Q884.616 2274.39 881.537 2269.81 Q878.482 2265.2 878.482 2256.47 Q878.482 2247.72 881.537 2243.14 Q884.616 2238.53 890.426 2238.53 Z" fill="#000000" fill-rule="nonzero" fill-opacity="1" /><path clip-path="url(#clip730)" d="M914.616 2269.78 L930.935 2269.78 L930.935 2273.72 L908.991 2273.72 L908.991 2269.78 Q911.653 2267.03 916.236 2262.4 Q920.843 2257.75 922.023 2256.41 Q924.269 2253.88 925.148 2252.15 Q926.051 2250.39 926.051 2248.7 Q926.051 2245.94 924.107 2244.21 Q922.185 2242.47 919.083 2242.47 Q916.884 2242.47 914.431 2243.23 Q912 2244 909.222 2245.55 L909.222 2240.83 Q912.046 2239.69 914.5 2239.11 Q916.954 2238.53 918.991 2238.53 Q924.361 2238.53 927.556 2241.22 Q930.75 2243.91 930.75 2248.4 Q930.75 2250.53 929.94 2252.45 Q929.153 2254.34 927.046 2256.94 Q926.468 2257.61 923.366 2260.83 Q920.264 2264.02 914.616 2269.78 Z" fill="#000000" fill-rule="nonzero" fill-opacity="1" /><path clip-path="url(#clip730)" d="M941.56 2269.78 L949.199 2269.78 L949.199 2243.42 L940.889 2245.09 L940.889 2240.83 L949.153 2239.16 L953.829 2239.16 L953.829 2269.78 L961.467 2269.78 L961.467 2273.72 L941.56 2273.72 L941.56 2269.78 Z" fill="#000000" fill-rule="nonzero" fill-opacity="1" /><path clip-path="url(#clip730)" d="M968.157 2258.84 L980.634 2258.84 L980.634 2262.63 L968.157 2262.63 L968.157 2258.84 Z" fill="#000000" fill-rule="nonzero" fill-opacity="1" /><path clip-path="url(#clip730)" d="M998.018 2242.24 Q994.407 2242.24 992.578 2245.8 Q990.773 2249.34 990.773 2256.47 Q990.773 2263.58 992.578 2267.15 Q994.407 2270.69 998.018 2270.69 Q1001.65 2270.69 1003.46 2267.15 Q1005.29 2263.58 1005.29 2256.47 Q1005.29 2249.34 1003.46 2245.8 Q1001.65 2242.24 998.018 2242.24 M998.018 2238.53 Q1003.83 2238.53 1006.88 2243.14 Q1009.96 2247.72 1009.96 2256.47 Q1009.96 2265.2 1006.88 2269.81 Q1003.83 2274.39 998.018 2274.39 Q992.208 2274.39 989.129 2269.81 Q986.074 2265.2 986.074 2256.47 Q986.074 2247.72 989.129 2243.14 Q992.208 2238.53 998.018 2238.53 Z" fill="#000000" fill-rule="nonzero" fill-opacity="1" /><path clip-path="url(#clip730)" d="M1031.03 2243.23 L1019.22 2261.68 L1031.03 2261.68 L1031.03 2243.23 M1029.8 2239.16 L1035.68 2239.16 L1035.68 2261.68 L1040.61 2261.68 L1040.61 2265.57 L1035.68 2265.57 L1035.68 2273.72 L1031.03 2273.72 L1031.03 2265.57 L1015.43 2265.57 L1015.43 2261.06 L1029.8 2239.16 Z" fill="#000000" fill-rule="nonzero" fill-opacity="1" /><path clip-path="url(#clip730)" d="M1045.59 2258.84 L1058.06 2258.84 L1058.06 2262.63 L1045.59 2262.63 L1045.59 2258.84 Z" fill="#000000" fill-rule="nonzero" fill-opacity="1" /><path clip-path="url(#clip730)" d="M1075.45 2242.24 Q1071.84 2242.24 1070.01 2245.8 Q1068.2 2249.34 1068.2 2256.47 Q1068.2 2263.58 1070.01 2267.15 Q1071.84 2270.69 1075.45 2270.69 Q1079.08 2270.69 1080.89 2267.15 Q1082.72 2263.58 1082.72 2256.47 Q1082.72 2249.34 1080.89 2245.8 Q1079.08 2242.24 1075.45 2242.24 M1075.45 2238.53 Q1081.26 2238.53 1084.31 2243.14 Q1087.39 2247.72 1087.39 2256.47 Q1087.39 2265.2 1084.31 2269.81 Q1081.26 2274.39 1075.45 2274.39 Q1069.64 2274.39 1066.56 2269.81 Q1063.5 2265.2 1063.5 2256.47 Q1063.5 2247.72 1066.56 2243.14 Q1069.64 2238.53 1075.45 2238.53 Z" fill="#000000" fill-rule="nonzero" fill-opacity="1" /><path clip-path="url(#clip730)" d="M1096.42 2269.78 L1104.06 2269.78 L1104.06 2243.42 L1095.75 2245.09 L1095.75 2240.83 L1104.01 2239.16 L1108.69 2239.16 L1108.69 2269.78 L1116.33 2269.78 L1116.33 2273.72 L1096.42 2273.72 L1096.42 2269.78 Z" fill="#000000" fill-rule="nonzero" fill-opacity="1" /><path clip-path="url(#clip730)" d="M1572.54 2269.78 L1588.85 2269.78 L1588.85 2273.72 L1566.91 2273.72 L1566.91 2269.78 Q1569.57 2267.03 1574.16 2262.4 Q1578.76 2257.75 1579.94 2256.41 Q1582.19 2253.88 1583.07 2252.15 Q1583.97 2250.39 1583.97 2248.7 Q1583.97 2245.94 1582.03 2244.21 Q1580.1 2242.47 1577 2242.47 Q1574.8 2242.47 1572.35 2243.23 Q1569.92 2244 1567.14 2245.55 L1567.14 2240.83 Q1569.97 2239.69 1572.42 2239.11 Q1574.87 2238.53 1576.91 2238.53 Q1582.28 2238.53 1585.47 2241.22 Q1588.67 2243.91 1588.67 2248.4 Q1588.67 2250.53 1587.86 2252.45 Q1587.07 2254.34 1584.97 2256.94 Q1584.39 2257.61 1581.29 2260.83 Q1578.18 2264.02 1572.54 2269.78 Z" fill="#000000" fill-rule="nonzero" fill-opacity="1" /><path clip-path="url(#clip730)" d="M1608.67 2242.24 Q1605.06 2242.24 1603.23 2245.8 Q1601.42 2249.34 1601.42 2256.47 Q1601.42 2263.58 1603.23 2267.15 Q1605.06 2270.69 1608.67 2270.69 Q1612.3 2270.69 1614.11 2267.15 Q1615.94 2263.58 1615.94 2256.47 Q1615.94 2249.34 1614.11 2245.8 Q1612.3 2242.24 1608.67 2242.24 M1608.67 2238.53 Q1614.48 2238.53 1617.53 2243.14 Q1620.61 2247.72 1620.61 2256.47 Q1620.61 2265.2 1617.53 2269.81 Q1614.48 2274.39 1608.67 2274.39 Q1602.86 2274.39 1599.78 2269.81 Q1596.72 2265.2 1596.72 2256.47 Q1596.72 2247.72 1599.78 2243.14 Q1602.86 2238.53 1608.67 2238.53 Z" fill="#000000" fill-rule="nonzero" fill-opacity="1" /><path clip-path="url(#clip730)" d="M1632.86 2269.78 L1649.18 2269.78 L1649.18 2273.72 L1627.23 2273.72 L1627.23 2269.78 Q1629.9 2267.03 1634.48 2262.4 Q1639.09 2257.75 1640.27 2256.41 Q1642.51 2253.88 1643.39 2252.15 Q1644.29 2250.39 1644.29 2248.7 Q1644.29 2245.94 1642.35 2244.21 Q1640.43 2242.47 1637.33 2242.47 Q1635.13 2242.47 1632.67 2243.23 Q1630.24 2244 1627.47 2245.55 L1627.47 2240.83 Q1630.29 2239.69 1632.74 2239.11 Q1635.2 2238.53 1637.23 2238.53 Q1642.6 2238.53 1645.8 2241.22 Q1648.99 2243.91 1648.99 2248.4 Q1648.99 2250.53 1648.18 2252.45 Q1647.4 2254.34 1645.29 2256.94 Q1644.71 2257.61 1641.61 2260.83 Q1638.51 2264.02 1632.86 2269.78 Z" fill="#000000" fill-rule="nonzero" fill-opacity="1" /><path clip-path="url(#clip730)" d="M1659.8 2269.78 L1667.44 2269.78 L1667.44 2243.42 L1659.13 2245.09 L1659.13 2240.83 L1667.4 2239.16 L1672.07 2239.16 L1672.07 2269.78 L1679.71 2269.78 L1679.71 2273.72 L1659.8 2273.72 L1659.8 2269.78 Z" fill="#000000" fill-rule="nonzero" fill-opacity="1" /><path clip-path="url(#clip730)" d="M1686.4 2258.84 L1698.88 2258.84 L1698.88 2262.63 L1686.4 2262.63 L1686.4 2258.84 Z" fill="#000000" fill-rule="nonzero" fill-opacity="1" /><path clip-path="url(#clip730)" d="M1716.26 2242.24 Q1712.65 2242.24 1710.82 2245.8 Q1709.02 2249.34 1709.02 2256.47 Q1709.02 2263.58 1710.82 2267.15 Q1712.65 2270.69 1716.26 2270.69 Q1719.9 2270.69 1721.7 2267.15 Q1723.53 2263.58 1723.53 2256.47 Q1723.53 2249.34 1721.7 2245.8 Q1719.9 2242.24 1716.26 2242.24 M1716.26 2238.53 Q1722.07 2238.53 1725.13 2243.14 Q1728.21 2247.72 1728.21 2256.47 Q1728.21 2265.2 1725.13 2269.81 Q1722.07 2274.39 1716.26 2274.39 Q1710.45 2274.39 1707.37 2269.81 Q1704.32 2265.2 1704.32 2256.47 Q1704.32 2247.72 1707.37 2243.14 Q1710.45 2238.53 1716.26 2238.53 Z" fill="#000000" fill-rule="nonzero" fill-opacity="1" /><path clip-path="url(#clip730)" d="M1735.24 2239.16 L1757.46 2239.16 L1757.46 2241.15 L1744.92 2273.72 L1740.03 2273.72 L1751.84 2243.1 L1735.24 2243.1 L1735.24 2239.16 Z" fill="#000000" fill-rule="nonzero" fill-opacity="1" /><path clip-path="url(#clip730)" d="M1763.83 2258.84 L1776.31 2258.84 L1776.31 2262.63 L1763.83 2262.63 L1763.83 2258.84 Z" fill="#000000" fill-rule="nonzero" fill-opacity="1" /><path clip-path="url(#clip730)" d="M1793.69 2242.24 Q1790.08 2242.24 1788.25 2245.8 Q1786.45 2249.34 1786.45 2256.47 Q1786.45 2263.58 1788.25 2267.15 Q1790.08 2270.69 1793.69 2270.69 Q1797.33 2270.69 1799.13 2267.15 Q1800.96 2263.58 1800.96 2256.47 Q1800.96 2249.34 1799.13 2245.8 Q1797.33 2242.24 1793.69 2242.24 M1793.69 2238.53 Q1799.5 2238.53 1802.56 2243.14 Q1805.64 2247.72 1805.64 2256.47 Q1805.64 2265.2 1802.56 2269.81 Q1799.5 2274.39 1793.69 2274.39 Q1787.88 2274.39 1784.8 2269.81 Q1781.75 2265.2 1781.75 2256.47 Q1781.75 2247.72 1784.8 2243.14 Q1787.88 2238.53 1793.69 2238.53 Z" fill="#000000" fill-rule="nonzero" fill-opacity="1" /><path clip-path="url(#clip730)" d="M1814.66 2269.78 L1822.3 2269.78 L1822.3 2243.42 L1813.99 2245.09 L1813.99 2240.83 L1822.26 2239.16 L1826.93 2239.16 L1826.93 2269.78 L1834.57 2269.78 L1834.57 2273.72 L1814.66 2273.72 L1814.66 2269.78 Z" fill="#000000" fill-rule="nonzero" fill-opacity="1" /><path clip-path="url(#clip730)" d="M2298.67 2269.78 L2314.99 2269.78 L2314.99 2273.72 L2293.05 2273.72 L2293.05 2269.78 Q2295.71 2267.03 2300.29 2262.4 Q2304.9 2257.75 2306.08 2256.41 Q2308.32 2253.88 2309.2 2252.15 Q2310.11 2250.39 2310.11 2248.7 Q2310.11 2245.94 2308.16 2244.21 Q2306.24 2242.47 2303.14 2242.47 Q2300.94 2242.47 2298.49 2243.23 Q2296.06 2244 2293.28 2245.55 L2293.28 2240.83 Q2296.1 2239.69 2298.56 2239.11 Q2301.01 2238.53 2303.05 2238.53 Q2308.42 2238.53 2311.61 2241.22 Q2314.81 2243.91 2314.81 2248.4 Q2314.81 2250.53 2314 2252.45 Q2313.21 2254.34 2311.1 2256.94 Q2310.52 2257.61 2307.42 2260.83 Q2304.32 2264.02 2298.67 2269.78 Z" fill="#000000" fill-rule="nonzero" fill-opacity="1" /><path clip-path="url(#clip730)" d="M2334.81 2242.24 Q2331.19 2242.24 2329.37 2245.8 Q2327.56 2249.34 2327.56 2256.47 Q2327.56 2263.58 2329.37 2267.15 Q2331.19 2270.69 2334.81 2270.69 Q2338.44 2270.69 2340.25 2267.15 Q2342.07 2263.58 2342.07 2256.47 Q2342.07 2249.34 2340.25 2245.8 Q2338.44 2242.24 2334.81 2242.24 M2334.81 2238.53 Q2340.62 2238.53 2343.67 2243.14 Q2346.75 2247.72 2346.75 2256.47 Q2346.75 2265.2 2343.67 2269.81 Q2340.62 2274.39 2334.81 2274.39 Q2329 2274.39 2325.92 2269.81 Q2322.86 2265.2 2322.86 2256.47 Q2322.86 2247.72 2325.92 2243.14 Q2329 2238.53 2334.81 2238.53 Z" fill="#000000" fill-rule="nonzero" fill-opacity="1" /><path clip-path="url(#clip730)" d="M2358.99 2269.78 L2375.31 2269.78 L2375.31 2273.72 L2353.37 2273.72 L2353.37 2269.78 Q2356.03 2267.03 2360.62 2262.4 Q2365.22 2257.75 2366.4 2256.41 Q2368.65 2253.88 2369.53 2252.15 Q2370.43 2250.39 2370.43 2248.7 Q2370.43 2245.94 2368.49 2244.21 Q2366.56 2242.47 2363.46 2242.47 Q2361.26 2242.47 2358.81 2243.23 Q2356.38 2244 2353.6 2245.55 L2353.6 2240.83 Q2356.43 2239.69 2358.88 2239.11 Q2361.33 2238.53 2363.37 2238.53 Q2368.74 2238.53 2371.93 2241.22 Q2375.13 2243.91 2375.13 2248.4 Q2375.13 2250.53 2374.32 2252.45 Q2373.53 2254.34 2371.43 2256.94 Q2370.85 2257.61 2367.74 2260.83 Q2364.64 2264.02 2358.99 2269.78 Z" fill="#000000" fill-rule="nonzero" fill-opacity="1" /><path clip-path="url(#clip730)" d="M2385.94 2269.78 L2393.58 2269.78 L2393.58 2243.42 L2385.27 2245.09 L2385.27 2240.83 L2393.53 2239.16 L2398.21 2239.16 L2398.21 2269.78 L2405.85 2269.78 L2405.85 2273.72 L2385.94 2273.72 L2385.94 2269.78 Z" fill="#000000" fill-rule="nonzero" fill-opacity="1" /><path clip-path="url(#clip730)" d="M2412.54 2258.84 L2425.01 2258.84 L2425.01 2262.63 L2412.54 2262.63 L2412.54 2258.84 Z" fill="#000000" fill-rule="nonzero" fill-opacity="1" /><path clip-path="url(#clip730)" d="M2433.21 2269.78 L2440.85 2269.78 L2440.85 2243.42 L2432.54 2245.09 L2432.54 2240.83 L2440.8 2239.16 L2445.48 2239.16 L2445.48 2269.78 L2453.11 2269.78 L2453.11 2273.72 L2433.21 2273.72 L2433.21 2269.78 Z" fill="#000000" fill-rule="nonzero" fill-opacity="1" /><path clip-path="url(#clip730)" d="M2472.56 2242.24 Q2468.95 2242.24 2467.12 2245.8 Q2465.31 2249.34 2465.31 2256.47 Q2465.31 2263.58 2467.12 2267.15 Q2468.95 2270.69 2472.56 2270.69 Q2476.19 2270.69 2478 2267.15 Q2479.83 2263.58 2479.83 2256.47 Q2479.83 2249.34 2478 2245.8 Q2476.19 2242.24 2472.56 2242.24 M2472.56 2238.53 Q2478.37 2238.53 2481.42 2243.14 Q2484.5 2247.72 2484.5 2256.47 Q2484.5 2265.2 2481.42 2269.81 Q2478.37 2274.39 2472.56 2274.39 Q2466.75 2274.39 2463.67 2269.81 Q2460.61 2265.2 2460.61 2256.47 Q2460.61 2247.72 2463.67 2243.14 Q2466.75 2238.53 2472.56 2238.53 Z" fill="#000000" fill-rule="nonzero" fill-opacity="1" /><path clip-path="url(#clip730)" d="M2489.97 2258.84 L2502.44 2258.84 L2502.44 2262.63 L2489.97 2262.63 L2489.97 2258.84 Z" fill="#000000" fill-rule="nonzero" fill-opacity="1" /><path clip-path="url(#clip730)" d="M2519.83 2242.24 Q2516.22 2242.24 2514.39 2245.8 Q2512.58 2249.34 2512.58 2256.47 Q2512.58 2263.58 2514.39 2267.15 Q2516.22 2270.69 2519.83 2270.69 Q2523.46 2270.69 2525.27 2267.15 Q2527.1 2263.58 2527.1 2256.47 Q2527.1 2249.34 2525.27 2245.8 Q2523.46 2242.24 2519.83 2242.24 M2519.83 2238.53 Q2525.64 2238.53 2528.69 2243.14 Q2531.77 2247.72 2531.77 2256.47 Q2531.77 2265.2 2528.69 2269.81 Q2525.64 2274.39 2519.83 2274.39 Q2514.02 2274.39 2510.94 2269.81 Q2507.88 2265.2 2507.88 2256.47 Q2507.88 2247.72 2510.94 2243.14 Q2514.02 2238.53 2519.83 2238.53 Z" fill="#000000" fill-rule="nonzero" fill-opacity="1" /><path clip-path="url(#clip730)" d="M2540.8 2269.78 L2548.44 2269.78 L2548.44 2243.42 L2540.13 2245.09 L2540.13 2240.83 L2548.39 2239.16 L2553.07 2239.16 L2553.07 2269.78 L2560.71 2269.78 L2560.71 2273.72 L2540.8 2273.72 L2540.8 2269.78 Z" fill="#000000" fill-rule="nonzero" fill-opacity="1" /><path clip-path="url(#clip730)" d="M1640.51 2331.55 L1640.51 2312.26 L1646.36 2312.26 L1646.36 2361.78 L1640.51 2361.78 L1640.51 2356.44 Q1638.66 2359.62 1635.83 2361.18 Q1633.03 2362.71 1629.08 2362.71 Q1622.62 2362.71 1618.54 2357.55 Q1614.5 2352.39 1614.5 2343.99 Q1614.5 2335.59 1618.54 2330.43 Q1622.62 2325.28 1629.08 2325.28 Q1633.03 2325.28 1635.83 2326.84 Q1638.66 2328.36 1640.51 2331.55 M1620.55 2343.99 Q1620.55 2350.45 1623.19 2354.14 Q1625.87 2357.81 1630.51 2357.81 Q1635.16 2357.81 1637.83 2354.14 Q1640.51 2350.45 1640.51 2343.99 Q1640.51 2337.53 1637.83 2333.87 Q1635.16 2330.18 1630.51 2330.18 Q1625.87 2330.18 1623.19 2333.87 Q1620.55 2337.53 1620.55 2343.99 Z" fill="#000000" fill-rule="nonzero" fill-opacity="1" /><path clip-path="url(#clip730)" d="M1674.63 2343.86 Q1667.53 2343.86 1664.79 2345.49 Q1662.05 2347.11 1662.05 2351.03 Q1662.05 2354.14 1664.09 2355.99 Q1666.16 2357.81 1669.69 2357.81 Q1674.56 2357.81 1677.49 2354.37 Q1680.45 2350.9 1680.45 2345.17 L1680.45 2343.86 L1674.63 2343.86 M1686.31 2341.45 L1686.31 2361.78 L1680.45 2361.78 L1680.45 2356.37 Q1678.45 2359.62 1675.45 2361.18 Q1672.46 2362.71 1668.13 2362.71 Q1662.66 2362.71 1659.41 2359.65 Q1656.2 2356.56 1656.2 2351.41 Q1656.2 2345.39 1660.21 2342.34 Q1664.25 2339.28 1672.24 2339.28 L1680.45 2339.28 L1680.45 2338.71 Q1680.45 2334.67 1677.78 2332.47 Q1675.14 2330.24 1670.33 2330.24 Q1667.27 2330.24 1664.38 2330.97 Q1661.48 2331.71 1658.81 2333.17 L1658.81 2327.76 Q1662.02 2326.52 1665.05 2325.91 Q1668.07 2325.28 1670.93 2325.28 Q1678.67 2325.28 1682.49 2329.29 Q1686.31 2333.3 1686.31 2341.45 Z" fill="#000000" fill-rule="nonzero" fill-opacity="1" /><path clip-path="url(#clip730)" d="M1704.16 2316.01 L1704.16 2326.14 L1716.23 2326.14 L1716.23 2330.69 L1704.16 2330.69 L1704.16 2350.04 Q1704.16 2354.4 1705.34 2355.64 Q1706.55 2356.88 1710.21 2356.88 L1716.23 2356.88 L1716.23 2361.78 L1710.21 2361.78 Q1703.43 2361.78 1700.85 2359.27 Q1698.28 2356.72 1698.28 2350.04 L1698.28 2330.69 L1693.98 2330.69 L1693.98 2326.14 L1698.28 2326.14 L1698.28 2316.01 L1704.16 2316.01 Z" fill="#000000" fill-rule="nonzero" fill-opacity="1" /><path clip-path="url(#clip730)" d="M1754.42 2342.5 L1754.42 2345.36 L1727.49 2345.36 Q1727.88 2351.41 1731.12 2354.59 Q1734.4 2357.74 1740.23 2357.74 Q1743.6 2357.74 1746.75 2356.91 Q1749.93 2356.09 1753.05 2354.43 L1753.05 2359.97 Q1749.9 2361.31 1746.59 2362.01 Q1743.28 2362.71 1739.88 2362.71 Q1731.35 2362.71 1726.35 2357.74 Q1721.38 2352.78 1721.38 2344.31 Q1721.38 2335.56 1726.09 2330.43 Q1730.84 2325.28 1738.86 2325.28 Q1746.05 2325.28 1750.22 2329.92 Q1754.42 2334.54 1754.42 2342.5 M1748.56 2340.78 Q1748.5 2335.97 1745.86 2333.11 Q1743.25 2330.24 1738.92 2330.24 Q1734.02 2330.24 1731.06 2333.01 Q1728.13 2335.78 1727.68 2340.81 L1748.56 2340.78 Z" fill="#000000" fill-rule="nonzero" fill-opacity="1" /><polyline clip-path="url(#clip732)" style="stroke:#000000; stroke-linecap:round; stroke-linejoin:round; stroke-width:2; stroke-opacity:0.1; fill:none" points="216.167,2134.99 3152.76,2134.99 "/>
<polyline clip-path="url(#clip732)" style="stroke:#000000; stroke-linecap:round; stroke-linejoin:round; stroke-width:2; stroke-opacity:0.1; fill:none" points="216.167,777.563 3152.76,777.563 "/>
<polyline clip-path="url(#clip732)" style="stroke:#000000; stroke-linecap:round; stroke-linejoin:round; stroke-width:2; stroke-opacity:0.05; fill:none" points="216.167,2197.1 3152.76,2197.1 "/>
<polyline clip-path="url(#clip732)" style="stroke:#000000; stroke-linecap:round; stroke-linejoin:round; stroke-width:2; stroke-opacity:0.05; fill:none" points="216.167,1726.36 3152.76,1726.36 "/>
<polyline clip-path="url(#clip732)" style="stroke:#000000; stroke-linecap:round; stroke-linejoin:round; stroke-width:2; stroke-opacity:0.05; fill:none" points="216.167,1487.33 3152.76,1487.33 "/>
<polyline clip-path="url(#clip732)" style="stroke:#000000; stroke-linecap:round; stroke-linejoin:round; stroke-width:2; stroke-opacity:0.05; fill:none" points="216.167,1317.74 3152.76,1317.74 "/>
<polyline clip-path="url(#clip732)" style="stroke:#000000; stroke-linecap:round; stroke-linejoin:round; stroke-width:2; stroke-opacity:0.05; fill:none" points="216.167,1186.19 3152.76,1186.19 "/>
<polyline clip-path="url(#clip732)" style="stroke:#000000; stroke-linecap:round; stroke-linejoin:round; stroke-width:2; stroke-opacity:0.05; fill:none" points="216.167,1078.71 3152.76,1078.71 "/>
<polyline clip-path="url(#clip732)" style="stroke:#000000; stroke-linecap:round; stroke-linejoin:round; stroke-width:2; stroke-opacity:0.05; fill:none" points="216.167,987.831 3152.76,987.831 "/>
<polyline clip-path="url(#clip732)" style="stroke:#000000; stroke-linecap:round; stroke-linejoin:round; stroke-width:2; stroke-opacity:0.05; fill:none" points="216.167,909.111 3152.76,909.111 "/>
<polyline clip-path="url(#clip732)" style="stroke:#000000; stroke-linecap:round; stroke-linejoin:round; stroke-width:2; stroke-opacity:0.05; fill:none" points="216.167,839.676 3152.76,839.676 "/>
<polyline clip-path="url(#clip732)" style="stroke:#000000; stroke-linecap:round; stroke-linejoin:round; stroke-width:2; stroke-opacity:0.05; fill:none" points="216.167,368.938 3152.76,368.938 "/>
<polyline clip-path="url(#clip732)" style="stroke:#000000; stroke-linecap:round; stroke-linejoin:round; stroke-width:2; stroke-opacity:0.05; fill:none" points="216.167,129.907 3152.76,129.907 "/>
<polyline clip-path="url(#clip730)" style="stroke:#000000; stroke-linecap:round; stroke-linejoin:round; stroke-width:4; stroke-opacity:1; fill:none" points="216.167,2204.92 216.167,47.2441 "/>
<polyline clip-path="url(#clip730)" style="stroke:#000000; stroke-linecap:round; stroke-linejoin:round; stroke-width:4; stroke-opacity:1; fill:none" points="216.167,2134.99 235.065,2134.99 "/>
<polyline clip-path="url(#clip730)" style="stroke:#000000; stroke-linecap:round; stroke-linejoin:round; stroke-width:4; stroke-opacity:1; fill:none" points="216.167,777.563 235.065,777.563 "/>
<polyline clip-path="url(#clip730)" style="stroke:#000000; stroke-linecap:round; stroke-linejoin:round; stroke-width:4; stroke-opacity:1; fill:none" points="216.167,2197.1 225.616,2197.1 "/>
<polyline clip-path="url(#clip730)" style="stroke:#000000; stroke-linecap:round; stroke-linejoin:round; stroke-width:4; stroke-opacity:1; fill:none" points="216.167,1726.36 225.616,1726.36 "/>
<polyline clip-path="url(#clip730)" style="stroke:#000000; stroke-linecap:round; stroke-linejoin:round; stroke-width:4; stroke-opacity:1; fill:none" points="216.167,1487.33 225.616,1487.33 "/>
<polyline clip-path="url(#clip730)" style="stroke:#000000; stroke-linecap:round; stroke-linejoin:round; stroke-width:4; stroke-opacity:1; fill:none" points="216.167,1317.74 225.616,1317.74 "/>
<polyline clip-path="url(#clip730)" style="stroke:#000000; stroke-linecap:round; stroke-linejoin:round; stroke-width:4; stroke-opacity:1; fill:none" points="216.167,1186.19 225.616,1186.19 "/>
<polyline clip-path="url(#clip730)" style="stroke:#000000; stroke-linecap:round; stroke-linejoin:round; stroke-width:4; stroke-opacity:1; fill:none" points="216.167,1078.71 225.616,1078.71 "/>
<polyline clip-path="url(#clip730)" style="stroke:#000000; stroke-linecap:round; stroke-linejoin:round; stroke-width:4; stroke-opacity:1; fill:none" points="216.167,987.831 225.616,987.831 "/>
<polyline clip-path="url(#clip730)" style="stroke:#000000; stroke-linecap:round; stroke-linejoin:round; stroke-width:4; stroke-opacity:1; fill:none" points="216.167,909.111 225.616,909.111 "/>
<polyline clip-path="url(#clip730)" style="stroke:#000000; stroke-linecap:round; stroke-linejoin:round; stroke-width:4; stroke-opacity:1; fill:none" points="216.167,839.676 225.616,839.676 "/>
<polyline clip-path="url(#clip730)" style="stroke:#000000; stroke-linecap:round; stroke-linejoin:round; stroke-width:4; stroke-opacity:1; fill:none" points="216.167,368.938 225.616,368.938 "/>
<polyline clip-path="url(#clip730)" style="stroke:#000000; stroke-linecap:round; stroke-linejoin:round; stroke-width:4; stroke-opacity:1; fill:none" points="216.167,129.907 225.616,129.907 "/>
<path clip-path="url(#clip730)" d="M148.26 2148.33 L155.899 2148.33 L155.899 2121.97 L147.589 2123.63 L147.589 2119.38 L155.853 2117.71 L160.529 2117.71 L160.529 2148.33 L168.167 2148.33 L168.167 2152.27 L148.26 2152.27 L148.26 2148.33 Z" fill="#000000" fill-rule="nonzero" fill-opacity="1" /><path clip-path="url(#clip730)" d="M116.871 790.908 L124.51 790.908 L124.51 764.543 L116.2 766.209 L116.2 761.95 L124.464 760.283 L129.14 760.283 L129.14 790.908 L136.779 790.908 L136.779 794.843 L116.871 794.843 L116.871 790.908 Z" fill="#000000" fill-rule="nonzero" fill-opacity="1" /><path clip-path="url(#clip730)" d="M156.223 763.362 Q152.612 763.362 150.783 766.927 Q148.978 770.468 148.978 777.598 Q148.978 784.705 150.783 788.269 Q152.612 791.811 156.223 791.811 Q159.857 791.811 161.663 788.269 Q163.492 784.705 163.492 777.598 Q163.492 770.468 161.663 766.927 Q159.857 763.362 156.223 763.362 M156.223 759.658 Q162.033 759.658 165.089 764.265 Q168.167 768.848 168.167 777.598 Q168.167 786.325 165.089 790.931 Q162.033 795.515 156.223 795.515 Q150.413 795.515 147.334 790.931 Q144.279 786.325 144.279 777.598 Q144.279 768.848 147.334 764.265 Q150.413 759.658 156.223 759.658 Z" fill="#000000" fill-rule="nonzero" fill-opacity="1" /><path clip-path="url(#clip730)" d="M36.0247 1279.11 Q36.0247 1286.21 37.6479 1288.95 Q39.2712 1291.69 43.1861 1291.69 Q46.3053 1291.69 48.1514 1289.65 Q49.9656 1287.58 49.9656 1284.05 Q49.9656 1279.18 46.5281 1276.25 Q43.0588 1273.29 37.3297 1273.29 L36.0247 1273.29 L36.0247 1279.11 M33.6057 1267.43 L53.9442 1267.43 L53.9442 1273.29 L48.5333 1273.29 Q51.7798 1275.29 53.3394 1278.29 Q54.8672 1281.28 54.8672 1285.61 Q54.8672 1291.08 51.8116 1294.33 Q48.7243 1297.54 43.5681 1297.54 Q37.5525 1297.54 34.4969 1293.53 Q31.4414 1289.49 31.4414 1281.5 L31.4414 1273.29 L30.8685 1273.29 Q26.8262 1273.29 24.6301 1275.96 Q22.4021 1278.6 22.4021 1283.41 Q22.4021 1286.47 23.1341 1289.36 Q23.8662 1292.26 25.3303 1294.93 L19.9195 1294.93 Q18.6781 1291.72 18.0734 1288.69 Q17.4368 1285.67 17.4368 1282.81 Q17.4368 1275.07 21.4472 1271.25 Q25.4576 1267.43 33.6057 1267.43 Z" fill="#000000" fill-rule="nonzero" fill-opacity="1" /><path clip-path="url(#clip730)" d="M19.6648 1229.72 L25.1393 1229.72 Q23.7707 1232.2 23.1023 1234.71 Q22.4021 1237.2 22.4021 1239.74 Q22.4021 1245.44 26.0305 1248.59 Q29.6272 1251.74 36.152 1251.74 Q42.6769 1251.74 46.3053 1248.59 Q49.9019 1245.44 49.9019 1239.74 Q49.9019 1237.2 49.2335 1234.71 Q48.5333 1232.2 47.1647 1229.72 L52.5755 1229.72 Q53.7214 1232.17 54.2943 1234.81 Q54.8672 1237.42 54.8672 1240.38 Q54.8672 1248.43 49.8064 1253.17 Q44.7457 1257.92 36.152 1257.92 Q27.431 1257.92 22.4339 1253.14 Q17.4368 1248.34 17.4368 1240 Q17.4368 1237.29 18.0097 1234.71 Q18.5508 1232.13 19.6648 1229.72 Z" fill="#000000" fill-rule="nonzero" fill-opacity="1" /><path clip-path="url(#clip730)" d="M19.6648 1193.88 L25.1393 1193.88 Q23.7707 1196.36 23.1023 1198.87 Q22.4021 1201.36 22.4021 1203.9 Q22.4021 1209.6 26.0305 1212.75 Q29.6272 1215.9 36.152 1215.9 Q42.6769 1215.9 46.3053 1212.75 Q49.9019 1209.6 49.9019 1203.9 Q49.9019 1201.36 49.2335 1198.87 Q48.5333 1196.36 47.1647 1193.88 L52.5755 1193.88 Q53.7214 1196.33 54.2943 1198.97 Q54.8672 1201.58 54.8672 1204.54 Q54.8672 1212.59 49.8064 1217.33 Q44.7457 1222.08 36.152 1222.08 Q27.431 1222.08 22.4339 1217.3 Q17.4368 1212.5 17.4368 1204.16 Q17.4368 1201.45 18.0097 1198.87 Q18.5508 1196.3 19.6648 1193.88 Z" fill="#000000" fill-rule="nonzero" fill-opacity="1" /><path clip-path="url(#clip730)" d="M45.8597 1182.86 L45.8597 1176.15 L53.9442 1176.15 L53.9442 1182.86 L45.8597 1182.86 Z" fill="#000000" fill-rule="nonzero" fill-opacity="1" /><path clip-path="url(#clip730)" d="M23.7707 1121.59 Q23.1978 1122.58 22.9432 1123.76 Q22.6567 1124.9 22.6567 1126.3 Q22.6567 1131.27 25.9032 1133.94 Q29.1179 1136.59 35.1653 1136.59 L53.9442 1136.59 L53.9442 1142.47 L18.2962 1142.47 L18.2962 1136.59 L23.8344 1136.59 Q20.5879 1134.74 19.0283 1131.78 Q17.4368 1128.82 17.4368 1124.59 Q17.4368 1123.98 17.5323 1123.25 Q17.596 1122.52 17.7551 1121.63 L23.7707 1121.59 Z" fill="#000000" fill-rule="nonzero" fill-opacity="1" /><path clip-path="url(#clip730)" d="M34.6561 1086.39 L37.5206 1086.39 L37.5206 1113.32 Q43.5681 1112.94 46.7509 1109.69 Q49.9019 1106.41 49.9019 1100.59 Q49.9019 1097.21 49.0744 1094.06 Q48.2469 1090.88 46.5918 1087.76 L52.1299 1087.76 Q53.4667 1090.91 54.167 1094.22 Q54.8672 1097.53 54.8672 1100.94 Q54.8672 1109.47 49.9019 1114.46 Q44.9367 1119.43 36.4703 1119.43 Q27.7174 1119.43 22.5931 1114.72 Q17.4368 1109.98 17.4368 1101.96 Q17.4368 1094.76 22.0838 1090.59 Q26.6989 1086.39 34.6561 1086.39 M32.9373 1092.25 Q28.1312 1092.31 25.2666 1094.95 Q22.4021 1097.56 22.4021 1101.89 Q22.4021 1106.79 25.1712 1109.75 Q27.9402 1112.68 32.9692 1113.13 L32.9373 1092.25 Z" fill="#000000" fill-rule="nonzero" fill-opacity="1" /><path clip-path="url(#clip730)" d="M8.17473 1070.99 L18.2962 1070.99 L18.2962 1058.92 L22.8477 1058.92 L22.8477 1070.99 L42.1994 1070.99 Q46.5599 1070.99 47.8013 1069.81 Q49.0426 1068.6 49.0426 1064.94 L49.0426 1058.92 L53.9442 1058.92 L53.9442 1064.94 Q53.9442 1071.72 51.4297 1074.3 Q48.8834 1076.88 42.1994 1076.88 L22.8477 1076.88 L22.8477 1081.17 L18.2962 1081.17 L18.2962 1076.88 L8.17473 1076.88 L8.17473 1070.99 Z" fill="#000000" fill-rule="nonzero" fill-opacity="1" /><path clip-path="url(#clip730)" d="M39.8759 1051.83 L18.2962 1051.83 L18.2962 1045.97 L39.6531 1045.97 Q44.7139 1045.97 47.2602 1044 Q49.7746 1042.02 49.7746 1038.08 Q49.7746 1033.33 46.7509 1030.6 Q43.7272 1027.83 38.5073 1027.83 L18.2962 1027.83 L18.2962 1021.97 L53.9442 1021.97 L53.9442 1027.83 L48.4696 1027.83 Q51.7162 1029.96 53.3076 1032.79 Q54.8672 1035.59 54.8672 1039.32 Q54.8672 1045.46 51.0478 1048.64 Q47.2283 1051.83 39.8759 1051.83 M17.4368 1037.09 L17.4368 1037.09 Z" fill="#000000" fill-rule="nonzero" fill-opacity="1" /><path clip-path="url(#clip730)" d="M23.7707 989.251 Q23.1978 990.238 22.9432 991.415 Q22.6567 992.561 22.6567 993.962 Q22.6567 998.927 25.9032 1001.6 Q29.1179 1004.24 35.1653 1004.24 L53.9442 1004.24 L53.9442 1010.13 L18.2962 1010.13 L18.2962 1004.24 L23.8344 1004.24 Q20.5879 1002.4 19.0283 999.436 Q17.4368 996.476 17.4368 992.243 Q17.4368 991.638 17.5323 990.906 Q17.596 990.174 17.7551 989.283 L23.7707 989.251 Z" fill="#000000" fill-rule="nonzero" fill-opacity="1" /><path clip-path="url(#clip730)" d="M32.4281 954.622 L53.9442 954.622 L53.9442 960.478 L32.619 960.478 Q27.5583 960.478 25.0438 962.451 Q22.5294 964.425 22.5294 968.372 Q22.5294 973.114 25.5531 975.851 Q28.5768 978.589 33.7967 978.589 L53.9442 978.589 L53.9442 984.477 L18.2962 984.477 L18.2962 978.589 L23.8344 978.589 Q20.6197 976.488 19.0283 973.655 Q17.4368 970.791 17.4368 967.067 Q17.4368 960.924 21.2563 957.773 Q25.0438 954.622 32.4281 954.622 Z" fill="#000000" fill-rule="nonzero" fill-opacity="1" /><polyline clip-path="url(#clip732)" style="stroke:#009af9; stroke-linecap:round; stroke-linejoin:round; stroke-width:12; stroke-opacity:1; fill:none" points="299.278,2134.99 299.278,2134.99 307.171,2118.97 315.064,2089.65 322.957,2091.75 330.85,2100.04 354.528,2082.83 362.421,2057.82 370.314,2065.67 378.206,2034.53 386.099,2019.17 417.67,1980.33 425.563,1990.98 433.456,2015.22 441.349,1995.94 465.027,1975.81 472.92,1946.55 480.812,1688.45 488.705,1830.35 496.598,1808.81 520.276,1805.72 528.169,1842.79 536.062,1787.32 543.955,1803.39 551.847,1808.63 575.526,1793.06 583.419,1777.74 591.311,1755.27 599.204,1787.28 607.097,1774.05 638.668,1772.35 646.561,1764.26 654.454,1785.77 662.346,1750.67 686.025,1728.32 693.918,1723.94 701.81,1697.55 709.703,1731.49 717.596,1730.21 741.274,1684.85 749.167,1646.39 757.06,1659.68 764.953,1660.05 772.845,1649.98 796.524,1634.36 804.417,1611.65 812.309,1623.21 820.202,1607.25 828.095,1579.83 851.444,1536.34 859.337,1557.99 867.23,1556.82 875.123,1577.13 883.015,1566.69 906.694,1561.05 914.587,1586.47 922.479,1618.29 930.372,1582.59 938.265,1579.69 961.943,1592.24 969.836,1579.86 977.729,1597.57 985.622,1590.64 1017.19,1596.45 1025.09,1596.42 1032.98,1613.72 1040.87,1625.95 1048.76,1626.75 1072.44,1640.32 1080.34,1641.05 1088.23,1625.77 1096.12,1622.25 1104.01,1637.06 1127.69,1638.99 1135.58,1651.97 1143.48,1638.43 1151.37,1637.47 1159.26,1632.39 1182.94,1615.54 1190.83,1616.63 1198.73,1601.93 1206.62,1613.42 1214.51,1626.24 1238.19,1624.49 1246.08,1629.6 1253.98,1628.24 1261.87,1651.78 1269.76,1632.74 1293.44,1634.34 1301.33,1631.24 1309.23,1644.66 1317.12,1623.62 1325.01,1599.06 1348.69,1575.47 1356.58,1580.43 1364.48,1599.78 1372.37,1592.21 1380.26,1594.35 1403.94,1579.7 1411.83,1559.64 1419.72,1524.3 1427.62,1479.7 1435.51,1481.7 1467.08,1433.65 1474.97,1331.05 1482.87,1353.79 1490.76,1354.01 1514.44,1333.86 1522.33,1331.41 1530.22,1350.96 1538.12,1364.59 1546.01,1348.05 1569.69,1336.38 1577.58,1334.41 1585.47,1343.32 1593.37,1338.75 1601.26,1350.58 1624.94,1339.03 1632.83,1337.46 1640.72,1331.15 1648.62,1332.27 1656.51,1338.8 1680.19,1337.54 1688.08,1351.78 1695.97,1346.75 1703.86,1337.57 1711.76,1349.28 1743.33,1369.78 1751.22,1385.2 1759.11,1375.96 1767.01,1366.99 1790.69,1382.4 1798.58,1400.57 1806.47,1433.9 1814.36,1431.81 1822.26,1444.51 1845.93,1435.89 1853.83,1405.23 1861.72,1399.12 1869.61,1410.91 1877.51,1416.92 1901.18,1407.39 1909.08,1421.01 1916.97,1408.74 1924.86,1408.43 1932.76,1424.81 1956.43,1434.42 1964.33,1434.57 1972.22,1460.83 1980.11,1431.12 1988,1433.45 2011.68,1425.01 2019.58,1424.99 2027.47,1433.75 2035.36,1428.81 2043.25,1437.08 2066.93,1427.24 2074.83,1429.95 2082.72,1441.02 2090.61,1461.96 2098.5,1432.92 2122.18,1410.73 2130.08,1384.07 2137.97,1370.3 2145.86,1380.51 2153.75,1361.99 2177.43,1368.04 2185.32,1359.89 2193.22,1381.7 2201.11,1368.05 2209,1383.8 2240.57,1385.22 2248.47,1392.76 2256.36,1386.37 2264.25,1390.8 2287.93,1380.45 2295.82,1399.99 2303.72,1385.61 2311.61,1382.7 2319.5,1388.96 2343.18,1420.82 2351.07,1414.15 2358.97,1401.68 2366.86,1381.95 2374.75,1376.25 2398.43,1357.51 2406.32,1373 2414.22,1371.44 2422.11,1365.98 2430,1362.62 2453.68,1365.49 2461.57,1362.26 2469.46,1376.51 2477.36,1372.76 2485.25,1369.63 2508.93,1369.78 2516.82,1368.08 2524.71,1362.52 2532.61,1343.31 2540.5,1345 2564.18,1333.51 2572.07,1341.04 2579.96,1337.3 2587.86,1339.96 2595.75,1342.82 2619.43,1340.49 2627.32,1339.59 2635.21,1357 2643.11,1340.23 2651,1341.4 2674.68,1326.38 2682.57,1326.78 2690.46,1311.97 2698.36,1315.54 2706.25,1302.99 2730.26,1302.02 2738.15,1369.6 2746.04,1390.88 2753.93,1382.87 2761.83,1375.35 2785.5,1365.33 2793.4,1365.45 2801.29,1380.38 2809.18,1380.6 2817.08,1386.15 2840.75,1382.67 2848.65,1383.37 2856.54,1371.18 2872.33,1388.04 2896,1385.97 2903.9,1401.8 2911.79,1441.13 2919.68,1434.85 2927.57,1445.53 2951.25,1437.05 2959.15,1412.5 2967.04,1398.72 2974.93,1428.16 2982.82,1433.75 3006.5,1468.4 3014.4,1472.31 3022.29,1466.11 3030.18,1475.21 3038.07,1447.84 3061.75,1458.66 3069.64,1429.78 "/>
<polyline clip-path="url(#clip732)" style="stroke:#e26f46; stroke-linecap:round; stroke-linejoin:round; stroke-width:12; stroke-opacity:1; fill:none" points="299.278,2134.99 299.278,2134.99 307.171,2136.42 315.064,2137.12 322.957,2134.93 330.85,2134.63 354.528,2135.54 362.421,2136.19 370.314,2136.08 378.206,2136.57 386.099,2135.23 417.67,2133.05 425.563,2132.39 433.456,2132.71 441.349,2132.11 465.027,2129.23 472.92,2126.27 480.812,2113.01 488.705,2120.1 496.598,2120.25 520.276,2118.34 528.169,2118.05 536.062,2117.18 543.955,2116.56 551.847,2115.63 575.526,2113.54 583.419,2112.78 591.311,2112.58 599.204,2113.22 607.097,2113.17 638.668,2113 646.561,2113.56 654.454,2114.99 662.346,2113.66 686.025,2114.42 693.918,2113.03 701.81,2111.65 709.703,2112.94 717.596,2113.96 741.274,2111.52 749.167,2111 757.06,2111.26 764.953,2114.7 772.845,2111.99 796.524,2111.03 804.417,2111.6 812.309,2111.72 820.202,2111.25 828.095,2110.48 851.444,2107.95 859.337,2109.04 867.23,2109 875.123,2109.66 883.015,2109.5 906.694,2110.21 914.587,2111.89 922.479,2113.63 930.372,2111.09 938.265,2107.47 961.943,2107.4 969.836,2107.56 977.729,2109.09 985.622,2109.71 1017.19,2108.88 1025.09,2109.57 1032.98,2109.44 1040.87,2109.07 1048.76,2109.66 1072.44,2110.64 1080.34,2108.29 1088.23,2109.83 1096.12,2108.29 1104.01,2107.45 1127.69,2108.78 1135.58,2109.92 1143.48,2108.15 1151.37,2108.22 1159.26,2106.9 1182.94,2106.87 1190.83,2107.88 1198.73,2107.41 1206.62,2107.92 1214.51,2109.53 1238.19,2109.7 1246.08,2111.6 1253.98,2111.3 1261.87,2112.06 1269.76,2110.7 1293.44,2110.72 1301.33,2111.04 1309.23,2113.59 1317.12,2110.36 1325.01,2108.16 1348.69,2105.59 1356.58,2105.96 1364.48,2106.95 1372.37,2106.57 1380.26,2106.69 1403.94,2106.84 1411.83,2107.59 1419.72,2105.96 1427.62,2101.54 1435.51,2099.82 1467.08,2096.84 1474.97,2091.34 1482.87,2092.05 1490.76,2091.81 1514.44,2090.31 1522.33,2090.15 1530.22,2090.51 1538.12,2091.02 1546.01,2092.33 1569.69,2091.99 1577.58,2092.85 1585.47,2093.55 1593.37,2092.63 1601.26,2092.61 1624.94,2093.03 1632.83,2092.8 1640.72,2092.2 1648.62,2092.52 1656.51,2092.69 1680.19,2091.89 1688.08,2092.48 1695.97,2093.05 1703.86,2092.76 1711.76,2091.53 1743.33,2092.17 1751.22,2092.09 1759.11,2093.82 1767.01,2091.46 1790.69,2090.59 1798.58,2090.65 1806.47,2089.99 1814.36,2090.06 1822.26,2091.46 1845.93,2094.06 1853.83,2091.66 1861.72,2091.23 1869.61,2091.64 1877.51,2090.26 1901.18,2089.48 1909.08,2090.82 1916.97,2093.63 1924.86,2094.25 1932.76,2090.36 1956.43,2087.88 1964.33,2085.6 1972.22,2086.01 1980.11,2086.48 1988,2087.83 2011.68,2087.71 2019.58,2089.58 2027.47,2089.78 2035.36,2087.9 2043.25,2087.3 2066.93,2088.06 2074.83,2090.7 2082.72,2092.65 2090.61,2091.82 2098.5,2088.63 2122.18,2086.58 2130.08,2083.72 2137.97,2082.64 2145.86,2082.84 2153.75,2081.44 2177.43,2080.98 2185.32,2080.65 2193.22,2081.86 2201.11,2080.05 2209,2080.51 2240.57,2081.07 2248.47,2080.49 2256.36,2081.19 2264.25,2080.23 2287.93,2080.47 2295.82,2080.53 2303.72,2080.33 2311.61,2081 2319.5,2082.85 2343.18,2084.77 2351.07,2085.01 2358.97,2085.3 2366.86,2084.22 2374.75,2086.54 2398.43,2084.74 2406.32,2086.61 2414.22,2085.75 2422.11,2085.86 2430,2082.87 2453.68,2080.39 2461.57,2078.55 2469.46,2079.83 2477.36,2080.13 2485.25,2078.81 2508.93,2078.77 2516.82,2078.05 2524.71,2076.55 2532.61,2076.84 2540.5,2076.84 2564.18,2077.21 2572.07,2076.57 2579.96,2075.39 2587.86,2075.32 2595.75,2074.56 2619.43,2070.81 2627.32,2071.89 2635.21,2073.03 2643.11,2072.38 2651,2073.34 2674.68,2071 2682.57,2070.56 2690.46,2069.48 2698.36,2068.16 2706.25,2067.95 2730.26,2067.21 2738.15,2067.97 2746.04,2069.22 2753.93,2068.49 2761.83,2069.18 2785.5,2068.25 2793.4,2068.08 2801.29,2067.98 2809.18,2069.27 2817.08,2068.21 2840.75,2068.16 2848.65,2068.09 2856.54,2067.16 2872.33,2069.33 2896,2067.09 2903.9,2068.57 2911.79,2069.82 2919.68,2069.18 2927.57,2070.55 2951.25,2069.95 2959.15,2068.71 2967.04,2068.12 2974.93,2067.92 2982.82,2065.68 3006.5,2065.56 3014.4,2066.17 3022.29,2064.34 3030.18,2065.42 3038.07,2066.26 3061.75,2066.46 3069.64,2065.71 "/>
<polyline clip-path="url(#clip732)" style="stroke:#3da44d; stroke-linecap:round; stroke-linejoin:round; stroke-width:12; stroke-opacity:1; fill:none" points="299.278,2134.99 299.278,2134.99 307.171,2131.98 315.064,2115.18 322.957,2094.95 330.85,2092.71 354.528,2093.22 362.421,2079.38 370.314,2079.48 378.206,2071.25 386.099,2080.96 417.67,2071.95 425.563,2074.9 433.456,2077.33 441.349,2075.9 465.027,2076.49 472.92,2064.93 480.812,2085.41 488.705,2092.06 496.598,2098.5 520.276,2086.59 528.169,2094.99 536.062,2081.25 543.955,2081.02 551.847,2070.47 575.526,2054.68 583.419,2049.92 591.311,2046.47 599.204,2051.91 607.097,2044.27 638.668,2042.36 646.561,2048.47 654.454,2065.15 662.346,2050.06 686.025,2060.4 693.918,2066.69 701.81,2047.19 709.703,2075.28 717.596,2076 741.274,2053.51 749.167,2050.67 757.06,2065.82 764.953,2084.17 772.845,2086.17 796.524,2084 804.417,2066.62 812.309,2068.76 820.202,2053.78 828.095,2041.88 851.444,2027 859.337,2036.26 867.23,2028.8 875.123,2044.68 883.015,2043.86 906.694,2043.89 914.587,2062.95 922.479,2073.64 930.372,2053.17 938.265,2042.73 961.943,2048.36 969.836,2043.75 977.729,2049.03 985.622,2043.86 1017.19,2037.89 1025.09,2040.55 1032.98,2047.35 1040.87,2049.51 1048.76,2050.62 1072.44,2053.84 1080.34,2056.99 1088.23,2052.68 1096.12,2046.91 1104.01,2051.11 1127.69,2054.95 1135.58,2064.08 1143.48,2054.09 1151.37,2057.82 1159.26,2051.08 1182.94,2045.76 1190.83,2044.61 1198.73,2041.51 1206.62,2041.15 1214.51,2051.19 1238.19,2043.91 1246.08,2049.74 1253.98,2046.31 1261.87,2040.2 1269.76,2030.64 1293.44,2033.32 1301.33,2035.11 1309.23,2050.08 1317.12,2039.21 1325.01,2026.37 1348.69,2017.2 1356.58,2022.95 1364.48,2033.87 1372.37,2029.87 1380.26,2031.18 1403.94,2022.79 1411.83,2019.89 1419.72,2008.69 1427.62,1992.59 1435.51,1988.62 1467.08,1968.33 1474.97,1926.93 1482.87,1936.71 1490.76,1933.58 1514.44,1930.02 1522.33,1930.02 1530.22,1941.79 1538.12,1945.2 1546.01,1940.21 1569.69,1940.18 1577.58,1939.72 1585.47,1947.37 1593.37,1956.19 1601.26,1966.83 1624.94,1957.98 1632.83,1950.79 1640.72,1948.98 1648.62,1947.8 1656.51,1950.78 1680.19,1947.63 1688.08,1955.64 1695.97,1956.65 1703.86,1953.1 1711.76,1957.67 1743.33,1966.06 1751.22,1977.23 1759.11,1979.38 1767.01,1972.58 1790.69,1976.66 1798.58,1987.16 1806.47,2001.98 1814.36,2008.27 1822.26,2020.58 1845.93,2021.24 1853.83,2000.72 1861.72,1989.95 1869.61,1997.77 1877.51,2000.04 1901.18,1997.34 1909.08,2006.96 1916.97,1997.27 1924.86,1993.79 1932.76,1995.2 1956.43,1995.92 1964.33,1993.67 1972.22,1994.44 1980.11,1992.61 1988,2004.16 2011.68,1998.26 2019.58,2004.54 2027.47,2007.23 2035.36,1999.43 2043.25,2004.17 2066.93,2012.91 2074.83,2022.14 2082.72,2026.66 2090.61,2024.6 2098.5,2013.7 2122.18,2002.34 2130.08,1998.38 2137.97,1995.92 2145.86,1997.06 2153.75,1990 2177.43,1988.56 2185.32,1988.96 2193.22,1989.03 2201.11,1984.32 2209,1985.61 2240.57,1986.3 2248.47,1993.03 2256.36,1992.85 2264.25,1995.61 2287.93,2000.03 2295.82,2007.04 2303.72,2000.61 2311.61,2003.54 2319.5,2014.54 2343.18,2032.86 2351.07,2034.63 2358.97,2023.7 2366.86,2012.21 2374.75,2015.27 2398.43,2010.65 2406.32,2022.38 2414.22,2022.48 2422.11,2024.87 2430,2015.76 2453.68,2020.2 2461.57,2014.67 2469.46,2018.85 2477.36,2010.34 2485.25,2015.71 2508.93,2015.11 2516.82,2006.31 2524.71,2002.23 2532.61,2002.11 2540.5,2004.63 2564.18,1992.75 2572.07,1991.15 2579.96,1986.59 2587.86,1990.51 2595.75,1988.59 2619.43,1974.88 2627.32,1982.15 2635.21,1988.59 2643.11,1981.61 2651,1982.56 2674.68,1965.05 2682.57,1969.71 2690.46,1964.22 2698.36,1960.64 2706.25,1958.08 2730.26,1952.66 2738.15,1966.94 2746.04,1972.92 2753.93,1958.93 2761.83,1962.13 2785.5,1962.47 2793.4,1962.07 2801.29,1963.97 2809.18,1963.15 2817.08,1960.05 2840.75,1962.1 2848.65,1962.82 2856.54,1959.7 2872.33,1978.6 2896,1968.73 2903.9,1981.83 2911.79,1997.16 2919.68,1988.55 2927.57,2000.31 2951.25,1995.82 2959.15,1974.5 2967.04,1975.22 2974.93,1990.45 2982.82,1987.31 3006.5,1998.99 3014.4,2005.47 3022.29,1994.52 3030.18,2004.67 3038.07,2004.32 3061.75,2013.7 3069.64,1998.15 "/>
<polyline clip-path="url(#clip732)" style="stroke:#c271d2; stroke-linecap:round; stroke-linejoin:round; stroke-width:8; stroke-opacity:1; fill:none" stroke-dasharray="32, 16, 4, 16" points="299.278,2134.99 307.171,2143.85 315.064,2134.99 322.957,2123.37 330.85,2098.04 354.528,2081.74 362.421,2058.1 370.314,2087.12 378.206,2087.12 386.099,2047.9 417.67,1887.22 425.563,1904.82 433.456,1902.84 441.349,1806.34 465.027,1670.44 472.92,1602.49 480.812,783.459 488.705,1275.99 496.598,1022.79 520.276,1021.01 528.169,1334.09 536.062,1253.21 543.955,1391.87 551.847,1413.89 575.526,1472.85 583.419,1541.57 591.311,1510.26 599.204,1529.89 607.097,1532 638.668,1525.7 646.561,1536.23 654.454,1540.5 662.346,1520.51 686.025,1438.57 693.918,1343.21 701.81,1245.38 709.703,1299.69 717.596,1319.94 741.274,1239.57 749.167,1255.84 757.06,1279.42 764.953,1318.47 772.845,1317 796.524,1232.55 804.417,1160.37 812.309,1198.04 820.202,1172.85 828.095,1124.43 851.444,989.089 859.337,1033.55 867.23,1009.6 875.123,990.771 883.015,993.726 906.694,1058.05 914.587,1151.45 922.479,1249.93 930.372,1136.17 938.265,1175.15 961.943,1168.85 969.836,1168.85 977.729,1176.88 985.622,1228.12 1017.19,1154.22 1025.09,1177.46 1032.98,1198.04 1040.87,1201.64 1048.76,1224.35 1072.44,1276.67 1080.34,1261.82 1088.23,1228.75 1096.12,1195.05 1104.01,1230.01 1127.69,1209.52 1135.58,1233.18 1143.48,1202.24 1151.37,1189.72 1159.26,1179.77 1182.94,1106.74 1190.83,1108.79 1198.73,1141.04 1206.62,1177.46 1214.51,1187.36 1238.19,1206.48 1246.08,1226.23 1253.98,1240.21 1261.87,1251.24 1269.76,1218.75 1293.44,1204.66 1301.33,1186.19 1309.23,1170.56 1317.12,1044.98 1325.01,1035.37 1348.69,992.881 1356.58,989.509 1364.48,1051.02 1372.37,1055.23 1380.26,1077.73 1403.94,1004.4 1411.83,897.135 1419.72,793.618 1427.62,614.16 1435.51,623.119 1467.08,502.69 1474.97,108.31 1482.87,224.739 1490.76,265.502 1514.44,184.142 1522.33,183.607 1530.22,248.163 1538.12,331.854 1546.01,247.447 1569.69,163.086 1577.58,142.356 1585.47,182.216 1593.37,125.718 1601.26,140.163 1624.94,176.793 1632.83,150.095 1640.72,149.792 1648.62,166.197 1656.51,194.305 1680.19,151.716 1688.08,169.011 1695.97,166.405 1703.86,192.563 1711.76,217.662 1743.33,240.802 1751.22,301.526 1759.11,265.133 1767.01,287.055 1790.69,334.615 1798.58,381.536 1806.47,477.653 1814.36,433.99 1822.26,451.272 1845.93,457.033 1853.83,328.011 1861.72,360.493 1869.61,414.026 1877.51,417.997 1901.18,367.619 1909.08,401.961 1916.97,388.317 1924.86,400.103 1932.76,417.519 1956.43,447.239 1964.33,474.839 1972.22,544.625 1980.11,476.244 1988,490.669 2011.68,471.165 2019.58,508.05 2027.47,511.775 2035.36,484.036 2043.25,476.948 2066.93,439.089 2074.83,415.294 2082.72,425.052 2090.61,470.816 2098.5,460.62 2122.18,421.354 2130.08,312.217 2137.97,316.227 2145.86,367.327 2153.75,359.626 2177.43,324.736 2185.32,275.178 2193.22,319.859 2201.11,310.621 2209,315.423 2240.57,266.487 2248.47,271.811 2256.36,258.043 2264.25,238.446 2287.93,220.733 2295.82,273.056 2303.72,278.817 2311.61,288.973 2319.5,313.017 2343.18,367.619 2351.07,389.531 2358.97,370.7 2366.86,372.173 2374.75,371.731 2398.43,382.286 2406.32,417.997 2414.22,441.572 2422.11,401.186 2430,395.023 2453.68,421.514 2461.57,416.883 2469.46,420.553 2477.36,399.949 2485.25,414.819 2508.93,413.868 2516.82,420.713 2524.71,403.514 2532.61,370.847 2540.5,361.071 2564.18,328.832 2572.07,360.204 2579.96,359.049 2587.86,383.187 2595.75,424.246 2619.43,420.553 2627.32,433.172 2635.21,454.654 2643.11,446.736 2651,444.398 2674.68,416.724 2682.57,389.986 2690.46,360.348 2698.36,371.142 2706.25,347.341 2730.26,301.657 2738.15,372.911 2746.04,397.635 2753.93,379.891 2761.83,371.878 2785.5,333.647 2793.4,334.753 2801.29,341.293 2809.18,365.866 2817.08,359.193 2840.75,353.88 2848.65,384.39 2856.54,388.468 2872.33,407.885 2896,420.393 2903.9,468.728 2911.79,570.265 2919.68,535.996 2927.57,561.255 2951.25,565.743 2959.15,521.382 2967.04,497.013 2974.93,552.181 2982.82,594.056 3006.5,691.991 3014.4,660.865 3022.29,657.028 3030.18,662.07 3038.07,559.024 3061.75,547.398 3069.64,535.607 "/>
<polyline clip-path="url(#clip732)" style="stroke:#ac8d18; stroke-linecap:round; stroke-linejoin:round; stroke-width:8; stroke-opacity:1; fill:none" stroke-dasharray="32, 16, 4, 16" points="299.278,2134.99 307.171,2091.67 315.064,2059.93 322.957,2051.94 330.85,2066.73 354.528,2059.61 362.421,2016.82 370.314,2034.43 378.206,2000.01 386.099,2021.02 417.67,2008.21 425.563,2009.1 433.456,2057.69 441.349,2076.91 465.027,2091.33 472.92,2109.24 480.812,2096.78 488.705,2097.12 496.598,2123.05 520.276,2112.4 528.169,2105.41 536.062,2063.81 543.955,2065.43 551.847,2073.61 575.526,2046.26 583.419,2042.5 591.311,2016.22 599.204,2029.21 607.097,2008.8 638.668,1983.11 646.561,1959.3 654.454,1992.5 662.346,1984.24 686.025,1972.47 693.918,1963.11 701.81,1944.83 709.703,1969.7 717.596,1964.48 741.274,1941.4 749.167,1939.3 757.06,1933.82 764.953,1910.14 772.845,1862.45 796.524,1886.89 804.417,1904.92 812.309,1903.19 820.202,1885.21 828.095,1894.62 851.444,1885.93 859.337,1912.89 867.23,1908.64 875.123,1942.45 883.015,1933.56 906.694,1943.25 914.587,1959.03 922.479,1942.98 930.372,1942.72 938.265,1932.52 961.943,1956.06 969.836,1952.02 977.729,1956.06 985.622,1913.14 1017.19,1939.82 1025.09,1931.48 1032.98,1938.25 1040.87,1942.98 1048.76,1950.95 1072.44,1955.25 1080.34,1960.39 1088.23,1939.04 1096.12,1942.19 1104.01,1955.25 1127.69,1951.22 1135.58,1980.29 1143.48,1974.69 1151.37,1979.45 1159.26,1967.22 1182.94,1955.52 1190.83,1948.28 1198.73,1899.99 1206.62,1899.01 1214.51,1916.16 1238.19,1910.14 1246.08,1914.4 1253.98,1871.26 1261.87,1870.33 1269.76,1848.57 1293.44,1853.31 1301.33,1859.47 1309.23,1863.14 1317.12,1882.59 1325.01,1844.99 1348.69,1827.16 1356.58,1848.12 1364.48,1870.1 1372.37,1870.56 1380.26,1868.47 1403.94,1854.68 1411.83,1858.09 1419.72,1844.32 1427.62,1838.98 1435.51,1840.98 1467.08,1765.26 1474.97,1753.67 1482.87,1746.63 1490.76,1737.43 1514.44,1751.37 1522.33,1752.71 1530.22,1770.56 1538.12,1781.29 1546.01,1783.3 1569.69,1789.57 1577.58,1777.09 1585.47,1787.95 1593.37,1818.55 1601.26,1836.78 1624.94,1797.35 1632.83,1798.59 1640.72,1787.14 1648.62,1774.31 1656.51,1773.92 1680.19,1801.28 1688.08,1809.43 1695.97,1785.32 1703.86,1769.97 1711.76,1784.51 1743.33,1813.23 1751.22,1819.83 1759.11,1814.93 1767.01,1796.32 1790.69,1795.3 1798.58,1789.78 1806.47,1824.78 1814.36,1838.98 1822.26,1858.55 1845.93,1878.32 1853.83,1868.93 1861.72,1845.88 1869.61,1853.77 1877.51,1862.22 1901.18,1838.98 1909.08,1854.9 1916.97,1843.2 1924.86,1839.43 1932.76,1857.18 1956.43,1865.22 1964.33,1848.8 1972.22,1869.86 1980.11,1839.43 1988,1831.07 2011.68,1839.21 2019.58,1817.27 2027.47,1809.85 2035.36,1800.04 2043.25,1809.64 2066.93,1827.59 2074.83,1833.26 2082.72,1850.38 2090.61,1868.7 2098.5,1860.38 2122.18,1825.64 2130.08,1798.8 2137.97,1784.31 2145.86,1787.34 2153.75,1762.15 2177.43,1773.52 2185.32,1778.09 2193.22,1804.82 2201.11,1782.7 2209,1785.72 2240.57,1787.95 2248.47,1805.03 2256.36,1800.45 2264.25,1808.38 2287.93,1790.79 2295.82,1804.2 2303.72,1762.73 2311.61,1763.12 2319.5,1773.32 2343.18,1806.08 2351.07,1799.63 2358.97,1760.6 2366.86,1716.58 2374.75,1711.39 2398.43,1678.3 2406.32,1676.12 2414.22,1665.81 2422.11,1669.78 2430,1648.58 2453.68,1618.15 2461.57,1598.41 2469.46,1619.37 2477.36,1623.65 2485.25,1601.65 2508.93,1607.75 2516.82,1610.74 2524.71,1614.66 2532.61,1602.84 2540.5,1598.11 2564.18,1591.97 2572.07,1595.18 2579.96,1586.32 2587.86,1604.02 2595.75,1593.14 2619.43,1589.94 2627.32,1577.74 2635.21,1605.36 2643.11,1592.26 2651,1598.41 2674.68,1570.96 2682.57,1571.1 2690.46,1571.24 2698.36,1565.79 2706.25,1549.05 2730.26,1541.79 2738.15,1543.53 2746.04,1566.21 2753.93,1560.8 2761.83,1562.74 2785.5,1554.49 2793.4,1551.08 2801.29,1566.77 2809.18,1552.58 2817.08,1590.81 2840.75,1583.02 2848.65,1550.95 2856.54,1528.97 2872.33,1561.08 2896,1544.47 2903.9,1569.98 2911.79,1587.33 2919.68,1576.61 2927.57,1574.06 2951.25,1565.79 2959.15,1528.58 2967.04,1531.33 2974.93,1566.35 2982.82,1551.22 3006.5,1584.17 3014.4,1594.6 3022.29,1599.88 3030.18,1594.3 3038.07,1611.5 3061.75,1625.8 3069.64,1580.59 "/>
<polyline clip-path="url(#clip732)" style="stroke:#00a9ad; stroke-linecap:round; stroke-linejoin:round; stroke-width:8; stroke-opacity:1; fill:none" stroke-dasharray="32, 16, 4, 16" points="299.278,2134.99 307.171,2119.41 315.064,2107.68 322.957,2089.58 330.85,2087.79 354.528,2084.84 362.421,2066.38 370.314,2067.75 378.206,2061.89 386.099,2070.2 417.67,2053.96 425.563,2057.63 433.456,2059.37 441.349,2052.42 465.027,2044.95 472.92,2026.06 480.812,1923.74 488.705,2018.73 496.598,1988.32 520.276,1976.31 528.169,2021.87 536.062,2000.73 543.955,2011.84 551.847,2001.97 575.526,1987.35 583.419,1988 591.311,1984.54 599.204,1994.35 607.097,1985.98 638.668,1985.61 646.561,1992.8 654.454,2010.77 662.346,1994.69 686.025,2000.11 693.918,2002.43 701.81,1977.2 709.703,2007.7 717.596,2010.76 741.274,1982.28 749.167,1978.27 757.06,1996.8 764.953,2014.97 772.845,2017.09 796.524,2010.11 804.417,1982.35 812.309,1988.43 820.202,1968.54 828.095,1952.87 851.444,1923.45 859.337,1940.37 867.23,1933.03 875.123,1948.21 883.015,1943.9 906.694,1949.18 914.587,1978.46 922.479,2005.2 930.372,1978.74 938.265,1976.71 961.943,1986.51 969.836,1978.81 977.729,1977.8 985.622,1979.4 1017.19,1968.94 1025.09,1973.33 1032.98,1982.31 1040.87,1983.24 1048.76,1987.56 1072.44,1999.04 1080.34,1998.03 1088.23,1992.77 1096.12,1988.17 1104.01,1992.73 1127.69,1997.91 1135.58,2007.11 1143.48,1991.4 1151.37,1993.35 1159.26,1984.03 1182.94,1968.45 1190.83,1968.74 1198.73,1969.7 1206.62,1977.94 1214.51,1984.27 1238.19,1984.44 1246.08,1995.08 1253.98,1997.55 1261.87,2001.66 1269.76,1989.08 1293.44,1996.1 1301.33,1991.4 1309.23,2005.99 1317.12,1983.82 1325.01,1970.36 1348.69,1955.04 1356.58,1956.59 1364.48,1969.98 1372.37,1964.14 1380.26,1968.1 1403.94,1953.19 1411.83,1933.68 1419.72,1903.51 1427.62,1850.09 1435.51,1851.4 1467.08,1806.74 1474.97,1640.44 1482.87,1697.55 1490.76,1710.16 1514.44,1670.11 1522.33,1668.25 1530.22,1700.41 1538.12,1734.72 1546.01,1699.11 1569.69,1663.84 1577.58,1656.01 1585.47,1675.39 1593.37,1652.22 1601.26,1663.99 1624.94,1677.3 1632.83,1662.77 1640.72,1660.43 1648.62,1667.07 1656.51,1681.19 1680.19,1660.73 1688.08,1672.33 1695.97,1671.24 1703.86,1680.45 1711.76,1693.02 1743.33,1708.43 1751.22,1737.89 1759.11,1725.37 1767.01,1728.21 1790.69,1749.44 1798.58,1773.9 1806.47,1814.3 1814.36,1801.48 1822.26,1815.08 1845.93,1819.71 1853.83,1762.47 1861.72,1768.68 1869.61,1792.69 1877.51,1795.19 1901.18,1774.01 1909.08,1791.27 1916.97,1781.22 1924.86,1783.69 1932.76,1793.9 1956.43,1805.56 1964.33,1812.69 1972.22,1840.43 1980.11,1812.84 1988,1819.75 2011.68,1810.22 2019.58,1822.71 2027.47,1825.08 2035.36,1817.12 2043.25,1817.76 2066.93,1806.53 2074.83,1801.88 2082.72,1810.11 2090.61,1832.2 2098.5,1819.38 2122.18,1796.91 2130.08,1748.71 2137.97,1747.19 2145.86,1771.41 2153.75,1760.68 2177.43,1748.86 2185.32,1726.95 2193.22,1745.74 2201.11,1738.33 2209,1742.65 2240.57,1724.33 2248.47,1730.61 2256.36,1724.17 2264.25,1715.92 2287.93,1706.59 2295.82,1733.52 2303.72,1734.49 2311.61,1740.19 2319.5,1753.11 2343.18,1786.01 2351.07,1793.36 2358.97,1781.35 2366.86,1774.5 2374.75,1776.34 2398.43,1773.95 2406.32,1795.1 2414.22,1805.36 2422.11,1790.76 2430,1784.18 2453.68,1798.74 2461.57,1794.95 2469.46,1799.78 2477.36,1787.45 2485.25,1793.07 2508.93,1792.13 2516.82,1789.29 2524.71,1778.68 2532.61,1761.33 2540.5,1758.84 2564.18,1742.63 2572.07,1753.1 2579.96,1750.93 2587.86,1761.55 2595.75,1776.88 2619.43,1770.63 2627.32,1774.49 2635.21,1787.42 2643.11,1777.43 2651,1778.08 2674.68,1760.2 2682.57,1751.93 2690.46,1735.86 2698.36,1737.94 2706.25,1727.79 2730.26,1708.74 2738.15,1748.46 2746.04,1762.7 2753.93,1749.97 2761.83,1748.3 2785.5,1734.15 2793.4,1734.44 2801.29,1740.21 2809.18,1749.01 2817.08,1746.09 2840.75,1744.92 2848.65,1755.86 2856.54,1754.22 2872.33,1772.76 2896,1772.3 2903.9,1798.41 2911.79,1842.58 2919.68,1825.17 2927.57,1841.37 2951.25,1839.85 2959.15,1811.48 2967.04,1802.79 2974.93,1830.54 2982.82,1843.59 3006.5,1881.95 3014.4,1878.16 3022.29,1869.4 3030.18,1876.04 3038.07,1846.15 3061.75,1849.65 3069.64,1833.38 "/>
<path clip-path="url(#clip730)" d="M314.054 482.047 L942.803 482.047 L942.803 119.167 L314.054 119.167  Z" fill="#ffffff" fill-rule="evenodd" fill-opacity="1"/>
<polyline clip-path="url(#clip730)" style="stroke:#000000; stroke-linecap:round; stroke-linejoin:round; stroke-width:4; stroke-opacity:1; fill:none" points="314.054,482.047 942.803,482.047 942.803,119.167 314.054,119.167 314.054,482.047 "/>
<polyline clip-path="url(#clip730)" style="stroke:#009af9; stroke-linecap:round; stroke-linejoin:round; stroke-width:12; stroke-opacity:1; fill:none" points="346.683,171.007 542.455,171.007 "/>
<path clip-path="url(#clip730)" d="M575.084 153.727 L582.051 153.727 L590.871 177.245 L599.736 153.727 L606.704 153.727 L606.704 188.287 L602.144 188.287 L602.144 157.94 L593.232 181.643 L588.533 181.643 L579.621 157.94 L579.621 188.287 L575.084 188.287 L575.084 153.727 Z" fill="#000000" fill-rule="nonzero" fill-opacity="1" /><path clip-path="url(#clip730)" d="M624.898 188.287 L611.704 153.727 L616.588 153.727 L627.537 182.824 L638.509 153.727 L643.371 153.727 L630.199 188.287 L624.898 188.287 Z" fill="#000000" fill-rule="nonzero" fill-opacity="1" /><path clip-path="url(#clip730)" d="M643.301 173.402 L655.778 173.402 L655.778 177.199 L643.301 177.199 L643.301 173.402 Z" fill="#000000" fill-rule="nonzero" fill-opacity="1" /><path clip-path="url(#clip730)" d="M662.745 153.727 L669.713 153.727 L678.532 177.245 L687.398 153.727 L694.366 153.727 L694.366 188.287 L689.805 188.287 L689.805 157.94 L680.893 181.643 L676.194 181.643 L667.282 157.94 L667.282 188.287 L662.745 188.287 L662.745 153.727 Z" fill="#000000" fill-rule="nonzero" fill-opacity="1" /><path clip-path="url(#clip730)" d="M708.324 157.569 L708.324 170.555 L714.203 170.555 Q717.467 170.555 719.25 168.865 Q721.032 167.176 721.032 164.051 Q721.032 160.949 719.25 159.259 Q717.467 157.569 714.203 157.569 L708.324 157.569 M703.648 153.727 L714.203 153.727 Q720.014 153.727 722.977 156.365 Q725.963 158.981 725.963 164.051 Q725.963 169.166 722.977 171.782 Q720.014 174.398 714.203 174.398 L708.324 174.398 L708.324 188.287 L703.648 188.287 L703.648 153.727 Z" fill="#000000" fill-rule="nonzero" fill-opacity="1" /><path clip-path="url(#clip730)" d="M758.115 156.389 L758.115 161.319 Q755.754 159.12 753.069 158.032 Q750.407 156.944 747.398 156.944 Q741.472 156.944 738.324 160.578 Q735.176 164.19 735.176 171.041 Q735.176 177.87 738.324 181.504 Q741.472 185.115 747.398 185.115 Q750.407 185.115 753.069 184.027 Q755.754 182.939 758.115 180.74 L758.115 185.625 Q755.662 187.291 752.907 188.125 Q750.175 188.958 747.12 188.958 Q739.273 188.958 734.759 184.166 Q730.245 179.351 730.245 171.041 Q730.245 162.708 734.759 157.916 Q739.273 153.102 747.12 153.102 Q750.222 153.102 752.953 153.935 Q755.708 154.745 758.115 156.389 Z" fill="#000000" fill-rule="nonzero" fill-opacity="1" /><path clip-path="url(#clip730)" d="M766.24 182.407 L771.124 182.407 L771.124 188.287 L766.24 188.287 L766.24 182.407 M766.24 163.773 L771.124 163.773 L771.124 169.652 L766.24 169.652 L766.24 163.773 Z" fill="#000000" fill-rule="nonzero" fill-opacity="1" /><path clip-path="url(#clip730)" d="M796.379 153.727 L801.055 153.727 L801.055 167.893 L818.045 167.893 L818.045 153.727 L822.721 153.727 L822.721 188.287 L818.045 188.287 L818.045 171.828 L801.055 171.828 L801.055 188.287 L796.379 188.287 L796.379 153.727 Z" fill="#000000" fill-rule="nonzero" fill-opacity="1" /><path clip-path="url(#clip730)" d="M832.027 153.727 L838.994 153.727 L847.814 177.245 L856.68 153.727 L863.647 153.727 L863.647 188.287 L859.087 188.287 L859.087 157.94 L850.175 181.643 L845.476 181.643 L836.564 157.94 L836.564 188.287 L832.027 188.287 L832.027 153.727 Z" fill="#000000" fill-rule="nonzero" fill-opacity="1" /><path clip-path="url(#clip730)" d="M872.929 153.727 L879.897 153.727 L888.716 177.245 L897.582 153.727 L904.55 153.727 L904.55 188.287 L899.99 188.287 L899.99 157.94 L891.078 181.643 L886.378 181.643 L877.466 157.94 L877.466 188.287 L872.929 188.287 L872.929 153.727 Z" fill="#000000" fill-rule="nonzero" fill-opacity="1" /><polyline clip-path="url(#clip730)" style="stroke:#e26f46; stroke-linecap:round; stroke-linejoin:round; stroke-width:12; stroke-opacity:1; fill:none" points="346.683,222.847 542.455,222.847 "/>
<path clip-path="url(#clip730)" d="M575.084 205.567 L582.051 205.567 L590.871 229.085 L599.736 205.567 L606.704 205.567 L606.704 240.127 L602.144 240.127 L602.144 209.78 L593.232 233.483 L588.533 233.483 L579.621 209.78 L579.621 240.127 L575.084 240.127 L575.084 205.567 Z" fill="#000000" fill-rule="nonzero" fill-opacity="1" /><path clip-path="url(#clip730)" d="M627.584 227.094 Q622.422 227.094 620.431 228.275 Q618.44 229.455 618.44 232.303 Q618.44 234.571 619.922 235.914 Q621.426 237.233 623.996 237.233 Q627.537 237.233 629.667 234.733 Q631.82 232.21 631.82 228.043 L631.82 227.094 L627.584 227.094 M636.079 225.335 L636.079 240.127 L631.82 240.127 L631.82 236.191 Q630.361 238.553 628.185 239.687 Q626.009 240.798 622.861 240.798 Q618.88 240.798 616.519 238.576 Q614.181 236.33 614.181 232.58 Q614.181 228.205 617.097 225.983 Q620.037 223.761 625.847 223.761 L631.82 223.761 L631.82 223.344 Q631.82 220.405 629.875 218.807 Q627.954 217.187 624.459 217.187 Q622.236 217.187 620.13 217.719 Q618.023 218.252 616.079 219.317 L616.079 215.381 Q618.417 214.479 620.616 214.039 Q622.815 213.576 624.898 213.576 Q630.523 213.576 633.301 216.492 Q636.079 219.409 636.079 225.335 Z" fill="#000000" fill-rule="nonzero" fill-opacity="1" /><path clip-path="url(#clip730)" d="M659.875 218.182 Q659.157 217.766 658.301 217.58 Q657.468 217.372 656.449 217.372 Q652.838 217.372 650.894 219.733 Q648.972 222.071 648.972 226.469 L648.972 240.127 L644.69 240.127 L644.69 214.201 L648.972 214.201 L648.972 218.229 Q650.315 215.867 652.468 214.733 Q654.62 213.576 657.699 213.576 Q658.139 213.576 658.671 213.645 Q659.204 213.692 659.852 213.807 L659.875 218.182 Z" fill="#000000" fill-rule="nonzero" fill-opacity="1" /><path clip-path="url(#clip730)" d="M664.181 204.108 L668.463 204.108 L668.463 225.381 L681.171 214.201 L686.611 214.201 L672.861 226.33 L687.19 240.127 L681.634 240.127 L668.463 227.465 L668.463 240.127 L664.181 240.127 L664.181 204.108 Z" fill="#000000" fill-rule="nonzero" fill-opacity="1" /><path clip-path="url(#clip730)" d="M700.153 217.187 Q696.727 217.187 694.736 219.872 Q692.745 222.534 692.745 227.187 Q692.745 231.84 694.713 234.525 Q696.704 237.187 700.153 237.187 Q703.555 237.187 705.546 234.502 Q707.537 231.816 707.537 227.187 Q707.537 222.58 705.546 219.895 Q703.555 217.187 700.153 217.187 M700.153 213.576 Q705.708 213.576 708.879 217.187 Q712.051 220.798 712.051 227.187 Q712.051 233.553 708.879 237.187 Q705.708 240.798 700.153 240.798 Q694.574 240.798 691.403 237.187 Q688.255 233.553 688.255 227.187 Q688.255 220.798 691.403 217.187 Q694.574 213.576 700.153 213.576 Z" fill="#000000" fill-rule="nonzero" fill-opacity="1" /><path clip-path="url(#clip730)" d="M716.634 214.201 L720.893 214.201 L726.217 234.432 L731.518 214.201 L736.541 214.201 L741.865 234.432 L747.166 214.201 L751.425 214.201 L744.643 240.127 L739.62 240.127 L734.041 218.877 L728.439 240.127 L723.416 240.127 L716.634 214.201 Z" fill="#000000" fill-rule="nonzero" fill-opacity="1" /><path clip-path="url(#clip730)" d="M757.884 214.201 L762.143 214.201 L762.143 240.127 L757.884 240.127 L757.884 214.201 M757.884 204.108 L762.143 204.108 L762.143 209.502 L757.884 209.502 L757.884 204.108 Z" fill="#000000" fill-rule="nonzero" fill-opacity="1" /><path clip-path="url(#clip730)" d="M775.268 206.84 L775.268 214.201 L784.041 214.201 L784.041 217.511 L775.268 217.511 L775.268 231.585 Q775.268 234.756 776.124 235.659 Q777.004 236.562 779.666 236.562 L784.041 236.562 L784.041 240.127 L779.666 240.127 Q774.736 240.127 772.861 238.298 Q770.986 236.446 770.986 231.585 L770.986 217.511 L767.861 217.511 L767.861 214.201 L770.986 214.201 L770.986 206.84 L775.268 206.84 Z" fill="#000000" fill-rule="nonzero" fill-opacity="1" /><path clip-path="url(#clip730)" d="M787.791 214.201 L808.022 214.201 L808.022 218.09 L792.004 236.724 L808.022 236.724 L808.022 240.127 L787.212 240.127 L787.212 236.238 L803.231 217.604 L787.791 217.604 L787.791 214.201 Z" fill="#000000" fill-rule="nonzero" fill-opacity="1" /><polyline clip-path="url(#clip730)" style="stroke:#3da44d; stroke-linecap:round; stroke-linejoin:round; stroke-width:12; stroke-opacity:1; fill:none" points="346.683,274.687 542.455,274.687 "/>
<path clip-path="url(#clip730)" d="M597.329 258.541 L597.329 263.101 Q594.667 261.828 592.306 261.203 Q589.945 260.578 587.746 260.578 Q583.926 260.578 581.843 262.059 Q579.783 263.541 579.783 266.272 Q579.783 268.564 581.149 269.745 Q582.537 270.902 586.38 271.62 L589.204 272.198 Q594.436 273.194 596.912 275.717 Q599.412 278.217 599.412 282.43 Q599.412 287.453 596.033 290.045 Q592.676 292.638 586.172 292.638 Q583.718 292.638 580.94 292.082 Q578.186 291.527 575.223 290.439 L575.223 285.624 Q578.07 287.221 580.801 288.031 Q583.533 288.842 586.172 288.842 Q590.176 288.842 592.352 287.268 Q594.528 285.694 594.528 282.777 Q594.528 280.231 592.954 278.795 Q591.403 277.36 587.838 276.643 L584.991 276.087 Q579.76 275.045 577.422 272.823 Q575.084 270.601 575.084 266.643 Q575.084 262.059 578.301 259.42 Q581.542 256.782 587.213 256.782 Q589.644 256.782 592.167 257.221 Q594.69 257.661 597.329 258.541 Z" fill="#000000" fill-rule="nonzero" fill-opacity="1" /><path clip-path="url(#clip730)" d="M606.704 257.407 L613.672 257.407 L622.491 280.925 L631.357 257.407 L638.324 257.407 L638.324 291.967 L633.764 291.967 L633.764 261.62 L624.852 285.323 L620.153 285.323 L611.241 261.62 L611.241 291.967 L606.704 291.967 L606.704 257.407 Z" fill="#000000" fill-rule="nonzero" fill-opacity="1" /><path clip-path="url(#clip730)" d="M659.157 262.013 L652.815 279.212 L665.523 279.212 L659.157 262.013 M656.519 257.407 L661.819 257.407 L674.991 291.967 L670.13 291.967 L666.981 283.101 L651.403 283.101 L648.255 291.967 L643.324 291.967 L656.519 257.407 Z" fill="#000000" fill-rule="nonzero" fill-opacity="1" /><polyline clip-path="url(#clip730)" style="stroke:#c271d2; stroke-linecap:round; stroke-linejoin:round; stroke-width:8; stroke-opacity:1; fill:none" stroke-dasharray="32, 16, 4, 16" points="346.683,326.527 542.455,326.527 "/>
<path clip-path="url(#clip730)" d="M575.084 309.247 L581.38 309.247 L596.704 338.159 L596.704 309.247 L601.241 309.247 L601.241 343.807 L594.945 343.807 L579.621 314.895 L579.621 343.807 L575.084 343.807 L575.084 309.247 Z" fill="#000000" fill-rule="nonzero" fill-opacity="1" /><path clip-path="url(#clip730)" d="M605.801 309.247 L610.824 309.247 L620.408 323.46 L629.922 309.247 L634.945 309.247 L622.722 327.348 L622.722 343.807 L618.023 343.807 L618.023 327.348 L605.801 309.247 Z" fill="#000000" fill-rule="nonzero" fill-opacity="1" /><path clip-path="url(#clip730)" d="M653.532 312.418 Q648.44 312.418 645.431 316.214 Q642.445 320.01 642.445 326.561 Q642.445 333.089 645.431 336.885 Q648.44 340.682 653.532 340.682 Q658.625 340.682 661.588 336.885 Q664.574 333.089 664.574 326.561 Q664.574 320.01 661.588 316.214 Q658.625 312.418 653.532 312.418 M660.083 343.182 L666.241 349.918 L660.593 349.918 L655.477 344.385 Q654.713 344.432 654.296 344.455 Q653.903 344.478 653.532 344.478 Q646.241 344.478 641.866 339.617 Q637.514 334.733 637.514 326.561 Q637.514 318.367 641.866 313.506 Q646.241 308.622 653.532 308.622 Q660.801 308.622 665.153 313.506 Q669.505 318.367 669.505 326.561 Q669.505 332.58 667.074 336.862 Q664.667 341.145 660.083 343.182 Z" fill="#000000" fill-rule="nonzero" fill-opacity="1" /><path clip-path="url(#clip730)" d="M684.204 309.247 L688.139 309.247 L676.102 348.205 L672.167 348.205 L684.204 309.247 Z" fill="#000000" fill-rule="nonzero" fill-opacity="1" /><path clip-path="url(#clip730)" d="M704.342 313.853 L698 331.052 L710.708 331.052 L704.342 313.853 M701.704 309.247 L707.004 309.247 L720.176 343.807 L715.315 343.807 L712.166 334.941 L696.588 334.941 L693.44 343.807 L688.509 343.807 L701.704 309.247 Z" fill="#000000" fill-rule="nonzero" fill-opacity="1" /><path clip-path="url(#clip730)" d="M725.222 309.247 L732.189 309.247 L741.009 332.765 L749.875 309.247 L756.842 309.247 L756.842 343.807 L752.282 343.807 L752.282 313.46 L743.37 337.163 L738.671 337.163 L729.759 313.46 L729.759 343.807 L725.222 343.807 L725.222 309.247 Z" fill="#000000" fill-rule="nonzero" fill-opacity="1" /><path clip-path="url(#clip730)" d="M792.004 311.909 L792.004 316.839 Q789.643 314.64 786.958 313.552 Q784.296 312.464 781.286 312.464 Q775.361 312.464 772.212 316.098 Q769.064 319.71 769.064 326.561 Q769.064 333.39 772.212 337.024 Q775.361 340.635 781.286 340.635 Q784.296 340.635 786.958 339.547 Q789.643 338.459 792.004 336.26 L792.004 341.145 Q789.55 342.811 786.796 343.645 Q784.064 344.478 781.009 344.478 Q773.161 344.478 768.648 339.686 Q764.134 334.871 764.134 326.561 Q764.134 318.228 768.648 313.436 Q773.161 308.622 781.009 308.622 Q784.11 308.622 786.842 309.455 Q789.597 310.265 792.004 311.909 Z" fill="#000000" fill-rule="nonzero" fill-opacity="1" /><polyline clip-path="url(#clip730)" style="stroke:#ac8d18; stroke-linecap:round; stroke-linejoin:round; stroke-width:8; stroke-opacity:1; fill:none" stroke-dasharray="32, 16, 4, 16" points="346.683,378.367 542.455,378.367 "/>
<path clip-path="url(#clip730)" d="M575.084 361.087 L581.38 361.087 L596.704 389.999 L596.704 361.087 L601.241 361.087 L601.241 395.647 L594.945 395.647 L579.621 366.735 L579.621 395.647 L575.084 395.647 L575.084 361.087 Z" fill="#000000" fill-rule="nonzero" fill-opacity="1" /><path clip-path="url(#clip730)" d="M605.801 361.087 L610.824 361.087 L620.408 375.3 L629.922 361.087 L634.945 361.087 L622.722 379.188 L622.722 395.647 L618.023 395.647 L618.023 379.188 L605.801 361.087 Z" fill="#000000" fill-rule="nonzero" fill-opacity="1" /><path clip-path="url(#clip730)" d="M653.532 364.258 Q648.44 364.258 645.431 368.054 Q642.445 371.85 642.445 378.401 Q642.445 384.929 645.431 388.725 Q648.44 392.522 653.532 392.522 Q658.625 392.522 661.588 388.725 Q664.574 384.929 664.574 378.401 Q664.574 371.85 661.588 368.054 Q658.625 364.258 653.532 364.258 M660.083 395.022 L666.241 401.758 L660.593 401.758 L655.477 396.225 Q654.713 396.272 654.296 396.295 Q653.903 396.318 653.532 396.318 Q646.241 396.318 641.866 391.457 Q637.514 386.573 637.514 378.401 Q637.514 370.207 641.866 365.346 Q646.241 360.462 653.532 360.462 Q660.801 360.462 665.153 365.346 Q669.505 370.207 669.505 378.401 Q669.505 384.42 667.074 388.702 Q664.667 392.985 660.083 395.022 Z" fill="#000000" fill-rule="nonzero" fill-opacity="1" /><path clip-path="url(#clip730)" d="M684.204 361.087 L688.139 361.087 L676.102 400.045 L672.167 400.045 L684.204 361.087 Z" fill="#000000" fill-rule="nonzero" fill-opacity="1" /><path clip-path="url(#clip730)" d="M697.467 364.929 L697.467 391.804 L703.116 391.804 Q710.268 391.804 713.578 388.563 Q716.912 385.323 716.912 378.332 Q716.912 371.387 713.578 368.17 Q710.268 364.929 703.116 364.929 L697.467 364.929 M692.792 361.087 L702.398 361.087 Q712.444 361.087 717.143 365.276 Q721.842 369.443 721.842 378.332 Q721.842 387.267 717.12 391.457 Q712.398 395.647 702.398 395.647 L692.792 395.647 L692.792 361.087 Z" fill="#000000" fill-rule="nonzero" fill-opacity="1" /><path clip-path="url(#clip730)" d="M737.375 395.647 L724.18 361.087 L729.064 361.087 L740.014 390.184 L750.986 361.087 L755.847 361.087 L742.676 395.647 L737.375 395.647 Z" fill="#000000" fill-rule="nonzero" fill-opacity="1" /><path clip-path="url(#clip730)" d="M760.893 361.087 L767.189 361.087 L782.513 389.999 L782.513 361.087 L787.05 361.087 L787.05 395.647 L780.754 395.647 L765.43 366.735 L765.43 395.647 L760.893 395.647 L760.893 361.087 Z" fill="#000000" fill-rule="nonzero" fill-opacity="1" /><polyline clip-path="url(#clip730)" style="stroke:#00a9ad; stroke-linecap:round; stroke-linejoin:round; stroke-width:8; stroke-opacity:1; fill:none" stroke-dasharray="32, 16, 4, 16" points="346.683,430.207 542.455,430.207 "/>
<path clip-path="url(#clip730)" d="M575.084 412.927 L579.76 412.927 L579.76 427.093 L596.75 427.093 L596.75 412.927 L601.426 412.927 L601.426 447.487 L596.75 447.487 L596.75 431.028 L579.76 431.028 L579.76 447.487 L575.084 447.487 L575.084 412.927 Z" fill="#000000" fill-rule="nonzero" fill-opacity="1" /><path clip-path="url(#clip730)" d="M620.593 424.547 Q617.167 424.547 615.176 427.232 Q613.185 429.894 613.185 434.547 Q613.185 439.2 615.153 441.885 Q617.144 444.547 620.593 444.547 Q623.996 444.547 625.986 441.862 Q627.977 439.176 627.977 434.547 Q627.977 429.94 625.986 427.255 Q623.996 424.547 620.593 424.547 M620.593 420.936 Q626.148 420.936 629.32 424.547 Q632.491 428.158 632.491 434.547 Q632.491 440.913 629.32 444.547 Q626.148 448.158 620.593 448.158 Q615.014 448.158 611.843 444.547 Q608.695 440.913 608.695 434.547 Q608.695 428.158 611.843 424.547 Q615.014 420.936 620.593 420.936 Z" fill="#000000" fill-rule="nonzero" fill-opacity="1" /><path clip-path="url(#clip730)" d="M659.736 426.538 Q661.333 423.667 663.556 422.302 Q665.778 420.936 668.787 420.936 Q672.838 420.936 675.037 423.783 Q677.236 426.607 677.236 431.839 L677.236 447.487 L672.954 447.487 L672.954 431.977 Q672.954 428.251 671.634 426.445 Q670.315 424.64 667.606 424.64 Q664.296 424.64 662.375 426.839 Q660.454 429.038 660.454 432.834 L660.454 447.487 L656.171 447.487 L656.171 431.977 Q656.171 428.227 654.852 426.445 Q653.532 424.64 650.778 424.64 Q647.514 424.64 645.593 426.862 Q643.671 429.061 643.671 432.834 L643.671 447.487 L639.389 447.487 L639.389 421.561 L643.671 421.561 L643.671 425.589 Q645.13 423.204 647.167 422.07 Q649.204 420.936 652.005 420.936 Q654.829 420.936 656.796 422.371 Q658.787 423.806 659.736 426.538 Z" fill="#000000" fill-rule="nonzero" fill-opacity="1" /><path clip-path="url(#clip730)" d="M695.778 424.547 Q692.352 424.547 690.361 427.232 Q688.37 429.894 688.37 434.547 Q688.37 439.2 690.338 441.885 Q692.329 444.547 695.778 444.547 Q699.18 444.547 701.171 441.862 Q703.162 439.176 703.162 434.547 Q703.162 429.94 701.171 427.255 Q699.18 424.547 695.778 424.547 M695.778 420.936 Q701.333 420.936 704.504 424.547 Q707.676 428.158 707.676 434.547 Q707.676 440.913 704.504 444.547 Q701.333 448.158 695.778 448.158 Q690.199 448.158 687.028 444.547 Q683.88 440.913 683.88 434.547 Q683.88 428.158 687.028 424.547 Q690.199 420.936 695.778 420.936 Z" fill="#000000" fill-rule="nonzero" fill-opacity="1" /><path clip-path="url(#clip730)" d="M731.796 434.223 Q731.796 429.593 729.875 427.047 Q727.977 424.501 724.527 424.501 Q721.102 424.501 719.18 427.047 Q717.282 429.593 717.282 434.223 Q717.282 438.829 719.18 441.376 Q721.102 443.922 724.527 443.922 Q727.977 443.922 729.875 441.376 Q731.796 438.829 731.796 434.223 M736.055 444.269 Q736.055 450.889 733.115 454.107 Q730.176 457.348 724.111 457.348 Q721.865 457.348 719.875 457 Q717.884 456.676 716.009 455.982 L716.009 451.838 Q717.884 452.857 719.713 453.343 Q721.541 453.829 723.44 453.829 Q727.629 453.829 729.713 451.63 Q731.796 449.454 731.796 445.033 L731.796 442.926 Q730.477 445.218 728.416 446.352 Q726.356 447.487 723.486 447.487 Q718.717 447.487 715.801 443.852 Q712.884 440.218 712.884 434.223 Q712.884 428.204 715.801 424.57 Q718.717 420.936 723.486 420.936 Q726.356 420.936 728.416 422.07 Q730.477 423.204 731.796 425.496 L731.796 421.561 L736.055 421.561 L736.055 444.269 Z" fill="#000000" fill-rule="nonzero" fill-opacity="1" /><path clip-path="url(#clip730)" d="M767.004 433.459 L767.004 435.542 L747.421 435.542 Q747.699 439.94 750.06 442.255 Q752.444 444.547 756.68 444.547 Q759.134 444.547 761.425 443.945 Q763.74 443.343 766.009 442.139 L766.009 446.167 Q763.717 447.139 761.31 447.649 Q758.902 448.158 756.425 448.158 Q750.222 448.158 746.588 444.547 Q742.976 440.936 742.976 434.778 Q742.976 428.413 746.402 424.686 Q749.851 420.936 755.685 420.936 Q760.916 420.936 763.949 424.315 Q767.004 427.672 767.004 433.459 M762.745 432.209 Q762.699 428.714 760.777 426.63 Q758.879 424.547 755.731 424.547 Q752.166 424.547 750.013 426.561 Q747.884 428.575 747.56 432.232 L762.745 432.209 Z" fill="#000000" fill-rule="nonzero" fill-opacity="1" /><path clip-path="url(#clip730)" d="M795.546 431.839 L795.546 447.487 L791.286 447.487 L791.286 431.977 Q791.286 428.297 789.851 426.468 Q788.416 424.64 785.546 424.64 Q782.097 424.64 780.106 426.839 Q778.115 429.038 778.115 432.834 L778.115 447.487 L773.833 447.487 L773.833 421.561 L778.115 421.561 L778.115 425.589 Q779.643 423.251 781.703 422.093 Q783.786 420.936 786.495 420.936 Q790.962 420.936 793.254 423.714 Q795.546 426.468 795.546 431.839 Z" fill="#000000" fill-rule="nonzero" fill-opacity="1" /><path clip-path="url(#clip730)" d="M826.217 433.459 L826.217 435.542 L806.634 435.542 Q806.911 439.94 809.272 442.255 Q811.657 444.547 815.893 444.547 Q818.346 444.547 820.638 443.945 Q822.953 443.343 825.221 442.139 L825.221 446.167 Q822.93 447.139 820.522 447.649 Q818.115 448.158 815.638 448.158 Q809.434 448.158 805.8 444.547 Q802.189 440.936 802.189 434.778 Q802.189 428.413 805.615 424.686 Q809.064 420.936 814.897 420.936 Q820.129 420.936 823.161 424.315 Q826.217 427.672 826.217 433.459 M821.958 432.209 Q821.911 428.714 819.99 426.63 Q818.092 424.547 814.944 424.547 Q811.379 424.547 809.226 426.561 Q807.096 428.575 806.772 432.232 L821.958 432.209 Z" fill="#000000" fill-rule="nonzero" fill-opacity="1" /><path clip-path="url(#clip730)" d="M843.254 424.547 Q839.828 424.547 837.837 427.232 Q835.846 429.894 835.846 434.547 Q835.846 439.2 837.814 441.885 Q839.805 444.547 843.254 444.547 Q846.656 444.547 848.647 441.862 Q850.638 439.176 850.638 434.547 Q850.638 429.94 848.647 427.255 Q846.656 424.547 843.254 424.547 M843.254 420.936 Q848.809 420.936 851.981 424.547 Q855.152 428.158 855.152 434.547 Q855.152 440.913 851.981 444.547 Q848.809 448.158 843.254 448.158 Q837.675 448.158 834.504 444.547 Q831.356 440.913 831.356 434.547 Q831.356 428.158 834.504 424.547 Q837.675 420.936 843.254 420.936 Z" fill="#000000" fill-rule="nonzero" fill-opacity="1" /><path clip-path="url(#clip730)" d="M861.772 437.255 L861.772 421.561 L866.031 421.561 L866.031 437.093 Q866.031 440.774 867.467 442.626 Q868.902 444.454 871.772 444.454 Q875.221 444.454 877.212 442.255 Q879.226 440.056 879.226 436.26 L879.226 421.561 L883.485 421.561 L883.485 447.487 L879.226 447.487 L879.226 443.505 Q877.675 445.866 875.615 447.024 Q873.578 448.158 870.869 448.158 Q866.402 448.158 864.087 445.38 Q861.772 442.602 861.772 437.255 M872.49 420.936 L872.49 420.936 Z" fill="#000000" fill-rule="nonzero" fill-opacity="1" /><path clip-path="url(#clip730)" d="M908.786 422.325 L908.786 426.352 Q906.98 425.427 905.036 424.964 Q903.091 424.501 901.008 424.501 Q897.837 424.501 896.24 425.473 Q894.665 426.445 894.665 428.389 Q894.665 429.871 895.8 430.727 Q896.934 431.561 900.36 432.325 L901.818 432.649 Q906.355 433.621 908.253 435.403 Q910.175 437.163 910.175 440.334 Q910.175 443.945 907.304 446.051 Q904.457 448.158 899.457 448.158 Q897.374 448.158 895.105 447.741 Q892.86 447.348 890.36 446.538 L890.36 442.139 Q892.721 443.366 895.013 443.991 Q897.304 444.593 899.55 444.593 Q902.559 444.593 904.179 443.575 Q905.8 442.533 905.8 440.658 Q905.8 438.922 904.619 437.996 Q903.462 437.07 899.503 436.214 L898.022 435.866 Q894.064 435.033 892.304 433.32 Q890.545 431.584 890.545 428.575 Q890.545 424.917 893.138 422.927 Q895.73 420.936 900.499 420.936 Q902.86 420.936 904.943 421.283 Q907.027 421.63 908.786 422.325 Z" fill="#000000" fill-rule="nonzero" fill-opacity="1" /></svg>
