<?xml version="1.0" encoding="utf-8"?>
<svg xmlns="http://www.w3.org/2000/svg" xmlns:xlink="http://www.w3.org/1999/xlink" width="600" height="400" viewBox="0 0 2400 1600">
<defs>
  <clipPath id="clip570">
    <rect x="0" y="0" width="2400" height="1600"/>
  </clipPath>
</defs>
<path clip-path="url(#clip570)" d="M0 1600 L2400 1600 L2400 0 L0 0  Z" fill="#ffffff" fill-rule="evenodd" fill-opacity="1"/>
<defs>
  <clipPath id="clip571">
    <rect x="480" y="0" width="1681" height="1600"/>
  </clipPath>
</defs>
<path clip-path="url(#clip570)" d="M221.637 1423.18 L2352.76 1423.18 L2352.76 47.2441 L221.637 47.2441  Z" fill="#ffffff" fill-rule="evenodd" fill-opacity="1"/>
<defs>
  <clipPath id="clip572">
    <rect x="221" y="47" width="2132" height="1377"/>
  </clipPath>
</defs>
<polyline clip-path="url(#clip572)" style="stroke:#000000; stroke-linecap:round; stroke-linejoin:round; stroke-width:2; stroke-opacity:0.1; fill:none" points="262.262,1423.18 262.262,47.2441 "/>
<polyline clip-path="url(#clip572)" style="stroke:#000000; stroke-linecap:round; stroke-linejoin:round; stroke-width:2; stroke-opacity:0.1; fill:none" points="777.772,1423.18 777.772,47.2441 "/>
<polyline clip-path="url(#clip572)" style="stroke:#000000; stroke-linecap:round; stroke-linejoin:round; stroke-width:2; stroke-opacity:0.1; fill:none" points="1299.01,1423.18 1299.01,47.2441 "/>
<polyline clip-path="url(#clip572)" style="stroke:#000000; stroke-linecap:round; stroke-linejoin:round; stroke-width:2; stroke-opacity:0.1; fill:none" points="1825.98,1423.18 1825.98,47.2441 "/>
<polyline clip-path="url(#clip572)" style="stroke:#000000; stroke-linecap:round; stroke-linejoin:round; stroke-width:2; stroke-opacity:0.05; fill:none" points="365.364,1423.18 365.364,47.2441 "/>
<polyline clip-path="url(#clip572)" style="stroke:#000000; stroke-linecap:round; stroke-linejoin:round; stroke-width:2; stroke-opacity:0.05; fill:none" points="468.466,1423.18 468.466,47.2441 "/>
<polyline clip-path="url(#clip572)" style="stroke:#000000; stroke-linecap:round; stroke-linejoin:round; stroke-width:2; stroke-opacity:0.05; fill:none" points="571.568,1423.18 571.568,47.2441 "/>
<polyline clip-path="url(#clip572)" style="stroke:#000000; stroke-linecap:round; stroke-linejoin:round; stroke-width:2; stroke-opacity:0.05; fill:none" points="674.67,1423.18 674.67,47.2441 "/>
<polyline clip-path="url(#clip572)" style="stroke:#000000; stroke-linecap:round; stroke-linejoin:round; stroke-width:2; stroke-opacity:0.05; fill:none" points="882.02,1423.18 882.02,47.2441 "/>
<polyline clip-path="url(#clip572)" style="stroke:#000000; stroke-linecap:round; stroke-linejoin:round; stroke-width:2; stroke-opacity:0.05; fill:none" points="986.267,1423.18 986.267,47.2441 "/>
<polyline clip-path="url(#clip572)" style="stroke:#000000; stroke-linecap:round; stroke-linejoin:round; stroke-width:2; stroke-opacity:0.05; fill:none" points="1090.52,1423.18 1090.52,47.2441 "/>
<polyline clip-path="url(#clip572)" style="stroke:#000000; stroke-linecap:round; stroke-linejoin:round; stroke-width:2; stroke-opacity:0.05; fill:none" points="1194.76,1423.18 1194.76,47.2441 "/>
<polyline clip-path="url(#clip572)" style="stroke:#000000; stroke-linecap:round; stroke-linejoin:round; stroke-width:2; stroke-opacity:0.05; fill:none" points="1404.4,1423.18 1404.4,47.2441 "/>
<polyline clip-path="url(#clip572)" style="stroke:#000000; stroke-linecap:round; stroke-linejoin:round; stroke-width:2; stroke-opacity:0.05; fill:none" points="1509.8,1423.18 1509.8,47.2441 "/>
<polyline clip-path="url(#clip572)" style="stroke:#000000; stroke-linecap:round; stroke-linejoin:round; stroke-width:2; stroke-opacity:0.05; fill:none" points="1615.19,1423.18 1615.19,47.2441 "/>
<polyline clip-path="url(#clip572)" style="stroke:#000000; stroke-linecap:round; stroke-linejoin:round; stroke-width:2; stroke-opacity:0.05; fill:none" points="1720.58,1423.18 1720.58,47.2441 "/>
<polyline clip-path="url(#clip572)" style="stroke:#000000; stroke-linecap:round; stroke-linejoin:round; stroke-width:2; stroke-opacity:0.05; fill:none" points="1932.54,1423.18 1932.54,47.2441 "/>
<polyline clip-path="url(#clip572)" style="stroke:#000000; stroke-linecap:round; stroke-linejoin:round; stroke-width:2; stroke-opacity:0.05; fill:none" points="2039.1,1423.18 2039.1,47.2441 "/>
<polyline clip-path="url(#clip572)" style="stroke:#000000; stroke-linecap:round; stroke-linejoin:round; stroke-width:2; stroke-opacity:0.05; fill:none" points="2145.67,1423.18 2145.67,47.2441 "/>
<polyline clip-path="url(#clip572)" style="stroke:#000000; stroke-linecap:round; stroke-linejoin:round; stroke-width:2; stroke-opacity:0.05; fill:none" points="2252.23,1423.18 2252.23,47.2441 "/>
<polyline clip-path="url(#clip570)" style="stroke:#000000; stroke-linecap:round; stroke-linejoin:round; stroke-width:4; stroke-opacity:1; fill:none" points="221.637,1423.18 2352.76,1423.18 "/>
<polyline clip-path="url(#clip570)" style="stroke:#000000; stroke-linecap:round; stroke-linejoin:round; stroke-width:4; stroke-opacity:1; fill:none" points="262.262,1423.18 262.262,1404.28 "/>
<polyline clip-path="url(#clip570)" style="stroke:#000000; stroke-linecap:round; stroke-linejoin:round; stroke-width:4; stroke-opacity:1; fill:none" points="777.772,1423.18 777.772,1404.28 "/>
<polyline clip-path="url(#clip570)" style="stroke:#000000; stroke-linecap:round; stroke-linejoin:round; stroke-width:4; stroke-opacity:1; fill:none" points="1299.01,1423.18 1299.01,1404.28 "/>
<polyline clip-path="url(#clip570)" style="stroke:#000000; stroke-linecap:round; stroke-linejoin:round; stroke-width:4; stroke-opacity:1; fill:none" points="1825.98,1423.18 1825.98,1404.28 "/>
<polyline clip-path="url(#clip570)" style="stroke:#000000; stroke-linecap:round; stroke-linejoin:round; stroke-width:4; stroke-opacity:1; fill:none" points="365.364,1423.18 365.364,1413.73 "/>
<polyline clip-path="url(#clip570)" style="stroke:#000000; stroke-linecap:round; stroke-linejoin:round; stroke-width:4; stroke-opacity:1; fill:none" points="468.466,1423.18 468.466,1413.73 "/>
<polyline clip-path="url(#clip570)" style="stroke:#000000; stroke-linecap:round; stroke-linejoin:round; stroke-width:4; stroke-opacity:1; fill:none" points="571.568,1423.18 571.568,1413.73 "/>
<polyline clip-path="url(#clip570)" style="stroke:#000000; stroke-linecap:round; stroke-linejoin:round; stroke-width:4; stroke-opacity:1; fill:none" points="674.67,1423.18 674.67,1413.73 "/>
<polyline clip-path="url(#clip570)" style="stroke:#000000; stroke-linecap:round; stroke-linejoin:round; stroke-width:4; stroke-opacity:1; fill:none" points="882.02,1423.18 882.02,1413.73 "/>
<polyline clip-path="url(#clip570)" style="stroke:#000000; stroke-linecap:round; stroke-linejoin:round; stroke-width:4; stroke-opacity:1; fill:none" points="986.267,1423.18 986.267,1413.73 "/>
<polyline clip-path="url(#clip570)" style="stroke:#000000; stroke-linecap:round; stroke-linejoin:round; stroke-width:4; stroke-opacity:1; fill:none" points="1090.52,1423.18 1090.52,1413.73 "/>
<polyline clip-path="url(#clip570)" style="stroke:#000000; stroke-linecap:round; stroke-linejoin:round; stroke-width:4; stroke-opacity:1; fill:none" points="1194.76,1423.18 1194.76,1413.73 "/>
<polyline clip-path="url(#clip570)" style="stroke:#000000; stroke-linecap:round; stroke-linejoin:round; stroke-width:4; stroke-opacity:1; fill:none" points="1404.4,1423.18 1404.4,1413.73 "/>
<polyline clip-path="url(#clip570)" style="stroke:#000000; stroke-linecap:round; stroke-linejoin:round; stroke-width:4; stroke-opacity:1; fill:none" points="1509.8,1423.18 1509.8,1413.73 "/>
<polyline clip-path="url(#clip570)" style="stroke:#000000; stroke-linecap:round; stroke-linejoin:round; stroke-width:4; stroke-opacity:1; fill:none" points="1615.19,1423.18 1615.19,1413.73 "/>
<polyline clip-path="url(#clip570)" style="stroke:#000000; stroke-linecap:round; stroke-linejoin:round; stroke-width:4; stroke-opacity:1; fill:none" points="1720.58,1423.18 1720.58,1413.73 "/>
<polyline clip-path="url(#clip570)" style="stroke:#000000; stroke-linecap:round; stroke-linejoin:round; stroke-width:4; stroke-opacity:1; fill:none" points="1932.54,1423.18 1932.54,1413.73 "/>
<polyline clip-path="url(#clip570)" style="stroke:#000000; stroke-linecap:round; stroke-linejoin:round; stroke-width:4; stroke-opacity:1; fill:none" points="2039.1,1423.18 2039.1,1413.73 "/>
<polyline clip-path="url(#clip570)" style="stroke:#000000; stroke-linecap:round; stroke-linejoin:round; stroke-width:4; stroke-opacity:1; fill:none" points="2145.67,1423.18 2145.67,1413.73 "/>
<polyline clip-path="url(#clip570)" style="stroke:#000000; stroke-linecap:round; stroke-linejoin:round; stroke-width:4; stroke-opacity:1; fill:none" points="2252.23,1423.18 2252.23,1413.73 "/>
<path clip-path="url(#clip570)" d="M134.057 1481.64 L150.376 1481.64 L150.376 1485.58 L128.432 1485.58 L128.432 1481.64 Q131.094 1478.89 135.677 1474.26 Q140.284 1469.61 141.464 1468.27 Q143.71 1465.74 144.589 1464.01 Q145.492 1462.25 145.492 1460.56 Q145.492 1457.8 143.548 1456.07 Q141.626 1454.33 138.524 1454.33 Q136.325 1454.33 133.872 1455.09 Q131.441 1455.86 128.663 1457.41 L128.663 1452.69 Q131.487 1451.55 133.941 1450.97 Q136.395 1450.39 138.432 1450.39 Q143.802 1450.39 146.997 1453.08 Q150.191 1455.77 150.191 1460.26 Q150.191 1462.39 149.381 1464.31 Q148.594 1466.2 146.487 1468.8 Q145.909 1469.47 142.807 1472.69 Q139.705 1475.88 134.057 1481.64 Z" fill="#000000" fill-rule="nonzero" fill-opacity="1" /><path clip-path="url(#clip570)" d="M170.191 1454.1 Q166.58 1454.1 164.751 1457.66 Q162.946 1461.2 162.946 1468.33 Q162.946 1475.44 164.751 1479.01 Q166.58 1482.55 170.191 1482.55 Q173.825 1482.55 175.631 1479.01 Q177.459 1475.44 177.459 1468.33 Q177.459 1461.2 175.631 1457.66 Q173.825 1454.1 170.191 1454.1 M170.191 1450.39 Q176.001 1450.39 179.057 1455 Q182.135 1459.58 182.135 1468.33 Q182.135 1477.06 179.057 1481.67 Q176.001 1486.25 170.191 1486.25 Q164.381 1486.25 161.302 1481.67 Q158.247 1477.06 158.247 1468.33 Q158.247 1459.58 161.302 1455 Q164.381 1450.39 170.191 1450.39 Z" fill="#000000" fill-rule="nonzero" fill-opacity="1" /><path clip-path="url(#clip570)" d="M194.381 1481.64 L210.7 1481.64 L210.7 1485.58 L188.756 1485.58 L188.756 1481.64 Q191.418 1478.89 196.001 1474.26 Q200.607 1469.61 201.788 1468.27 Q204.033 1465.74 204.913 1464.01 Q205.816 1462.25 205.816 1460.56 Q205.816 1457.8 203.871 1456.07 Q201.95 1454.33 198.848 1454.33 Q196.649 1454.33 194.195 1455.09 Q191.765 1455.86 188.987 1457.41 L188.987 1452.69 Q191.811 1451.55 194.265 1450.97 Q196.719 1450.39 198.756 1450.39 Q204.126 1450.39 207.32 1453.08 Q210.515 1455.77 210.515 1460.26 Q210.515 1462.39 209.705 1464.31 Q208.918 1466.2 206.811 1468.8 Q206.232 1469.47 203.131 1472.69 Q200.029 1475.88 194.381 1481.64 Z" fill="#000000" fill-rule="nonzero" fill-opacity="1" /><path clip-path="url(#clip570)" d="M221.325 1481.64 L228.964 1481.64 L228.964 1455.28 L220.654 1456.95 L220.654 1452.69 L228.917 1451.02 L233.593 1451.02 L233.593 1481.64 L241.232 1481.64 L241.232 1485.58 L221.325 1485.58 L221.325 1481.64 Z" fill="#000000" fill-rule="nonzero" fill-opacity="1" /><path clip-path="url(#clip570)" d="M247.922 1470.7 L260.399 1470.7 L260.399 1474.49 L247.922 1474.49 L247.922 1470.7 Z" fill="#000000" fill-rule="nonzero" fill-opacity="1" /><path clip-path="url(#clip570)" d="M277.783 1454.1 Q274.172 1454.1 272.343 1457.66 Q270.538 1461.2 270.538 1468.33 Q270.538 1475.44 272.343 1479.01 Q274.172 1482.55 277.783 1482.55 Q281.417 1482.55 283.223 1479.01 Q285.051 1475.44 285.051 1468.33 Q285.051 1461.2 283.223 1457.66 Q281.417 1454.1 277.783 1454.1 M277.783 1450.39 Q283.593 1450.39 286.649 1455 Q289.727 1459.58 289.727 1468.33 Q289.727 1477.06 286.649 1481.67 Q283.593 1486.25 277.783 1486.25 Q271.973 1486.25 268.894 1481.67 Q265.839 1477.06 265.839 1468.33 Q265.839 1459.58 268.894 1455 Q271.973 1450.39 277.783 1450.39 Z" fill="#000000" fill-rule="nonzero" fill-opacity="1" /><path clip-path="url(#clip570)" d="M298.755 1481.64 L306.394 1481.64 L306.394 1455.28 L298.084 1456.95 L298.084 1452.69 L306.348 1451.02 L311.023 1451.02 L311.023 1481.64 L318.662 1481.64 L318.662 1485.58 L298.755 1485.58 L298.755 1481.64 Z" fill="#000000" fill-rule="nonzero" fill-opacity="1" /><path clip-path="url(#clip570)" d="M325.352 1470.7 L337.829 1470.7 L337.829 1474.49 L325.352 1474.49 L325.352 1470.7 Z" fill="#000000" fill-rule="nonzero" fill-opacity="1" /><path clip-path="url(#clip570)" d="M355.213 1454.1 Q351.602 1454.1 349.773 1457.66 Q347.968 1461.2 347.968 1468.33 Q347.968 1475.44 349.773 1479.01 Q351.602 1482.55 355.213 1482.55 Q358.847 1482.55 360.653 1479.01 Q362.482 1475.44 362.482 1468.33 Q362.482 1461.2 360.653 1457.66 Q358.847 1454.1 355.213 1454.1 M355.213 1450.39 Q361.023 1450.39 364.079 1455 Q367.157 1459.58 367.157 1468.33 Q367.157 1477.06 364.079 1481.67 Q361.023 1486.25 355.213 1486.25 Q349.403 1486.25 346.324 1481.67 Q343.269 1477.06 343.269 1468.33 Q343.269 1459.58 346.324 1455 Q349.403 1450.39 355.213 1450.39 Z" fill="#000000" fill-rule="nonzero" fill-opacity="1" /><path clip-path="url(#clip570)" d="M376.185 1481.64 L383.824 1481.64 L383.824 1455.28 L375.514 1456.95 L375.514 1452.69 L383.778 1451.02 L388.454 1451.02 L388.454 1481.64 L396.092 1481.64 L396.092 1485.58 L376.185 1485.58 L376.185 1481.64 Z" fill="#000000" fill-rule="nonzero" fill-opacity="1" /><path clip-path="url(#clip570)" d="M649.567 1481.64 L665.886 1481.64 L665.886 1485.58 L643.942 1485.58 L643.942 1481.64 Q646.604 1478.89 651.187 1474.26 Q655.794 1469.61 656.974 1468.27 Q659.22 1465.74 660.099 1464.01 Q661.002 1462.25 661.002 1460.56 Q661.002 1457.8 659.058 1456.07 Q657.136 1454.33 654.035 1454.33 Q651.835 1454.33 649.382 1455.09 Q646.951 1455.86 644.173 1457.41 L644.173 1452.69 Q646.998 1451.55 649.451 1450.97 Q651.905 1450.39 653.942 1450.39 Q659.312 1450.39 662.507 1453.08 Q665.701 1455.77 665.701 1460.26 Q665.701 1462.39 664.891 1464.31 Q664.104 1466.2 661.997 1468.8 Q661.419 1469.47 658.317 1472.69 Q655.215 1475.88 649.567 1481.64 Z" fill="#000000" fill-rule="nonzero" fill-opacity="1" /><path clip-path="url(#clip570)" d="M685.701 1454.1 Q682.09 1454.1 680.261 1457.66 Q678.456 1461.2 678.456 1468.33 Q678.456 1475.44 680.261 1479.01 Q682.09 1482.55 685.701 1482.55 Q689.335 1482.55 691.141 1479.01 Q692.969 1475.44 692.969 1468.33 Q692.969 1461.2 691.141 1457.66 Q689.335 1454.1 685.701 1454.1 M685.701 1450.39 Q691.511 1450.39 694.567 1455 Q697.645 1459.58 697.645 1468.33 Q697.645 1477.06 694.567 1481.67 Q691.511 1486.25 685.701 1486.25 Q679.891 1486.25 676.812 1481.67 Q673.757 1477.06 673.757 1468.33 Q673.757 1459.58 676.812 1455 Q679.891 1450.39 685.701 1450.39 Z" fill="#000000" fill-rule="nonzero" fill-opacity="1" /><path clip-path="url(#clip570)" d="M709.891 1481.64 L726.21 1481.64 L726.21 1485.58 L704.266 1485.58 L704.266 1481.64 Q706.928 1478.89 711.511 1474.26 Q716.118 1469.61 717.298 1468.27 Q719.543 1465.74 720.423 1464.01 Q721.326 1462.25 721.326 1460.56 Q721.326 1457.8 719.381 1456.07 Q717.46 1454.33 714.358 1454.33 Q712.159 1454.33 709.706 1455.09 Q707.275 1455.86 704.497 1457.41 L704.497 1452.69 Q707.321 1451.55 709.775 1450.97 Q712.229 1450.39 714.266 1450.39 Q719.636 1450.39 722.83 1453.08 Q726.025 1455.77 726.025 1460.26 Q726.025 1462.39 725.215 1464.31 Q724.428 1466.2 722.321 1468.8 Q721.742 1469.47 718.641 1472.69 Q715.539 1475.88 709.891 1481.64 Z" fill="#000000" fill-rule="nonzero" fill-opacity="1" /><path clip-path="url(#clip570)" d="M736.835 1481.64 L744.474 1481.64 L744.474 1455.28 L736.164 1456.95 L736.164 1452.69 L744.428 1451.02 L749.103 1451.02 L749.103 1481.64 L756.742 1481.64 L756.742 1485.58 L736.835 1485.58 L736.835 1481.64 Z" fill="#000000" fill-rule="nonzero" fill-opacity="1" /><path clip-path="url(#clip570)" d="M763.432 1470.7 L775.909 1470.7 L775.909 1474.49 L763.432 1474.49 L763.432 1470.7 Z" fill="#000000" fill-rule="nonzero" fill-opacity="1" /><path clip-path="url(#clip570)" d="M793.293 1454.1 Q789.682 1454.1 787.853 1457.66 Q786.048 1461.2 786.048 1468.33 Q786.048 1475.44 787.853 1479.01 Q789.682 1482.55 793.293 1482.55 Q796.927 1482.55 798.733 1479.01 Q800.561 1475.44 800.561 1468.33 Q800.561 1461.2 798.733 1457.66 Q796.927 1454.1 793.293 1454.1 M793.293 1450.39 Q799.103 1450.39 802.159 1455 Q805.237 1459.58 805.237 1468.33 Q805.237 1477.06 802.159 1481.67 Q799.103 1486.25 793.293 1486.25 Q787.483 1486.25 784.404 1481.67 Q781.349 1477.06 781.349 1468.33 Q781.349 1459.58 784.404 1455 Q787.483 1450.39 793.293 1450.39 Z" fill="#000000" fill-rule="nonzero" fill-opacity="1" /><path clip-path="url(#clip570)" d="M826.302 1455.09 L814.497 1473.54 L826.302 1473.54 L826.302 1455.09 M825.075 1451.02 L830.955 1451.02 L830.955 1473.54 L835.885 1473.54 L835.885 1477.43 L830.955 1477.43 L830.955 1485.58 L826.302 1485.58 L826.302 1477.43 L810.7 1477.43 L810.7 1472.92 L825.075 1451.02 Z" fill="#000000" fill-rule="nonzero" fill-opacity="1" /><path clip-path="url(#clip570)" d="M840.862 1470.7 L853.339 1470.7 L853.339 1474.49 L840.862 1474.49 L840.862 1470.7 Z" fill="#000000" fill-rule="nonzero" fill-opacity="1" /><path clip-path="url(#clip570)" d="M870.723 1454.1 Q867.112 1454.1 865.283 1457.66 Q863.478 1461.2 863.478 1468.33 Q863.478 1475.44 865.283 1479.01 Q867.112 1482.55 870.723 1482.55 Q874.357 1482.55 876.163 1479.01 Q877.992 1475.44 877.992 1468.33 Q877.992 1461.2 876.163 1457.66 Q874.357 1454.1 870.723 1454.1 M870.723 1450.39 Q876.533 1450.39 879.589 1455 Q882.668 1459.58 882.668 1468.33 Q882.668 1477.06 879.589 1481.67 Q876.533 1486.25 870.723 1486.25 Q864.913 1486.25 861.834 1481.67 Q858.779 1477.06 858.779 1468.33 Q858.779 1459.58 861.834 1455 Q864.913 1450.39 870.723 1450.39 Z" fill="#000000" fill-rule="nonzero" fill-opacity="1" /><path clip-path="url(#clip570)" d="M891.695 1481.64 L899.334 1481.64 L899.334 1455.28 L891.024 1456.95 L891.024 1452.69 L899.288 1451.02 L903.964 1451.02 L903.964 1481.64 L911.603 1481.64 L911.603 1485.58 L891.695 1485.58 L891.695 1481.64 Z" fill="#000000" fill-rule="nonzero" fill-opacity="1" /><path clip-path="url(#clip570)" d="M1170.8 1481.64 L1187.12 1481.64 L1187.12 1485.58 L1165.18 1485.58 L1165.18 1481.64 Q1167.84 1478.89 1172.43 1474.26 Q1177.03 1469.61 1178.21 1468.27 Q1180.46 1465.74 1181.34 1464.01 Q1182.24 1462.25 1182.24 1460.56 Q1182.24 1457.8 1180.3 1456.07 Q1178.37 1454.33 1175.27 1454.33 Q1173.07 1454.33 1170.62 1455.09 Q1168.19 1455.86 1165.41 1457.41 L1165.41 1452.69 Q1168.24 1451.55 1170.69 1450.97 Q1173.14 1450.39 1175.18 1450.39 Q1180.55 1450.39 1183.74 1453.08 Q1186.94 1455.77 1186.94 1460.26 Q1186.94 1462.39 1186.13 1464.31 Q1185.34 1466.2 1183.24 1468.8 Q1182.66 1469.47 1179.55 1472.69 Q1176.45 1475.88 1170.8 1481.64 Z" fill="#000000" fill-rule="nonzero" fill-opacity="1" /><path clip-path="url(#clip570)" d="M1206.94 1454.1 Q1203.33 1454.1 1201.5 1457.66 Q1199.69 1461.2 1199.69 1468.33 Q1199.69 1475.44 1201.5 1479.01 Q1203.33 1482.55 1206.94 1482.55 Q1210.57 1482.55 1212.38 1479.01 Q1214.21 1475.44 1214.21 1468.33 Q1214.21 1461.2 1212.38 1457.66 Q1210.57 1454.1 1206.94 1454.1 M1206.94 1450.39 Q1212.75 1450.39 1215.8 1455 Q1218.88 1459.58 1218.88 1468.33 Q1218.88 1477.06 1215.8 1481.67 Q1212.75 1486.25 1206.94 1486.25 Q1201.13 1486.25 1198.05 1481.67 Q1194.99 1477.06 1194.99 1468.33 Q1194.99 1459.58 1198.05 1455 Q1201.13 1450.39 1206.94 1450.39 Z" fill="#000000" fill-rule="nonzero" fill-opacity="1" /><path clip-path="url(#clip570)" d="M1231.13 1481.64 L1247.45 1481.64 L1247.45 1485.58 L1225.5 1485.58 L1225.5 1481.64 Q1228.17 1478.89 1232.75 1474.26 Q1237.36 1469.61 1238.54 1468.27 Q1240.78 1465.74 1241.66 1464.01 Q1242.56 1462.25 1242.56 1460.56 Q1242.56 1457.8 1240.62 1456.07 Q1238.7 1454.33 1235.6 1454.33 Q1233.4 1454.33 1230.94 1455.09 Q1228.51 1455.86 1225.74 1457.41 L1225.74 1452.69 Q1228.56 1451.55 1231.01 1450.97 Q1233.47 1450.39 1235.5 1450.39 Q1240.87 1450.39 1244.07 1453.08 Q1247.26 1455.77 1247.26 1460.26 Q1247.26 1462.39 1246.45 1464.31 Q1245.67 1466.2 1243.56 1468.8 Q1242.98 1469.47 1239.88 1472.69 Q1236.78 1475.88 1231.13 1481.64 Z" fill="#000000" fill-rule="nonzero" fill-opacity="1" /><path clip-path="url(#clip570)" d="M1258.07 1481.64 L1265.71 1481.64 L1265.71 1455.28 L1257.4 1456.95 L1257.4 1452.69 L1265.67 1451.02 L1270.34 1451.02 L1270.34 1481.64 L1277.98 1481.64 L1277.98 1485.58 L1258.07 1485.58 L1258.07 1481.64 Z" fill="#000000" fill-rule="nonzero" fill-opacity="1" /><path clip-path="url(#clip570)" d="M1284.67 1470.7 L1297.15 1470.7 L1297.15 1474.49 L1284.67 1474.49 L1284.67 1470.7 Z" fill="#000000" fill-rule="nonzero" fill-opacity="1" /><path clip-path="url(#clip570)" d="M1314.53 1454.1 Q1310.92 1454.1 1309.09 1457.66 Q1307.29 1461.2 1307.29 1468.33 Q1307.29 1475.44 1309.09 1479.01 Q1310.92 1482.55 1314.53 1482.55 Q1318.17 1482.55 1319.97 1479.01 Q1321.8 1475.44 1321.8 1468.33 Q1321.8 1461.2 1319.97 1457.66 Q1318.17 1454.1 1314.53 1454.1 M1314.53 1450.39 Q1320.34 1450.39 1323.4 1455 Q1326.48 1459.58 1326.48 1468.33 Q1326.48 1477.06 1323.4 1481.67 Q1320.34 1486.25 1314.53 1486.25 Q1308.72 1486.25 1305.64 1481.67 Q1302.59 1477.06 1302.59 1468.33 Q1302.59 1459.58 1305.64 1455 Q1308.72 1450.39 1314.53 1450.39 Z" fill="#000000" fill-rule="nonzero" fill-opacity="1" /><path clip-path="url(#clip570)" d="M1333.51 1451.02 L1355.73 1451.02 L1355.73 1453.01 L1343.19 1485.58 L1338.3 1485.58 L1350.11 1454.96 L1333.51 1454.96 L1333.51 1451.02 Z" fill="#000000" fill-rule="nonzero" fill-opacity="1" /><path clip-path="url(#clip570)" d="M1362.1 1470.7 L1374.58 1470.7 L1374.58 1474.49 L1362.1 1474.49 L1362.1 1470.7 Z" fill="#000000" fill-rule="nonzero" fill-opacity="1" /><path clip-path="url(#clip570)" d="M1391.96 1454.1 Q1388.35 1454.1 1386.52 1457.66 Q1384.72 1461.2 1384.72 1468.33 Q1384.72 1475.44 1386.52 1479.01 Q1388.35 1482.55 1391.96 1482.55 Q1395.6 1482.55 1397.4 1479.01 Q1399.23 1475.44 1399.23 1468.33 Q1399.23 1461.2 1397.4 1457.66 Q1395.6 1454.1 1391.96 1454.1 M1391.96 1450.39 Q1397.77 1450.39 1400.83 1455 Q1403.91 1459.58 1403.91 1468.33 Q1403.91 1477.06 1400.83 1481.67 Q1397.77 1486.25 1391.96 1486.25 Q1386.15 1486.25 1383.07 1481.67 Q1380.02 1477.06 1380.02 1468.33 Q1380.02 1459.58 1383.07 1455 Q1386.15 1450.39 1391.96 1450.39 Z" fill="#000000" fill-rule="nonzero" fill-opacity="1" /><path clip-path="url(#clip570)" d="M1412.93 1481.64 L1420.57 1481.64 L1420.57 1455.28 L1412.26 1456.95 L1412.26 1452.69 L1420.53 1451.02 L1425.2 1451.02 L1425.2 1481.64 L1432.84 1481.64 L1432.84 1485.58 L1412.93 1485.58 L1412.93 1481.64 Z" fill="#000000" fill-rule="nonzero" fill-opacity="1" /><path clip-path="url(#clip570)" d="M1697.77 1481.64 L1714.09 1481.64 L1714.09 1485.58 L1692.15 1485.58 L1692.15 1481.64 Q1694.81 1478.89 1699.39 1474.26 Q1704 1469.61 1705.18 1468.27 Q1707.42 1465.74 1708.3 1464.01 Q1709.21 1462.25 1709.21 1460.56 Q1709.21 1457.8 1707.26 1456.07 Q1705.34 1454.33 1702.24 1454.33 Q1700.04 1454.33 1697.59 1455.09 Q1695.16 1455.86 1692.38 1457.41 L1692.38 1452.69 Q1695.2 1451.55 1697.66 1450.97 Q1700.11 1450.39 1702.15 1450.39 Q1707.52 1450.39 1710.71 1453.08 Q1713.91 1455.77 1713.91 1460.26 Q1713.91 1462.39 1713.09 1464.31 Q1712.31 1466.2 1710.2 1468.8 Q1709.62 1469.47 1706.52 1472.69 Q1703.42 1475.88 1697.77 1481.64 Z" fill="#000000" fill-rule="nonzero" fill-opacity="1" /><path clip-path="url(#clip570)" d="M1733.9 1454.1 Q1730.29 1454.1 1728.47 1457.66 Q1726.66 1461.2 1726.66 1468.33 Q1726.66 1475.44 1728.47 1479.01 Q1730.29 1482.55 1733.9 1482.55 Q1737.54 1482.55 1739.34 1479.01 Q1741.17 1475.44 1741.17 1468.33 Q1741.17 1461.2 1739.34 1457.66 Q1737.54 1454.1 1733.9 1454.1 M1733.9 1450.39 Q1739.72 1450.39 1742.77 1455 Q1745.85 1459.58 1745.85 1468.33 Q1745.85 1477.06 1742.77 1481.67 Q1739.72 1486.25 1733.9 1486.25 Q1728.09 1486.25 1725.02 1481.67 Q1721.96 1477.06 1721.96 1468.33 Q1721.96 1459.58 1725.02 1455 Q1728.09 1450.39 1733.9 1450.39 Z" fill="#000000" fill-rule="nonzero" fill-opacity="1" /><path clip-path="url(#clip570)" d="M1758.09 1481.64 L1774.41 1481.64 L1774.41 1485.58 L1752.47 1485.58 L1752.47 1481.64 Q1755.13 1478.89 1759.71 1474.26 Q1764.32 1469.61 1765.5 1468.27 Q1767.75 1465.74 1768.63 1464.01 Q1769.53 1462.25 1769.53 1460.56 Q1769.53 1457.8 1767.59 1456.07 Q1765.66 1454.33 1762.56 1454.33 Q1760.36 1454.33 1757.91 1455.09 Q1755.48 1455.86 1752.7 1457.41 L1752.7 1452.69 Q1755.53 1451.55 1757.98 1450.97 Q1760.43 1450.39 1762.47 1450.39 Q1767.84 1450.39 1771.03 1453.08 Q1774.23 1455.77 1774.23 1460.26 Q1774.23 1462.39 1773.42 1464.31 Q1772.63 1466.2 1770.53 1468.8 Q1769.95 1469.47 1766.84 1472.69 Q1763.74 1475.88 1758.09 1481.64 Z" fill="#000000" fill-rule="nonzero" fill-opacity="1" /><path clip-path="url(#clip570)" d="M1785.04 1481.64 L1792.68 1481.64 L1792.68 1455.28 L1784.37 1456.95 L1784.37 1452.69 L1792.63 1451.02 L1797.31 1451.02 L1797.31 1481.64 L1804.95 1481.64 L1804.95 1485.58 L1785.04 1485.58 L1785.04 1481.64 Z" fill="#000000" fill-rule="nonzero" fill-opacity="1" /><path clip-path="url(#clip570)" d="M1811.64 1470.7 L1824.11 1470.7 L1824.11 1474.49 L1811.64 1474.49 L1811.64 1470.7 Z" fill="#000000" fill-rule="nonzero" fill-opacity="1" /><path clip-path="url(#clip570)" d="M1832.31 1481.64 L1839.95 1481.64 L1839.95 1455.28 L1831.64 1456.95 L1831.64 1452.69 L1839.9 1451.02 L1844.58 1451.02 L1844.58 1481.64 L1852.21 1481.64 L1852.21 1485.58 L1832.31 1485.58 L1832.31 1481.64 Z" fill="#000000" fill-rule="nonzero" fill-opacity="1" /><path clip-path="url(#clip570)" d="M1871.66 1454.1 Q1868.05 1454.1 1866.22 1457.66 Q1864.41 1461.2 1864.41 1468.33 Q1864.41 1475.44 1866.22 1479.01 Q1868.05 1482.55 1871.66 1482.55 Q1875.29 1482.55 1877.1 1479.01 Q1878.93 1475.44 1878.93 1468.33 Q1878.93 1461.2 1877.1 1457.66 Q1875.29 1454.1 1871.66 1454.1 M1871.66 1450.39 Q1877.47 1450.39 1880.52 1455 Q1883.6 1459.58 1883.6 1468.33 Q1883.6 1477.06 1880.52 1481.67 Q1877.47 1486.25 1871.66 1486.25 Q1865.85 1486.25 1862.77 1481.67 Q1859.71 1477.06 1859.71 1468.33 Q1859.71 1459.58 1862.77 1455 Q1865.85 1450.39 1871.66 1450.39 Z" fill="#000000" fill-rule="nonzero" fill-opacity="1" /><path clip-path="url(#clip570)" d="M1889.07 1470.7 L1901.54 1470.7 L1901.54 1474.49 L1889.07 1474.49 L1889.07 1470.7 Z" fill="#000000" fill-rule="nonzero" fill-opacity="1" /><path clip-path="url(#clip570)" d="M1918.93 1454.1 Q1915.32 1454.1 1913.49 1457.66 Q1911.68 1461.2 1911.68 1468.33 Q1911.68 1475.44 1913.49 1479.01 Q1915.32 1482.55 1918.93 1482.55 Q1922.56 1482.55 1924.37 1479.01 Q1926.2 1475.44 1926.2 1468.33 Q1926.2 1461.2 1924.37 1457.66 Q1922.56 1454.1 1918.93 1454.1 M1918.93 1450.39 Q1924.74 1450.39 1927.79 1455 Q1930.87 1459.58 1930.87 1468.33 Q1930.87 1477.06 1927.79 1481.67 Q1924.74 1486.25 1918.93 1486.25 Q1913.12 1486.25 1910.04 1481.67 Q1906.98 1477.06 1906.98 1468.33 Q1906.98 1459.58 1910.04 1455 Q1913.12 1450.39 1918.93 1450.39 Z" fill="#000000" fill-rule="nonzero" fill-opacity="1" /><path clip-path="url(#clip570)" d="M1939.9 1481.64 L1947.54 1481.64 L1947.54 1455.28 L1939.23 1456.95 L1939.23 1452.69 L1947.49 1451.02 L1952.17 1451.02 L1952.17 1481.64 L1959.81 1481.64 L1959.81 1485.58 L1939.9 1485.58 L1939.9 1481.64 Z" fill="#000000" fill-rule="nonzero" fill-opacity="1" /><path clip-path="url(#clip570)" d="M1243.24 1537.81 L1243.24 1518.52 L1249.1 1518.52 L1249.1 1568.04 L1243.24 1568.04 L1243.24 1562.7 Q1241.4 1565.88 1238.56 1567.44 Q1235.76 1568.97 1231.81 1568.97 Q1225.35 1568.97 1221.28 1563.81 Q1217.24 1558.65 1217.24 1550.25 Q1217.24 1541.85 1221.28 1536.69 Q1225.35 1531.54 1231.81 1531.54 Q1235.76 1531.54 1238.56 1533.1 Q1241.4 1534.62 1243.24 1537.81 M1223.28 1550.25 Q1223.28 1556.71 1225.93 1560.4 Q1228.6 1564.07 1233.25 1564.07 Q1237.89 1564.07 1240.57 1560.4 Q1243.24 1556.71 1243.24 1550.25 Q1243.24 1543.79 1240.57 1540.13 Q1237.89 1536.44 1233.25 1536.44 Q1228.6 1536.44 1225.93 1540.13 Q1223.28 1543.79 1223.28 1550.25 Z" fill="#000000" fill-rule="nonzero" fill-opacity="1" /><path clip-path="url(#clip570)" d="M1277.36 1550.12 Q1270.26 1550.12 1267.53 1551.75 Q1264.79 1553.37 1264.79 1557.29 Q1264.79 1560.4 1266.83 1562.25 Q1268.9 1564.07 1272.43 1564.07 Q1277.3 1564.07 1280.23 1560.63 Q1283.19 1557.16 1283.19 1551.43 L1283.19 1550.12 L1277.36 1550.12 M1289.04 1547.71 L1289.04 1568.04 L1283.19 1568.04 L1283.19 1562.63 Q1281.18 1565.88 1278.19 1567.44 Q1275.2 1568.97 1270.87 1568.97 Q1265.39 1568.97 1262.15 1565.91 Q1258.93 1562.82 1258.93 1557.67 Q1258.93 1551.65 1262.94 1548.6 Q1266.99 1545.54 1274.97 1545.54 L1283.19 1545.54 L1283.19 1544.97 Q1283.19 1540.93 1280.51 1538.73 Q1277.87 1536.5 1273.06 1536.5 Q1270.01 1536.5 1267.11 1537.23 Q1264.22 1537.97 1261.54 1539.43 L1261.54 1534.02 Q1264.76 1532.78 1267.78 1532.17 Q1270.8 1531.54 1273.67 1531.54 Q1281.4 1531.54 1285.22 1535.55 Q1289.04 1539.56 1289.04 1547.71 Z" fill="#000000" fill-rule="nonzero" fill-opacity="1" /><path clip-path="url(#clip570)" d="M1306.9 1522.27 L1306.9 1532.4 L1318.96 1532.4 L1318.96 1536.95 L1306.9 1536.95 L1306.9 1556.3 Q1306.9 1560.66 1308.08 1561.9 Q1309.29 1563.14 1312.95 1563.14 L1318.96 1563.14 L1318.96 1568.04 L1312.95 1568.04 Q1306.17 1568.04 1303.59 1565.53 Q1301.01 1562.98 1301.01 1556.3 L1301.01 1536.95 L1296.71 1536.95 L1296.71 1532.4 L1301.01 1532.4 L1301.01 1522.27 L1306.9 1522.27 Z" fill="#000000" fill-rule="nonzero" fill-opacity="1" /><path clip-path="url(#clip570)" d="M1357.16 1548.76 L1357.16 1551.62 L1330.23 1551.62 Q1330.61 1557.67 1333.86 1560.85 Q1337.14 1564 1342.96 1564 Q1346.33 1564 1349.48 1563.17 Q1352.67 1562.35 1355.79 1560.69 L1355.79 1566.23 Q1352.64 1567.57 1349.33 1568.27 Q1346.02 1568.97 1342.61 1568.97 Q1334.08 1568.97 1329.08 1564 Q1324.12 1559.04 1324.12 1550.57 Q1324.12 1541.82 1328.83 1536.69 Q1333.57 1531.54 1341.59 1531.54 Q1348.78 1531.54 1352.95 1536.18 Q1357.16 1540.8 1357.16 1548.76 M1351.3 1547.04 Q1351.24 1542.23 1348.59 1539.37 Q1345.98 1536.5 1341.66 1536.5 Q1336.75 1536.5 1333.79 1539.27 Q1330.87 1542.04 1330.42 1547.07 L1351.3 1547.04 Z" fill="#000000" fill-rule="nonzero" fill-opacity="1" /><polyline clip-path="url(#clip572)" style="stroke:#000000; stroke-linecap:round; stroke-linejoin:round; stroke-width:2; stroke-opacity:0.1; fill:none" points="221.637,1384.24 2352.76,1384.24 "/>
<polyline clip-path="url(#clip572)" style="stroke:#000000; stroke-linecap:round; stroke-linejoin:round; stroke-width:2; stroke-opacity:0.1; fill:none" points="221.637,868.006 2352.76,868.006 "/>
<polyline clip-path="url(#clip572)" style="stroke:#000000; stroke-linecap:round; stroke-linejoin:round; stroke-width:2; stroke-opacity:0.1; fill:none" points="221.637,351.773 2352.76,351.773 "/>
<polyline clip-path="url(#clip572)" style="stroke:#000000; stroke-linecap:round; stroke-linejoin:round; stroke-width:2; stroke-opacity:0.05; fill:none" points="221.637,1407.86 2352.76,1407.86 "/>
<polyline clip-path="url(#clip572)" style="stroke:#000000; stroke-linecap:round; stroke-linejoin:round; stroke-width:2; stroke-opacity:0.05; fill:none" points="221.637,1228.84 2352.76,1228.84 "/>
<polyline clip-path="url(#clip572)" style="stroke:#000000; stroke-linecap:round; stroke-linejoin:round; stroke-width:2; stroke-opacity:0.05; fill:none" points="221.637,1137.93 2352.76,1137.93 "/>
<polyline clip-path="url(#clip572)" style="stroke:#000000; stroke-linecap:round; stroke-linejoin:round; stroke-width:2; stroke-opacity:0.05; fill:none" points="221.637,1073.44 2352.76,1073.44 "/>
<polyline clip-path="url(#clip572)" style="stroke:#000000; stroke-linecap:round; stroke-linejoin:round; stroke-width:2; stroke-opacity:0.05; fill:none" points="221.637,1023.41 2352.76,1023.41 "/>
<polyline clip-path="url(#clip572)" style="stroke:#000000; stroke-linecap:round; stroke-linejoin:round; stroke-width:2; stroke-opacity:0.05; fill:none" points="221.637,982.531 2352.76,982.531 "/>
<polyline clip-path="url(#clip572)" style="stroke:#000000; stroke-linecap:round; stroke-linejoin:round; stroke-width:2; stroke-opacity:0.05; fill:none" points="221.637,947.971 2352.76,947.971 "/>
<polyline clip-path="url(#clip572)" style="stroke:#000000; stroke-linecap:round; stroke-linejoin:round; stroke-width:2; stroke-opacity:0.05; fill:none" points="221.637,918.034 2352.76,918.034 "/>
<polyline clip-path="url(#clip572)" style="stroke:#000000; stroke-linecap:round; stroke-linejoin:round; stroke-width:2; stroke-opacity:0.05; fill:none" points="221.637,891.627 2352.76,891.627 "/>
<polyline clip-path="url(#clip572)" style="stroke:#000000; stroke-linecap:round; stroke-linejoin:round; stroke-width:2; stroke-opacity:0.05; fill:none" points="221.637,712.604 2352.76,712.604 "/>
<polyline clip-path="url(#clip572)" style="stroke:#000000; stroke-linecap:round; stroke-linejoin:round; stroke-width:2; stroke-opacity:0.05; fill:none" points="221.637,621.7 2352.76,621.7 "/>
<polyline clip-path="url(#clip572)" style="stroke:#000000; stroke-linecap:round; stroke-linejoin:round; stroke-width:2; stroke-opacity:0.05; fill:none" points="221.637,557.202 2352.76,557.202 "/>
<polyline clip-path="url(#clip572)" style="stroke:#000000; stroke-linecap:round; stroke-linejoin:round; stroke-width:2; stroke-opacity:0.05; fill:none" points="221.637,507.174 2352.76,507.174 "/>
<polyline clip-path="url(#clip572)" style="stroke:#000000; stroke-linecap:round; stroke-linejoin:round; stroke-width:2; stroke-opacity:0.05; fill:none" points="221.637,466.298 2352.76,466.298 "/>
<polyline clip-path="url(#clip572)" style="stroke:#000000; stroke-linecap:round; stroke-linejoin:round; stroke-width:2; stroke-opacity:0.05; fill:none" points="221.637,431.738 2352.76,431.738 "/>
<polyline clip-path="url(#clip572)" style="stroke:#000000; stroke-linecap:round; stroke-linejoin:round; stroke-width:2; stroke-opacity:0.05; fill:none" points="221.637,401.801 2352.76,401.801 "/>
<polyline clip-path="url(#clip572)" style="stroke:#000000; stroke-linecap:round; stroke-linejoin:round; stroke-width:2; stroke-opacity:0.05; fill:none" points="221.637,375.394 2352.76,375.394 "/>
<polyline clip-path="url(#clip572)" style="stroke:#000000; stroke-linecap:round; stroke-linejoin:round; stroke-width:2; stroke-opacity:0.05; fill:none" points="221.637,196.371 2352.76,196.371 "/>
<polyline clip-path="url(#clip572)" style="stroke:#000000; stroke-linecap:round; stroke-linejoin:round; stroke-width:2; stroke-opacity:0.05; fill:none" points="221.637,105.467 2352.76,105.467 "/>
<polyline clip-path="url(#clip570)" style="stroke:#000000; stroke-linecap:round; stroke-linejoin:round; stroke-width:4; stroke-opacity:1; fill:none" points="221.637,1423.18 221.637,47.2441 "/>
<polyline clip-path="url(#clip570)" style="stroke:#000000; stroke-linecap:round; stroke-linejoin:round; stroke-width:4; stroke-opacity:1; fill:none" points="221.637,1384.24 240.535,1384.24 "/>
<polyline clip-path="url(#clip570)" style="stroke:#000000; stroke-linecap:round; stroke-linejoin:round; stroke-width:4; stroke-opacity:1; fill:none" points="221.637,868.006 240.535,868.006 "/>
<polyline clip-path="url(#clip570)" style="stroke:#000000; stroke-linecap:round; stroke-linejoin:round; stroke-width:4; stroke-opacity:1; fill:none" points="221.637,351.773 240.535,351.773 "/>
<polyline clip-path="url(#clip570)" style="stroke:#000000; stroke-linecap:round; stroke-linejoin:round; stroke-width:4; stroke-opacity:1; fill:none" points="221.637,1407.86 231.086,1407.86 "/>
<polyline clip-path="url(#clip570)" style="stroke:#000000; stroke-linecap:round; stroke-linejoin:round; stroke-width:4; stroke-opacity:1; fill:none" points="221.637,1228.84 231.086,1228.84 "/>
<polyline clip-path="url(#clip570)" style="stroke:#000000; stroke-linecap:round; stroke-linejoin:round; stroke-width:4; stroke-opacity:1; fill:none" points="221.637,1137.93 231.086,1137.93 "/>
<polyline clip-path="url(#clip570)" style="stroke:#000000; stroke-linecap:round; stroke-linejoin:round; stroke-width:4; stroke-opacity:1; fill:none" points="221.637,1073.44 231.086,1073.44 "/>
<polyline clip-path="url(#clip570)" style="stroke:#000000; stroke-linecap:round; stroke-linejoin:round; stroke-width:4; stroke-opacity:1; fill:none" points="221.637,1023.41 231.086,1023.41 "/>
<polyline clip-path="url(#clip570)" style="stroke:#000000; stroke-linecap:round; stroke-linejoin:round; stroke-width:4; stroke-opacity:1; fill:none" points="221.637,982.531 231.086,982.531 "/>
<polyline clip-path="url(#clip570)" style="stroke:#000000; stroke-linecap:round; stroke-linejoin:round; stroke-width:4; stroke-opacity:1; fill:none" points="221.637,947.971 231.086,947.971 "/>
<polyline clip-path="url(#clip570)" style="stroke:#000000; stroke-linecap:round; stroke-linejoin:round; stroke-width:4; stroke-opacity:1; fill:none" points="221.637,918.034 231.086,918.034 "/>
<polyline clip-path="url(#clip570)" style="stroke:#000000; stroke-linecap:round; stroke-linejoin:round; stroke-width:4; stroke-opacity:1; fill:none" points="221.637,891.627 231.086,891.627 "/>
<polyline clip-path="url(#clip570)" style="stroke:#000000; stroke-linecap:round; stroke-linejoin:round; stroke-width:4; stroke-opacity:1; fill:none" points="221.637,712.604 231.086,712.604 "/>
<polyline clip-path="url(#clip570)" style="stroke:#000000; stroke-linecap:round; stroke-linejoin:round; stroke-width:4; stroke-opacity:1; fill:none" points="221.637,621.7 231.086,621.7 "/>
<polyline clip-path="url(#clip570)" style="stroke:#000000; stroke-linecap:round; stroke-linejoin:round; stroke-width:4; stroke-opacity:1; fill:none" points="221.637,557.202 231.086,557.202 "/>
<polyline clip-path="url(#clip570)" style="stroke:#000000; stroke-linecap:round; stroke-linejoin:round; stroke-width:4; stroke-opacity:1; fill:none" points="221.637,507.174 231.086,507.174 "/>
<polyline clip-path="url(#clip570)" style="stroke:#000000; stroke-linecap:round; stroke-linejoin:round; stroke-width:4; stroke-opacity:1; fill:none" points="221.637,466.298 231.086,466.298 "/>
<polyline clip-path="url(#clip570)" style="stroke:#000000; stroke-linecap:round; stroke-linejoin:round; stroke-width:4; stroke-opacity:1; fill:none" points="221.637,431.738 231.086,431.738 "/>
<polyline clip-path="url(#clip570)" style="stroke:#000000; stroke-linecap:round; stroke-linejoin:round; stroke-width:4; stroke-opacity:1; fill:none" points="221.637,401.801 231.086,401.801 "/>
<polyline clip-path="url(#clip570)" style="stroke:#000000; stroke-linecap:round; stroke-linejoin:round; stroke-width:4; stroke-opacity:1; fill:none" points="221.637,375.394 231.086,375.394 "/>
<polyline clip-path="url(#clip570)" style="stroke:#000000; stroke-linecap:round; stroke-linejoin:round; stroke-width:4; stroke-opacity:1; fill:none" points="221.637,196.371 231.086,196.371 "/>
<polyline clip-path="url(#clip570)" style="stroke:#000000; stroke-linecap:round; stroke-linejoin:round; stroke-width:4; stroke-opacity:1; fill:none" points="221.637,105.467 231.086,105.467 "/>
<path clip-path="url(#clip570)" d="M114.931 1404.03 L122.57 1404.03 L122.57 1377.67 L114.26 1379.33 L114.26 1375.07 L122.524 1373.41 L127.2 1373.41 L127.2 1404.03 L134.839 1404.03 L134.839 1407.97 L114.931 1407.97 L114.931 1404.03 Z" fill="#000000" fill-rule="nonzero" fill-opacity="1" /><path clip-path="url(#clip570)" d="M154.283 1376.48 Q150.672 1376.48 148.843 1380.05 Q147.038 1383.59 147.038 1390.72 Q147.038 1397.83 148.843 1401.39 Q150.672 1404.93 154.283 1404.93 Q157.917 1404.93 159.723 1401.39 Q161.552 1397.83 161.552 1390.72 Q161.552 1383.59 159.723 1380.05 Q157.917 1376.48 154.283 1376.48 M154.283 1372.78 Q160.093 1372.78 163.149 1377.39 Q166.227 1381.97 166.227 1390.72 Q166.227 1399.45 163.149 1404.05 Q160.093 1408.64 154.283 1408.64 Q148.473 1408.64 145.394 1404.05 Q142.339 1399.45 142.339 1390.72 Q142.339 1381.97 145.394 1377.39 Q148.473 1372.78 154.283 1372.78 Z" fill="#000000" fill-rule="nonzero" fill-opacity="1" /><path clip-path="url(#clip570)" d="M175.932 1354.98 Q172.998 1354.98 171.512 1357.87 Q170.045 1360.75 170.045 1366.54 Q170.045 1372.32 171.512 1375.21 Q172.998 1378.09 175.932 1378.09 Q178.885 1378.09 180.352 1375.21 Q181.838 1372.32 181.838 1366.54 Q181.838 1360.75 180.352 1357.87 Q178.885 1354.98 175.932 1354.98 M175.932 1351.97 Q180.653 1351.97 183.136 1355.71 Q185.637 1359.43 185.637 1366.54 Q185.637 1373.63 183.136 1377.38 Q180.653 1381.1 175.932 1381.1 Q171.212 1381.1 168.71 1377.38 Q166.227 1373.63 166.227 1366.54 Q166.227 1359.43 168.71 1355.71 Q171.212 1351.97 175.932 1351.97 Z" fill="#000000" fill-rule="nonzero" fill-opacity="1" /><path clip-path="url(#clip570)" d="M117.621 887.798 L125.26 887.798 L125.26 861.432 L116.95 863.099 L116.95 858.84 L125.214 857.173 L129.889 857.173 L129.889 887.798 L137.528 887.798 L137.528 891.733 L117.621 891.733 L117.621 887.798 Z" fill="#000000" fill-rule="nonzero" fill-opacity="1" /><path clip-path="url(#clip570)" d="M156.973 860.252 Q153.362 860.252 151.533 863.817 Q149.727 867.358 149.727 874.488 Q149.727 881.594 151.533 885.159 Q153.362 888.701 156.973 888.701 Q160.607 888.701 162.412 885.159 Q164.241 881.594 164.241 874.488 Q164.241 867.358 162.412 863.817 Q160.607 860.252 156.973 860.252 M156.973 856.548 Q162.783 856.548 165.838 861.155 Q168.917 865.738 168.917 874.488 Q168.917 883.215 165.838 887.821 Q162.783 892.404 156.973 892.404 Q151.162 892.404 148.084 887.821 Q145.028 883.215 145.028 874.488 Q145.028 865.738 148.084 861.155 Q151.162 856.548 156.973 856.548 Z" fill="#000000" fill-rule="nonzero" fill-opacity="1" /><path clip-path="url(#clip570)" d="M169.462 861.125 L175.669 861.125 L175.669 839.703 L168.917 841.058 L168.917 837.597 L175.631 836.243 L179.431 836.243 L179.431 861.125 L185.637 861.125 L185.637 864.323 L169.462 864.323 L169.462 861.125 Z" fill="#000000" fill-rule="nonzero" fill-opacity="1" /><path clip-path="url(#clip570)" d="M116.511 371.565 L124.15 371.565 L124.15 345.2 L115.84 346.866 L115.84 342.607 L124.104 340.94 L128.78 340.94 L128.78 371.565 L136.419 371.565 L136.419 375.5 L116.511 375.5 L116.511 371.565 Z" fill="#000000" fill-rule="nonzero" fill-opacity="1" /><path clip-path="url(#clip570)" d="M155.863 344.019 Q152.252 344.019 150.423 347.584 Q148.618 351.126 148.618 358.255 Q148.618 365.362 150.423 368.926 Q152.252 372.468 155.863 372.468 Q159.497 372.468 161.303 368.926 Q163.131 365.362 163.131 358.255 Q163.131 351.126 161.303 347.584 Q159.497 344.019 155.863 344.019 M155.863 340.315 Q161.673 340.315 164.729 344.922 Q167.807 349.505 167.807 358.255 Q167.807 366.982 164.729 371.588 Q161.673 376.172 155.863 376.172 Q150.053 376.172 146.974 371.588 Q143.919 366.982 143.919 358.255 Q143.919 349.505 146.974 344.922 Q150.053 340.315 155.863 340.315 Z" fill="#000000" fill-rule="nonzero" fill-opacity="1" /><path clip-path="url(#clip570)" d="M172.378 344.893 L185.637 344.893 L185.637 348.09 L167.807 348.09 L167.807 344.893 Q169.97 342.655 173.694 338.893 Q177.437 335.113 178.396 334.022 Q180.22 331.972 180.935 330.561 Q181.669 329.132 181.669 327.759 Q181.669 325.521 180.089 324.11 Q178.528 322.7 176.008 322.7 Q174.221 322.7 172.227 323.32 Q170.252 323.941 167.995 325.201 L167.995 321.364 Q170.29 320.443 172.284 319.972 Q174.277 319.502 175.932 319.502 Q180.296 319.502 182.891 321.684 Q185.487 323.866 185.487 327.514 Q185.487 329.245 184.828 330.806 Q184.189 332.348 182.477 334.454 Q182.007 335 179.487 337.614 Q176.967 340.21 172.378 344.893 Z" fill="#000000" fill-rule="nonzero" fill-opacity="1" /><path clip-path="url(#clip570)" d="M46.0847 888.244 Q46.0847 895.341 47.7079 898.079 Q49.3312 900.816 53.2461 900.816 Q56.3653 900.816 58.2114 898.779 Q60.0256 896.71 60.0256 893.177 Q60.0256 888.307 56.5881 885.379 Q53.1188 882.419 47.3897 882.419 L46.0847 882.419 L46.0847 888.244 M43.6657 876.562 L64.0042 876.562 L64.0042 882.419 L58.5933 882.419 Q61.8398 884.424 63.3994 887.416 Q64.9272 890.408 64.9272 894.737 Q64.9272 900.211 61.8716 903.458 Q58.7843 906.672 53.6281 906.672 Q47.6125 906.672 44.5569 902.662 Q41.5014 898.62 41.5014 890.631 L41.5014 882.419 L40.9285 882.419 Q36.8862 882.419 34.6901 885.093 Q32.4621 887.734 32.4621 892.54 Q32.4621 895.596 33.1941 898.492 Q33.9262 901.389 35.3903 904.062 L29.9795 904.062 Q28.7381 900.848 28.1334 897.824 Q27.4968 894.8 27.4968 891.936 Q27.4968 884.201 31.5072 880.382 Q35.5176 876.562 43.6657 876.562 Z" fill="#000000" fill-rule="nonzero" fill-opacity="1" /><path clip-path="url(#clip570)" d="M29.7248 838.846 L35.1993 838.846 Q33.8307 841.328 33.1623 843.843 Q32.4621 846.325 32.4621 848.872 Q32.4621 854.569 36.0905 857.72 Q39.6872 860.871 46.212 860.871 Q52.7369 860.871 56.3653 857.72 Q59.9619 854.569 59.9619 848.872 Q59.9619 846.325 59.2935 843.843 Q58.5933 841.328 57.2247 838.846 L62.6355 838.846 Q63.7814 841.296 64.3543 843.938 Q64.9272 846.548 64.9272 849.508 Q64.9272 857.561 59.8664 862.303 Q54.8057 867.046 46.212 867.046 Q37.491 867.046 32.4939 862.271 Q27.4968 857.465 27.4968 849.126 Q27.4968 846.421 28.0697 843.843 Q28.6108 841.265 29.7248 838.846 Z" fill="#000000" fill-rule="nonzero" fill-opacity="1" /><path clip-path="url(#clip570)" d="M29.7248 803.007 L35.1993 803.007 Q33.8307 805.489 33.1623 808.004 Q32.4621 810.486 32.4621 813.033 Q32.4621 818.73 36.0905 821.881 Q39.6872 825.032 46.212 825.032 Q52.7369 825.032 56.3653 821.881 Q59.9619 818.73 59.9619 813.033 Q59.9619 810.486 59.2935 808.004 Q58.5933 805.489 57.2247 803.007 L62.6355 803.007 Q63.7814 805.458 64.3543 808.099 Q64.9272 810.709 64.9272 813.669 Q64.9272 821.722 59.8664 826.464 Q54.8057 831.207 46.212 831.207 Q37.491 831.207 32.4939 826.433 Q27.4968 821.626 27.4968 813.287 Q27.4968 810.582 28.0697 808.004 Q28.6108 805.426 29.7248 803.007 Z" fill="#000000" fill-rule="nonzero" fill-opacity="1" /><path clip-path="url(#clip570)" d="M55.9197 791.994 L55.9197 785.278 L64.0042 785.278 L64.0042 791.994 L55.9197 791.994 Z" fill="#000000" fill-rule="nonzero" fill-opacity="1" /><path clip-path="url(#clip570)" d="M33.8307 730.724 Q33.2578 731.711 33.0032 732.888 Q32.7167 734.034 32.7167 735.435 Q32.7167 740.4 35.9632 743.074 Q39.1779 745.715 45.2253 745.715 L64.0042 745.715 L64.0042 751.604 L28.3562 751.604 L28.3562 745.715 L33.8944 745.715 Q30.6479 743.869 29.0883 740.909 Q27.4968 737.949 27.4968 733.716 Q27.4968 733.111 27.5923 732.379 Q27.656 731.647 27.8151 730.756 L33.8307 730.724 Z" fill="#000000" fill-rule="nonzero" fill-opacity="1" /><path clip-path="url(#clip570)" d="M44.7161 695.522 L47.5806 695.522 L47.5806 722.449 Q53.6281 722.067 56.8109 718.82 Q59.9619 715.542 59.9619 709.717 Q59.9619 706.343 59.1344 703.192 Q58.3069 700.01 56.6518 696.89 L62.1899 696.89 Q63.5267 700.041 64.227 703.352 Q64.9272 706.662 64.9272 710.067 Q64.9272 718.597 59.9619 723.595 Q54.9967 728.56 46.5303 728.56 Q37.7774 728.56 32.6531 723.849 Q27.4968 719.107 27.4968 711.086 Q27.4968 703.893 32.1438 699.723 Q36.7589 695.522 44.7161 695.522 M42.9973 701.378 Q38.1912 701.442 35.3266 704.084 Q32.4621 706.694 32.4621 711.022 Q32.4621 715.924 35.2312 718.884 Q38.0002 721.812 43.0292 722.258 L42.9973 701.378 Z" fill="#000000" fill-rule="nonzero" fill-opacity="1" /><path clip-path="url(#clip570)" d="M18.2347 680.117 L28.3562 680.117 L28.3562 668.054 L32.9077 668.054 L32.9077 680.117 L52.2594 680.117 Q56.6199 680.117 57.8613 678.939 Q59.1026 677.73 59.1026 674.069 L59.1026 668.054 L64.0042 668.054 L64.0042 674.069 Q64.0042 680.849 61.4897 683.427 Q58.9434 686.005 52.2594 686.005 L32.9077 686.005 L32.9077 690.302 L28.3562 690.302 L28.3562 686.005 L18.2347 686.005 L18.2347 680.117 Z" fill="#000000" fill-rule="nonzero" fill-opacity="1" /><path clip-path="url(#clip570)" d="M49.9359 660.956 L28.3562 660.956 L28.3562 655.1 L49.7131 655.1 Q54.7739 655.1 57.3202 653.126 Q59.8346 651.153 59.8346 647.206 Q59.8346 642.464 56.8109 639.726 Q53.7872 636.957 48.5673 636.957 L28.3562 636.957 L28.3562 631.101 L64.0042 631.101 L64.0042 636.957 L58.5296 636.957 Q61.7762 639.09 63.3676 641.923 Q64.9272 644.723 64.9272 648.447 Q64.9272 654.59 61.1078 657.773 Q57.2883 660.956 49.9359 660.956 M27.4968 646.219 L27.4968 646.219 Z" fill="#000000" fill-rule="nonzero" fill-opacity="1" /><path clip-path="url(#clip570)" d="M33.8307 598.381 Q33.2578 599.368 33.0032 600.545 Q32.7167 601.691 32.7167 603.092 Q32.7167 608.057 35.9632 610.731 Q39.1779 613.372 45.2253 613.372 L64.0042 613.372 L64.0042 619.261 L28.3562 619.261 L28.3562 613.372 L33.8944 613.372 Q30.6479 611.526 29.0883 608.566 Q27.4968 605.606 27.4968 601.373 Q27.4968 600.768 27.5923 600.036 Q27.656 599.304 27.8151 598.413 L33.8307 598.381 Z" fill="#000000" fill-rule="nonzero" fill-opacity="1" /><path clip-path="url(#clip570)" d="M42.4881 563.752 L64.0042 563.752 L64.0042 569.608 L42.679 569.608 Q37.6183 569.608 35.1038 571.581 Q32.5894 573.555 32.5894 577.502 Q32.5894 582.244 35.6131 584.981 Q38.6368 587.719 43.8567 587.719 L64.0042 587.719 L64.0042 593.607 L28.3562 593.607 L28.3562 587.719 L33.8944 587.719 Q30.6797 585.618 29.0883 582.785 Q27.4968 579.921 27.4968 576.197 Q27.4968 570.054 31.3163 566.903 Q35.1038 563.752 42.4881 563.752 Z" fill="#000000" fill-rule="nonzero" fill-opacity="1" /><polyline clip-path="url(#clip572)" style="stroke:#009af9; stroke-linecap:round; stroke-linejoin:round; stroke-width:12; stroke-opacity:1; fill:none" points="281.952,1384.24 281.952,1384.24 287.68,1384.24 293.408,1384.24 299.135,1384.24 304.863,1384.24 322.047,1384.24 327.775,1384.24 333.503,1384.24 339.231,1384.24 344.959,1384.24 367.87,1384.24 373.598,1384.24 379.326,1384.24 385.054,1347.46 402.237,1296.7 407.965,1261.15 413.693,1261.15 419.421,1261.15 425.149,1261.15 442.333,1261.15 448.061,1261.15 453.788,1261.15 459.516,1261.15 465.244,1261.15 482.428,1261.15 488.156,1261.15 493.884,1261.15 499.612,1261.15 505.339,1261.15 528.251,1261.15 533.979,1254.23 539.707,1251.99 545.435,1251.99 562.618,1251.99 568.346,1251.99 574.074,1207.71 579.802,1164.81 585.53,1164.81 602.714,1164.81 608.442,1164.81 614.169,1156.03 619.897,1146.22 625.625,1128.83 642.809,1123.39 648.537,1123.39 654.265,1123.39 659.993,1123.39 665.72,1090.63 682.665,1075.71 688.393,1075.71 694.121,1075.71 699.849,1075.71 705.577,1075.71 722.761,1075.71 728.489,1078.68 734.216,1071.59 739.944,1068.58 745.672,1068.58 762.856,1068.58 768.584,1068.58 774.312,1068.58 780.04,1068.58 802.951,1068.58 808.679,1068.58 814.407,1068.58 820.135,1068.58 825.863,1068.58 843.046,1068.58 848.774,1068.58 854.502,1068.58 860.23,1068.58 865.958,1068.58 883.142,1068.58 888.869,1068.58 894.597,1054.75 900.325,1048.53 906.053,1044.92 923.237,1018.31 928.965,1010.69 934.693,1010.69 940.42,1010.69 946.148,982.081 963.332,975.674 969.06,975.674 974.788,975.674 980.516,975.674 986.244,957.353 1003.43,948.631 1009.16,945.236 1014.88,943.289 1020.61,895.616 1026.34,881.912 1043.52,869.96 1049.25,860.666 1054.98,860.666 1060.71,860.666 1066.43,860.666 1083.62,860.666 1089.35,823.339 1095.07,784.127 1100.8,715.866 1106.53,670.654 1129.44,670.654 1135.17,670.654 1140.9,666.603 1146.62,661.511 1163.81,661.511 1169.54,661.511 1175.26,647.788 1180.99,636.581 1186.72,632.993 1203.9,632.993 1209.63,632.993 1215.36,632.993 1221.09,632.993 1226.81,627.455 1244,616.961 1249.73,614.15 1255.45,614.15 1261.18,614.15 1266.91,614.15 1284.09,614.15 1289.82,614.15 1295.55,614.15 1301.28,617.484 1307.01,613.145 1329.92,609.878 1335.64,603.068 1341.37,574.829 1347.1,568.899 1364.28,568.899 1370.01,570.841 1375.74,565.519 1381.47,541.867 1387.2,527.349 1404.38,527.349 1410.11,527.349 1415.84,527.349 1421.56,527.349 1427.29,527.349 1444.47,527.349 1450.2,533.577 1455.93,521.33 1461.66,515.961 1467.39,515.961 1484.57,515.961 1490.3,515.961 1496.03,515.961 1501.75,515.961 1507.48,515.961 1524.67,515.961 1530.39,512.408 1536.12,507.15 1541.85,496.658 1547.58,493.935 1564.76,479.544 1570.49,470.495 1576.22,465.092 1581.94,465.092 1587.67,437.221 1604.86,425.971 1610.58,385.35 1616.31,377.838 1622.04,381.865 1627.77,370.304 1644.95,359.3 1650.68,340.986 1656.41,336.526 1662.13,336.526 1667.86,336.526 1690.77,336.526 1696.5,336.771 1702.23,333.843 1707.96,333.843 1725.14,333.843 1730.87,320.008 1736.6,313.507 1742.33,313.507 1748.05,313.507 1765.24,314.807 1770.96,308.645 1776.69,308.645 1782.42,308.645 1788.15,308.363 1805.33,295.931 1811.06,295.11 1816.79,291.605 1822.52,278.593 1828.24,266.45 1845.43,266.45 1851.16,266.45 1856.88,265.462 1862.61,252.466 1868.34,243.333 1885.52,238.952 1891.25,238.952 1896.98,238.952 1902.71,230.342 1908.43,225.19 1925.62,225.19 1931.35,225.19 1937.07,225.19 1942.8,219.951 1948.53,215.188 1965.71,215.188 1971.44,215.188 1977.17,215.188 1982.9,215.188 1988.62,215.188 2005.81,215.188 2011.54,215.188 2017.26,215.188 2022.99,215.188 2028.72,215.188 2046.14,215.188 2051.87,215.188 2057.6,215.188 2063.33,215.188 2069.05,215.188 2086.24,215.188 2091.97,208.489 2097.69,201.386 2103.42,193.438 2109.15,193.438 2126.33,193.438 2132.06,193.438 2137.79,193.438 2149.24,201.665 2166.43,196.886 2172.16,189.977 2177.88,182.6 2183.61,182.6 2189.34,182.6 2206.52,178.488 2212.25,165.564 2217.98,165.564 2223.71,165.564 2229.43,165.95 2246.62,160.661 2252.35,129.324 2258.07,124.603 2263.8,124.603 2269.53,89.3834 2286.71,86.1857 2292.44,86.1857 "/>
<path clip-path="url(#clip570)" d="M292.674 196.789 L887.358 196.789 L887.358 93.1086 L292.674 93.1086  Z" fill="#ffffff" fill-rule="evenodd" fill-opacity="1"/>
<polyline clip-path="url(#clip570)" style="stroke:#000000; stroke-linecap:round; stroke-linejoin:round; stroke-width:4; stroke-opacity:1; fill:none" points="292.674,196.789 887.358,196.789 887.358,93.1086 292.674,93.1086 292.674,196.789 "/>
<polyline clip-path="url(#clip570)" style="stroke:#009af9; stroke-linecap:round; stroke-linejoin:round; stroke-width:12; stroke-opacity:1; fill:none" points="316.353,144.949 458.428,144.949 "/>
<path clip-path="url(#clip570)" d="M482.107 127.669 L489.075 127.669 L497.894 151.187 L506.76 127.669 L513.727 127.669 L513.727 162.229 L509.167 162.229 L509.167 131.882 L500.255 155.585 L495.556 155.585 L486.644 131.882 L486.644 162.229 L482.107 162.229 L482.107 127.669 Z" fill="#000000" fill-rule="nonzero" fill-opacity="1" /><path clip-path="url(#clip570)" d="M531.922 162.229 L518.727 127.669 L523.612 127.669 L534.561 156.766 L545.533 127.669 L550.394 127.669 L537.223 162.229 L531.922 162.229 Z" fill="#000000" fill-rule="nonzero" fill-opacity="1" /><path clip-path="url(#clip570)" d="M550.324 147.344 L562.801 147.344 L562.801 151.141 L550.324 151.141 L550.324 147.344 Z" fill="#000000" fill-rule="nonzero" fill-opacity="1" /><path clip-path="url(#clip570)" d="M569.769 127.669 L576.736 127.669 L585.556 151.187 L594.421 127.669 L601.389 127.669 L601.389 162.229 L596.829 162.229 L596.829 131.882 L587.917 155.585 L583.218 155.585 L574.306 131.882 L574.306 162.229 L569.769 162.229 L569.769 127.669 Z" fill="#000000" fill-rule="nonzero" fill-opacity="1" /><path clip-path="url(#clip570)" d="M615.347 131.511 L615.347 144.497 L621.227 144.497 Q624.491 144.497 626.273 142.807 Q628.055 141.118 628.055 137.993 Q628.055 134.891 626.273 133.201 Q624.491 131.511 621.227 131.511 L615.347 131.511 M610.671 127.669 L621.227 127.669 Q627.037 127.669 630 130.307 Q632.986 132.923 632.986 137.993 Q632.986 143.108 630 145.724 Q627.037 148.34 621.227 148.34 L615.347 148.34 L615.347 162.229 L610.671 162.229 L610.671 127.669 Z" fill="#000000" fill-rule="nonzero" fill-opacity="1" /><path clip-path="url(#clip570)" d="M665.139 130.331 L665.139 135.261 Q662.777 133.062 660.092 131.974 Q657.43 130.886 654.421 130.886 Q648.495 130.886 645.347 134.52 Q642.199 138.132 642.199 144.983 Q642.199 151.812 645.347 155.446 Q648.495 159.057 654.421 159.057 Q657.43 159.057 660.092 157.969 Q662.777 156.881 665.139 154.682 L665.139 159.567 Q662.685 161.233 659.93 162.067 Q657.199 162.9 654.143 162.9 Q646.296 162.9 641.782 158.108 Q637.268 153.293 637.268 144.983 Q637.268 136.65 641.782 131.858 Q646.296 127.044 654.143 127.044 Q657.245 127.044 659.977 127.877 Q662.731 128.687 665.139 130.331 Z" fill="#000000" fill-rule="nonzero" fill-opacity="1" /><path clip-path="url(#clip570)" d="M673.264 156.349 L678.148 156.349 L678.148 162.229 L673.264 162.229 L673.264 156.349 M673.264 137.715 L678.148 137.715 L678.148 143.594 L673.264 143.594 L673.264 137.715 Z" fill="#000000" fill-rule="nonzero" fill-opacity="1" /><path clip-path="url(#clip570)" d="M708.078 131.511 L708.078 144.497 L713.958 144.497 Q717.222 144.497 719.004 142.807 Q720.786 141.118 720.786 137.993 Q720.786 134.891 719.004 133.201 Q717.222 131.511 713.958 131.511 L708.078 131.511 M703.402 127.669 L713.958 127.669 Q719.768 127.669 722.731 130.307 Q725.717 132.923 725.717 137.993 Q725.717 143.108 722.731 145.724 Q719.768 148.34 713.958 148.34 L708.078 148.34 L708.078 162.229 L703.402 162.229 L703.402 127.669 Z" fill="#000000" fill-rule="nonzero" fill-opacity="1" /><path clip-path="url(#clip570)" d="M752.291 148.201 L752.291 150.284 L732.708 150.284 Q732.985 154.682 735.347 156.997 Q737.731 159.289 741.967 159.289 Q744.421 159.289 746.712 158.687 Q749.027 158.085 751.296 156.881 L751.296 160.909 Q749.004 161.881 746.596 162.391 Q744.189 162.9 741.712 162.9 Q735.509 162.9 731.874 159.289 Q728.263 155.678 728.263 149.52 Q728.263 143.155 731.689 139.428 Q735.138 135.678 740.972 135.678 Q746.203 135.678 749.235 139.057 Q752.291 142.414 752.291 148.201 M748.032 146.951 Q747.985 143.456 746.064 141.372 Q744.166 139.289 741.018 139.289 Q737.453 139.289 735.3 141.303 Q733.171 143.317 732.847 146.974 L748.032 146.951 Z" fill="#000000" fill-rule="nonzero" fill-opacity="1" /><path clip-path="url(#clip570)" d="M774.305 140.284 Q773.587 139.868 772.731 139.682 Q771.897 139.474 770.879 139.474 Q767.268 139.474 765.323 141.835 Q763.402 144.173 763.402 148.571 L763.402 162.229 L759.12 162.229 L759.12 136.303 L763.402 136.303 L763.402 140.331 Q764.745 137.969 766.897 136.835 Q769.05 135.678 772.129 135.678 Q772.569 135.678 773.101 135.747 Q773.633 135.794 774.282 135.909 L774.305 140.284 Z" fill="#000000" fill-rule="nonzero" fill-opacity="1" /><path clip-path="url(#clip570)" d="M791.897 126.21 L791.897 129.752 L787.823 129.752 Q785.531 129.752 784.629 130.678 Q783.749 131.604 783.749 134.011 L783.749 136.303 L790.763 136.303 L790.763 139.613 L783.749 139.613 L783.749 162.229 L779.467 162.229 L779.467 139.613 L775.393 139.613 L775.393 136.303 L779.467 136.303 L779.467 134.497 Q779.467 130.169 781.481 128.201 Q783.494 126.21 787.869 126.21 L791.897 126.21 Z" fill="#000000" fill-rule="nonzero" fill-opacity="1" /><path clip-path="url(#clip570)" d="M817.638 148.201 L817.638 150.284 L798.055 150.284 Q798.332 154.682 800.693 156.997 Q803.078 159.289 807.314 159.289 Q809.767 159.289 812.059 158.687 Q814.374 158.085 816.642 156.881 L816.642 160.909 Q814.351 161.881 811.943 162.391 Q809.536 162.9 807.059 162.9 Q800.855 162.9 797.221 159.289 Q793.61 155.678 793.61 149.52 Q793.61 143.155 797.036 139.428 Q800.485 135.678 806.318 135.678 Q811.55 135.678 814.582 139.057 Q817.638 142.414 817.638 148.201 M813.379 146.951 Q813.332 143.456 811.411 141.372 Q809.513 139.289 806.365 139.289 Q802.8 139.289 800.647 141.303 Q798.518 143.317 798.193 146.974 L813.379 146.951 Z" fill="#000000" fill-rule="nonzero" fill-opacity="1" /><path clip-path="url(#clip570)" d="M843.286 137.298 L843.286 141.28 Q841.48 140.284 839.652 139.798 Q837.846 139.289 835.994 139.289 Q831.851 139.289 829.559 141.928 Q827.267 144.544 827.267 149.289 Q827.267 154.034 829.559 156.673 Q831.851 159.289 835.994 159.289 Q837.846 159.289 839.652 158.803 Q841.48 158.293 843.286 157.298 L843.286 161.233 Q841.503 162.067 839.582 162.483 Q837.684 162.9 835.531 162.9 Q829.675 162.9 826.226 159.219 Q822.777 155.539 822.777 149.289 Q822.777 142.946 826.249 139.312 Q829.744 135.678 835.809 135.678 Q837.777 135.678 839.652 136.095 Q841.527 136.488 843.286 137.298 Z" fill="#000000" fill-rule="nonzero" fill-opacity="1" /><path clip-path="url(#clip570)" d="M854.906 128.942 L854.906 136.303 L863.679 136.303 L863.679 139.613 L854.906 139.613 L854.906 153.687 Q854.906 156.858 855.763 157.761 Q856.642 158.664 859.304 158.664 L863.679 158.664 L863.679 162.229 L859.304 162.229 Q854.374 162.229 852.499 160.4 Q850.624 158.548 850.624 153.687 L850.624 139.613 L847.499 139.613 L847.499 136.303 L850.624 136.303 L850.624 128.942 L854.906 128.942 Z" fill="#000000" fill-rule="nonzero" fill-opacity="1" /></svg>
