<?xml version="1.0" encoding="utf-8"?>
<svg xmlns="http://www.w3.org/2000/svg" xmlns:xlink="http://www.w3.org/1999/xlink" width="600" height="400" viewBox="0 0 2400 1600">
<defs>
  <clipPath id="clip350">
    <rect x="0" y="0" width="2400" height="1600"/>
  </clipPath>
</defs>
<path clip-path="url(#clip350)" d="M0 1600 L2400 1600 L2400 0 L0 0  Z" fill="#ffffff" fill-rule="evenodd" fill-opacity="1"/>
<defs>
  <clipPath id="clip351">
    <rect x="480" y="0" width="1681" height="1600"/>
  </clipPath>
</defs>
<path clip-path="url(#clip350)" d="M282.894 1423.18 L2352.76 1423.18 L2352.76 47.2441 L282.894 47.2441  Z" fill="#ffffff" fill-rule="evenodd" fill-opacity="1"/>
<defs>
  <clipPath id="clip352">
    <rect x="282" y="47" width="2071" height="1377"/>
  </clipPath>
</defs>
<polyline clip-path="url(#clip352)" style="stroke:#000000; stroke-linecap:round; stroke-linejoin:round; stroke-width:2; stroke-opacity:0.1; fill:none" points="322.351,1423.18 322.351,47.2441 "/>
<polyline clip-path="url(#clip352)" style="stroke:#000000; stroke-linecap:round; stroke-linejoin:round; stroke-width:2; stroke-opacity:0.1; fill:none" points="823.044,1423.18 823.044,47.2441 "/>
<polyline clip-path="url(#clip352)" style="stroke:#000000; stroke-linecap:round; stroke-linejoin:round; stroke-width:2; stroke-opacity:0.1; fill:none" points="1329.3,1423.18 1329.3,47.2441 "/>
<polyline clip-path="url(#clip352)" style="stroke:#000000; stroke-linecap:round; stroke-linejoin:round; stroke-width:2; stroke-opacity:0.1; fill:none" points="1841.12,1423.18 1841.12,47.2441 "/>
<polyline clip-path="url(#clip352)" style="stroke:#000000; stroke-linecap:round; stroke-linejoin:round; stroke-width:2; stroke-opacity:0.05; fill:none" points="422.49,1423.18 422.49,47.2441 "/>
<polyline clip-path="url(#clip352)" style="stroke:#000000; stroke-linecap:round; stroke-linejoin:round; stroke-width:2; stroke-opacity:0.05; fill:none" points="522.628,1423.18 522.628,47.2441 "/>
<polyline clip-path="url(#clip352)" style="stroke:#000000; stroke-linecap:round; stroke-linejoin:round; stroke-width:2; stroke-opacity:0.05; fill:none" points="622.767,1423.18 622.767,47.2441 "/>
<polyline clip-path="url(#clip352)" style="stroke:#000000; stroke-linecap:round; stroke-linejoin:round; stroke-width:2; stroke-opacity:0.05; fill:none" points="722.905,1423.18 722.905,47.2441 "/>
<polyline clip-path="url(#clip352)" style="stroke:#000000; stroke-linecap:round; stroke-linejoin:round; stroke-width:2; stroke-opacity:0.05; fill:none" points="924.295,1423.18 924.295,47.2441 "/>
<polyline clip-path="url(#clip352)" style="stroke:#000000; stroke-linecap:round; stroke-linejoin:round; stroke-width:2; stroke-opacity:0.05; fill:none" points="1025.55,1423.18 1025.55,47.2441 "/>
<polyline clip-path="url(#clip352)" style="stroke:#000000; stroke-linecap:round; stroke-linejoin:round; stroke-width:2; stroke-opacity:0.05; fill:none" points="1126.8,1423.18 1126.8,47.2441 "/>
<polyline clip-path="url(#clip352)" style="stroke:#000000; stroke-linecap:round; stroke-linejoin:round; stroke-width:2; stroke-opacity:0.05; fill:none" points="1228.05,1423.18 1228.05,47.2441 "/>
<polyline clip-path="url(#clip352)" style="stroke:#000000; stroke-linecap:round; stroke-linejoin:round; stroke-width:2; stroke-opacity:0.05; fill:none" points="1431.66,1423.18 1431.66,47.2441 "/>
<polyline clip-path="url(#clip352)" style="stroke:#000000; stroke-linecap:round; stroke-linejoin:round; stroke-width:2; stroke-opacity:0.05; fill:none" points="1534.03,1423.18 1534.03,47.2441 "/>
<polyline clip-path="url(#clip352)" style="stroke:#000000; stroke-linecap:round; stroke-linejoin:round; stroke-width:2; stroke-opacity:0.05; fill:none" points="1636.39,1423.18 1636.39,47.2441 "/>
<polyline clip-path="url(#clip352)" style="stroke:#000000; stroke-linecap:round; stroke-linejoin:round; stroke-width:2; stroke-opacity:0.05; fill:none" points="1738.75,1423.18 1738.75,47.2441 "/>
<polyline clip-path="url(#clip352)" style="stroke:#000000; stroke-linecap:round; stroke-linejoin:round; stroke-width:2; stroke-opacity:0.05; fill:none" points="1944.62,1423.18 1944.62,47.2441 "/>
<polyline clip-path="url(#clip352)" style="stroke:#000000; stroke-linecap:round; stroke-linejoin:round; stroke-width:2; stroke-opacity:0.05; fill:none" points="2048.12,1423.18 2048.12,47.2441 "/>
<polyline clip-path="url(#clip352)" style="stroke:#000000; stroke-linecap:round; stroke-linejoin:round; stroke-width:2; stroke-opacity:0.05; fill:none" points="2151.62,1423.18 2151.62,47.2441 "/>
<polyline clip-path="url(#clip352)" style="stroke:#000000; stroke-linecap:round; stroke-linejoin:round; stroke-width:2; stroke-opacity:0.05; fill:none" points="2255.12,1423.18 2255.12,47.2441 "/>
<polyline clip-path="url(#clip350)" style="stroke:#000000; stroke-linecap:round; stroke-linejoin:round; stroke-width:4; stroke-opacity:1; fill:none" points="282.894,1423.18 2352.76,1423.18 "/>
<polyline clip-path="url(#clip350)" style="stroke:#000000; stroke-linecap:round; stroke-linejoin:round; stroke-width:4; stroke-opacity:1; fill:none" points="322.351,1423.18 322.351,1404.28 "/>
<polyline clip-path="url(#clip350)" style="stroke:#000000; stroke-linecap:round; stroke-linejoin:round; stroke-width:4; stroke-opacity:1; fill:none" points="823.044,1423.18 823.044,1404.28 "/>
<polyline clip-path="url(#clip350)" style="stroke:#000000; stroke-linecap:round; stroke-linejoin:round; stroke-width:4; stroke-opacity:1; fill:none" points="1329.3,1423.18 1329.3,1404.28 "/>
<polyline clip-path="url(#clip350)" style="stroke:#000000; stroke-linecap:round; stroke-linejoin:round; stroke-width:4; stroke-opacity:1; fill:none" points="1841.12,1423.18 1841.12,1404.28 "/>
<polyline clip-path="url(#clip350)" style="stroke:#000000; stroke-linecap:round; stroke-linejoin:round; stroke-width:4; stroke-opacity:1; fill:none" points="422.49,1423.18 422.49,1413.73 "/>
<polyline clip-path="url(#clip350)" style="stroke:#000000; stroke-linecap:round; stroke-linejoin:round; stroke-width:4; stroke-opacity:1; fill:none" points="522.628,1423.18 522.628,1413.73 "/>
<polyline clip-path="url(#clip350)" style="stroke:#000000; stroke-linecap:round; stroke-linejoin:round; stroke-width:4; stroke-opacity:1; fill:none" points="622.767,1423.18 622.767,1413.73 "/>
<polyline clip-path="url(#clip350)" style="stroke:#000000; stroke-linecap:round; stroke-linejoin:round; stroke-width:4; stroke-opacity:1; fill:none" points="722.905,1423.18 722.905,1413.73 "/>
<polyline clip-path="url(#clip350)" style="stroke:#000000; stroke-linecap:round; stroke-linejoin:round; stroke-width:4; stroke-opacity:1; fill:none" points="924.295,1423.18 924.295,1413.73 "/>
<polyline clip-path="url(#clip350)" style="stroke:#000000; stroke-linecap:round; stroke-linejoin:round; stroke-width:4; stroke-opacity:1; fill:none" points="1025.55,1423.18 1025.55,1413.73 "/>
<polyline clip-path="url(#clip350)" style="stroke:#000000; stroke-linecap:round; stroke-linejoin:round; stroke-width:4; stroke-opacity:1; fill:none" points="1126.8,1423.18 1126.8,1413.73 "/>
<polyline clip-path="url(#clip350)" style="stroke:#000000; stroke-linecap:round; stroke-linejoin:round; stroke-width:4; stroke-opacity:1; fill:none" points="1228.05,1423.18 1228.05,1413.73 "/>
<polyline clip-path="url(#clip350)" style="stroke:#000000; stroke-linecap:round; stroke-linejoin:round; stroke-width:4; stroke-opacity:1; fill:none" points="1431.66,1423.18 1431.66,1413.73 "/>
<polyline clip-path="url(#clip350)" style="stroke:#000000; stroke-linecap:round; stroke-linejoin:round; stroke-width:4; stroke-opacity:1; fill:none" points="1534.03,1423.18 1534.03,1413.73 "/>
<polyline clip-path="url(#clip350)" style="stroke:#000000; stroke-linecap:round; stroke-linejoin:round; stroke-width:4; stroke-opacity:1; fill:none" points="1636.39,1423.18 1636.39,1413.73 "/>
<polyline clip-path="url(#clip350)" style="stroke:#000000; stroke-linecap:round; stroke-linejoin:round; stroke-width:4; stroke-opacity:1; fill:none" points="1738.75,1423.18 1738.75,1413.73 "/>
<polyline clip-path="url(#clip350)" style="stroke:#000000; stroke-linecap:round; stroke-linejoin:round; stroke-width:4; stroke-opacity:1; fill:none" points="1944.62,1423.18 1944.62,1413.73 "/>
<polyline clip-path="url(#clip350)" style="stroke:#000000; stroke-linecap:round; stroke-linejoin:round; stroke-width:4; stroke-opacity:1; fill:none" points="2048.12,1423.18 2048.12,1413.73 "/>
<polyline clip-path="url(#clip350)" style="stroke:#000000; stroke-linecap:round; stroke-linejoin:round; stroke-width:4; stroke-opacity:1; fill:none" points="2151.62,1423.18 2151.62,1413.73 "/>
<polyline clip-path="url(#clip350)" style="stroke:#000000; stroke-linecap:round; stroke-linejoin:round; stroke-width:4; stroke-opacity:1; fill:none" points="2255.12,1423.18 2255.12,1413.73 "/>
<path clip-path="url(#clip350)" d="M194.146 1481.64 L210.465 1481.64 L210.465 1485.58 L188.521 1485.58 L188.521 1481.64 Q191.183 1478.89 195.766 1474.26 Q200.373 1469.61 201.553 1468.27 Q203.799 1465.74 204.678 1464.01 Q205.581 1462.25 205.581 1460.56 Q205.581 1457.8 203.637 1456.07 Q201.715 1454.33 198.614 1454.33 Q196.415 1454.33 193.961 1455.09 Q191.53 1455.86 188.753 1457.41 L188.753 1452.69 Q191.577 1451.55 194.03 1450.97 Q196.484 1450.39 198.521 1450.39 Q203.891 1450.39 207.086 1453.08 Q210.28 1455.77 210.28 1460.26 Q210.28 1462.39 209.47 1464.31 Q208.683 1466.2 206.576 1468.8 Q205.998 1469.47 202.896 1472.69 Q199.794 1475.88 194.146 1481.64 Z" fill="#000000" fill-rule="nonzero" fill-opacity="1" /><path clip-path="url(#clip350)" d="M230.28 1454.1 Q226.669 1454.1 224.84 1457.66 Q223.035 1461.2 223.035 1468.33 Q223.035 1475.44 224.84 1479.01 Q226.669 1482.55 230.28 1482.55 Q233.914 1482.55 235.72 1479.01 Q237.549 1475.44 237.549 1468.33 Q237.549 1461.2 235.72 1457.66 Q233.914 1454.1 230.28 1454.1 M230.28 1450.39 Q236.09 1450.39 239.146 1455 Q242.224 1459.58 242.224 1468.33 Q242.224 1477.06 239.146 1481.67 Q236.09 1486.25 230.28 1486.25 Q224.47 1486.25 221.391 1481.67 Q218.336 1477.06 218.336 1468.33 Q218.336 1459.58 221.391 1455 Q224.47 1450.39 230.28 1450.39 Z" fill="#000000" fill-rule="nonzero" fill-opacity="1" /><path clip-path="url(#clip350)" d="M254.47 1481.64 L270.789 1481.64 L270.789 1485.58 L248.845 1485.58 L248.845 1481.64 Q251.507 1478.89 256.09 1474.26 Q260.697 1469.61 261.877 1468.27 Q264.122 1465.74 265.002 1464.01 Q265.905 1462.25 265.905 1460.56 Q265.905 1457.8 263.96 1456.07 Q262.039 1454.33 258.937 1454.33 Q256.738 1454.33 254.285 1455.09 Q251.854 1455.86 249.076 1457.41 L249.076 1452.69 Q251.9 1451.55 254.354 1450.97 Q256.808 1450.39 258.845 1450.39 Q264.215 1450.39 267.409 1453.08 Q270.604 1455.77 270.604 1460.26 Q270.604 1462.39 269.794 1464.31 Q269.007 1466.2 266.9 1468.8 Q266.322 1469.47 263.22 1472.69 Q260.118 1475.88 254.47 1481.64 Z" fill="#000000" fill-rule="nonzero" fill-opacity="1" /><path clip-path="url(#clip350)" d="M281.414 1481.64 L289.053 1481.64 L289.053 1455.28 L280.743 1456.95 L280.743 1452.69 L289.007 1451.02 L293.683 1451.02 L293.683 1481.64 L301.321 1481.64 L301.321 1485.58 L281.414 1485.58 L281.414 1481.64 Z" fill="#000000" fill-rule="nonzero" fill-opacity="1" /><path clip-path="url(#clip350)" d="M308.011 1470.7 L320.488 1470.7 L320.488 1474.49 L308.011 1474.49 L308.011 1470.7 Z" fill="#000000" fill-rule="nonzero" fill-opacity="1" /><path clip-path="url(#clip350)" d="M337.872 1454.1 Q334.261 1454.1 332.432 1457.66 Q330.627 1461.2 330.627 1468.33 Q330.627 1475.44 332.432 1479.01 Q334.261 1482.55 337.872 1482.55 Q341.506 1482.55 343.312 1479.01 Q345.141 1475.44 345.141 1468.33 Q345.141 1461.2 343.312 1457.66 Q341.506 1454.1 337.872 1454.1 M337.872 1450.39 Q343.682 1450.39 346.738 1455 Q349.816 1459.58 349.816 1468.33 Q349.816 1477.06 346.738 1481.67 Q343.682 1486.25 337.872 1486.25 Q332.062 1486.25 328.983 1481.67 Q325.928 1477.06 325.928 1468.33 Q325.928 1459.58 328.983 1455 Q332.062 1450.39 337.872 1450.39 Z" fill="#000000" fill-rule="nonzero" fill-opacity="1" /><path clip-path="url(#clip350)" d="M358.844 1481.64 L366.483 1481.64 L366.483 1455.28 L358.173 1456.95 L358.173 1452.69 L366.437 1451.02 L371.113 1451.02 L371.113 1481.64 L378.751 1481.64 L378.751 1485.58 L358.844 1485.58 L358.844 1481.64 Z" fill="#000000" fill-rule="nonzero" fill-opacity="1" /><path clip-path="url(#clip350)" d="M385.441 1470.7 L397.918 1470.7 L397.918 1474.49 L385.441 1474.49 L385.441 1470.7 Z" fill="#000000" fill-rule="nonzero" fill-opacity="1" /><path clip-path="url(#clip350)" d="M415.302 1454.1 Q411.691 1454.1 409.862 1457.66 Q408.057 1461.2 408.057 1468.33 Q408.057 1475.44 409.862 1479.01 Q411.691 1482.55 415.302 1482.55 Q418.936 1482.55 420.742 1479.01 Q422.571 1475.44 422.571 1468.33 Q422.571 1461.2 420.742 1457.66 Q418.936 1454.1 415.302 1454.1 M415.302 1450.39 Q421.112 1450.39 424.168 1455 Q427.247 1459.58 427.247 1468.33 Q427.247 1477.06 424.168 1481.67 Q421.112 1486.25 415.302 1486.25 Q409.492 1486.25 406.413 1481.67 Q403.358 1477.06 403.358 1468.33 Q403.358 1459.58 406.413 1455 Q409.492 1450.39 415.302 1450.39 Z" fill="#000000" fill-rule="nonzero" fill-opacity="1" /><path clip-path="url(#clip350)" d="M436.274 1481.64 L443.913 1481.64 L443.913 1455.28 L435.603 1456.95 L435.603 1452.69 L443.867 1451.02 L448.543 1451.02 L448.543 1481.64 L456.182 1481.64 L456.182 1485.58 L436.274 1485.58 L436.274 1481.64 Z" fill="#000000" fill-rule="nonzero" fill-opacity="1" /><path clip-path="url(#clip350)" d="M694.838 1481.64 L711.158 1481.64 L711.158 1485.58 L689.213 1485.58 L689.213 1481.64 Q691.875 1478.89 696.459 1474.26 Q701.065 1469.61 702.246 1468.27 Q704.491 1465.74 705.371 1464.01 Q706.273 1462.25 706.273 1460.56 Q706.273 1457.8 704.329 1456.07 Q702.408 1454.33 699.306 1454.33 Q697.107 1454.33 694.653 1455.09 Q692.223 1455.86 689.445 1457.41 L689.445 1452.69 Q692.269 1451.55 694.723 1450.97 Q697.176 1450.39 699.213 1450.39 Q704.584 1450.39 707.778 1453.08 Q710.972 1455.77 710.972 1460.26 Q710.972 1462.39 710.162 1464.31 Q709.375 1466.2 707.269 1468.8 Q706.69 1469.47 703.588 1472.69 Q700.486 1475.88 694.838 1481.64 Z" fill="#000000" fill-rule="nonzero" fill-opacity="1" /><path clip-path="url(#clip350)" d="M730.972 1454.1 Q727.361 1454.1 725.533 1457.66 Q723.727 1461.2 723.727 1468.33 Q723.727 1475.44 725.533 1479.01 Q727.361 1482.55 730.972 1482.55 Q734.607 1482.55 736.412 1479.01 Q738.241 1475.44 738.241 1468.33 Q738.241 1461.2 736.412 1457.66 Q734.607 1454.1 730.972 1454.1 M730.972 1450.39 Q736.783 1450.39 739.838 1455 Q742.917 1459.58 742.917 1468.33 Q742.917 1477.06 739.838 1481.67 Q736.783 1486.25 730.972 1486.25 Q725.162 1486.25 722.084 1481.67 Q719.028 1477.06 719.028 1468.33 Q719.028 1459.58 722.084 1455 Q725.162 1450.39 730.972 1450.39 Z" fill="#000000" fill-rule="nonzero" fill-opacity="1" /><path clip-path="url(#clip350)" d="M755.162 1481.64 L771.481 1481.64 L771.481 1485.58 L749.537 1485.58 L749.537 1481.64 Q752.199 1478.89 756.782 1474.26 Q761.389 1469.61 762.569 1468.27 Q764.815 1465.74 765.694 1464.01 Q766.597 1462.25 766.597 1460.56 Q766.597 1457.8 764.653 1456.07 Q762.731 1454.33 759.63 1454.33 Q757.431 1454.33 754.977 1455.09 Q752.546 1455.86 749.769 1457.41 L749.769 1452.69 Q752.593 1451.55 755.046 1450.97 Q757.5 1450.39 759.537 1450.39 Q764.907 1450.39 768.102 1453.08 Q771.296 1455.77 771.296 1460.26 Q771.296 1462.39 770.486 1464.31 Q769.699 1466.2 767.593 1468.8 Q767.014 1469.47 763.912 1472.69 Q760.81 1475.88 755.162 1481.64 Z" fill="#000000" fill-rule="nonzero" fill-opacity="1" /><path clip-path="url(#clip350)" d="M782.106 1481.64 L789.745 1481.64 L789.745 1455.28 L781.435 1456.95 L781.435 1452.69 L789.699 1451.02 L794.375 1451.02 L794.375 1481.64 L802.014 1481.64 L802.014 1485.58 L782.106 1485.58 L782.106 1481.64 Z" fill="#000000" fill-rule="nonzero" fill-opacity="1" /><path clip-path="url(#clip350)" d="M808.703 1470.7 L821.18 1470.7 L821.18 1474.49 L808.703 1474.49 L808.703 1470.7 Z" fill="#000000" fill-rule="nonzero" fill-opacity="1" /><path clip-path="url(#clip350)" d="M838.564 1454.1 Q834.953 1454.1 833.125 1457.66 Q831.319 1461.2 831.319 1468.33 Q831.319 1475.44 833.125 1479.01 Q834.953 1482.55 838.564 1482.55 Q842.199 1482.55 844.004 1479.01 Q845.833 1475.44 845.833 1468.33 Q845.833 1461.2 844.004 1457.66 Q842.199 1454.1 838.564 1454.1 M838.564 1450.39 Q844.375 1450.39 847.43 1455 Q850.509 1459.58 850.509 1468.33 Q850.509 1477.06 847.43 1481.67 Q844.375 1486.25 838.564 1486.25 Q832.754 1486.25 829.676 1481.67 Q826.62 1477.06 826.62 1468.33 Q826.62 1459.58 829.676 1455 Q832.754 1450.39 838.564 1450.39 Z" fill="#000000" fill-rule="nonzero" fill-opacity="1" /><path clip-path="url(#clip350)" d="M871.573 1455.09 L859.768 1473.54 L871.573 1473.54 L871.573 1455.09 M870.347 1451.02 L876.226 1451.02 L876.226 1473.54 L881.157 1473.54 L881.157 1477.43 L876.226 1477.43 L876.226 1485.58 L871.573 1485.58 L871.573 1477.43 L855.972 1477.43 L855.972 1472.92 L870.347 1451.02 Z" fill="#000000" fill-rule="nonzero" fill-opacity="1" /><path clip-path="url(#clip350)" d="M886.134 1470.7 L898.61 1470.7 L898.61 1474.49 L886.134 1474.49 L886.134 1470.7 Z" fill="#000000" fill-rule="nonzero" fill-opacity="1" /><path clip-path="url(#clip350)" d="M915.995 1454.1 Q912.383 1454.1 910.555 1457.66 Q908.749 1461.2 908.749 1468.33 Q908.749 1475.44 910.555 1479.01 Q912.383 1482.55 915.995 1482.55 Q919.629 1482.55 921.434 1479.01 Q923.263 1475.44 923.263 1468.33 Q923.263 1461.2 921.434 1457.66 Q919.629 1454.1 915.995 1454.1 M915.995 1450.39 Q921.805 1450.39 924.86 1455 Q927.939 1459.58 927.939 1468.33 Q927.939 1477.06 924.86 1481.67 Q921.805 1486.25 915.995 1486.25 Q910.184 1486.25 907.106 1481.67 Q904.05 1477.06 904.05 1468.33 Q904.05 1459.58 907.106 1455 Q910.184 1450.39 915.995 1450.39 Z" fill="#000000" fill-rule="nonzero" fill-opacity="1" /><path clip-path="url(#clip350)" d="M936.967 1481.64 L944.605 1481.64 L944.605 1455.28 L936.295 1456.95 L936.295 1452.69 L944.559 1451.02 L949.235 1451.02 L949.235 1481.64 L956.874 1481.64 L956.874 1485.58 L936.967 1485.58 L936.967 1481.64 Z" fill="#000000" fill-rule="nonzero" fill-opacity="1" /><path clip-path="url(#clip350)" d="M1201.09 1481.64 L1217.41 1481.64 L1217.41 1485.58 L1195.47 1485.58 L1195.47 1481.64 Q1198.13 1478.89 1202.71 1474.26 Q1207.32 1469.61 1208.5 1468.27 Q1210.75 1465.74 1211.63 1464.01 Q1212.53 1462.25 1212.53 1460.56 Q1212.53 1457.8 1210.58 1456.07 Q1208.66 1454.33 1205.56 1454.33 Q1203.36 1454.33 1200.91 1455.09 Q1198.48 1455.86 1195.7 1457.41 L1195.7 1452.69 Q1198.52 1451.55 1200.98 1450.97 Q1203.43 1450.39 1205.47 1450.39 Q1210.84 1450.39 1214.03 1453.08 Q1217.23 1455.77 1217.23 1460.26 Q1217.23 1462.39 1216.42 1464.31 Q1215.63 1466.2 1213.52 1468.8 Q1212.95 1469.47 1209.84 1472.69 Q1206.74 1475.88 1201.09 1481.64 Z" fill="#000000" fill-rule="nonzero" fill-opacity="1" /><path clip-path="url(#clip350)" d="M1237.23 1454.1 Q1233.62 1454.1 1231.79 1457.66 Q1229.98 1461.2 1229.98 1468.33 Q1229.98 1475.44 1231.79 1479.01 Q1233.62 1482.55 1237.23 1482.55 Q1240.86 1482.55 1242.67 1479.01 Q1244.5 1475.44 1244.5 1468.33 Q1244.5 1461.2 1242.67 1457.66 Q1240.86 1454.1 1237.23 1454.1 M1237.23 1450.39 Q1243.04 1450.39 1246.09 1455 Q1249.17 1459.58 1249.17 1468.33 Q1249.17 1477.06 1246.09 1481.67 Q1243.04 1486.25 1237.23 1486.25 Q1231.42 1486.25 1228.34 1481.67 Q1225.28 1477.06 1225.28 1468.33 Q1225.28 1459.58 1228.34 1455 Q1231.42 1450.39 1237.23 1450.39 Z" fill="#000000" fill-rule="nonzero" fill-opacity="1" /><path clip-path="url(#clip350)" d="M1261.42 1481.64 L1277.74 1481.64 L1277.74 1485.58 L1255.79 1485.58 L1255.79 1481.64 Q1258.45 1478.89 1263.04 1474.26 Q1267.64 1469.61 1268.82 1468.27 Q1271.07 1465.74 1271.95 1464.01 Q1272.85 1462.25 1272.85 1460.56 Q1272.85 1457.8 1270.91 1456.07 Q1268.99 1454.33 1265.89 1454.33 Q1263.69 1454.33 1261.23 1455.09 Q1258.8 1455.86 1256.02 1457.41 L1256.02 1452.69 Q1258.85 1451.55 1261.3 1450.97 Q1263.76 1450.39 1265.79 1450.39 Q1271.16 1450.39 1274.36 1453.08 Q1277.55 1455.77 1277.55 1460.26 Q1277.55 1462.39 1276.74 1464.31 Q1275.95 1466.2 1273.85 1468.8 Q1273.27 1469.47 1270.17 1472.69 Q1267.07 1475.88 1261.42 1481.64 Z" fill="#000000" fill-rule="nonzero" fill-opacity="1" /><path clip-path="url(#clip350)" d="M1288.36 1481.64 L1296 1481.64 L1296 1455.28 L1287.69 1456.95 L1287.69 1452.69 L1295.95 1451.02 L1300.63 1451.02 L1300.63 1481.64 L1308.27 1481.64 L1308.27 1485.58 L1288.36 1485.58 L1288.36 1481.64 Z" fill="#000000" fill-rule="nonzero" fill-opacity="1" /><path clip-path="url(#clip350)" d="M1314.96 1470.7 L1327.44 1470.7 L1327.44 1474.49 L1314.96 1474.49 L1314.96 1470.7 Z" fill="#000000" fill-rule="nonzero" fill-opacity="1" /><path clip-path="url(#clip350)" d="M1344.82 1454.1 Q1341.21 1454.1 1339.38 1457.66 Q1337.57 1461.2 1337.57 1468.33 Q1337.57 1475.44 1339.38 1479.01 Q1341.21 1482.55 1344.82 1482.55 Q1348.45 1482.55 1350.26 1479.01 Q1352.09 1475.44 1352.09 1468.33 Q1352.09 1461.2 1350.26 1457.66 Q1348.45 1454.1 1344.82 1454.1 M1344.82 1450.39 Q1350.63 1450.39 1353.69 1455 Q1356.76 1459.58 1356.76 1468.33 Q1356.76 1477.06 1353.69 1481.67 Q1350.63 1486.25 1344.82 1486.25 Q1339.01 1486.25 1335.93 1481.67 Q1332.88 1477.06 1332.88 1468.33 Q1332.88 1459.58 1335.93 1455 Q1339.01 1450.39 1344.82 1450.39 Z" fill="#000000" fill-rule="nonzero" fill-opacity="1" /><path clip-path="url(#clip350)" d="M1363.8 1451.02 L1386.02 1451.02 L1386.02 1453.01 L1373.48 1485.58 L1368.59 1485.58 L1380.4 1454.96 L1363.8 1454.96 L1363.8 1451.02 Z" fill="#000000" fill-rule="nonzero" fill-opacity="1" /><path clip-path="url(#clip350)" d="M1392.39 1470.7 L1404.87 1470.7 L1404.87 1474.49 L1392.39 1474.49 L1392.39 1470.7 Z" fill="#000000" fill-rule="nonzero" fill-opacity="1" /><path clip-path="url(#clip350)" d="M1422.25 1454.1 Q1418.64 1454.1 1416.81 1457.66 Q1415 1461.2 1415 1468.33 Q1415 1475.44 1416.81 1479.01 Q1418.64 1482.55 1422.25 1482.55 Q1425.88 1482.55 1427.69 1479.01 Q1429.52 1475.44 1429.52 1468.33 Q1429.52 1461.2 1427.69 1457.66 Q1425.88 1454.1 1422.25 1454.1 M1422.25 1450.39 Q1428.06 1450.39 1431.12 1455 Q1434.19 1459.58 1434.19 1468.33 Q1434.19 1477.06 1431.12 1481.67 Q1428.06 1486.25 1422.25 1486.25 Q1416.44 1486.25 1413.36 1481.67 Q1410.31 1477.06 1410.31 1468.33 Q1410.31 1459.58 1413.36 1455 Q1416.44 1450.39 1422.25 1450.39 Z" fill="#000000" fill-rule="nonzero" fill-opacity="1" /><path clip-path="url(#clip350)" d="M1443.22 1481.64 L1450.86 1481.64 L1450.86 1455.28 L1442.55 1456.95 L1442.55 1452.69 L1450.81 1451.02 L1455.49 1451.02 L1455.49 1481.64 L1463.13 1481.64 L1463.13 1485.58 L1443.22 1485.58 L1443.22 1481.64 Z" fill="#000000" fill-rule="nonzero" fill-opacity="1" /><path clip-path="url(#clip350)" d="M1712.91 1481.64 L1729.23 1481.64 L1729.23 1485.58 L1707.29 1485.58 L1707.29 1481.64 Q1709.95 1478.89 1714.53 1474.26 Q1719.14 1469.61 1720.32 1468.27 Q1722.57 1465.74 1723.44 1464.01 Q1724.35 1462.25 1724.35 1460.56 Q1724.35 1457.8 1722.4 1456.07 Q1720.48 1454.33 1717.38 1454.33 Q1715.18 1454.33 1712.73 1455.09 Q1710.3 1455.86 1707.52 1457.41 L1707.52 1452.69 Q1710.34 1451.55 1712.8 1450.97 Q1715.25 1450.39 1717.29 1450.39 Q1722.66 1450.39 1725.85 1453.08 Q1729.05 1455.77 1729.05 1460.26 Q1729.05 1462.39 1728.24 1464.31 Q1727.45 1466.2 1725.34 1468.8 Q1724.76 1469.47 1721.66 1472.69 Q1718.56 1475.88 1712.91 1481.64 Z" fill="#000000" fill-rule="nonzero" fill-opacity="1" /><path clip-path="url(#clip350)" d="M1749.05 1454.1 Q1745.44 1454.1 1743.61 1457.66 Q1741.8 1461.2 1741.8 1468.33 Q1741.8 1475.44 1743.61 1479.01 Q1745.44 1482.55 1749.05 1482.55 Q1752.68 1482.55 1754.49 1479.01 Q1756.32 1475.44 1756.32 1468.33 Q1756.32 1461.2 1754.49 1457.66 Q1752.68 1454.1 1749.05 1454.1 M1749.05 1450.39 Q1754.86 1450.39 1757.91 1455 Q1760.99 1459.58 1760.99 1468.33 Q1760.99 1477.06 1757.91 1481.67 Q1754.86 1486.25 1749.05 1486.25 Q1743.24 1486.25 1740.16 1481.67 Q1737.1 1477.06 1737.1 1468.33 Q1737.1 1459.58 1740.16 1455 Q1743.24 1450.39 1749.05 1450.39 Z" fill="#000000" fill-rule="nonzero" fill-opacity="1" /><path clip-path="url(#clip350)" d="M1773.24 1481.64 L1789.56 1481.64 L1789.56 1485.58 L1767.61 1485.58 L1767.61 1481.64 Q1770.27 1478.89 1774.86 1474.26 Q1779.46 1469.61 1780.64 1468.27 Q1782.89 1465.74 1783.77 1464.01 Q1784.67 1462.25 1784.67 1460.56 Q1784.67 1457.8 1782.73 1456.07 Q1780.81 1454.33 1777.7 1454.33 Q1775.5 1454.33 1773.05 1455.09 Q1770.62 1455.86 1767.84 1457.41 L1767.84 1452.69 Q1770.67 1451.55 1773.12 1450.97 Q1775.57 1450.39 1777.61 1450.39 Q1782.98 1450.39 1786.18 1453.08 Q1789.37 1455.77 1789.37 1460.26 Q1789.37 1462.39 1788.56 1464.31 Q1787.77 1466.2 1785.67 1468.8 Q1785.09 1469.47 1781.99 1472.69 Q1778.88 1475.88 1773.24 1481.64 Z" fill="#000000" fill-rule="nonzero" fill-opacity="1" /><path clip-path="url(#clip350)" d="M1800.18 1481.64 L1807.82 1481.64 L1807.82 1455.28 L1799.51 1456.95 L1799.51 1452.69 L1807.77 1451.02 L1812.45 1451.02 L1812.45 1481.64 L1820.09 1481.64 L1820.09 1485.58 L1800.18 1485.58 L1800.18 1481.64 Z" fill="#000000" fill-rule="nonzero" fill-opacity="1" /><path clip-path="url(#clip350)" d="M1826.78 1470.7 L1839.25 1470.7 L1839.25 1474.49 L1826.78 1474.49 L1826.78 1470.7 Z" fill="#000000" fill-rule="nonzero" fill-opacity="1" /><path clip-path="url(#clip350)" d="M1847.45 1481.64 L1855.09 1481.64 L1855.09 1455.28 L1846.78 1456.95 L1846.78 1452.69 L1855.04 1451.02 L1859.72 1451.02 L1859.72 1481.64 L1867.36 1481.64 L1867.36 1485.58 L1847.45 1485.58 L1847.45 1481.64 Z" fill="#000000" fill-rule="nonzero" fill-opacity="1" /><path clip-path="url(#clip350)" d="M1886.8 1454.1 Q1883.19 1454.1 1881.36 1457.66 Q1879.56 1461.2 1879.56 1468.33 Q1879.56 1475.44 1881.36 1479.01 Q1883.19 1482.55 1886.8 1482.55 Q1890.43 1482.55 1892.24 1479.01 Q1894.07 1475.44 1894.07 1468.33 Q1894.07 1461.2 1892.24 1457.66 Q1890.43 1454.1 1886.8 1454.1 M1886.8 1450.39 Q1892.61 1450.39 1895.67 1455 Q1898.74 1459.58 1898.74 1468.33 Q1898.74 1477.06 1895.67 1481.67 Q1892.61 1486.25 1886.8 1486.25 Q1880.99 1486.25 1877.91 1481.67 Q1874.86 1477.06 1874.86 1468.33 Q1874.86 1459.58 1877.91 1455 Q1880.99 1450.39 1886.8 1450.39 Z" fill="#000000" fill-rule="nonzero" fill-opacity="1" /><path clip-path="url(#clip350)" d="M1904.21 1470.7 L1916.68 1470.7 L1916.68 1474.49 L1904.21 1474.49 L1904.21 1470.7 Z" fill="#000000" fill-rule="nonzero" fill-opacity="1" /><path clip-path="url(#clip350)" d="M1934.07 1454.1 Q1930.46 1454.1 1928.63 1457.66 Q1926.82 1461.2 1926.82 1468.33 Q1926.82 1475.44 1928.63 1479.01 Q1930.46 1482.55 1934.07 1482.55 Q1937.7 1482.55 1939.51 1479.01 Q1941.34 1475.44 1941.34 1468.33 Q1941.34 1461.2 1939.51 1457.66 Q1937.7 1454.1 1934.07 1454.1 M1934.07 1450.39 Q1939.88 1450.39 1942.93 1455 Q1946.01 1459.58 1946.01 1468.33 Q1946.01 1477.06 1942.93 1481.67 Q1939.88 1486.25 1934.07 1486.25 Q1928.26 1486.25 1925.18 1481.67 Q1922.12 1477.06 1922.12 1468.33 Q1922.12 1459.58 1925.18 1455 Q1928.26 1450.39 1934.07 1450.39 Z" fill="#000000" fill-rule="nonzero" fill-opacity="1" /><path clip-path="url(#clip350)" d="M1955.04 1481.64 L1962.68 1481.64 L1962.68 1455.28 L1954.37 1456.95 L1954.37 1452.69 L1962.63 1451.02 L1967.31 1451.02 L1967.31 1481.64 L1974.95 1481.64 L1974.95 1485.58 L1955.04 1485.58 L1955.04 1481.64 Z" fill="#000000" fill-rule="nonzero" fill-opacity="1" /><path clip-path="url(#clip350)" d="M1273.87 1537.81 L1273.87 1518.52 L1279.73 1518.52 L1279.73 1568.04 L1273.87 1568.04 L1273.87 1562.7 Q1272.02 1565.88 1269.19 1567.44 Q1266.39 1568.97 1262.44 1568.97 Q1255.98 1568.97 1251.91 1563.81 Q1247.87 1558.65 1247.87 1550.25 Q1247.87 1541.85 1251.91 1536.69 Q1255.98 1531.54 1262.44 1531.54 Q1266.39 1531.54 1269.19 1533.1 Q1272.02 1534.62 1273.87 1537.81 M1253.91 1550.25 Q1253.91 1556.71 1256.56 1560.4 Q1259.23 1564.07 1263.88 1564.07 Q1268.52 1564.07 1271.2 1560.4 Q1273.87 1556.71 1273.87 1550.25 Q1273.87 1543.79 1271.2 1540.13 Q1268.52 1536.44 1263.88 1536.44 Q1259.23 1536.44 1256.56 1540.13 Q1253.91 1543.79 1253.91 1550.25 Z" fill="#000000" fill-rule="nonzero" fill-opacity="1" /><path clip-path="url(#clip350)" d="M1307.99 1550.12 Q1300.89 1550.12 1298.15 1551.75 Q1295.42 1553.37 1295.42 1557.29 Q1295.42 1560.4 1297.45 1562.25 Q1299.52 1564.07 1303.06 1564.07 Q1307.93 1564.07 1310.85 1560.63 Q1313.81 1557.16 1313.81 1551.43 L1313.81 1550.12 L1307.99 1550.12 M1319.67 1547.71 L1319.67 1568.04 L1313.81 1568.04 L1313.81 1562.63 Q1311.81 1565.88 1308.82 1567.44 Q1305.83 1568.97 1301.5 1568.97 Q1296.02 1568.97 1292.78 1565.91 Q1289.56 1562.82 1289.56 1557.67 Q1289.56 1551.65 1293.57 1548.6 Q1297.61 1545.54 1305.6 1545.54 L1313.81 1545.54 L1313.81 1544.97 Q1313.81 1540.93 1311.14 1538.73 Q1308.5 1536.5 1303.69 1536.5 Q1300.64 1536.5 1297.74 1537.23 Q1294.84 1537.97 1292.17 1539.43 L1292.17 1534.02 Q1295.39 1532.78 1298.41 1532.17 Q1301.43 1531.54 1304.3 1531.54 Q1312.03 1531.54 1315.85 1535.55 Q1319.67 1539.56 1319.67 1547.71 Z" fill="#000000" fill-rule="nonzero" fill-opacity="1" /><path clip-path="url(#clip350)" d="M1337.53 1522.27 L1337.53 1532.4 L1349.59 1532.4 L1349.59 1536.95 L1337.53 1536.95 L1337.53 1556.3 Q1337.53 1560.66 1338.7 1561.9 Q1339.91 1563.14 1343.57 1563.14 L1349.59 1563.14 L1349.59 1568.04 L1343.57 1568.04 Q1336.79 1568.04 1334.22 1565.53 Q1331.64 1562.98 1331.64 1556.3 L1331.64 1536.95 L1327.34 1536.95 L1327.34 1532.4 L1331.64 1532.4 L1331.64 1522.27 L1337.53 1522.27 Z" fill="#000000" fill-rule="nonzero" fill-opacity="1" /><path clip-path="url(#clip350)" d="M1387.78 1548.76 L1387.78 1551.62 L1360.86 1551.62 Q1361.24 1557.67 1364.49 1560.85 Q1367.76 1564 1373.59 1564 Q1376.96 1564 1380.11 1563.17 Q1383.3 1562.35 1386.42 1560.69 L1386.42 1566.23 Q1383.26 1567.57 1379.95 1568.27 Q1376.64 1568.97 1373.24 1568.97 Q1364.71 1568.97 1359.71 1564 Q1354.75 1559.04 1354.75 1550.57 Q1354.75 1541.82 1359.46 1536.69 Q1364.2 1531.54 1372.22 1531.54 Q1379.41 1531.54 1383.58 1536.18 Q1387.78 1540.8 1387.78 1548.76 M1381.93 1547.04 Q1381.86 1542.23 1379.22 1539.37 Q1376.61 1536.5 1372.28 1536.5 Q1367.38 1536.5 1364.42 1539.27 Q1361.49 1542.04 1361.05 1547.07 L1381.93 1547.04 Z" fill="#000000" fill-rule="nonzero" fill-opacity="1" /><polyline clip-path="url(#clip352)" style="stroke:#000000; stroke-linecap:round; stroke-linejoin:round; stroke-width:2; stroke-opacity:0.1; fill:none" points="282.894,1073.13 2352.76,1073.13 "/>
<polyline clip-path="url(#clip352)" style="stroke:#000000; stroke-linecap:round; stroke-linejoin:round; stroke-width:2; stroke-opacity:0.1; fill:none" points="282.894,554.64 2352.76,554.64 "/>
<polyline clip-path="url(#clip350)" style="stroke:#000000; stroke-linecap:round; stroke-linejoin:round; stroke-width:4; stroke-opacity:1; fill:none" points="282.894,1423.18 282.894,47.2441 "/>
<polyline clip-path="url(#clip350)" style="stroke:#000000; stroke-linecap:round; stroke-linejoin:round; stroke-width:4; stroke-opacity:1; fill:none" points="282.894,1073.13 301.792,1073.13 "/>
<polyline clip-path="url(#clip350)" style="stroke:#000000; stroke-linecap:round; stroke-linejoin:round; stroke-width:4; stroke-opacity:1; fill:none" points="282.894,554.64 301.792,554.64 "/>
<path clip-path="url(#clip350)" d="M114.931 1092.92 L122.57 1092.92 L122.57 1066.55 L114.26 1068.22 L114.26 1063.96 L122.524 1062.29 L127.2 1062.29 L127.2 1092.92 L134.839 1092.92 L134.839 1096.85 L114.931 1096.85 L114.931 1092.92 Z" fill="#000000" fill-rule="nonzero" fill-opacity="1" /><path clip-path="url(#clip350)" d="M154.283 1065.37 Q150.672 1065.37 148.843 1068.94 Q147.038 1072.48 147.038 1079.61 Q147.038 1086.71 148.843 1090.28 Q150.672 1093.82 154.283 1093.82 Q157.917 1093.82 159.723 1090.28 Q161.552 1086.71 161.552 1079.61 Q161.552 1072.48 159.723 1068.94 Q157.917 1065.37 154.283 1065.37 M154.283 1061.67 Q160.093 1061.67 163.149 1066.27 Q166.227 1070.86 166.227 1079.61 Q166.227 1088.33 163.149 1092.94 Q160.093 1097.52 154.283 1097.52 Q148.473 1097.52 145.394 1092.94 Q142.339 1088.33 142.339 1079.61 Q142.339 1070.86 145.394 1066.27 Q148.473 1061.67 154.283 1061.67 Z" fill="#000000" fill-rule="nonzero" fill-opacity="1" /><path clip-path="url(#clip350)" d="M175.932 1043.86 Q172.998 1043.86 171.512 1046.76 Q170.045 1049.64 170.045 1055.43 Q170.045 1061.2 171.512 1064.1 Q172.998 1066.98 175.932 1066.98 Q178.885 1066.98 180.352 1064.1 Q181.838 1061.2 181.838 1055.43 Q181.838 1049.64 180.352 1046.76 Q178.885 1043.86 175.932 1043.86 M175.932 1040.85 Q180.653 1040.85 183.136 1044.6 Q185.637 1048.32 185.637 1055.43 Q185.637 1062.52 183.136 1066.26 Q180.653 1069.99 175.932 1069.99 Q171.212 1069.99 168.71 1066.26 Q166.227 1062.52 166.227 1055.43 Q166.227 1048.32 168.71 1044.6 Q171.212 1040.85 175.932 1040.85 Z" fill="#000000" fill-rule="nonzero" fill-opacity="1" /><path clip-path="url(#clip350)" d="M192.314 1064.67 L196.282 1064.67 L196.282 1069.44 L192.314 1069.44 L192.314 1064.67 Z" fill="#000000" fill-rule="nonzero" fill-opacity="1" /><path clip-path="url(#clip350)" d="M212.683 1043.86 Q209.749 1043.86 208.263 1046.76 Q206.796 1049.64 206.796 1055.43 Q206.796 1061.2 208.263 1064.1 Q209.749 1066.98 212.683 1066.98 Q215.635 1066.98 217.102 1064.1 Q218.588 1061.2 218.588 1055.43 Q218.588 1049.64 217.102 1046.76 Q215.635 1043.86 212.683 1043.86 M212.683 1040.85 Q217.403 1040.85 219.886 1044.6 Q222.387 1048.32 222.387 1055.43 Q222.387 1062.52 219.886 1066.26 Q217.403 1069.99 212.683 1069.99 Q207.962 1069.99 205.46 1066.26 Q202.978 1062.52 202.978 1055.43 Q202.978 1048.32 205.46 1044.6 Q207.962 1040.85 212.683 1040.85 Z" fill="#000000" fill-rule="nonzero" fill-opacity="1" /><path clip-path="url(#clip350)" d="M237.189 1043.86 Q234.255 1043.86 232.769 1046.76 Q231.302 1049.64 231.302 1055.43 Q231.302 1061.2 232.769 1064.1 Q234.255 1066.98 237.189 1066.98 Q240.142 1066.98 241.609 1064.1 Q243.095 1061.2 243.095 1055.43 Q243.095 1049.64 241.609 1046.76 Q240.142 1043.86 237.189 1043.86 M237.189 1040.85 Q241.91 1040.85 244.393 1044.6 Q246.894 1048.32 246.894 1055.43 Q246.894 1062.52 244.393 1066.26 Q241.91 1069.99 237.189 1069.99 Q232.468 1069.99 229.967 1066.26 Q227.484 1062.52 227.484 1055.43 Q227.484 1048.32 229.967 1044.6 Q232.468 1040.85 237.189 1040.85 Z" fill="#000000" fill-rule="nonzero" fill-opacity="1" /><path clip-path="url(#clip350)" d="M115.74 574.433 L123.379 574.433 L123.379 548.067 L115.069 549.734 L115.069 545.475 L123.333 543.808 L128.009 543.808 L128.009 574.433 L135.647 574.433 L135.647 578.368 L115.74 578.368 L115.74 574.433 Z" fill="#000000" fill-rule="nonzero" fill-opacity="1" /><path clip-path="url(#clip350)" d="M155.092 546.887 Q151.481 546.887 149.652 550.451 Q147.846 553.993 147.846 561.123 Q147.846 568.229 149.652 571.794 Q151.481 575.336 155.092 575.336 Q158.726 575.336 160.532 571.794 Q162.36 568.229 162.36 561.123 Q162.36 553.993 160.532 550.451 Q158.726 546.887 155.092 546.887 M155.092 543.183 Q160.902 543.183 163.958 547.789 Q167.036 552.373 167.036 561.123 Q167.036 569.85 163.958 574.456 Q160.902 579.039 155.092 579.039 Q149.282 579.039 146.203 574.456 Q143.147 569.85 143.147 561.123 Q143.147 552.373 146.203 547.789 Q149.282 543.183 155.092 543.183 Z" fill="#000000" fill-rule="nonzero" fill-opacity="1" /><path clip-path="url(#clip350)" d="M176.741 525.379 Q173.807 525.379 172.321 528.275 Q170.854 531.153 170.854 536.946 Q170.854 542.72 172.321 545.616 Q173.807 548.494 176.741 548.494 Q179.694 548.494 181.161 545.616 Q182.647 542.72 182.647 536.946 Q182.647 531.153 181.161 528.275 Q179.694 525.379 176.741 525.379 M176.741 522.37 Q181.462 522.37 183.944 526.113 Q186.446 529.836 186.446 536.946 Q186.446 544.036 183.944 547.779 Q181.462 551.503 176.741 551.503 Q172.02 551.503 169.519 547.779 Q167.036 544.036 167.036 536.946 Q167.036 529.836 169.519 526.113 Q172.02 522.37 176.741 522.37 Z" fill="#000000" fill-rule="nonzero" fill-opacity="1" /><path clip-path="url(#clip350)" d="M193.123 546.18 L197.091 546.18 L197.091 550.958 L193.123 550.958 L193.123 546.18 Z" fill="#000000" fill-rule="nonzero" fill-opacity="1" /><path clip-path="url(#clip350)" d="M208.639 547.76 L221.898 547.76 L221.898 550.958 L204.069 550.958 L204.069 547.76 Q206.232 545.522 209.956 541.761 Q213.698 537.98 214.657 536.889 Q216.482 534.839 217.197 533.429 Q217.93 531.999 217.93 530.626 Q217.93 528.388 216.35 526.978 Q214.789 525.567 212.269 525.567 Q210.482 525.567 208.489 526.188 Q206.514 526.808 204.257 528.069 L204.257 524.232 Q206.551 523.31 208.545 522.84 Q210.539 522.37 212.194 522.37 Q216.557 522.37 219.153 524.551 Q221.748 526.733 221.748 530.382 Q221.748 532.112 221.09 533.673 Q220.45 535.215 218.739 537.322 Q218.269 537.867 215.748 540.482 Q213.228 543.077 208.639 547.76 Z" fill="#000000" fill-rule="nonzero" fill-opacity="1" /><path clip-path="url(#clip350)" d="M229.911 522.878 L244.825 522.878 L244.825 526.075 L233.39 526.075 L233.39 532.959 Q234.218 532.676 235.045 532.545 Q235.873 532.394 236.7 532.394 Q241.402 532.394 244.148 534.971 Q246.894 537.548 246.894 541.949 Q246.894 546.481 244.073 549.002 Q241.252 551.503 236.117 551.503 Q234.349 551.503 232.506 551.202 Q230.682 550.901 228.726 550.299 L228.726 546.481 Q230.418 547.403 232.224 547.854 Q234.029 548.306 236.042 548.306 Q239.296 548.306 241.195 546.594 Q243.095 544.883 243.095 541.949 Q243.095 539.015 241.195 537.303 Q239.296 535.592 236.042 535.592 Q234.518 535.592 232.995 535.93 Q231.49 536.269 229.911 536.983 L229.911 522.878 Z" fill="#000000" fill-rule="nonzero" fill-opacity="1" /><path clip-path="url(#clip350)" d="M46.0847 888.244 Q46.0847 895.341 47.7079 898.079 Q49.3312 900.816 53.2461 900.816 Q56.3653 900.816 58.2114 898.779 Q60.0256 896.71 60.0256 893.177 Q60.0256 888.307 56.5881 885.379 Q53.1188 882.419 47.3897 882.419 L46.0847 882.419 L46.0847 888.244 M43.6657 876.562 L64.0042 876.562 L64.0042 882.419 L58.5933 882.419 Q61.8398 884.424 63.3994 887.416 Q64.9272 890.408 64.9272 894.737 Q64.9272 900.211 61.8716 903.458 Q58.7843 906.672 53.6281 906.672 Q47.6125 906.672 44.5569 902.662 Q41.5014 898.62 41.5014 890.631 L41.5014 882.419 L40.9285 882.419 Q36.8862 882.419 34.6901 885.093 Q32.4621 887.734 32.4621 892.54 Q32.4621 895.596 33.1941 898.492 Q33.9262 901.389 35.3903 904.062 L29.9795 904.062 Q28.7381 900.848 28.1334 897.824 Q27.4968 894.8 27.4968 891.936 Q27.4968 884.201 31.5072 880.382 Q35.5176 876.562 43.6657 876.562 Z" fill="#000000" fill-rule="nonzero" fill-opacity="1" /><path clip-path="url(#clip350)" d="M29.7248 838.846 L35.1993 838.846 Q33.8307 841.328 33.1623 843.843 Q32.4621 846.325 32.4621 848.872 Q32.4621 854.569 36.0905 857.72 Q39.6872 860.871 46.212 860.871 Q52.7369 860.871 56.3653 857.72 Q59.9619 854.569 59.9619 848.872 Q59.9619 846.325 59.2935 843.843 Q58.5933 841.328 57.2247 838.846 L62.6355 838.846 Q63.7814 841.296 64.3543 843.938 Q64.9272 846.548 64.9272 849.508 Q64.9272 857.561 59.8664 862.303 Q54.8057 867.046 46.212 867.046 Q37.491 867.046 32.4939 862.271 Q27.4968 857.465 27.4968 849.126 Q27.4968 846.421 28.0697 843.843 Q28.6108 841.265 29.7248 838.846 Z" fill="#000000" fill-rule="nonzero" fill-opacity="1" /><path clip-path="url(#clip350)" d="M29.7248 803.007 L35.1993 803.007 Q33.8307 805.489 33.1623 808.004 Q32.4621 810.486 32.4621 813.033 Q32.4621 818.73 36.0905 821.881 Q39.6872 825.032 46.212 825.032 Q52.7369 825.032 56.3653 821.881 Q59.9619 818.73 59.9619 813.033 Q59.9619 810.486 59.2935 808.004 Q58.5933 805.489 57.2247 803.007 L62.6355 803.007 Q63.7814 805.458 64.3543 808.099 Q64.9272 810.709 64.9272 813.669 Q64.9272 821.722 59.8664 826.464 Q54.8057 831.207 46.212 831.207 Q37.491 831.207 32.4939 826.433 Q27.4968 821.626 27.4968 813.287 Q27.4968 810.582 28.0697 808.004 Q28.6108 805.426 29.7248 803.007 Z" fill="#000000" fill-rule="nonzero" fill-opacity="1" /><path clip-path="url(#clip350)" d="M55.9197 791.994 L55.9197 785.278 L64.0042 785.278 L64.0042 791.994 L55.9197 791.994 Z" fill="#000000" fill-rule="nonzero" fill-opacity="1" /><path clip-path="url(#clip350)" d="M33.8307 730.724 Q33.2578 731.711 33.0032 732.888 Q32.7167 734.034 32.7167 735.435 Q32.7167 740.4 35.9632 743.074 Q39.1779 745.715 45.2253 745.715 L64.0042 745.715 L64.0042 751.604 L28.3562 751.604 L28.3562 745.715 L33.8944 745.715 Q30.6479 743.869 29.0883 740.909 Q27.4968 737.949 27.4968 733.716 Q27.4968 733.111 27.5923 732.379 Q27.656 731.647 27.8151 730.756 L33.8307 730.724 Z" fill="#000000" fill-rule="nonzero" fill-opacity="1" /><path clip-path="url(#clip350)" d="M44.7161 695.522 L47.5806 695.522 L47.5806 722.449 Q53.6281 722.067 56.8109 718.82 Q59.9619 715.542 59.9619 709.717 Q59.9619 706.343 59.1344 703.192 Q58.3069 700.01 56.6518 696.89 L62.1899 696.89 Q63.5267 700.041 64.227 703.352 Q64.9272 706.662 64.9272 710.067 Q64.9272 718.597 59.9619 723.595 Q54.9967 728.56 46.5303 728.56 Q37.7774 728.56 32.6531 723.849 Q27.4968 719.107 27.4968 711.086 Q27.4968 703.893 32.1438 699.723 Q36.7589 695.522 44.7161 695.522 M42.9973 701.378 Q38.1912 701.442 35.3266 704.084 Q32.4621 706.694 32.4621 711.022 Q32.4621 715.924 35.2312 718.884 Q38.0002 721.812 43.0292 722.258 L42.9973 701.378 Z" fill="#000000" fill-rule="nonzero" fill-opacity="1" /><path clip-path="url(#clip350)" d="M18.2347 680.117 L28.3562 680.117 L28.3562 668.054 L32.9077 668.054 L32.9077 680.117 L52.2594 680.117 Q56.6199 680.117 57.8613 678.939 Q59.1026 677.73 59.1026 674.069 L59.1026 668.054 L64.0042 668.054 L64.0042 674.069 Q64.0042 680.849 61.4897 683.427 Q58.9434 686.005 52.2594 686.005 L32.9077 686.005 L32.9077 690.302 L28.3562 690.302 L28.3562 686.005 L18.2347 686.005 L18.2347 680.117 Z" fill="#000000" fill-rule="nonzero" fill-opacity="1" /><path clip-path="url(#clip350)" d="M49.9359 660.956 L28.3562 660.956 L28.3562 655.1 L49.7131 655.1 Q54.7739 655.1 57.3202 653.126 Q59.8346 651.153 59.8346 647.206 Q59.8346 642.464 56.8109 639.726 Q53.7872 636.957 48.5673 636.957 L28.3562 636.957 L28.3562 631.101 L64.0042 631.101 L64.0042 636.957 L58.5296 636.957 Q61.7762 639.09 63.3676 641.923 Q64.9272 644.723 64.9272 648.447 Q64.9272 654.59 61.1078 657.773 Q57.2883 660.956 49.9359 660.956 M27.4968 646.219 L27.4968 646.219 Z" fill="#000000" fill-rule="nonzero" fill-opacity="1" /><path clip-path="url(#clip350)" d="M33.8307 598.381 Q33.2578 599.368 33.0032 600.545 Q32.7167 601.691 32.7167 603.092 Q32.7167 608.057 35.9632 610.731 Q39.1779 613.372 45.2253 613.372 L64.0042 613.372 L64.0042 619.261 L28.3562 619.261 L28.3562 613.372 L33.8944 613.372 Q30.6479 611.526 29.0883 608.566 Q27.4968 605.606 27.4968 601.373 Q27.4968 600.768 27.5923 600.036 Q27.656 599.304 27.8151 598.413 L33.8307 598.381 Z" fill="#000000" fill-rule="nonzero" fill-opacity="1" /><path clip-path="url(#clip350)" d="M42.4881 563.752 L64.0042 563.752 L64.0042 569.608 L42.679 569.608 Q37.6183 569.608 35.1038 571.581 Q32.5894 573.555 32.5894 577.502 Q32.5894 582.244 35.6131 584.981 Q38.6368 587.719 43.8567 587.719 L64.0042 587.719 L64.0042 593.607 L28.3562 593.607 L28.3562 587.719 L33.8944 587.719 Q30.6797 585.618 29.0883 582.785 Q27.4968 579.921 27.4968 576.197 Q27.4968 570.054 31.3163 566.903 Q35.1038 563.752 42.4881 563.752 Z" fill="#000000" fill-rule="nonzero" fill-opacity="1" /><polyline clip-path="url(#clip352)" style="stroke:#009af9; stroke-linecap:round; stroke-linejoin:round; stroke-width:12; stroke-opacity:1; fill:none" points="341.475,1073.13 341.475,1073.13 347.038,1074 352.601,1126.01 358.165,1079.22 363.728,1079.43 380.418,1069.49 385.981,1070.97 391.544,1067.47 397.107,1078.09 402.671,1153.49 424.924,1087.1 430.487,1126.63 436.05,1122.65 441.613,1098.98 458.303,1092.02 463.866,1021.57 469.43,1065.01 474.993,1113.68 480.556,1097.93 497.246,1107.51 502.809,1166.87 508.372,1126.16 513.936,1146.29 519.499,1161.31 536.189,1103.7 541.752,1154.11 547.315,1173.81 552.878,1197.69 558.442,1188.73 580.695,1196.56 586.258,1228.5 591.821,1280.39 597.384,1232.43 614.074,1242.89 619.637,1309.39 625.201,1238.76 630.764,1312.05 636.327,1324.47 653.017,1257.35 658.58,1143.52 664.143,1244.65 669.707,1290.25 675.27,1339.6 691.96,1284.17 697.523,1218.52 703.086,1293.09 708.649,1252.51 714.213,1151.29 730.671,1069.92 736.234,1096.94 741.797,1103.24 747.36,1156.57 752.924,1119.42 769.613,1077.29 775.177,1148.43 780.74,1263.41 786.303,1192.2 791.866,1216.73 808.556,1245.73 814.119,1194 819.682,1231.72 825.246,1232.42 847.499,1265.49 853.062,1260.42 858.625,1320.22 864.188,1353.59 869.752,1340.49 886.441,1384.24 892.005,1372.03 897.568,1322.5 903.131,1271.02 908.694,1324.43 925.384,1293.12 930.947,1329.27 936.511,1282 942.074,1262.87 947.637,1236.06 964.327,1240.39 969.89,1249.74 975.453,1236.9 981.017,1255.31 986.58,1274.6 1003.27,1262.21 1008.83,1258.6 1014.4,1246.88 1019.96,1238.47 1025.52,1220.03 1042.21,1227.05 1047.78,1217.44 1053.34,1224.22 1058.9,1111.61 1064.47,1101.7 1081.16,1060.2 1086.72,1057.11 1092.28,1114.71 1097.84,1112.58 1103.41,1133.79 1120.1,1095.14 1125.66,1047.55 1131.22,988.227 1136.79,750.439 1142.35,776.794 1164.6,605.264 1170.17,86.8834 1175.73,193.402 1181.29,218.802 1197.98,157.072 1203.55,158.589 1209.11,198.962 1214.67,254.143 1220.24,202.115 1236.93,141.36 1242.49,139.273 1248.05,165.854 1253.62,100.899 1259.18,113.457 1275.87,141.965 1281.43,111.224 1287,106.886 1292.56,115.84 1298.12,141.202 1314.81,86.1857 1320.37,97.2385 1325.94,96.3115 1331.5,111.85 1337.06,124.538 1359.32,136.778 1364.88,188.921 1370.44,170.038 1376.01,181.659 1392.7,205.924 1398.26,247.088 1403.82,327.3 1409.39,315.814 1414.95,347.264 1431.64,347.981 1437.2,270.2 1442.77,269.865 1448.33,296.352 1453.89,300.328 1470.58,278.067 1476.15,302.105 1481.71,285.14 1487.27,288.311 1492.84,303.729 1509.53,315.533 1515.09,330.089 1520.65,353.841 1526.21,308.271 1531.78,322.778 1548.47,315.469 1554.03,344.146 1559.59,353.7 1565.16,334.951 1570.72,321.92 1587.41,272.976 1592.97,236.633 1598.54,251.537 1604.1,321.434 1609.66,305.859 1626.35,257.457 1631.92,148.061 1637.48,143.938 1643.04,149.551 1648.61,143.16 1665.3,142.577 1670.86,145.979 1676.42,145.349 1681.99,145.855 1687.55,139.015 1709.8,145.377 1715.37,155.083 1720.93,159.746 1726.49,166.536 1743.18,143.316 1748.74,144.156 1754.31,161.429 1759.87,179.193 1765.43,195.909 1782.12,205.101 1787.69,205.099 1793.25,205.086 1798.81,205.071 1804.38,225.263 1821.07,233.184 1826.63,259.747 1832.19,245.039 1837.76,248.37 1843.32,234.006 1860.01,212.561 1865.57,196.331 1871.14,224.408 1876.7,230.851 1882.26,197.751 1898.95,206.924 1904.52,211.433 1910.08,215.495 1915.64,197.696 1921.21,203.951 1937.9,189.07 1943.46,185.968 1949.02,176.755 1954.59,207.296 1960.15,196.971 1976.84,190.069 1982.4,172.346 1987.96,207.428 1993.53,194.773 1999.09,198.619 2015.78,130.089 2021.34,157.256 2026.91,126.463 2032.47,115.257 2038.03,119.694 2054.96,159.773 2060.52,214.919 2066.08,227.586 2071.65,207.41 2077.21,207.625 2093.9,227.796 2099.46,223.274 2105.02,237.577 2110.59,251.075 2116.15,229.262 2132.84,224.31 2138.4,253.418 2143.97,247.604 2155.09,271.815 2171.78,267.778 2177.35,294.759 2182.91,344.752 2188.47,340.17 2194.04,363.809 2210.73,355.62 2216.29,317.354 2221.85,327.558 2227.42,372.944 2232.98,367.527 2249.67,417.058 2255.23,430.564 2260.8,437.7 2266.36,482.104 2271.92,485.59 2288.61,487.407 2294.17,498.76 "/>
<path clip-path="url(#clip350)" d="M351.889 196.789 L828.758 196.789 L828.758 93.1086 L351.889 93.1086  Z" fill="#ffffff" fill-rule="evenodd" fill-opacity="1"/>
<polyline clip-path="url(#clip350)" style="stroke:#000000; stroke-linecap:round; stroke-linejoin:round; stroke-width:4; stroke-opacity:1; fill:none" points="351.889,196.789 828.758,196.789 828.758,93.1086 351.889,93.1086 351.889,196.789 "/>
<polyline clip-path="url(#clip350)" style="stroke:#009af9; stroke-linecap:round; stroke-linejoin:round; stroke-width:12; stroke-opacity:1; fill:none" points="374.888,144.949 512.879,144.949 "/>
<path clip-path="url(#clip350)" d="M535.877 127.669 L542.845 127.669 L551.664 151.187 L560.53 127.669 L567.497 127.669 L567.497 162.229 L562.937 162.229 L562.937 131.882 L554.025 155.585 L549.326 155.585 L540.414 131.882 L540.414 162.229 L535.877 162.229 L535.877 127.669 Z" fill="#000000" fill-rule="nonzero" fill-opacity="1" /><path clip-path="url(#clip350)" d="M585.692 162.229 L572.497 127.669 L577.382 127.669 L588.331 156.766 L599.303 127.669 L604.164 127.669 L590.993 162.229 L585.692 162.229 Z" fill="#000000" fill-rule="nonzero" fill-opacity="1" /><path clip-path="url(#clip350)" d="M604.094 147.344 L616.571 147.344 L616.571 151.141 L604.094 151.141 L604.094 147.344 Z" fill="#000000" fill-rule="nonzero" fill-opacity="1" /><path clip-path="url(#clip350)" d="M623.539 127.669 L630.506 127.669 L639.326 151.187 L648.191 127.669 L655.159 127.669 L655.159 162.229 L650.599 162.229 L650.599 131.882 L641.687 155.585 L636.988 155.585 L628.076 131.882 L628.076 162.229 L623.539 162.229 L623.539 127.669 Z" fill="#000000" fill-rule="nonzero" fill-opacity="1" /><path clip-path="url(#clip350)" d="M669.117 131.511 L669.117 144.497 L674.997 144.497 Q678.261 144.497 680.043 142.807 Q681.825 141.118 681.825 137.993 Q681.825 134.891 680.043 133.201 Q678.261 131.511 674.997 131.511 L669.117 131.511 M664.441 127.669 L674.997 127.669 Q680.807 127.669 683.77 130.307 Q686.756 132.923 686.756 137.993 Q686.756 143.108 683.77 145.724 Q680.807 148.34 674.997 148.34 L669.117 148.34 L669.117 162.229 L664.441 162.229 L664.441 127.669 Z" fill="#000000" fill-rule="nonzero" fill-opacity="1" /><path clip-path="url(#clip350)" d="M718.909 130.331 L718.909 135.261 Q716.547 133.062 713.862 131.974 Q711.2 130.886 708.191 130.886 Q702.265 130.886 699.117 134.52 Q695.969 138.132 695.969 144.983 Q695.969 151.812 699.117 155.446 Q702.265 159.057 708.191 159.057 Q711.2 159.057 713.862 157.969 Q716.547 156.881 718.909 154.682 L718.909 159.567 Q716.455 161.233 713.7 162.067 Q710.969 162.9 707.913 162.9 Q700.066 162.9 695.552 158.108 Q691.038 153.293 691.038 144.983 Q691.038 136.65 695.552 131.858 Q700.066 127.044 707.913 127.044 Q711.015 127.044 713.747 127.877 Q716.501 128.687 718.909 130.331 Z" fill="#000000" fill-rule="nonzero" fill-opacity="1" /><path clip-path="url(#clip350)" d="M727.034 156.349 L731.918 156.349 L731.918 162.229 L727.034 162.229 L727.034 156.349 M727.034 137.715 L731.918 137.715 L731.918 143.594 L727.034 143.594 L727.034 137.715 Z" fill="#000000" fill-rule="nonzero" fill-opacity="1" /><path clip-path="url(#clip350)" d="M757.172 127.669 L761.848 127.669 L761.848 158.293 L778.677 158.293 L778.677 162.229 L757.172 162.229 L757.172 127.669 Z" fill="#000000" fill-rule="nonzero" fill-opacity="1" /><path clip-path="url(#clip350)" d="M787.288 162.229 L774.093 127.669 L778.978 127.669 L789.927 156.766 L800.899 127.669 L805.76 127.669 L792.589 162.229 L787.288 162.229 Z" fill="#000000" fill-rule="nonzero" fill-opacity="1" /></svg>
