<?xml version="1.0" encoding="utf-8"?>
<svg xmlns="http://www.w3.org/2000/svg" xmlns:xlink="http://www.w3.org/1999/xlink" width="600" height="400" viewBox="0 0 2400 1600">
<defs>
  <clipPath id="clip710">
    <rect x="0" y="0" width="2400" height="1600"/>
  </clipPath>
</defs>
<path clip-path="url(#clip710)" d="M0 1600 L2400 1600 L2400 0 L0 0  Z" fill="#ffffff" fill-rule="evenodd" fill-opacity="1"/>
<defs>
  <clipPath id="clip711">
    <rect x="480" y="0" width="1681" height="1600"/>
  </clipPath>
</defs>
<path clip-path="url(#clip710)" d="M258.35 1423.18 L2352.76 1423.18 L2352.76 123.472 L258.35 123.472  Z" fill="#ffffff" fill-rule="evenodd" fill-opacity="1"/>
<defs>
  <clipPath id="clip712">
    <rect x="258" y="123" width="2095" height="1301"/>
  </clipPath>
</defs>
<polyline clip-path="url(#clip712)" style="stroke:#000000; stroke-linecap:round; stroke-linejoin:round; stroke-width:2; stroke-opacity:0.1; fill:none" points="298.275,1423.18 298.275,123.472 "/>
<polyline clip-path="url(#clip712)" style="stroke:#000000; stroke-linecap:round; stroke-linejoin:round; stroke-width:2; stroke-opacity:0.1; fill:none" points="804.904,1423.18 804.904,123.472 "/>
<polyline clip-path="url(#clip712)" style="stroke:#000000; stroke-linecap:round; stroke-linejoin:round; stroke-width:2; stroke-opacity:0.1; fill:none" points="1317.16,1423.18 1317.16,123.472 "/>
<polyline clip-path="url(#clip712)" style="stroke:#000000; stroke-linecap:round; stroke-linejoin:round; stroke-width:2; stroke-opacity:0.1; fill:none" points="1835.05,1423.18 1835.05,123.472 "/>
<polyline clip-path="url(#clip712)" style="stroke:#000000; stroke-linecap:round; stroke-linejoin:round; stroke-width:2; stroke-opacity:0.05; fill:none" points="399.601,1423.18 399.601,123.472 "/>
<polyline clip-path="url(#clip712)" style="stroke:#000000; stroke-linecap:round; stroke-linejoin:round; stroke-width:2; stroke-opacity:0.05; fill:none" points="500.927,1423.18 500.927,123.472 "/>
<polyline clip-path="url(#clip712)" style="stroke:#000000; stroke-linecap:round; stroke-linejoin:round; stroke-width:2; stroke-opacity:0.05; fill:none" points="602.253,1423.18 602.253,123.472 "/>
<polyline clip-path="url(#clip712)" style="stroke:#000000; stroke-linecap:round; stroke-linejoin:round; stroke-width:2; stroke-opacity:0.05; fill:none" points="703.579,1423.18 703.579,123.472 "/>
<polyline clip-path="url(#clip712)" style="stroke:#000000; stroke-linecap:round; stroke-linejoin:round; stroke-width:2; stroke-opacity:0.05; fill:none" points="907.356,1423.18 907.356,123.472 "/>
<polyline clip-path="url(#clip712)" style="stroke:#000000; stroke-linecap:round; stroke-linejoin:round; stroke-width:2; stroke-opacity:0.05; fill:none" points="1009.81,1423.18 1009.81,123.472 "/>
<polyline clip-path="url(#clip712)" style="stroke:#000000; stroke-linecap:round; stroke-linejoin:round; stroke-width:2; stroke-opacity:0.05; fill:none" points="1112.26,1423.18 1112.26,123.472 "/>
<polyline clip-path="url(#clip712)" style="stroke:#000000; stroke-linecap:round; stroke-linejoin:round; stroke-width:2; stroke-opacity:0.05; fill:none" points="1214.71,1423.18 1214.71,123.472 "/>
<polyline clip-path="url(#clip712)" style="stroke:#000000; stroke-linecap:round; stroke-linejoin:round; stroke-width:2; stroke-opacity:0.05; fill:none" points="1420.74,1423.18 1420.74,123.472 "/>
<polyline clip-path="url(#clip712)" style="stroke:#000000; stroke-linecap:round; stroke-linejoin:round; stroke-width:2; stroke-opacity:0.05; fill:none" points="1524.32,1423.18 1524.32,123.472 "/>
<polyline clip-path="url(#clip712)" style="stroke:#000000; stroke-linecap:round; stroke-linejoin:round; stroke-width:2; stroke-opacity:0.05; fill:none" points="1627.9,1423.18 1627.9,123.472 "/>
<polyline clip-path="url(#clip712)" style="stroke:#000000; stroke-linecap:round; stroke-linejoin:round; stroke-width:2; stroke-opacity:0.05; fill:none" points="1731.47,1423.18 1731.47,123.472 "/>
<polyline clip-path="url(#clip712)" style="stroke:#000000; stroke-linecap:round; stroke-linejoin:round; stroke-width:2; stroke-opacity:0.05; fill:none" points="1939.78,1423.18 1939.78,123.472 "/>
<polyline clip-path="url(#clip712)" style="stroke:#000000; stroke-linecap:round; stroke-linejoin:round; stroke-width:2; stroke-opacity:0.05; fill:none" points="2044.51,1423.18 2044.51,123.472 "/>
<polyline clip-path="url(#clip712)" style="stroke:#000000; stroke-linecap:round; stroke-linejoin:round; stroke-width:2; stroke-opacity:0.05; fill:none" points="2149.24,1423.18 2149.24,123.472 "/>
<polyline clip-path="url(#clip712)" style="stroke:#000000; stroke-linecap:round; stroke-linejoin:round; stroke-width:2; stroke-opacity:0.05; fill:none" points="2253.96,1423.18 2253.96,123.472 "/>
<polyline clip-path="url(#clip710)" style="stroke:#000000; stroke-linecap:round; stroke-linejoin:round; stroke-width:4; stroke-opacity:1; fill:none" points="258.35,1423.18 2352.76,1423.18 "/>
<polyline clip-path="url(#clip710)" style="stroke:#000000; stroke-linecap:round; stroke-linejoin:round; stroke-width:4; stroke-opacity:1; fill:none" points="298.275,1423.18 298.275,1404.28 "/>
<polyline clip-path="url(#clip710)" style="stroke:#000000; stroke-linecap:round; stroke-linejoin:round; stroke-width:4; stroke-opacity:1; fill:none" points="804.904,1423.18 804.904,1404.28 "/>
<polyline clip-path="url(#clip710)" style="stroke:#000000; stroke-linecap:round; stroke-linejoin:round; stroke-width:4; stroke-opacity:1; fill:none" points="1317.16,1423.18 1317.16,1404.28 "/>
<polyline clip-path="url(#clip710)" style="stroke:#000000; stroke-linecap:round; stroke-linejoin:round; stroke-width:4; stroke-opacity:1; fill:none" points="1835.05,1423.18 1835.05,1404.28 "/>
<polyline clip-path="url(#clip710)" style="stroke:#000000; stroke-linecap:round; stroke-linejoin:round; stroke-width:4; stroke-opacity:1; fill:none" points="399.601,1423.18 399.601,1413.73 "/>
<polyline clip-path="url(#clip710)" style="stroke:#000000; stroke-linecap:round; stroke-linejoin:round; stroke-width:4; stroke-opacity:1; fill:none" points="500.927,1423.18 500.927,1413.73 "/>
<polyline clip-path="url(#clip710)" style="stroke:#000000; stroke-linecap:round; stroke-linejoin:round; stroke-width:4; stroke-opacity:1; fill:none" points="602.253,1423.18 602.253,1413.73 "/>
<polyline clip-path="url(#clip710)" style="stroke:#000000; stroke-linecap:round; stroke-linejoin:round; stroke-width:4; stroke-opacity:1; fill:none" points="703.579,1423.18 703.579,1413.73 "/>
<polyline clip-path="url(#clip710)" style="stroke:#000000; stroke-linecap:round; stroke-linejoin:round; stroke-width:4; stroke-opacity:1; fill:none" points="907.356,1423.18 907.356,1413.73 "/>
<polyline clip-path="url(#clip710)" style="stroke:#000000; stroke-linecap:round; stroke-linejoin:round; stroke-width:4; stroke-opacity:1; fill:none" points="1009.81,1423.18 1009.81,1413.73 "/>
<polyline clip-path="url(#clip710)" style="stroke:#000000; stroke-linecap:round; stroke-linejoin:round; stroke-width:4; stroke-opacity:1; fill:none" points="1112.26,1423.18 1112.26,1413.73 "/>
<polyline clip-path="url(#clip710)" style="stroke:#000000; stroke-linecap:round; stroke-linejoin:round; stroke-width:4; stroke-opacity:1; fill:none" points="1214.71,1423.18 1214.71,1413.73 "/>
<polyline clip-path="url(#clip710)" style="stroke:#000000; stroke-linecap:round; stroke-linejoin:round; stroke-width:4; stroke-opacity:1; fill:none" points="1420.74,1423.18 1420.74,1413.73 "/>
<polyline clip-path="url(#clip710)" style="stroke:#000000; stroke-linecap:round; stroke-linejoin:round; stroke-width:4; stroke-opacity:1; fill:none" points="1524.32,1423.18 1524.32,1413.73 "/>
<polyline clip-path="url(#clip710)" style="stroke:#000000; stroke-linecap:round; stroke-linejoin:round; stroke-width:4; stroke-opacity:1; fill:none" points="1627.9,1423.18 1627.9,1413.73 "/>
<polyline clip-path="url(#clip710)" style="stroke:#000000; stroke-linecap:round; stroke-linejoin:round; stroke-width:4; stroke-opacity:1; fill:none" points="1731.47,1423.18 1731.47,1413.73 "/>
<polyline clip-path="url(#clip710)" style="stroke:#000000; stroke-linecap:round; stroke-linejoin:round; stroke-width:4; stroke-opacity:1; fill:none" points="1939.78,1423.18 1939.78,1413.73 "/>
<polyline clip-path="url(#clip710)" style="stroke:#000000; stroke-linecap:round; stroke-linejoin:round; stroke-width:4; stroke-opacity:1; fill:none" points="2044.51,1423.18 2044.51,1413.73 "/>
<polyline clip-path="url(#clip710)" style="stroke:#000000; stroke-linecap:round; stroke-linejoin:round; stroke-width:4; stroke-opacity:1; fill:none" points="2149.24,1423.18 2149.24,1413.73 "/>
<polyline clip-path="url(#clip710)" style="stroke:#000000; stroke-linecap:round; stroke-linejoin:round; stroke-width:4; stroke-opacity:1; fill:none" points="2253.96,1423.18 2253.96,1413.73 "/>
<path clip-path="url(#clip710)" d="M170.07 1481.64 L186.389 1481.64 L186.389 1485.58 L164.445 1485.58 L164.445 1481.64 Q167.107 1478.89 171.69 1474.26 Q176.297 1469.61 177.477 1468.27 Q179.722 1465.74 180.602 1464.01 Q181.505 1462.25 181.505 1460.56 Q181.505 1457.8 179.56 1456.07 Q177.639 1454.33 174.537 1454.33 Q172.338 1454.33 169.885 1455.09 Q167.454 1455.86 164.676 1457.41 L164.676 1452.69 Q167.5 1451.55 169.954 1450.97 Q172.408 1450.39 174.445 1450.39 Q179.815 1450.39 183.009 1453.08 Q186.204 1455.77 186.204 1460.26 Q186.204 1462.39 185.394 1464.31 Q184.607 1466.2 182.5 1468.8 Q181.922 1469.47 178.82 1472.69 Q175.718 1475.88 170.07 1481.64 Z" fill="#000000" fill-rule="nonzero" fill-opacity="1" /><path clip-path="url(#clip710)" d="M206.204 1454.1 Q202.593 1454.1 200.764 1457.66 Q198.958 1461.2 198.958 1468.33 Q198.958 1475.44 200.764 1479.01 Q202.593 1482.55 206.204 1482.55 Q209.838 1482.55 211.644 1479.01 Q213.472 1475.44 213.472 1468.33 Q213.472 1461.2 211.644 1457.66 Q209.838 1454.1 206.204 1454.1 M206.204 1450.39 Q212.014 1450.39 215.069 1455 Q218.148 1459.58 218.148 1468.33 Q218.148 1477.06 215.069 1481.67 Q212.014 1486.25 206.204 1486.25 Q200.394 1486.25 197.315 1481.67 Q194.259 1477.06 194.259 1468.33 Q194.259 1459.58 197.315 1455 Q200.394 1450.39 206.204 1450.39 Z" fill="#000000" fill-rule="nonzero" fill-opacity="1" /><path clip-path="url(#clip710)" d="M230.393 1481.64 L246.713 1481.64 L246.713 1485.58 L224.769 1485.58 L224.769 1481.64 Q227.431 1478.89 232.014 1474.26 Q236.62 1469.61 237.801 1468.27 Q240.046 1465.74 240.926 1464.01 Q241.829 1462.25 241.829 1460.56 Q241.829 1457.8 239.884 1456.07 Q237.963 1454.33 234.861 1454.33 Q232.662 1454.33 230.208 1455.09 Q227.778 1455.86 225 1457.41 L225 1452.69 Q227.824 1451.55 230.278 1450.97 Q232.731 1450.39 234.768 1450.39 Q240.139 1450.39 243.333 1453.08 Q246.528 1455.77 246.528 1460.26 Q246.528 1462.39 245.717 1464.31 Q244.93 1466.2 242.824 1468.8 Q242.245 1469.47 239.143 1472.69 Q236.042 1475.88 230.393 1481.64 Z" fill="#000000" fill-rule="nonzero" fill-opacity="1" /><path clip-path="url(#clip710)" d="M257.338 1481.64 L264.977 1481.64 L264.977 1455.28 L256.666 1456.95 L256.666 1452.69 L264.93 1451.02 L269.606 1451.02 L269.606 1481.64 L277.245 1481.64 L277.245 1485.58 L257.338 1485.58 L257.338 1481.64 Z" fill="#000000" fill-rule="nonzero" fill-opacity="1" /><path clip-path="url(#clip710)" d="M283.935 1470.7 L296.412 1470.7 L296.412 1474.49 L283.935 1474.49 L283.935 1470.7 Z" fill="#000000" fill-rule="nonzero" fill-opacity="1" /><path clip-path="url(#clip710)" d="M313.796 1454.1 Q310.185 1454.1 308.356 1457.66 Q306.55 1461.2 306.55 1468.33 Q306.55 1475.44 308.356 1479.01 Q310.185 1482.55 313.796 1482.55 Q317.43 1482.55 319.236 1479.01 Q321.064 1475.44 321.064 1468.33 Q321.064 1461.2 319.236 1457.66 Q317.43 1454.1 313.796 1454.1 M313.796 1450.39 Q319.606 1450.39 322.662 1455 Q325.74 1459.58 325.74 1468.33 Q325.74 1477.06 322.662 1481.67 Q319.606 1486.25 313.796 1486.25 Q307.986 1486.25 304.907 1481.67 Q301.851 1477.06 301.851 1468.33 Q301.851 1459.58 304.907 1455 Q307.986 1450.39 313.796 1450.39 Z" fill="#000000" fill-rule="nonzero" fill-opacity="1" /><path clip-path="url(#clip710)" d="M334.768 1481.64 L342.407 1481.64 L342.407 1455.28 L334.097 1456.95 L334.097 1452.69 L342.36 1451.02 L347.036 1451.02 L347.036 1481.64 L354.675 1481.64 L354.675 1485.58 L334.768 1485.58 L334.768 1481.64 Z" fill="#000000" fill-rule="nonzero" fill-opacity="1" /><path clip-path="url(#clip710)" d="M361.365 1470.7 L373.842 1470.7 L373.842 1474.49 L361.365 1474.49 L361.365 1470.7 Z" fill="#000000" fill-rule="nonzero" fill-opacity="1" /><path clip-path="url(#clip710)" d="M391.226 1454.1 Q387.615 1454.1 385.786 1457.66 Q383.981 1461.2 383.981 1468.33 Q383.981 1475.44 385.786 1479.01 Q387.615 1482.55 391.226 1482.55 Q394.86 1482.55 396.666 1479.01 Q398.494 1475.44 398.494 1468.33 Q398.494 1461.2 396.666 1457.66 Q394.86 1454.1 391.226 1454.1 M391.226 1450.39 Q397.036 1450.39 400.092 1455 Q403.17 1459.58 403.17 1468.33 Q403.17 1477.06 400.092 1481.67 Q397.036 1486.25 391.226 1486.25 Q385.416 1486.25 382.337 1481.67 Q379.282 1477.06 379.282 1468.33 Q379.282 1459.58 382.337 1455 Q385.416 1450.39 391.226 1450.39 Z" fill="#000000" fill-rule="nonzero" fill-opacity="1" /><path clip-path="url(#clip710)" d="M412.198 1481.64 L419.837 1481.64 L419.837 1455.28 L411.527 1456.95 L411.527 1452.69 L419.791 1451.02 L424.467 1451.02 L424.467 1481.64 L432.105 1481.64 L432.105 1485.58 L412.198 1485.58 L412.198 1481.64 Z" fill="#000000" fill-rule="nonzero" fill-opacity="1" /><path clip-path="url(#clip710)" d="M676.699 1481.64 L693.019 1481.64 L693.019 1485.58 L671.074 1485.58 L671.074 1481.64 Q673.736 1478.89 678.32 1474.26 Q682.926 1469.61 684.107 1468.27 Q686.352 1465.74 687.232 1464.01 Q688.134 1462.25 688.134 1460.56 Q688.134 1457.8 686.19 1456.07 Q684.269 1454.33 681.167 1454.33 Q678.968 1454.33 676.514 1455.09 Q674.083 1455.86 671.306 1457.41 L671.306 1452.69 Q674.13 1451.55 676.583 1450.97 Q679.037 1450.39 681.074 1450.39 Q686.444 1450.39 689.639 1453.08 Q692.833 1455.77 692.833 1460.26 Q692.833 1462.39 692.023 1464.31 Q691.236 1466.2 689.13 1468.8 Q688.551 1469.47 685.449 1472.69 Q682.347 1475.88 676.699 1481.64 Z" fill="#000000" fill-rule="nonzero" fill-opacity="1" /><path clip-path="url(#clip710)" d="M712.833 1454.1 Q709.222 1454.1 707.393 1457.66 Q705.588 1461.2 705.588 1468.33 Q705.588 1475.44 707.393 1479.01 Q709.222 1482.55 712.833 1482.55 Q716.467 1482.55 718.273 1479.01 Q720.102 1475.44 720.102 1468.33 Q720.102 1461.2 718.273 1457.66 Q716.467 1454.1 712.833 1454.1 M712.833 1450.39 Q718.643 1450.39 721.699 1455 Q724.778 1459.58 724.778 1468.33 Q724.778 1477.06 721.699 1481.67 Q718.643 1486.25 712.833 1486.25 Q707.023 1486.25 703.944 1481.67 Q700.889 1477.06 700.889 1468.33 Q700.889 1459.58 703.944 1455 Q707.023 1450.39 712.833 1450.39 Z" fill="#000000" fill-rule="nonzero" fill-opacity="1" /><path clip-path="url(#clip710)" d="M737.023 1481.64 L753.342 1481.64 L753.342 1485.58 L731.398 1485.58 L731.398 1481.64 Q734.06 1478.89 738.643 1474.26 Q743.25 1469.61 744.43 1468.27 Q746.676 1465.74 747.555 1464.01 Q748.458 1462.25 748.458 1460.56 Q748.458 1457.8 746.514 1456.07 Q744.592 1454.33 741.49 1454.33 Q739.291 1454.33 736.838 1455.09 Q734.407 1455.86 731.629 1457.41 L731.629 1452.69 Q734.453 1451.55 736.907 1450.97 Q739.361 1450.39 741.398 1450.39 Q746.768 1450.39 749.963 1453.08 Q753.157 1455.77 753.157 1460.26 Q753.157 1462.39 752.347 1464.31 Q751.56 1466.2 749.453 1468.8 Q748.875 1469.47 745.773 1472.69 Q742.671 1475.88 737.023 1481.64 Z" fill="#000000" fill-rule="nonzero" fill-opacity="1" /><path clip-path="url(#clip710)" d="M763.967 1481.64 L771.606 1481.64 L771.606 1455.28 L763.296 1456.95 L763.296 1452.69 L771.56 1451.02 L776.236 1451.02 L776.236 1481.64 L783.875 1481.64 L783.875 1485.58 L763.967 1485.58 L763.967 1481.64 Z" fill="#000000" fill-rule="nonzero" fill-opacity="1" /><path clip-path="url(#clip710)" d="M790.564 1470.7 L803.041 1470.7 L803.041 1474.49 L790.564 1474.49 L790.564 1470.7 Z" fill="#000000" fill-rule="nonzero" fill-opacity="1" /><path clip-path="url(#clip710)" d="M820.425 1454.1 Q816.814 1454.1 814.985 1457.66 Q813.18 1461.2 813.18 1468.33 Q813.18 1475.44 814.985 1479.01 Q816.814 1482.55 820.425 1482.55 Q824.059 1482.55 825.865 1479.01 Q827.694 1475.44 827.694 1468.33 Q827.694 1461.2 825.865 1457.66 Q824.059 1454.1 820.425 1454.1 M820.425 1450.39 Q826.235 1450.39 829.291 1455 Q832.37 1459.58 832.37 1468.33 Q832.37 1477.06 829.291 1481.67 Q826.235 1486.25 820.425 1486.25 Q814.615 1486.25 811.536 1481.67 Q808.481 1477.06 808.481 1468.33 Q808.481 1459.58 811.536 1455 Q814.615 1450.39 820.425 1450.39 Z" fill="#000000" fill-rule="nonzero" fill-opacity="1" /><path clip-path="url(#clip710)" d="M853.434 1455.09 L841.629 1473.54 L853.434 1473.54 L853.434 1455.09 M852.207 1451.02 L858.087 1451.02 L858.087 1473.54 L863.018 1473.54 L863.018 1477.43 L858.087 1477.43 L858.087 1485.58 L853.434 1485.58 L853.434 1477.43 L837.833 1477.43 L837.833 1472.92 L852.207 1451.02 Z" fill="#000000" fill-rule="nonzero" fill-opacity="1" /><path clip-path="url(#clip710)" d="M867.994 1470.7 L880.471 1470.7 L880.471 1474.49 L867.994 1474.49 L867.994 1470.7 Z" fill="#000000" fill-rule="nonzero" fill-opacity="1" /><path clip-path="url(#clip710)" d="M897.855 1454.1 Q894.244 1454.1 892.416 1457.66 Q890.61 1461.2 890.61 1468.33 Q890.61 1475.44 892.416 1479.01 Q894.244 1482.55 897.855 1482.55 Q901.49 1482.55 903.295 1479.01 Q905.124 1475.44 905.124 1468.33 Q905.124 1461.2 903.295 1457.66 Q901.49 1454.1 897.855 1454.1 M897.855 1450.39 Q903.666 1450.39 906.721 1455 Q909.8 1459.58 909.8 1468.33 Q909.8 1477.06 906.721 1481.67 Q903.666 1486.25 897.855 1486.25 Q892.045 1486.25 888.967 1481.67 Q885.911 1477.06 885.911 1468.33 Q885.911 1459.58 888.967 1455 Q892.045 1450.39 897.855 1450.39 Z" fill="#000000" fill-rule="nonzero" fill-opacity="1" /><path clip-path="url(#clip710)" d="M918.827 1481.64 L926.466 1481.64 L926.466 1455.28 L918.156 1456.95 L918.156 1452.69 L926.42 1451.02 L931.096 1451.02 L931.096 1481.64 L938.735 1481.64 L938.735 1485.58 L918.827 1485.58 L918.827 1481.64 Z" fill="#000000" fill-rule="nonzero" fill-opacity="1" /><path clip-path="url(#clip710)" d="M1188.96 1481.64 L1205.28 1481.64 L1205.28 1485.58 L1183.33 1485.58 L1183.33 1481.64 Q1185.99 1478.89 1190.58 1474.26 Q1195.18 1469.61 1196.37 1468.27 Q1198.61 1465.74 1199.49 1464.01 Q1200.39 1462.25 1200.39 1460.56 Q1200.39 1457.8 1198.45 1456.07 Q1196.53 1454.33 1193.43 1454.33 Q1191.23 1454.33 1188.77 1455.09 Q1186.34 1455.86 1183.56 1457.41 L1183.56 1452.69 Q1186.39 1451.55 1188.84 1450.97 Q1191.3 1450.39 1193.33 1450.39 Q1198.7 1450.39 1201.9 1453.08 Q1205.09 1455.77 1205.09 1460.26 Q1205.09 1462.39 1204.28 1464.31 Q1203.49 1466.2 1201.39 1468.8 Q1200.81 1469.47 1197.71 1472.69 Q1194.61 1475.88 1188.96 1481.64 Z" fill="#000000" fill-rule="nonzero" fill-opacity="1" /><path clip-path="url(#clip710)" d="M1225.09 1454.1 Q1221.48 1454.1 1219.65 1457.66 Q1217.85 1461.2 1217.85 1468.33 Q1217.85 1475.44 1219.65 1479.01 Q1221.48 1482.55 1225.09 1482.55 Q1228.73 1482.55 1230.53 1479.01 Q1232.36 1475.44 1232.36 1468.33 Q1232.36 1461.2 1230.53 1457.66 Q1228.73 1454.1 1225.09 1454.1 M1225.09 1450.39 Q1230.9 1450.39 1233.96 1455 Q1237.04 1459.58 1237.04 1468.33 Q1237.04 1477.06 1233.96 1481.67 Q1230.9 1486.25 1225.09 1486.25 Q1219.28 1486.25 1216.2 1481.67 Q1213.15 1477.06 1213.15 1468.33 Q1213.15 1459.58 1216.2 1455 Q1219.28 1450.39 1225.09 1450.39 Z" fill="#000000" fill-rule="nonzero" fill-opacity="1" /><path clip-path="url(#clip710)" d="M1249.28 1481.64 L1265.6 1481.64 L1265.6 1485.58 L1243.66 1485.58 L1243.66 1481.64 Q1246.32 1478.89 1250.9 1474.26 Q1255.51 1469.61 1256.69 1468.27 Q1258.93 1465.74 1259.81 1464.01 Q1260.72 1462.25 1260.72 1460.56 Q1260.72 1457.8 1258.77 1456.07 Q1256.85 1454.33 1253.75 1454.33 Q1251.55 1454.33 1249.1 1455.09 Q1246.67 1455.86 1243.89 1457.41 L1243.89 1452.69 Q1246.71 1451.55 1249.17 1450.97 Q1251.62 1450.39 1253.66 1450.39 Q1259.03 1450.39 1262.22 1453.08 Q1265.42 1455.77 1265.42 1460.26 Q1265.42 1462.39 1264.61 1464.31 Q1263.82 1466.2 1261.71 1468.8 Q1261.13 1469.47 1258.03 1472.69 Q1254.93 1475.88 1249.28 1481.64 Z" fill="#000000" fill-rule="nonzero" fill-opacity="1" /><path clip-path="url(#clip710)" d="M1276.23 1481.64 L1283.86 1481.64 L1283.86 1455.28 L1275.55 1456.95 L1275.55 1452.69 L1283.82 1451.02 L1288.49 1451.02 L1288.49 1481.64 L1296.13 1481.64 L1296.13 1485.58 L1276.23 1485.58 L1276.23 1481.64 Z" fill="#000000" fill-rule="nonzero" fill-opacity="1" /><path clip-path="url(#clip710)" d="M1302.82 1470.7 L1315.3 1470.7 L1315.3 1474.49 L1302.82 1474.49 L1302.82 1470.7 Z" fill="#000000" fill-rule="nonzero" fill-opacity="1" /><path clip-path="url(#clip710)" d="M1332.68 1454.1 Q1329.07 1454.1 1327.24 1457.66 Q1325.44 1461.2 1325.44 1468.33 Q1325.44 1475.44 1327.24 1479.01 Q1329.07 1482.55 1332.68 1482.55 Q1336.32 1482.55 1338.12 1479.01 Q1339.95 1475.44 1339.95 1468.33 Q1339.95 1461.2 1338.12 1457.66 Q1336.32 1454.1 1332.68 1454.1 M1332.68 1450.39 Q1338.49 1450.39 1341.55 1455 Q1344.63 1459.58 1344.63 1468.33 Q1344.63 1477.06 1341.55 1481.67 Q1338.49 1486.25 1332.68 1486.25 Q1326.87 1486.25 1323.8 1481.67 Q1320.74 1477.06 1320.74 1468.33 Q1320.74 1459.58 1323.8 1455 Q1326.87 1450.39 1332.68 1450.39 Z" fill="#000000" fill-rule="nonzero" fill-opacity="1" /><path clip-path="url(#clip710)" d="M1351.67 1451.02 L1373.89 1451.02 L1373.89 1453.01 L1361.34 1485.58 L1356.46 1485.58 L1368.26 1454.96 L1351.67 1454.96 L1351.67 1451.02 Z" fill="#000000" fill-rule="nonzero" fill-opacity="1" /><path clip-path="url(#clip710)" d="M1380.25 1470.7 L1392.73 1470.7 L1392.73 1474.49 L1380.25 1474.49 L1380.25 1470.7 Z" fill="#000000" fill-rule="nonzero" fill-opacity="1" /><path clip-path="url(#clip710)" d="M1410.11 1454.1 Q1406.5 1454.1 1404.67 1457.66 Q1402.87 1461.2 1402.87 1468.33 Q1402.87 1475.44 1404.67 1479.01 Q1406.5 1482.55 1410.11 1482.55 Q1413.75 1482.55 1415.55 1479.01 Q1417.38 1475.44 1417.38 1468.33 Q1417.38 1461.2 1415.55 1457.66 Q1413.75 1454.1 1410.11 1454.1 M1410.11 1450.39 Q1415.92 1450.39 1418.98 1455 Q1422.06 1459.58 1422.06 1468.33 Q1422.06 1477.06 1418.98 1481.67 Q1415.92 1486.25 1410.11 1486.25 Q1404.3 1486.25 1401.23 1481.67 Q1398.17 1477.06 1398.17 1468.33 Q1398.17 1459.58 1401.23 1455 Q1404.3 1450.39 1410.11 1450.39 Z" fill="#000000" fill-rule="nonzero" fill-opacity="1" /><path clip-path="url(#clip710)" d="M1431.09 1481.64 L1438.72 1481.64 L1438.72 1455.28 L1430.41 1456.95 L1430.41 1452.69 L1438.68 1451.02 L1443.35 1451.02 L1443.35 1481.64 L1450.99 1481.64 L1450.99 1485.58 L1431.09 1485.58 L1431.09 1481.64 Z" fill="#000000" fill-rule="nonzero" fill-opacity="1" /><path clip-path="url(#clip710)" d="M1706.85 1481.64 L1723.17 1481.64 L1723.17 1485.58 L1701.22 1485.58 L1701.22 1481.64 Q1703.88 1478.89 1708.47 1474.26 Q1713.07 1469.61 1714.25 1468.27 Q1716.5 1465.74 1717.38 1464.01 Q1718.28 1462.25 1718.28 1460.56 Q1718.28 1457.8 1716.34 1456.07 Q1714.42 1454.33 1711.31 1454.33 Q1709.11 1454.33 1706.66 1455.09 Q1704.23 1455.86 1701.45 1457.41 L1701.45 1452.69 Q1704.28 1451.55 1706.73 1450.97 Q1709.18 1450.39 1711.22 1450.39 Q1716.59 1450.39 1719.79 1453.08 Q1722.98 1455.77 1722.98 1460.26 Q1722.98 1462.39 1722.17 1464.31 Q1721.38 1466.2 1719.28 1468.8 Q1718.7 1469.47 1715.6 1472.69 Q1712.49 1475.88 1706.85 1481.64 Z" fill="#000000" fill-rule="nonzero" fill-opacity="1" /><path clip-path="url(#clip710)" d="M1742.98 1454.1 Q1739.37 1454.1 1737.54 1457.66 Q1735.73 1461.2 1735.73 1468.33 Q1735.73 1475.44 1737.54 1479.01 Q1739.37 1482.55 1742.98 1482.55 Q1746.61 1482.55 1748.42 1479.01 Q1750.25 1475.44 1750.25 1468.33 Q1750.25 1461.2 1748.42 1457.66 Q1746.61 1454.1 1742.98 1454.1 M1742.98 1450.39 Q1748.79 1450.39 1751.85 1455 Q1754.92 1459.58 1754.92 1468.33 Q1754.92 1477.06 1751.85 1481.67 Q1748.79 1486.25 1742.98 1486.25 Q1737.17 1486.25 1734.09 1481.67 Q1731.04 1477.06 1731.04 1468.33 Q1731.04 1459.58 1734.09 1455 Q1737.17 1450.39 1742.98 1450.39 Z" fill="#000000" fill-rule="nonzero" fill-opacity="1" /><path clip-path="url(#clip710)" d="M1767.17 1481.64 L1783.49 1481.64 L1783.49 1485.58 L1761.54 1485.58 L1761.54 1481.64 Q1764.21 1478.89 1768.79 1474.26 Q1773.4 1469.61 1774.58 1468.27 Q1776.82 1465.74 1777.7 1464.01 Q1778.6 1462.25 1778.6 1460.56 Q1778.6 1457.8 1776.66 1456.07 Q1774.74 1454.33 1771.64 1454.33 Q1769.44 1454.33 1766.98 1455.09 Q1764.55 1455.86 1761.78 1457.41 L1761.78 1452.69 Q1764.6 1451.55 1767.05 1450.97 Q1769.51 1450.39 1771.54 1450.39 Q1776.91 1450.39 1780.11 1453.08 Q1783.3 1455.77 1783.3 1460.26 Q1783.3 1462.39 1782.49 1464.31 Q1781.71 1466.2 1779.6 1468.8 Q1779.02 1469.47 1775.92 1472.69 Q1772.82 1475.88 1767.17 1481.64 Z" fill="#000000" fill-rule="nonzero" fill-opacity="1" /><path clip-path="url(#clip710)" d="M1794.11 1481.64 L1801.75 1481.64 L1801.75 1455.28 L1793.44 1456.95 L1793.44 1452.69 L1801.71 1451.02 L1806.38 1451.02 L1806.38 1481.64 L1814.02 1481.64 L1814.02 1485.58 L1794.11 1485.58 L1794.11 1481.64 Z" fill="#000000" fill-rule="nonzero" fill-opacity="1" /><path clip-path="url(#clip710)" d="M1820.71 1470.7 L1833.19 1470.7 L1833.19 1474.49 L1820.71 1474.49 L1820.71 1470.7 Z" fill="#000000" fill-rule="nonzero" fill-opacity="1" /><path clip-path="url(#clip710)" d="M1841.38 1481.64 L1849.02 1481.64 L1849.02 1455.28 L1840.71 1456.95 L1840.71 1452.69 L1848.97 1451.02 L1853.65 1451.02 L1853.65 1481.64 L1861.29 1481.64 L1861.29 1485.58 L1841.38 1485.58 L1841.38 1481.64 Z" fill="#000000" fill-rule="nonzero" fill-opacity="1" /><path clip-path="url(#clip710)" d="M1880.73 1454.1 Q1877.12 1454.1 1875.29 1457.66 Q1873.49 1461.2 1873.49 1468.33 Q1873.49 1475.44 1875.29 1479.01 Q1877.12 1482.55 1880.73 1482.55 Q1884.37 1482.55 1886.17 1479.01 Q1888 1475.44 1888 1468.33 Q1888 1461.2 1886.17 1457.66 Q1884.37 1454.1 1880.73 1454.1 M1880.73 1450.39 Q1886.54 1450.39 1889.6 1455 Q1892.68 1459.58 1892.68 1468.33 Q1892.68 1477.06 1889.6 1481.67 Q1886.54 1486.25 1880.73 1486.25 Q1874.92 1486.25 1871.84 1481.67 Q1868.79 1477.06 1868.79 1468.33 Q1868.79 1459.58 1871.84 1455 Q1874.92 1450.39 1880.73 1450.39 Z" fill="#000000" fill-rule="nonzero" fill-opacity="1" /><path clip-path="url(#clip710)" d="M1898.14 1470.7 L1910.62 1470.7 L1910.62 1474.49 L1898.14 1474.49 L1898.14 1470.7 Z" fill="#000000" fill-rule="nonzero" fill-opacity="1" /><path clip-path="url(#clip710)" d="M1928 1454.1 Q1924.39 1454.1 1922.56 1457.66 Q1920.76 1461.2 1920.76 1468.33 Q1920.76 1475.44 1922.56 1479.01 Q1924.39 1482.55 1928 1482.55 Q1931.64 1482.55 1933.44 1479.01 Q1935.27 1475.44 1935.27 1468.33 Q1935.27 1461.2 1933.44 1457.66 Q1931.64 1454.1 1928 1454.1 M1928 1450.39 Q1933.81 1450.39 1936.87 1455 Q1939.95 1459.58 1939.95 1468.33 Q1939.95 1477.06 1936.87 1481.67 Q1933.81 1486.25 1928 1486.25 Q1922.19 1486.25 1919.11 1481.67 Q1916.06 1477.06 1916.06 1468.33 Q1916.06 1459.58 1919.11 1455 Q1922.19 1450.39 1928 1450.39 Z" fill="#000000" fill-rule="nonzero" fill-opacity="1" /><path clip-path="url(#clip710)" d="M1948.97 1481.64 L1956.61 1481.64 L1956.61 1455.28 L1948.3 1456.95 L1948.3 1452.69 L1956.57 1451.02 L1961.24 1451.02 L1961.24 1481.64 L1968.88 1481.64 L1968.88 1485.58 L1948.97 1485.58 L1948.97 1481.64 Z" fill="#000000" fill-rule="nonzero" fill-opacity="1" /><path clip-path="url(#clip710)" d="M1261.6 1537.81 L1261.6 1518.52 L1267.45 1518.52 L1267.45 1568.04 L1261.6 1568.04 L1261.6 1562.7 Q1259.75 1565.88 1256.92 1567.44 Q1254.12 1568.97 1250.17 1568.97 Q1243.71 1568.97 1239.64 1563.81 Q1235.59 1558.65 1235.59 1550.25 Q1235.59 1541.85 1239.64 1536.69 Q1243.71 1531.54 1250.17 1531.54 Q1254.12 1531.54 1256.92 1533.1 Q1259.75 1534.62 1261.6 1537.81 M1241.64 1550.25 Q1241.64 1556.71 1244.28 1560.4 Q1246.96 1564.07 1251.6 1564.07 Q1256.25 1564.07 1258.92 1560.4 Q1261.6 1556.71 1261.6 1550.25 Q1261.6 1543.79 1258.92 1540.13 Q1256.25 1536.44 1251.6 1536.44 Q1246.96 1536.44 1244.28 1540.13 Q1241.64 1543.79 1241.64 1550.25 Z" fill="#000000" fill-rule="nonzero" fill-opacity="1" /><path clip-path="url(#clip710)" d="M1295.72 1550.12 Q1288.62 1550.12 1285.88 1551.75 Q1283.15 1553.37 1283.15 1557.29 Q1283.15 1560.4 1285.18 1562.25 Q1287.25 1564.07 1290.78 1564.07 Q1295.65 1564.07 1298.58 1560.63 Q1301.54 1557.16 1301.54 1551.43 L1301.54 1550.12 L1295.72 1550.12 M1307.4 1547.71 L1307.4 1568.04 L1301.54 1568.04 L1301.54 1562.63 Q1299.54 1565.88 1296.55 1567.44 Q1293.55 1568.97 1289.22 1568.97 Q1283.75 1568.97 1280.5 1565.91 Q1277.29 1562.82 1277.29 1557.67 Q1277.29 1551.65 1281.3 1548.6 Q1285.34 1545.54 1293.33 1545.54 L1301.54 1545.54 L1301.54 1544.97 Q1301.54 1540.93 1298.87 1538.73 Q1296.23 1536.5 1291.42 1536.5 Q1288.37 1536.5 1285.47 1537.23 Q1282.57 1537.97 1279.9 1539.43 L1279.9 1534.02 Q1283.11 1532.78 1286.14 1532.17 Q1289.16 1531.54 1292.03 1531.54 Q1299.76 1531.54 1303.58 1535.55 Q1307.4 1539.56 1307.4 1547.71 Z" fill="#000000" fill-rule="nonzero" fill-opacity="1" /><path clip-path="url(#clip710)" d="M1325.25 1522.27 L1325.25 1532.4 L1337.32 1532.4 L1337.32 1536.95 L1325.25 1536.95 L1325.25 1556.3 Q1325.25 1560.66 1326.43 1561.9 Q1327.64 1563.14 1331.3 1563.14 L1337.32 1563.14 L1337.32 1568.04 L1331.3 1568.04 Q1324.52 1568.04 1321.94 1565.53 Q1319.37 1562.98 1319.37 1556.3 L1319.37 1536.95 L1315.07 1536.95 L1315.07 1532.4 L1319.37 1532.4 L1319.37 1522.27 L1325.25 1522.27 Z" fill="#000000" fill-rule="nonzero" fill-opacity="1" /><path clip-path="url(#clip710)" d="M1375.51 1548.76 L1375.51 1551.62 L1348.59 1551.62 Q1348.97 1557.67 1352.21 1560.85 Q1355.49 1564 1361.32 1564 Q1364.69 1564 1367.84 1563.17 Q1371.02 1562.35 1374.14 1560.69 L1374.14 1566.23 Q1370.99 1567.57 1367.68 1568.27 Q1364.37 1568.97 1360.97 1568.97 Q1352.44 1568.97 1347.44 1564 Q1342.47 1559.04 1342.47 1550.57 Q1342.47 1541.82 1347.18 1536.69 Q1351.93 1531.54 1359.95 1531.54 Q1367.14 1531.54 1371.31 1536.18 Q1375.51 1540.8 1375.51 1548.76 M1369.66 1547.04 Q1369.59 1542.23 1366.95 1539.37 Q1364.34 1536.5 1360.01 1536.5 Q1355.11 1536.5 1352.15 1539.27 Q1349.22 1542.04 1348.78 1547.07 L1369.66 1547.04 Z" fill="#000000" fill-rule="nonzero" fill-opacity="1" /><polyline clip-path="url(#clip712)" style="stroke:#000000; stroke-linecap:round; stroke-linejoin:round; stroke-width:2; stroke-opacity:0.1; fill:none" points="258.35,1217.48 2352.76,1217.48 "/>
<polyline clip-path="url(#clip712)" style="stroke:#000000; stroke-linecap:round; stroke-linejoin:round; stroke-width:2; stroke-opacity:0.1; fill:none" points="258.35,936.755 2352.76,936.755 "/>
<polyline clip-path="url(#clip712)" style="stroke:#000000; stroke-linecap:round; stroke-linejoin:round; stroke-width:2; stroke-opacity:0.1; fill:none" points="258.35,656.032 2352.76,656.032 "/>
<polyline clip-path="url(#clip712)" style="stroke:#000000; stroke-linecap:round; stroke-linejoin:round; stroke-width:2; stroke-opacity:0.1; fill:none" points="258.35,375.309 2352.76,375.309 "/>
<polyline clip-path="url(#clip710)" style="stroke:#000000; stroke-linecap:round; stroke-linejoin:round; stroke-width:4; stroke-opacity:1; fill:none" points="258.35,1423.18 258.35,123.472 "/>
<polyline clip-path="url(#clip710)" style="stroke:#000000; stroke-linecap:round; stroke-linejoin:round; stroke-width:4; stroke-opacity:1; fill:none" points="258.35,1217.48 277.247,1217.48 "/>
<polyline clip-path="url(#clip710)" style="stroke:#000000; stroke-linecap:round; stroke-linejoin:round; stroke-width:4; stroke-opacity:1; fill:none" points="258.35,936.755 277.247,936.755 "/>
<polyline clip-path="url(#clip710)" style="stroke:#000000; stroke-linecap:round; stroke-linejoin:round; stroke-width:4; stroke-opacity:1; fill:none" points="258.35,656.032 277.247,656.032 "/>
<polyline clip-path="url(#clip710)" style="stroke:#000000; stroke-linecap:round; stroke-linejoin:round; stroke-width:4; stroke-opacity:1; fill:none" points="258.35,375.309 277.247,375.309 "/>
<path clip-path="url(#clip710)" d="M116.323 1237.27 L123.962 1237.27 L123.962 1210.9 L115.652 1212.57 L115.652 1208.31 L123.916 1206.65 L128.592 1206.65 L128.592 1237.27 L136.231 1237.27 L136.231 1241.21 L116.323 1241.21 L116.323 1237.27 Z" fill="#000000" fill-rule="nonzero" fill-opacity="1" /><path clip-path="url(#clip710)" d="M155.675 1209.72 Q152.064 1209.72 150.235 1213.29 Q148.43 1216.83 148.43 1223.96 Q148.43 1231.07 150.235 1234.63 Q152.064 1238.17 155.675 1238.17 Q159.309 1238.17 161.115 1234.63 Q162.943 1231.07 162.943 1223.96 Q162.943 1216.83 161.115 1213.29 Q159.309 1209.72 155.675 1209.72 M155.675 1206.02 Q161.485 1206.02 164.541 1210.63 Q167.619 1215.21 167.619 1223.96 Q167.619 1232.69 164.541 1237.29 Q161.485 1241.88 155.675 1241.88 Q149.865 1241.88 146.786 1237.29 Q143.73 1232.69 143.73 1223.96 Q143.73 1215.21 146.786 1210.63 Q149.865 1206.02 155.675 1206.02 Z" fill="#000000" fill-rule="nonzero" fill-opacity="1" /><path clip-path="url(#clip710)" d="M168.804 1185.71 L183.719 1185.71 L183.719 1188.91 L172.284 1188.91 L172.284 1195.8 Q173.111 1195.51 173.939 1195.38 Q174.766 1195.23 175.594 1195.23 Q180.296 1195.23 183.042 1197.81 Q185.788 1200.38 185.788 1204.79 Q185.788 1209.32 182.966 1211.84 Q180.145 1214.34 175.011 1214.34 Q173.243 1214.34 171.4 1214.04 Q169.575 1213.74 167.619 1213.14 L167.619 1209.32 Q169.312 1210.24 171.117 1210.69 Q172.923 1211.14 174.935 1211.14 Q178.189 1211.14 180.089 1209.43 Q181.988 1207.72 181.988 1204.79 Q181.988 1201.85 180.089 1200.14 Q178.189 1198.43 174.935 1198.43 Q173.412 1198.43 171.889 1198.77 Q170.384 1199.11 168.804 1199.82 L168.804 1185.71 Z" fill="#000000" fill-rule="nonzero" fill-opacity="1" /><path clip-path="url(#clip710)" d="M193.273 1209.02 L197.241 1209.02 L197.241 1213.79 L193.273 1213.79 L193.273 1209.02 Z" fill="#000000" fill-rule="nonzero" fill-opacity="1" /><path clip-path="url(#clip710)" d="M206.175 1210.6 L212.382 1210.6 L212.382 1189.18 L205.63 1190.53 L205.63 1187.07 L212.344 1185.71 L216.143 1185.71 L216.143 1210.6 L222.35 1210.6 L222.35 1213.79 L206.175 1213.79 L206.175 1210.6 Z" fill="#000000" fill-rule="nonzero" fill-opacity="1" /><path clip-path="url(#clip710)" d="M114.931 956.547 L122.57 956.547 L122.57 930.182 L114.26 931.848 L114.26 927.589 L122.524 925.922 L127.2 925.922 L127.2 956.547 L134.839 956.547 L134.839 960.482 L114.931 960.482 L114.931 956.547 Z" fill="#000000" fill-rule="nonzero" fill-opacity="1" /><path clip-path="url(#clip710)" d="M154.283 929.001 Q150.672 929.001 148.843 932.566 Q147.038 936.107 147.038 943.237 Q147.038 950.344 148.843 953.908 Q150.672 957.45 154.283 957.45 Q157.917 957.45 159.723 953.908 Q161.552 950.344 161.552 943.237 Q161.552 936.107 159.723 932.566 Q157.917 929.001 154.283 929.001 M154.283 925.297 Q160.093 925.297 163.149 929.904 Q166.227 934.487 166.227 943.237 Q166.227 951.964 163.149 956.57 Q160.093 961.154 154.283 961.154 Q148.473 961.154 145.394 956.57 Q142.339 951.964 142.339 943.237 Q142.339 934.487 145.394 929.904 Q148.473 925.297 154.283 925.297 Z" fill="#000000" fill-rule="nonzero" fill-opacity="1" /><path clip-path="url(#clip710)" d="M167.412 904.992 L182.327 904.992 L182.327 908.189 L170.892 908.189 L170.892 915.073 Q171.719 914.791 172.547 914.659 Q173.374 914.509 174.202 914.509 Q178.904 914.509 181.65 917.085 Q184.396 919.662 184.396 924.063 Q184.396 928.596 181.575 931.116 Q178.753 933.617 173.619 933.617 Q171.851 933.617 170.008 933.316 Q168.183 933.016 166.227 932.414 L166.227 928.596 Q167.92 929.517 169.726 929.969 Q171.531 930.42 173.544 930.42 Q176.797 930.42 178.697 928.709 Q180.597 926.997 180.597 924.063 Q180.597 921.129 178.697 919.418 Q176.797 917.706 173.544 917.706 Q172.02 917.706 170.497 918.045 Q168.992 918.383 167.412 919.098 L167.412 904.992 Z" fill="#000000" fill-rule="nonzero" fill-opacity="1" /><path clip-path="url(#clip710)" d="M191.881 928.295 L195.85 928.295 L195.85 933.072 L191.881 933.072 L191.881 928.295 Z" fill="#000000" fill-rule="nonzero" fill-opacity="1" /><path clip-path="url(#clip710)" d="M214.563 908.302 L204.971 923.292 L214.563 923.292 L214.563 908.302 M213.567 904.992 L218.344 904.992 L218.344 923.292 L222.35 923.292 L222.35 926.452 L218.344 926.452 L218.344 933.072 L214.563 933.072 L214.563 926.452 L201.887 926.452 L201.887 922.784 L213.567 904.992 Z" fill="#000000" fill-rule="nonzero" fill-opacity="1" /><path clip-path="url(#clip710)" d="M116.06 675.824 L123.699 675.824 L123.699 649.459 L115.389 651.126 L115.389 646.866 L123.652 645.2 L128.328 645.2 L128.328 675.824 L135.967 675.824 L135.967 679.76 L116.06 679.76 L116.06 675.824 Z" fill="#000000" fill-rule="nonzero" fill-opacity="1" /><path clip-path="url(#clip710)" d="M155.412 648.278 Q151.8 648.278 149.972 651.843 Q148.166 655.385 148.166 662.514 Q148.166 669.621 149.972 673.186 Q151.8 676.727 155.412 676.727 Q159.046 676.727 160.851 673.186 Q162.68 669.621 162.68 662.514 Q162.68 655.385 160.851 651.843 Q159.046 648.278 155.412 648.278 M155.412 644.575 Q161.222 644.575 164.277 649.181 Q167.356 653.764 167.356 662.514 Q167.356 671.241 164.277 675.848 Q161.222 680.431 155.412 680.431 Q149.601 680.431 146.523 675.848 Q143.467 671.241 143.467 662.514 Q143.467 653.764 146.523 649.181 Q149.601 644.575 155.412 644.575 Z" fill="#000000" fill-rule="nonzero" fill-opacity="1" /><path clip-path="url(#clip710)" d="M168.541 624.269 L183.455 624.269 L183.455 627.467 L172.02 627.467 L172.02 634.35 Q172.848 634.068 173.675 633.936 Q174.503 633.786 175.33 633.786 Q180.032 633.786 182.778 636.363 Q185.524 638.939 185.524 643.34 Q185.524 647.873 182.703 650.393 Q179.882 652.895 174.747 652.895 Q172.979 652.895 171.136 652.594 Q169.312 652.293 167.356 651.691 L167.356 647.873 Q169.049 648.795 170.854 649.246 Q172.66 649.697 174.672 649.697 Q177.926 649.697 179.825 647.986 Q181.725 646.274 181.725 643.34 Q181.725 640.406 179.825 638.695 Q177.926 636.983 174.672 636.983 Q173.149 636.983 171.625 637.322 Q170.121 637.66 168.541 638.375 L168.541 624.269 Z" fill="#000000" fill-rule="nonzero" fill-opacity="1" /><path clip-path="url(#clip710)" d="M193.01 647.572 L196.978 647.572 L196.978 652.349 L193.01 652.349 L193.01 647.572 Z" fill="#000000" fill-rule="nonzero" fill-opacity="1" /><path clip-path="url(#clip710)" d="M204.294 624.269 L222.35 624.269 L222.35 625.887 L212.156 652.349 L208.188 652.349 L217.78 627.467 L204.294 627.467 L204.294 624.269 Z" fill="#000000" fill-rule="nonzero" fill-opacity="1" /><path clip-path="url(#clip710)" d="M115.044 395.102 L122.683 395.102 L122.683 368.736 L114.373 370.403 L114.373 366.144 L122.637 364.477 L127.313 364.477 L127.313 395.102 L134.952 395.102 L134.952 399.037 L115.044 399.037 L115.044 395.102 Z" fill="#000000" fill-rule="nonzero" fill-opacity="1" /><path clip-path="url(#clip710)" d="M154.396 367.556 Q150.785 367.556 148.956 371.12 Q147.151 374.662 147.151 381.792 Q147.151 388.898 148.956 392.463 Q150.785 396.005 154.396 396.005 Q158.03 396.005 159.836 392.463 Q161.664 388.898 161.664 381.792 Q161.664 374.662 159.836 371.12 Q158.03 367.556 154.396 367.556 M154.396 363.852 Q160.206 363.852 163.262 368.458 Q166.34 373.042 166.34 381.792 Q166.34 390.518 163.262 395.125 Q160.206 399.708 154.396 399.708 Q148.586 399.708 145.507 395.125 Q142.452 390.518 142.452 381.792 Q142.452 373.042 145.507 368.458 Q148.586 363.852 154.396 363.852 Z" fill="#000000" fill-rule="nonzero" fill-opacity="1" /><path clip-path="url(#clip710)" d="M176.365 356.072 Q173.807 356.072 172.302 357.822 Q170.817 359.571 170.817 362.618 Q170.817 365.646 172.302 367.414 Q173.807 369.163 176.365 369.163 Q178.923 369.163 180.409 367.414 Q181.913 365.646 181.913 362.618 Q181.913 359.571 180.409 357.822 Q178.923 356.072 176.365 356.072 M183.907 344.167 L183.907 347.628 Q182.477 346.951 181.01 346.593 Q179.562 346.236 178.133 346.236 Q174.371 346.236 172.378 348.775 Q170.403 351.314 170.121 356.449 Q171.23 354.812 172.904 353.947 Q174.578 353.063 176.591 353.063 Q180.822 353.063 183.267 355.64 Q185.731 358.198 185.731 362.618 Q185.731 366.943 183.173 369.558 Q180.615 372.172 176.365 372.172 Q171.494 372.172 168.917 368.448 Q166.34 364.705 166.34 357.615 Q166.34 350.957 169.5 347.007 Q172.66 343.039 177.982 343.039 Q179.412 343.039 180.86 343.321 Q182.327 343.603 183.907 344.167 Z" fill="#000000" fill-rule="nonzero" fill-opacity="1" /><path clip-path="url(#clip710)" d="M192.276 366.849 L196.245 366.849 L196.245 371.626 L192.276 371.626 L192.276 366.849 Z" fill="#000000" fill-rule="nonzero" fill-opacity="1" /><path clip-path="url(#clip710)" d="M212.645 346.048 Q209.711 346.048 208.225 348.944 Q206.758 351.822 206.758 357.615 Q206.758 363.389 208.225 366.285 Q209.711 369.163 212.645 369.163 Q215.598 369.163 217.065 366.285 Q218.551 363.389 218.551 357.615 Q218.551 351.822 217.065 348.944 Q215.598 346.048 212.645 346.048 M212.645 343.039 Q217.366 343.039 219.848 346.781 Q222.35 350.505 222.35 357.615 Q222.35 364.705 219.848 368.448 Q217.366 372.172 212.645 372.172 Q207.924 372.172 205.423 368.448 Q202.94 364.705 202.94 357.615 Q202.94 350.505 205.423 346.781 Q207.924 343.039 212.645 343.039 Z" fill="#000000" fill-rule="nonzero" fill-opacity="1" /><path clip-path="url(#clip710)" d="M21.7677 1084.27 L39.6235 1084.27 L39.6235 1076.19 Q39.6235 1071.7 37.3 1069.25 Q34.9765 1066.8 30.6797 1066.8 Q26.4147 1066.8 24.0912 1069.25 Q21.7677 1071.7 21.7677 1076.19 L21.7677 1084.27 M16.4842 1090.7 L16.4842 1076.19 Q16.4842 1068.2 20.1126 1064.13 Q23.7092 1060.02 30.6797 1060.02 Q37.7138 1060.02 41.3104 1064.13 Q44.907 1068.2 44.907 1076.19 L44.907 1084.27 L64.0042 1084.27 L64.0042 1090.7 L16.4842 1090.7 Z" fill="#000000" fill-rule="nonzero" fill-opacity="1" /><path clip-path="url(#clip710)" d="M32.4621 1040.16 Q32.4621 1044.87 36.1542 1047.61 Q39.8145 1050.35 46.212 1050.35 Q52.6095 1050.35 56.3017 1047.64 Q59.9619 1044.9 59.9619 1040.16 Q59.9619 1035.48 56.2698 1032.74 Q52.5777 1030.01 46.212 1030.01 Q39.8781 1030.01 36.186 1032.74 Q32.4621 1035.48 32.4621 1040.16 M27.4968 1040.16 Q27.4968 1032.52 32.4621 1028.16 Q37.4273 1023.8 46.212 1023.8 Q54.9649 1023.8 59.9619 1028.16 Q64.9272 1032.52 64.9272 1040.16 Q64.9272 1047.83 59.9619 1052.19 Q54.9649 1056.52 46.212 1056.52 Q37.4273 1056.52 32.4621 1052.19 Q27.4968 1047.83 27.4968 1040.16 Z" fill="#000000" fill-rule="nonzero" fill-opacity="1" /><path clip-path="url(#clip710)" d="M33.8307 993.436 Q33.2578 994.423 33.0032 995.601 Q32.7167 996.746 32.7167 998.147 Q32.7167 1003.11 35.9632 1005.79 Q39.1779 1008.43 45.2253 1008.43 L64.0042 1008.43 L64.0042 1014.32 L28.3562 1014.32 L28.3562 1008.43 L33.8944 1008.43 Q30.6479 1006.58 29.0883 1003.62 Q27.4968 1000.66 27.4968 996.428 Q27.4968 995.823 27.5923 995.091 Q27.656 994.359 27.8151 993.468 L33.8307 993.436 Z" fill="#000000" fill-rule="nonzero" fill-opacity="1" /><path clip-path="url(#clip710)" d="M18.2347 981.501 L28.3562 981.501 L28.3562 969.437 L32.9077 969.437 L32.9077 981.501 L52.2594 981.501 Q56.6199 981.501 57.8613 980.323 Q59.1026 979.113 59.1026 975.453 L59.1026 969.437 L64.0042 969.437 L64.0042 975.453 Q64.0042 982.233 61.4897 984.811 Q58.9434 987.389 52.2594 987.389 L32.9077 987.389 L32.9077 991.686 L28.3562 991.686 L28.3562 987.389 L18.2347 987.389 L18.2347 981.501 Z" fill="#000000" fill-rule="nonzero" fill-opacity="1" /><path clip-path="url(#clip710)" d="M14.479 943.688 L19.3487 943.688 L19.3487 949.29 Q19.3487 952.441 20.6219 953.682 Q21.895 954.892 25.2052 954.892 L28.3562 954.892 L28.3562 945.248 L32.9077 945.248 L32.9077 954.892 L64.0042 954.892 L64.0042 960.78 L32.9077 960.78 L32.9077 966.382 L28.3562 966.382 L28.3562 960.78 L25.8736 960.78 Q19.9216 960.78 17.2162 958.011 Q14.479 955.242 14.479 949.226 L14.479 943.688 Z" fill="#000000" fill-rule="nonzero" fill-opacity="1" /><path clip-path="url(#clip710)" d="M32.4621 924.973 Q32.4621 929.684 36.1542 932.421 Q39.8145 935.158 46.212 935.158 Q52.6095 935.158 56.3017 932.453 Q59.9619 929.715 59.9619 924.973 Q59.9619 920.294 56.2698 917.557 Q52.5777 914.82 46.212 914.82 Q39.8781 914.82 36.186 917.557 Q32.4621 920.294 32.4621 924.973 M27.4968 924.973 Q27.4968 917.334 32.4621 912.974 Q37.4273 908.613 46.212 908.613 Q54.9649 908.613 59.9619 912.974 Q64.9272 917.334 64.9272 924.973 Q64.9272 932.644 59.9619 937.004 Q54.9649 941.333 46.212 941.333 Q37.4273 941.333 32.4621 937.004 Q27.4968 932.644 27.4968 924.973 Z" fill="#000000" fill-rule="nonzero" fill-opacity="1" /><path clip-path="url(#clip710)" d="M14.479 898.905 L14.479 893.049 L64.0042 893.049 L64.0042 898.905 L14.479 898.905 Z" fill="#000000" fill-rule="nonzero" fill-opacity="1" /><path clip-path="url(#clip710)" d="M28.3562 880.795 L28.3562 874.939 L64.0042 874.939 L64.0042 880.795 L28.3562 880.795 M14.479 880.795 L14.479 874.939 L21.895 874.939 L21.895 880.795 L14.479 880.795 Z" fill="#000000" fill-rule="nonzero" fill-opacity="1" /><path clip-path="url(#clip710)" d="M32.4621 848.871 Q32.4621 853.582 36.1542 856.319 Q39.8145 859.056 46.212 859.056 Q52.6095 859.056 56.3017 856.351 Q59.9619 853.613 59.9619 848.871 Q59.9619 844.192 56.2698 841.455 Q52.5777 838.718 46.212 838.718 Q39.8781 838.718 36.186 841.455 Q32.4621 844.192 32.4621 848.871 M27.4968 848.871 Q27.4968 841.232 32.4621 836.872 Q37.4273 832.511 46.212 832.511 Q54.9649 832.511 59.9619 836.872 Q64.9272 841.232 64.9272 848.871 Q64.9272 856.542 59.9619 860.902 Q54.9649 865.231 46.212 865.231 Q37.4273 865.231 32.4621 860.902 Q27.4968 856.542 27.4968 848.871 Z" fill="#000000" fill-rule="nonzero" fill-opacity="1" /><path clip-path="url(#clip710)" d="M64.0042 789.574 L16.4842 807.717 L16.4842 801.001 L56.4926 785.946 L16.4842 770.859 L16.4842 764.175 L64.0042 782.286 L64.0042 789.574 Z" fill="#000000" fill-rule="nonzero" fill-opacity="1" /><path clip-path="url(#clip710)" d="M46.0847 746.351 Q46.0847 753.449 47.7079 756.186 Q49.3312 758.924 53.2461 758.924 Q56.3653 758.924 58.2114 756.887 Q60.0256 754.818 60.0256 751.285 Q60.0256 746.415 56.5881 743.487 Q53.1188 740.527 47.3897 740.527 L46.0847 740.527 L46.0847 746.351 M43.6657 734.67 L64.0042 734.67 L64.0042 740.527 L58.5933 740.527 Q61.8398 742.532 63.3994 745.524 Q64.9272 748.516 64.9272 752.844 Q64.9272 758.319 61.8716 761.565 Q58.7843 764.78 53.6281 764.78 Q47.6125 764.78 44.5569 760.77 Q41.5014 756.727 41.5014 748.738 L41.5014 740.527 L40.9285 740.527 Q36.8862 740.527 34.6901 743.2 Q32.4621 745.842 32.4621 750.648 Q32.4621 753.704 33.1941 756.6 Q33.9262 759.496 35.3903 762.17 L29.9795 762.17 Q28.7381 758.955 28.1334 755.932 Q27.4968 752.908 27.4968 750.043 Q27.4968 742.309 31.5072 738.49 Q35.5176 734.67 43.6657 734.67 Z" fill="#000000" fill-rule="nonzero" fill-opacity="1" /><path clip-path="url(#clip710)" d="M14.479 722.607 L14.479 716.751 L64.0042 716.751 L64.0042 722.607 L14.479 722.607 Z" fill="#000000" fill-rule="nonzero" fill-opacity="1" /><path clip-path="url(#clip710)" d="M49.9359 705.102 L28.3562 705.102 L28.3562 699.245 L49.7131 699.245 Q54.7739 699.245 57.3202 697.272 Q59.8346 695.298 59.8346 691.352 Q59.8346 686.609 56.8109 683.872 Q53.7872 681.103 48.5673 681.103 L28.3562 681.103 L28.3562 675.246 L64.0042 675.246 L64.0042 681.103 L58.5296 681.103 Q61.7762 683.235 63.3676 686.068 Q64.9272 688.869 64.9272 692.593 Q64.9272 698.736 61.1078 701.919 Q57.2883 705.102 49.9359 705.102 M27.4968 690.365 L27.4968 690.365 Z" fill="#000000" fill-rule="nonzero" fill-opacity="1" /><path clip-path="url(#clip710)" d="M44.7161 632.692 L47.5806 632.692 L47.5806 659.619 Q53.6281 659.237 56.8109 655.99 Q59.9619 652.712 59.9619 646.887 Q59.9619 643.513 59.1344 640.362 Q58.3069 637.179 56.6518 634.06 L62.1899 634.06 Q63.5267 637.211 64.227 640.521 Q64.9272 643.832 64.9272 647.237 Q64.9272 655.767 59.9619 660.764 Q54.9967 665.73 46.5303 665.73 Q37.7774 665.73 32.6531 661.019 Q27.4968 656.277 27.4968 648.256 Q27.4968 641.063 32.1438 636.893 Q36.7589 632.692 44.7161 632.692 M42.9973 638.548 Q38.1912 638.612 35.3266 641.253 Q32.4621 643.863 32.4621 648.192 Q32.4621 653.094 35.2312 656.054 Q38.0002 658.982 43.0292 659.428 L42.9973 638.548 Z" fill="#000000" fill-rule="nonzero" fill-opacity="1" /><path clip-path="url(#clip710)" d="M43.5384 605.319 L43.5384 588.163 L48.7583 588.163 L48.7583 605.319 L43.5384 605.319 Z" fill="#000000" fill-rule="nonzero" fill-opacity="1" /><path clip-path="url(#clip710)" d="M16.4842 558.595 L16.4842 552.134 L45.3526 552.134 Q52.9915 552.134 56.3653 549.365 Q59.7073 546.595 59.7073 540.389 Q59.7073 534.214 56.3653 531.445 Q52.9915 528.676 45.3526 528.676 L16.4842 528.676 L16.4842 522.215 L46.1484 522.215 Q55.4423 522.215 60.1847 526.83 Q64.9272 531.413 64.9272 540.389 Q64.9272 549.396 60.1847 554.011 Q55.4423 558.595 46.1484 558.595 L16.4842 558.595 Z" fill="#000000" fill-rule="nonzero" fill-opacity="1" /><path clip-path="url(#clip710)" d="M18.0438 481.665 L24.314 481.665 Q22.5634 485.326 21.704 488.572 Q20.8447 491.819 20.8447 494.842 Q20.8447 500.094 22.8817 502.959 Q24.9187 505.791 28.6745 505.791 Q31.8255 505.791 33.4488 503.913 Q35.0402 502.004 36.0269 496.72 L36.8226 492.837 Q38.1912 485.644 41.6605 482.238 Q45.098 478.801 50.8908 478.801 Q57.7976 478.801 61.3624 483.448 Q64.9272 488.063 64.9272 497.007 Q64.9272 500.38 64.1633 504.2 Q63.3994 507.987 61.9035 512.061 L55.2831 512.061 Q57.4793 508.147 58.5933 504.391 Q59.7073 500.635 59.7073 497.007 Q59.7073 491.5 57.543 488.508 Q55.3786 485.516 51.3682 485.516 Q47.8671 485.516 45.8937 487.681 Q43.9204 489.813 42.9337 494.715 L42.1698 498.63 Q40.7375 505.823 37.682 509.038 Q34.6264 512.252 29.1837 512.252 Q22.8817 512.252 19.2532 507.828 Q15.6248 503.372 15.6248 495.574 Q15.6248 492.232 16.2295 488.763 Q16.8343 485.294 18.0438 481.665 Z" fill="#000000" fill-rule="nonzero" fill-opacity="1" /><path clip-path="url(#clip710)" d="M21.7677 462.345 L58.7206 462.345 L58.7206 454.579 Q58.7206 444.744 54.2646 440.193 Q49.8086 435.609 40.1964 435.609 Q30.6479 435.609 26.2237 440.193 Q21.7677 444.744 21.7677 454.579 L21.7677 462.345 M16.4842 468.775 L16.4842 455.566 Q16.4842 441.752 22.2451 435.291 Q27.9743 428.83 40.1964 428.83 Q52.4822 428.83 58.2432 435.323 Q64.0042 441.816 64.0042 455.566 L64.0042 468.775 L16.4842 468.775 Z" fill="#000000" fill-rule="nonzero" fill-opacity="1" /><path clip-path="url(#clip710)" d="M427.398 18.8205 L427.398 41.5461 L437.687 41.5461 Q443.399 41.5461 446.518 38.5889 Q449.637 35.6318 449.637 30.163 Q449.637 24.7348 446.518 21.7777 Q443.399 18.8205 437.687 18.8205 L427.398 18.8205 M419.215 12.096 L437.687 12.096 Q447.855 12.096 453.04 16.714 Q458.266 21.2916 458.266 30.163 Q458.266 39.1155 453.04 43.6931 Q447.855 48.2706 437.687 48.2706 L427.398 48.2706 L427.398 72.576 L419.215 72.576 L419.215 12.096 Z" fill="#000000" fill-rule="nonzero" fill-opacity="1" /><path clip-path="url(#clip710)" d="M483.543 32.4315 Q477.548 32.4315 474.064 37.1306 Q470.581 41.7891 470.581 49.9314 Q470.581 58.0738 474.024 62.7728 Q477.508 67.4314 483.543 67.4314 Q489.498 67.4314 492.982 62.7323 Q496.466 58.0333 496.466 49.9314 Q496.466 41.8701 492.982 37.1711 Q489.498 32.4315 483.543 32.4315 M483.543 26.1121 Q493.266 26.1121 498.815 32.4315 Q504.365 38.7509 504.365 49.9314 Q504.365 61.0714 498.815 67.4314 Q493.266 73.7508 483.543 73.7508 Q473.781 73.7508 468.231 67.4314 Q462.722 61.0714 462.722 49.9314 Q462.722 38.7509 468.231 32.4315 Q473.781 26.1121 483.543 26.1121 Z" fill="#000000" fill-rule="nonzero" fill-opacity="1" /><path clip-path="url(#clip710)" d="M543.011 34.1734 Q541.755 33.4443 540.256 33.1202 Q538.798 32.7556 537.015 32.7556 Q530.696 32.7556 527.293 36.8875 Q523.931 40.9789 523.931 48.6757 L523.931 72.576 L516.437 72.576 L516.437 27.2059 L523.931 27.2059 L523.931 34.2544 Q526.28 30.1225 530.048 28.1376 Q533.815 26.1121 539.203 26.1121 Q539.972 26.1121 540.904 26.2337 Q541.836 26.3147 542.97 26.5172 L543.011 34.1734 Z" fill="#000000" fill-rule="nonzero" fill-opacity="1" /><path clip-path="url(#clip710)" d="M558.202 14.324 L558.202 27.2059 L573.554 27.2059 L573.554 32.9987 L558.202 32.9987 L558.202 57.6282 Q558.202 63.1779 559.7 64.7578 Q561.24 66.3376 565.898 66.3376 L573.554 66.3376 L573.554 72.576 L565.898 72.576 Q557.27 72.576 553.989 69.3758 Q550.707 66.1351 550.707 57.6282 L550.707 32.9987 L545.239 32.9987 L545.239 27.2059 L550.707 27.2059 L550.707 14.324 L558.202 14.324 Z" fill="#000000" fill-rule="nonzero" fill-opacity="1" /><path clip-path="url(#clip710)" d="M606.326 9.54393 L606.326 15.7418 L599.197 15.7418 Q595.186 15.7418 593.606 17.3622 Q592.067 18.9825 592.067 23.1955 L592.067 27.2059 L604.341 27.2059 L604.341 32.9987 L592.067 32.9987 L592.067 72.576 L584.573 72.576 L584.573 32.9987 L577.443 32.9987 L577.443 27.2059 L584.573 27.2059 L584.573 24.0462 Q584.573 16.471 588.097 13.0277 Q591.622 9.54393 599.278 9.54393 L606.326 9.54393 Z" fill="#000000" fill-rule="nonzero" fill-opacity="1" /><path clip-path="url(#clip710)" d="M630.146 32.4315 Q624.15 32.4315 620.667 37.1306 Q617.183 41.7891 617.183 49.9314 Q617.183 58.0738 620.626 62.7728 Q624.11 67.4314 630.146 67.4314 Q636.1 67.4314 639.584 62.7323 Q643.068 58.0333 643.068 49.9314 Q643.068 41.8701 639.584 37.1711 Q636.1 32.4315 630.146 32.4315 M630.146 26.1121 Q639.868 26.1121 645.418 32.4315 Q650.967 38.7509 650.967 49.9314 Q650.967 61.0714 645.418 67.4314 Q639.868 73.7508 630.146 73.7508 Q620.383 73.7508 614.833 67.4314 Q609.324 61.0714 609.324 49.9314 Q609.324 38.7509 614.833 32.4315 Q620.383 26.1121 630.146 26.1121 Z" fill="#000000" fill-rule="nonzero" fill-opacity="1" /><path clip-path="url(#clip710)" d="M663.323 9.54393 L670.776 9.54393 L670.776 72.576 L663.323 72.576 L663.323 9.54393 Z" fill="#000000" fill-rule="nonzero" fill-opacity="1" /><path clip-path="url(#clip710)" d="M686.372 27.2059 L693.826 27.2059 L693.826 72.576 L686.372 72.576 L686.372 27.2059 M686.372 9.54393 L693.826 9.54393 L693.826 18.9825 L686.372 18.9825 L686.372 9.54393 Z" fill="#000000" fill-rule="nonzero" fill-opacity="1" /><path clip-path="url(#clip710)" d="M727.003 32.4315 Q721.007 32.4315 717.524 37.1306 Q714.04 41.7891 714.04 49.9314 Q714.04 58.0738 717.483 62.7728 Q720.967 67.4314 727.003 67.4314 Q732.958 67.4314 736.441 62.7323 Q739.925 58.0333 739.925 49.9314 Q739.925 41.8701 736.441 37.1711 Q732.958 32.4315 727.003 32.4315 M727.003 26.1121 Q736.725 26.1121 742.275 32.4315 Q747.824 38.7509 747.824 49.9314 Q747.824 61.0714 742.275 67.4314 Q736.725 73.7508 727.003 73.7508 Q717.24 73.7508 711.69 67.4314 Q706.181 61.0714 706.181 49.9314 Q706.181 38.7509 711.69 32.4315 Q717.24 26.1121 727.003 26.1121 Z" fill="#000000" fill-rule="nonzero" fill-opacity="1" /><path clip-path="url(#clip710)" d="M802.471 72.576 L779.381 12.096 L787.928 12.096 L807.089 63.0159 L826.29 12.096 L834.797 12.096 L811.748 72.576 L802.471 72.576 Z" fill="#000000" fill-rule="nonzero" fill-opacity="1" /><path clip-path="url(#clip710)" d="M857.482 49.7694 Q848.449 49.7694 844.965 51.8354 Q841.481 53.9013 841.481 58.8839 Q841.481 62.8538 844.074 65.2034 Q846.707 67.5124 851.203 67.5124 Q857.401 67.5124 861.128 63.1374 Q864.896 58.7219 864.896 51.4303 L864.896 49.7694 L857.482 49.7694 M872.349 46.6907 L872.349 72.576 L864.896 72.576 L864.896 65.6895 Q862.343 69.8214 858.536 71.8063 Q854.728 73.7508 849.219 73.7508 Q842.251 73.7508 838.119 69.8619 Q834.028 65.9325 834.028 59.3701 Q834.028 51.7138 839.132 47.825 Q844.276 43.9361 854.444 43.9361 L864.896 43.9361 L864.896 43.2069 Q864.896 38.0623 861.493 35.2672 Q858.131 32.4315 852.014 32.4315 Q848.125 32.4315 844.438 33.3632 Q840.752 34.295 837.349 36.1584 L837.349 29.2718 Q841.441 27.692 845.289 26.9223 Q849.138 26.1121 852.783 26.1121 Q862.627 26.1121 867.488 31.2163 Q872.349 36.3204 872.349 46.6907 Z" fill="#000000" fill-rule="nonzero" fill-opacity="1" /><path clip-path="url(#clip710)" d="M887.702 9.54393 L895.156 9.54393 L895.156 72.576 L887.702 72.576 L887.702 9.54393 Z" fill="#000000" fill-rule="nonzero" fill-opacity="1" /><path clip-path="url(#clip710)" d="M909.982 54.671 L909.982 27.2059 L917.436 27.2059 L917.436 54.3874 Q917.436 60.8284 919.947 64.0691 Q922.459 67.2693 927.482 67.2693 Q933.518 67.2693 937.002 63.421 Q940.526 59.5726 940.526 52.9291 L940.526 27.2059 L947.98 27.2059 L947.98 72.576 L940.526 72.576 L940.526 65.6084 Q937.812 69.7404 934.206 71.7658 Q930.642 73.7508 925.902 73.7508 Q918.084 73.7508 914.033 68.8897 Q909.982 64.0286 909.982 54.671 M928.738 26.1121 L928.738 26.1121 Z" fill="#000000" fill-rule="nonzero" fill-opacity="1" /><path clip-path="url(#clip710)" d="M1002.14 48.0275 L1002.14 51.6733 L967.87 51.6733 Q968.356 59.3701 972.488 63.421 Q976.66 67.4314 984.073 67.4314 Q988.367 67.4314 992.377 66.3781 Q996.428 65.3249 1000.4 63.2184 L1000.4 70.267 Q996.388 71.9684 992.175 72.8596 Q987.962 73.7508 983.628 73.7508 Q972.771 73.7508 966.411 67.4314 Q960.092 61.1119 960.092 50.3365 Q960.092 39.1965 966.087 32.6746 Q972.123 26.1121 982.331 26.1121 Q991.486 26.1121 996.793 32.0264 Q1002.14 37.9003 1002.14 48.0275 M994.686 45.84 Q994.605 39.7232 991.243 36.0774 Q987.921 32.4315 982.412 32.4315 Q976.174 32.4315 972.407 35.9558 Q968.68 39.4801 968.113 45.8805 L994.686 45.84 Z" fill="#000000" fill-rule="nonzero" fill-opacity="1" /><path clip-path="url(#clip710)" d="M1016.28 62.2867 L1024.83 62.2867 L1024.83 72.576 L1016.28 72.576 L1016.28 62.2867 M1016.28 29.6769 L1024.83 29.6769 L1024.83 39.9662 L1016.28 39.9662 L1016.28 29.6769 Z" fill="#000000" fill-rule="nonzero" fill-opacity="1" /><path clip-path="url(#clip710)" d="M1069.02 12.096 L1081.21 12.096 L1096.65 53.2532 L1112.16 12.096 L1124.36 12.096 L1124.36 72.576 L1116.38 72.576 L1116.38 19.4686 L1100.78 60.9499 L1092.56 60.9499 L1076.96 19.4686 L1076.96 72.576 L1069.02 72.576 L1069.02 12.096 Z" fill="#000000" fill-rule="nonzero" fill-opacity="1" /><path clip-path="url(#clip710)" d="M1156.2 72.576 L1133.11 12.096 L1141.65 12.096 L1160.81 63.0159 L1180.02 12.096 L1188.52 12.096 L1165.47 72.576 L1156.2 72.576 Z" fill="#000000" fill-rule="nonzero" fill-opacity="1" /><path clip-path="url(#clip710)" d="M1188.4 46.5287 L1210.24 46.5287 L1210.24 53.1722 L1188.4 53.1722 L1188.4 46.5287 Z" fill="#000000" fill-rule="nonzero" fill-opacity="1" /><path clip-path="url(#clip710)" d="M1222.43 12.096 L1234.62 12.096 L1250.06 53.2532 L1265.57 12.096 L1277.76 12.096 L1277.76 72.576 L1269.78 72.576 L1269.78 19.4686 L1254.19 60.9499 L1245.96 60.9499 L1230.37 19.4686 L1230.37 72.576 L1222.43 72.576 L1222.43 12.096 Z" fill="#000000" fill-rule="nonzero" fill-opacity="1" /><path clip-path="url(#clip710)" d="M1302.19 18.8205 L1302.19 41.5461 L1312.48 41.5461 Q1318.19 41.5461 1321.31 38.5889 Q1324.43 35.6318 1324.43 30.163 Q1324.43 24.7348 1321.31 21.7777 Q1318.19 18.8205 1312.48 18.8205 L1302.19 18.8205 M1294.01 12.096 L1312.48 12.096 Q1322.65 12.096 1327.83 16.714 Q1333.06 21.2916 1333.06 30.163 Q1333.06 39.1155 1327.83 43.6931 Q1322.65 48.2706 1312.48 48.2706 L1302.19 48.2706 L1302.19 72.576 L1294.01 72.576 L1294.01 12.096 Z" fill="#000000" fill-rule="nonzero" fill-opacity="1" /><path clip-path="url(#clip710)" d="M1389.33 16.7545 L1389.33 25.383 Q1385.19 21.5346 1380.49 19.6307 Q1375.84 17.7268 1370.57 17.7268 Q1360.2 17.7268 1354.69 24.0867 Q1349.18 30.4061 1349.18 42.3968 Q1349.18 54.3469 1354.69 60.7069 Q1360.2 67.0263 1370.57 67.0263 Q1375.84 67.0263 1380.49 65.1223 Q1385.19 63.2184 1389.33 59.3701 L1389.33 67.9175 Q1385.03 70.8341 1380.21 72.2924 Q1375.43 73.7508 1370.08 73.7508 Q1356.35 73.7508 1348.45 65.3654 Q1340.55 56.9395 1340.55 42.3968 Q1340.55 27.8135 1348.45 19.4281 Q1356.35 11.0023 1370.08 11.0023 Q1375.51 11.0023 1380.29 12.4606 Q1385.11 13.8784 1389.33 16.7545 Z" fill="#000000" fill-rule="nonzero" fill-opacity="1" /><path clip-path="url(#clip710)" d="M1427.24 54.671 L1427.24 27.2059 L1434.7 27.2059 L1434.7 54.3874 Q1434.7 60.8284 1437.21 64.0691 Q1439.72 67.2693 1444.74 67.2693 Q1450.78 67.2693 1454.26 63.421 Q1457.79 59.5726 1457.79 52.9291 L1457.79 27.2059 L1465.24 27.2059 L1465.24 72.576 L1457.79 72.576 L1457.79 65.6084 Q1455.07 69.7404 1451.47 71.7658 Q1447.9 73.7508 1443.16 73.7508 Q1435.34 73.7508 1431.29 68.8897 Q1427.24 64.0286 1427.24 54.671 M1446 26.1121 L1446 26.1121 Z" fill="#000000" fill-rule="nonzero" fill-opacity="1" /><path clip-path="url(#clip710)" d="M1509.52 28.5427 L1509.52 35.5912 Q1506.36 33.9709 1502.95 33.1607 Q1499.55 32.3505 1495.9 32.3505 Q1490.36 32.3505 1487.56 34.0519 Q1484.81 35.7533 1484.81 39.156 Q1484.81 41.7486 1486.79 43.2475 Q1488.78 44.7058 1494.77 46.0426 L1497.32 46.6097 Q1505.26 48.3111 1508.58 51.4303 Q1511.95 54.509 1511.95 60.0587 Q1511.95 66.3781 1506.92 70.0644 Q1501.94 73.7508 1493.19 73.7508 Q1489.54 73.7508 1485.58 73.0216 Q1481.65 72.3329 1477.27 70.9151 L1477.27 63.2184 Q1481.4 65.3654 1485.41 66.4591 Q1489.42 67.5124 1493.35 67.5124 Q1498.62 67.5124 1501.45 65.73 Q1504.29 63.9071 1504.29 60.6258 Q1504.29 57.5877 1502.22 55.9673 Q1500.2 54.3469 1493.27 52.8481 L1490.68 52.2405 Q1483.75 50.7821 1480.67 47.7845 Q1477.59 44.7463 1477.59 39.4801 Q1477.59 33.0797 1482.13 29.5959 Q1486.67 26.1121 1495.01 26.1121 Q1499.15 26.1121 1502.79 26.7198 Q1506.44 27.3274 1509.52 28.5427 Z" fill="#000000" fill-rule="nonzero" fill-opacity="1" /><path clip-path="url(#clip710)" d="M1523.82 27.2059 L1531.27 27.2059 L1531.27 72.576 L1523.82 72.576 L1523.82 27.2059 M1523.82 9.54393 L1531.27 9.54393 L1531.27 18.9825 L1523.82 18.9825 L1523.82 9.54393 Z" fill="#000000" fill-rule="nonzero" fill-opacity="1" /><path clip-path="url(#clip710)" d="M1584.58 45.1919 L1584.58 72.576 L1577.13 72.576 L1577.13 45.4349 Q1577.13 38.994 1574.61 35.7938 Q1572.1 32.5936 1567.08 32.5936 Q1561.04 32.5936 1557.56 36.4419 Q1554.08 40.2903 1554.08 46.9338 L1554.08 72.576 L1546.58 72.576 L1546.58 27.2059 L1554.08 27.2059 L1554.08 34.2544 Q1556.75 30.163 1560.35 28.1376 Q1564 26.1121 1568.74 26.1121 Q1576.56 26.1121 1580.57 30.9732 Q1584.58 35.7938 1584.58 45.1919 Z" fill="#000000" fill-rule="nonzero" fill-opacity="1" /><path clip-path="url(#clip710)" d="M1629.3 49.3643 Q1629.3 41.2625 1625.94 36.8065 Q1622.62 32.3505 1616.58 32.3505 Q1610.59 32.3505 1607.22 36.8065 Q1603.9 41.2625 1603.9 49.3643 Q1603.9 57.4256 1607.22 61.8816 Q1610.59 66.3376 1616.58 66.3376 Q1622.62 66.3376 1625.94 61.8816 Q1629.3 57.4256 1629.3 49.3643 M1636.75 66.9452 Q1636.75 78.5308 1631.61 84.1616 Q1626.47 89.8329 1615.85 89.8329 Q1611.92 89.8329 1608.44 89.2252 Q1604.96 88.6581 1601.67 87.4428 L1601.67 80.1917 Q1604.96 81.9741 1608.16 82.8248 Q1611.36 83.6755 1614.68 83.6755 Q1622.01 83.6755 1625.66 79.8271 Q1629.3 76.0193 1629.3 68.282 L1629.3 64.5957 Q1626.99 68.6061 1623.39 70.5911 Q1619.78 72.576 1614.76 72.576 Q1606.41 72.576 1601.31 66.2161 Q1596.21 59.8562 1596.21 49.3643 Q1596.21 38.832 1601.31 32.472 Q1606.41 26.1121 1614.76 26.1121 Q1619.78 26.1121 1623.39 28.0971 Q1626.99 30.082 1629.3 34.0924 L1629.3 27.2059 L1636.75 27.2059 L1636.75 66.9452 Z" fill="#000000" fill-rule="nonzero" fill-opacity="1" /><path clip-path="url(#clip710)" d="M1686.99 43.6931 L1686.99 65.8515 L1700.11 65.8515 Q1706.71 65.8515 1709.87 63.1374 Q1713.07 60.3828 1713.07 54.752 Q1713.07 49.0808 1709.87 46.4072 Q1706.71 43.6931 1700.11 43.6931 L1686.99 43.6931 M1686.99 18.8205 L1686.99 37.0496 L1699.1 37.0496 Q1705.09 37.0496 1708.01 34.8216 Q1710.97 32.5531 1710.97 27.935 Q1710.97 23.3575 1708.01 21.089 Q1705.09 18.8205 1699.1 18.8205 L1686.99 18.8205 M1678.8 12.096 L1699.71 12.096 Q1709.06 12.096 1714.13 15.9849 Q1719.19 19.8737 1719.19 27.0438 Q1719.19 32.5936 1716.6 35.8748 Q1714.01 39.156 1708.98 39.9662 Q1715.02 41.2625 1718.34 45.3944 Q1721.7 49.4858 1721.7 55.6432 Q1721.7 63.745 1716.19 68.1605 Q1710.68 72.576 1700.52 72.576 L1678.8 72.576 L1678.8 12.096 Z" fill="#000000" fill-rule="nonzero" fill-opacity="1" /><path clip-path="url(#clip710)" d="M1774.2 48.0275 L1774.2 51.6733 L1739.93 51.6733 Q1740.42 59.3701 1744.55 63.421 Q1748.72 67.4314 1756.13 67.4314 Q1760.43 67.4314 1764.44 66.3781 Q1768.49 65.3249 1772.46 63.2184 L1772.46 70.267 Q1768.45 71.9684 1764.24 72.8596 Q1760.02 73.7508 1755.69 73.7508 Q1744.83 73.7508 1738.47 67.4314 Q1732.15 61.1119 1732.15 50.3365 Q1732.15 39.1965 1738.15 32.6746 Q1744.18 26.1121 1754.39 26.1121 Q1763.55 26.1121 1768.85 32.0264 Q1774.2 37.9003 1774.2 48.0275 M1766.75 45.84 Q1766.67 39.7232 1763.31 36.0774 Q1759.98 32.4315 1754.47 32.4315 Q1748.24 32.4315 1744.47 35.9558 Q1740.74 39.4801 1740.17 45.8805 L1766.75 45.84 Z" fill="#000000" fill-rule="nonzero" fill-opacity="1" /><path clip-path="url(#clip710)" d="M1824.15 45.1919 L1824.15 72.576 L1816.7 72.576 L1816.7 45.4349 Q1816.7 38.994 1814.18 35.7938 Q1811.67 32.5936 1806.65 32.5936 Q1800.61 32.5936 1797.13 36.4419 Q1793.65 40.2903 1793.65 46.9338 L1793.65 72.576 L1786.15 72.576 L1786.15 9.54393 L1793.65 9.54393 L1793.65 34.2544 Q1796.32 30.163 1799.93 28.1376 Q1803.57 26.1121 1808.31 26.1121 Q1816.13 26.1121 1820.14 30.9732 Q1824.15 35.7938 1824.15 45.1919 Z" fill="#000000" fill-rule="nonzero" fill-opacity="1" /><path clip-path="url(#clip710)" d="M1859.64 49.7694 Q1850.6 49.7694 1847.12 51.8354 Q1843.63 53.9013 1843.63 58.8839 Q1843.63 62.8538 1846.23 65.2034 Q1848.86 67.5124 1853.36 67.5124 Q1859.55 67.5124 1863.28 63.1374 Q1867.05 58.7219 1867.05 51.4303 L1867.05 49.7694 L1859.64 49.7694 M1874.5 46.6907 L1874.5 72.576 L1867.05 72.576 L1867.05 65.6895 Q1864.5 69.8214 1860.69 71.8063 Q1856.88 73.7508 1851.37 73.7508 Q1844.4 73.7508 1840.27 69.8619 Q1836.18 65.9325 1836.18 59.3701 Q1836.18 51.7138 1841.28 47.825 Q1846.43 43.9361 1856.6 43.9361 L1867.05 43.9361 L1867.05 43.2069 Q1867.05 38.0623 1863.65 35.2672 Q1860.28 32.4315 1854.17 32.4315 Q1850.28 32.4315 1846.59 33.3632 Q1842.91 34.295 1839.5 36.1584 L1839.5 29.2718 Q1843.59 27.692 1847.44 26.9223 Q1851.29 26.1121 1854.94 26.1121 Q1864.78 26.1121 1869.64 31.2163 Q1874.5 36.3204 1874.5 46.6907 Z" fill="#000000" fill-rule="nonzero" fill-opacity="1" /><path clip-path="url(#clip710)" d="M1884.51 27.2059 L1892.41 27.2059 L1906.59 65.2844 L1920.76 27.2059 L1928.66 27.2059 L1911.65 72.576 L1901.52 72.576 L1884.51 27.2059 Z" fill="#000000" fill-rule="nonzero" fill-opacity="1" /><path clip-path="url(#clip710)" d="M1938.95 27.2059 L1946.41 27.2059 L1946.41 72.576 L1938.95 72.576 L1938.95 27.2059 M1938.95 9.54393 L1946.41 9.54393 L1946.41 18.9825 L1938.95 18.9825 L1938.95 9.54393 Z" fill="#000000" fill-rule="nonzero" fill-opacity="1" /><path clip-path="url(#clip710)" d="M1979.58 32.4315 Q1973.59 32.4315 1970.1 37.1306 Q1966.62 41.7891 1966.62 49.9314 Q1966.62 58.0738 1970.06 62.7728 Q1973.55 67.4314 1979.58 67.4314 Q1985.54 67.4314 1989.02 62.7323 Q1992.51 58.0333 1992.51 49.9314 Q1992.51 41.8701 1989.02 37.1711 Q1985.54 32.4315 1979.58 32.4315 M1979.58 26.1121 Q1989.31 26.1121 1994.85 32.4315 Q2000.4 38.7509 2000.4 49.9314 Q2000.4 61.0714 1994.85 67.4314 Q1989.31 73.7508 1979.58 73.7508 Q1969.82 73.7508 1964.27 67.4314 Q1958.76 61.0714 1958.76 49.9314 Q1958.76 38.7509 1964.27 32.4315 Q1969.82 26.1121 1979.58 26.1121 Z" fill="#000000" fill-rule="nonzero" fill-opacity="1" /><path clip-path="url(#clip710)" d="M2011.99 54.671 L2011.99 27.2059 L2019.44 27.2059 L2019.44 54.3874 Q2019.44 60.8284 2021.96 64.0691 Q2024.47 67.2693 2029.49 67.2693 Q2035.53 67.2693 2039.01 63.421 Q2042.53 59.5726 2042.53 52.9291 L2042.53 27.2059 L2049.99 27.2059 L2049.99 72.576 L2042.53 72.576 L2042.53 65.6084 Q2039.82 69.7404 2036.21 71.7658 Q2032.65 73.7508 2027.91 73.7508 Q2020.09 73.7508 2016.04 68.8897 Q2011.99 64.0286 2011.99 54.671 M2030.75 26.1121 L2030.75 26.1121 Z" fill="#000000" fill-rule="nonzero" fill-opacity="1" /><path clip-path="url(#clip710)" d="M2091.63 34.1734 Q2090.38 33.4443 2088.88 33.1202 Q2087.42 32.7556 2085.64 32.7556 Q2079.32 32.7556 2075.91 36.8875 Q2072.55 40.9789 2072.55 48.6757 L2072.55 72.576 L2065.06 72.576 L2065.06 27.2059 L2072.55 27.2059 L2072.55 34.2544 Q2074.9 30.1225 2078.67 28.1376 Q2082.44 26.1121 2087.82 26.1121 Q2088.59 26.1121 2089.52 26.2337 Q2090.46 26.3147 2091.59 26.5172 L2091.63 34.1734 Z" fill="#000000" fill-rule="nonzero" fill-opacity="1" /><path clip-path="url(#clip710)" d="M2120.07 49.7694 Q2111.03 49.7694 2107.55 51.8354 Q2104.07 53.9013 2104.07 58.8839 Q2104.07 62.8538 2106.66 65.2034 Q2109.29 67.5124 2113.79 67.5124 Q2119.99 67.5124 2123.71 63.1374 Q2127.48 58.7219 2127.48 51.4303 L2127.48 49.7694 L2120.07 49.7694 M2134.94 46.6907 L2134.94 72.576 L2127.48 72.576 L2127.48 65.6895 Q2124.93 69.8214 2121.12 71.8063 Q2117.31 73.7508 2111.8 73.7508 Q2104.84 73.7508 2100.7 69.8619 Q2096.61 65.9325 2096.61 59.3701 Q2096.61 51.7138 2101.72 47.825 Q2106.86 43.9361 2117.03 43.9361 L2127.48 43.9361 L2127.48 43.2069 Q2127.48 38.0623 2124.08 35.2672 Q2120.72 32.4315 2114.6 32.4315 Q2110.71 32.4315 2107.02 33.3632 Q2103.34 34.295 2099.94 36.1584 L2099.94 29.2718 Q2104.03 27.692 2107.87 26.9223 Q2111.72 26.1121 2115.37 26.1121 Q2125.21 26.1121 2130.07 31.2163 Q2134.94 36.3204 2134.94 46.6907 Z" fill="#000000" fill-rule="nonzero" fill-opacity="1" /><path clip-path="url(#clip710)" d="M2150.29 9.54393 L2157.74 9.54393 L2157.74 72.576 L2150.29 72.576 L2150.29 9.54393 Z" fill="#000000" fill-rule="nonzero" fill-opacity="1" /><polyline clip-path="url(#clip712)" style="stroke:#009af9; stroke-linecap:round; stroke-linejoin:round; stroke-width:12; stroke-opacity:1; fill:none" points="317.625,1311.05 317.625,1311.05 323.255,1309.89 328.884,1313.23 334.513,1318.89 340.142,1313.8 357.03,1336.08 362.659,1330.97 368.288,1330.89 373.918,1326.69 379.547,1353.21 402.064,1346.77 407.693,1386.4 413.322,1385.03 418.951,1318.51 435.839,1224.82 441.468,1177.98 447.097,606.673 452.727,680.31 458.356,566.17 475.244,573.732 480.873,617.442 486.502,580.052 492.131,588.127 497.76,607.369 514.648,647.615 520.277,687.491 525.906,679.324 531.536,766.923 537.165,738.298 559.682,760.666 565.311,770.829 570.94,802.823 576.569,727.863 593.457,681.195 599.086,671.308 604.716,570.2 610.345,540.875 615.974,542.408 632.862,488.88 638.491,483.942 644.12,504.552 649.749,512.372 655.378,567.011 672.266,510.792 677.895,504.817 683.525,524.669 689.154,505.458 694.783,450.81 711.436,377.447 717.065,397.597 722.694,400.096 728.324,395.007 733.953,398.76 750.841,389.382 756.47,422.907 762.099,490.573 767.728,484.958 773.357,481.001 790.245,486.535 795.874,485.188 801.504,495.278 807.133,530.602 829.65,479.66 835.279,494.987 840.908,524.614 846.537,522.586 852.166,518.607 869.054,566.203 874.683,563.396 880.313,586.124 885.942,592.8 891.571,608.796 908.459,625.864 914.088,626.709 919.717,592.479 925.346,603.92 930.975,597.602 947.863,594.511 953.492,583.499 959.122,592.751 964.751,601.17 970.38,609.848 987.268,619.726 992.897,627.7 998.526,624.338 1004.16,620.64 1009.78,627.25 1026.67,640.551 1032.3,643.494 1037.93,659.178 1043.56,657.597 1049.19,633.397 1066.08,625.505 1071.71,618.592 1077.34,611.583 1082.96,592.648 1088.59,594.467 1105.48,577.092 1111.11,580.489 1116.74,559.465 1122.37,423.45 1128,355.988 1150.51,352.969 1156.14,243.055 1161.77,264.353 1167.4,247.46 1184.29,183.316 1189.92,197.138 1195.55,241.61 1201.18,299.302 1206.81,241.116 1223.69,182.962 1229.32,182.355 1234.95,183.067 1240.58,190.354 1246.21,194.105 1263.1,188.873 1268.73,195.852 1274.36,177.279 1279.99,189.064 1285.62,202.472 1302.5,174.256 1308.13,174.971 1313.76,160.256 1319.39,168.538 1325.02,176.184 1347.54,168.994 1353.17,188.465 1358.8,206.959 1364.43,228.037 1381.31,237.265 1386.94,247.174 1392.57,253.13 1398.2,246.241 1403.83,272.046 1420.72,291.178 1426.35,281.489 1431.98,264.326 1437.6,289.058 1443.23,292.081 1460.12,278.917 1465.75,286.856 1471.38,272.107 1477.01,280.257 1482.64,284.888 1499.53,286.977 1505.16,282.066 1510.78,339.598 1516.41,317.771 1522.04,309.902 1538.93,293.401 1544.56,296.53 1550.19,299.875 1555.82,289.339 1561.45,294.582 1578.34,311.084 1583.96,332.731 1589.59,334.545 1595.22,356.163 1600.85,354.235 1617.74,345.286 1623.37,335.698 1629,329.665 1634.63,333.645 1640.26,325.307 1657.14,318.74 1662.77,324.586 1668.4,328.215 1674.03,329.959 1679.66,329.518 1702.18,308.076 1707.81,311.583 1713.44,321.45 1719.07,320.483 1735.95,314.206 1741.58,312.184 1747.21,308.261 1752.84,314.213 1758.47,287.586 1775.36,325.895 1780.99,318.381 1786.62,323.815 1792.25,316.552 1797.87,308.34 1814.76,305.911 1820.39,328.969 1826.02,353.34 1831.65,366.88 1837.28,363.653 1854.17,386.661 1859.8,383.263 1865.43,392.761 1871.05,387.239 1876.68,393.15 1893.57,395.196 1899.2,378.045 1904.83,373.749 1910.46,365.598 1916.09,362.342 1932.98,358.107 1938.61,359.796 1944.23,356.192 1949.86,362.284 1955.49,356.998 1972.38,352.143 1978.01,352.212 1983.64,352.351 1989.27,346.659 1994.9,347.171 2011.78,343.822 2017.41,340.994 2023.04,329.98 2028.67,319.732 2034.3,316.416 2051.42,305.655 2057.05,306.252 2062.68,294.721 2068.31,262.083 2073.94,258.535 2090.83,251.191 2096.46,243.274 2102.09,255.844 2107.72,258.358 2113.35,249.63 2130.23,263.388 2135.86,288.489 2141.49,269.33 2152.75,286.317 2169.64,283.024 2175.27,298.78 2180.9,329.005 2186.53,333.114 2192.15,355.568 2209.04,360.594 2214.67,345.307 2220.3,335.435 2225.93,360.288 2231.56,370.863 2248.45,385.929 2254.08,391.791 2259.7,394.042 2265.33,389.988 2270.96,395.128 2287.85,431.698 2293.48,401.626 "/>
<path clip-path="url(#clip710)" d="M1947.95 270.476 L2282.94 270.476 L2282.94 166.796 L1947.95 166.796  Z" fill="#ffffff" fill-rule="evenodd" fill-opacity="1"/>
<polyline clip-path="url(#clip710)" style="stroke:#000000; stroke-linecap:round; stroke-linejoin:round; stroke-width:4; stroke-opacity:1; fill:none" points="1947.95,270.476 2282.94,270.476 2282.94,166.796 1947.95,166.796 1947.95,270.476 "/>
<polyline clip-path="url(#clip710)" style="stroke:#009af9; stroke-linecap:round; stroke-linejoin:round; stroke-width:12; stroke-opacity:1; fill:none" points="1971.22,218.636 2110.85,218.636 "/>
<path clip-path="url(#clip710)" d="M2134.12 209.99 L2138.63 209.99 L2146.73 231.749 L2154.83 209.99 L2159.35 209.99 L2149.63 235.916 L2143.84 235.916 L2134.12 209.99 Z" fill="#000000" fill-rule="nonzero" fill-opacity="1" /><path clip-path="url(#clip710)" d="M2177.01 222.883 Q2171.85 222.883 2169.86 224.064 Q2167.87 225.244 2167.87 228.092 Q2167.87 230.36 2169.35 231.703 Q2170.85 233.022 2173.42 233.022 Q2176.96 233.022 2179.09 230.522 Q2181.25 227.999 2181.25 223.832 L2181.25 222.883 L2177.01 222.883 M2185.5 221.124 L2185.5 235.916 L2181.25 235.916 L2181.25 231.981 Q2179.79 234.342 2177.61 235.476 Q2175.44 236.587 2172.29 236.587 Q2168.31 236.587 2165.94 234.365 Q2163.61 232.119 2163.61 228.369 Q2163.61 223.994 2166.52 221.772 Q2169.46 219.55 2175.27 219.55 L2181.25 219.55 L2181.25 219.133 Q2181.25 216.194 2179.3 214.596 Q2177.38 212.976 2173.88 212.976 Q2171.66 212.976 2169.56 213.508 Q2167.45 214.041 2165.51 215.106 L2165.51 211.17 Q2167.84 210.268 2170.04 209.828 Q2172.24 209.365 2174.32 209.365 Q2179.95 209.365 2182.73 212.282 Q2185.5 215.198 2185.5 221.124 Z" fill="#000000" fill-rule="nonzero" fill-opacity="1" /><path clip-path="url(#clip710)" d="M2194.28 199.897 L2198.54 199.897 L2198.54 235.916 L2194.28 235.916 L2194.28 199.897 Z" fill="#000000" fill-rule="nonzero" fill-opacity="1" /><path clip-path="url(#clip710)" d="M2207.01 225.684 L2207.01 209.99 L2211.27 209.99 L2211.27 225.522 Q2211.27 229.203 2212.7 231.055 Q2214.14 232.883 2217.01 232.883 Q2220.46 232.883 2222.45 230.684 Q2224.46 228.485 2224.46 224.689 L2224.46 209.99 L2228.72 209.99 L2228.72 235.916 L2224.46 235.916 L2224.46 231.934 Q2222.91 234.295 2220.85 235.453 Q2218.81 236.587 2216.11 236.587 Q2211.64 236.587 2209.32 233.809 Q2207.01 231.031 2207.01 225.684 M2217.73 209.365 L2217.73 209.365 Z" fill="#000000" fill-rule="nonzero" fill-opacity="1" /><path clip-path="url(#clip710)" d="M2259.67 221.888 L2259.67 223.971 L2240.09 223.971 Q2240.37 228.369 2242.73 230.684 Q2245.11 232.976 2249.35 232.976 Q2251.8 232.976 2254.09 232.374 Q2256.41 231.772 2258.68 230.569 L2258.68 234.596 Q2256.38 235.568 2253.98 236.078 Q2251.57 236.587 2249.09 236.587 Q2242.89 236.587 2239.25 232.976 Q2235.64 229.365 2235.64 223.207 Q2235.64 216.842 2239.07 213.115 Q2242.52 209.365 2248.35 209.365 Q2253.58 209.365 2256.62 212.745 Q2259.67 216.101 2259.67 221.888 M2255.41 220.638 Q2255.37 217.143 2253.44 215.059 Q2251.55 212.976 2248.4 212.976 Q2244.83 212.976 2242.68 214.99 Q2240.55 217.004 2240.23 220.661 L2255.41 220.638 Z" fill="#000000" fill-rule="nonzero" fill-opacity="1" /></svg>
