<?xml version="1.0" encoding="utf-8"?>
<svg xmlns="http://www.w3.org/2000/svg" xmlns:xlink="http://www.w3.org/1999/xlink" width="600" height="400" viewBox="0 0 2400 1600">
<defs>
  <clipPath id="clip290">
    <rect x="0" y="0" width="2400" height="1600"/>
  </clipPath>
</defs>
<path clip-path="url(#clip290)" d="M0 1600 L2400 1600 L2400 0 L0 0  Z" fill="#ffffff" fill-rule="evenodd" fill-opacity="1"/>
<defs>
  <clipPath id="clip291">
    <rect x="480" y="0" width="1681" height="1600"/>
  </clipPath>
</defs>
<path clip-path="url(#clip290)" d="M222.69 1423.18 L2352.76 1423.18 L2352.76 47.2441 L222.69 47.2441  Z" fill="#ffffff" fill-rule="evenodd" fill-opacity="1"/>
<defs>
  <clipPath id="clip292">
    <rect x="222" y="47" width="2131" height="1377"/>
  </clipPath>
</defs>
<polyline clip-path="url(#clip292)" style="stroke:#000000; stroke-linecap:round; stroke-linejoin:round; stroke-width:2; stroke-opacity:0.1; fill:none" points="263.295,1423.18 263.295,47.2441 "/>
<polyline clip-path="url(#clip292)" style="stroke:#000000; stroke-linecap:round; stroke-linejoin:round; stroke-width:2; stroke-opacity:0.1; fill:none" points="778.551,1423.18 778.551,47.2441 "/>
<polyline clip-path="url(#clip292)" style="stroke:#000000; stroke-linecap:round; stroke-linejoin:round; stroke-width:2; stroke-opacity:0.1; fill:none" points="1299.53,1423.18 1299.53,47.2441 "/>
<polyline clip-path="url(#clip292)" style="stroke:#000000; stroke-linecap:round; stroke-linejoin:round; stroke-width:2; stroke-opacity:0.1; fill:none" points="1826.24,1423.18 1826.24,47.2441 "/>
<polyline clip-path="url(#clip292)" style="stroke:#000000; stroke-linecap:round; stroke-linejoin:round; stroke-width:2; stroke-opacity:0.05; fill:none" points="366.346,1423.18 366.346,47.2441 "/>
<polyline clip-path="url(#clip292)" style="stroke:#000000; stroke-linecap:round; stroke-linejoin:round; stroke-width:2; stroke-opacity:0.05; fill:none" points="469.397,1423.18 469.397,47.2441 "/>
<polyline clip-path="url(#clip292)" style="stroke:#000000; stroke-linecap:round; stroke-linejoin:round; stroke-width:2; stroke-opacity:0.05; fill:none" points="572.449,1423.18 572.449,47.2441 "/>
<polyline clip-path="url(#clip292)" style="stroke:#000000; stroke-linecap:round; stroke-linejoin:round; stroke-width:2; stroke-opacity:0.05; fill:none" points="675.5,1423.18 675.5,47.2441 "/>
<polyline clip-path="url(#clip292)" style="stroke:#000000; stroke-linecap:round; stroke-linejoin:round; stroke-width:2; stroke-opacity:0.05; fill:none" points="882.747,1423.18 882.747,47.2441 "/>
<polyline clip-path="url(#clip292)" style="stroke:#000000; stroke-linecap:round; stroke-linejoin:round; stroke-width:2; stroke-opacity:0.05; fill:none" points="986.943,1423.18 986.943,47.2441 "/>
<polyline clip-path="url(#clip292)" style="stroke:#000000; stroke-linecap:round; stroke-linejoin:round; stroke-width:2; stroke-opacity:0.05; fill:none" points="1091.14,1423.18 1091.14,47.2441 "/>
<polyline clip-path="url(#clip292)" style="stroke:#000000; stroke-linecap:round; stroke-linejoin:round; stroke-width:2; stroke-opacity:0.05; fill:none" points="1195.33,1423.18 1195.33,47.2441 "/>
<polyline clip-path="url(#clip292)" style="stroke:#000000; stroke-linecap:round; stroke-linejoin:round; stroke-width:2; stroke-opacity:0.05; fill:none" points="1404.87,1423.18 1404.87,47.2441 "/>
<polyline clip-path="url(#clip292)" style="stroke:#000000; stroke-linecap:round; stroke-linejoin:round; stroke-width:2; stroke-opacity:0.05; fill:none" points="1510.21,1423.18 1510.21,47.2441 "/>
<polyline clip-path="url(#clip292)" style="stroke:#000000; stroke-linecap:round; stroke-linejoin:round; stroke-width:2; stroke-opacity:0.05; fill:none" points="1615.55,1423.18 1615.55,47.2441 "/>
<polyline clip-path="url(#clip292)" style="stroke:#000000; stroke-linecap:round; stroke-linejoin:round; stroke-width:2; stroke-opacity:0.05; fill:none" points="1720.9,1423.18 1720.9,47.2441 "/>
<polyline clip-path="url(#clip292)" style="stroke:#000000; stroke-linecap:round; stroke-linejoin:round; stroke-width:2; stroke-opacity:0.05; fill:none" points="1932.75,1423.18 1932.75,47.2441 "/>
<polyline clip-path="url(#clip292)" style="stroke:#000000; stroke-linecap:round; stroke-linejoin:round; stroke-width:2; stroke-opacity:0.05; fill:none" points="2039.26,1423.18 2039.26,47.2441 "/>
<polyline clip-path="url(#clip292)" style="stroke:#000000; stroke-linecap:round; stroke-linejoin:round; stroke-width:2; stroke-opacity:0.05; fill:none" points="2145.77,1423.18 2145.77,47.2441 "/>
<polyline clip-path="url(#clip292)" style="stroke:#000000; stroke-linecap:round; stroke-linejoin:round; stroke-width:2; stroke-opacity:0.05; fill:none" points="2252.28,1423.18 2252.28,47.2441 "/>
<polyline clip-path="url(#clip290)" style="stroke:#000000; stroke-linecap:round; stroke-linejoin:round; stroke-width:4; stroke-opacity:1; fill:none" points="222.69,1423.18 2352.76,1423.18 "/>
<polyline clip-path="url(#clip290)" style="stroke:#000000; stroke-linecap:round; stroke-linejoin:round; stroke-width:4; stroke-opacity:1; fill:none" points="263.295,1423.18 263.295,1404.28 "/>
<polyline clip-path="url(#clip290)" style="stroke:#000000; stroke-linecap:round; stroke-linejoin:round; stroke-width:4; stroke-opacity:1; fill:none" points="778.551,1423.18 778.551,1404.28 "/>
<polyline clip-path="url(#clip290)" style="stroke:#000000; stroke-linecap:round; stroke-linejoin:round; stroke-width:4; stroke-opacity:1; fill:none" points="1299.53,1423.18 1299.53,1404.28 "/>
<polyline clip-path="url(#clip290)" style="stroke:#000000; stroke-linecap:round; stroke-linejoin:round; stroke-width:4; stroke-opacity:1; fill:none" points="1826.24,1423.18 1826.24,1404.28 "/>
<polyline clip-path="url(#clip290)" style="stroke:#000000; stroke-linecap:round; stroke-linejoin:round; stroke-width:4; stroke-opacity:1; fill:none" points="366.346,1423.18 366.346,1413.73 "/>
<polyline clip-path="url(#clip290)" style="stroke:#000000; stroke-linecap:round; stroke-linejoin:round; stroke-width:4; stroke-opacity:1; fill:none" points="469.397,1423.18 469.397,1413.73 "/>
<polyline clip-path="url(#clip290)" style="stroke:#000000; stroke-linecap:round; stroke-linejoin:round; stroke-width:4; stroke-opacity:1; fill:none" points="572.449,1423.18 572.449,1413.73 "/>
<polyline clip-path="url(#clip290)" style="stroke:#000000; stroke-linecap:round; stroke-linejoin:round; stroke-width:4; stroke-opacity:1; fill:none" points="675.5,1423.18 675.5,1413.73 "/>
<polyline clip-path="url(#clip290)" style="stroke:#000000; stroke-linecap:round; stroke-linejoin:round; stroke-width:4; stroke-opacity:1; fill:none" points="882.747,1423.18 882.747,1413.73 "/>
<polyline clip-path="url(#clip290)" style="stroke:#000000; stroke-linecap:round; stroke-linejoin:round; stroke-width:4; stroke-opacity:1; fill:none" points="986.943,1423.18 986.943,1413.73 "/>
<polyline clip-path="url(#clip290)" style="stroke:#000000; stroke-linecap:round; stroke-linejoin:round; stroke-width:4; stroke-opacity:1; fill:none" points="1091.14,1423.18 1091.14,1413.73 "/>
<polyline clip-path="url(#clip290)" style="stroke:#000000; stroke-linecap:round; stroke-linejoin:round; stroke-width:4; stroke-opacity:1; fill:none" points="1195.33,1423.18 1195.33,1413.73 "/>
<polyline clip-path="url(#clip290)" style="stroke:#000000; stroke-linecap:round; stroke-linejoin:round; stroke-width:4; stroke-opacity:1; fill:none" points="1404.87,1423.18 1404.87,1413.73 "/>
<polyline clip-path="url(#clip290)" style="stroke:#000000; stroke-linecap:round; stroke-linejoin:round; stroke-width:4; stroke-opacity:1; fill:none" points="1510.21,1423.18 1510.21,1413.73 "/>
<polyline clip-path="url(#clip290)" style="stroke:#000000; stroke-linecap:round; stroke-linejoin:round; stroke-width:4; stroke-opacity:1; fill:none" points="1615.55,1423.18 1615.55,1413.73 "/>
<polyline clip-path="url(#clip290)" style="stroke:#000000; stroke-linecap:round; stroke-linejoin:round; stroke-width:4; stroke-opacity:1; fill:none" points="1720.9,1423.18 1720.9,1413.73 "/>
<polyline clip-path="url(#clip290)" style="stroke:#000000; stroke-linecap:round; stroke-linejoin:round; stroke-width:4; stroke-opacity:1; fill:none" points="1932.75,1423.18 1932.75,1413.73 "/>
<polyline clip-path="url(#clip290)" style="stroke:#000000; stroke-linecap:round; stroke-linejoin:round; stroke-width:4; stroke-opacity:1; fill:none" points="2039.26,1423.18 2039.26,1413.73 "/>
<polyline clip-path="url(#clip290)" style="stroke:#000000; stroke-linecap:round; stroke-linejoin:round; stroke-width:4; stroke-opacity:1; fill:none" points="2145.77,1423.18 2145.77,1413.73 "/>
<polyline clip-path="url(#clip290)" style="stroke:#000000; stroke-linecap:round; stroke-linejoin:round; stroke-width:4; stroke-opacity:1; fill:none" points="2252.28,1423.18 2252.28,1413.73 "/>
<path clip-path="url(#clip290)" d="M135.09 1481.64 L151.409 1481.64 L151.409 1485.58 L129.465 1485.58 L129.465 1481.64 Q132.127 1478.89 136.71 1474.26 Q141.317 1469.61 142.497 1468.27 Q144.743 1465.74 145.622 1464.01 Q146.525 1462.25 146.525 1460.56 Q146.525 1457.8 144.581 1456.07 Q142.659 1454.33 139.558 1454.33 Q137.358 1454.33 134.905 1455.09 Q132.474 1455.86 129.696 1457.41 L129.696 1452.69 Q132.521 1451.55 134.974 1450.97 Q137.428 1450.39 139.465 1450.39 Q144.835 1450.39 148.03 1453.08 Q151.224 1455.77 151.224 1460.26 Q151.224 1462.39 150.414 1464.31 Q149.627 1466.2 147.52 1468.8 Q146.942 1469.47 143.84 1472.69 Q140.738 1475.88 135.09 1481.64 Z" fill="#000000" fill-rule="nonzero" fill-opacity="1" /><path clip-path="url(#clip290)" d="M171.224 1454.1 Q167.613 1454.1 165.784 1457.66 Q163.979 1461.2 163.979 1468.33 Q163.979 1475.44 165.784 1479.01 Q167.613 1482.55 171.224 1482.55 Q174.858 1482.55 176.664 1479.01 Q178.493 1475.44 178.493 1468.33 Q178.493 1461.2 176.664 1457.66 Q174.858 1454.1 171.224 1454.1 M171.224 1450.39 Q177.034 1450.39 180.09 1455 Q183.168 1459.58 183.168 1468.33 Q183.168 1477.06 180.09 1481.67 Q177.034 1486.25 171.224 1486.25 Q165.414 1486.25 162.335 1481.67 Q159.28 1477.06 159.28 1468.33 Q159.28 1459.58 162.335 1455 Q165.414 1450.39 171.224 1450.39 Z" fill="#000000" fill-rule="nonzero" fill-opacity="1" /><path clip-path="url(#clip290)" d="M195.414 1481.64 L211.733 1481.64 L211.733 1485.58 L189.789 1485.58 L189.789 1481.64 Q192.451 1478.89 197.034 1474.26 Q201.641 1469.61 202.821 1468.27 Q205.066 1465.74 205.946 1464.01 Q206.849 1462.25 206.849 1460.56 Q206.849 1457.8 204.904 1456.07 Q202.983 1454.33 199.881 1454.33 Q197.682 1454.33 195.229 1455.09 Q192.798 1455.86 190.02 1457.41 L190.02 1452.69 Q192.844 1451.55 195.298 1450.97 Q197.752 1450.39 199.789 1450.39 Q205.159 1450.39 208.353 1453.08 Q211.548 1455.77 211.548 1460.26 Q211.548 1462.39 210.738 1464.31 Q209.951 1466.2 207.844 1468.8 Q207.266 1469.47 204.164 1472.69 Q201.062 1475.88 195.414 1481.64 Z" fill="#000000" fill-rule="nonzero" fill-opacity="1" /><path clip-path="url(#clip290)" d="M222.358 1481.64 L229.997 1481.64 L229.997 1455.28 L221.687 1456.95 L221.687 1452.69 L229.951 1451.02 L234.626 1451.02 L234.626 1481.64 L242.265 1481.64 L242.265 1485.58 L222.358 1485.58 L222.358 1481.64 Z" fill="#000000" fill-rule="nonzero" fill-opacity="1" /><path clip-path="url(#clip290)" d="M248.955 1470.7 L261.432 1470.7 L261.432 1474.49 L248.955 1474.49 L248.955 1470.7 Z" fill="#000000" fill-rule="nonzero" fill-opacity="1" /><path clip-path="url(#clip290)" d="M278.816 1454.1 Q275.205 1454.1 273.376 1457.66 Q271.571 1461.2 271.571 1468.33 Q271.571 1475.44 273.376 1479.01 Q275.205 1482.55 278.816 1482.55 Q282.45 1482.55 284.256 1479.01 Q286.085 1475.44 286.085 1468.33 Q286.085 1461.2 284.256 1457.66 Q282.45 1454.1 278.816 1454.1 M278.816 1450.39 Q284.626 1450.39 287.682 1455 Q290.76 1459.58 290.76 1468.33 Q290.76 1477.06 287.682 1481.67 Q284.626 1486.25 278.816 1486.25 Q273.006 1486.25 269.927 1481.67 Q266.872 1477.06 266.872 1468.33 Q266.872 1459.58 269.927 1455 Q273.006 1450.39 278.816 1450.39 Z" fill="#000000" fill-rule="nonzero" fill-opacity="1" /><path clip-path="url(#clip290)" d="M299.788 1481.64 L307.427 1481.64 L307.427 1455.28 L299.117 1456.95 L299.117 1452.69 L307.381 1451.02 L312.057 1451.02 L312.057 1481.64 L319.695 1481.64 L319.695 1485.58 L299.788 1485.58 L299.788 1481.64 Z" fill="#000000" fill-rule="nonzero" fill-opacity="1" /><path clip-path="url(#clip290)" d="M326.385 1470.7 L338.862 1470.7 L338.862 1474.49 L326.385 1474.49 L326.385 1470.7 Z" fill="#000000" fill-rule="nonzero" fill-opacity="1" /><path clip-path="url(#clip290)" d="M356.246 1454.1 Q352.635 1454.1 350.806 1457.66 Q349.001 1461.2 349.001 1468.33 Q349.001 1475.44 350.806 1479.01 Q352.635 1482.55 356.246 1482.55 Q359.88 1482.55 361.686 1479.01 Q363.515 1475.44 363.515 1468.33 Q363.515 1461.2 361.686 1457.66 Q359.88 1454.1 356.246 1454.1 M356.246 1450.39 Q362.056 1450.39 365.112 1455 Q368.191 1459.58 368.191 1468.33 Q368.191 1477.06 365.112 1481.67 Q362.056 1486.25 356.246 1486.25 Q350.436 1486.25 347.357 1481.67 Q344.302 1477.06 344.302 1468.33 Q344.302 1459.58 347.357 1455 Q350.436 1450.39 356.246 1450.39 Z" fill="#000000" fill-rule="nonzero" fill-opacity="1" /><path clip-path="url(#clip290)" d="M377.218 1481.64 L384.857 1481.64 L384.857 1455.28 L376.547 1456.95 L376.547 1452.69 L384.811 1451.02 L389.487 1451.02 L389.487 1481.64 L397.126 1481.64 L397.126 1485.58 L377.218 1485.58 L377.218 1481.64 Z" fill="#000000" fill-rule="nonzero" fill-opacity="1" /><path clip-path="url(#clip290)" d="M650.345 1481.64 L666.665 1481.64 L666.665 1485.58 L644.72 1485.58 L644.72 1481.64 Q647.382 1478.89 651.966 1474.26 Q656.572 1469.61 657.753 1468.27 Q659.998 1465.74 660.878 1464.01 Q661.78 1462.25 661.78 1460.56 Q661.78 1457.8 659.836 1456.07 Q657.915 1454.33 654.813 1454.33 Q652.614 1454.33 650.16 1455.09 Q647.73 1455.86 644.952 1457.41 L644.952 1452.69 Q647.776 1451.55 650.23 1450.97 Q652.683 1450.39 654.72 1450.39 Q660.091 1450.39 663.285 1453.08 Q666.479 1455.77 666.479 1460.26 Q666.479 1462.39 665.669 1464.31 Q664.882 1466.2 662.776 1468.8 Q662.197 1469.47 659.095 1472.69 Q655.993 1475.88 650.345 1481.64 Z" fill="#000000" fill-rule="nonzero" fill-opacity="1" /><path clip-path="url(#clip290)" d="M686.479 1454.1 Q682.868 1454.1 681.04 1457.66 Q679.234 1461.2 679.234 1468.33 Q679.234 1475.44 681.04 1479.01 Q682.868 1482.55 686.479 1482.55 Q690.114 1482.55 691.919 1479.01 Q693.748 1475.44 693.748 1468.33 Q693.748 1461.2 691.919 1457.66 Q690.114 1454.1 686.479 1454.1 M686.479 1450.39 Q692.29 1450.39 695.345 1455 Q698.424 1459.58 698.424 1468.33 Q698.424 1477.06 695.345 1481.67 Q692.29 1486.25 686.479 1486.25 Q680.669 1486.25 677.591 1481.67 Q674.535 1477.06 674.535 1468.33 Q674.535 1459.58 677.591 1455 Q680.669 1450.39 686.479 1450.39 Z" fill="#000000" fill-rule="nonzero" fill-opacity="1" /><path clip-path="url(#clip290)" d="M710.669 1481.64 L726.988 1481.64 L726.988 1485.58 L705.044 1485.58 L705.044 1481.64 Q707.706 1478.89 712.289 1474.26 Q716.896 1469.61 718.076 1468.27 Q720.322 1465.74 721.201 1464.01 Q722.104 1462.25 722.104 1460.56 Q722.104 1457.8 720.16 1456.07 Q718.238 1454.33 715.137 1454.33 Q712.938 1454.33 710.484 1455.09 Q708.053 1455.86 705.276 1457.41 L705.276 1452.69 Q708.1 1451.55 710.553 1450.97 Q713.007 1450.39 715.044 1450.39 Q720.414 1450.39 723.609 1453.08 Q726.803 1455.77 726.803 1460.26 Q726.803 1462.39 725.993 1464.31 Q725.206 1466.2 723.1 1468.8 Q722.521 1469.47 719.419 1472.69 Q716.317 1475.88 710.669 1481.64 Z" fill="#000000" fill-rule="nonzero" fill-opacity="1" /><path clip-path="url(#clip290)" d="M737.613 1481.64 L745.252 1481.64 L745.252 1455.28 L736.942 1456.95 L736.942 1452.69 L745.206 1451.02 L749.882 1451.02 L749.882 1481.64 L757.521 1481.64 L757.521 1485.58 L737.613 1485.58 L737.613 1481.64 Z" fill="#000000" fill-rule="nonzero" fill-opacity="1" /><path clip-path="url(#clip290)" d="M764.21 1470.7 L776.687 1470.7 L776.687 1474.49 L764.21 1474.49 L764.21 1470.7 Z" fill="#000000" fill-rule="nonzero" fill-opacity="1" /><path clip-path="url(#clip290)" d="M794.071 1454.1 Q790.46 1454.1 788.632 1457.66 Q786.826 1461.2 786.826 1468.33 Q786.826 1475.44 788.632 1479.01 Q790.46 1482.55 794.071 1482.55 Q797.706 1482.55 799.511 1479.01 Q801.34 1475.44 801.34 1468.33 Q801.34 1461.2 799.511 1457.66 Q797.706 1454.1 794.071 1454.1 M794.071 1450.39 Q799.882 1450.39 802.937 1455 Q806.016 1459.58 806.016 1468.33 Q806.016 1477.06 802.937 1481.67 Q799.882 1486.25 794.071 1486.25 Q788.261 1486.25 785.183 1481.67 Q782.127 1477.06 782.127 1468.33 Q782.127 1459.58 785.183 1455 Q788.261 1450.39 794.071 1450.39 Z" fill="#000000" fill-rule="nonzero" fill-opacity="1" /><path clip-path="url(#clip290)" d="M827.08 1455.09 L815.275 1473.54 L827.08 1473.54 L827.08 1455.09 M825.854 1451.02 L831.733 1451.02 L831.733 1473.54 L836.664 1473.54 L836.664 1477.43 L831.733 1477.43 L831.733 1485.58 L827.08 1485.58 L827.08 1477.43 L811.479 1477.43 L811.479 1472.92 L825.854 1451.02 Z" fill="#000000" fill-rule="nonzero" fill-opacity="1" /><path clip-path="url(#clip290)" d="M841.641 1470.7 L854.117 1470.7 L854.117 1474.49 L841.641 1474.49 L841.641 1470.7 Z" fill="#000000" fill-rule="nonzero" fill-opacity="1" /><path clip-path="url(#clip290)" d="M871.502 1454.1 Q867.89 1454.1 866.062 1457.66 Q864.256 1461.2 864.256 1468.33 Q864.256 1475.44 866.062 1479.01 Q867.89 1482.55 871.502 1482.55 Q875.136 1482.55 876.941 1479.01 Q878.77 1475.44 878.77 1468.33 Q878.77 1461.2 876.941 1457.66 Q875.136 1454.1 871.502 1454.1 M871.502 1450.39 Q877.312 1450.39 880.367 1455 Q883.446 1459.58 883.446 1468.33 Q883.446 1477.06 880.367 1481.67 Q877.312 1486.25 871.502 1486.25 Q865.691 1486.25 862.613 1481.67 Q859.557 1477.06 859.557 1468.33 Q859.557 1459.58 862.613 1455 Q865.691 1450.39 871.502 1450.39 Z" fill="#000000" fill-rule="nonzero" fill-opacity="1" /><path clip-path="url(#clip290)" d="M892.474 1481.64 L900.112 1481.64 L900.112 1455.28 L891.802 1456.95 L891.802 1452.69 L900.066 1451.02 L904.742 1451.02 L904.742 1481.64 L912.381 1481.64 L912.381 1485.58 L892.474 1485.58 L892.474 1481.64 Z" fill="#000000" fill-rule="nonzero" fill-opacity="1" /><path clip-path="url(#clip290)" d="M1171.33 1481.64 L1187.65 1481.64 L1187.65 1485.58 L1165.7 1485.58 L1165.7 1481.64 Q1168.36 1478.89 1172.95 1474.26 Q1177.55 1469.61 1178.73 1468.27 Q1180.98 1465.74 1181.86 1464.01 Q1182.76 1462.25 1182.76 1460.56 Q1182.76 1457.8 1180.82 1456.07 Q1178.9 1454.33 1175.79 1454.33 Q1173.59 1454.33 1171.14 1455.09 Q1168.71 1455.86 1165.93 1457.41 L1165.93 1452.69 Q1168.76 1451.55 1171.21 1450.97 Q1173.66 1450.39 1175.7 1450.39 Q1181.07 1450.39 1184.27 1453.08 Q1187.46 1455.77 1187.46 1460.26 Q1187.46 1462.39 1186.65 1464.31 Q1185.86 1466.2 1183.76 1468.8 Q1183.18 1469.47 1180.08 1472.69 Q1176.97 1475.88 1171.33 1481.64 Z" fill="#000000" fill-rule="nonzero" fill-opacity="1" /><path clip-path="url(#clip290)" d="M1207.46 1454.1 Q1203.85 1454.1 1202.02 1457.66 Q1200.21 1461.2 1200.21 1468.33 Q1200.21 1475.44 1202.02 1479.01 Q1203.85 1482.55 1207.46 1482.55 Q1211.09 1482.55 1212.9 1479.01 Q1214.73 1475.44 1214.73 1468.33 Q1214.73 1461.2 1212.9 1457.66 Q1211.09 1454.1 1207.46 1454.1 M1207.46 1450.39 Q1213.27 1450.39 1216.33 1455 Q1219.4 1459.58 1219.4 1468.33 Q1219.4 1477.06 1216.33 1481.67 Q1213.27 1486.25 1207.46 1486.25 Q1201.65 1486.25 1198.57 1481.67 Q1195.52 1477.06 1195.52 1468.33 Q1195.52 1459.58 1198.57 1455 Q1201.65 1450.39 1207.46 1450.39 Z" fill="#000000" fill-rule="nonzero" fill-opacity="1" /><path clip-path="url(#clip290)" d="M1231.65 1481.64 L1247.97 1481.64 L1247.97 1485.58 L1226.02 1485.58 L1226.02 1481.64 Q1228.69 1478.89 1233.27 1474.26 Q1237.88 1469.61 1239.06 1468.27 Q1241.3 1465.74 1242.18 1464.01 Q1243.08 1462.25 1243.08 1460.56 Q1243.08 1457.8 1241.14 1456.07 Q1239.22 1454.33 1236.12 1454.33 Q1233.92 1454.33 1231.46 1455.09 Q1229.03 1455.86 1226.26 1457.41 L1226.26 1452.69 Q1229.08 1451.55 1231.53 1450.97 Q1233.99 1450.39 1236.02 1450.39 Q1241.39 1450.39 1244.59 1453.08 Q1247.78 1455.77 1247.78 1460.26 Q1247.78 1462.39 1246.97 1464.31 Q1246.19 1466.2 1244.08 1468.8 Q1243.5 1469.47 1240.4 1472.69 Q1237.3 1475.88 1231.65 1481.64 Z" fill="#000000" fill-rule="nonzero" fill-opacity="1" /><path clip-path="url(#clip290)" d="M1258.59 1481.64 L1266.23 1481.64 L1266.23 1455.28 L1257.92 1456.95 L1257.92 1452.69 L1266.19 1451.02 L1270.86 1451.02 L1270.86 1481.64 L1278.5 1481.64 L1278.5 1485.58 L1258.59 1485.58 L1258.59 1481.64 Z" fill="#000000" fill-rule="nonzero" fill-opacity="1" /><path clip-path="url(#clip290)" d="M1285.19 1470.7 L1297.67 1470.7 L1297.67 1474.49 L1285.19 1474.49 L1285.19 1470.7 Z" fill="#000000" fill-rule="nonzero" fill-opacity="1" /><path clip-path="url(#clip290)" d="M1315.05 1454.1 Q1311.44 1454.1 1309.61 1457.66 Q1307.81 1461.2 1307.81 1468.33 Q1307.81 1475.44 1309.61 1479.01 Q1311.44 1482.55 1315.05 1482.55 Q1318.69 1482.55 1320.49 1479.01 Q1322.32 1475.44 1322.32 1468.33 Q1322.32 1461.2 1320.49 1457.66 Q1318.69 1454.1 1315.05 1454.1 M1315.05 1450.39 Q1320.86 1450.39 1323.92 1455 Q1327 1459.58 1327 1468.33 Q1327 1477.06 1323.92 1481.67 Q1320.86 1486.25 1315.05 1486.25 Q1309.24 1486.25 1306.16 1481.67 Q1303.11 1477.06 1303.11 1468.33 Q1303.11 1459.58 1306.16 1455 Q1309.24 1450.39 1315.05 1450.39 Z" fill="#000000" fill-rule="nonzero" fill-opacity="1" /><path clip-path="url(#clip290)" d="M1334.03 1451.02 L1356.26 1451.02 L1356.26 1453.01 L1343.71 1485.58 L1338.82 1485.58 L1350.63 1454.96 L1334.03 1454.96 L1334.03 1451.02 Z" fill="#000000" fill-rule="nonzero" fill-opacity="1" /><path clip-path="url(#clip290)" d="M1362.62 1470.7 L1375.1 1470.7 L1375.1 1474.49 L1362.62 1474.49 L1362.62 1470.7 Z" fill="#000000" fill-rule="nonzero" fill-opacity="1" /><path clip-path="url(#clip290)" d="M1392.48 1454.1 Q1388.87 1454.1 1387.04 1457.66 Q1385.24 1461.2 1385.24 1468.33 Q1385.24 1475.44 1387.04 1479.01 Q1388.87 1482.55 1392.48 1482.55 Q1396.12 1482.55 1397.92 1479.01 Q1399.75 1475.44 1399.75 1468.33 Q1399.75 1461.2 1397.92 1457.66 Q1396.12 1454.1 1392.48 1454.1 M1392.48 1450.39 Q1398.29 1450.39 1401.35 1455 Q1404.43 1459.58 1404.43 1468.33 Q1404.43 1477.06 1401.35 1481.67 Q1398.29 1486.25 1392.48 1486.25 Q1386.67 1486.25 1383.59 1481.67 Q1380.54 1477.06 1380.54 1468.33 Q1380.54 1459.58 1383.59 1455 Q1386.67 1450.39 1392.48 1450.39 Z" fill="#000000" fill-rule="nonzero" fill-opacity="1" /><path clip-path="url(#clip290)" d="M1413.45 1481.64 L1421.09 1481.64 L1421.09 1455.28 L1412.78 1456.95 L1412.78 1452.69 L1421.05 1451.02 L1425.72 1451.02 L1425.72 1481.64 L1433.36 1481.64 L1433.36 1485.58 L1413.45 1485.58 L1413.45 1481.64 Z" fill="#000000" fill-rule="nonzero" fill-opacity="1" /><path clip-path="url(#clip290)" d="M1698.03 1481.64 L1714.35 1481.64 L1714.35 1485.58 L1692.41 1485.58 L1692.41 1481.64 Q1695.07 1478.89 1699.65 1474.26 Q1704.26 1469.61 1705.44 1468.27 Q1707.68 1465.74 1708.56 1464.01 Q1709.47 1462.25 1709.47 1460.56 Q1709.47 1457.8 1707.52 1456.07 Q1705.6 1454.33 1702.5 1454.33 Q1700.3 1454.33 1697.85 1455.09 Q1695.42 1455.86 1692.64 1457.41 L1692.64 1452.69 Q1695.46 1451.55 1697.92 1450.97 Q1700.37 1450.39 1702.41 1450.39 Q1707.78 1450.39 1710.97 1453.08 Q1714.17 1455.77 1714.17 1460.26 Q1714.17 1462.39 1713.36 1464.31 Q1712.57 1466.2 1710.46 1468.8 Q1709.88 1469.47 1706.78 1472.69 Q1703.68 1475.88 1698.03 1481.64 Z" fill="#000000" fill-rule="nonzero" fill-opacity="1" /><path clip-path="url(#clip290)" d="M1734.17 1454.1 Q1730.55 1454.1 1728.73 1457.66 Q1726.92 1461.2 1726.92 1468.33 Q1726.92 1475.44 1728.73 1479.01 Q1730.55 1482.55 1734.17 1482.55 Q1737.8 1482.55 1739.61 1479.01 Q1741.43 1475.44 1741.43 1468.33 Q1741.43 1461.2 1739.61 1457.66 Q1737.8 1454.1 1734.17 1454.1 M1734.17 1450.39 Q1739.98 1450.39 1743.03 1455 Q1746.11 1459.58 1746.11 1468.33 Q1746.11 1477.06 1743.03 1481.67 Q1739.98 1486.25 1734.17 1486.25 Q1728.36 1486.25 1725.28 1481.67 Q1722.22 1477.06 1722.22 1468.33 Q1722.22 1459.58 1725.28 1455 Q1728.36 1450.39 1734.17 1450.39 Z" fill="#000000" fill-rule="nonzero" fill-opacity="1" /><path clip-path="url(#clip290)" d="M1758.35 1481.64 L1774.67 1481.64 L1774.67 1485.58 L1752.73 1485.58 L1752.73 1481.64 Q1755.39 1478.89 1759.98 1474.26 Q1764.58 1469.61 1765.76 1468.27 Q1768.01 1465.74 1768.89 1464.01 Q1769.79 1462.25 1769.79 1460.56 Q1769.79 1457.8 1767.85 1456.07 Q1765.92 1454.33 1762.82 1454.33 Q1760.62 1454.33 1758.17 1455.09 Q1755.74 1455.86 1752.96 1457.41 L1752.96 1452.69 Q1755.79 1451.55 1758.24 1450.97 Q1760.69 1450.39 1762.73 1450.39 Q1768.1 1450.39 1771.29 1453.08 Q1774.49 1455.77 1774.49 1460.26 Q1774.49 1462.39 1773.68 1464.31 Q1772.89 1466.2 1770.79 1468.8 Q1770.21 1469.47 1767.1 1472.69 Q1764 1475.88 1758.35 1481.64 Z" fill="#000000" fill-rule="nonzero" fill-opacity="1" /><path clip-path="url(#clip290)" d="M1785.3 1481.64 L1792.94 1481.64 L1792.94 1455.28 L1784.63 1456.95 L1784.63 1452.69 L1792.89 1451.02 L1797.57 1451.02 L1797.57 1481.64 L1805.21 1481.64 L1805.21 1485.58 L1785.3 1485.58 L1785.3 1481.64 Z" fill="#000000" fill-rule="nonzero" fill-opacity="1" /><path clip-path="url(#clip290)" d="M1811.9 1470.7 L1824.37 1470.7 L1824.37 1474.49 L1811.9 1474.49 L1811.9 1470.7 Z" fill="#000000" fill-rule="nonzero" fill-opacity="1" /><path clip-path="url(#clip290)" d="M1832.57 1481.64 L1840.21 1481.64 L1840.21 1455.28 L1831.9 1456.95 L1831.9 1452.69 L1840.16 1451.02 L1844.84 1451.02 L1844.84 1481.64 L1852.47 1481.64 L1852.47 1485.58 L1832.57 1485.58 L1832.57 1481.64 Z" fill="#000000" fill-rule="nonzero" fill-opacity="1" /><path clip-path="url(#clip290)" d="M1871.92 1454.1 Q1868.31 1454.1 1866.48 1457.66 Q1864.67 1461.2 1864.67 1468.33 Q1864.67 1475.44 1866.48 1479.01 Q1868.31 1482.55 1871.92 1482.55 Q1875.55 1482.55 1877.36 1479.01 Q1879.19 1475.44 1879.19 1468.33 Q1879.19 1461.2 1877.36 1457.66 Q1875.55 1454.1 1871.92 1454.1 M1871.92 1450.39 Q1877.73 1450.39 1880.78 1455 Q1883.86 1459.58 1883.86 1468.33 Q1883.86 1477.06 1880.78 1481.67 Q1877.73 1486.25 1871.92 1486.25 Q1866.11 1486.25 1863.03 1481.67 Q1859.97 1477.06 1859.97 1468.33 Q1859.97 1459.58 1863.03 1455 Q1866.11 1450.39 1871.92 1450.39 Z" fill="#000000" fill-rule="nonzero" fill-opacity="1" /><path clip-path="url(#clip290)" d="M1889.33 1470.7 L1901.8 1470.7 L1901.8 1474.49 L1889.33 1474.49 L1889.33 1470.7 Z" fill="#000000" fill-rule="nonzero" fill-opacity="1" /><path clip-path="url(#clip290)" d="M1919.19 1454.1 Q1915.58 1454.1 1913.75 1457.66 Q1911.94 1461.2 1911.94 1468.33 Q1911.94 1475.44 1913.75 1479.01 Q1915.58 1482.55 1919.19 1482.55 Q1922.82 1482.55 1924.63 1479.01 Q1926.46 1475.44 1926.46 1468.33 Q1926.46 1461.2 1924.63 1457.66 Q1922.82 1454.1 1919.19 1454.1 M1919.19 1450.39 Q1925 1450.39 1928.05 1455 Q1931.13 1459.58 1931.13 1468.33 Q1931.13 1477.06 1928.05 1481.67 Q1925 1486.25 1919.19 1486.25 Q1913.38 1486.25 1910.3 1481.67 Q1907.24 1477.06 1907.24 1468.33 Q1907.24 1459.58 1910.3 1455 Q1913.38 1450.39 1919.19 1450.39 Z" fill="#000000" fill-rule="nonzero" fill-opacity="1" /><path clip-path="url(#clip290)" d="M1940.16 1481.64 L1947.8 1481.64 L1947.8 1455.28 L1939.49 1456.95 L1939.49 1452.69 L1947.75 1451.02 L1952.43 1451.02 L1952.43 1481.64 L1960.07 1481.64 L1960.07 1485.58 L1940.16 1485.58 L1940.16 1481.64 Z" fill="#000000" fill-rule="nonzero" fill-opacity="1" /><path clip-path="url(#clip290)" d="M1243.77 1537.81 L1243.77 1518.52 L1249.62 1518.52 L1249.62 1568.04 L1243.77 1568.04 L1243.77 1562.7 Q1241.92 1565.88 1239.09 1567.44 Q1236.29 1568.97 1232.34 1568.97 Q1225.88 1568.97 1221.81 1563.81 Q1217.76 1558.65 1217.76 1550.25 Q1217.76 1541.85 1221.81 1536.69 Q1225.88 1531.54 1232.34 1531.54 Q1236.29 1531.54 1239.09 1533.1 Q1241.92 1534.62 1243.77 1537.81 M1223.81 1550.25 Q1223.81 1556.71 1226.45 1560.4 Q1229.13 1564.07 1233.77 1564.07 Q1238.42 1564.07 1241.09 1560.4 Q1243.77 1556.71 1243.77 1550.25 Q1243.77 1543.79 1241.09 1540.13 Q1238.42 1536.44 1233.77 1536.44 Q1229.13 1536.44 1226.45 1540.13 Q1223.81 1543.79 1223.81 1550.25 Z" fill="#000000" fill-rule="nonzero" fill-opacity="1" /><path clip-path="url(#clip290)" d="M1277.89 1550.12 Q1270.79 1550.12 1268.05 1551.75 Q1265.32 1553.37 1265.32 1557.29 Q1265.32 1560.4 1267.35 1562.25 Q1269.42 1564.07 1272.95 1564.07 Q1277.82 1564.07 1280.75 1560.63 Q1283.71 1557.16 1283.71 1551.43 L1283.71 1550.12 L1277.89 1550.12 M1289.57 1547.71 L1289.57 1568.04 L1283.71 1568.04 L1283.71 1562.63 Q1281.71 1565.88 1278.72 1567.44 Q1275.72 1568.97 1271.4 1568.97 Q1265.92 1568.97 1262.67 1565.91 Q1259.46 1562.82 1259.46 1557.67 Q1259.46 1551.65 1263.47 1548.6 Q1267.51 1545.54 1275.5 1545.54 L1283.71 1545.54 L1283.71 1544.97 Q1283.71 1540.93 1281.04 1538.73 Q1278.4 1536.5 1273.59 1536.5 Q1270.54 1536.5 1267.64 1537.23 Q1264.74 1537.97 1262.07 1539.43 L1262.07 1534.02 Q1265.28 1532.78 1268.31 1532.17 Q1271.33 1531.54 1274.2 1531.54 Q1281.93 1531.54 1285.75 1535.55 Q1289.57 1539.56 1289.57 1547.71 Z" fill="#000000" fill-rule="nonzero" fill-opacity="1" /><path clip-path="url(#clip290)" d="M1307.42 1522.27 L1307.42 1532.4 L1319.49 1532.4 L1319.49 1536.95 L1307.42 1536.95 L1307.42 1556.3 Q1307.42 1560.66 1308.6 1561.9 Q1309.81 1563.14 1313.47 1563.14 L1319.49 1563.14 L1319.49 1568.04 L1313.47 1568.04 Q1306.69 1568.04 1304.11 1565.53 Q1301.54 1562.98 1301.54 1556.3 L1301.54 1536.95 L1297.24 1536.95 L1297.24 1532.4 L1301.54 1532.4 L1301.54 1522.27 L1307.42 1522.27 Z" fill="#000000" fill-rule="nonzero" fill-opacity="1" /><path clip-path="url(#clip290)" d="M1357.68 1548.76 L1357.68 1551.62 L1330.76 1551.62 Q1331.14 1557.67 1334.38 1560.85 Q1337.66 1564 1343.49 1564 Q1346.86 1564 1350.01 1563.17 Q1353.19 1562.35 1356.31 1560.69 L1356.31 1566.23 Q1353.16 1567.57 1349.85 1568.27 Q1346.54 1568.97 1343.14 1568.97 Q1334.61 1568.97 1329.61 1564 Q1324.64 1559.04 1324.64 1550.57 Q1324.64 1541.82 1329.35 1536.69 Q1334.1 1531.54 1342.12 1531.54 Q1349.31 1531.54 1353.48 1536.18 Q1357.68 1540.8 1357.68 1548.76 M1351.83 1547.04 Q1351.76 1542.23 1349.12 1539.37 Q1346.51 1536.5 1342.18 1536.5 Q1337.28 1536.5 1334.32 1539.27 Q1331.39 1542.04 1330.95 1547.07 L1351.83 1547.04 Z" fill="#000000" fill-rule="nonzero" fill-opacity="1" /><polyline clip-path="url(#clip292)" style="stroke:#000000; stroke-linecap:round; stroke-linejoin:round; stroke-width:2; stroke-opacity:0.1; fill:none" points="222.69,1384.24 2352.76,1384.24 "/>
<polyline clip-path="url(#clip292)" style="stroke:#000000; stroke-linecap:round; stroke-linejoin:round; stroke-width:2; stroke-opacity:0.1; fill:none" points="222.69,1087.17 2352.76,1087.17 "/>
<polyline clip-path="url(#clip292)" style="stroke:#000000; stroke-linecap:round; stroke-linejoin:round; stroke-width:2; stroke-opacity:0.1; fill:none" points="222.69,790.098 2352.76,790.098 "/>
<polyline clip-path="url(#clip292)" style="stroke:#000000; stroke-linecap:round; stroke-linejoin:round; stroke-width:2; stroke-opacity:0.1; fill:none" points="222.69,493.028 2352.76,493.028 "/>
<polyline clip-path="url(#clip292)" style="stroke:#000000; stroke-linecap:round; stroke-linejoin:round; stroke-width:2; stroke-opacity:0.1; fill:none" points="222.69,195.958 2352.76,195.958 "/>
<polyline clip-path="url(#clip292)" style="stroke:#000000; stroke-linecap:round; stroke-linejoin:round; stroke-width:2; stroke-opacity:0.05; fill:none" points="222.69,1413.03 2352.76,1413.03 "/>
<polyline clip-path="url(#clip292)" style="stroke:#000000; stroke-linecap:round; stroke-linejoin:round; stroke-width:2; stroke-opacity:0.05; fill:none" points="222.69,1397.83 2352.76,1397.83 "/>
<polyline clip-path="url(#clip292)" style="stroke:#000000; stroke-linecap:round; stroke-linejoin:round; stroke-width:2; stroke-opacity:0.05; fill:none" points="222.69,1294.81 2352.76,1294.81 "/>
<polyline clip-path="url(#clip292)" style="stroke:#000000; stroke-linecap:round; stroke-linejoin:round; stroke-width:2; stroke-opacity:0.05; fill:none" points="222.69,1242.5 2352.76,1242.5 "/>
<polyline clip-path="url(#clip292)" style="stroke:#000000; stroke-linecap:round; stroke-linejoin:round; stroke-width:2; stroke-opacity:0.05; fill:none" points="222.69,1205.38 2352.76,1205.38 "/>
<polyline clip-path="url(#clip292)" style="stroke:#000000; stroke-linecap:round; stroke-linejoin:round; stroke-width:2; stroke-opacity:0.05; fill:none" points="222.69,1176.6 2352.76,1176.6 "/>
<polyline clip-path="url(#clip292)" style="stroke:#000000; stroke-linecap:round; stroke-linejoin:round; stroke-width:2; stroke-opacity:0.05; fill:none" points="222.69,1153.07 2352.76,1153.07 "/>
<polyline clip-path="url(#clip292)" style="stroke:#000000; stroke-linecap:round; stroke-linejoin:round; stroke-width:2; stroke-opacity:0.05; fill:none" points="222.69,1133.18 2352.76,1133.18 "/>
<polyline clip-path="url(#clip292)" style="stroke:#000000; stroke-linecap:round; stroke-linejoin:round; stroke-width:2; stroke-opacity:0.05; fill:none" points="222.69,1115.96 2352.76,1115.96 "/>
<polyline clip-path="url(#clip292)" style="stroke:#000000; stroke-linecap:round; stroke-linejoin:round; stroke-width:2; stroke-opacity:0.05; fill:none" points="222.69,1100.76 2352.76,1100.76 "/>
<polyline clip-path="url(#clip292)" style="stroke:#000000; stroke-linecap:round; stroke-linejoin:round; stroke-width:2; stroke-opacity:0.05; fill:none" points="222.69,997.741 2352.76,997.741 "/>
<polyline clip-path="url(#clip292)" style="stroke:#000000; stroke-linecap:round; stroke-linejoin:round; stroke-width:2; stroke-opacity:0.05; fill:none" points="222.69,945.43 2352.76,945.43 "/>
<polyline clip-path="url(#clip292)" style="stroke:#000000; stroke-linecap:round; stroke-linejoin:round; stroke-width:2; stroke-opacity:0.05; fill:none" points="222.69,908.314 2352.76,908.314 "/>
<polyline clip-path="url(#clip292)" style="stroke:#000000; stroke-linecap:round; stroke-linejoin:round; stroke-width:2; stroke-opacity:0.05; fill:none" points="222.69,879.525 2352.76,879.525 "/>
<polyline clip-path="url(#clip292)" style="stroke:#000000; stroke-linecap:round; stroke-linejoin:round; stroke-width:2; stroke-opacity:0.05; fill:none" points="222.69,856.003 2352.76,856.003 "/>
<polyline clip-path="url(#clip292)" style="stroke:#000000; stroke-linecap:round; stroke-linejoin:round; stroke-width:2; stroke-opacity:0.05; fill:none" points="222.69,836.115 2352.76,836.115 "/>
<polyline clip-path="url(#clip292)" style="stroke:#000000; stroke-linecap:round; stroke-linejoin:round; stroke-width:2; stroke-opacity:0.05; fill:none" points="222.69,818.887 2352.76,818.887 "/>
<polyline clip-path="url(#clip292)" style="stroke:#000000; stroke-linecap:round; stroke-linejoin:round; stroke-width:2; stroke-opacity:0.05; fill:none" points="222.69,803.691 2352.76,803.691 "/>
<polyline clip-path="url(#clip292)" style="stroke:#000000; stroke-linecap:round; stroke-linejoin:round; stroke-width:2; stroke-opacity:0.05; fill:none" points="222.69,700.671 2352.76,700.671 "/>
<polyline clip-path="url(#clip292)" style="stroke:#000000; stroke-linecap:round; stroke-linejoin:round; stroke-width:2; stroke-opacity:0.05; fill:none" points="222.69,648.36 2352.76,648.36 "/>
<polyline clip-path="url(#clip292)" style="stroke:#000000; stroke-linecap:round; stroke-linejoin:round; stroke-width:2; stroke-opacity:0.05; fill:none" points="222.69,611.244 2352.76,611.244 "/>
<polyline clip-path="url(#clip292)" style="stroke:#000000; stroke-linecap:round; stroke-linejoin:round; stroke-width:2; stroke-opacity:0.05; fill:none" points="222.69,582.455 2352.76,582.455 "/>
<polyline clip-path="url(#clip292)" style="stroke:#000000; stroke-linecap:round; stroke-linejoin:round; stroke-width:2; stroke-opacity:0.05; fill:none" points="222.69,558.933 2352.76,558.933 "/>
<polyline clip-path="url(#clip292)" style="stroke:#000000; stroke-linecap:round; stroke-linejoin:round; stroke-width:2; stroke-opacity:0.05; fill:none" points="222.69,539.045 2352.76,539.045 "/>
<polyline clip-path="url(#clip292)" style="stroke:#000000; stroke-linecap:round; stroke-linejoin:round; stroke-width:2; stroke-opacity:0.05; fill:none" points="222.69,521.817 2352.76,521.817 "/>
<polyline clip-path="url(#clip292)" style="stroke:#000000; stroke-linecap:round; stroke-linejoin:round; stroke-width:2; stroke-opacity:0.05; fill:none" points="222.69,506.621 2352.76,506.621 "/>
<polyline clip-path="url(#clip292)" style="stroke:#000000; stroke-linecap:round; stroke-linejoin:round; stroke-width:2; stroke-opacity:0.05; fill:none" points="222.69,403.601 2352.76,403.601 "/>
<polyline clip-path="url(#clip292)" style="stroke:#000000; stroke-linecap:round; stroke-linejoin:round; stroke-width:2; stroke-opacity:0.05; fill:none" points="222.69,351.289 2352.76,351.289 "/>
<polyline clip-path="url(#clip292)" style="stroke:#000000; stroke-linecap:round; stroke-linejoin:round; stroke-width:2; stroke-opacity:0.05; fill:none" points="222.69,314.174 2352.76,314.174 "/>
<polyline clip-path="url(#clip292)" style="stroke:#000000; stroke-linecap:round; stroke-linejoin:round; stroke-width:2; stroke-opacity:0.05; fill:none" points="222.69,285.385 2352.76,285.385 "/>
<polyline clip-path="url(#clip292)" style="stroke:#000000; stroke-linecap:round; stroke-linejoin:round; stroke-width:2; stroke-opacity:0.05; fill:none" points="222.69,261.862 2352.76,261.862 "/>
<polyline clip-path="url(#clip292)" style="stroke:#000000; stroke-linecap:round; stroke-linejoin:round; stroke-width:2; stroke-opacity:0.05; fill:none" points="222.69,241.975 2352.76,241.975 "/>
<polyline clip-path="url(#clip292)" style="stroke:#000000; stroke-linecap:round; stroke-linejoin:round; stroke-width:2; stroke-opacity:0.05; fill:none" points="222.69,224.747 2352.76,224.747 "/>
<polyline clip-path="url(#clip292)" style="stroke:#000000; stroke-linecap:round; stroke-linejoin:round; stroke-width:2; stroke-opacity:0.05; fill:none" points="222.69,209.551 2352.76,209.551 "/>
<polyline clip-path="url(#clip292)" style="stroke:#000000; stroke-linecap:round; stroke-linejoin:round; stroke-width:2; stroke-opacity:0.05; fill:none" points="222.69,106.531 2352.76,106.531 "/>
<polyline clip-path="url(#clip292)" style="stroke:#000000; stroke-linecap:round; stroke-linejoin:round; stroke-width:2; stroke-opacity:0.05; fill:none" points="222.69,54.2194 2352.76,54.2194 "/>
<polyline clip-path="url(#clip290)" style="stroke:#000000; stroke-linecap:round; stroke-linejoin:round; stroke-width:4; stroke-opacity:1; fill:none" points="222.69,1423.18 222.69,47.2441 "/>
<polyline clip-path="url(#clip290)" style="stroke:#000000; stroke-linecap:round; stroke-linejoin:round; stroke-width:4; stroke-opacity:1; fill:none" points="222.69,1384.24 241.588,1384.24 "/>
<polyline clip-path="url(#clip290)" style="stroke:#000000; stroke-linecap:round; stroke-linejoin:round; stroke-width:4; stroke-opacity:1; fill:none" points="222.69,1087.17 241.588,1087.17 "/>
<polyline clip-path="url(#clip290)" style="stroke:#000000; stroke-linecap:round; stroke-linejoin:round; stroke-width:4; stroke-opacity:1; fill:none" points="222.69,790.098 241.588,790.098 "/>
<polyline clip-path="url(#clip290)" style="stroke:#000000; stroke-linecap:round; stroke-linejoin:round; stroke-width:4; stroke-opacity:1; fill:none" points="222.69,493.028 241.588,493.028 "/>
<polyline clip-path="url(#clip290)" style="stroke:#000000; stroke-linecap:round; stroke-linejoin:round; stroke-width:4; stroke-opacity:1; fill:none" points="222.69,195.958 241.588,195.958 "/>
<polyline clip-path="url(#clip290)" style="stroke:#000000; stroke-linecap:round; stroke-linejoin:round; stroke-width:4; stroke-opacity:1; fill:none" points="222.69,1413.03 232.139,1413.03 "/>
<polyline clip-path="url(#clip290)" style="stroke:#000000; stroke-linecap:round; stroke-linejoin:round; stroke-width:4; stroke-opacity:1; fill:none" points="222.69,1397.83 232.139,1397.83 "/>
<polyline clip-path="url(#clip290)" style="stroke:#000000; stroke-linecap:round; stroke-linejoin:round; stroke-width:4; stroke-opacity:1; fill:none" points="222.69,1294.81 232.139,1294.81 "/>
<polyline clip-path="url(#clip290)" style="stroke:#000000; stroke-linecap:round; stroke-linejoin:round; stroke-width:4; stroke-opacity:1; fill:none" points="222.69,1242.5 232.139,1242.5 "/>
<polyline clip-path="url(#clip290)" style="stroke:#000000; stroke-linecap:round; stroke-linejoin:round; stroke-width:4; stroke-opacity:1; fill:none" points="222.69,1205.38 232.139,1205.38 "/>
<polyline clip-path="url(#clip290)" style="stroke:#000000; stroke-linecap:round; stroke-linejoin:round; stroke-width:4; stroke-opacity:1; fill:none" points="222.69,1176.6 232.139,1176.6 "/>
<polyline clip-path="url(#clip290)" style="stroke:#000000; stroke-linecap:round; stroke-linejoin:round; stroke-width:4; stroke-opacity:1; fill:none" points="222.69,1153.07 232.139,1153.07 "/>
<polyline clip-path="url(#clip290)" style="stroke:#000000; stroke-linecap:round; stroke-linejoin:round; stroke-width:4; stroke-opacity:1; fill:none" points="222.69,1133.18 232.139,1133.18 "/>
<polyline clip-path="url(#clip290)" style="stroke:#000000; stroke-linecap:round; stroke-linejoin:round; stroke-width:4; stroke-opacity:1; fill:none" points="222.69,1115.96 232.139,1115.96 "/>
<polyline clip-path="url(#clip290)" style="stroke:#000000; stroke-linecap:round; stroke-linejoin:round; stroke-width:4; stroke-opacity:1; fill:none" points="222.69,1100.76 232.139,1100.76 "/>
<polyline clip-path="url(#clip290)" style="stroke:#000000; stroke-linecap:round; stroke-linejoin:round; stroke-width:4; stroke-opacity:1; fill:none" points="222.69,997.741 232.139,997.741 "/>
<polyline clip-path="url(#clip290)" style="stroke:#000000; stroke-linecap:round; stroke-linejoin:round; stroke-width:4; stroke-opacity:1; fill:none" points="222.69,945.43 232.139,945.43 "/>
<polyline clip-path="url(#clip290)" style="stroke:#000000; stroke-linecap:round; stroke-linejoin:round; stroke-width:4; stroke-opacity:1; fill:none" points="222.69,908.314 232.139,908.314 "/>
<polyline clip-path="url(#clip290)" style="stroke:#000000; stroke-linecap:round; stroke-linejoin:round; stroke-width:4; stroke-opacity:1; fill:none" points="222.69,879.525 232.139,879.525 "/>
<polyline clip-path="url(#clip290)" style="stroke:#000000; stroke-linecap:round; stroke-linejoin:round; stroke-width:4; stroke-opacity:1; fill:none" points="222.69,856.003 232.139,856.003 "/>
<polyline clip-path="url(#clip290)" style="stroke:#000000; stroke-linecap:round; stroke-linejoin:round; stroke-width:4; stroke-opacity:1; fill:none" points="222.69,836.115 232.139,836.115 "/>
<polyline clip-path="url(#clip290)" style="stroke:#000000; stroke-linecap:round; stroke-linejoin:round; stroke-width:4; stroke-opacity:1; fill:none" points="222.69,818.887 232.139,818.887 "/>
<polyline clip-path="url(#clip290)" style="stroke:#000000; stroke-linecap:round; stroke-linejoin:round; stroke-width:4; stroke-opacity:1; fill:none" points="222.69,803.691 232.139,803.691 "/>
<polyline clip-path="url(#clip290)" style="stroke:#000000; stroke-linecap:round; stroke-linejoin:round; stroke-width:4; stroke-opacity:1; fill:none" points="222.69,700.671 232.139,700.671 "/>
<polyline clip-path="url(#clip290)" style="stroke:#000000; stroke-linecap:round; stroke-linejoin:round; stroke-width:4; stroke-opacity:1; fill:none" points="222.69,648.36 232.139,648.36 "/>
<polyline clip-path="url(#clip290)" style="stroke:#000000; stroke-linecap:round; stroke-linejoin:round; stroke-width:4; stroke-opacity:1; fill:none" points="222.69,611.244 232.139,611.244 "/>
<polyline clip-path="url(#clip290)" style="stroke:#000000; stroke-linecap:round; stroke-linejoin:round; stroke-width:4; stroke-opacity:1; fill:none" points="222.69,582.455 232.139,582.455 "/>
<polyline clip-path="url(#clip290)" style="stroke:#000000; stroke-linecap:round; stroke-linejoin:round; stroke-width:4; stroke-opacity:1; fill:none" points="222.69,558.933 232.139,558.933 "/>
<polyline clip-path="url(#clip290)" style="stroke:#000000; stroke-linecap:round; stroke-linejoin:round; stroke-width:4; stroke-opacity:1; fill:none" points="222.69,539.045 232.139,539.045 "/>
<polyline clip-path="url(#clip290)" style="stroke:#000000; stroke-linecap:round; stroke-linejoin:round; stroke-width:4; stroke-opacity:1; fill:none" points="222.69,521.817 232.139,521.817 "/>
<polyline clip-path="url(#clip290)" style="stroke:#000000; stroke-linecap:round; stroke-linejoin:round; stroke-width:4; stroke-opacity:1; fill:none" points="222.69,506.621 232.139,506.621 "/>
<polyline clip-path="url(#clip290)" style="stroke:#000000; stroke-linecap:round; stroke-linejoin:round; stroke-width:4; stroke-opacity:1; fill:none" points="222.69,403.601 232.139,403.601 "/>
<polyline clip-path="url(#clip290)" style="stroke:#000000; stroke-linecap:round; stroke-linejoin:round; stroke-width:4; stroke-opacity:1; fill:none" points="222.69,351.289 232.139,351.289 "/>
<polyline clip-path="url(#clip290)" style="stroke:#000000; stroke-linecap:round; stroke-linejoin:round; stroke-width:4; stroke-opacity:1; fill:none" points="222.69,314.174 232.139,314.174 "/>
<polyline clip-path="url(#clip290)" style="stroke:#000000; stroke-linecap:round; stroke-linejoin:round; stroke-width:4; stroke-opacity:1; fill:none" points="222.69,285.385 232.139,285.385 "/>
<polyline clip-path="url(#clip290)" style="stroke:#000000; stroke-linecap:round; stroke-linejoin:round; stroke-width:4; stroke-opacity:1; fill:none" points="222.69,261.862 232.139,261.862 "/>
<polyline clip-path="url(#clip290)" style="stroke:#000000; stroke-linecap:round; stroke-linejoin:round; stroke-width:4; stroke-opacity:1; fill:none" points="222.69,241.975 232.139,241.975 "/>
<polyline clip-path="url(#clip290)" style="stroke:#000000; stroke-linecap:round; stroke-linejoin:round; stroke-width:4; stroke-opacity:1; fill:none" points="222.69,224.747 232.139,224.747 "/>
<polyline clip-path="url(#clip290)" style="stroke:#000000; stroke-linecap:round; stroke-linejoin:round; stroke-width:4; stroke-opacity:1; fill:none" points="222.69,209.551 232.139,209.551 "/>
<polyline clip-path="url(#clip290)" style="stroke:#000000; stroke-linecap:round; stroke-linejoin:round; stroke-width:4; stroke-opacity:1; fill:none" points="222.69,106.531 232.139,106.531 "/>
<polyline clip-path="url(#clip290)" style="stroke:#000000; stroke-linecap:round; stroke-linejoin:round; stroke-width:4; stroke-opacity:1; fill:none" points="222.69,54.2194 232.139,54.2194 "/>
<path clip-path="url(#clip290)" d="M115.985 1404.03 L123.624 1404.03 L123.624 1377.67 L115.313 1379.33 L115.313 1375.07 L123.577 1373.41 L128.253 1373.41 L128.253 1404.03 L135.892 1404.03 L135.892 1407.97 L115.985 1407.97 L115.985 1404.03 Z" fill="#000000" fill-rule="nonzero" fill-opacity="1" /><path clip-path="url(#clip290)" d="M155.336 1376.48 Q151.725 1376.48 149.897 1380.05 Q148.091 1383.59 148.091 1390.72 Q148.091 1397.83 149.897 1401.39 Q151.725 1404.93 155.336 1404.93 Q158.971 1404.93 160.776 1401.39 Q162.605 1397.83 162.605 1390.72 Q162.605 1383.59 160.776 1380.05 Q158.971 1376.48 155.336 1376.48 M155.336 1372.78 Q161.146 1372.78 164.202 1377.39 Q167.281 1381.97 167.281 1390.72 Q167.281 1399.45 164.202 1404.05 Q161.146 1408.64 155.336 1408.64 Q149.526 1408.64 146.447 1404.05 Q143.392 1399.45 143.392 1390.72 Q143.392 1381.97 146.447 1377.39 Q149.526 1372.78 155.336 1372.78 Z" fill="#000000" fill-rule="nonzero" fill-opacity="1" /><path clip-path="url(#clip290)" d="M176.986 1354.98 Q174.052 1354.98 172.566 1357.87 Q171.099 1360.75 171.099 1366.54 Q171.099 1372.32 172.566 1375.21 Q174.052 1378.09 176.986 1378.09 Q179.938 1378.09 181.405 1375.21 Q182.891 1372.32 182.891 1366.54 Q182.891 1360.75 181.405 1357.87 Q179.938 1354.98 176.986 1354.98 M176.986 1351.97 Q181.706 1351.97 184.189 1355.71 Q186.69 1359.43 186.69 1366.54 Q186.69 1373.63 184.189 1377.38 Q181.706 1381.1 176.986 1381.1 Q172.265 1381.1 169.763 1377.38 Q167.281 1373.63 167.281 1366.54 Q167.281 1359.43 169.763 1355.71 Q172.265 1351.97 176.986 1351.97 Z" fill="#000000" fill-rule="nonzero" fill-opacity="1" /><path clip-path="url(#clip290)" d="M118.674 1106.96 L126.313 1106.96 L126.313 1080.59 L118.003 1082.26 L118.003 1078 L126.267 1076.34 L130.943 1076.34 L130.943 1106.96 L138.581 1106.96 L138.581 1110.9 L118.674 1110.9 L118.674 1106.96 Z" fill="#000000" fill-rule="nonzero" fill-opacity="1" /><path clip-path="url(#clip290)" d="M158.026 1079.41 Q154.415 1079.41 152.586 1082.98 Q150.781 1086.52 150.781 1093.65 Q150.781 1100.76 152.586 1104.32 Q154.415 1107.86 158.026 1107.86 Q161.66 1107.86 163.466 1104.32 Q165.294 1100.76 165.294 1093.65 Q165.294 1086.52 163.466 1082.98 Q161.66 1079.41 158.026 1079.41 M158.026 1075.71 Q163.836 1075.71 166.892 1080.32 Q169.97 1084.9 169.97 1093.65 Q169.97 1102.38 166.892 1106.98 Q163.836 1111.57 158.026 1111.57 Q152.216 1111.57 149.137 1106.98 Q146.081 1102.38 146.081 1093.65 Q146.081 1084.9 149.137 1080.32 Q152.216 1075.71 158.026 1075.71 Z" fill="#000000" fill-rule="nonzero" fill-opacity="1" /><path clip-path="url(#clip290)" d="M170.516 1080.29 L176.722 1080.29 L176.722 1058.87 L169.97 1060.22 L169.97 1056.76 L176.685 1055.41 L180.484 1055.41 L180.484 1080.29 L186.69 1080.29 L186.69 1083.49 L170.516 1083.49 L170.516 1080.29 Z" fill="#000000" fill-rule="nonzero" fill-opacity="1" /><path clip-path="url(#clip290)" d="M117.565 809.89 L125.203 809.89 L125.203 783.525 L116.893 785.192 L116.893 780.932 L125.157 779.266 L129.833 779.266 L129.833 809.89 L137.472 809.89 L137.472 813.826 L117.565 813.826 L117.565 809.89 Z" fill="#000000" fill-rule="nonzero" fill-opacity="1" /><path clip-path="url(#clip290)" d="M156.916 782.344 Q153.305 782.344 151.476 785.909 Q149.671 789.451 149.671 796.58 Q149.671 803.687 151.476 807.252 Q153.305 810.793 156.916 810.793 Q160.55 810.793 162.356 807.252 Q164.185 803.687 164.185 796.58 Q164.185 789.451 162.356 785.909 Q160.55 782.344 156.916 782.344 M156.916 778.641 Q162.726 778.641 165.782 783.247 Q168.861 787.83 168.861 796.58 Q168.861 805.307 165.782 809.914 Q162.726 814.497 156.916 814.497 Q151.106 814.497 148.027 809.914 Q144.972 805.307 144.972 796.58 Q144.972 787.83 148.027 783.247 Q151.106 778.641 156.916 778.641 Z" fill="#000000" fill-rule="nonzero" fill-opacity="1" /><path clip-path="url(#clip290)" d="M173.431 783.218 L186.69 783.218 L186.69 786.415 L168.861 786.415 L168.861 783.218 Q171.023 780.98 174.747 777.218 Q178.49 773.438 179.449 772.347 Q181.274 770.297 181.988 768.886 Q182.722 767.457 182.722 766.084 Q182.722 763.846 181.142 762.435 Q179.581 761.025 177.061 761.025 Q175.274 761.025 173.28 761.645 Q171.306 762.266 169.049 763.526 L169.049 759.689 Q171.343 758.768 173.337 758.298 Q175.33 757.827 176.986 757.827 Q181.349 757.827 183.944 760.009 Q186.54 762.191 186.54 765.84 Q186.54 767.57 185.882 769.131 Q185.242 770.673 183.531 772.78 Q183.06 773.325 180.54 775.939 Q178.02 778.535 173.431 783.218 Z" fill="#000000" fill-rule="nonzero" fill-opacity="1" /><path clip-path="url(#clip290)" d="M116.906 512.82 L124.545 512.82 L124.545 486.455 L116.235 488.121 L116.235 483.862 L124.499 482.196 L129.175 482.196 L129.175 512.82 L136.814 512.82 L136.814 516.756 L116.906 516.756 L116.906 512.82 Z" fill="#000000" fill-rule="nonzero" fill-opacity="1" /><path clip-path="url(#clip290)" d="M156.258 485.274 Q152.647 485.274 150.818 488.839 Q149.013 492.381 149.013 499.51 Q149.013 506.617 150.818 510.182 Q152.647 513.723 156.258 513.723 Q159.892 513.723 161.698 510.182 Q163.526 506.617 163.526 499.51 Q163.526 492.381 161.698 488.839 Q159.892 485.274 156.258 485.274 M156.258 481.571 Q162.068 481.571 165.124 486.177 Q168.202 490.76 168.202 499.51 Q168.202 508.237 165.124 512.844 Q162.068 517.427 156.258 517.427 Q150.448 517.427 147.369 512.844 Q144.314 508.237 144.314 499.51 Q144.314 490.76 147.369 486.177 Q150.448 481.571 156.258 481.571 Z" fill="#000000" fill-rule="nonzero" fill-opacity="1" /><path clip-path="url(#clip290)" d="M180.898 474.205 Q183.625 474.788 185.148 476.631 Q186.69 478.474 186.69 481.183 Q186.69 485.339 183.832 487.615 Q180.973 489.891 175.707 489.891 Q173.939 489.891 172.058 489.533 Q170.196 489.195 168.202 488.499 L168.202 484.831 Q169.782 485.753 171.663 486.223 Q173.544 486.693 175.594 486.693 Q179.167 486.693 181.029 485.283 Q182.91 483.872 182.91 481.183 Q182.91 478.7 181.161 477.308 Q179.431 475.898 176.327 475.898 L173.055 475.898 L173.055 472.775 L176.478 472.775 Q179.28 472.775 180.766 471.666 Q182.252 470.537 182.252 468.431 Q182.252 466.268 180.709 465.121 Q179.186 463.955 176.327 463.955 Q174.766 463.955 172.979 464.293 Q171.193 464.632 169.049 465.346 L169.049 461.961 Q171.212 461.359 173.092 461.058 Q174.992 460.757 176.666 460.757 Q180.992 460.757 183.512 462.732 Q186.032 464.688 186.032 468.036 Q186.032 470.368 184.697 471.986 Q183.361 473.584 180.898 474.205 Z" fill="#000000" fill-rule="nonzero" fill-opacity="1" /><path clip-path="url(#clip290)" d="M114.931 215.75 L122.57 215.75 L122.57 189.385 L114.26 191.051 L114.26 186.792 L122.524 185.125 L127.2 185.125 L127.2 215.75 L134.839 215.75 L134.839 219.685 L114.931 219.685 L114.931 215.75 Z" fill="#000000" fill-rule="nonzero" fill-opacity="1" /><path clip-path="url(#clip290)" d="M154.283 188.204 Q150.672 188.204 148.843 191.769 Q147.038 195.311 147.038 202.44 Q147.038 209.547 148.843 213.111 Q150.672 216.653 154.283 216.653 Q157.917 216.653 159.723 213.111 Q161.552 209.547 161.552 202.44 Q161.552 195.311 159.723 191.769 Q157.917 188.204 154.283 188.204 M154.283 184.5 Q160.093 184.5 163.149 189.107 Q166.227 193.69 166.227 202.44 Q166.227 211.167 163.149 215.773 Q160.093 220.357 154.283 220.357 Q148.473 220.357 145.394 215.773 Q142.339 211.167 142.339 202.44 Q142.339 193.69 145.394 189.107 Q148.473 184.5 154.283 184.5 Z" fill="#000000" fill-rule="nonzero" fill-opacity="1" /><path clip-path="url(#clip290)" d="M178.904 167.505 L169.312 182.495 L178.904 182.495 L178.904 167.505 M177.907 164.195 L182.684 164.195 L182.684 182.495 L186.69 182.495 L186.69 185.655 L182.684 185.655 L182.684 192.275 L178.904 192.275 L178.904 185.655 L166.227 185.655 L166.227 181.987 L177.907 164.195 Z" fill="#000000" fill-rule="nonzero" fill-opacity="1" /><path clip-path="url(#clip290)" d="M46.0847 888.244 Q46.0847 895.341 47.7079 898.079 Q49.3312 900.816 53.2461 900.816 Q56.3653 900.816 58.2114 898.779 Q60.0256 896.71 60.0256 893.177 Q60.0256 888.307 56.5881 885.379 Q53.1188 882.419 47.3897 882.419 L46.0847 882.419 L46.0847 888.244 M43.6657 876.562 L64.0042 876.562 L64.0042 882.419 L58.5933 882.419 Q61.8398 884.424 63.3994 887.416 Q64.9272 890.408 64.9272 894.737 Q64.9272 900.211 61.8716 903.458 Q58.7843 906.672 53.6281 906.672 Q47.6125 906.672 44.5569 902.662 Q41.5014 898.62 41.5014 890.631 L41.5014 882.419 L40.9285 882.419 Q36.8862 882.419 34.6901 885.093 Q32.4621 887.734 32.4621 892.54 Q32.4621 895.596 33.1941 898.492 Q33.9262 901.389 35.3903 904.062 L29.9795 904.062 Q28.7381 900.848 28.1334 897.824 Q27.4968 894.8 27.4968 891.936 Q27.4968 884.201 31.5072 880.382 Q35.5176 876.562 43.6657 876.562 Z" fill="#000000" fill-rule="nonzero" fill-opacity="1" /><path clip-path="url(#clip290)" d="M29.7248 838.846 L35.1993 838.846 Q33.8307 841.328 33.1623 843.843 Q32.4621 846.325 32.4621 848.872 Q32.4621 854.569 36.0905 857.72 Q39.6872 860.871 46.212 860.871 Q52.7369 860.871 56.3653 857.72 Q59.9619 854.569 59.9619 848.872 Q59.9619 846.325 59.2935 843.843 Q58.5933 841.328 57.2247 838.846 L62.6355 838.846 Q63.7814 841.296 64.3543 843.938 Q64.9272 846.548 64.9272 849.508 Q64.9272 857.561 59.8664 862.303 Q54.8057 867.046 46.212 867.046 Q37.491 867.046 32.4939 862.271 Q27.4968 857.465 27.4968 849.126 Q27.4968 846.421 28.0697 843.843 Q28.6108 841.265 29.7248 838.846 Z" fill="#000000" fill-rule="nonzero" fill-opacity="1" /><path clip-path="url(#clip290)" d="M29.7248 803.007 L35.1993 803.007 Q33.8307 805.489 33.1623 808.004 Q32.4621 810.486 32.4621 813.033 Q32.4621 818.73 36.0905 821.881 Q39.6872 825.032 46.212 825.032 Q52.7369 825.032 56.3653 821.881 Q59.9619 818.73 59.9619 813.033 Q59.9619 810.486 59.2935 808.004 Q58.5933 805.489 57.2247 803.007 L62.6355 803.007 Q63.7814 805.458 64.3543 808.099 Q64.9272 810.709 64.9272 813.669 Q64.9272 821.722 59.8664 826.464 Q54.8057 831.207 46.212 831.207 Q37.491 831.207 32.4939 826.433 Q27.4968 821.626 27.4968 813.287 Q27.4968 810.582 28.0697 808.004 Q28.6108 805.426 29.7248 803.007 Z" fill="#000000" fill-rule="nonzero" fill-opacity="1" /><path clip-path="url(#clip290)" d="M55.9197 791.994 L55.9197 785.278 L64.0042 785.278 L64.0042 791.994 L55.9197 791.994 Z" fill="#000000" fill-rule="nonzero" fill-opacity="1" /><path clip-path="url(#clip290)" d="M33.8307 730.724 Q33.2578 731.711 33.0032 732.888 Q32.7167 734.034 32.7167 735.435 Q32.7167 740.4 35.9632 743.074 Q39.1779 745.715 45.2253 745.715 L64.0042 745.715 L64.0042 751.604 L28.3562 751.604 L28.3562 745.715 L33.8944 745.715 Q30.6479 743.869 29.0883 740.909 Q27.4968 737.949 27.4968 733.716 Q27.4968 733.111 27.5923 732.379 Q27.656 731.647 27.8151 730.756 L33.8307 730.724 Z" fill="#000000" fill-rule="nonzero" fill-opacity="1" /><path clip-path="url(#clip290)" d="M44.7161 695.522 L47.5806 695.522 L47.5806 722.449 Q53.6281 722.067 56.8109 718.82 Q59.9619 715.542 59.9619 709.717 Q59.9619 706.343 59.1344 703.192 Q58.3069 700.01 56.6518 696.89 L62.1899 696.89 Q63.5267 700.041 64.227 703.352 Q64.9272 706.662 64.9272 710.067 Q64.9272 718.597 59.9619 723.595 Q54.9967 728.56 46.5303 728.56 Q37.7774 728.56 32.6531 723.849 Q27.4968 719.107 27.4968 711.086 Q27.4968 703.893 32.1438 699.723 Q36.7589 695.522 44.7161 695.522 M42.9973 701.378 Q38.1912 701.442 35.3266 704.084 Q32.4621 706.694 32.4621 711.022 Q32.4621 715.924 35.2312 718.884 Q38.0002 721.812 43.0292 722.258 L42.9973 701.378 Z" fill="#000000" fill-rule="nonzero" fill-opacity="1" /><path clip-path="url(#clip290)" d="M18.2347 680.117 L28.3562 680.117 L28.3562 668.054 L32.9077 668.054 L32.9077 680.117 L52.2594 680.117 Q56.6199 680.117 57.8613 678.939 Q59.1026 677.73 59.1026 674.069 L59.1026 668.054 L64.0042 668.054 L64.0042 674.069 Q64.0042 680.849 61.4897 683.427 Q58.9434 686.005 52.2594 686.005 L32.9077 686.005 L32.9077 690.302 L28.3562 690.302 L28.3562 686.005 L18.2347 686.005 L18.2347 680.117 Z" fill="#000000" fill-rule="nonzero" fill-opacity="1" /><path clip-path="url(#clip290)" d="M49.9359 660.956 L28.3562 660.956 L28.3562 655.1 L49.7131 655.1 Q54.7739 655.1 57.3202 653.126 Q59.8346 651.153 59.8346 647.206 Q59.8346 642.464 56.8109 639.726 Q53.7872 636.957 48.5673 636.957 L28.3562 636.957 L28.3562 631.101 L64.0042 631.101 L64.0042 636.957 L58.5296 636.957 Q61.7762 639.09 63.3676 641.923 Q64.9272 644.723 64.9272 648.447 Q64.9272 654.59 61.1078 657.773 Q57.2883 660.956 49.9359 660.956 M27.4968 646.219 L27.4968 646.219 Z" fill="#000000" fill-rule="nonzero" fill-opacity="1" /><path clip-path="url(#clip290)" d="M33.8307 598.381 Q33.2578 599.368 33.0032 600.545 Q32.7167 601.691 32.7167 603.092 Q32.7167 608.057 35.9632 610.731 Q39.1779 613.372 45.2253 613.372 L64.0042 613.372 L64.0042 619.261 L28.3562 619.261 L28.3562 613.372 L33.8944 613.372 Q30.6479 611.526 29.0883 608.566 Q27.4968 605.606 27.4968 601.373 Q27.4968 600.768 27.5923 600.036 Q27.656 599.304 27.8151 598.413 L33.8307 598.381 Z" fill="#000000" fill-rule="nonzero" fill-opacity="1" /><path clip-path="url(#clip290)" d="M42.4881 563.752 L64.0042 563.752 L64.0042 569.608 L42.679 569.608 Q37.6183 569.608 35.1038 571.581 Q32.5894 573.555 32.5894 577.502 Q32.5894 582.244 35.6131 584.981 Q38.6368 587.719 43.8567 587.719 L64.0042 587.719 L64.0042 593.607 L28.3562 593.607 L28.3562 587.719 L33.8944 587.719 Q30.6797 585.618 29.0883 582.785 Q27.4968 579.921 27.4968 576.197 Q27.4968 570.054 31.3163 566.903 Q35.1038 563.752 42.4881 563.752 Z" fill="#000000" fill-rule="nonzero" fill-opacity="1" /><polyline clip-path="url(#clip292)" style="stroke:#009af9; stroke-linecap:round; stroke-linejoin:round; stroke-width:12; stroke-opacity:1; fill:none" points="282.975,1384.24 282.975,1384.24 288.7,1384.24 294.425,1384.24 300.15,1384.24 305.875,1384.24 323.051,1384.24 328.776,1384.24 334.501,1384.24 340.226,1372.86 345.951,1364.05 368.851,1331.31 374.576,1320.1 380.301,1323.49 386.026,1302.37 403.201,1272.64 408.927,1251.88 414.652,1251.88 420.377,1251.88 426.102,1251.88 443.277,1235.24 449.002,1240.22 454.727,1215.64 460.452,1208.59 466.177,1208.59 483.352,1208.59 489.077,1195.7 494.802,1184.52 500.527,1191.52 506.253,1180.78 529.153,1177.51 534.878,1177.98 540.603,1186.16 546.328,1163.12 563.503,1148.56 569.228,1128.7 574.953,1107.13 580.678,1081.33 586.403,1081.33 603.579,1081.33 609.304,1081.33 615.029,1084.15 620.754,1079 626.479,1068.56 643.654,1057.07 649.379,1053.37 655.104,1053.37 660.829,1053.37 666.554,1044.09 683.491,1015.23 689.216,1016.57 694.941,1016.04 700.666,1006.3 706.391,1001.8 723.566,993.46 729.291,995.134 735.016,991.117 740.741,989.362 746.466,982.912 763.642,983.254 769.367,971.933 775.092,964.946 780.817,960.063 803.717,958.012 809.442,961.776 815.167,959.229 820.892,956.919 826.617,958.306 843.792,953.644 849.518,949.043 855.243,942.221 860.968,934.847 866.693,930.996 883.868,931.124 889.593,928.046 895.318,923.515 901.043,920.875 906.768,918.699 923.943,902.715 929.668,898.156 935.393,898.156 941.118,905.206 946.844,889.491 964.019,885.711 969.744,888.658 975.469,885.485 981.194,871.065 986.919,868.052 1004.09,860.666 1009.82,834.829 1015.54,835.612 1021.27,809.208 1026.99,801.581 1044.17,801.221 1049.89,798.92 1055.62,781.924 1061.34,780.834 1067.07,784.887 1084.24,770.086 1089.97,746.784 1095.7,724.16 1101.42,684.884 1107.15,658.865 1130.05,658.865 1135.77,658.865 1141.5,665.971 1147.22,658.275 1164.4,643.622 1170.12,640.485 1175.85,631.868 1181.57,625.463 1187.3,613.368 1204.47,595.37 1210.2,589.837 1215.92,589.837 1221.65,589.837 1227.37,593.98 1244.55,591.084 1250.27,574.222 1256,571.975 1261.72,566.12 1267.45,570.289 1284.62,566.715 1290.35,565.468 1296.07,564.877 1301.8,562.662 1307.52,563.294 1330.42,561.448 1336.15,557.521 1341.87,561.138 1347.6,558.172 1364.77,554.636 1370.5,553.345 1376.22,554.984 1381.95,541.786 1387.67,533.724 1404.85,533.724 1410.57,510.064 1416.3,511.425 1422.02,514.967 1427.75,515.142 1444.92,512.651 1450.65,512.433 1456.37,509.988 1462.1,508.66 1467.82,512.387 1485,507.569 1490.72,508.781 1496.45,491.706 1502.17,483.787 1507.9,481.634 1525.07,473.689 1530.8,463.172 1536.52,462.965 1542.25,456.907 1547.97,455.353 1565.15,447.068 1570.88,447.069 1576.6,451.017 1582.33,449.417 1588.05,433.669 1605.23,427.38 1610.95,403.738 1616.68,399.333 1622.4,402.201 1628.13,399.173 1645.3,392.174 1651.03,387.57 1656.75,386.656 1662.48,376.615 1668.2,371.308 1691.1,362.874 1696.83,362.518 1702.55,363.701 1708.28,337.091 1725.45,340.398 1731.18,342.79 1736.9,337.779 1742.63,335.873 1748.35,327.93 1765.53,333.915 1771.25,332.623 1776.98,324.779 1782.7,315.399 1788.43,314.264 1805.6,307.024 1811.33,306.546 1817.05,304.289 1822.78,305.158 1828.5,300.519 1845.68,293.859 1851.4,289.454 1857.13,288.896 1862.85,281.472 1868.58,276.144 1885.75,273.98 1891.48,264.406 1897.2,248.873 1902.93,240.557 1908.65,237.835 1925.83,237.646 1931.55,238.547 1937.28,238.319 1943,234.184 1948.73,231.941 1965.9,216.56 1971.63,214.026 1977.35,217.687 1983.08,207.957 1988.8,207.171 2005.98,201.394 2011.7,195.547 2017.43,185.875 2023.15,185.875 2028.88,184.654 2046.29,180.834 2052.02,177.847 2057.74,177.847 2063.47,175.599 2069.19,173.922 2086.37,170.245 2092.09,166.463 2097.82,162.437 2103.54,157.822 2109.27,157.822 2126.44,158.312 2132.17,154.105 2137.89,146.13 2149.34,145.441 2166.52,142.129 2172.24,146.636 2177.97,147.892 2183.69,141.001 2189.42,139.668 2206.6,138.803 2212.32,138.803 2218.05,138.803 2223.77,135.308 2229.5,133.222 2246.67,132.271 2252.4,114.851 2258.12,114.461 2263.85,108.359 2269.57,88.4529 2286.75,86.6429 2292.47,86.1857 "/>
<path clip-path="url(#clip290)" d="M1687.18 196.789 L2281.75 196.789 L2281.75 93.1086 L1687.18 93.1086  Z" fill="#ffffff" fill-rule="evenodd" fill-opacity="1"/>
<polyline clip-path="url(#clip290)" style="stroke:#000000; stroke-linecap:round; stroke-linejoin:round; stroke-width:4; stroke-opacity:1; fill:none" points="1687.18,196.789 2281.75,196.789 2281.75,93.1086 1687.18,93.1086 1687.18,196.789 "/>
<polyline clip-path="url(#clip290)" style="stroke:#009af9; stroke-linecap:round; stroke-linejoin:round; stroke-width:12; stroke-opacity:1; fill:none" points="1710.84,144.949 1852.85,144.949 "/>
<path clip-path="url(#clip290)" d="M1876.51 127.669 L1883.48 127.669 L1892.3 151.187 L1901.17 127.669 L1908.13 127.669 L1908.13 162.229 L1903.57 162.229 L1903.57 131.882 L1894.66 155.585 L1889.96 155.585 L1881.05 131.882 L1881.05 162.229 L1876.51 162.229 L1876.51 127.669 Z" fill="#000000" fill-rule="nonzero" fill-opacity="1" /><path clip-path="url(#clip290)" d="M1926.33 162.229 L1913.13 127.669 L1918.02 127.669 L1928.97 156.766 L1939.94 127.669 L1944.8 127.669 L1931.63 162.229 L1926.33 162.229 Z" fill="#000000" fill-rule="nonzero" fill-opacity="1" /><path clip-path="url(#clip290)" d="M1944.73 147.344 L1957.21 147.344 L1957.21 151.141 L1944.73 151.141 L1944.73 147.344 Z" fill="#000000" fill-rule="nonzero" fill-opacity="1" /><path clip-path="url(#clip290)" d="M1964.18 127.669 L1971.14 127.669 L1979.96 151.187 L1988.83 127.669 L1995.8 127.669 L1995.8 162.229 L1991.24 162.229 L1991.24 131.882 L1982.32 155.585 L1977.62 155.585 L1968.71 131.882 L1968.71 162.229 L1964.18 162.229 L1964.18 127.669 Z" fill="#000000" fill-rule="nonzero" fill-opacity="1" /><path clip-path="url(#clip290)" d="M2009.75 131.511 L2009.75 144.497 L2015.63 144.497 Q2018.9 144.497 2020.68 142.807 Q2022.46 141.118 2022.46 137.993 Q2022.46 134.891 2020.68 133.201 Q2018.9 131.511 2015.63 131.511 L2009.75 131.511 M2005.08 127.669 L2015.63 127.669 Q2021.44 127.669 2024.41 130.307 Q2027.39 132.923 2027.39 137.993 Q2027.39 143.108 2024.41 145.724 Q2021.44 148.34 2015.63 148.34 L2009.75 148.34 L2009.75 162.229 L2005.08 162.229 L2005.08 127.669 Z" fill="#000000" fill-rule="nonzero" fill-opacity="1" /><path clip-path="url(#clip290)" d="M2059.55 130.331 L2059.55 135.261 Q2057.18 133.062 2054.5 131.974 Q2051.84 130.886 2048.83 130.886 Q2042.9 130.886 2039.75 134.52 Q2036.61 138.132 2036.61 144.983 Q2036.61 151.812 2039.75 155.446 Q2042.9 159.057 2048.83 159.057 Q2051.84 159.057 2054.5 157.969 Q2057.18 156.881 2059.55 154.682 L2059.55 159.567 Q2057.09 161.233 2054.34 162.067 Q2051.61 162.9 2048.55 162.9 Q2040.7 162.9 2036.19 158.108 Q2031.68 153.293 2031.68 144.983 Q2031.68 136.65 2036.19 131.858 Q2040.7 127.044 2048.55 127.044 Q2051.65 127.044 2054.38 127.877 Q2057.14 128.687 2059.55 130.331 Z" fill="#000000" fill-rule="nonzero" fill-opacity="1" /><path clip-path="url(#clip290)" d="M2067.67 156.349 L2072.55 156.349 L2072.55 162.229 L2067.67 162.229 L2067.67 156.349 M2067.67 137.715 L2072.55 137.715 L2072.55 143.594 L2067.67 143.594 L2067.67 137.715 Z" fill="#000000" fill-rule="nonzero" fill-opacity="1" /><path clip-path="url(#clip290)" d="M2102.49 131.511 L2102.49 144.497 L2108.36 144.497 Q2111.63 144.497 2113.41 142.807 Q2115.19 141.118 2115.19 137.993 Q2115.19 134.891 2113.41 133.201 Q2111.63 131.511 2108.36 131.511 L2102.49 131.511 M2097.81 127.669 L2108.36 127.669 Q2114.18 127.669 2117.14 130.307 Q2120.12 132.923 2120.12 137.993 Q2120.12 143.108 2117.14 145.724 Q2114.18 148.34 2108.36 148.34 L2102.49 148.34 L2102.49 162.229 L2097.81 162.229 L2097.81 127.669 Z" fill="#000000" fill-rule="nonzero" fill-opacity="1" /><path clip-path="url(#clip290)" d="M2146.7 148.201 L2146.7 150.284 L2127.11 150.284 Q2127.39 154.682 2129.75 156.997 Q2132.14 159.289 2136.37 159.289 Q2138.83 159.289 2141.12 158.687 Q2143.43 158.085 2145.7 156.881 L2145.7 160.909 Q2143.41 161.881 2141 162.391 Q2138.6 162.9 2136.12 162.9 Q2129.92 162.9 2126.28 159.289 Q2122.67 155.678 2122.67 149.52 Q2122.67 143.155 2126.1 139.428 Q2129.55 135.678 2135.38 135.678 Q2140.61 135.678 2143.64 139.057 Q2146.7 142.414 2146.7 148.201 M2142.44 146.951 Q2142.39 143.456 2140.47 141.372 Q2138.57 139.289 2135.42 139.289 Q2131.86 139.289 2129.71 141.303 Q2127.58 143.317 2127.25 146.974 L2142.44 146.951 Z" fill="#000000" fill-rule="nonzero" fill-opacity="1" /><path clip-path="url(#clip290)" d="M2168.71 140.284 Q2167.99 139.868 2167.14 139.682 Q2166.3 139.474 2165.29 139.474 Q2161.67 139.474 2159.73 141.835 Q2157.81 144.173 2157.81 148.571 L2157.81 162.229 L2153.53 162.229 L2153.53 136.303 L2157.81 136.303 L2157.81 140.331 Q2159.15 137.969 2161.3 136.835 Q2163.46 135.678 2166.54 135.678 Q2166.98 135.678 2167.51 135.747 Q2168.04 135.794 2168.69 135.909 L2168.71 140.284 Z" fill="#000000" fill-rule="nonzero" fill-opacity="1" /><path clip-path="url(#clip290)" d="M2186.3 126.21 L2186.3 129.752 L2182.23 129.752 Q2179.94 129.752 2179.04 130.678 Q2178.16 131.604 2178.16 134.011 L2178.16 136.303 L2185.17 136.303 L2185.17 139.613 L2178.16 139.613 L2178.16 162.229 L2173.87 162.229 L2173.87 139.613 L2169.8 139.613 L2169.8 136.303 L2173.87 136.303 L2173.87 134.497 Q2173.87 130.169 2175.89 128.201 Q2177.9 126.21 2182.28 126.21 L2186.3 126.21 Z" fill="#000000" fill-rule="nonzero" fill-opacity="1" /><path clip-path="url(#clip290)" d="M2212.04 148.201 L2212.04 150.284 L2192.46 150.284 Q2192.74 154.682 2195.1 156.997 Q2197.48 159.289 2201.72 159.289 Q2204.17 159.289 2206.47 158.687 Q2208.78 158.085 2211.05 156.881 L2211.05 160.909 Q2208.76 161.881 2206.35 162.391 Q2203.94 162.9 2201.47 162.9 Q2195.26 162.9 2191.63 159.289 Q2188.02 155.678 2188.02 149.52 Q2188.02 143.155 2191.44 139.428 Q2194.89 135.678 2200.73 135.678 Q2205.96 135.678 2208.99 139.057 Q2212.04 142.414 2212.04 148.201 M2207.79 146.951 Q2207.74 143.456 2205.82 141.372 Q2203.92 139.289 2200.77 139.289 Q2197.21 139.289 2195.05 141.303 Q2192.92 143.317 2192.6 146.974 L2207.79 146.951 Z" fill="#000000" fill-rule="nonzero" fill-opacity="1" /><path clip-path="url(#clip290)" d="M2237.69 137.298 L2237.69 141.28 Q2235.89 140.284 2234.06 139.798 Q2232.25 139.289 2230.4 139.289 Q2226.26 139.289 2223.97 141.928 Q2221.67 144.544 2221.67 149.289 Q2221.67 154.034 2223.97 156.673 Q2226.26 159.289 2230.4 159.289 Q2232.25 159.289 2234.06 158.803 Q2235.89 158.293 2237.69 157.298 L2237.69 161.233 Q2235.91 162.067 2233.99 162.483 Q2232.09 162.9 2229.94 162.9 Q2224.08 162.9 2220.63 159.219 Q2217.18 155.539 2217.18 149.289 Q2217.18 142.946 2220.66 139.312 Q2224.15 135.678 2230.22 135.678 Q2232.18 135.678 2234.06 136.095 Q2235.93 136.488 2237.69 137.298 Z" fill="#000000" fill-rule="nonzero" fill-opacity="1" /><path clip-path="url(#clip290)" d="M2249.31 128.942 L2249.31 136.303 L2258.09 136.303 L2258.09 139.613 L2249.31 139.613 L2249.31 153.687 Q2249.31 156.858 2250.17 157.761 Q2251.05 158.664 2253.71 158.664 L2258.09 158.664 L2258.09 162.229 L2253.71 162.229 Q2248.78 162.229 2246.91 160.4 Q2245.03 158.548 2245.03 153.687 L2245.03 139.613 L2241.91 139.613 L2241.91 136.303 L2245.03 136.303 L2245.03 128.942 L2249.31 128.942 Z" fill="#000000" fill-rule="nonzero" fill-opacity="1" /></svg>
