<?xml version="1.0" encoding="utf-8"?>
<svg xmlns="http://www.w3.org/2000/svg" xmlns:xlink="http://www.w3.org/1999/xlink" width="600" height="400" viewBox="0 0 2400 1600">
<defs>
  <clipPath id="clip410">
    <rect x="0" y="0" width="2400" height="1600"/>
  </clipPath>
</defs>
<path clip-path="url(#clip410)" d="M0 1600 L2400 1600 L2400 0 L0 0  Z" fill="#ffffff" fill-rule="evenodd" fill-opacity="1"/>
<defs>
  <clipPath id="clip411">
    <rect x="480" y="0" width="1681" height="1600"/>
  </clipPath>
</defs>
<path clip-path="url(#clip410)" d="M258.387 1423.18 L2352.76 1423.18 L2352.76 47.2441 L258.387 47.2441  Z" fill="#ffffff" fill-rule="evenodd" fill-opacity="1"/>
<defs>
  <clipPath id="clip412">
    <rect x="258" y="47" width="2095" height="1377"/>
  </clipPath>
</defs>
<polyline clip-path="url(#clip412)" style="stroke:#000000; stroke-linecap:round; stroke-linejoin:round; stroke-width:2; stroke-opacity:0.1; fill:none" points="298.312,1423.18 298.312,47.2441 "/>
<polyline clip-path="url(#clip412)" style="stroke:#000000; stroke-linecap:round; stroke-linejoin:round; stroke-width:2; stroke-opacity:0.1; fill:none" points="804.932,1423.18 804.932,47.2441 "/>
<polyline clip-path="url(#clip412)" style="stroke:#000000; stroke-linecap:round; stroke-linejoin:round; stroke-width:2; stroke-opacity:0.1; fill:none" points="1317.18,1423.18 1317.18,47.2441 "/>
<polyline clip-path="url(#clip412)" style="stroke:#000000; stroke-linecap:round; stroke-linejoin:round; stroke-width:2; stroke-opacity:0.1; fill:none" points="1835.06,1423.18 1835.06,47.2441 "/>
<polyline clip-path="url(#clip412)" style="stroke:#000000; stroke-linecap:round; stroke-linejoin:round; stroke-width:2; stroke-opacity:0.05; fill:none" points="399.636,1423.18 399.636,47.2441 "/>
<polyline clip-path="url(#clip412)" style="stroke:#000000; stroke-linecap:round; stroke-linejoin:round; stroke-width:2; stroke-opacity:0.05; fill:none" points="500.96,1423.18 500.96,47.2441 "/>
<polyline clip-path="url(#clip412)" style="stroke:#000000; stroke-linecap:round; stroke-linejoin:round; stroke-width:2; stroke-opacity:0.05; fill:none" points="602.284,1423.18 602.284,47.2441 "/>
<polyline clip-path="url(#clip412)" style="stroke:#000000; stroke-linecap:round; stroke-linejoin:round; stroke-width:2; stroke-opacity:0.05; fill:none" points="703.608,1423.18 703.608,47.2441 "/>
<polyline clip-path="url(#clip412)" style="stroke:#000000; stroke-linecap:round; stroke-linejoin:round; stroke-width:2; stroke-opacity:0.05; fill:none" points="907.382,1423.18 907.382,47.2441 "/>
<polyline clip-path="url(#clip412)" style="stroke:#000000; stroke-linecap:round; stroke-linejoin:round; stroke-width:2; stroke-opacity:0.05; fill:none" points="1009.83,1423.18 1009.83,47.2441 "/>
<polyline clip-path="url(#clip412)" style="stroke:#000000; stroke-linecap:round; stroke-linejoin:round; stroke-width:2; stroke-opacity:0.05; fill:none" points="1112.28,1423.18 1112.28,47.2441 "/>
<polyline clip-path="url(#clip412)" style="stroke:#000000; stroke-linecap:round; stroke-linejoin:round; stroke-width:2; stroke-opacity:0.05; fill:none" points="1214.73,1423.18 1214.73,47.2441 "/>
<polyline clip-path="url(#clip412)" style="stroke:#000000; stroke-linecap:round; stroke-linejoin:round; stroke-width:2; stroke-opacity:0.05; fill:none" points="1420.76,1423.18 1420.76,47.2441 "/>
<polyline clip-path="url(#clip412)" style="stroke:#000000; stroke-linecap:round; stroke-linejoin:round; stroke-width:2; stroke-opacity:0.05; fill:none" points="1524.33,1423.18 1524.33,47.2441 "/>
<polyline clip-path="url(#clip412)" style="stroke:#000000; stroke-linecap:round; stroke-linejoin:round; stroke-width:2; stroke-opacity:0.05; fill:none" points="1627.91,1423.18 1627.91,47.2441 "/>
<polyline clip-path="url(#clip412)" style="stroke:#000000; stroke-linecap:round; stroke-linejoin:round; stroke-width:2; stroke-opacity:0.05; fill:none" points="1731.48,1423.18 1731.48,47.2441 "/>
<polyline clip-path="url(#clip412)" style="stroke:#000000; stroke-linecap:round; stroke-linejoin:round; stroke-width:2; stroke-opacity:0.05; fill:none" points="1939.79,1423.18 1939.79,47.2441 "/>
<polyline clip-path="url(#clip412)" style="stroke:#000000; stroke-linecap:round; stroke-linejoin:round; stroke-width:2; stroke-opacity:0.05; fill:none" points="2044.51,1423.18 2044.51,47.2441 "/>
<polyline clip-path="url(#clip412)" style="stroke:#000000; stroke-linecap:round; stroke-linejoin:round; stroke-width:2; stroke-opacity:0.05; fill:none" points="2149.24,1423.18 2149.24,47.2441 "/>
<polyline clip-path="url(#clip412)" style="stroke:#000000; stroke-linecap:round; stroke-linejoin:round; stroke-width:2; stroke-opacity:0.05; fill:none" points="2253.97,1423.18 2253.97,47.2441 "/>
<polyline clip-path="url(#clip410)" style="stroke:#000000; stroke-linecap:round; stroke-linejoin:round; stroke-width:4; stroke-opacity:1; fill:none" points="258.387,1423.18 2352.76,1423.18 "/>
<polyline clip-path="url(#clip410)" style="stroke:#000000; stroke-linecap:round; stroke-linejoin:round; stroke-width:4; stroke-opacity:1; fill:none" points="298.312,1423.18 298.312,1404.28 "/>
<polyline clip-path="url(#clip410)" style="stroke:#000000; stroke-linecap:round; stroke-linejoin:round; stroke-width:4; stroke-opacity:1; fill:none" points="804.932,1423.18 804.932,1404.28 "/>
<polyline clip-path="url(#clip410)" style="stroke:#000000; stroke-linecap:round; stroke-linejoin:round; stroke-width:4; stroke-opacity:1; fill:none" points="1317.18,1423.18 1317.18,1404.28 "/>
<polyline clip-path="url(#clip410)" style="stroke:#000000; stroke-linecap:round; stroke-linejoin:round; stroke-width:4; stroke-opacity:1; fill:none" points="1835.06,1423.18 1835.06,1404.28 "/>
<polyline clip-path="url(#clip410)" style="stroke:#000000; stroke-linecap:round; stroke-linejoin:round; stroke-width:4; stroke-opacity:1; fill:none" points="399.636,1423.18 399.636,1413.73 "/>
<polyline clip-path="url(#clip410)" style="stroke:#000000; stroke-linecap:round; stroke-linejoin:round; stroke-width:4; stroke-opacity:1; fill:none" points="500.96,1423.18 500.96,1413.73 "/>
<polyline clip-path="url(#clip410)" style="stroke:#000000; stroke-linecap:round; stroke-linejoin:round; stroke-width:4; stroke-opacity:1; fill:none" points="602.284,1423.18 602.284,1413.73 "/>
<polyline clip-path="url(#clip410)" style="stroke:#000000; stroke-linecap:round; stroke-linejoin:round; stroke-width:4; stroke-opacity:1; fill:none" points="703.608,1423.18 703.608,1413.73 "/>
<polyline clip-path="url(#clip410)" style="stroke:#000000; stroke-linecap:round; stroke-linejoin:round; stroke-width:4; stroke-opacity:1; fill:none" points="907.382,1423.18 907.382,1413.73 "/>
<polyline clip-path="url(#clip410)" style="stroke:#000000; stroke-linecap:round; stroke-linejoin:round; stroke-width:4; stroke-opacity:1; fill:none" points="1009.83,1423.18 1009.83,1413.73 "/>
<polyline clip-path="url(#clip410)" style="stroke:#000000; stroke-linecap:round; stroke-linejoin:round; stroke-width:4; stroke-opacity:1; fill:none" points="1112.28,1423.18 1112.28,1413.73 "/>
<polyline clip-path="url(#clip410)" style="stroke:#000000; stroke-linecap:round; stroke-linejoin:round; stroke-width:4; stroke-opacity:1; fill:none" points="1214.73,1423.18 1214.73,1413.73 "/>
<polyline clip-path="url(#clip410)" style="stroke:#000000; stroke-linecap:round; stroke-linejoin:round; stroke-width:4; stroke-opacity:1; fill:none" points="1420.76,1423.18 1420.76,1413.73 "/>
<polyline clip-path="url(#clip410)" style="stroke:#000000; stroke-linecap:round; stroke-linejoin:round; stroke-width:4; stroke-opacity:1; fill:none" points="1524.33,1423.18 1524.33,1413.73 "/>
<polyline clip-path="url(#clip410)" style="stroke:#000000; stroke-linecap:round; stroke-linejoin:round; stroke-width:4; stroke-opacity:1; fill:none" points="1627.91,1423.18 1627.91,1413.73 "/>
<polyline clip-path="url(#clip410)" style="stroke:#000000; stroke-linecap:round; stroke-linejoin:round; stroke-width:4; stroke-opacity:1; fill:none" points="1731.48,1423.18 1731.48,1413.73 "/>
<polyline clip-path="url(#clip410)" style="stroke:#000000; stroke-linecap:round; stroke-linejoin:round; stroke-width:4; stroke-opacity:1; fill:none" points="1939.79,1423.18 1939.79,1413.73 "/>
<polyline clip-path="url(#clip410)" style="stroke:#000000; stroke-linecap:round; stroke-linejoin:round; stroke-width:4; stroke-opacity:1; fill:none" points="2044.51,1423.18 2044.51,1413.73 "/>
<polyline clip-path="url(#clip410)" style="stroke:#000000; stroke-linecap:round; stroke-linejoin:round; stroke-width:4; stroke-opacity:1; fill:none" points="2149.24,1423.18 2149.24,1413.73 "/>
<polyline clip-path="url(#clip410)" style="stroke:#000000; stroke-linecap:round; stroke-linejoin:round; stroke-width:4; stroke-opacity:1; fill:none" points="2253.97,1423.18 2253.97,1413.73 "/>
<path clip-path="url(#clip410)" d="M170.107 1481.64 L186.426 1481.64 L186.426 1485.58 L164.482 1485.58 L164.482 1481.64 Q167.144 1478.89 171.727 1474.26 Q176.333 1469.61 177.514 1468.27 Q179.759 1465.74 180.639 1464.01 Q181.542 1462.25 181.542 1460.56 Q181.542 1457.8 179.597 1456.07 Q177.676 1454.33 174.574 1454.33 Q172.375 1454.33 169.921 1455.09 Q167.491 1455.86 164.713 1457.41 L164.713 1452.69 Q167.537 1451.55 169.991 1450.97 Q172.445 1450.39 174.482 1450.39 Q179.852 1450.39 183.046 1453.08 Q186.241 1455.77 186.241 1460.26 Q186.241 1462.39 185.431 1464.31 Q184.644 1466.2 182.537 1468.8 Q181.958 1469.47 178.857 1472.69 Q175.755 1475.88 170.107 1481.64 Z" fill="#000000" fill-rule="nonzero" fill-opacity="1" /><path clip-path="url(#clip410)" d="M206.241 1454.1 Q202.63 1454.1 200.801 1457.66 Q198.995 1461.2 198.995 1468.33 Q198.995 1475.44 200.801 1479.01 Q202.63 1482.55 206.241 1482.55 Q209.875 1482.55 211.68 1479.01 Q213.509 1475.44 213.509 1468.33 Q213.509 1461.2 211.68 1457.66 Q209.875 1454.1 206.241 1454.1 M206.241 1450.39 Q212.051 1450.39 215.106 1455 Q218.185 1459.58 218.185 1468.33 Q218.185 1477.06 215.106 1481.67 Q212.051 1486.25 206.241 1486.25 Q200.431 1486.25 197.352 1481.67 Q194.296 1477.06 194.296 1468.33 Q194.296 1459.58 197.352 1455 Q200.431 1450.39 206.241 1450.39 Z" fill="#000000" fill-rule="nonzero" fill-opacity="1" /><path clip-path="url(#clip410)" d="M230.43 1481.64 L246.75 1481.64 L246.75 1485.58 L224.805 1485.58 L224.805 1481.64 Q227.467 1478.89 232.051 1474.26 Q236.657 1469.61 237.838 1468.27 Q240.083 1465.74 240.963 1464.01 Q241.866 1462.25 241.866 1460.56 Q241.866 1457.8 239.921 1456.07 Q238 1454.33 234.898 1454.33 Q232.699 1454.33 230.245 1455.09 Q227.815 1455.86 225.037 1457.41 L225.037 1452.69 Q227.861 1451.55 230.315 1450.97 Q232.768 1450.39 234.805 1450.39 Q240.176 1450.39 243.37 1453.08 Q246.565 1455.77 246.565 1460.26 Q246.565 1462.39 245.754 1464.31 Q244.967 1466.2 242.861 1468.8 Q242.282 1469.47 239.18 1472.69 Q236.079 1475.88 230.43 1481.64 Z" fill="#000000" fill-rule="nonzero" fill-opacity="1" /><path clip-path="url(#clip410)" d="M257.375 1481.64 L265.014 1481.64 L265.014 1455.28 L256.703 1456.95 L256.703 1452.69 L264.967 1451.02 L269.643 1451.02 L269.643 1481.64 L277.282 1481.64 L277.282 1485.58 L257.375 1485.58 L257.375 1481.64 Z" fill="#000000" fill-rule="nonzero" fill-opacity="1" /><path clip-path="url(#clip410)" d="M283.972 1470.7 L296.449 1470.7 L296.449 1474.49 L283.972 1474.49 L283.972 1470.7 Z" fill="#000000" fill-rule="nonzero" fill-opacity="1" /><path clip-path="url(#clip410)" d="M313.833 1454.1 Q310.222 1454.1 308.393 1457.66 Q306.587 1461.2 306.587 1468.33 Q306.587 1475.44 308.393 1479.01 Q310.222 1482.55 313.833 1482.55 Q317.467 1482.55 319.273 1479.01 Q321.101 1475.44 321.101 1468.33 Q321.101 1461.2 319.273 1457.66 Q317.467 1454.1 313.833 1454.1 M313.833 1450.39 Q319.643 1450.39 322.698 1455 Q325.777 1459.58 325.777 1468.33 Q325.777 1477.06 322.698 1481.67 Q319.643 1486.25 313.833 1486.25 Q308.023 1486.25 304.944 1481.67 Q301.888 1477.06 301.888 1468.33 Q301.888 1459.58 304.944 1455 Q308.023 1450.39 313.833 1450.39 Z" fill="#000000" fill-rule="nonzero" fill-opacity="1" /><path clip-path="url(#clip410)" d="M334.805 1481.64 L342.444 1481.64 L342.444 1455.28 L334.134 1456.95 L334.134 1452.69 L342.397 1451.02 L347.073 1451.02 L347.073 1481.64 L354.712 1481.64 L354.712 1485.58 L334.805 1485.58 L334.805 1481.64 Z" fill="#000000" fill-rule="nonzero" fill-opacity="1" /><path clip-path="url(#clip410)" d="M361.402 1470.7 L373.879 1470.7 L373.879 1474.49 L361.402 1474.49 L361.402 1470.7 Z" fill="#000000" fill-rule="nonzero" fill-opacity="1" /><path clip-path="url(#clip410)" d="M391.263 1454.1 Q387.652 1454.1 385.823 1457.66 Q384.018 1461.2 384.018 1468.33 Q384.018 1475.44 385.823 1479.01 Q387.652 1482.55 391.263 1482.55 Q394.897 1482.55 396.703 1479.01 Q398.531 1475.44 398.531 1468.33 Q398.531 1461.2 396.703 1457.66 Q394.897 1454.1 391.263 1454.1 M391.263 1450.39 Q397.073 1450.39 400.129 1455 Q403.207 1459.58 403.207 1468.33 Q403.207 1477.06 400.129 1481.67 Q397.073 1486.25 391.263 1486.25 Q385.453 1486.25 382.374 1481.67 Q379.318 1477.06 379.318 1468.33 Q379.318 1459.58 382.374 1455 Q385.453 1450.39 391.263 1450.39 Z" fill="#000000" fill-rule="nonzero" fill-opacity="1" /><path clip-path="url(#clip410)" d="M412.235 1481.64 L419.874 1481.64 L419.874 1455.28 L411.564 1456.95 L411.564 1452.69 L419.828 1451.02 L424.503 1451.02 L424.503 1481.64 L432.142 1481.64 L432.142 1485.58 L412.235 1485.58 L412.235 1481.64 Z" fill="#000000" fill-rule="nonzero" fill-opacity="1" /><path clip-path="url(#clip410)" d="M676.727 1481.64 L693.046 1481.64 L693.046 1485.58 L671.102 1485.58 L671.102 1481.64 Q673.764 1478.89 678.347 1474.26 Q682.954 1469.61 684.134 1468.27 Q686.38 1465.74 687.259 1464.01 Q688.162 1462.25 688.162 1460.56 Q688.162 1457.8 686.218 1456.07 Q684.296 1454.33 681.195 1454.33 Q678.995 1454.33 676.542 1455.09 Q674.111 1455.86 671.333 1457.41 L671.333 1452.69 Q674.158 1451.55 676.611 1450.97 Q679.065 1450.39 681.102 1450.39 Q686.472 1450.39 689.667 1453.08 Q692.861 1455.77 692.861 1460.26 Q692.861 1462.39 692.051 1464.31 Q691.264 1466.2 689.157 1468.8 Q688.579 1469.47 685.477 1472.69 Q682.375 1475.88 676.727 1481.64 Z" fill="#000000" fill-rule="nonzero" fill-opacity="1" /><path clip-path="url(#clip410)" d="M712.861 1454.1 Q709.25 1454.1 707.421 1457.66 Q705.616 1461.2 705.616 1468.33 Q705.616 1475.44 707.421 1479.01 Q709.25 1482.55 712.861 1482.55 Q716.495 1482.55 718.301 1479.01 Q720.13 1475.44 720.13 1468.33 Q720.13 1461.2 718.301 1457.66 Q716.495 1454.1 712.861 1454.1 M712.861 1450.39 Q718.671 1450.39 721.727 1455 Q724.805 1459.58 724.805 1468.33 Q724.805 1477.06 721.727 1481.67 Q718.671 1486.25 712.861 1486.25 Q707.051 1486.25 703.972 1481.67 Q700.917 1477.06 700.917 1468.33 Q700.917 1459.58 703.972 1455 Q707.051 1450.39 712.861 1450.39 Z" fill="#000000" fill-rule="nonzero" fill-opacity="1" /><path clip-path="url(#clip410)" d="M737.051 1481.64 L753.37 1481.64 L753.37 1485.58 L731.426 1485.58 L731.426 1481.64 Q734.088 1478.89 738.671 1474.26 Q743.278 1469.61 744.458 1468.27 Q746.703 1465.74 747.583 1464.01 Q748.486 1462.25 748.486 1460.56 Q748.486 1457.8 746.541 1456.07 Q744.62 1454.33 741.518 1454.33 Q739.319 1454.33 736.866 1455.09 Q734.435 1455.86 731.657 1457.41 L731.657 1452.69 Q734.481 1451.55 736.935 1450.97 Q739.389 1450.39 741.426 1450.39 Q746.796 1450.39 749.99 1453.08 Q753.185 1455.77 753.185 1460.26 Q753.185 1462.39 752.375 1464.31 Q751.588 1466.2 749.481 1468.8 Q748.903 1469.47 745.801 1472.69 Q742.699 1475.88 737.051 1481.64 Z" fill="#000000" fill-rule="nonzero" fill-opacity="1" /><path clip-path="url(#clip410)" d="M763.995 1481.64 L771.634 1481.64 L771.634 1455.28 L763.324 1456.95 L763.324 1452.69 L771.588 1451.02 L776.263 1451.02 L776.263 1481.64 L783.902 1481.64 L783.902 1485.58 L763.995 1485.58 L763.995 1481.64 Z" fill="#000000" fill-rule="nonzero" fill-opacity="1" /><path clip-path="url(#clip410)" d="M790.592 1470.7 L803.069 1470.7 L803.069 1474.49 L790.592 1474.49 L790.592 1470.7 Z" fill="#000000" fill-rule="nonzero" fill-opacity="1" /><path clip-path="url(#clip410)" d="M820.453 1454.1 Q816.842 1454.1 815.013 1457.66 Q813.208 1461.2 813.208 1468.33 Q813.208 1475.44 815.013 1479.01 Q816.842 1482.55 820.453 1482.55 Q824.087 1482.55 825.893 1479.01 Q827.722 1475.44 827.722 1468.33 Q827.722 1461.2 825.893 1457.66 Q824.087 1454.1 820.453 1454.1 M820.453 1450.39 Q826.263 1450.39 829.319 1455 Q832.397 1459.58 832.397 1468.33 Q832.397 1477.06 829.319 1481.67 Q826.263 1486.25 820.453 1486.25 Q814.643 1486.25 811.564 1481.67 Q808.509 1477.06 808.509 1468.33 Q808.509 1459.58 811.564 1455 Q814.643 1450.39 820.453 1450.39 Z" fill="#000000" fill-rule="nonzero" fill-opacity="1" /><path clip-path="url(#clip410)" d="M853.462 1455.09 L841.657 1473.54 L853.462 1473.54 L853.462 1455.09 M852.235 1451.02 L858.115 1451.02 L858.115 1473.54 L863.045 1473.54 L863.045 1477.43 L858.115 1477.43 L858.115 1485.58 L853.462 1485.58 L853.462 1477.43 L837.86 1477.43 L837.86 1472.92 L852.235 1451.02 Z" fill="#000000" fill-rule="nonzero" fill-opacity="1" /><path clip-path="url(#clip410)" d="M868.022 1470.7 L880.499 1470.7 L880.499 1474.49 L868.022 1474.49 L868.022 1470.7 Z" fill="#000000" fill-rule="nonzero" fill-opacity="1" /><path clip-path="url(#clip410)" d="M897.883 1454.1 Q894.272 1454.1 892.443 1457.66 Q890.638 1461.2 890.638 1468.33 Q890.638 1475.44 892.443 1479.01 Q894.272 1482.55 897.883 1482.55 Q901.517 1482.55 903.323 1479.01 Q905.152 1475.44 905.152 1468.33 Q905.152 1461.2 903.323 1457.66 Q901.517 1454.1 897.883 1454.1 M897.883 1450.39 Q903.693 1450.39 906.749 1455 Q909.828 1459.58 909.828 1468.33 Q909.828 1477.06 906.749 1481.67 Q903.693 1486.25 897.883 1486.25 Q892.073 1486.25 888.994 1481.67 Q885.939 1477.06 885.939 1468.33 Q885.939 1459.58 888.994 1455 Q892.073 1450.39 897.883 1450.39 Z" fill="#000000" fill-rule="nonzero" fill-opacity="1" /><path clip-path="url(#clip410)" d="M918.855 1481.64 L926.494 1481.64 L926.494 1455.28 L918.184 1456.95 L918.184 1452.69 L926.448 1451.02 L931.124 1451.02 L931.124 1481.64 L938.763 1481.64 L938.763 1485.58 L918.855 1485.58 L918.855 1481.64 Z" fill="#000000" fill-rule="nonzero" fill-opacity="1" /><path clip-path="url(#clip410)" d="M1188.98 1481.64 L1205.3 1481.64 L1205.3 1485.58 L1183.35 1485.58 L1183.35 1481.64 Q1186.01 1478.89 1190.6 1474.26 Q1195.2 1469.61 1196.38 1468.27 Q1198.63 1465.74 1199.51 1464.01 Q1200.41 1462.25 1200.41 1460.56 Q1200.41 1457.8 1198.47 1456.07 Q1196.55 1454.33 1193.44 1454.33 Q1191.24 1454.33 1188.79 1455.09 Q1186.36 1455.86 1183.58 1457.41 L1183.58 1452.69 Q1186.41 1451.55 1188.86 1450.97 Q1191.31 1450.39 1193.35 1450.39 Q1198.72 1450.39 1201.92 1453.08 Q1205.11 1455.77 1205.11 1460.26 Q1205.11 1462.39 1204.3 1464.31 Q1203.51 1466.2 1201.41 1468.8 Q1200.83 1469.47 1197.73 1472.69 Q1194.62 1475.88 1188.98 1481.64 Z" fill="#000000" fill-rule="nonzero" fill-opacity="1" /><path clip-path="url(#clip410)" d="M1225.11 1454.1 Q1221.5 1454.1 1219.67 1457.66 Q1217.87 1461.2 1217.87 1468.33 Q1217.87 1475.44 1219.67 1479.01 Q1221.5 1482.55 1225.11 1482.55 Q1228.74 1482.55 1230.55 1479.01 Q1232.38 1475.44 1232.38 1468.33 Q1232.38 1461.2 1230.55 1457.66 Q1228.74 1454.1 1225.11 1454.1 M1225.11 1450.39 Q1230.92 1450.39 1233.98 1455 Q1237.05 1459.58 1237.05 1468.33 Q1237.05 1477.06 1233.98 1481.67 Q1230.92 1486.25 1225.11 1486.25 Q1219.3 1486.25 1216.22 1481.67 Q1213.17 1477.06 1213.17 1468.33 Q1213.17 1459.58 1216.22 1455 Q1219.3 1450.39 1225.11 1450.39 Z" fill="#000000" fill-rule="nonzero" fill-opacity="1" /><path clip-path="url(#clip410)" d="M1249.3 1481.64 L1265.62 1481.64 L1265.62 1485.58 L1243.68 1485.58 L1243.68 1481.64 Q1246.34 1478.89 1250.92 1474.26 Q1255.53 1469.61 1256.71 1468.27 Q1258.95 1465.74 1259.83 1464.01 Q1260.74 1462.25 1260.74 1460.56 Q1260.74 1457.8 1258.79 1456.07 Q1256.87 1454.33 1253.77 1454.33 Q1251.57 1454.33 1249.11 1455.09 Q1246.68 1455.86 1243.91 1457.41 L1243.91 1452.69 Q1246.73 1451.55 1249.18 1450.97 Q1251.64 1450.39 1253.68 1450.39 Q1259.05 1450.39 1262.24 1453.08 Q1265.43 1455.77 1265.43 1460.26 Q1265.43 1462.39 1264.62 1464.31 Q1263.84 1466.2 1261.73 1468.8 Q1261.15 1469.47 1258.05 1472.69 Q1254.95 1475.88 1249.3 1481.64 Z" fill="#000000" fill-rule="nonzero" fill-opacity="1" /><path clip-path="url(#clip410)" d="M1276.24 1481.64 L1283.88 1481.64 L1283.88 1455.28 L1275.57 1456.95 L1275.57 1452.69 L1283.84 1451.02 L1288.51 1451.02 L1288.51 1481.64 L1296.15 1481.64 L1296.15 1485.58 L1276.24 1485.58 L1276.24 1481.64 Z" fill="#000000" fill-rule="nonzero" fill-opacity="1" /><path clip-path="url(#clip410)" d="M1302.84 1470.7 L1315.32 1470.7 L1315.32 1474.49 L1302.84 1474.49 L1302.84 1470.7 Z" fill="#000000" fill-rule="nonzero" fill-opacity="1" /><path clip-path="url(#clip410)" d="M1332.7 1454.1 Q1329.09 1454.1 1327.26 1457.66 Q1325.46 1461.2 1325.46 1468.33 Q1325.46 1475.44 1327.26 1479.01 Q1329.09 1482.55 1332.7 1482.55 Q1336.34 1482.55 1338.14 1479.01 Q1339.97 1475.44 1339.97 1468.33 Q1339.97 1461.2 1338.14 1457.66 Q1336.34 1454.1 1332.7 1454.1 M1332.7 1450.39 Q1338.51 1450.39 1341.57 1455 Q1344.65 1459.58 1344.65 1468.33 Q1344.65 1477.06 1341.57 1481.67 Q1338.51 1486.25 1332.7 1486.25 Q1326.89 1486.25 1323.81 1481.67 Q1320.76 1477.06 1320.76 1468.33 Q1320.76 1459.58 1323.81 1455 Q1326.89 1450.39 1332.7 1450.39 Z" fill="#000000" fill-rule="nonzero" fill-opacity="1" /><path clip-path="url(#clip410)" d="M1351.68 1451.02 L1373.91 1451.02 L1373.91 1453.01 L1361.36 1485.58 L1356.48 1485.58 L1368.28 1454.96 L1351.68 1454.96 L1351.68 1451.02 Z" fill="#000000" fill-rule="nonzero" fill-opacity="1" /><path clip-path="url(#clip410)" d="M1380.27 1470.7 L1392.75 1470.7 L1392.75 1474.49 L1380.27 1474.49 L1380.27 1470.7 Z" fill="#000000" fill-rule="nonzero" fill-opacity="1" /><path clip-path="url(#clip410)" d="M1410.13 1454.1 Q1406.52 1454.1 1404.69 1457.66 Q1402.89 1461.2 1402.89 1468.33 Q1402.89 1475.44 1404.69 1479.01 Q1406.52 1482.55 1410.13 1482.55 Q1413.77 1482.55 1415.57 1479.01 Q1417.4 1475.44 1417.4 1468.33 Q1417.4 1461.2 1415.57 1457.66 Q1413.77 1454.1 1410.13 1454.1 M1410.13 1450.39 Q1415.94 1450.39 1419 1455 Q1422.08 1459.58 1422.08 1468.33 Q1422.08 1477.06 1419 1481.67 Q1415.94 1486.25 1410.13 1486.25 Q1404.32 1486.25 1401.24 1481.67 Q1398.19 1477.06 1398.19 1468.33 Q1398.19 1459.58 1401.24 1455 Q1404.32 1450.39 1410.13 1450.39 Z" fill="#000000" fill-rule="nonzero" fill-opacity="1" /><path clip-path="url(#clip410)" d="M1431.1 1481.64 L1438.74 1481.64 L1438.74 1455.28 L1430.43 1456.95 L1430.43 1452.69 L1438.7 1451.02 L1443.37 1451.02 L1443.37 1481.64 L1451.01 1481.64 L1451.01 1485.58 L1431.1 1485.58 L1431.1 1481.64 Z" fill="#000000" fill-rule="nonzero" fill-opacity="1" /><path clip-path="url(#clip410)" d="M1706.85 1481.64 L1723.17 1481.64 L1723.17 1485.58 L1701.23 1485.58 L1701.23 1481.64 Q1703.89 1478.89 1708.48 1474.26 Q1713.08 1469.61 1714.26 1468.27 Q1716.51 1465.74 1717.39 1464.01 Q1718.29 1462.25 1718.29 1460.56 Q1718.29 1457.8 1716.35 1456.07 Q1714.42 1454.33 1711.32 1454.33 Q1709.12 1454.33 1706.67 1455.09 Q1704.24 1455.86 1701.46 1457.41 L1701.46 1452.69 Q1704.29 1451.55 1706.74 1450.97 Q1709.19 1450.39 1711.23 1450.39 Q1716.6 1450.39 1719.79 1453.08 Q1722.99 1455.77 1722.99 1460.26 Q1722.99 1462.39 1722.18 1464.31 Q1721.39 1466.2 1719.29 1468.8 Q1718.71 1469.47 1715.6 1472.69 Q1712.5 1475.88 1706.85 1481.64 Z" fill="#000000" fill-rule="nonzero" fill-opacity="1" /><path clip-path="url(#clip410)" d="M1742.99 1454.1 Q1739.38 1454.1 1737.55 1457.66 Q1735.74 1461.2 1735.74 1468.33 Q1735.74 1475.44 1737.55 1479.01 Q1739.38 1482.55 1742.99 1482.55 Q1746.62 1482.55 1748.43 1479.01 Q1750.26 1475.44 1750.26 1468.33 Q1750.26 1461.2 1748.43 1457.66 Q1746.62 1454.1 1742.99 1454.1 M1742.99 1450.39 Q1748.8 1450.39 1751.85 1455 Q1754.93 1459.58 1754.93 1468.33 Q1754.93 1477.06 1751.85 1481.67 Q1748.8 1486.25 1742.99 1486.25 Q1737.18 1486.25 1734.1 1481.67 Q1731.04 1477.06 1731.04 1468.33 Q1731.04 1459.58 1734.1 1455 Q1737.18 1450.39 1742.99 1450.39 Z" fill="#000000" fill-rule="nonzero" fill-opacity="1" /><path clip-path="url(#clip410)" d="M1767.18 1481.64 L1783.5 1481.64 L1783.5 1485.58 L1761.55 1485.58 L1761.55 1481.64 Q1764.22 1478.89 1768.8 1474.26 Q1773.41 1469.61 1774.59 1468.27 Q1776.83 1465.74 1777.71 1464.01 Q1778.61 1462.25 1778.61 1460.56 Q1778.61 1457.8 1776.67 1456.07 Q1774.75 1454.33 1771.65 1454.33 Q1769.45 1454.33 1766.99 1455.09 Q1764.56 1455.86 1761.79 1457.41 L1761.79 1452.69 Q1764.61 1451.55 1767.06 1450.97 Q1769.52 1450.39 1771.55 1450.39 Q1776.92 1450.39 1780.12 1453.08 Q1783.31 1455.77 1783.31 1460.26 Q1783.31 1462.39 1782.5 1464.31 Q1781.72 1466.2 1779.61 1468.8 Q1779.03 1469.47 1775.93 1472.69 Q1772.83 1475.88 1767.18 1481.64 Z" fill="#000000" fill-rule="nonzero" fill-opacity="1" /><path clip-path="url(#clip410)" d="M1794.12 1481.64 L1801.76 1481.64 L1801.76 1455.28 L1793.45 1456.95 L1793.45 1452.69 L1801.72 1451.02 L1806.39 1451.02 L1806.39 1481.64 L1814.03 1481.64 L1814.03 1485.58 L1794.12 1485.58 L1794.12 1481.64 Z" fill="#000000" fill-rule="nonzero" fill-opacity="1" /><path clip-path="url(#clip410)" d="M1820.72 1470.7 L1833.2 1470.7 L1833.2 1474.49 L1820.72 1474.49 L1820.72 1470.7 Z" fill="#000000" fill-rule="nonzero" fill-opacity="1" /><path clip-path="url(#clip410)" d="M1841.39 1481.64 L1849.03 1481.64 L1849.03 1455.28 L1840.72 1456.95 L1840.72 1452.69 L1848.98 1451.02 L1853.66 1451.02 L1853.66 1481.64 L1861.3 1481.64 L1861.3 1485.58 L1841.39 1485.58 L1841.39 1481.64 Z" fill="#000000" fill-rule="nonzero" fill-opacity="1" /><path clip-path="url(#clip410)" d="M1880.74 1454.1 Q1877.13 1454.1 1875.3 1457.66 Q1873.5 1461.2 1873.5 1468.33 Q1873.5 1475.44 1875.3 1479.01 Q1877.13 1482.55 1880.74 1482.55 Q1884.38 1482.55 1886.18 1479.01 Q1888.01 1475.44 1888.01 1468.33 Q1888.01 1461.2 1886.18 1457.66 Q1884.38 1454.1 1880.74 1454.1 M1880.74 1450.39 Q1886.55 1450.39 1889.61 1455 Q1892.69 1459.58 1892.69 1468.33 Q1892.69 1477.06 1889.61 1481.67 Q1886.55 1486.25 1880.74 1486.25 Q1874.93 1486.25 1871.85 1481.67 Q1868.8 1477.06 1868.8 1468.33 Q1868.8 1459.58 1871.85 1455 Q1874.93 1450.39 1880.74 1450.39 Z" fill="#000000" fill-rule="nonzero" fill-opacity="1" /><path clip-path="url(#clip410)" d="M1898.15 1470.7 L1910.63 1470.7 L1910.63 1474.49 L1898.15 1474.49 L1898.15 1470.7 Z" fill="#000000" fill-rule="nonzero" fill-opacity="1" /><path clip-path="url(#clip410)" d="M1928.01 1454.1 Q1924.4 1454.1 1922.57 1457.66 Q1920.77 1461.2 1920.77 1468.33 Q1920.77 1475.44 1922.57 1479.01 Q1924.4 1482.55 1928.01 1482.55 Q1931.65 1482.55 1933.45 1479.01 Q1935.28 1475.44 1935.28 1468.33 Q1935.28 1461.2 1933.45 1457.66 Q1931.65 1454.1 1928.01 1454.1 M1928.01 1450.39 Q1933.82 1450.39 1936.88 1455 Q1939.96 1459.58 1939.96 1468.33 Q1939.96 1477.06 1936.88 1481.67 Q1933.82 1486.25 1928.01 1486.25 Q1922.2 1486.25 1919.12 1481.67 Q1916.07 1477.06 1916.07 1468.33 Q1916.07 1459.58 1919.12 1455 Q1922.2 1450.39 1928.01 1450.39 Z" fill="#000000" fill-rule="nonzero" fill-opacity="1" /><path clip-path="url(#clip410)" d="M1948.98 1481.64 L1956.62 1481.64 L1956.62 1455.28 L1948.31 1456.95 L1948.31 1452.69 L1956.58 1451.02 L1961.25 1451.02 L1961.25 1481.64 L1968.89 1481.64 L1968.89 1485.58 L1948.98 1485.58 L1948.98 1481.64 Z" fill="#000000" fill-rule="nonzero" fill-opacity="1" /><path clip-path="url(#clip410)" d="M1261.62 1537.81 L1261.62 1518.52 L1267.47 1518.52 L1267.47 1568.04 L1261.62 1568.04 L1261.62 1562.7 Q1259.77 1565.88 1256.94 1567.44 Q1254.14 1568.97 1250.19 1568.97 Q1243.73 1568.97 1239.65 1563.81 Q1235.61 1558.65 1235.61 1550.25 Q1235.61 1541.85 1239.65 1536.69 Q1243.73 1531.54 1250.19 1531.54 Q1254.14 1531.54 1256.94 1533.1 Q1259.77 1534.62 1261.62 1537.81 M1241.66 1550.25 Q1241.66 1556.71 1244.3 1560.4 Q1246.98 1564.07 1251.62 1564.07 Q1256.27 1564.07 1258.94 1560.4 Q1261.62 1556.71 1261.62 1550.25 Q1261.62 1543.79 1258.94 1540.13 Q1256.27 1536.44 1251.62 1536.44 Q1246.98 1536.44 1244.3 1540.13 Q1241.66 1543.79 1241.66 1550.25 Z" fill="#000000" fill-rule="nonzero" fill-opacity="1" /><path clip-path="url(#clip410)" d="M1295.74 1550.12 Q1288.64 1550.12 1285.9 1551.75 Q1283.16 1553.37 1283.16 1557.29 Q1283.16 1560.4 1285.2 1562.25 Q1287.27 1564.07 1290.8 1564.07 Q1295.67 1564.07 1298.6 1560.63 Q1301.56 1557.16 1301.56 1551.43 L1301.56 1550.12 L1295.74 1550.12 M1307.42 1547.71 L1307.42 1568.04 L1301.56 1568.04 L1301.56 1562.63 Q1299.56 1565.88 1296.56 1567.44 Q1293.57 1568.97 1289.24 1568.97 Q1283.77 1568.97 1280.52 1565.91 Q1277.31 1562.82 1277.31 1557.67 Q1277.31 1551.65 1281.32 1548.6 Q1285.36 1545.54 1293.35 1545.54 L1301.56 1545.54 L1301.56 1544.97 Q1301.56 1540.93 1298.89 1538.73 Q1296.25 1536.5 1291.44 1536.5 Q1288.38 1536.5 1285.49 1537.23 Q1282.59 1537.97 1279.92 1539.43 L1279.92 1534.02 Q1283.13 1532.78 1286.16 1532.17 Q1289.18 1531.54 1292.04 1531.54 Q1299.78 1531.54 1303.6 1535.55 Q1307.42 1539.56 1307.42 1547.71 Z" fill="#000000" fill-rule="nonzero" fill-opacity="1" /><path clip-path="url(#clip410)" d="M1325.27 1522.27 L1325.27 1532.4 L1337.34 1532.4 L1337.34 1536.95 L1325.27 1536.95 L1325.27 1556.3 Q1325.27 1560.66 1326.45 1561.9 Q1327.66 1563.14 1331.32 1563.14 L1337.34 1563.14 L1337.34 1568.04 L1331.32 1568.04 Q1324.54 1568.04 1321.96 1565.53 Q1319.39 1562.98 1319.39 1556.3 L1319.39 1536.95 L1315.09 1536.95 L1315.09 1532.4 L1319.39 1532.4 L1319.39 1522.27 L1325.27 1522.27 Z" fill="#000000" fill-rule="nonzero" fill-opacity="1" /><path clip-path="url(#clip410)" d="M1375.53 1548.76 L1375.53 1551.62 L1348.6 1551.62 Q1348.99 1557.67 1352.23 1560.85 Q1355.51 1564 1361.34 1564 Q1364.71 1564 1367.86 1563.17 Q1371.04 1562.35 1374.16 1560.69 L1374.16 1566.23 Q1371.01 1567.57 1367.7 1568.27 Q1364.39 1568.97 1360.99 1568.97 Q1352.46 1568.97 1347.46 1564 Q1342.49 1559.04 1342.49 1550.57 Q1342.49 1541.82 1347.2 1536.69 Q1351.95 1531.54 1359.97 1531.54 Q1367.16 1531.54 1371.33 1536.18 Q1375.53 1540.8 1375.53 1548.76 M1369.67 1547.04 Q1369.61 1542.23 1366.97 1539.37 Q1364.36 1536.5 1360.03 1536.5 Q1355.13 1536.5 1352.17 1539.27 Q1349.24 1542.04 1348.79 1547.07 L1369.67 1547.04 Z" fill="#000000" fill-rule="nonzero" fill-opacity="1" /><polyline clip-path="url(#clip412)" style="stroke:#000000; stroke-linecap:round; stroke-linejoin:round; stroke-width:2; stroke-opacity:0.1; fill:none" points="258.387,1384.24 2352.76,1384.24 "/>
<polyline clip-path="url(#clip412)" style="stroke:#000000; stroke-linecap:round; stroke-linejoin:round; stroke-width:2; stroke-opacity:0.1; fill:none" points="258.387,875.684 2352.76,875.684 "/>
<polyline clip-path="url(#clip412)" style="stroke:#000000; stroke-linecap:round; stroke-linejoin:round; stroke-width:2; stroke-opacity:0.1; fill:none" points="258.387,367.13 2352.76,367.13 "/>
<polyline clip-path="url(#clip410)" style="stroke:#000000; stroke-linecap:round; stroke-linejoin:round; stroke-width:4; stroke-opacity:1; fill:none" points="258.387,1423.18 258.387,47.2441 "/>
<polyline clip-path="url(#clip410)" style="stroke:#000000; stroke-linecap:round; stroke-linejoin:round; stroke-width:4; stroke-opacity:1; fill:none" points="258.387,1384.24 277.285,1384.24 "/>
<polyline clip-path="url(#clip410)" style="stroke:#000000; stroke-linecap:round; stroke-linejoin:round; stroke-width:4; stroke-opacity:1; fill:none" points="258.387,875.684 277.285,875.684 "/>
<polyline clip-path="url(#clip410)" style="stroke:#000000; stroke-linecap:round; stroke-linejoin:round; stroke-width:4; stroke-opacity:1; fill:none" points="258.387,367.13 277.285,367.13 "/>
<path clip-path="url(#clip410)" d="M114.931 1404.03 L122.57 1404.03 L122.57 1377.67 L114.26 1379.33 L114.26 1375.07 L122.524 1373.41 L127.2 1373.41 L127.2 1404.03 L134.839 1404.03 L134.839 1407.97 L114.931 1407.97 L114.931 1404.03 Z" fill="#000000" fill-rule="nonzero" fill-opacity="1" /><path clip-path="url(#clip410)" d="M154.283 1376.48 Q150.672 1376.48 148.843 1380.05 Q147.038 1383.59 147.038 1390.72 Q147.038 1397.83 148.843 1401.39 Q150.672 1404.93 154.283 1404.93 Q157.917 1404.93 159.723 1401.39 Q161.552 1397.83 161.552 1390.72 Q161.552 1383.59 159.723 1380.05 Q157.917 1376.48 154.283 1376.48 M154.283 1372.78 Q160.093 1372.78 163.149 1377.39 Q166.227 1381.97 166.227 1390.72 Q166.227 1399.45 163.149 1404.05 Q160.093 1408.64 154.283 1408.64 Q148.473 1408.64 145.394 1404.05 Q142.339 1399.45 142.339 1390.72 Q142.339 1381.97 145.394 1377.39 Q148.473 1372.78 154.283 1372.78 Z" fill="#000000" fill-rule="nonzero" fill-opacity="1" /><path clip-path="url(#clip410)" d="M175.932 1354.98 Q172.998 1354.98 171.512 1357.87 Q170.045 1360.75 170.045 1366.54 Q170.045 1372.32 171.512 1375.21 Q172.998 1378.09 175.932 1378.09 Q178.885 1378.09 180.352 1375.21 Q181.838 1372.32 181.838 1366.54 Q181.838 1360.75 180.352 1357.87 Q178.885 1354.98 175.932 1354.98 M175.932 1351.97 Q180.653 1351.97 183.136 1355.71 Q185.637 1359.43 185.637 1366.54 Q185.637 1373.63 183.136 1377.38 Q180.653 1381.1 175.932 1381.1 Q171.212 1381.1 168.71 1377.38 Q166.227 1373.63 166.227 1366.54 Q166.227 1359.43 168.71 1355.71 Q171.212 1351.97 175.932 1351.97 Z" fill="#000000" fill-rule="nonzero" fill-opacity="1" /><path clip-path="url(#clip410)" d="M192.314 1375.78 L196.282 1375.78 L196.282 1380.56 L192.314 1380.56 L192.314 1375.78 Z" fill="#000000" fill-rule="nonzero" fill-opacity="1" /><path clip-path="url(#clip410)" d="M212.683 1354.98 Q209.749 1354.98 208.263 1357.87 Q206.796 1360.75 206.796 1366.54 Q206.796 1372.32 208.263 1375.21 Q209.749 1378.09 212.683 1378.09 Q215.635 1378.09 217.102 1375.21 Q218.588 1372.32 218.588 1366.54 Q218.588 1360.75 217.102 1357.87 Q215.635 1354.98 212.683 1354.98 M212.683 1351.97 Q217.403 1351.97 219.886 1355.71 Q222.387 1359.43 222.387 1366.54 Q222.387 1373.63 219.886 1377.38 Q217.403 1381.1 212.683 1381.1 Q207.962 1381.1 205.46 1377.38 Q202.978 1373.63 202.978 1366.54 Q202.978 1359.43 205.46 1355.71 Q207.962 1351.97 212.683 1351.97 Z" fill="#000000" fill-rule="nonzero" fill-opacity="1" /><path clip-path="url(#clip410)" d="M115.74 895.477 L123.379 895.477 L123.379 869.111 L115.069 870.778 L115.069 866.518 L123.333 864.852 L128.009 864.852 L128.009 895.477 L135.647 895.477 L135.647 899.412 L115.74 899.412 L115.74 895.477 Z" fill="#000000" fill-rule="nonzero" fill-opacity="1" /><path clip-path="url(#clip410)" d="M155.092 867.931 Q151.481 867.931 149.652 871.495 Q147.846 875.037 147.846 882.167 Q147.846 889.273 149.652 892.838 Q151.481 896.379 155.092 896.379 Q158.726 896.379 160.532 892.838 Q162.36 889.273 162.36 882.167 Q162.36 875.037 160.532 871.495 Q158.726 867.931 155.092 867.931 M155.092 864.227 Q160.902 864.227 163.958 868.833 Q167.036 873.417 167.036 882.167 Q167.036 890.893 163.958 895.5 Q160.902 900.083 155.092 900.083 Q149.282 900.083 146.203 895.5 Q143.147 890.893 143.147 882.167 Q143.147 873.417 146.203 868.833 Q149.282 864.227 155.092 864.227 Z" fill="#000000" fill-rule="nonzero" fill-opacity="1" /><path clip-path="url(#clip410)" d="M176.741 846.423 Q173.807 846.423 172.321 849.319 Q170.854 852.197 170.854 857.99 Q170.854 863.764 172.321 866.66 Q173.807 869.538 176.741 869.538 Q179.694 869.538 181.161 866.66 Q182.647 863.764 182.647 857.99 Q182.647 852.197 181.161 849.319 Q179.694 846.423 176.741 846.423 M176.741 843.414 Q181.462 843.414 183.944 847.156 Q186.446 850.88 186.446 857.99 Q186.446 865.08 183.944 868.823 Q181.462 872.547 176.741 872.547 Q172.02 872.547 169.519 868.823 Q167.036 865.08 167.036 857.99 Q167.036 850.88 169.519 847.156 Q172.02 843.414 176.741 843.414 Z" fill="#000000" fill-rule="nonzero" fill-opacity="1" /><path clip-path="url(#clip410)" d="M193.123 867.224 L197.091 867.224 L197.091 872.001 L193.123 872.001 L193.123 867.224 Z" fill="#000000" fill-rule="nonzero" fill-opacity="1" /><path clip-path="url(#clip410)" d="M205.404 843.921 L220.319 843.921 L220.319 847.119 L208.883 847.119 L208.883 854.002 Q209.711 853.72 210.539 853.589 Q211.366 853.438 212.194 853.438 Q216.896 853.438 219.642 856.015 Q222.387 858.591 222.387 862.993 Q222.387 867.525 219.566 870.045 Q216.745 872.547 211.611 872.547 Q209.843 872.547 208 872.246 Q206.175 871.945 204.219 871.343 L204.219 867.525 Q205.912 868.447 207.717 868.898 Q209.523 869.35 211.535 869.35 Q214.789 869.35 216.689 867.638 Q218.588 865.927 218.588 862.993 Q218.588 860.058 216.689 858.347 Q214.789 856.635 211.535 856.635 Q210.012 856.635 208.489 856.974 Q206.984 857.313 205.404 858.027 L205.404 843.921 Z" fill="#000000" fill-rule="nonzero" fill-opacity="1" /><path clip-path="url(#clip410)" d="M116.624 386.923 L124.263 386.923 L124.263 360.557 L115.953 362.224 L115.953 357.964 L124.217 356.298 L128.893 356.298 L128.893 386.923 L136.531 386.923 L136.531 390.858 L116.624 390.858 L116.624 386.923 Z" fill="#000000" fill-rule="nonzero" fill-opacity="1" /><path clip-path="url(#clip410)" d="M155.976 359.376 Q152.365 359.376 150.536 362.941 Q148.73 366.483 148.73 373.613 Q148.73 380.719 150.536 384.284 Q152.365 387.825 155.976 387.825 Q159.61 387.825 161.416 384.284 Q163.244 380.719 163.244 373.613 Q163.244 366.483 161.416 362.941 Q159.61 359.376 155.976 359.376 M155.976 355.673 Q161.786 355.673 164.841 360.279 Q167.92 364.863 167.92 373.613 Q167.92 382.339 164.841 386.946 Q161.786 391.529 155.976 391.529 Q150.166 391.529 147.087 386.946 Q144.031 382.339 144.031 373.613 Q144.031 364.863 147.087 360.279 Q150.166 355.673 155.976 355.673 Z" fill="#000000" fill-rule="nonzero" fill-opacity="1" /><path clip-path="url(#clip410)" d="M168.466 360.25 L174.672 360.25 L174.672 338.828 L167.92 340.182 L167.92 336.722 L174.635 335.367 L178.434 335.367 L178.434 360.25 L184.64 360.25 L184.64 363.447 L168.466 363.447 L168.466 360.25 Z" fill="#000000" fill-rule="nonzero" fill-opacity="1" /><path clip-path="url(#clip410)" d="M192.314 358.67 L196.282 358.67 L196.282 363.447 L192.314 363.447 L192.314 358.67 Z" fill="#000000" fill-rule="nonzero" fill-opacity="1" /><path clip-path="url(#clip410)" d="M212.683 337.869 Q209.749 337.869 208.263 340.765 Q206.796 343.643 206.796 349.436 Q206.796 355.21 208.263 358.106 Q209.749 360.984 212.683 360.984 Q215.635 360.984 217.102 358.106 Q218.588 355.21 218.588 349.436 Q218.588 343.643 217.102 340.765 Q215.635 337.869 212.683 337.869 M212.683 334.86 Q217.403 334.86 219.886 338.602 Q222.387 342.326 222.387 349.436 Q222.387 356.526 219.886 360.269 Q217.403 363.993 212.683 363.993 Q207.962 363.993 205.46 360.269 Q202.978 356.526 202.978 349.436 Q202.978 342.326 205.46 338.602 Q207.962 334.86 212.683 334.86 Z" fill="#000000" fill-rule="nonzero" fill-opacity="1" /><path clip-path="url(#clip410)" d="M46.0847 888.244 Q46.0847 895.341 47.7079 898.079 Q49.3312 900.816 53.2461 900.816 Q56.3653 900.816 58.2114 898.779 Q60.0256 896.71 60.0256 893.177 Q60.0256 888.307 56.5881 885.379 Q53.1188 882.419 47.3897 882.419 L46.0847 882.419 L46.0847 888.244 M43.6657 876.562 L64.0042 876.562 L64.0042 882.419 L58.5933 882.419 Q61.8398 884.424 63.3994 887.416 Q64.9272 890.408 64.9272 894.737 Q64.9272 900.211 61.8716 903.458 Q58.7843 906.672 53.6281 906.672 Q47.6125 906.672 44.5569 902.662 Q41.5014 898.62 41.5014 890.631 L41.5014 882.419 L40.9285 882.419 Q36.8862 882.419 34.6901 885.093 Q32.4621 887.734 32.4621 892.54 Q32.4621 895.596 33.1941 898.492 Q33.9262 901.389 35.3903 904.062 L29.9795 904.062 Q28.7381 900.848 28.1334 897.824 Q27.4968 894.8 27.4968 891.936 Q27.4968 884.201 31.5072 880.382 Q35.5176 876.562 43.6657 876.562 Z" fill="#000000" fill-rule="nonzero" fill-opacity="1" /><path clip-path="url(#clip410)" d="M29.7248 838.846 L35.1993 838.846 Q33.8307 841.328 33.1623 843.843 Q32.4621 846.325 32.4621 848.872 Q32.4621 854.569 36.0905 857.72 Q39.6872 860.871 46.212 860.871 Q52.7369 860.871 56.3653 857.72 Q59.9619 854.569 59.9619 848.872 Q59.9619 846.325 59.2935 843.843 Q58.5933 841.328 57.2247 838.846 L62.6355 838.846 Q63.7814 841.296 64.3543 843.938 Q64.9272 846.548 64.9272 849.508 Q64.9272 857.561 59.8664 862.303 Q54.8057 867.046 46.212 867.046 Q37.491 867.046 32.4939 862.271 Q27.4968 857.465 27.4968 849.126 Q27.4968 846.421 28.0697 843.843 Q28.6108 841.265 29.7248 838.846 Z" fill="#000000" fill-rule="nonzero" fill-opacity="1" /><path clip-path="url(#clip410)" d="M29.7248 803.007 L35.1993 803.007 Q33.8307 805.489 33.1623 808.004 Q32.4621 810.486 32.4621 813.033 Q32.4621 818.73 36.0905 821.881 Q39.6872 825.032 46.212 825.032 Q52.7369 825.032 56.3653 821.881 Q59.9619 818.73 59.9619 813.033 Q59.9619 810.486 59.2935 808.004 Q58.5933 805.489 57.2247 803.007 L62.6355 803.007 Q63.7814 805.458 64.3543 808.099 Q64.9272 810.709 64.9272 813.669 Q64.9272 821.722 59.8664 826.464 Q54.8057 831.207 46.212 831.207 Q37.491 831.207 32.4939 826.433 Q27.4968 821.626 27.4968 813.287 Q27.4968 810.582 28.0697 808.004 Q28.6108 805.426 29.7248 803.007 Z" fill="#000000" fill-rule="nonzero" fill-opacity="1" /><path clip-path="url(#clip410)" d="M55.9197 791.994 L55.9197 785.278 L64.0042 785.278 L64.0042 791.994 L55.9197 791.994 Z" fill="#000000" fill-rule="nonzero" fill-opacity="1" /><path clip-path="url(#clip410)" d="M33.8307 730.724 Q33.2578 731.711 33.0032 732.888 Q32.7167 734.034 32.7167 735.435 Q32.7167 740.4 35.9632 743.074 Q39.1779 745.715 45.2253 745.715 L64.0042 745.715 L64.0042 751.604 L28.3562 751.604 L28.3562 745.715 L33.8944 745.715 Q30.6479 743.869 29.0883 740.909 Q27.4968 737.949 27.4968 733.716 Q27.4968 733.111 27.5923 732.379 Q27.656 731.647 27.8151 730.756 L33.8307 730.724 Z" fill="#000000" fill-rule="nonzero" fill-opacity="1" /><path clip-path="url(#clip410)" d="M44.7161 695.522 L47.5806 695.522 L47.5806 722.449 Q53.6281 722.067 56.8109 718.82 Q59.9619 715.542 59.9619 709.717 Q59.9619 706.343 59.1344 703.192 Q58.3069 700.01 56.6518 696.89 L62.1899 696.89 Q63.5267 700.041 64.227 703.352 Q64.9272 706.662 64.9272 710.067 Q64.9272 718.597 59.9619 723.595 Q54.9967 728.56 46.5303 728.56 Q37.7774 728.56 32.6531 723.849 Q27.4968 719.107 27.4968 711.086 Q27.4968 703.893 32.1438 699.723 Q36.7589 695.522 44.7161 695.522 M42.9973 701.378 Q38.1912 701.442 35.3266 704.084 Q32.4621 706.694 32.4621 711.022 Q32.4621 715.924 35.2312 718.884 Q38.0002 721.812 43.0292 722.258 L42.9973 701.378 Z" fill="#000000" fill-rule="nonzero" fill-opacity="1" /><path clip-path="url(#clip410)" d="M18.2347 680.117 L28.3562 680.117 L28.3562 668.054 L32.9077 668.054 L32.9077 680.117 L52.2594 680.117 Q56.6199 680.117 57.8613 678.939 Q59.1026 677.73 59.1026 674.069 L59.1026 668.054 L64.0042 668.054 L64.0042 674.069 Q64.0042 680.849 61.4897 683.427 Q58.9434 686.005 52.2594 686.005 L32.9077 686.005 L32.9077 690.302 L28.3562 690.302 L28.3562 686.005 L18.2347 686.005 L18.2347 680.117 Z" fill="#000000" fill-rule="nonzero" fill-opacity="1" /><path clip-path="url(#clip410)" d="M49.9359 660.956 L28.3562 660.956 L28.3562 655.1 L49.7131 655.1 Q54.7739 655.1 57.3202 653.126 Q59.8346 651.153 59.8346 647.206 Q59.8346 642.464 56.8109 639.726 Q53.7872 636.957 48.5673 636.957 L28.3562 636.957 L28.3562 631.101 L64.0042 631.101 L64.0042 636.957 L58.5296 636.957 Q61.7762 639.09 63.3676 641.923 Q64.9272 644.723 64.9272 648.447 Q64.9272 654.59 61.1078 657.773 Q57.2883 660.956 49.9359 660.956 M27.4968 646.219 L27.4968 646.219 Z" fill="#000000" fill-rule="nonzero" fill-opacity="1" /><path clip-path="url(#clip410)" d="M33.8307 598.381 Q33.2578 599.368 33.0032 600.545 Q32.7167 601.691 32.7167 603.092 Q32.7167 608.057 35.9632 610.731 Q39.1779 613.372 45.2253 613.372 L64.0042 613.372 L64.0042 619.261 L28.3562 619.261 L28.3562 613.372 L33.8944 613.372 Q30.6479 611.526 29.0883 608.566 Q27.4968 605.606 27.4968 601.373 Q27.4968 600.768 27.5923 600.036 Q27.656 599.304 27.8151 598.413 L33.8307 598.381 Z" fill="#000000" fill-rule="nonzero" fill-opacity="1" /><path clip-path="url(#clip410)" d="M42.4881 563.752 L64.0042 563.752 L64.0042 569.608 L42.679 569.608 Q37.6183 569.608 35.1038 571.581 Q32.5894 573.555 32.5894 577.502 Q32.5894 582.244 35.6131 584.981 Q38.6368 587.719 43.8567 587.719 L64.0042 587.719 L64.0042 593.607 L28.3562 593.607 L28.3562 587.719 L33.8944 587.719 Q30.6797 585.618 29.0883 582.785 Q27.4968 579.921 27.4968 576.197 Q27.4968 570.054 31.3163 566.903 Q35.1038 563.752 42.4881 563.752 Z" fill="#000000" fill-rule="nonzero" fill-opacity="1" /><polyline clip-path="url(#clip412)" style="stroke:#009af9; stroke-linecap:round; stroke-linejoin:round; stroke-width:12; stroke-opacity:1; fill:none" points="317.662,1384.24 317.662,1384.24 323.291,1384.24 328.92,1384.24 334.549,1384.24 340.179,1384.24 357.066,1384.24 362.695,1384.24 368.324,1384.24 373.953,1384.24 379.582,1384.24 402.099,1384.24 407.728,1384.24 413.357,1384.24 418.986,1310.45 435.873,1208.93 441.503,1138.01 447.132,1138.01 452.761,1138.01 458.39,1138.01 475.277,1138.01 480.906,1138.01 486.535,1138.01 492.165,1138.01 497.794,1138.01 514.681,1138.01 520.31,1138.01 525.939,1138.01 531.568,1138.01 537.198,1138.01 559.714,1138.01 565.343,1138.01 570.972,1138.01 576.601,1138.01 593.489,1138.01 599.118,1138.01 604.747,1049.17 610.376,963.395 616.005,963.395 632.892,963.395 638.522,963.395 644.151,963.395 649.78,963.395 655.409,963.395 672.296,963.395 677.925,963.395 683.555,963.395 689.184,963.395 694.813,897.652 711.466,867.77 717.095,867.77 722.724,867.77 728.353,867.77 733.982,867.77 750.869,867.77 756.498,867.77 762.128,867.77 767.757,867.77 773.386,867.77 790.273,867.77 795.902,867.77 801.531,867.77 807.16,867.77 829.677,867.77 835.306,867.77 840.935,867.77 846.564,867.77 852.193,867.77 869.081,867.77 874.71,867.77 880.339,867.77 885.968,867.77 891.597,867.77 908.485,867.77 914.114,867.77 919.743,830.214 925.372,812.179 931.001,806.869 947.888,806.869 953.517,806.869 959.147,806.869 964.776,806.869 970.405,749.437 987.292,736.594 992.921,736.594 998.55,736.594 1004.18,736.594 1009.81,736.594 1026.7,736.594 1032.33,644.938 1037.95,651.504 1043.58,651.504 1049.21,651.504 1066.1,651.504 1071.73,651.504 1077.36,651.504 1082.99,651.504 1088.62,651.504 1105.5,651.504 1111.13,651.504 1116.76,651.504 1122.39,507.516 1128.02,420.151 1150.54,420.151 1156.17,420.151 1161.79,420.151 1167.42,420.151 1184.31,420.151 1189.94,420.151 1195.57,420.151 1201.2,420.151 1206.83,420.151 1223.71,420.151 1229.34,420.151 1234.97,420.151 1240.6,377.091 1246.23,364.526 1263.12,364.526 1268.75,364.526 1274.38,364.526 1280.01,364.526 1285.64,364.526 1302.52,364.526 1308.15,364.526 1313.78,364.526 1319.41,364.526 1325.04,364.526 1347.56,364.526 1353.18,364.526 1358.81,307.842 1364.44,295.957 1381.33,295.957 1386.96,295.957 1392.59,295.957 1398.22,256.108 1403.85,225.933 1420.73,225.933 1426.36,225.933 1431.99,225.933 1437.62,225.933 1443.25,225.933 1460.14,225.933 1465.77,225.933 1471.4,225.933 1477.03,225.933 1482.65,225.933 1499.54,225.933 1505.17,225.933 1510.8,225.933 1516.43,225.933 1522.06,225.933 1538.95,225.933 1544.57,225.933 1550.2,225.933 1555.83,204.858 1561.46,207.885 1578.35,207.885 1583.98,190.054 1589.61,179.408 1595.24,179.408 1600.87,179.408 1617.75,179.408 1623.38,179.408 1629.01,179.408 1634.64,179.408 1640.27,179.408 1657.16,179.408 1662.79,179.408 1668.42,179.408 1674.04,179.408 1679.67,179.408 1702.19,179.408 1707.82,179.408 1713.45,166.864 1719.08,152.49 1735.96,152.49 1741.59,152.49 1747.22,152.49 1752.85,152.49 1758.48,152.49 1775.37,152.49 1781,152.49 1786.63,152.49 1792.26,152.49 1797.88,152.49 1814.77,152.49 1820.4,152.49 1826.03,152.49 1831.66,152.49 1837.29,152.49 1854.18,152.49 1859.8,152.49 1865.43,152.49 1871.06,152.49 1876.69,152.49 1893.58,152.49 1899.21,152.49 1904.84,152.49 1910.47,152.49 1916.1,152.49 1932.98,152.49 1938.61,152.49 1944.24,152.49 1949.87,152.49 1955.5,152.49 1972.39,152.49 1978.02,152.49 1983.65,152.49 1989.27,152.49 1994.9,152.49 2011.79,152.49 2017.42,152.49 2023.05,152.49 2028.68,152.49 2034.31,152.49 2051.43,152.49 2057.06,152.49 2062.69,152.49 2068.32,152.49 2073.95,152.49 2090.83,152.49 2096.46,152.49 2102.09,152.49 2107.72,152.49 2113.35,152.49 2130.24,152.49 2135.87,152.49 2141.5,152.49 2152.75,152.49 2169.64,152.49 2175.27,152.49 2180.9,152.49 2186.53,152.49 2192.16,152.49 2209.04,152.49 2214.67,152.49 2220.3,152.49 2225.93,152.49 2231.56,152.49 2248.45,152.49 2254.08,95.9773 2259.71,86.1857 2265.34,86.1857 2270.96,86.1857 2287.85,86.1857 2293.48,86.1857 "/>
<path clip-path="url(#clip410)" d="M328.2 196.789 L919.209 196.789 L919.209 93.1086 L328.2 93.1086  Z" fill="#ffffff" fill-rule="evenodd" fill-opacity="1"/>
<polyline clip-path="url(#clip410)" style="stroke:#000000; stroke-linecap:round; stroke-linejoin:round; stroke-width:4; stroke-opacity:1; fill:none" points="328.2,196.789 919.209,196.789 919.209,93.1086 328.2,93.1086 328.2,196.789 "/>
<polyline clip-path="url(#clip410)" style="stroke:#009af9; stroke-linecap:round; stroke-linejoin:round; stroke-width:12; stroke-opacity:1; fill:none" points="351.471,144.949 491.095,144.949 "/>
<path clip-path="url(#clip410)" d="M514.366 127.669 L521.333 127.669 L530.153 151.187 L539.018 127.669 L545.986 127.669 L545.986 162.229 L541.426 162.229 L541.426 131.882 L532.514 155.585 L527.815 155.585 L518.903 131.882 L518.903 162.229 L514.366 162.229 L514.366 127.669 Z" fill="#000000" fill-rule="nonzero" fill-opacity="1" /><path clip-path="url(#clip410)" d="M564.18 162.229 L550.986 127.669 L555.87 127.669 L566.819 156.766 L577.791 127.669 L582.653 127.669 L569.481 162.229 L564.18 162.229 Z" fill="#000000" fill-rule="nonzero" fill-opacity="1" /><path clip-path="url(#clip410)" d="M582.583 147.344 L595.06 147.344 L595.06 151.141 L582.583 151.141 L582.583 147.344 Z" fill="#000000" fill-rule="nonzero" fill-opacity="1" /><path clip-path="url(#clip410)" d="M602.027 127.669 L608.995 127.669 L617.814 151.187 L626.68 127.669 L633.648 127.669 L633.648 162.229 L629.087 162.229 L629.087 131.882 L620.175 155.585 L615.476 155.585 L606.564 131.882 L606.564 162.229 L602.027 162.229 L602.027 127.669 Z" fill="#000000" fill-rule="nonzero" fill-opacity="1" /><path clip-path="url(#clip410)" d="M647.606 131.511 L647.606 144.497 L653.485 144.497 Q656.749 144.497 658.532 142.807 Q660.314 141.118 660.314 137.993 Q660.314 134.891 658.532 133.201 Q656.749 131.511 653.485 131.511 L647.606 131.511 M642.93 127.669 L653.485 127.669 Q659.296 127.669 662.259 130.307 Q665.245 132.923 665.245 137.993 Q665.245 143.108 662.259 145.724 Q659.296 148.34 653.485 148.34 L647.606 148.34 L647.606 162.229 L642.93 162.229 L642.93 127.669 Z" fill="#000000" fill-rule="nonzero" fill-opacity="1" /><path clip-path="url(#clip410)" d="M697.397 130.331 L697.397 135.261 Q695.036 133.062 692.351 131.974 Q689.689 130.886 686.68 130.886 Q680.754 130.886 677.606 134.52 Q674.458 138.132 674.458 144.983 Q674.458 151.812 677.606 155.446 Q680.754 159.057 686.68 159.057 Q689.689 159.057 692.351 157.969 Q695.036 156.881 697.397 154.682 L697.397 159.567 Q694.944 161.233 692.189 162.067 Q689.457 162.9 686.402 162.9 Q678.555 162.9 674.041 158.108 Q669.527 153.293 669.527 144.983 Q669.527 136.65 674.041 131.858 Q678.555 127.044 686.402 127.044 Q689.504 127.044 692.235 127.877 Q694.99 128.687 697.397 130.331 Z" fill="#000000" fill-rule="nonzero" fill-opacity="1" /><path clip-path="url(#clip410)" d="M705.522 156.349 L710.406 156.349 L710.406 162.229 L705.522 162.229 L705.522 156.349 M705.522 137.715 L710.406 137.715 L710.406 143.594 L705.522 143.594 L705.522 137.715 Z" fill="#000000" fill-rule="nonzero" fill-opacity="1" /><path clip-path="url(#clip410)" d="M740.337 131.511 L740.337 144.497 L746.216 144.497 Q749.48 144.497 751.263 142.807 Q753.045 141.118 753.045 137.993 Q753.045 134.891 751.263 133.201 Q749.48 131.511 746.216 131.511 L740.337 131.511 M735.661 127.669 L746.216 127.669 Q752.027 127.669 754.99 130.307 Q757.976 132.923 757.976 137.993 Q757.976 143.108 754.99 145.724 Q752.027 148.34 746.216 148.34 L740.337 148.34 L740.337 162.229 L735.661 162.229 L735.661 127.669 Z" fill="#000000" fill-rule="nonzero" fill-opacity="1" /><path clip-path="url(#clip410)" d="M784.55 148.201 L784.55 150.284 L764.966 150.284 Q765.244 154.682 767.605 156.997 Q769.989 159.289 774.226 159.289 Q776.679 159.289 778.971 158.687 Q781.286 158.085 783.554 156.881 L783.554 160.909 Q781.263 161.881 778.855 162.391 Q776.448 162.9 773.971 162.9 Q767.767 162.9 764.133 159.289 Q760.522 155.678 760.522 149.52 Q760.522 143.155 763.948 139.428 Q767.397 135.678 773.23 135.678 Q778.462 135.678 781.494 139.057 Q784.55 142.414 784.55 148.201 M780.29 146.951 Q780.244 143.456 778.323 141.372 Q776.425 139.289 773.276 139.289 Q769.712 139.289 767.559 141.303 Q765.429 143.317 765.105 146.974 L780.29 146.951 Z" fill="#000000" fill-rule="nonzero" fill-opacity="1" /><path clip-path="url(#clip410)" d="M806.563 140.284 Q805.846 139.868 804.989 139.682 Q804.156 139.474 803.137 139.474 Q799.526 139.474 797.582 141.835 Q795.661 144.173 795.661 148.571 L795.661 162.229 L791.378 162.229 L791.378 136.303 L795.661 136.303 L795.661 140.331 Q797.003 137.969 799.156 136.835 Q801.309 135.678 804.387 135.678 Q804.827 135.678 805.36 135.747 Q805.892 135.794 806.54 135.909 L806.563 140.284 Z" fill="#000000" fill-rule="nonzero" fill-opacity="1" /><path clip-path="url(#clip410)" d="M824.156 126.21 L824.156 129.752 L820.082 129.752 Q817.79 129.752 816.887 130.678 Q816.008 131.604 816.008 134.011 L816.008 136.303 L823.022 136.303 L823.022 139.613 L816.008 139.613 L816.008 162.229 L811.725 162.229 L811.725 139.613 L807.651 139.613 L807.651 136.303 L811.725 136.303 L811.725 134.497 Q811.725 130.169 813.739 128.201 Q815.753 126.21 820.128 126.21 L824.156 126.21 Z" fill="#000000" fill-rule="nonzero" fill-opacity="1" /><path clip-path="url(#clip410)" d="M849.896 148.201 L849.896 150.284 L830.313 150.284 Q830.591 154.682 832.952 156.997 Q835.336 159.289 839.572 159.289 Q842.026 159.289 844.318 158.687 Q846.633 158.085 848.901 156.881 L848.901 160.909 Q846.609 161.881 844.202 162.391 Q841.795 162.9 839.318 162.9 Q833.114 162.9 829.48 159.289 Q825.869 155.678 825.869 149.52 Q825.869 143.155 829.295 139.428 Q832.744 135.678 838.577 135.678 Q843.809 135.678 846.841 139.057 Q849.896 142.414 849.896 148.201 M845.637 146.951 Q845.591 143.456 843.67 141.372 Q841.771 139.289 838.623 139.289 Q835.059 139.289 832.906 141.303 Q830.776 143.317 830.452 146.974 L845.637 146.951 Z" fill="#000000" fill-rule="nonzero" fill-opacity="1" /><path clip-path="url(#clip410)" d="M875.544 137.298 L875.544 141.28 Q873.739 140.284 871.91 139.798 Q870.105 139.289 868.253 139.289 Q864.109 139.289 861.818 141.928 Q859.526 144.544 859.526 149.289 Q859.526 154.034 861.818 156.673 Q864.109 159.289 868.253 159.289 Q870.105 159.289 871.91 158.803 Q873.739 158.293 875.544 157.298 L875.544 161.233 Q873.762 162.067 871.841 162.483 Q869.943 162.9 867.79 162.9 Q861.933 162.9 858.484 159.219 Q855.035 155.539 855.035 149.289 Q855.035 142.946 858.508 139.312 Q862.003 135.678 868.068 135.678 Q870.035 135.678 871.91 136.095 Q873.785 136.488 875.544 137.298 Z" fill="#000000" fill-rule="nonzero" fill-opacity="1" /><path clip-path="url(#clip410)" d="M887.165 128.942 L887.165 136.303 L895.938 136.303 L895.938 139.613 L887.165 139.613 L887.165 153.687 Q887.165 156.858 888.021 157.761 Q888.901 158.664 891.563 158.664 L895.938 158.664 L895.938 162.229 L891.563 162.229 Q886.632 162.229 884.757 160.4 Q882.882 158.548 882.882 153.687 L882.882 139.613 L879.757 139.613 L879.757 136.303 L882.882 136.303 L882.882 128.942 L887.165 128.942 Z" fill="#000000" fill-rule="nonzero" fill-opacity="1" /></svg>
