<?xml version="1.0" encoding="utf-8"?>
<svg xmlns="http://www.w3.org/2000/svg" xmlns:xlink="http://www.w3.org/1999/xlink" width="600" height="400" viewBox="0 0 2400 1600">
<defs>
  <clipPath id="clip830">
    <rect x="0" y="0" width="2400" height="1600"/>
  </clipPath>
</defs>
<path clip-path="url(#clip830)" d="M0 1600 L2400 1600 L2400 0 L0 0  Z" fill="#ffffff" fill-rule="evenodd" fill-opacity="1"/>
<defs>
  <clipPath id="clip831">
    <rect x="480" y="0" width="1681" height="1600"/>
  </clipPath>
</defs>
<path clip-path="url(#clip830)" d="M282.894 1423.18 L2352.76 1423.18 L2352.76 47.2441 L282.894 47.2441  Z" fill="#ffffff" fill-rule="evenodd" fill-opacity="1"/>
<defs>
  <clipPath id="clip832">
    <rect x="282" y="47" width="2071" height="1377"/>
  </clipPath>
</defs>
<polyline clip-path="url(#clip832)" style="stroke:#000000; stroke-linecap:round; stroke-linejoin:round; stroke-width:2; stroke-opacity:0.1; fill:none" points="322.351,1423.18 322.351,47.2441 "/>
<polyline clip-path="url(#clip832)" style="stroke:#000000; stroke-linecap:round; stroke-linejoin:round; stroke-width:2; stroke-opacity:0.1; fill:none" points="823.044,1423.18 823.044,47.2441 "/>
<polyline clip-path="url(#clip832)" style="stroke:#000000; stroke-linecap:round; stroke-linejoin:round; stroke-width:2; stroke-opacity:0.1; fill:none" points="1329.3,1423.18 1329.3,47.2441 "/>
<polyline clip-path="url(#clip832)" style="stroke:#000000; stroke-linecap:round; stroke-linejoin:round; stroke-width:2; stroke-opacity:0.1; fill:none" points="1841.12,1423.18 1841.12,47.2441 "/>
<polyline clip-path="url(#clip832)" style="stroke:#000000; stroke-linecap:round; stroke-linejoin:round; stroke-width:2; stroke-opacity:0.05; fill:none" points="422.49,1423.18 422.49,47.2441 "/>
<polyline clip-path="url(#clip832)" style="stroke:#000000; stroke-linecap:round; stroke-linejoin:round; stroke-width:2; stroke-opacity:0.05; fill:none" points="522.628,1423.18 522.628,47.2441 "/>
<polyline clip-path="url(#clip832)" style="stroke:#000000; stroke-linecap:round; stroke-linejoin:round; stroke-width:2; stroke-opacity:0.05; fill:none" points="622.767,1423.18 622.767,47.2441 "/>
<polyline clip-path="url(#clip832)" style="stroke:#000000; stroke-linecap:round; stroke-linejoin:round; stroke-width:2; stroke-opacity:0.05; fill:none" points="722.905,1423.18 722.905,47.2441 "/>
<polyline clip-path="url(#clip832)" style="stroke:#000000; stroke-linecap:round; stroke-linejoin:round; stroke-width:2; stroke-opacity:0.05; fill:none" points="924.295,1423.18 924.295,47.2441 "/>
<polyline clip-path="url(#clip832)" style="stroke:#000000; stroke-linecap:round; stroke-linejoin:round; stroke-width:2; stroke-opacity:0.05; fill:none" points="1025.55,1423.18 1025.55,47.2441 "/>
<polyline clip-path="url(#clip832)" style="stroke:#000000; stroke-linecap:round; stroke-linejoin:round; stroke-width:2; stroke-opacity:0.05; fill:none" points="1126.8,1423.18 1126.8,47.2441 "/>
<polyline clip-path="url(#clip832)" style="stroke:#000000; stroke-linecap:round; stroke-linejoin:round; stroke-width:2; stroke-opacity:0.05; fill:none" points="1228.05,1423.18 1228.05,47.2441 "/>
<polyline clip-path="url(#clip832)" style="stroke:#000000; stroke-linecap:round; stroke-linejoin:round; stroke-width:2; stroke-opacity:0.05; fill:none" points="1431.66,1423.18 1431.66,47.2441 "/>
<polyline clip-path="url(#clip832)" style="stroke:#000000; stroke-linecap:round; stroke-linejoin:round; stroke-width:2; stroke-opacity:0.05; fill:none" points="1534.03,1423.18 1534.03,47.2441 "/>
<polyline clip-path="url(#clip832)" style="stroke:#000000; stroke-linecap:round; stroke-linejoin:round; stroke-width:2; stroke-opacity:0.05; fill:none" points="1636.39,1423.18 1636.39,47.2441 "/>
<polyline clip-path="url(#clip832)" style="stroke:#000000; stroke-linecap:round; stroke-linejoin:round; stroke-width:2; stroke-opacity:0.05; fill:none" points="1738.75,1423.18 1738.75,47.2441 "/>
<polyline clip-path="url(#clip832)" style="stroke:#000000; stroke-linecap:round; stroke-linejoin:round; stroke-width:2; stroke-opacity:0.05; fill:none" points="1944.62,1423.18 1944.62,47.2441 "/>
<polyline clip-path="url(#clip832)" style="stroke:#000000; stroke-linecap:round; stroke-linejoin:round; stroke-width:2; stroke-opacity:0.05; fill:none" points="2048.12,1423.18 2048.12,47.2441 "/>
<polyline clip-path="url(#clip832)" style="stroke:#000000; stroke-linecap:round; stroke-linejoin:round; stroke-width:2; stroke-opacity:0.05; fill:none" points="2151.62,1423.18 2151.62,47.2441 "/>
<polyline clip-path="url(#clip832)" style="stroke:#000000; stroke-linecap:round; stroke-linejoin:round; stroke-width:2; stroke-opacity:0.05; fill:none" points="2255.12,1423.18 2255.12,47.2441 "/>
<polyline clip-path="url(#clip830)" style="stroke:#000000; stroke-linecap:round; stroke-linejoin:round; stroke-width:4; stroke-opacity:1; fill:none" points="282.894,1423.18 2352.76,1423.18 "/>
<polyline clip-path="url(#clip830)" style="stroke:#000000; stroke-linecap:round; stroke-linejoin:round; stroke-width:4; stroke-opacity:1; fill:none" points="322.351,1423.18 322.351,1404.28 "/>
<polyline clip-path="url(#clip830)" style="stroke:#000000; stroke-linecap:round; stroke-linejoin:round; stroke-width:4; stroke-opacity:1; fill:none" points="823.044,1423.18 823.044,1404.28 "/>
<polyline clip-path="url(#clip830)" style="stroke:#000000; stroke-linecap:round; stroke-linejoin:round; stroke-width:4; stroke-opacity:1; fill:none" points="1329.3,1423.18 1329.3,1404.28 "/>
<polyline clip-path="url(#clip830)" style="stroke:#000000; stroke-linecap:round; stroke-linejoin:round; stroke-width:4; stroke-opacity:1; fill:none" points="1841.12,1423.18 1841.12,1404.28 "/>
<polyline clip-path="url(#clip830)" style="stroke:#000000; stroke-linecap:round; stroke-linejoin:round; stroke-width:4; stroke-opacity:1; fill:none" points="422.49,1423.18 422.49,1413.73 "/>
<polyline clip-path="url(#clip830)" style="stroke:#000000; stroke-linecap:round; stroke-linejoin:round; stroke-width:4; stroke-opacity:1; fill:none" points="522.628,1423.18 522.628,1413.73 "/>
<polyline clip-path="url(#clip830)" style="stroke:#000000; stroke-linecap:round; stroke-linejoin:round; stroke-width:4; stroke-opacity:1; fill:none" points="622.767,1423.18 622.767,1413.73 "/>
<polyline clip-path="url(#clip830)" style="stroke:#000000; stroke-linecap:round; stroke-linejoin:round; stroke-width:4; stroke-opacity:1; fill:none" points="722.905,1423.18 722.905,1413.73 "/>
<polyline clip-path="url(#clip830)" style="stroke:#000000; stroke-linecap:round; stroke-linejoin:round; stroke-width:4; stroke-opacity:1; fill:none" points="924.295,1423.18 924.295,1413.73 "/>
<polyline clip-path="url(#clip830)" style="stroke:#000000; stroke-linecap:round; stroke-linejoin:round; stroke-width:4; stroke-opacity:1; fill:none" points="1025.55,1423.18 1025.55,1413.73 "/>
<polyline clip-path="url(#clip830)" style="stroke:#000000; stroke-linecap:round; stroke-linejoin:round; stroke-width:4; stroke-opacity:1; fill:none" points="1126.8,1423.18 1126.8,1413.73 "/>
<polyline clip-path="url(#clip830)" style="stroke:#000000; stroke-linecap:round; stroke-linejoin:round; stroke-width:4; stroke-opacity:1; fill:none" points="1228.05,1423.18 1228.05,1413.73 "/>
<polyline clip-path="url(#clip830)" style="stroke:#000000; stroke-linecap:round; stroke-linejoin:round; stroke-width:4; stroke-opacity:1; fill:none" points="1431.66,1423.18 1431.66,1413.73 "/>
<polyline clip-path="url(#clip830)" style="stroke:#000000; stroke-linecap:round; stroke-linejoin:round; stroke-width:4; stroke-opacity:1; fill:none" points="1534.03,1423.18 1534.03,1413.73 "/>
<polyline clip-path="url(#clip830)" style="stroke:#000000; stroke-linecap:round; stroke-linejoin:round; stroke-width:4; stroke-opacity:1; fill:none" points="1636.39,1423.18 1636.39,1413.73 "/>
<polyline clip-path="url(#clip830)" style="stroke:#000000; stroke-linecap:round; stroke-linejoin:round; stroke-width:4; stroke-opacity:1; fill:none" points="1738.75,1423.18 1738.75,1413.73 "/>
<polyline clip-path="url(#clip830)" style="stroke:#000000; stroke-linecap:round; stroke-linejoin:round; stroke-width:4; stroke-opacity:1; fill:none" points="1944.62,1423.18 1944.62,1413.73 "/>
<polyline clip-path="url(#clip830)" style="stroke:#000000; stroke-linecap:round; stroke-linejoin:round; stroke-width:4; stroke-opacity:1; fill:none" points="2048.12,1423.18 2048.12,1413.73 "/>
<polyline clip-path="url(#clip830)" style="stroke:#000000; stroke-linecap:round; stroke-linejoin:round; stroke-width:4; stroke-opacity:1; fill:none" points="2151.62,1423.18 2151.62,1413.73 "/>
<polyline clip-path="url(#clip830)" style="stroke:#000000; stroke-linecap:round; stroke-linejoin:round; stroke-width:4; stroke-opacity:1; fill:none" points="2255.12,1423.18 2255.12,1413.73 "/>
<path clip-path="url(#clip830)" d="M194.146 1481.64 L210.465 1481.64 L210.465 1485.58 L188.521 1485.58 L188.521 1481.64 Q191.183 1478.89 195.766 1474.26 Q200.373 1469.61 201.553 1468.27 Q203.799 1465.74 204.678 1464.01 Q205.581 1462.25 205.581 1460.56 Q205.581 1457.8 203.637 1456.07 Q201.715 1454.33 198.614 1454.33 Q196.415 1454.33 193.961 1455.09 Q191.53 1455.86 188.753 1457.41 L188.753 1452.69 Q191.577 1451.55 194.03 1450.97 Q196.484 1450.39 198.521 1450.39 Q203.891 1450.39 207.086 1453.08 Q210.28 1455.77 210.28 1460.26 Q210.28 1462.39 209.47 1464.31 Q208.683 1466.2 206.576 1468.8 Q205.998 1469.47 202.896 1472.69 Q199.794 1475.88 194.146 1481.64 Z" fill="#000000" fill-rule="nonzero" fill-opacity="1" /><path clip-path="url(#clip830)" d="M230.28 1454.1 Q226.669 1454.1 224.84 1457.66 Q223.035 1461.2 223.035 1468.33 Q223.035 1475.44 224.84 1479.01 Q226.669 1482.55 230.28 1482.55 Q233.914 1482.55 235.72 1479.01 Q237.549 1475.44 237.549 1468.33 Q237.549 1461.2 235.72 1457.66 Q233.914 1454.1 230.28 1454.1 M230.28 1450.39 Q236.09 1450.39 239.146 1455 Q242.224 1459.58 242.224 1468.33 Q242.224 1477.06 239.146 1481.67 Q236.09 1486.25 230.28 1486.25 Q224.47 1486.25 221.391 1481.67 Q218.336 1477.06 218.336 1468.33 Q218.336 1459.58 221.391 1455 Q224.47 1450.39 230.28 1450.39 Z" fill="#000000" fill-rule="nonzero" fill-opacity="1" /><path clip-path="url(#clip830)" d="M254.47 1481.64 L270.789 1481.64 L270.789 1485.58 L248.845 1485.58 L248.845 1481.64 Q251.507 1478.89 256.09 1474.26 Q260.697 1469.61 261.877 1468.27 Q264.122 1465.74 265.002 1464.01 Q265.905 1462.25 265.905 1460.56 Q265.905 1457.8 263.96 1456.07 Q262.039 1454.33 258.937 1454.33 Q256.738 1454.33 254.285 1455.09 Q251.854 1455.86 249.076 1457.41 L249.076 1452.69 Q251.9 1451.55 254.354 1450.97 Q256.808 1450.39 258.845 1450.39 Q264.215 1450.39 267.409 1453.08 Q270.604 1455.77 270.604 1460.26 Q270.604 1462.39 269.794 1464.31 Q269.007 1466.2 266.9 1468.8 Q266.322 1469.47 263.22 1472.69 Q260.118 1475.88 254.47 1481.64 Z" fill="#000000" fill-rule="nonzero" fill-opacity="1" /><path clip-path="url(#clip830)" d="M281.414 1481.64 L289.053 1481.64 L289.053 1455.28 L280.743 1456.95 L280.743 1452.69 L289.007 1451.02 L293.683 1451.02 L293.683 1481.64 L301.321 1481.64 L301.321 1485.58 L281.414 1485.58 L281.414 1481.64 Z" fill="#000000" fill-rule="nonzero" fill-opacity="1" /><path clip-path="url(#clip830)" d="M308.011 1470.7 L320.488 1470.7 L320.488 1474.49 L308.011 1474.49 L308.011 1470.7 Z" fill="#000000" fill-rule="nonzero" fill-opacity="1" /><path clip-path="url(#clip830)" d="M337.872 1454.1 Q334.261 1454.1 332.432 1457.66 Q330.627 1461.2 330.627 1468.33 Q330.627 1475.44 332.432 1479.01 Q334.261 1482.55 337.872 1482.55 Q341.506 1482.55 343.312 1479.01 Q345.141 1475.44 345.141 1468.33 Q345.141 1461.2 343.312 1457.66 Q341.506 1454.1 337.872 1454.1 M337.872 1450.39 Q343.682 1450.39 346.738 1455 Q349.816 1459.58 349.816 1468.33 Q349.816 1477.06 346.738 1481.67 Q343.682 1486.25 337.872 1486.25 Q332.062 1486.25 328.983 1481.67 Q325.928 1477.06 325.928 1468.33 Q325.928 1459.58 328.983 1455 Q332.062 1450.39 337.872 1450.39 Z" fill="#000000" fill-rule="nonzero" fill-opacity="1" /><path clip-path="url(#clip830)" d="M358.844 1481.64 L366.483 1481.64 L366.483 1455.28 L358.173 1456.95 L358.173 1452.69 L366.437 1451.02 L371.113 1451.02 L371.113 1481.64 L378.751 1481.64 L378.751 1485.58 L358.844 1485.58 L358.844 1481.64 Z" fill="#000000" fill-rule="nonzero" fill-opacity="1" /><path clip-path="url(#clip830)" d="M385.441 1470.7 L397.918 1470.7 L397.918 1474.49 L385.441 1474.49 L385.441 1470.7 Z" fill="#000000" fill-rule="nonzero" fill-opacity="1" /><path clip-path="url(#clip830)" d="M415.302 1454.1 Q411.691 1454.1 409.862 1457.66 Q408.057 1461.2 408.057 1468.33 Q408.057 1475.44 409.862 1479.01 Q411.691 1482.55 415.302 1482.55 Q418.936 1482.55 420.742 1479.01 Q422.571 1475.44 422.571 1468.33 Q422.571 1461.2 420.742 1457.66 Q418.936 1454.1 415.302 1454.1 M415.302 1450.39 Q421.112 1450.39 424.168 1455 Q427.247 1459.58 427.247 1468.33 Q427.247 1477.06 424.168 1481.67 Q421.112 1486.25 415.302 1486.25 Q409.492 1486.25 406.413 1481.67 Q403.358 1477.06 403.358 1468.33 Q403.358 1459.58 406.413 1455 Q409.492 1450.39 415.302 1450.39 Z" fill="#000000" fill-rule="nonzero" fill-opacity="1" /><path clip-path="url(#clip830)" d="M436.274 1481.64 L443.913 1481.64 L443.913 1455.28 L435.603 1456.95 L435.603 1452.69 L443.867 1451.02 L448.543 1451.02 L448.543 1481.64 L456.182 1481.64 L456.182 1485.58 L436.274 1485.58 L436.274 1481.64 Z" fill="#000000" fill-rule="nonzero" fill-opacity="1" /><path clip-path="url(#clip830)" d="M694.838 1481.64 L711.158 1481.64 L711.158 1485.58 L689.213 1485.58 L689.213 1481.64 Q691.875 1478.89 696.459 1474.26 Q701.065 1469.61 702.246 1468.27 Q704.491 1465.74 705.371 1464.01 Q706.273 1462.25 706.273 1460.56 Q706.273 1457.8 704.329 1456.07 Q702.408 1454.33 699.306 1454.33 Q697.107 1454.33 694.653 1455.09 Q692.223 1455.86 689.445 1457.41 L689.445 1452.69 Q692.269 1451.55 694.723 1450.97 Q697.176 1450.39 699.213 1450.39 Q704.584 1450.39 707.778 1453.08 Q710.972 1455.77 710.972 1460.26 Q710.972 1462.39 710.162 1464.31 Q709.375 1466.2 707.269 1468.8 Q706.69 1469.47 703.588 1472.69 Q700.486 1475.88 694.838 1481.64 Z" fill="#000000" fill-rule="nonzero" fill-opacity="1" /><path clip-path="url(#clip830)" d="M730.972 1454.1 Q727.361 1454.1 725.533 1457.66 Q723.727 1461.2 723.727 1468.33 Q723.727 1475.44 725.533 1479.01 Q727.361 1482.55 730.972 1482.55 Q734.607 1482.55 736.412 1479.01 Q738.241 1475.44 738.241 1468.33 Q738.241 1461.2 736.412 1457.66 Q734.607 1454.1 730.972 1454.1 M730.972 1450.39 Q736.783 1450.39 739.838 1455 Q742.917 1459.58 742.917 1468.33 Q742.917 1477.06 739.838 1481.67 Q736.783 1486.25 730.972 1486.25 Q725.162 1486.25 722.084 1481.67 Q719.028 1477.06 719.028 1468.33 Q719.028 1459.58 722.084 1455 Q725.162 1450.39 730.972 1450.39 Z" fill="#000000" fill-rule="nonzero" fill-opacity="1" /><path clip-path="url(#clip830)" d="M755.162 1481.64 L771.481 1481.64 L771.481 1485.58 L749.537 1485.58 L749.537 1481.64 Q752.199 1478.89 756.782 1474.26 Q761.389 1469.61 762.569 1468.27 Q764.815 1465.74 765.694 1464.01 Q766.597 1462.25 766.597 1460.56 Q766.597 1457.8 764.653 1456.07 Q762.731 1454.33 759.63 1454.33 Q757.431 1454.33 754.977 1455.09 Q752.546 1455.86 749.769 1457.41 L749.769 1452.69 Q752.593 1451.55 755.046 1450.97 Q757.5 1450.39 759.537 1450.39 Q764.907 1450.39 768.102 1453.08 Q771.296 1455.77 771.296 1460.26 Q771.296 1462.39 770.486 1464.31 Q769.699 1466.2 767.593 1468.8 Q767.014 1469.47 763.912 1472.69 Q760.81 1475.88 755.162 1481.64 Z" fill="#000000" fill-rule="nonzero" fill-opacity="1" /><path clip-path="url(#clip830)" d="M782.106 1481.64 L789.745 1481.64 L789.745 1455.28 L781.435 1456.95 L781.435 1452.69 L789.699 1451.02 L794.375 1451.02 L794.375 1481.64 L802.014 1481.64 L802.014 1485.58 L782.106 1485.58 L782.106 1481.64 Z" fill="#000000" fill-rule="nonzero" fill-opacity="1" /><path clip-path="url(#clip830)" d="M808.703 1470.7 L821.18 1470.7 L821.18 1474.49 L808.703 1474.49 L808.703 1470.7 Z" fill="#000000" fill-rule="nonzero" fill-opacity="1" /><path clip-path="url(#clip830)" d="M838.564 1454.1 Q834.953 1454.1 833.125 1457.66 Q831.319 1461.2 831.319 1468.33 Q831.319 1475.44 833.125 1479.01 Q834.953 1482.55 838.564 1482.55 Q842.199 1482.55 844.004 1479.01 Q845.833 1475.44 845.833 1468.33 Q845.833 1461.2 844.004 1457.66 Q842.199 1454.1 838.564 1454.1 M838.564 1450.39 Q844.375 1450.39 847.43 1455 Q850.509 1459.58 850.509 1468.33 Q850.509 1477.06 847.43 1481.67 Q844.375 1486.25 838.564 1486.25 Q832.754 1486.25 829.676 1481.67 Q826.62 1477.06 826.62 1468.33 Q826.62 1459.58 829.676 1455 Q832.754 1450.39 838.564 1450.39 Z" fill="#000000" fill-rule="nonzero" fill-opacity="1" /><path clip-path="url(#clip830)" d="M871.573 1455.09 L859.768 1473.54 L871.573 1473.54 L871.573 1455.09 M870.347 1451.02 L876.226 1451.02 L876.226 1473.54 L881.157 1473.54 L881.157 1477.43 L876.226 1477.43 L876.226 1485.58 L871.573 1485.58 L871.573 1477.43 L855.972 1477.43 L855.972 1472.92 L870.347 1451.02 Z" fill="#000000" fill-rule="nonzero" fill-opacity="1" /><path clip-path="url(#clip830)" d="M886.134 1470.7 L898.61 1470.7 L898.61 1474.49 L886.134 1474.49 L886.134 1470.7 Z" fill="#000000" fill-rule="nonzero" fill-opacity="1" /><path clip-path="url(#clip830)" d="M915.995 1454.1 Q912.383 1454.1 910.555 1457.66 Q908.749 1461.2 908.749 1468.33 Q908.749 1475.44 910.555 1479.01 Q912.383 1482.55 915.995 1482.55 Q919.629 1482.55 921.434 1479.01 Q923.263 1475.44 923.263 1468.33 Q923.263 1461.2 921.434 1457.66 Q919.629 1454.1 915.995 1454.1 M915.995 1450.39 Q921.805 1450.39 924.86 1455 Q927.939 1459.58 927.939 1468.33 Q927.939 1477.06 924.86 1481.67 Q921.805 1486.25 915.995 1486.25 Q910.184 1486.25 907.106 1481.67 Q904.05 1477.06 904.05 1468.33 Q904.05 1459.58 907.106 1455 Q910.184 1450.39 915.995 1450.39 Z" fill="#000000" fill-rule="nonzero" fill-opacity="1" /><path clip-path="url(#clip830)" d="M936.967 1481.64 L944.605 1481.64 L944.605 1455.28 L936.295 1456.95 L936.295 1452.69 L944.559 1451.02 L949.235 1451.02 L949.235 1481.64 L956.874 1481.64 L956.874 1485.58 L936.967 1485.58 L936.967 1481.64 Z" fill="#000000" fill-rule="nonzero" fill-opacity="1" /><path clip-path="url(#clip830)" d="M1201.09 1481.64 L1217.41 1481.64 L1217.41 1485.58 L1195.47 1485.58 L1195.47 1481.64 Q1198.13 1478.89 1202.71 1474.26 Q1207.32 1469.61 1208.5 1468.27 Q1210.75 1465.74 1211.63 1464.01 Q1212.53 1462.25 1212.53 1460.56 Q1212.53 1457.8 1210.58 1456.07 Q1208.66 1454.33 1205.56 1454.33 Q1203.36 1454.33 1200.91 1455.09 Q1198.48 1455.86 1195.7 1457.41 L1195.7 1452.69 Q1198.52 1451.55 1200.98 1450.97 Q1203.43 1450.39 1205.47 1450.39 Q1210.84 1450.39 1214.03 1453.08 Q1217.23 1455.77 1217.23 1460.26 Q1217.23 1462.39 1216.42 1464.31 Q1215.63 1466.2 1213.52 1468.8 Q1212.95 1469.47 1209.84 1472.69 Q1206.74 1475.88 1201.09 1481.64 Z" fill="#000000" fill-rule="nonzero" fill-opacity="1" /><path clip-path="url(#clip830)" d="M1237.23 1454.1 Q1233.62 1454.1 1231.79 1457.66 Q1229.98 1461.2 1229.98 1468.33 Q1229.98 1475.44 1231.79 1479.01 Q1233.62 1482.55 1237.23 1482.55 Q1240.86 1482.55 1242.67 1479.01 Q1244.5 1475.44 1244.5 1468.33 Q1244.5 1461.2 1242.67 1457.66 Q1240.86 1454.1 1237.23 1454.1 M1237.23 1450.39 Q1243.04 1450.39 1246.09 1455 Q1249.17 1459.58 1249.17 1468.33 Q1249.17 1477.06 1246.09 1481.67 Q1243.04 1486.25 1237.23 1486.25 Q1231.42 1486.25 1228.34 1481.67 Q1225.28 1477.06 1225.28 1468.33 Q1225.28 1459.58 1228.34 1455 Q1231.42 1450.39 1237.23 1450.39 Z" fill="#000000" fill-rule="nonzero" fill-opacity="1" /><path clip-path="url(#clip830)" d="M1261.42 1481.64 L1277.74 1481.64 L1277.74 1485.58 L1255.79 1485.58 L1255.79 1481.64 Q1258.45 1478.89 1263.04 1474.26 Q1267.64 1469.61 1268.82 1468.27 Q1271.07 1465.74 1271.95 1464.01 Q1272.85 1462.25 1272.85 1460.56 Q1272.85 1457.8 1270.91 1456.07 Q1268.99 1454.33 1265.89 1454.33 Q1263.69 1454.33 1261.23 1455.09 Q1258.8 1455.86 1256.02 1457.41 L1256.02 1452.69 Q1258.85 1451.55 1261.3 1450.97 Q1263.76 1450.39 1265.79 1450.39 Q1271.16 1450.39 1274.36 1453.08 Q1277.55 1455.77 1277.55 1460.26 Q1277.55 1462.39 1276.74 1464.31 Q1275.95 1466.2 1273.85 1468.8 Q1273.27 1469.47 1270.17 1472.69 Q1267.07 1475.88 1261.42 1481.64 Z" fill="#000000" fill-rule="nonzero" fill-opacity="1" /><path clip-path="url(#clip830)" d="M1288.36 1481.64 L1296 1481.64 L1296 1455.28 L1287.69 1456.95 L1287.69 1452.69 L1295.95 1451.02 L1300.63 1451.02 L1300.63 1481.64 L1308.27 1481.64 L1308.27 1485.58 L1288.36 1485.58 L1288.36 1481.64 Z" fill="#000000" fill-rule="nonzero" fill-opacity="1" /><path clip-path="url(#clip830)" d="M1314.96 1470.7 L1327.44 1470.7 L1327.44 1474.49 L1314.96 1474.49 L1314.96 1470.7 Z" fill="#000000" fill-rule="nonzero" fill-opacity="1" /><path clip-path="url(#clip830)" d="M1344.82 1454.1 Q1341.21 1454.1 1339.38 1457.66 Q1337.57 1461.2 1337.57 1468.33 Q1337.57 1475.44 1339.38 1479.01 Q1341.21 1482.55 1344.82 1482.55 Q1348.45 1482.55 1350.26 1479.01 Q1352.09 1475.44 1352.09 1468.33 Q1352.09 1461.2 1350.26 1457.66 Q1348.45 1454.1 1344.82 1454.1 M1344.82 1450.39 Q1350.63 1450.39 1353.69 1455 Q1356.76 1459.58 1356.76 1468.33 Q1356.76 1477.06 1353.69 1481.67 Q1350.63 1486.25 1344.82 1486.25 Q1339.01 1486.25 1335.93 1481.67 Q1332.88 1477.06 1332.88 1468.33 Q1332.88 1459.58 1335.93 1455 Q1339.01 1450.39 1344.82 1450.39 Z" fill="#000000" fill-rule="nonzero" fill-opacity="1" /><path clip-path="url(#clip830)" d="M1363.8 1451.02 L1386.02 1451.02 L1386.02 1453.01 L1373.48 1485.58 L1368.59 1485.58 L1380.4 1454.96 L1363.8 1454.96 L1363.8 1451.02 Z" fill="#000000" fill-rule="nonzero" fill-opacity="1" /><path clip-path="url(#clip830)" d="M1392.39 1470.7 L1404.87 1470.7 L1404.87 1474.49 L1392.39 1474.49 L1392.39 1470.7 Z" fill="#000000" fill-rule="nonzero" fill-opacity="1" /><path clip-path="url(#clip830)" d="M1422.25 1454.1 Q1418.64 1454.1 1416.81 1457.66 Q1415 1461.2 1415 1468.33 Q1415 1475.44 1416.81 1479.01 Q1418.64 1482.55 1422.25 1482.55 Q1425.88 1482.55 1427.69 1479.01 Q1429.52 1475.44 1429.52 1468.33 Q1429.52 1461.2 1427.69 1457.66 Q1425.88 1454.1 1422.25 1454.1 M1422.25 1450.39 Q1428.06 1450.39 1431.12 1455 Q1434.19 1459.58 1434.19 1468.33 Q1434.19 1477.06 1431.12 1481.67 Q1428.06 1486.25 1422.25 1486.25 Q1416.44 1486.25 1413.36 1481.67 Q1410.31 1477.06 1410.31 1468.33 Q1410.31 1459.58 1413.36 1455 Q1416.44 1450.39 1422.25 1450.39 Z" fill="#000000" fill-rule="nonzero" fill-opacity="1" /><path clip-path="url(#clip830)" d="M1443.22 1481.64 L1450.86 1481.64 L1450.86 1455.28 L1442.55 1456.95 L1442.55 1452.69 L1450.81 1451.02 L1455.49 1451.02 L1455.49 1481.64 L1463.13 1481.64 L1463.13 1485.58 L1443.22 1485.58 L1443.22 1481.64 Z" fill="#000000" fill-rule="nonzero" fill-opacity="1" /><path clip-path="url(#clip830)" d="M1712.91 1481.64 L1729.23 1481.64 L1729.23 1485.58 L1707.29 1485.58 L1707.29 1481.64 Q1709.95 1478.89 1714.53 1474.26 Q1719.14 1469.61 1720.32 1468.27 Q1722.57 1465.74 1723.44 1464.01 Q1724.35 1462.25 1724.35 1460.56 Q1724.35 1457.8 1722.4 1456.07 Q1720.48 1454.33 1717.38 1454.33 Q1715.18 1454.33 1712.73 1455.09 Q1710.3 1455.86 1707.52 1457.41 L1707.52 1452.69 Q1710.34 1451.55 1712.8 1450.97 Q1715.25 1450.39 1717.29 1450.39 Q1722.66 1450.39 1725.85 1453.08 Q1729.05 1455.77 1729.05 1460.26 Q1729.05 1462.39 1728.24 1464.31 Q1727.45 1466.2 1725.34 1468.8 Q1724.76 1469.47 1721.66 1472.69 Q1718.56 1475.88 1712.91 1481.64 Z" fill="#000000" fill-rule="nonzero" fill-opacity="1" /><path clip-path="url(#clip830)" d="M1749.05 1454.1 Q1745.44 1454.1 1743.61 1457.66 Q1741.8 1461.2 1741.8 1468.33 Q1741.8 1475.44 1743.61 1479.01 Q1745.44 1482.55 1749.05 1482.55 Q1752.68 1482.55 1754.49 1479.01 Q1756.32 1475.44 1756.32 1468.33 Q1756.32 1461.2 1754.49 1457.66 Q1752.68 1454.1 1749.05 1454.1 M1749.05 1450.39 Q1754.86 1450.39 1757.91 1455 Q1760.99 1459.58 1760.99 1468.33 Q1760.99 1477.06 1757.91 1481.67 Q1754.86 1486.25 1749.05 1486.25 Q1743.24 1486.25 1740.16 1481.67 Q1737.1 1477.06 1737.1 1468.33 Q1737.1 1459.58 1740.16 1455 Q1743.24 1450.39 1749.05 1450.39 Z" fill="#000000" fill-rule="nonzero" fill-opacity="1" /><path clip-path="url(#clip830)" d="M1773.24 1481.64 L1789.56 1481.64 L1789.56 1485.58 L1767.61 1485.58 L1767.61 1481.64 Q1770.27 1478.89 1774.86 1474.26 Q1779.46 1469.61 1780.64 1468.27 Q1782.89 1465.74 1783.77 1464.01 Q1784.67 1462.25 1784.67 1460.56 Q1784.67 1457.8 1782.73 1456.07 Q1780.81 1454.33 1777.7 1454.33 Q1775.5 1454.33 1773.05 1455.09 Q1770.62 1455.86 1767.84 1457.41 L1767.84 1452.69 Q1770.67 1451.55 1773.12 1450.97 Q1775.57 1450.39 1777.61 1450.39 Q1782.98 1450.39 1786.18 1453.08 Q1789.37 1455.77 1789.37 1460.26 Q1789.37 1462.39 1788.56 1464.31 Q1787.77 1466.2 1785.67 1468.8 Q1785.09 1469.47 1781.99 1472.69 Q1778.88 1475.88 1773.24 1481.64 Z" fill="#000000" fill-rule="nonzero" fill-opacity="1" /><path clip-path="url(#clip830)" d="M1800.18 1481.64 L1807.82 1481.64 L1807.82 1455.28 L1799.51 1456.95 L1799.51 1452.69 L1807.77 1451.02 L1812.45 1451.02 L1812.45 1481.64 L1820.09 1481.64 L1820.09 1485.58 L1800.18 1485.58 L1800.18 1481.64 Z" fill="#000000" fill-rule="nonzero" fill-opacity="1" /><path clip-path="url(#clip830)" d="M1826.78 1470.7 L1839.25 1470.7 L1839.25 1474.49 L1826.78 1474.49 L1826.78 1470.7 Z" fill="#000000" fill-rule="nonzero" fill-opacity="1" /><path clip-path="url(#clip830)" d="M1847.45 1481.64 L1855.09 1481.64 L1855.09 1455.28 L1846.78 1456.95 L1846.78 1452.69 L1855.04 1451.02 L1859.72 1451.02 L1859.72 1481.64 L1867.36 1481.64 L1867.36 1485.58 L1847.45 1485.58 L1847.45 1481.64 Z" fill="#000000" fill-rule="nonzero" fill-opacity="1" /><path clip-path="url(#clip830)" d="M1886.8 1454.1 Q1883.19 1454.1 1881.36 1457.66 Q1879.56 1461.2 1879.56 1468.33 Q1879.56 1475.44 1881.36 1479.01 Q1883.19 1482.55 1886.8 1482.55 Q1890.43 1482.55 1892.24 1479.01 Q1894.07 1475.44 1894.07 1468.33 Q1894.07 1461.2 1892.24 1457.66 Q1890.43 1454.1 1886.8 1454.1 M1886.8 1450.39 Q1892.61 1450.39 1895.67 1455 Q1898.74 1459.58 1898.74 1468.33 Q1898.74 1477.06 1895.67 1481.67 Q1892.61 1486.25 1886.8 1486.25 Q1880.99 1486.25 1877.91 1481.67 Q1874.86 1477.06 1874.86 1468.33 Q1874.86 1459.58 1877.91 1455 Q1880.99 1450.39 1886.8 1450.39 Z" fill="#000000" fill-rule="nonzero" fill-opacity="1" /><path clip-path="url(#clip830)" d="M1904.21 1470.7 L1916.68 1470.7 L1916.68 1474.49 L1904.21 1474.49 L1904.21 1470.7 Z" fill="#000000" fill-rule="nonzero" fill-opacity="1" /><path clip-path="url(#clip830)" d="M1934.07 1454.1 Q1930.46 1454.1 1928.63 1457.66 Q1926.82 1461.2 1926.82 1468.33 Q1926.82 1475.44 1928.63 1479.01 Q1930.46 1482.55 1934.07 1482.55 Q1937.7 1482.55 1939.51 1479.01 Q1941.34 1475.44 1941.34 1468.33 Q1941.34 1461.2 1939.51 1457.66 Q1937.7 1454.1 1934.07 1454.1 M1934.07 1450.39 Q1939.88 1450.39 1942.93 1455 Q1946.01 1459.58 1946.01 1468.33 Q1946.01 1477.06 1942.93 1481.67 Q1939.88 1486.25 1934.07 1486.25 Q1928.26 1486.25 1925.18 1481.67 Q1922.12 1477.06 1922.12 1468.33 Q1922.12 1459.58 1925.18 1455 Q1928.26 1450.39 1934.07 1450.39 Z" fill="#000000" fill-rule="nonzero" fill-opacity="1" /><path clip-path="url(#clip830)" d="M1955.04 1481.64 L1962.68 1481.64 L1962.68 1455.28 L1954.37 1456.95 L1954.37 1452.69 L1962.63 1451.02 L1967.31 1451.02 L1967.31 1481.64 L1974.95 1481.64 L1974.95 1485.58 L1955.04 1485.58 L1955.04 1481.64 Z" fill="#000000" fill-rule="nonzero" fill-opacity="1" /><path clip-path="url(#clip830)" d="M1273.87 1537.81 L1273.87 1518.52 L1279.73 1518.52 L1279.73 1568.04 L1273.87 1568.04 L1273.87 1562.7 Q1272.02 1565.88 1269.19 1567.44 Q1266.39 1568.97 1262.44 1568.97 Q1255.98 1568.97 1251.91 1563.81 Q1247.87 1558.65 1247.87 1550.25 Q1247.87 1541.85 1251.91 1536.69 Q1255.98 1531.54 1262.44 1531.54 Q1266.39 1531.54 1269.19 1533.1 Q1272.02 1534.62 1273.87 1537.81 M1253.91 1550.25 Q1253.91 1556.71 1256.56 1560.4 Q1259.23 1564.07 1263.88 1564.07 Q1268.52 1564.07 1271.2 1560.4 Q1273.87 1556.71 1273.87 1550.25 Q1273.87 1543.79 1271.2 1540.13 Q1268.52 1536.44 1263.88 1536.44 Q1259.23 1536.44 1256.56 1540.13 Q1253.91 1543.79 1253.91 1550.25 Z" fill="#000000" fill-rule="nonzero" fill-opacity="1" /><path clip-path="url(#clip830)" d="M1307.99 1550.12 Q1300.89 1550.12 1298.15 1551.75 Q1295.42 1553.37 1295.42 1557.29 Q1295.42 1560.4 1297.45 1562.25 Q1299.52 1564.07 1303.06 1564.07 Q1307.93 1564.07 1310.85 1560.63 Q1313.81 1557.16 1313.81 1551.43 L1313.81 1550.12 L1307.99 1550.12 M1319.67 1547.71 L1319.67 1568.04 L1313.81 1568.04 L1313.81 1562.63 Q1311.81 1565.88 1308.82 1567.44 Q1305.83 1568.97 1301.5 1568.97 Q1296.02 1568.97 1292.78 1565.91 Q1289.56 1562.82 1289.56 1557.67 Q1289.56 1551.65 1293.57 1548.6 Q1297.61 1545.54 1305.6 1545.54 L1313.81 1545.54 L1313.81 1544.97 Q1313.81 1540.93 1311.14 1538.73 Q1308.5 1536.5 1303.69 1536.5 Q1300.64 1536.5 1297.74 1537.23 Q1294.84 1537.97 1292.17 1539.43 L1292.17 1534.02 Q1295.39 1532.78 1298.41 1532.17 Q1301.43 1531.54 1304.3 1531.54 Q1312.03 1531.54 1315.85 1535.55 Q1319.67 1539.56 1319.67 1547.71 Z" fill="#000000" fill-rule="nonzero" fill-opacity="1" /><path clip-path="url(#clip830)" d="M1337.53 1522.27 L1337.53 1532.4 L1349.59 1532.4 L1349.59 1536.95 L1337.53 1536.95 L1337.53 1556.3 Q1337.53 1560.66 1338.7 1561.9 Q1339.91 1563.14 1343.57 1563.14 L1349.59 1563.14 L1349.59 1568.04 L1343.57 1568.04 Q1336.79 1568.04 1334.22 1565.53 Q1331.64 1562.98 1331.64 1556.3 L1331.64 1536.95 L1327.34 1536.95 L1327.34 1532.4 L1331.64 1532.4 L1331.64 1522.27 L1337.53 1522.27 Z" fill="#000000" fill-rule="nonzero" fill-opacity="1" /><path clip-path="url(#clip830)" d="M1387.78 1548.76 L1387.78 1551.62 L1360.86 1551.62 Q1361.24 1557.67 1364.49 1560.85 Q1367.76 1564 1373.59 1564 Q1376.96 1564 1380.11 1563.17 Q1383.3 1562.35 1386.42 1560.69 L1386.42 1566.23 Q1383.26 1567.57 1379.95 1568.27 Q1376.64 1568.97 1373.24 1568.97 Q1364.71 1568.97 1359.71 1564 Q1354.75 1559.04 1354.75 1550.57 Q1354.75 1541.82 1359.46 1536.69 Q1364.2 1531.54 1372.22 1531.54 Q1379.41 1531.54 1383.58 1536.18 Q1387.78 1540.8 1387.78 1548.76 M1381.93 1547.04 Q1381.86 1542.23 1379.22 1539.37 Q1376.61 1536.5 1372.28 1536.5 Q1367.38 1536.5 1364.42 1539.27 Q1361.49 1542.04 1361.05 1547.07 L1381.93 1547.04 Z" fill="#000000" fill-rule="nonzero" fill-opacity="1" /><polyline clip-path="url(#clip832)" style="stroke:#000000; stroke-linecap:round; stroke-linejoin:round; stroke-width:2; stroke-opacity:0.1; fill:none" points="282.894,1323.17 2352.76,1323.17 "/>
<polyline clip-path="url(#clip832)" style="stroke:#000000; stroke-linecap:round; stroke-linejoin:round; stroke-width:2; stroke-opacity:0.1; fill:none" points="282.894,600.412 2352.76,600.412 "/>
<polyline clip-path="url(#clip830)" style="stroke:#000000; stroke-linecap:round; stroke-linejoin:round; stroke-width:4; stroke-opacity:1; fill:none" points="282.894,1423.18 282.894,47.2441 "/>
<polyline clip-path="url(#clip830)" style="stroke:#000000; stroke-linecap:round; stroke-linejoin:round; stroke-width:4; stroke-opacity:1; fill:none" points="282.894,1323.17 301.792,1323.17 "/>
<polyline clip-path="url(#clip830)" style="stroke:#000000; stroke-linecap:round; stroke-linejoin:round; stroke-width:4; stroke-opacity:1; fill:none" points="282.894,600.412 301.792,600.412 "/>
<path clip-path="url(#clip830)" d="M114.931 1342.96 L122.57 1342.96 L122.57 1316.6 L114.26 1318.27 L114.26 1314.01 L122.524 1312.34 L127.2 1312.34 L127.2 1342.96 L134.839 1342.96 L134.839 1346.9 L114.931 1346.9 L114.931 1342.96 Z" fill="#000000" fill-rule="nonzero" fill-opacity="1" /><path clip-path="url(#clip830)" d="M154.283 1315.42 Q150.672 1315.42 148.843 1318.98 Q147.038 1322.53 147.038 1329.65 Q147.038 1336.76 148.843 1340.33 Q150.672 1343.87 154.283 1343.87 Q157.917 1343.87 159.723 1340.33 Q161.552 1336.76 161.552 1329.65 Q161.552 1322.53 159.723 1318.98 Q157.917 1315.42 154.283 1315.42 M154.283 1311.71 Q160.093 1311.71 163.149 1316.32 Q166.227 1320.9 166.227 1329.65 Q166.227 1338.38 163.149 1342.99 Q160.093 1347.57 154.283 1347.57 Q148.473 1347.57 145.394 1342.99 Q142.339 1338.38 142.339 1329.65 Q142.339 1320.9 145.394 1316.32 Q148.473 1311.71 154.283 1311.71 Z" fill="#000000" fill-rule="nonzero" fill-opacity="1" /><path clip-path="url(#clip830)" d="M175.932 1293.91 Q172.998 1293.91 171.512 1296.81 Q170.045 1299.68 170.045 1305.48 Q170.045 1311.25 171.512 1314.15 Q172.998 1317.03 175.932 1317.03 Q178.885 1317.03 180.352 1314.15 Q181.838 1311.25 181.838 1305.48 Q181.838 1299.68 180.352 1296.81 Q178.885 1293.91 175.932 1293.91 M175.932 1290.9 Q180.653 1290.9 183.136 1294.64 Q185.637 1298.37 185.637 1305.48 Q185.637 1312.57 183.136 1316.31 Q180.653 1320.04 175.932 1320.04 Q171.212 1320.04 168.71 1316.31 Q166.227 1312.57 166.227 1305.48 Q166.227 1298.37 168.71 1294.64 Q171.212 1290.9 175.932 1290.9 Z" fill="#000000" fill-rule="nonzero" fill-opacity="1" /><path clip-path="url(#clip830)" d="M192.314 1314.71 L196.282 1314.71 L196.282 1319.49 L192.314 1319.49 L192.314 1314.71 Z" fill="#000000" fill-rule="nonzero" fill-opacity="1" /><path clip-path="url(#clip830)" d="M212.683 1293.91 Q209.749 1293.91 208.263 1296.81 Q206.796 1299.68 206.796 1305.48 Q206.796 1311.25 208.263 1314.15 Q209.749 1317.03 212.683 1317.03 Q215.635 1317.03 217.102 1314.15 Q218.588 1311.25 218.588 1305.48 Q218.588 1299.68 217.102 1296.81 Q215.635 1293.91 212.683 1293.91 M212.683 1290.9 Q217.403 1290.9 219.886 1294.64 Q222.387 1298.37 222.387 1305.48 Q222.387 1312.57 219.886 1316.31 Q217.403 1320.04 212.683 1320.04 Q207.962 1320.04 205.46 1316.31 Q202.978 1312.57 202.978 1305.48 Q202.978 1298.37 205.46 1294.64 Q207.962 1290.9 212.683 1290.9 Z" fill="#000000" fill-rule="nonzero" fill-opacity="1" /><path clip-path="url(#clip830)" d="M237.189 1293.91 Q234.255 1293.91 232.769 1296.81 Q231.302 1299.68 231.302 1305.48 Q231.302 1311.25 232.769 1314.15 Q234.255 1317.03 237.189 1317.03 Q240.142 1317.03 241.609 1314.15 Q243.095 1311.25 243.095 1305.48 Q243.095 1299.68 241.609 1296.81 Q240.142 1293.91 237.189 1293.91 M237.189 1290.9 Q241.91 1290.9 244.393 1294.64 Q246.894 1298.37 246.894 1305.48 Q246.894 1312.57 244.393 1316.31 Q241.91 1320.04 237.189 1320.04 Q232.468 1320.04 229.967 1316.31 Q227.484 1312.57 227.484 1305.48 Q227.484 1298.37 229.967 1294.64 Q232.468 1290.9 237.189 1290.9 Z" fill="#000000" fill-rule="nonzero" fill-opacity="1" /><path clip-path="url(#clip830)" d="M115.74 620.205 L123.379 620.205 L123.379 593.839 L115.069 595.506 L115.069 591.247 L123.333 589.58 L128.009 589.58 L128.009 620.205 L135.647 620.205 L135.647 624.14 L115.74 624.14 L115.74 620.205 Z" fill="#000000" fill-rule="nonzero" fill-opacity="1" /><path clip-path="url(#clip830)" d="M155.092 592.659 Q151.481 592.659 149.652 596.224 Q147.846 599.765 147.846 606.895 Q147.846 614.001 149.652 617.566 Q151.481 621.108 155.092 621.108 Q158.726 621.108 160.532 617.566 Q162.36 614.001 162.36 606.895 Q162.36 599.765 160.532 596.224 Q158.726 592.659 155.092 592.659 M155.092 588.955 Q160.902 588.955 163.958 593.562 Q167.036 598.145 167.036 606.895 Q167.036 615.622 163.958 620.228 Q160.902 624.811 155.092 624.811 Q149.282 624.811 146.203 620.228 Q143.147 615.622 143.147 606.895 Q143.147 598.145 146.203 593.562 Q149.282 588.955 155.092 588.955 Z" fill="#000000" fill-rule="nonzero" fill-opacity="1" /><path clip-path="url(#clip830)" d="M176.741 571.151 Q173.807 571.151 172.321 574.047 Q170.854 576.925 170.854 582.718 Q170.854 588.492 172.321 591.388 Q173.807 594.266 176.741 594.266 Q179.694 594.266 181.161 591.388 Q182.647 588.492 182.647 582.718 Q182.647 576.925 181.161 574.047 Q179.694 571.151 176.741 571.151 M176.741 568.142 Q181.462 568.142 183.944 571.885 Q186.446 575.609 186.446 582.718 Q186.446 589.808 183.944 593.551 Q181.462 597.275 176.741 597.275 Q172.02 597.275 169.519 593.551 Q167.036 589.808 167.036 582.718 Q167.036 575.609 169.519 571.885 Q172.02 568.142 176.741 568.142 Z" fill="#000000" fill-rule="nonzero" fill-opacity="1" /><path clip-path="url(#clip830)" d="M193.123 591.952 L197.091 591.952 L197.091 596.73 L193.123 596.73 L193.123 591.952 Z" fill="#000000" fill-rule="nonzero" fill-opacity="1" /><path clip-path="url(#clip830)" d="M208.639 593.532 L221.898 593.532 L221.898 596.73 L204.069 596.73 L204.069 593.532 Q206.232 591.294 209.956 587.533 Q213.698 583.752 214.657 582.661 Q216.482 580.611 217.197 579.201 Q217.93 577.771 217.93 576.398 Q217.93 574.16 216.35 572.75 Q214.789 571.339 212.269 571.339 Q210.482 571.339 208.489 571.96 Q206.514 572.58 204.257 573.841 L204.257 570.004 Q206.551 569.082 208.545 568.612 Q210.539 568.142 212.194 568.142 Q216.557 568.142 219.153 570.324 Q221.748 572.505 221.748 576.154 Q221.748 577.884 221.09 579.445 Q220.45 580.988 218.739 583.094 Q218.269 583.639 215.748 586.254 Q213.228 588.849 208.639 593.532 Z" fill="#000000" fill-rule="nonzero" fill-opacity="1" /><path clip-path="url(#clip830)" d="M229.911 568.65 L244.825 568.65 L244.825 571.847 L233.39 571.847 L233.39 578.731 Q234.218 578.449 235.045 578.317 Q235.873 578.166 236.7 578.166 Q241.402 578.166 244.148 580.743 Q246.894 583.32 246.894 587.721 Q246.894 592.253 244.073 594.774 Q241.252 597.275 236.117 597.275 Q234.349 597.275 232.506 596.974 Q230.682 596.673 228.726 596.071 L228.726 592.253 Q230.418 593.175 232.224 593.626 Q234.029 594.078 236.042 594.078 Q239.296 594.078 241.195 592.366 Q243.095 590.655 243.095 587.721 Q243.095 584.787 241.195 583.075 Q239.296 581.364 236.042 581.364 Q234.518 581.364 232.995 581.702 Q231.49 582.041 229.911 582.755 L229.911 568.65 Z" fill="#000000" fill-rule="nonzero" fill-opacity="1" /><path clip-path="url(#clip830)" d="M46.0847 888.244 Q46.0847 895.341 47.7079 898.079 Q49.3312 900.816 53.2461 900.816 Q56.3653 900.816 58.2114 898.779 Q60.0256 896.71 60.0256 893.177 Q60.0256 888.307 56.5881 885.379 Q53.1188 882.419 47.3897 882.419 L46.0847 882.419 L46.0847 888.244 M43.6657 876.562 L64.0042 876.562 L64.0042 882.419 L58.5933 882.419 Q61.8398 884.424 63.3994 887.416 Q64.9272 890.408 64.9272 894.737 Q64.9272 900.211 61.8716 903.458 Q58.7843 906.672 53.6281 906.672 Q47.6125 906.672 44.5569 902.662 Q41.5014 898.62 41.5014 890.631 L41.5014 882.419 L40.9285 882.419 Q36.8862 882.419 34.6901 885.093 Q32.4621 887.734 32.4621 892.54 Q32.4621 895.596 33.1941 898.492 Q33.9262 901.389 35.3903 904.062 L29.9795 904.062 Q28.7381 900.848 28.1334 897.824 Q27.4968 894.8 27.4968 891.936 Q27.4968 884.201 31.5072 880.382 Q35.5176 876.562 43.6657 876.562 Z" fill="#000000" fill-rule="nonzero" fill-opacity="1" /><path clip-path="url(#clip830)" d="M29.7248 838.846 L35.1993 838.846 Q33.8307 841.328 33.1623 843.843 Q32.4621 846.325 32.4621 848.872 Q32.4621 854.569 36.0905 857.72 Q39.6872 860.871 46.212 860.871 Q52.7369 860.871 56.3653 857.72 Q59.9619 854.569 59.9619 848.872 Q59.9619 846.325 59.2935 843.843 Q58.5933 841.328 57.2247 838.846 L62.6355 838.846 Q63.7814 841.296 64.3543 843.938 Q64.9272 846.548 64.9272 849.508 Q64.9272 857.561 59.8664 862.303 Q54.8057 867.046 46.212 867.046 Q37.491 867.046 32.4939 862.271 Q27.4968 857.465 27.4968 849.126 Q27.4968 846.421 28.0697 843.843 Q28.6108 841.265 29.7248 838.846 Z" fill="#000000" fill-rule="nonzero" fill-opacity="1" /><path clip-path="url(#clip830)" d="M29.7248 803.007 L35.1993 803.007 Q33.8307 805.489 33.1623 808.004 Q32.4621 810.486 32.4621 813.033 Q32.4621 818.73 36.0905 821.881 Q39.6872 825.032 46.212 825.032 Q52.7369 825.032 56.3653 821.881 Q59.9619 818.73 59.9619 813.033 Q59.9619 810.486 59.2935 808.004 Q58.5933 805.489 57.2247 803.007 L62.6355 803.007 Q63.7814 805.458 64.3543 808.099 Q64.9272 810.709 64.9272 813.669 Q64.9272 821.722 59.8664 826.464 Q54.8057 831.207 46.212 831.207 Q37.491 831.207 32.4939 826.433 Q27.4968 821.626 27.4968 813.287 Q27.4968 810.582 28.0697 808.004 Q28.6108 805.426 29.7248 803.007 Z" fill="#000000" fill-rule="nonzero" fill-opacity="1" /><path clip-path="url(#clip830)" d="M55.9197 791.994 L55.9197 785.278 L64.0042 785.278 L64.0042 791.994 L55.9197 791.994 Z" fill="#000000" fill-rule="nonzero" fill-opacity="1" /><path clip-path="url(#clip830)" d="M33.8307 730.724 Q33.2578 731.711 33.0032 732.888 Q32.7167 734.034 32.7167 735.435 Q32.7167 740.4 35.9632 743.074 Q39.1779 745.715 45.2253 745.715 L64.0042 745.715 L64.0042 751.604 L28.3562 751.604 L28.3562 745.715 L33.8944 745.715 Q30.6479 743.869 29.0883 740.909 Q27.4968 737.949 27.4968 733.716 Q27.4968 733.111 27.5923 732.379 Q27.656 731.647 27.8151 730.756 L33.8307 730.724 Z" fill="#000000" fill-rule="nonzero" fill-opacity="1" /><path clip-path="url(#clip830)" d="M44.7161 695.522 L47.5806 695.522 L47.5806 722.449 Q53.6281 722.067 56.8109 718.82 Q59.9619 715.542 59.9619 709.717 Q59.9619 706.343 59.1344 703.192 Q58.3069 700.01 56.6518 696.89 L62.1899 696.89 Q63.5267 700.041 64.227 703.352 Q64.9272 706.662 64.9272 710.067 Q64.9272 718.597 59.9619 723.595 Q54.9967 728.56 46.5303 728.56 Q37.7774 728.56 32.6531 723.849 Q27.4968 719.107 27.4968 711.086 Q27.4968 703.893 32.1438 699.723 Q36.7589 695.522 44.7161 695.522 M42.9973 701.378 Q38.1912 701.442 35.3266 704.084 Q32.4621 706.694 32.4621 711.022 Q32.4621 715.924 35.2312 718.884 Q38.0002 721.812 43.0292 722.258 L42.9973 701.378 Z" fill="#000000" fill-rule="nonzero" fill-opacity="1" /><path clip-path="url(#clip830)" d="M18.2347 680.117 L28.3562 680.117 L28.3562 668.054 L32.9077 668.054 L32.9077 680.117 L52.2594 680.117 Q56.6199 680.117 57.8613 678.939 Q59.1026 677.73 59.1026 674.069 L59.1026 668.054 L64.0042 668.054 L64.0042 674.069 Q64.0042 680.849 61.4897 683.427 Q58.9434 686.005 52.2594 686.005 L32.9077 686.005 L32.9077 690.302 L28.3562 690.302 L28.3562 686.005 L18.2347 686.005 L18.2347 680.117 Z" fill="#000000" fill-rule="nonzero" fill-opacity="1" /><path clip-path="url(#clip830)" d="M49.9359 660.956 L28.3562 660.956 L28.3562 655.1 L49.7131 655.1 Q54.7739 655.1 57.3202 653.126 Q59.8346 651.153 59.8346 647.206 Q59.8346 642.464 56.8109 639.726 Q53.7872 636.957 48.5673 636.957 L28.3562 636.957 L28.3562 631.101 L64.0042 631.101 L64.0042 636.957 L58.5296 636.957 Q61.7762 639.09 63.3676 641.923 Q64.9272 644.723 64.9272 648.447 Q64.9272 654.59 61.1078 657.773 Q57.2883 660.956 49.9359 660.956 M27.4968 646.219 L27.4968 646.219 Z" fill="#000000" fill-rule="nonzero" fill-opacity="1" /><path clip-path="url(#clip830)" d="M33.8307 598.381 Q33.2578 599.368 33.0032 600.545 Q32.7167 601.691 32.7167 603.092 Q32.7167 608.057 35.9632 610.731 Q39.1779 613.372 45.2253 613.372 L64.0042 613.372 L64.0042 619.261 L28.3562 619.261 L28.3562 613.372 L33.8944 613.372 Q30.6479 611.526 29.0883 608.566 Q27.4968 605.606 27.4968 601.373 Q27.4968 600.768 27.5923 600.036 Q27.656 599.304 27.8151 598.413 L33.8307 598.381 Z" fill="#000000" fill-rule="nonzero" fill-opacity="1" /><path clip-path="url(#clip830)" d="M42.4881 563.752 L64.0042 563.752 L64.0042 569.608 L42.679 569.608 Q37.6183 569.608 35.1038 571.581 Q32.5894 573.555 32.5894 577.502 Q32.5894 582.244 35.6131 584.981 Q38.6368 587.719 43.8567 587.719 L64.0042 587.719 L64.0042 593.607 L28.3562 593.607 L28.3562 587.719 L33.8944 587.719 Q30.6797 585.618 29.0883 582.785 Q27.4968 579.921 27.4968 576.197 Q27.4968 570.054 31.3163 566.903 Q35.1038 563.752 42.4881 563.752 Z" fill="#000000" fill-rule="nonzero" fill-opacity="1" /><polyline clip-path="url(#clip832)" style="stroke:#009af9; stroke-linecap:round; stroke-linejoin:round; stroke-width:12; stroke-opacity:1; fill:none" points="341.475,1323.17 341.475,1323.17 347.038,1325.25 352.601,1384.24 358.165,1322.09 363.728,1317.99 380.418,1285.51 385.981,1286.69 391.544,1293.49 397.107,1319.27 402.671,1331.16 424.924,1248.53 430.487,1225.12 436.05,1187.71 441.613,1159.92 458.303,1095.83 463.866,1076.32 469.43,515.654 474.993,798.758 480.556,747.538 497.246,728.782 502.809,783.203 508.372,763.396 513.936,799.893 519.499,813.943 536.189,771.393 541.752,807.372 547.315,760.402 552.878,734.067 558.442,754.536 580.695,727.151 586.258,760.162 591.821,766.974 597.384,752.672 614.074,758.585 619.637,731.744 625.201,670.447 630.764,764.124 636.327,745.826 653.017,706.089 658.58,744.362 664.143,799.495 669.707,848.861 675.27,841.477 691.96,880.857 697.523,776.098 703.086,793.437 708.649,743.941 714.213,735.972 730.671,652.979 736.234,662.154 741.797,649.703 747.36,690.193 752.924,681.1 769.613,677.095 775.177,717.184 780.74,787.356 786.303,749.571 791.866,737.737 808.556,727.26 814.119,733.639 819.682,698.892 825.246,681.533 847.499,641.683 853.062,660.123 858.625,646.718 864.188,635.532 869.752,646.69 886.441,729.385 892.005,735.92 897.568,693.787 903.131,711.264 908.694,745.936 925.384,777.911 930.947,797.871 936.511,746.006 942.074,736.992 947.637,720.105 964.327,661.159 969.89,682.732 975.453,664.761 981.017,705.813 986.58,723.198 1003.27,749.197 1008.83,762.844 1014.4,793.366 1019.96,917.182 1025.52,852.139 1042.21,913.583 1047.78,867.913 1053.34,917.285 1058.9,868.911 1064.47,793.682 1081.16,724.846 1086.72,710.517 1092.28,723.219 1097.84,691.25 1103.41,698.198 1120.1,677.508 1125.66,633.644 1131.22,534.002 1136.79,434.968 1142.35,455.487 1164.6,367.296 1170.17,168.104 1175.73,227.602 1181.29,216.272 1197.98,140.676 1203.55,130.775 1209.11,172.927 1214.67,222.316 1220.24,183.973 1236.93,170.64 1242.49,182.362 1248.05,174.497 1253.62,154.447 1259.18,179.801 1275.87,162.698 1281.43,132.45 1287,101.421 1292.56,104.983 1298.12,130.058 1314.81,102.933 1320.37,123.403 1325.94,114.698 1331.5,98.6129 1337.06,130.838 1359.32,171.69 1364.88,236.003 1370.44,220.054 1376.01,213.458 1392.7,256.447 1398.26,316.441 1403.82,391.109 1409.39,385.45 1414.95,426.111 1431.64,374.015 1437.2,299.691 1442.77,263.603 1448.33,278.071 1453.89,297.733 1470.58,295.824 1476.15,331.013 1481.71,290.469 1487.27,295.825 1492.84,330.402 1509.53,353.699 1515.09,360.075 1520.65,406.149 1526.21,358.158 1531.78,357.927 1548.47,316.337 1554.03,328.247 1559.59,383.659 1565.16,388.778 1570.72,419.899 1587.41,373.56 1592.97,398.536 1598.54,436.164 1604.1,486.673 1609.66,384.976 1626.35,329.937 1631.92,274.449 1637.48,228.819 1643.04,256.833 1648.61,206.441 1665.3,236.974 1670.86,225.204 1676.42,251.254 1681.99,232.444 1687.55,291.375 1709.8,294.417 1715.37,305.22 1720.93,290.42 1726.49,312.547 1743.18,288.425 1748.74,325.462 1754.31,304.04 1759.87,290.834 1765.43,284.227 1782.12,361.513 1787.69,334.796 1793.25,318.056 1798.81,281.786 1804.38,261.11 1821.07,217.093 1826.63,281.902 1832.19,302.213 1837.76,278.911 1843.32,259.814 1860.01,319.13 1865.57,315.249 1871.14,352.666 1876.7,328.032 1882.26,325.968 1898.95,321.149 1904.52,299.232 1910.08,251.209 1915.64,204.586 1921.21,212.638 1937.9,182.49 1943.46,189.042 1949.02,186.126 1954.59,163.214 1960.15,184.302 1976.84,159.757 1982.4,163.192 1987.96,192.321 1993.53,130.647 1999.09,127.242 2015.78,88.7035 2021.34,99.6758 2026.91,86.1857 2032.47,93.3859 2038.03,103.162 2054.96,119.42 2060.52,395.861 2066.08,442.267 2071.65,409.882 2077.21,390.169 2093.9,386.755 2099.46,388.615 2105.02,439.061 2110.59,457.454 2116.15,439.831 2132.84,478.867 2138.4,498.356 2143.97,458.681 2155.09,504.409 2171.78,504.804 2177.35,522.13 2182.91,645.838 2188.47,651.836 2194.04,703.569 2210.73,682.98 2216.29,614.227 2221.85,553.201 2227.42,641.032 2232.98,680.099 2249.67,777.932 2255.23,814.537 2260.8,788.87 2266.36,846.605 2271.92,760.436 2288.61,817.822 2294.17,717.577 "/>
<path clip-path="url(#clip830)" d="M1747.31 1377.32 L2283.76 1377.32 L2283.76 1273.64 L1747.31 1273.64  Z" fill="#ffffff" fill-rule="evenodd" fill-opacity="1"/>
<polyline clip-path="url(#clip830)" style="stroke:#000000; stroke-linecap:round; stroke-linejoin:round; stroke-width:4; stroke-opacity:1; fill:none" points="1747.31,1377.32 2283.76,1377.32 2283.76,1273.64 1747.31,1273.64 1747.31,1377.32 "/>
<polyline clip-path="url(#clip830)" style="stroke:#009af9; stroke-linecap:round; stroke-linejoin:round; stroke-width:12; stroke-opacity:1; fill:none" points="1770.31,1325.48 1908.3,1325.48 "/>
<path clip-path="url(#clip830)" d="M1931.3 1308.2 L1938.26 1308.2 L1947.08 1331.71 L1955.95 1308.2 L1962.92 1308.2 L1962.92 1342.76 L1958.36 1342.76 L1958.36 1312.41 L1949.44 1336.11 L1944.75 1336.11 L1935.83 1312.41 L1935.83 1342.76 L1931.3 1342.76 L1931.3 1308.2 Z" fill="#000000" fill-rule="nonzero" fill-opacity="1" /><path clip-path="url(#clip830)" d="M1981.11 1342.76 L1967.92 1308.2 L1972.8 1308.2 L1983.75 1337.29 L1994.72 1308.2 L1999.58 1308.2 L1986.41 1342.76 L1981.11 1342.76 Z" fill="#000000" fill-rule="nonzero" fill-opacity="1" /><path clip-path="url(#clip830)" d="M1999.51 1327.87 L2011.99 1327.87 L2011.99 1331.67 L1999.51 1331.67 L1999.51 1327.87 Z" fill="#000000" fill-rule="nonzero" fill-opacity="1" /><path clip-path="url(#clip830)" d="M2018.96 1308.2 L2025.93 1308.2 L2034.74 1331.71 L2043.61 1308.2 L2050.58 1308.2 L2050.58 1342.76 L2046.02 1342.76 L2046.02 1312.41 L2037.11 1336.11 L2032.41 1336.11 L2023.49 1312.41 L2023.49 1342.76 L2018.96 1342.76 L2018.96 1308.2 Z" fill="#000000" fill-rule="nonzero" fill-opacity="1" /><path clip-path="url(#clip830)" d="M2064.54 1312.04 L2064.54 1325.02 L2070.42 1325.02 Q2073.68 1325.02 2075.46 1323.33 Q2077.24 1321.64 2077.24 1318.52 Q2077.24 1315.42 2075.46 1313.73 Q2073.68 1312.04 2070.42 1312.04 L2064.54 1312.04 M2059.86 1308.2 L2070.42 1308.2 Q2076.23 1308.2 2079.19 1310.83 Q2082.18 1313.45 2082.18 1318.52 Q2082.18 1323.64 2079.19 1326.25 Q2076.23 1328.87 2070.42 1328.87 L2064.54 1328.87 L2064.54 1342.76 L2059.86 1342.76 L2059.86 1308.2 Z" fill="#000000" fill-rule="nonzero" fill-opacity="1" /><path clip-path="url(#clip830)" d="M2114.33 1310.86 L2114.33 1315.79 Q2111.97 1313.59 2109.28 1312.5 Q2106.62 1311.41 2103.61 1311.41 Q2097.68 1311.41 2094.54 1315.05 Q2091.39 1318.66 2091.39 1325.51 Q2091.39 1332.34 2094.54 1335.97 Q2097.68 1339.58 2103.61 1339.58 Q2106.62 1339.58 2109.28 1338.5 Q2111.97 1337.41 2114.33 1335.21 L2114.33 1340.09 Q2111.87 1341.76 2109.12 1342.59 Q2106.39 1343.43 2103.33 1343.43 Q2095.49 1343.43 2090.97 1338.63 Q2086.46 1333.82 2086.46 1325.51 Q2086.46 1317.18 2090.97 1312.39 Q2095.49 1307.57 2103.33 1307.57 Q2106.43 1307.57 2109.17 1308.4 Q2111.92 1309.21 2114.33 1310.86 Z" fill="#000000" fill-rule="nonzero" fill-opacity="1" /><path clip-path="url(#clip830)" d="M2122.45 1336.88 L2127.34 1336.88 L2127.34 1342.76 L2122.45 1342.76 L2122.45 1336.88 M2122.45 1318.24 L2127.34 1318.24 L2127.34 1324.12 L2122.45 1324.12 L2122.45 1318.24 Z" fill="#000000" fill-rule="nonzero" fill-opacity="1" /><path clip-path="url(#clip830)" d="M2152.59 1308.2 L2157.27 1308.2 L2157.27 1322.36 L2174.26 1322.36 L2174.26 1308.2 L2178.93 1308.2 L2178.93 1342.76 L2174.26 1342.76 L2174.26 1326.3 L2157.27 1326.3 L2157.27 1342.76 L2152.59 1342.76 L2152.59 1308.2 Z" fill="#000000" fill-rule="nonzero" fill-opacity="1" /><path clip-path="url(#clip830)" d="M2188.24 1308.2 L2195.21 1308.2 L2204.03 1331.71 L2212.89 1308.2 L2219.86 1308.2 L2219.86 1342.76 L2215.3 1342.76 L2215.3 1312.41 L2206.39 1336.11 L2201.69 1336.11 L2192.78 1312.41 L2192.78 1342.76 L2188.24 1342.76 L2188.24 1308.2 Z" fill="#000000" fill-rule="nonzero" fill-opacity="1" /><path clip-path="url(#clip830)" d="M2229.14 1308.2 L2236.11 1308.2 L2244.93 1331.71 L2253.79 1308.2 L2260.76 1308.2 L2260.76 1342.76 L2256.2 1342.76 L2256.2 1312.41 L2247.29 1336.11 L2242.59 1336.11 L2233.68 1312.41 L2233.68 1342.76 L2229.14 1342.76 L2229.14 1308.2 Z" fill="#000000" fill-rule="nonzero" fill-opacity="1" /></svg>
