<?xml version="1.0" encoding="utf-8"?>
<svg xmlns="http://www.w3.org/2000/svg" xmlns:xlink="http://www.w3.org/1999/xlink" width="600" height="400" viewBox="0 0 2400 1600">
<defs>
  <clipPath id="clip630">
    <rect x="0" y="0" width="2400" height="1600"/>
  </clipPath>
</defs>
<path clip-path="url(#clip630)" d="M0 1600 L2400 1600 L2400 0 L0 0  Z" fill="#ffffff" fill-rule="evenodd" fill-opacity="1"/>
<defs>
  <clipPath id="clip631">
    <rect x="480" y="0" width="1681" height="1600"/>
  </clipPath>
</defs>
<path clip-path="url(#clip630)" d="M282.461 1423.18 L2352.76 1423.18 L2352.76 123.472 L282.461 123.472  Z" fill="#ffffff" fill-rule="evenodd" fill-opacity="1"/>
<defs>
  <clipPath id="clip632">
    <rect x="282" y="123" width="2071" height="1301"/>
  </clipPath>
</defs>
<polyline clip-path="url(#clip632)" style="stroke:#000000; stroke-linecap:round; stroke-linejoin:round; stroke-width:2; stroke-opacity:0.1; fill:none" points="321.927,1423.18 321.927,123.472 "/>
<polyline clip-path="url(#clip632)" style="stroke:#000000; stroke-linecap:round; stroke-linejoin:round; stroke-width:2; stroke-opacity:0.1; fill:none" points="822.724,1423.18 822.724,123.472 "/>
<polyline clip-path="url(#clip632)" style="stroke:#000000; stroke-linecap:round; stroke-linejoin:round; stroke-width:2; stroke-opacity:0.1; fill:none" points="1329.09,1423.18 1329.09,123.472 "/>
<polyline clip-path="url(#clip632)" style="stroke:#000000; stroke-linecap:round; stroke-linejoin:round; stroke-width:2; stroke-opacity:0.1; fill:none" points="1841.01,1423.18 1841.01,123.472 "/>
<polyline clip-path="url(#clip632)" style="stroke:#000000; stroke-linecap:round; stroke-linejoin:round; stroke-width:2; stroke-opacity:0.05; fill:none" points="422.086,1423.18 422.086,123.472 "/>
<polyline clip-path="url(#clip632)" style="stroke:#000000; stroke-linecap:round; stroke-linejoin:round; stroke-width:2; stroke-opacity:0.05; fill:none" points="522.246,1423.18 522.246,123.472 "/>
<polyline clip-path="url(#clip632)" style="stroke:#000000; stroke-linecap:round; stroke-linejoin:round; stroke-width:2; stroke-opacity:0.05; fill:none" points="622.405,1423.18 622.405,123.472 "/>
<polyline clip-path="url(#clip632)" style="stroke:#000000; stroke-linecap:round; stroke-linejoin:round; stroke-width:2; stroke-opacity:0.05; fill:none" points="722.565,1423.18 722.565,123.472 "/>
<polyline clip-path="url(#clip632)" style="stroke:#000000; stroke-linecap:round; stroke-linejoin:round; stroke-width:2; stroke-opacity:0.05; fill:none" points="923.996,1423.18 923.996,123.472 "/>
<polyline clip-path="url(#clip632)" style="stroke:#000000; stroke-linecap:round; stroke-linejoin:round; stroke-width:2; stroke-opacity:0.05; fill:none" points="1025.27,1423.18 1025.27,123.472 "/>
<polyline clip-path="url(#clip632)" style="stroke:#000000; stroke-linecap:round; stroke-linejoin:round; stroke-width:2; stroke-opacity:0.05; fill:none" points="1126.54,1423.18 1126.54,123.472 "/>
<polyline clip-path="url(#clip632)" style="stroke:#000000; stroke-linecap:round; stroke-linejoin:round; stroke-width:2; stroke-opacity:0.05; fill:none" points="1227.81,1423.18 1227.81,123.472 "/>
<polyline clip-path="url(#clip632)" style="stroke:#000000; stroke-linecap:round; stroke-linejoin:round; stroke-width:2; stroke-opacity:0.05; fill:none" points="1431.47,1423.18 1431.47,123.472 "/>
<polyline clip-path="url(#clip632)" style="stroke:#000000; stroke-linecap:round; stroke-linejoin:round; stroke-width:2; stroke-opacity:0.05; fill:none" points="1533.86,1423.18 1533.86,123.472 "/>
<polyline clip-path="url(#clip632)" style="stroke:#000000; stroke-linecap:round; stroke-linejoin:round; stroke-width:2; stroke-opacity:0.05; fill:none" points="1636.24,1423.18 1636.24,123.472 "/>
<polyline clip-path="url(#clip632)" style="stroke:#000000; stroke-linecap:round; stroke-linejoin:round; stroke-width:2; stroke-opacity:0.05; fill:none" points="1738.63,1423.18 1738.63,123.472 "/>
<polyline clip-path="url(#clip632)" style="stroke:#000000; stroke-linecap:round; stroke-linejoin:round; stroke-width:2; stroke-opacity:0.05; fill:none" points="1944.53,1423.18 1944.53,123.472 "/>
<polyline clip-path="url(#clip632)" style="stroke:#000000; stroke-linecap:round; stroke-linejoin:round; stroke-width:2; stroke-opacity:0.05; fill:none" points="2048.06,1423.18 2048.06,123.472 "/>
<polyline clip-path="url(#clip632)" style="stroke:#000000; stroke-linecap:round; stroke-linejoin:round; stroke-width:2; stroke-opacity:0.05; fill:none" points="2151.58,1423.18 2151.58,123.472 "/>
<polyline clip-path="url(#clip632)" style="stroke:#000000; stroke-linecap:round; stroke-linejoin:round; stroke-width:2; stroke-opacity:0.05; fill:none" points="2255.1,1423.18 2255.1,123.472 "/>
<polyline clip-path="url(#clip630)" style="stroke:#000000; stroke-linecap:round; stroke-linejoin:round; stroke-width:4; stroke-opacity:1; fill:none" points="282.461,1423.18 2352.76,1423.18 "/>
<polyline clip-path="url(#clip630)" style="stroke:#000000; stroke-linecap:round; stroke-linejoin:round; stroke-width:4; stroke-opacity:1; fill:none" points="321.927,1423.18 321.927,1404.28 "/>
<polyline clip-path="url(#clip630)" style="stroke:#000000; stroke-linecap:round; stroke-linejoin:round; stroke-width:4; stroke-opacity:1; fill:none" points="822.724,1423.18 822.724,1404.28 "/>
<polyline clip-path="url(#clip630)" style="stroke:#000000; stroke-linecap:round; stroke-linejoin:round; stroke-width:4; stroke-opacity:1; fill:none" points="1329.09,1423.18 1329.09,1404.28 "/>
<polyline clip-path="url(#clip630)" style="stroke:#000000; stroke-linecap:round; stroke-linejoin:round; stroke-width:4; stroke-opacity:1; fill:none" points="1841.01,1423.18 1841.01,1404.28 "/>
<polyline clip-path="url(#clip630)" style="stroke:#000000; stroke-linecap:round; stroke-linejoin:round; stroke-width:4; stroke-opacity:1; fill:none" points="422.086,1423.18 422.086,1413.73 "/>
<polyline clip-path="url(#clip630)" style="stroke:#000000; stroke-linecap:round; stroke-linejoin:round; stroke-width:4; stroke-opacity:1; fill:none" points="522.246,1423.18 522.246,1413.73 "/>
<polyline clip-path="url(#clip630)" style="stroke:#000000; stroke-linecap:round; stroke-linejoin:round; stroke-width:4; stroke-opacity:1; fill:none" points="622.405,1423.18 622.405,1413.73 "/>
<polyline clip-path="url(#clip630)" style="stroke:#000000; stroke-linecap:round; stroke-linejoin:round; stroke-width:4; stroke-opacity:1; fill:none" points="722.565,1423.18 722.565,1413.73 "/>
<polyline clip-path="url(#clip630)" style="stroke:#000000; stroke-linecap:round; stroke-linejoin:round; stroke-width:4; stroke-opacity:1; fill:none" points="923.996,1423.18 923.996,1413.73 "/>
<polyline clip-path="url(#clip630)" style="stroke:#000000; stroke-linecap:round; stroke-linejoin:round; stroke-width:4; stroke-opacity:1; fill:none" points="1025.27,1423.18 1025.27,1413.73 "/>
<polyline clip-path="url(#clip630)" style="stroke:#000000; stroke-linecap:round; stroke-linejoin:round; stroke-width:4; stroke-opacity:1; fill:none" points="1126.54,1423.18 1126.54,1413.73 "/>
<polyline clip-path="url(#clip630)" style="stroke:#000000; stroke-linecap:round; stroke-linejoin:round; stroke-width:4; stroke-opacity:1; fill:none" points="1227.81,1423.18 1227.81,1413.73 "/>
<polyline clip-path="url(#clip630)" style="stroke:#000000; stroke-linecap:round; stroke-linejoin:round; stroke-width:4; stroke-opacity:1; fill:none" points="1431.47,1423.18 1431.47,1413.73 "/>
<polyline clip-path="url(#clip630)" style="stroke:#000000; stroke-linecap:round; stroke-linejoin:round; stroke-width:4; stroke-opacity:1; fill:none" points="1533.86,1423.18 1533.86,1413.73 "/>
<polyline clip-path="url(#clip630)" style="stroke:#000000; stroke-linecap:round; stroke-linejoin:round; stroke-width:4; stroke-opacity:1; fill:none" points="1636.24,1423.18 1636.24,1413.73 "/>
<polyline clip-path="url(#clip630)" style="stroke:#000000; stroke-linecap:round; stroke-linejoin:round; stroke-width:4; stroke-opacity:1; fill:none" points="1738.63,1423.18 1738.63,1413.73 "/>
<polyline clip-path="url(#clip630)" style="stroke:#000000; stroke-linecap:round; stroke-linejoin:round; stroke-width:4; stroke-opacity:1; fill:none" points="1944.53,1423.18 1944.53,1413.73 "/>
<polyline clip-path="url(#clip630)" style="stroke:#000000; stroke-linecap:round; stroke-linejoin:round; stroke-width:4; stroke-opacity:1; fill:none" points="2048.06,1423.18 2048.06,1413.73 "/>
<polyline clip-path="url(#clip630)" style="stroke:#000000; stroke-linecap:round; stroke-linejoin:round; stroke-width:4; stroke-opacity:1; fill:none" points="2151.58,1423.18 2151.58,1413.73 "/>
<polyline clip-path="url(#clip630)" style="stroke:#000000; stroke-linecap:round; stroke-linejoin:round; stroke-width:4; stroke-opacity:1; fill:none" points="2255.1,1423.18 2255.1,1413.73 "/>
<path clip-path="url(#clip630)" d="M193.722 1481.64 L210.041 1481.64 L210.041 1485.58 L188.097 1485.58 L188.097 1481.64 Q190.759 1478.89 195.342 1474.26 Q199.948 1469.61 201.129 1468.27 Q203.374 1465.74 204.254 1464.01 Q205.157 1462.25 205.157 1460.56 Q205.157 1457.8 203.212 1456.07 Q201.291 1454.33 198.189 1454.33 Q195.99 1454.33 193.536 1455.09 Q191.106 1455.86 188.328 1457.41 L188.328 1452.69 Q191.152 1451.55 193.606 1450.97 Q196.06 1450.39 198.097 1450.39 Q203.467 1450.39 206.661 1453.08 Q209.856 1455.77 209.856 1460.26 Q209.856 1462.39 209.046 1464.31 Q208.259 1466.2 206.152 1468.8 Q205.573 1469.47 202.472 1472.69 Q199.37 1475.88 193.722 1481.64 Z" fill="#000000" fill-rule="nonzero" fill-opacity="1" /><path clip-path="url(#clip630)" d="M229.856 1454.1 Q226.245 1454.1 224.416 1457.66 Q222.61 1461.2 222.61 1468.33 Q222.61 1475.44 224.416 1479.01 Q226.245 1482.55 229.856 1482.55 Q233.49 1482.55 235.296 1479.01 Q237.124 1475.44 237.124 1468.33 Q237.124 1461.2 235.296 1457.66 Q233.49 1454.1 229.856 1454.1 M229.856 1450.39 Q235.666 1450.39 238.721 1455 Q241.8 1459.58 241.8 1468.33 Q241.8 1477.06 238.721 1481.67 Q235.666 1486.25 229.856 1486.25 Q224.046 1486.25 220.967 1481.67 Q217.911 1477.06 217.911 1468.33 Q217.911 1459.58 220.967 1455 Q224.046 1450.39 229.856 1450.39 Z" fill="#000000" fill-rule="nonzero" fill-opacity="1" /><path clip-path="url(#clip630)" d="M254.045 1481.64 L270.365 1481.64 L270.365 1485.58 L248.42 1485.58 L248.42 1481.64 Q251.082 1478.89 255.666 1474.26 Q260.272 1469.61 261.453 1468.27 Q263.698 1465.74 264.578 1464.01 Q265.481 1462.25 265.481 1460.56 Q265.481 1457.8 263.536 1456.07 Q261.615 1454.33 258.513 1454.33 Q256.314 1454.33 253.86 1455.09 Q251.43 1455.86 248.652 1457.41 L248.652 1452.69 Q251.476 1451.55 253.93 1450.97 Q256.383 1450.39 258.42 1450.39 Q263.791 1450.39 266.985 1453.08 Q270.18 1455.77 270.18 1460.26 Q270.18 1462.39 269.369 1464.31 Q268.582 1466.2 266.476 1468.8 Q265.897 1469.47 262.795 1472.69 Q259.694 1475.88 254.045 1481.64 Z" fill="#000000" fill-rule="nonzero" fill-opacity="1" /><path clip-path="url(#clip630)" d="M280.99 1481.64 L288.629 1481.64 L288.629 1455.28 L280.318 1456.95 L280.318 1452.69 L288.582 1451.02 L293.258 1451.02 L293.258 1481.64 L300.897 1481.64 L300.897 1485.58 L280.99 1485.58 L280.99 1481.64 Z" fill="#000000" fill-rule="nonzero" fill-opacity="1" /><path clip-path="url(#clip630)" d="M307.587 1470.7 L320.064 1470.7 L320.064 1474.49 L307.587 1474.49 L307.587 1470.7 Z" fill="#000000" fill-rule="nonzero" fill-opacity="1" /><path clip-path="url(#clip630)" d="M337.448 1454.1 Q333.837 1454.1 332.008 1457.66 Q330.202 1461.2 330.202 1468.33 Q330.202 1475.44 332.008 1479.01 Q333.837 1482.55 337.448 1482.55 Q341.082 1482.55 342.888 1479.01 Q344.716 1475.44 344.716 1468.33 Q344.716 1461.2 342.888 1457.66 Q341.082 1454.1 337.448 1454.1 M337.448 1450.39 Q343.258 1450.39 346.313 1455 Q349.392 1459.58 349.392 1468.33 Q349.392 1477.06 346.313 1481.67 Q343.258 1486.25 337.448 1486.25 Q331.638 1486.25 328.559 1481.67 Q325.503 1477.06 325.503 1468.33 Q325.503 1459.58 328.559 1455 Q331.638 1450.39 337.448 1450.39 Z" fill="#000000" fill-rule="nonzero" fill-opacity="1" /><path clip-path="url(#clip630)" d="M358.42 1481.64 L366.059 1481.64 L366.059 1455.28 L357.749 1456.95 L357.749 1452.69 L366.012 1451.02 L370.688 1451.02 L370.688 1481.64 L378.327 1481.64 L378.327 1485.58 L358.42 1485.58 L358.42 1481.64 Z" fill="#000000" fill-rule="nonzero" fill-opacity="1" /><path clip-path="url(#clip630)" d="M385.017 1470.7 L397.494 1470.7 L397.494 1474.49 L385.017 1474.49 L385.017 1470.7 Z" fill="#000000" fill-rule="nonzero" fill-opacity="1" /><path clip-path="url(#clip630)" d="M414.878 1454.1 Q411.267 1454.1 409.438 1457.66 Q407.633 1461.2 407.633 1468.33 Q407.633 1475.44 409.438 1479.01 Q411.267 1482.55 414.878 1482.55 Q418.512 1482.55 420.318 1479.01 Q422.146 1475.44 422.146 1468.33 Q422.146 1461.2 420.318 1457.66 Q418.512 1454.1 414.878 1454.1 M414.878 1450.39 Q420.688 1450.39 423.744 1455 Q426.822 1459.58 426.822 1468.33 Q426.822 1477.06 423.744 1481.67 Q420.688 1486.25 414.878 1486.25 Q409.068 1486.25 405.989 1481.67 Q402.934 1477.06 402.934 1468.33 Q402.934 1459.58 405.989 1455 Q409.068 1450.39 414.878 1450.39 Z" fill="#000000" fill-rule="nonzero" fill-opacity="1" /><path clip-path="url(#clip630)" d="M435.85 1481.64 L443.489 1481.64 L443.489 1455.28 L435.179 1456.95 L435.179 1452.69 L443.443 1451.02 L448.118 1451.02 L448.118 1481.64 L455.757 1481.64 L455.757 1485.58 L435.85 1485.58 L435.85 1481.64 Z" fill="#000000" fill-rule="nonzero" fill-opacity="1" /><path clip-path="url(#clip630)" d="M694.519 1481.64 L710.838 1481.64 L710.838 1485.58 L688.894 1485.58 L688.894 1481.64 Q691.556 1478.89 696.139 1474.26 Q700.745 1469.61 701.926 1468.27 Q704.171 1465.74 705.051 1464.01 Q705.954 1462.25 705.954 1460.56 Q705.954 1457.8 704.009 1456.07 Q702.088 1454.33 698.986 1454.33 Q696.787 1454.33 694.333 1455.09 Q691.903 1455.86 689.125 1457.41 L689.125 1452.69 Q691.949 1451.55 694.403 1450.97 Q696.857 1450.39 698.894 1450.39 Q704.264 1450.39 707.458 1453.08 Q710.653 1455.77 710.653 1460.26 Q710.653 1462.39 709.843 1464.31 Q709.056 1466.2 706.949 1468.8 Q706.37 1469.47 703.269 1472.69 Q700.167 1475.88 694.519 1481.64 Z" fill="#000000" fill-rule="nonzero" fill-opacity="1" /><path clip-path="url(#clip630)" d="M730.653 1454.1 Q727.042 1454.1 725.213 1457.66 Q723.407 1461.2 723.407 1468.33 Q723.407 1475.44 725.213 1479.01 Q727.042 1482.55 730.653 1482.55 Q734.287 1482.55 736.092 1479.01 Q737.921 1475.44 737.921 1468.33 Q737.921 1461.2 736.092 1457.66 Q734.287 1454.1 730.653 1454.1 M730.653 1450.39 Q736.463 1450.39 739.518 1455 Q742.597 1459.58 742.597 1468.33 Q742.597 1477.06 739.518 1481.67 Q736.463 1486.25 730.653 1486.25 Q724.843 1486.25 721.764 1481.67 Q718.708 1477.06 718.708 1468.33 Q718.708 1459.58 721.764 1455 Q724.843 1450.39 730.653 1450.39 Z" fill="#000000" fill-rule="nonzero" fill-opacity="1" /><path clip-path="url(#clip630)" d="M754.842 1481.64 L771.162 1481.64 L771.162 1485.58 L749.217 1485.58 L749.217 1481.64 Q751.879 1478.89 756.463 1474.26 Q761.069 1469.61 762.25 1468.27 Q764.495 1465.74 765.375 1464.01 Q766.277 1462.25 766.277 1460.56 Q766.277 1457.8 764.333 1456.07 Q762.412 1454.33 759.31 1454.33 Q757.111 1454.33 754.657 1455.09 Q752.227 1455.86 749.449 1457.41 L749.449 1452.69 Q752.273 1451.55 754.727 1450.97 Q757.18 1450.39 759.217 1450.39 Q764.588 1450.39 767.782 1453.08 Q770.977 1455.77 770.977 1460.26 Q770.977 1462.39 770.166 1464.31 Q769.379 1466.2 767.273 1468.8 Q766.694 1469.47 763.592 1472.69 Q760.49 1475.88 754.842 1481.64 Z" fill="#000000" fill-rule="nonzero" fill-opacity="1" /><path clip-path="url(#clip630)" d="M781.787 1481.64 L789.425 1481.64 L789.425 1455.28 L781.115 1456.95 L781.115 1452.69 L789.379 1451.02 L794.055 1451.02 L794.055 1481.64 L801.694 1481.64 L801.694 1485.58 L781.787 1485.58 L781.787 1481.64 Z" fill="#000000" fill-rule="nonzero" fill-opacity="1" /><path clip-path="url(#clip630)" d="M808.384 1470.7 L820.861 1470.7 L820.861 1474.49 L808.384 1474.49 L808.384 1470.7 Z" fill="#000000" fill-rule="nonzero" fill-opacity="1" /><path clip-path="url(#clip630)" d="M838.245 1454.1 Q834.634 1454.1 832.805 1457.66 Q830.999 1461.2 830.999 1468.33 Q830.999 1475.44 832.805 1479.01 Q834.634 1482.55 838.245 1482.55 Q841.879 1482.55 843.684 1479.01 Q845.513 1475.44 845.513 1468.33 Q845.513 1461.2 843.684 1457.66 Q841.879 1454.1 838.245 1454.1 M838.245 1450.39 Q844.055 1450.39 847.11 1455 Q850.189 1459.58 850.189 1468.33 Q850.189 1477.06 847.11 1481.67 Q844.055 1486.25 838.245 1486.25 Q832.435 1486.25 829.356 1481.67 Q826.3 1477.06 826.3 1468.33 Q826.3 1459.58 829.356 1455 Q832.435 1450.39 838.245 1450.39 Z" fill="#000000" fill-rule="nonzero" fill-opacity="1" /><path clip-path="url(#clip630)" d="M871.254 1455.09 L859.448 1473.54 L871.254 1473.54 L871.254 1455.09 M870.027 1451.02 L875.907 1451.02 L875.907 1473.54 L880.837 1473.54 L880.837 1477.43 L875.907 1477.43 L875.907 1485.58 L871.254 1485.58 L871.254 1477.43 L855.652 1477.43 L855.652 1472.92 L870.027 1451.02 Z" fill="#000000" fill-rule="nonzero" fill-opacity="1" /><path clip-path="url(#clip630)" d="M885.814 1470.7 L898.291 1470.7 L898.291 1474.49 L885.814 1474.49 L885.814 1470.7 Z" fill="#000000" fill-rule="nonzero" fill-opacity="1" /><path clip-path="url(#clip630)" d="M915.675 1454.1 Q912.064 1454.1 910.235 1457.66 Q908.429 1461.2 908.429 1468.33 Q908.429 1475.44 910.235 1479.01 Q912.064 1482.55 915.675 1482.55 Q919.309 1482.55 921.115 1479.01 Q922.943 1475.44 922.943 1468.33 Q922.943 1461.2 921.115 1457.66 Q919.309 1454.1 915.675 1454.1 M915.675 1450.39 Q921.485 1450.39 924.541 1455 Q927.619 1459.58 927.619 1468.33 Q927.619 1477.06 924.541 1481.67 Q921.485 1486.25 915.675 1486.25 Q909.865 1486.25 906.786 1481.67 Q903.73 1477.06 903.73 1468.33 Q903.73 1459.58 906.786 1455 Q909.865 1450.39 915.675 1450.39 Z" fill="#000000" fill-rule="nonzero" fill-opacity="1" /><path clip-path="url(#clip630)" d="M936.647 1481.64 L944.286 1481.64 L944.286 1455.28 L935.976 1456.95 L935.976 1452.69 L944.239 1451.02 L948.915 1451.02 L948.915 1481.64 L956.554 1481.64 L956.554 1485.58 L936.647 1485.58 L936.647 1481.64 Z" fill="#000000" fill-rule="nonzero" fill-opacity="1" /><path clip-path="url(#clip630)" d="M1200.88 1481.64 L1217.2 1481.64 L1217.2 1485.58 L1195.25 1485.58 L1195.25 1481.64 Q1197.92 1478.89 1202.5 1474.26 Q1207.11 1469.61 1208.29 1468.27 Q1210.53 1465.74 1211.41 1464.01 Q1212.32 1462.25 1212.32 1460.56 Q1212.32 1457.8 1210.37 1456.07 Q1208.45 1454.33 1205.35 1454.33 Q1203.15 1454.33 1200.69 1455.09 Q1198.26 1455.86 1195.49 1457.41 L1195.49 1452.69 Q1198.31 1451.55 1200.76 1450.97 Q1203.22 1450.39 1205.25 1450.39 Q1210.63 1450.39 1213.82 1453.08 Q1217.01 1455.77 1217.01 1460.26 Q1217.01 1462.39 1216.2 1464.31 Q1215.42 1466.2 1213.31 1468.8 Q1212.73 1469.47 1209.63 1472.69 Q1206.53 1475.88 1200.88 1481.64 Z" fill="#000000" fill-rule="nonzero" fill-opacity="1" /><path clip-path="url(#clip630)" d="M1237.01 1454.1 Q1233.4 1454.1 1231.57 1457.66 Q1229.77 1461.2 1229.77 1468.33 Q1229.77 1475.44 1231.57 1479.01 Q1233.4 1482.55 1237.01 1482.55 Q1240.65 1482.55 1242.45 1479.01 Q1244.28 1475.44 1244.28 1468.33 Q1244.28 1461.2 1242.45 1457.66 Q1240.65 1454.1 1237.01 1454.1 M1237.01 1450.39 Q1242.82 1450.39 1245.88 1455 Q1248.96 1459.58 1248.96 1468.33 Q1248.96 1477.06 1245.88 1481.67 Q1242.82 1486.25 1237.01 1486.25 Q1231.2 1486.25 1228.13 1481.67 Q1225.07 1477.06 1225.07 1468.33 Q1225.07 1459.58 1228.13 1455 Q1231.2 1450.39 1237.01 1450.39 Z" fill="#000000" fill-rule="nonzero" fill-opacity="1" /><path clip-path="url(#clip630)" d="M1261.2 1481.64 L1277.52 1481.64 L1277.52 1485.58 L1255.58 1485.58 L1255.58 1481.64 Q1258.24 1478.89 1262.82 1474.26 Q1267.43 1469.61 1268.61 1468.27 Q1270.86 1465.74 1271.74 1464.01 Q1272.64 1462.25 1272.64 1460.56 Q1272.64 1457.8 1270.69 1456.07 Q1268.77 1454.33 1265.67 1454.33 Q1263.47 1454.33 1261.02 1455.09 Q1258.59 1455.86 1255.81 1457.41 L1255.81 1452.69 Q1258.63 1451.55 1261.09 1450.97 Q1263.54 1450.39 1265.58 1450.39 Q1270.95 1450.39 1274.14 1453.08 Q1277.34 1455.77 1277.34 1460.26 Q1277.34 1462.39 1276.53 1464.31 Q1275.74 1466.2 1273.63 1468.8 Q1273.06 1469.47 1269.95 1472.69 Q1266.85 1475.88 1261.2 1481.64 Z" fill="#000000" fill-rule="nonzero" fill-opacity="1" /><path clip-path="url(#clip630)" d="M1288.15 1481.64 L1295.79 1481.64 L1295.79 1455.28 L1287.48 1456.95 L1287.48 1452.69 L1295.74 1451.02 L1300.42 1451.02 L1300.42 1481.64 L1308.06 1481.64 L1308.06 1485.58 L1288.15 1485.58 L1288.15 1481.64 Z" fill="#000000" fill-rule="nonzero" fill-opacity="1" /><path clip-path="url(#clip630)" d="M1314.75 1470.7 L1327.22 1470.7 L1327.22 1474.49 L1314.75 1474.49 L1314.75 1470.7 Z" fill="#000000" fill-rule="nonzero" fill-opacity="1" /><path clip-path="url(#clip630)" d="M1344.61 1454.1 Q1340.99 1454.1 1339.17 1457.66 Q1337.36 1461.2 1337.36 1468.33 Q1337.36 1475.44 1339.17 1479.01 Q1340.99 1482.55 1344.61 1482.55 Q1348.24 1482.55 1350.05 1479.01 Q1351.87 1475.44 1351.87 1468.33 Q1351.87 1461.2 1350.05 1457.66 Q1348.24 1454.1 1344.61 1454.1 M1344.61 1450.39 Q1350.42 1450.39 1353.47 1455 Q1356.55 1459.58 1356.55 1468.33 Q1356.55 1477.06 1353.47 1481.67 Q1350.42 1486.25 1344.61 1486.25 Q1338.8 1486.25 1335.72 1481.67 Q1332.66 1477.06 1332.66 1468.33 Q1332.66 1459.58 1335.72 1455 Q1338.8 1450.39 1344.61 1450.39 Z" fill="#000000" fill-rule="nonzero" fill-opacity="1" /><path clip-path="url(#clip630)" d="M1363.59 1451.02 L1385.81 1451.02 L1385.81 1453.01 L1373.26 1485.58 L1368.38 1485.58 L1380.18 1454.96 L1363.59 1454.96 L1363.59 1451.02 Z" fill="#000000" fill-rule="nonzero" fill-opacity="1" /><path clip-path="url(#clip630)" d="M1392.18 1470.7 L1404.65 1470.7 L1404.65 1474.49 L1392.18 1474.49 L1392.18 1470.7 Z" fill="#000000" fill-rule="nonzero" fill-opacity="1" /><path clip-path="url(#clip630)" d="M1422.04 1454.1 Q1418.43 1454.1 1416.6 1457.66 Q1414.79 1461.2 1414.79 1468.33 Q1414.79 1475.44 1416.6 1479.01 Q1418.43 1482.55 1422.04 1482.55 Q1425.67 1482.55 1427.48 1479.01 Q1429.3 1475.44 1429.3 1468.33 Q1429.3 1461.2 1427.48 1457.66 Q1425.67 1454.1 1422.04 1454.1 M1422.04 1450.39 Q1427.85 1450.39 1430.9 1455 Q1433.98 1459.58 1433.98 1468.33 Q1433.98 1477.06 1430.9 1481.67 Q1427.85 1486.25 1422.04 1486.25 Q1416.23 1486.25 1413.15 1481.67 Q1410.09 1477.06 1410.09 1468.33 Q1410.09 1459.58 1413.15 1455 Q1416.23 1450.39 1422.04 1450.39 Z" fill="#000000" fill-rule="nonzero" fill-opacity="1" /><path clip-path="url(#clip630)" d="M1443.01 1481.64 L1450.65 1481.64 L1450.65 1455.28 L1442.34 1456.95 L1442.34 1452.69 L1450.6 1451.02 L1455.28 1451.02 L1455.28 1481.64 L1462.92 1481.64 L1462.92 1485.58 L1443.01 1485.58 L1443.01 1481.64 Z" fill="#000000" fill-rule="nonzero" fill-opacity="1" /><path clip-path="url(#clip630)" d="M1712.81 1481.64 L1729.13 1481.64 L1729.13 1485.58 L1707.18 1485.58 L1707.18 1481.64 Q1709.84 1478.89 1714.43 1474.26 Q1719.03 1469.61 1720.21 1468.27 Q1722.46 1465.74 1723.34 1464.01 Q1724.24 1462.25 1724.24 1460.56 Q1724.24 1457.8 1722.3 1456.07 Q1720.38 1454.33 1717.27 1454.33 Q1715.07 1454.33 1712.62 1455.09 Q1710.19 1455.86 1707.41 1457.41 L1707.41 1452.69 Q1710.24 1451.55 1712.69 1450.97 Q1715.14 1450.39 1717.18 1450.39 Q1722.55 1450.39 1725.75 1453.08 Q1728.94 1455.77 1728.94 1460.26 Q1728.94 1462.39 1728.13 1464.31 Q1727.34 1466.2 1725.24 1468.8 Q1724.66 1469.47 1721.56 1472.69 Q1718.45 1475.88 1712.81 1481.64 Z" fill="#000000" fill-rule="nonzero" fill-opacity="1" /><path clip-path="url(#clip630)" d="M1748.94 1454.1 Q1745.33 1454.1 1743.5 1457.66 Q1741.69 1461.2 1741.69 1468.33 Q1741.69 1475.44 1743.5 1479.01 Q1745.33 1482.55 1748.94 1482.55 Q1752.57 1482.55 1754.38 1479.01 Q1756.21 1475.44 1756.21 1468.33 Q1756.21 1461.2 1754.38 1457.66 Q1752.57 1454.1 1748.94 1454.1 M1748.94 1450.39 Q1754.75 1450.39 1757.81 1455 Q1760.88 1459.58 1760.88 1468.33 Q1760.88 1477.06 1757.81 1481.67 Q1754.75 1486.25 1748.94 1486.25 Q1743.13 1486.25 1740.05 1481.67 Q1737 1477.06 1737 1468.33 Q1737 1459.58 1740.05 1455 Q1743.13 1450.39 1748.94 1450.39 Z" fill="#000000" fill-rule="nonzero" fill-opacity="1" /><path clip-path="url(#clip630)" d="M1773.13 1481.64 L1789.45 1481.64 L1789.45 1485.58 L1767.5 1485.58 L1767.5 1481.64 Q1770.17 1478.89 1774.75 1474.26 Q1779.36 1469.61 1780.54 1468.27 Q1782.78 1465.74 1783.66 1464.01 Q1784.56 1462.25 1784.56 1460.56 Q1784.56 1457.8 1782.62 1456.07 Q1780.7 1454.33 1777.6 1454.33 Q1775.4 1454.33 1772.94 1455.09 Q1770.51 1455.86 1767.74 1457.41 L1767.74 1452.69 Q1770.56 1451.55 1773.01 1450.97 Q1775.47 1450.39 1777.5 1450.39 Q1782.87 1450.39 1786.07 1453.08 Q1789.26 1455.77 1789.26 1460.26 Q1789.26 1462.39 1788.45 1464.31 Q1787.67 1466.2 1785.56 1468.8 Q1784.98 1469.47 1781.88 1472.69 Q1778.78 1475.88 1773.13 1481.64 Z" fill="#000000" fill-rule="nonzero" fill-opacity="1" /><path clip-path="url(#clip630)" d="M1800.07 1481.64 L1807.71 1481.64 L1807.71 1455.28 L1799.4 1456.95 L1799.4 1452.69 L1807.67 1451.02 L1812.34 1451.02 L1812.34 1481.64 L1819.98 1481.64 L1819.98 1485.58 L1800.07 1485.58 L1800.07 1481.64 Z" fill="#000000" fill-rule="nonzero" fill-opacity="1" /><path clip-path="url(#clip630)" d="M1826.67 1470.7 L1839.15 1470.7 L1839.15 1474.49 L1826.67 1474.49 L1826.67 1470.7 Z" fill="#000000" fill-rule="nonzero" fill-opacity="1" /><path clip-path="url(#clip630)" d="M1847.34 1481.64 L1854.98 1481.64 L1854.98 1455.28 L1846.67 1456.95 L1846.67 1452.69 L1854.93 1451.02 L1859.61 1451.02 L1859.61 1481.64 L1867.25 1481.64 L1867.25 1485.58 L1847.34 1485.58 L1847.34 1481.64 Z" fill="#000000" fill-rule="nonzero" fill-opacity="1" /><path clip-path="url(#clip630)" d="M1886.69 1454.1 Q1883.08 1454.1 1881.25 1457.66 Q1879.45 1461.2 1879.45 1468.33 Q1879.45 1475.44 1881.25 1479.01 Q1883.08 1482.55 1886.69 1482.55 Q1890.33 1482.55 1892.13 1479.01 Q1893.96 1475.44 1893.96 1468.33 Q1893.96 1461.2 1892.13 1457.66 Q1890.33 1454.1 1886.69 1454.1 M1886.69 1450.39 Q1892.5 1450.39 1895.56 1455 Q1898.64 1459.58 1898.64 1468.33 Q1898.64 1477.06 1895.56 1481.67 Q1892.5 1486.25 1886.69 1486.25 Q1880.88 1486.25 1877.8 1481.67 Q1874.75 1477.06 1874.75 1468.33 Q1874.75 1459.58 1877.8 1455 Q1880.88 1450.39 1886.69 1450.39 Z" fill="#000000" fill-rule="nonzero" fill-opacity="1" /><path clip-path="url(#clip630)" d="M1904.1 1470.7 L1916.58 1470.7 L1916.58 1474.49 L1904.1 1474.49 L1904.1 1470.7 Z" fill="#000000" fill-rule="nonzero" fill-opacity="1" /><path clip-path="url(#clip630)" d="M1933.96 1454.1 Q1930.35 1454.1 1928.52 1457.66 Q1926.72 1461.2 1926.72 1468.33 Q1926.72 1475.44 1928.52 1479.01 Q1930.35 1482.55 1933.96 1482.55 Q1937.6 1482.55 1939.4 1479.01 Q1941.23 1475.44 1941.23 1468.33 Q1941.23 1461.2 1939.4 1457.66 Q1937.6 1454.1 1933.96 1454.1 M1933.96 1450.39 Q1939.77 1450.39 1942.83 1455 Q1945.91 1459.58 1945.91 1468.33 Q1945.91 1477.06 1942.83 1481.67 Q1939.77 1486.25 1933.96 1486.25 Q1928.15 1486.25 1925.07 1481.67 Q1922.02 1477.06 1922.02 1468.33 Q1922.02 1459.58 1925.07 1455 Q1928.15 1450.39 1933.96 1450.39 Z" fill="#000000" fill-rule="nonzero" fill-opacity="1" /><path clip-path="url(#clip630)" d="M1954.93 1481.64 L1962.57 1481.64 L1962.57 1455.28 L1954.26 1456.95 L1954.26 1452.69 L1962.53 1451.02 L1967.2 1451.02 L1967.2 1481.64 L1974.84 1481.64 L1974.84 1485.58 L1954.93 1485.58 L1954.93 1481.64 Z" fill="#000000" fill-rule="nonzero" fill-opacity="1" /><path clip-path="url(#clip630)" d="M1273.65 1537.81 L1273.65 1518.52 L1279.51 1518.52 L1279.51 1568.04 L1273.65 1568.04 L1273.65 1562.7 Q1271.81 1565.88 1268.97 1567.44 Q1266.17 1568.97 1262.23 1568.97 Q1255.77 1568.97 1251.69 1563.81 Q1247.65 1558.65 1247.65 1550.25 Q1247.65 1541.85 1251.69 1536.69 Q1255.77 1531.54 1262.23 1531.54 Q1266.17 1531.54 1268.97 1533.1 Q1271.81 1534.62 1273.65 1537.81 M1253.7 1550.25 Q1253.7 1556.71 1256.34 1560.4 Q1259.01 1564.07 1263.66 1564.07 Q1268.31 1564.07 1270.98 1560.4 Q1273.65 1556.71 1273.65 1550.25 Q1273.65 1543.79 1270.98 1540.13 Q1268.31 1536.44 1263.66 1536.44 Q1259.01 1536.44 1256.34 1540.13 Q1253.7 1543.79 1253.7 1550.25 Z" fill="#000000" fill-rule="nonzero" fill-opacity="1" /><path clip-path="url(#clip630)" d="M1307.77 1550.12 Q1300.68 1550.12 1297.94 1551.75 Q1295.2 1553.37 1295.2 1557.29 Q1295.2 1560.4 1297.24 1562.25 Q1299.31 1564.07 1302.84 1564.07 Q1307.71 1564.07 1310.64 1560.63 Q1313.6 1557.16 1313.6 1551.43 L1313.6 1550.12 L1307.77 1550.12 M1319.45 1547.71 L1319.45 1568.04 L1313.6 1568.04 L1313.6 1562.63 Q1311.59 1565.88 1308.6 1567.44 Q1305.61 1568.97 1301.28 1568.97 Q1295.81 1568.97 1292.56 1565.91 Q1289.34 1562.82 1289.34 1557.67 Q1289.34 1551.65 1293.36 1548.6 Q1297.4 1545.54 1305.39 1545.54 L1313.6 1545.54 L1313.6 1544.97 Q1313.6 1540.93 1310.92 1538.73 Q1308.28 1536.5 1303.48 1536.5 Q1300.42 1536.5 1297.52 1537.23 Q1294.63 1537.97 1291.95 1539.43 L1291.95 1534.02 Q1295.17 1532.78 1298.19 1532.17 Q1301.22 1531.54 1304.08 1531.54 Q1311.82 1531.54 1315.64 1535.55 Q1319.45 1539.56 1319.45 1547.71 Z" fill="#000000" fill-rule="nonzero" fill-opacity="1" /><path clip-path="url(#clip630)" d="M1337.31 1522.27 L1337.31 1532.4 L1349.37 1532.4 L1349.37 1536.95 L1337.31 1536.95 L1337.31 1556.3 Q1337.31 1560.66 1338.49 1561.9 Q1339.7 1563.14 1343.36 1563.14 L1349.37 1563.14 L1349.37 1568.04 L1343.36 1568.04 Q1336.58 1568.04 1334 1565.53 Q1331.42 1562.98 1331.42 1556.3 L1331.42 1536.95 L1327.13 1536.95 L1327.13 1532.4 L1331.42 1532.4 L1331.42 1522.27 L1337.31 1522.27 Z" fill="#000000" fill-rule="nonzero" fill-opacity="1" /><path clip-path="url(#clip630)" d="M1387.57 1548.76 L1387.57 1551.62 L1360.64 1551.62 Q1361.02 1557.67 1364.27 1560.85 Q1367.55 1564 1373.37 1564 Q1376.75 1564 1379.9 1563.17 Q1383.08 1562.35 1386.2 1560.69 L1386.2 1566.23 Q1383.05 1567.57 1379.74 1568.27 Q1376.43 1568.97 1373.02 1568.97 Q1364.49 1568.97 1359.5 1564 Q1354.53 1559.04 1354.53 1550.57 Q1354.53 1541.82 1359.24 1536.69 Q1363.98 1531.54 1372 1531.54 Q1379.2 1531.54 1383.37 1536.18 Q1387.57 1540.8 1387.57 1548.76 M1381.71 1547.04 Q1381.65 1542.23 1379.01 1539.37 Q1376.4 1536.5 1372.07 1536.5 Q1367.17 1536.5 1364.21 1539.27 Q1361.28 1542.04 1360.83 1547.07 L1381.71 1547.04 Z" fill="#000000" fill-rule="nonzero" fill-opacity="1" /><polyline clip-path="url(#clip632)" style="stroke:#000000; stroke-linecap:round; stroke-linejoin:round; stroke-width:2; stroke-opacity:0.1; fill:none" points="282.461,1112.96 2352.76,1112.96 "/>
<polyline clip-path="url(#clip632)" style="stroke:#000000; stroke-linecap:round; stroke-linejoin:round; stroke-width:2; stroke-opacity:0.1; fill:none" points="282.461,751.208 2352.76,751.208 "/>
<polyline clip-path="url(#clip632)" style="stroke:#000000; stroke-linecap:round; stroke-linejoin:round; stroke-width:2; stroke-opacity:0.1; fill:none" points="282.461,389.455 2352.76,389.455 "/>
<polyline clip-path="url(#clip630)" style="stroke:#000000; stroke-linecap:round; stroke-linejoin:round; stroke-width:4; stroke-opacity:1; fill:none" points="282.461,1423.18 282.461,123.472 "/>
<polyline clip-path="url(#clip630)" style="stroke:#000000; stroke-linecap:round; stroke-linejoin:round; stroke-width:4; stroke-opacity:1; fill:none" points="282.461,1112.96 301.359,1112.96 "/>
<polyline clip-path="url(#clip630)" style="stroke:#000000; stroke-linecap:round; stroke-linejoin:round; stroke-width:4; stroke-opacity:1; fill:none" points="282.461,751.208 301.359,751.208 "/>
<polyline clip-path="url(#clip630)" style="stroke:#000000; stroke-linecap:round; stroke-linejoin:round; stroke-width:4; stroke-opacity:1; fill:none" points="282.461,389.455 301.359,389.455 "/>
<path clip-path="url(#clip630)" d="M114.931 1132.75 L122.57 1132.75 L122.57 1106.39 L114.26 1108.05 L114.26 1103.79 L122.524 1102.13 L127.2 1102.13 L127.2 1132.75 L134.839 1132.75 L134.839 1136.69 L114.931 1136.69 L114.931 1132.75 Z" fill="#000000" fill-rule="nonzero" fill-opacity="1" /><path clip-path="url(#clip630)" d="M154.283 1105.21 Q150.672 1105.21 148.843 1108.77 Q147.038 1112.31 147.038 1119.44 Q147.038 1126.55 148.843 1130.11 Q150.672 1133.66 154.283 1133.66 Q157.917 1133.66 159.723 1130.11 Q161.552 1126.55 161.552 1119.44 Q161.552 1112.31 159.723 1108.77 Q157.917 1105.21 154.283 1105.21 M154.283 1101.5 Q160.093 1101.5 163.149 1106.11 Q166.227 1110.69 166.227 1119.44 Q166.227 1128.17 163.149 1132.78 Q160.093 1137.36 154.283 1137.36 Q148.473 1137.36 145.394 1132.78 Q142.339 1128.17 142.339 1119.44 Q142.339 1110.69 145.394 1106.11 Q148.473 1101.5 154.283 1101.5 Z" fill="#000000" fill-rule="nonzero" fill-opacity="1" /><path clip-path="url(#clip630)" d="M167.412 1081.2 L182.327 1081.2 L182.327 1084.4 L170.892 1084.4 L170.892 1091.28 Q171.719 1091 172.547 1090.87 Q173.374 1090.71 174.202 1090.71 Q178.904 1090.71 181.65 1093.29 Q184.396 1095.87 184.396 1100.27 Q184.396 1104.8 181.575 1107.32 Q178.753 1109.82 173.619 1109.82 Q171.851 1109.82 170.008 1109.52 Q168.183 1109.22 166.227 1108.62 L166.227 1104.8 Q167.92 1105.72 169.726 1106.17 Q171.531 1106.63 173.544 1106.63 Q176.797 1106.63 178.697 1104.91 Q180.597 1103.2 180.597 1100.27 Q180.597 1097.33 178.697 1095.62 Q176.797 1093.91 173.544 1093.91 Q172.02 1093.91 170.497 1094.25 Q168.992 1094.59 167.412 1095.3 L167.412 1081.2 Z" fill="#000000" fill-rule="nonzero" fill-opacity="1" /><path clip-path="url(#clip630)" d="M191.881 1104.5 L195.85 1104.5 L195.85 1109.28 L191.881 1109.28 L191.881 1104.5 Z" fill="#000000" fill-rule="nonzero" fill-opacity="1" /><path clip-path="url(#clip630)" d="M212.25 1083.7 Q209.316 1083.7 207.83 1086.6 Q206.363 1089.47 206.363 1095.27 Q206.363 1101.04 207.83 1103.94 Q209.316 1106.81 212.25 1106.81 Q215.203 1106.81 216.67 1103.94 Q218.156 1101.04 218.156 1095.27 Q218.156 1089.47 216.67 1086.6 Q215.203 1083.7 212.25 1083.7 M212.25 1080.69 Q216.971 1080.69 219.453 1084.43 Q221.955 1088.16 221.955 1095.27 Q221.955 1102.36 219.453 1106.1 Q216.971 1109.82 212.25 1109.82 Q207.529 1109.82 205.028 1106.1 Q202.545 1102.36 202.545 1095.27 Q202.545 1088.16 205.028 1084.43 Q207.529 1080.69 212.25 1080.69 Z" fill="#000000" fill-rule="nonzero" fill-opacity="1" /><path clip-path="url(#clip630)" d="M236.757 1083.7 Q233.823 1083.7 232.337 1086.6 Q230.87 1089.47 230.87 1095.27 Q230.87 1101.04 232.337 1103.94 Q233.823 1106.81 236.757 1106.81 Q239.709 1106.81 241.176 1103.94 Q242.662 1101.04 242.662 1095.27 Q242.662 1089.47 241.176 1086.6 Q239.709 1083.7 236.757 1083.7 M236.757 1080.69 Q241.477 1080.69 243.96 1084.43 Q246.461 1088.16 246.461 1095.27 Q246.461 1102.36 243.96 1106.1 Q241.477 1109.82 236.757 1109.82 Q232.036 1109.82 229.534 1106.1 Q227.052 1102.36 227.052 1095.27 Q227.052 1088.16 229.534 1084.43 Q232.036 1080.69 236.757 1080.69 Z" fill="#000000" fill-rule="nonzero" fill-opacity="1" /><path clip-path="url(#clip630)" d="M115.74 771 L123.379 771 L123.379 744.635 L115.069 746.302 L115.069 742.042 L123.333 740.376 L128.009 740.376 L128.009 771 L135.647 771 L135.647 774.936 L115.74 774.936 L115.74 771 Z" fill="#000000" fill-rule="nonzero" fill-opacity="1" /><path clip-path="url(#clip630)" d="M155.092 743.454 Q151.481 743.454 149.652 747.019 Q147.846 750.561 147.846 757.69 Q147.846 764.797 149.652 768.362 Q151.481 771.903 155.092 771.903 Q158.726 771.903 160.532 768.362 Q162.36 764.797 162.36 757.69 Q162.36 750.561 160.532 747.019 Q158.726 743.454 155.092 743.454 M155.092 739.751 Q160.902 739.751 163.958 744.357 Q167.036 748.94 167.036 757.69 Q167.036 766.417 163.958 771.024 Q160.902 775.607 155.092 775.607 Q149.282 775.607 146.203 771.024 Q143.147 766.417 143.147 757.69 Q143.147 748.94 146.203 744.357 Q149.282 739.751 155.092 739.751 Z" fill="#000000" fill-rule="nonzero" fill-opacity="1" /><path clip-path="url(#clip630)" d="M168.221 719.445 L183.136 719.445 L183.136 722.643 L171.701 722.643 L171.701 729.526 Q172.528 729.244 173.356 729.112 Q174.183 728.962 175.011 728.962 Q179.713 728.962 182.459 731.539 Q185.205 734.115 185.205 738.516 Q185.205 743.049 182.383 745.569 Q179.562 748.071 174.428 748.071 Q172.66 748.071 170.817 747.77 Q168.992 747.469 167.036 746.867 L167.036 743.049 Q168.729 743.971 170.534 744.422 Q172.34 744.873 174.352 744.873 Q177.606 744.873 179.506 743.162 Q181.405 741.45 181.405 738.516 Q181.405 735.582 179.506 733.871 Q177.606 732.159 174.352 732.159 Q172.829 732.159 171.306 732.498 Q169.801 732.836 168.221 733.551 L168.221 719.445 Z" fill="#000000" fill-rule="nonzero" fill-opacity="1" /><path clip-path="url(#clip630)" d="M192.69 742.748 L196.658 742.748 L196.658 747.525 L192.69 747.525 L192.69 742.748 Z" fill="#000000" fill-rule="nonzero" fill-opacity="1" /><path clip-path="url(#clip630)" d="M208.206 744.328 L221.466 744.328 L221.466 747.525 L203.636 747.525 L203.636 744.328 Q205.799 742.09 209.523 738.328 Q213.266 734.548 214.225 733.457 Q216.049 731.407 216.764 729.996 Q217.497 728.567 217.497 727.194 Q217.497 724.956 215.918 723.545 Q214.357 722.135 211.836 722.135 Q210.05 722.135 208.056 722.755 Q206.081 723.376 203.824 724.636 L203.824 720.799 Q206.119 719.878 208.112 719.408 Q210.106 718.937 211.761 718.937 Q216.124 718.937 218.72 721.119 Q221.315 723.301 221.315 726.95 Q221.315 728.68 220.657 730.241 Q220.018 731.783 218.306 733.89 Q217.836 734.435 215.316 737.049 Q212.796 739.645 208.206 744.328 Z" fill="#000000" fill-rule="nonzero" fill-opacity="1" /><path clip-path="url(#clip630)" d="M229.478 719.445 L244.393 719.445 L244.393 722.643 L232.957 722.643 L232.957 729.526 Q233.785 729.244 234.613 729.112 Q235.44 728.962 236.268 728.962 Q240.97 728.962 243.715 731.539 Q246.461 734.115 246.461 738.516 Q246.461 743.049 243.64 745.569 Q240.819 748.071 235.685 748.071 Q233.917 748.071 232.073 747.77 Q230.249 747.469 228.293 746.867 L228.293 743.049 Q229.986 743.971 231.791 744.422 Q233.597 744.873 235.609 744.873 Q238.863 744.873 240.763 743.162 Q242.662 741.45 242.662 738.516 Q242.662 735.582 240.763 733.871 Q238.863 732.159 235.609 732.159 Q234.086 732.159 232.562 732.498 Q231.058 732.836 229.478 733.551 L229.478 719.445 Z" fill="#000000" fill-rule="nonzero" fill-opacity="1" /><path clip-path="url(#clip630)" d="M114.931 409.248 L122.57 409.248 L122.57 382.882 L114.26 384.549 L114.26 380.29 L122.524 378.623 L127.2 378.623 L127.2 409.248 L134.839 409.248 L134.839 413.183 L114.931 413.183 L114.931 409.248 Z" fill="#000000" fill-rule="nonzero" fill-opacity="1" /><path clip-path="url(#clip630)" d="M154.283 381.702 Q150.672 381.702 148.843 385.267 Q147.038 388.808 147.038 395.938 Q147.038 403.044 148.843 406.609 Q150.672 410.151 154.283 410.151 Q157.917 410.151 159.723 406.609 Q161.552 403.044 161.552 395.938 Q161.552 388.808 159.723 385.267 Q157.917 381.702 154.283 381.702 M154.283 377.998 Q160.093 377.998 163.149 382.605 Q166.227 387.188 166.227 395.938 Q166.227 404.665 163.149 409.271 Q160.093 413.854 154.283 413.854 Q148.473 413.854 145.394 409.271 Q142.339 404.665 142.339 395.938 Q142.339 387.188 145.394 382.605 Q148.473 377.998 154.283 377.998 Z" fill="#000000" fill-rule="nonzero" fill-opacity="1" /><path clip-path="url(#clip630)" d="M167.412 357.693 L182.327 357.693 L182.327 360.89 L170.892 360.89 L170.892 367.774 Q171.719 367.492 172.547 367.36 Q173.374 367.209 174.202 367.209 Q178.904 367.209 181.65 369.786 Q184.396 372.363 184.396 376.764 Q184.396 381.296 181.575 383.817 Q178.753 386.318 173.619 386.318 Q171.851 386.318 170.008 386.017 Q168.183 385.716 166.227 385.114 L166.227 381.296 Q167.92 382.218 169.726 382.669 Q171.531 383.121 173.544 383.121 Q176.797 383.121 178.697 381.409 Q180.597 379.698 180.597 376.764 Q180.597 373.83 178.697 372.118 Q176.797 370.407 173.544 370.407 Q172.02 370.407 170.497 370.745 Q168.992 371.084 167.412 371.799 L167.412 357.693 Z" fill="#000000" fill-rule="nonzero" fill-opacity="1" /><path clip-path="url(#clip630)" d="M191.881 380.996 L195.85 380.996 L195.85 385.773 L191.881 385.773 L191.881 380.996 Z" fill="#000000" fill-rule="nonzero" fill-opacity="1" /><path clip-path="url(#clip630)" d="M204.163 357.693 L219.077 357.693 L219.077 360.89 L207.642 360.89 L207.642 367.774 Q208.47 367.492 209.297 367.36 Q210.125 367.209 210.952 367.209 Q215.654 367.209 218.4 369.786 Q221.146 372.363 221.146 376.764 Q221.146 381.296 218.325 383.817 Q215.504 386.318 210.369 386.318 Q208.601 386.318 206.758 386.017 Q204.934 385.716 202.978 385.114 L202.978 381.296 Q204.671 382.218 206.476 382.669 Q208.282 383.121 210.294 383.121 Q213.548 383.121 215.447 381.409 Q217.347 379.698 217.347 376.764 Q217.347 373.83 215.447 372.118 Q213.548 370.407 210.294 370.407 Q208.771 370.407 207.247 370.745 Q205.743 371.084 204.163 371.799 L204.163 357.693 Z" fill="#000000" fill-rule="nonzero" fill-opacity="1" /><path clip-path="url(#clip630)" d="M236.757 360.194 Q233.823 360.194 232.337 363.091 Q230.87 365.968 230.87 371.761 Q230.87 377.535 232.337 380.431 Q233.823 383.309 236.757 383.309 Q239.709 383.309 241.176 380.431 Q242.662 377.535 242.662 371.761 Q242.662 365.968 241.176 363.091 Q239.709 360.194 236.757 360.194 M236.757 357.185 Q241.477 357.185 243.96 360.928 Q246.461 364.652 246.461 371.761 Q246.461 378.851 243.96 382.594 Q241.477 386.318 236.757 386.318 Q232.036 386.318 229.534 382.594 Q227.052 378.851 227.052 371.761 Q227.052 364.652 229.534 360.928 Q232.036 357.185 236.757 357.185 Z" fill="#000000" fill-rule="nonzero" fill-opacity="1" /><path clip-path="url(#clip630)" d="M21.7677 1084.27 L39.6235 1084.27 L39.6235 1076.19 Q39.6235 1071.7 37.3 1069.25 Q34.9765 1066.8 30.6797 1066.8 Q26.4147 1066.8 24.0912 1069.25 Q21.7677 1071.7 21.7677 1076.19 L21.7677 1084.27 M16.4842 1090.7 L16.4842 1076.19 Q16.4842 1068.2 20.1126 1064.13 Q23.7092 1060.02 30.6797 1060.02 Q37.7138 1060.02 41.3104 1064.13 Q44.907 1068.2 44.907 1076.19 L44.907 1084.27 L64.0042 1084.27 L64.0042 1090.7 L16.4842 1090.7 Z" fill="#000000" fill-rule="nonzero" fill-opacity="1" /><path clip-path="url(#clip630)" d="M32.4621 1040.16 Q32.4621 1044.87 36.1542 1047.61 Q39.8145 1050.35 46.212 1050.35 Q52.6095 1050.35 56.3017 1047.64 Q59.9619 1044.9 59.9619 1040.16 Q59.9619 1035.48 56.2698 1032.74 Q52.5777 1030.01 46.212 1030.01 Q39.8781 1030.01 36.186 1032.74 Q32.4621 1035.48 32.4621 1040.16 M27.4968 1040.16 Q27.4968 1032.52 32.4621 1028.16 Q37.4273 1023.8 46.212 1023.8 Q54.9649 1023.8 59.9619 1028.16 Q64.9272 1032.52 64.9272 1040.16 Q64.9272 1047.83 59.9619 1052.19 Q54.9649 1056.52 46.212 1056.52 Q37.4273 1056.52 32.4621 1052.19 Q27.4968 1047.83 27.4968 1040.16 Z" fill="#000000" fill-rule="nonzero" fill-opacity="1" /><path clip-path="url(#clip630)" d="M33.8307 993.436 Q33.2578 994.423 33.0032 995.601 Q32.7167 996.746 32.7167 998.147 Q32.7167 1003.11 35.9632 1005.79 Q39.1779 1008.43 45.2253 1008.43 L64.0042 1008.43 L64.0042 1014.32 L28.3562 1014.32 L28.3562 1008.43 L33.8944 1008.43 Q30.6479 1006.58 29.0883 1003.62 Q27.4968 1000.66 27.4968 996.428 Q27.4968 995.823 27.5923 995.091 Q27.656 994.359 27.8151 993.468 L33.8307 993.436 Z" fill="#000000" fill-rule="nonzero" fill-opacity="1" /><path clip-path="url(#clip630)" d="M18.2347 981.501 L28.3562 981.501 L28.3562 969.437 L32.9077 969.437 L32.9077 981.501 L52.2594 981.501 Q56.6199 981.501 57.8613 980.323 Q59.1026 979.113 59.1026 975.453 L59.1026 969.437 L64.0042 969.437 L64.0042 975.453 Q64.0042 982.233 61.4897 984.811 Q58.9434 987.389 52.2594 987.389 L32.9077 987.389 L32.9077 991.686 L28.3562 991.686 L28.3562 987.389 L18.2347 987.389 L18.2347 981.501 Z" fill="#000000" fill-rule="nonzero" fill-opacity="1" /><path clip-path="url(#clip630)" d="M14.479 943.688 L19.3487 943.688 L19.3487 949.29 Q19.3487 952.441 20.6219 953.682 Q21.895 954.892 25.2052 954.892 L28.3562 954.892 L28.3562 945.248 L32.9077 945.248 L32.9077 954.892 L64.0042 954.892 L64.0042 960.78 L32.9077 960.78 L32.9077 966.382 L28.3562 966.382 L28.3562 960.78 L25.8736 960.78 Q19.9216 960.78 17.2162 958.011 Q14.479 955.242 14.479 949.226 L14.479 943.688 Z" fill="#000000" fill-rule="nonzero" fill-opacity="1" /><path clip-path="url(#clip630)" d="M32.4621 924.973 Q32.4621 929.684 36.1542 932.421 Q39.8145 935.158 46.212 935.158 Q52.6095 935.158 56.3017 932.453 Q59.9619 929.715 59.9619 924.973 Q59.9619 920.294 56.2698 917.557 Q52.5777 914.82 46.212 914.82 Q39.8781 914.82 36.186 917.557 Q32.4621 920.294 32.4621 924.973 M27.4968 924.973 Q27.4968 917.334 32.4621 912.974 Q37.4273 908.613 46.212 908.613 Q54.9649 908.613 59.9619 912.974 Q64.9272 917.334 64.9272 924.973 Q64.9272 932.644 59.9619 937.004 Q54.9649 941.333 46.212 941.333 Q37.4273 941.333 32.4621 937.004 Q27.4968 932.644 27.4968 924.973 Z" fill="#000000" fill-rule="nonzero" fill-opacity="1" /><path clip-path="url(#clip630)" d="M14.479 898.905 L14.479 893.049 L64.0042 893.049 L64.0042 898.905 L14.479 898.905 Z" fill="#000000" fill-rule="nonzero" fill-opacity="1" /><path clip-path="url(#clip630)" d="M28.3562 880.795 L28.3562 874.939 L64.0042 874.939 L64.0042 880.795 L28.3562 880.795 M14.479 880.795 L14.479 874.939 L21.895 874.939 L21.895 880.795 L14.479 880.795 Z" fill="#000000" fill-rule="nonzero" fill-opacity="1" /><path clip-path="url(#clip630)" d="M32.4621 848.871 Q32.4621 853.582 36.1542 856.319 Q39.8145 859.056 46.212 859.056 Q52.6095 859.056 56.3017 856.351 Q59.9619 853.613 59.9619 848.871 Q59.9619 844.192 56.2698 841.455 Q52.5777 838.718 46.212 838.718 Q39.8781 838.718 36.186 841.455 Q32.4621 844.192 32.4621 848.871 M27.4968 848.871 Q27.4968 841.232 32.4621 836.872 Q37.4273 832.511 46.212 832.511 Q54.9649 832.511 59.9619 836.872 Q64.9272 841.232 64.9272 848.871 Q64.9272 856.542 59.9619 860.902 Q54.9649 865.231 46.212 865.231 Q37.4273 865.231 32.4621 860.902 Q27.4968 856.542 27.4968 848.871 Z" fill="#000000" fill-rule="nonzero" fill-opacity="1" /><path clip-path="url(#clip630)" d="M64.0042 789.574 L16.4842 807.717 L16.4842 801.001 L56.4926 785.946 L16.4842 770.859 L16.4842 764.175 L64.0042 782.286 L64.0042 789.574 Z" fill="#000000" fill-rule="nonzero" fill-opacity="1" /><path clip-path="url(#clip630)" d="M46.0847 746.351 Q46.0847 753.449 47.7079 756.186 Q49.3312 758.924 53.2461 758.924 Q56.3653 758.924 58.2114 756.887 Q60.0256 754.818 60.0256 751.285 Q60.0256 746.415 56.5881 743.487 Q53.1188 740.527 47.3897 740.527 L46.0847 740.527 L46.0847 746.351 M43.6657 734.67 L64.0042 734.67 L64.0042 740.527 L58.5933 740.527 Q61.8398 742.532 63.3994 745.524 Q64.9272 748.516 64.9272 752.844 Q64.9272 758.319 61.8716 761.565 Q58.7843 764.78 53.6281 764.78 Q47.6125 764.78 44.5569 760.77 Q41.5014 756.727 41.5014 748.738 L41.5014 740.527 L40.9285 740.527 Q36.8862 740.527 34.6901 743.2 Q32.4621 745.842 32.4621 750.648 Q32.4621 753.704 33.1941 756.6 Q33.9262 759.496 35.3903 762.17 L29.9795 762.17 Q28.7381 758.955 28.1334 755.932 Q27.4968 752.908 27.4968 750.043 Q27.4968 742.309 31.5072 738.49 Q35.5176 734.67 43.6657 734.67 Z" fill="#000000" fill-rule="nonzero" fill-opacity="1" /><path clip-path="url(#clip630)" d="M14.479 722.607 L14.479 716.751 L64.0042 716.751 L64.0042 722.607 L14.479 722.607 Z" fill="#000000" fill-rule="nonzero" fill-opacity="1" /><path clip-path="url(#clip630)" d="M49.9359 705.102 L28.3562 705.102 L28.3562 699.245 L49.7131 699.245 Q54.7739 699.245 57.3202 697.272 Q59.8346 695.298 59.8346 691.352 Q59.8346 686.609 56.8109 683.872 Q53.7872 681.103 48.5673 681.103 L28.3562 681.103 L28.3562 675.246 L64.0042 675.246 L64.0042 681.103 L58.5296 681.103 Q61.7762 683.235 63.3676 686.068 Q64.9272 688.869 64.9272 692.593 Q64.9272 698.736 61.1078 701.919 Q57.2883 705.102 49.9359 705.102 M27.4968 690.365 L27.4968 690.365 Z" fill="#000000" fill-rule="nonzero" fill-opacity="1" /><path clip-path="url(#clip630)" d="M44.7161 632.692 L47.5806 632.692 L47.5806 659.619 Q53.6281 659.237 56.8109 655.99 Q59.9619 652.712 59.9619 646.887 Q59.9619 643.513 59.1344 640.362 Q58.3069 637.179 56.6518 634.06 L62.1899 634.06 Q63.5267 637.211 64.227 640.521 Q64.9272 643.832 64.9272 647.237 Q64.9272 655.767 59.9619 660.764 Q54.9967 665.73 46.5303 665.73 Q37.7774 665.73 32.6531 661.019 Q27.4968 656.277 27.4968 648.256 Q27.4968 641.063 32.1438 636.893 Q36.7589 632.692 44.7161 632.692 M42.9973 638.548 Q38.1912 638.612 35.3266 641.253 Q32.4621 643.863 32.4621 648.192 Q32.4621 653.094 35.2312 656.054 Q38.0002 658.982 43.0292 659.428 L42.9973 638.548 Z" fill="#000000" fill-rule="nonzero" fill-opacity="1" /><path clip-path="url(#clip630)" d="M43.5384 605.319 L43.5384 588.163 L48.7583 588.163 L48.7583 605.319 L43.5384 605.319 Z" fill="#000000" fill-rule="nonzero" fill-opacity="1" /><path clip-path="url(#clip630)" d="M16.4842 558.595 L16.4842 552.134 L45.3526 552.134 Q52.9915 552.134 56.3653 549.365 Q59.7073 546.595 59.7073 540.389 Q59.7073 534.214 56.3653 531.445 Q52.9915 528.676 45.3526 528.676 L16.4842 528.676 L16.4842 522.215 L46.1484 522.215 Q55.4423 522.215 60.1847 526.83 Q64.9272 531.413 64.9272 540.389 Q64.9272 549.396 60.1847 554.011 Q55.4423 558.595 46.1484 558.595 L16.4842 558.595 Z" fill="#000000" fill-rule="nonzero" fill-opacity="1" /><path clip-path="url(#clip630)" d="M18.0438 481.665 L24.314 481.665 Q22.5634 485.326 21.704 488.572 Q20.8447 491.819 20.8447 494.842 Q20.8447 500.094 22.8817 502.959 Q24.9187 505.791 28.6745 505.791 Q31.8255 505.791 33.4488 503.913 Q35.0402 502.004 36.0269 496.72 L36.8226 492.837 Q38.1912 485.644 41.6605 482.238 Q45.098 478.801 50.8908 478.801 Q57.7976 478.801 61.3624 483.448 Q64.9272 488.063 64.9272 497.007 Q64.9272 500.38 64.1633 504.2 Q63.3994 507.987 61.9035 512.061 L55.2831 512.061 Q57.4793 508.147 58.5933 504.391 Q59.7073 500.635 59.7073 497.007 Q59.7073 491.5 57.543 488.508 Q55.3786 485.516 51.3682 485.516 Q47.8671 485.516 45.8937 487.681 Q43.9204 489.813 42.9337 494.715 L42.1698 498.63 Q40.7375 505.823 37.682 509.038 Q34.6264 512.252 29.1837 512.252 Q22.8817 512.252 19.2532 507.828 Q15.6248 503.372 15.6248 495.574 Q15.6248 492.232 16.2295 488.763 Q16.8343 485.294 18.0438 481.665 Z" fill="#000000" fill-rule="nonzero" fill-opacity="1" /><path clip-path="url(#clip630)" d="M21.7677 462.345 L58.7206 462.345 L58.7206 454.579 Q58.7206 444.744 54.2646 440.193 Q49.8086 435.609 40.1964 435.609 Q30.6479 435.609 26.2237 440.193 Q21.7677 444.744 21.7677 454.579 L21.7677 462.345 M16.4842 468.775 L16.4842 455.566 Q16.4842 441.752 22.2451 435.291 Q27.9743 428.83 40.1964 428.83 Q52.4822 428.83 58.2432 435.323 Q64.0042 441.816 64.0042 455.566 L64.0042 468.775 L16.4842 468.775 Z" fill="#000000" fill-rule="nonzero" fill-opacity="1" /><path clip-path="url(#clip630)" d="M317.886 18.8205 L317.886 41.5461 L328.175 41.5461 Q333.887 41.5461 337.006 38.5889 Q340.125 35.6318 340.125 30.163 Q340.125 24.7348 337.006 21.7777 Q333.887 18.8205 328.175 18.8205 L317.886 18.8205 M309.703 12.096 L328.175 12.096 Q338.343 12.096 343.528 16.714 Q348.754 21.2916 348.754 30.163 Q348.754 39.1155 343.528 43.6931 Q338.343 48.2706 328.175 48.2706 L317.886 48.2706 L317.886 72.576 L309.703 72.576 L309.703 12.096 Z" fill="#000000" fill-rule="nonzero" fill-opacity="1" /><path clip-path="url(#clip630)" d="M374.032 32.4315 Q368.036 32.4315 364.552 37.1306 Q361.069 41.7891 361.069 49.9314 Q361.069 58.0738 364.512 62.7728 Q367.996 67.4314 374.032 67.4314 Q379.986 67.4314 383.47 62.7323 Q386.954 58.0333 386.954 49.9314 Q386.954 41.8701 383.47 37.1711 Q379.986 32.4315 374.032 32.4315 M374.032 26.1121 Q383.754 26.1121 389.303 32.4315 Q394.853 38.7509 394.853 49.9314 Q394.853 61.0714 389.303 67.4314 Q383.754 73.7508 374.032 73.7508 Q364.269 73.7508 358.719 67.4314 Q353.21 61.0714 353.21 49.9314 Q353.21 38.7509 358.719 32.4315 Q364.269 26.1121 374.032 26.1121 Z" fill="#000000" fill-rule="nonzero" fill-opacity="1" /><path clip-path="url(#clip630)" d="M433.499 34.1734 Q432.243 33.4443 430.744 33.1202 Q429.286 32.7556 427.503 32.7556 Q421.184 32.7556 417.781 36.8875 Q414.419 40.9789 414.419 48.6757 L414.419 72.576 L406.925 72.576 L406.925 27.2059 L414.419 27.2059 L414.419 34.2544 Q416.769 30.1225 420.536 28.1376 Q424.303 26.1121 429.691 26.1121 Q430.461 26.1121 431.392 26.2337 Q432.324 26.3147 433.458 26.5172 L433.499 34.1734 Z" fill="#000000" fill-rule="nonzero" fill-opacity="1" /><path clip-path="url(#clip630)" d="M448.69 14.324 L448.69 27.2059 L464.043 27.2059 L464.043 32.9987 L448.69 32.9987 L448.69 57.6282 Q448.69 63.1779 450.189 64.7578 Q451.728 66.3376 456.386 66.3376 L464.043 66.3376 L464.043 72.576 L456.386 72.576 Q447.758 72.576 444.477 69.3758 Q441.196 66.1351 441.196 57.6282 L441.196 32.9987 L435.727 32.9987 L435.727 27.2059 L441.196 27.2059 L441.196 14.324 L448.69 14.324 Z" fill="#000000" fill-rule="nonzero" fill-opacity="1" /><path clip-path="url(#clip630)" d="M496.814 9.54393 L496.814 15.7418 L489.685 15.7418 Q485.674 15.7418 484.095 17.3622 Q482.555 18.9825 482.555 23.1955 L482.555 27.2059 L494.83 27.2059 L494.83 32.9987 L482.555 32.9987 L482.555 72.576 L475.061 72.576 L475.061 32.9987 L467.932 32.9987 L467.932 27.2059 L475.061 27.2059 L475.061 24.0462 Q475.061 16.471 478.585 13.0277 Q482.11 9.54393 489.766 9.54393 L496.814 9.54393 Z" fill="#000000" fill-rule="nonzero" fill-opacity="1" /><path clip-path="url(#clip630)" d="M520.634 32.4315 Q514.638 32.4315 511.155 37.1306 Q507.671 41.7891 507.671 49.9314 Q507.671 58.0738 511.114 62.7728 Q514.598 67.4314 520.634 67.4314 Q526.589 67.4314 530.072 62.7323 Q533.556 58.0333 533.556 49.9314 Q533.556 41.8701 530.072 37.1711 Q526.589 32.4315 520.634 32.4315 M520.634 26.1121 Q530.356 26.1121 535.906 32.4315 Q541.455 38.7509 541.455 49.9314 Q541.455 61.0714 535.906 67.4314 Q530.356 73.7508 520.634 73.7508 Q510.871 73.7508 505.321 67.4314 Q499.812 61.0714 499.812 49.9314 Q499.812 38.7509 505.321 32.4315 Q510.871 26.1121 520.634 26.1121 Z" fill="#000000" fill-rule="nonzero" fill-opacity="1" /><path clip-path="url(#clip630)" d="M553.811 9.54393 L561.264 9.54393 L561.264 72.576 L553.811 72.576 L553.811 9.54393 Z" fill="#000000" fill-rule="nonzero" fill-opacity="1" /><path clip-path="url(#clip630)" d="M576.86 27.2059 L584.314 27.2059 L584.314 72.576 L576.86 72.576 L576.86 27.2059 M576.86 9.54393 L584.314 9.54393 L584.314 18.9825 L576.86 18.9825 L576.86 9.54393 Z" fill="#000000" fill-rule="nonzero" fill-opacity="1" /><path clip-path="url(#clip630)" d="M617.491 32.4315 Q611.496 32.4315 608.012 37.1306 Q604.528 41.7891 604.528 49.9314 Q604.528 58.0738 607.971 62.7728 Q611.455 67.4314 617.491 67.4314 Q623.446 67.4314 626.929 62.7323 Q630.413 58.0333 630.413 49.9314 Q630.413 41.8701 626.929 37.1711 Q623.446 32.4315 617.491 32.4315 M617.491 26.1121 Q627.213 26.1121 632.763 32.4315 Q638.313 38.7509 638.313 49.9314 Q638.313 61.0714 632.763 67.4314 Q627.213 73.7508 617.491 73.7508 Q607.728 73.7508 602.178 67.4314 Q596.669 61.0714 596.669 49.9314 Q596.669 38.7509 602.178 32.4315 Q607.728 26.1121 617.491 26.1121 Z" fill="#000000" fill-rule="nonzero" fill-opacity="1" /><path clip-path="url(#clip630)" d="M692.959 72.576 L669.869 12.096 L678.416 12.096 L697.577 63.0159 L716.779 12.096 L725.285 12.096 L702.236 72.576 L692.959 72.576 Z" fill="#000000" fill-rule="nonzero" fill-opacity="1" /><path clip-path="url(#clip630)" d="M747.971 49.7694 Q738.937 49.7694 735.453 51.8354 Q731.969 53.9013 731.969 58.8839 Q731.969 62.8538 734.562 65.2034 Q737.195 67.5124 741.692 67.5124 Q747.889 67.5124 751.616 63.1374 Q755.384 58.7219 755.384 51.4303 L755.384 49.7694 L747.971 49.7694 M762.837 46.6907 L762.837 72.576 L755.384 72.576 L755.384 65.6895 Q752.832 69.8214 749.024 71.8063 Q745.216 73.7508 739.707 73.7508 Q732.739 73.7508 728.607 69.8619 Q724.516 65.9325 724.516 59.3701 Q724.516 51.7138 729.62 47.825 Q734.765 43.9361 744.932 43.9361 L755.384 43.9361 L755.384 43.2069 Q755.384 38.0623 751.981 35.2672 Q748.619 32.4315 742.502 32.4315 Q738.613 32.4315 734.927 33.3632 Q731.24 34.295 727.838 36.1584 L727.838 29.2718 Q731.929 27.692 735.777 26.9223 Q739.626 26.1121 743.271 26.1121 Q753.115 26.1121 757.976 31.2163 Q762.837 36.3204 762.837 46.6907 Z" fill="#000000" fill-rule="nonzero" fill-opacity="1" /><path clip-path="url(#clip630)" d="M778.19 9.54393 L785.644 9.54393 L785.644 72.576 L778.19 72.576 L778.19 9.54393 Z" fill="#000000" fill-rule="nonzero" fill-opacity="1" /><path clip-path="url(#clip630)" d="M800.47 54.671 L800.47 27.2059 L807.924 27.2059 L807.924 54.3874 Q807.924 60.8284 810.435 64.0691 Q812.947 67.2693 817.97 67.2693 Q824.006 67.2693 827.49 63.421 Q831.014 59.5726 831.014 52.9291 L831.014 27.2059 L838.468 27.2059 L838.468 72.576 L831.014 72.576 L831.014 65.6084 Q828.3 69.7404 824.695 71.7658 Q821.13 73.7508 816.39 73.7508 Q808.572 73.7508 804.521 68.8897 Q800.47 64.0286 800.47 54.671 M819.226 26.1121 L819.226 26.1121 Z" fill="#000000" fill-rule="nonzero" fill-opacity="1" /><path clip-path="url(#clip630)" d="M892.628 48.0275 L892.628 51.6733 L858.358 51.6733 Q858.844 59.3701 862.976 63.421 Q867.148 67.4314 874.561 67.4314 Q878.855 67.4314 882.866 66.3781 Q886.917 65.3249 890.886 63.2184 L890.886 70.267 Q886.876 71.9684 882.663 72.8596 Q878.45 73.7508 874.116 73.7508 Q863.259 73.7508 856.899 67.4314 Q850.58 61.1119 850.58 50.3365 Q850.58 39.1965 856.575 32.6746 Q862.611 26.1121 872.819 26.1121 Q881.974 26.1121 887.281 32.0264 Q892.628 37.9003 892.628 48.0275 M885.175 45.84 Q885.094 39.7232 881.731 36.0774 Q878.41 32.4315 872.9 32.4315 Q866.662 32.4315 862.895 35.9558 Q859.168 39.4801 858.601 45.8805 L885.175 45.84 Z" fill="#000000" fill-rule="nonzero" fill-opacity="1" /><path clip-path="url(#clip630)" d="M906.766 62.2867 L915.313 62.2867 L915.313 72.576 L906.766 72.576 L906.766 62.2867 M906.766 29.6769 L915.313 29.6769 L915.313 39.9662 L906.766 39.9662 L906.766 29.6769 Z" fill="#000000" fill-rule="nonzero" fill-opacity="1" /><path clip-path="url(#clip630)" d="M959.509 12.096 L971.702 12.096 L987.136 53.2532 L1002.65 12.096 L1014.84 12.096 L1014.84 72.576 L1006.86 72.576 L1006.86 19.4686 L991.268 60.9499 L983.044 60.9499 L967.449 19.4686 L967.449 72.576 L959.509 72.576 L959.509 12.096 Z" fill="#000000" fill-rule="nonzero" fill-opacity="1" /><path clip-path="url(#clip630)" d="M1046.68 72.576 L1023.59 12.096 L1032.14 12.096 L1051.3 63.0159 L1070.5 12.096 L1079.01 12.096 L1055.96 72.576 L1046.68 72.576 Z" fill="#000000" fill-rule="nonzero" fill-opacity="1" /><path clip-path="url(#clip630)" d="M1078.89 46.5287 L1100.72 46.5287 L1100.72 53.1722 L1078.89 53.1722 L1078.89 46.5287 Z" fill="#000000" fill-rule="nonzero" fill-opacity="1" /><path clip-path="url(#clip630)" d="M1112.92 12.096 L1125.11 12.096 L1140.54 53.2532 L1156.06 12.096 L1168.25 12.096 L1168.25 72.576 L1160.27 72.576 L1160.27 19.4686 L1144.68 60.9499 L1136.45 60.9499 L1120.86 19.4686 L1120.86 72.576 L1112.92 72.576 L1112.92 12.096 Z" fill="#000000" fill-rule="nonzero" fill-opacity="1" /><path clip-path="url(#clip630)" d="M1192.68 18.8205 L1192.68 41.5461 L1202.97 41.5461 Q1208.68 41.5461 1211.8 38.5889 Q1214.92 35.6318 1214.92 30.163 Q1214.92 24.7348 1211.8 21.7777 Q1208.68 18.8205 1202.97 18.8205 L1192.68 18.8205 M1184.5 12.096 L1202.97 12.096 Q1213.14 12.096 1218.32 16.714 Q1223.55 21.2916 1223.55 30.163 Q1223.55 39.1155 1218.32 43.6931 Q1213.14 48.2706 1202.97 48.2706 L1192.68 48.2706 L1192.68 72.576 L1184.5 72.576 L1184.5 12.096 Z" fill="#000000" fill-rule="nonzero" fill-opacity="1" /><path clip-path="url(#clip630)" d="M1279.81 16.7545 L1279.81 25.383 Q1275.68 21.5346 1270.98 19.6307 Q1266.32 17.7268 1261.06 17.7268 Q1250.69 17.7268 1245.18 24.0867 Q1239.67 30.4061 1239.67 42.3968 Q1239.67 54.3469 1245.18 60.7069 Q1250.69 67.0263 1261.06 67.0263 Q1266.32 67.0263 1270.98 65.1223 Q1275.68 63.2184 1279.81 59.3701 L1279.81 67.9175 Q1275.52 70.8341 1270.7 72.2924 Q1265.92 73.7508 1260.57 73.7508 Q1246.84 73.7508 1238.94 65.3654 Q1231.04 56.9395 1231.04 42.3968 Q1231.04 27.8135 1238.94 19.4281 Q1246.84 11.0023 1260.57 11.0023 Q1266 11.0023 1270.78 12.4606 Q1275.6 13.8784 1279.81 16.7545 Z" fill="#000000" fill-rule="nonzero" fill-opacity="1" /><path clip-path="url(#clip630)" d="M1317.73 54.671 L1317.73 27.2059 L1325.18 27.2059 L1325.18 54.3874 Q1325.18 60.8284 1327.7 64.0691 Q1330.21 67.2693 1335.23 67.2693 Q1341.27 67.2693 1344.75 63.421 Q1348.27 59.5726 1348.27 52.9291 L1348.27 27.2059 L1355.73 27.2059 L1355.73 72.576 L1348.27 72.576 L1348.27 65.6084 Q1345.56 69.7404 1341.95 71.7658 Q1338.39 73.7508 1333.65 73.7508 Q1325.83 73.7508 1321.78 68.8897 Q1317.73 64.0286 1317.73 54.671 M1336.49 26.1121 L1336.49 26.1121 Z" fill="#000000" fill-rule="nonzero" fill-opacity="1" /><path clip-path="url(#clip630)" d="M1400 28.5427 L1400 35.5912 Q1396.84 33.9709 1393.44 33.1607 Q1390.04 32.3505 1386.39 32.3505 Q1380.84 32.3505 1378.05 34.0519 Q1375.29 35.7533 1375.29 39.156 Q1375.29 41.7486 1377.28 43.2475 Q1379.26 44.7058 1385.26 46.0426 L1387.81 46.6097 Q1395.75 48.3111 1399.07 51.4303 Q1402.43 54.509 1402.43 60.0587 Q1402.43 66.3781 1397.41 70.0644 Q1392.43 73.7508 1383.68 73.7508 Q1380.03 73.7508 1376.06 73.0216 Q1372.13 72.3329 1367.76 70.9151 L1367.76 63.2184 Q1371.89 65.3654 1375.9 66.4591 Q1379.91 67.5124 1383.84 67.5124 Q1389.11 67.5124 1391.94 65.73 Q1394.78 63.9071 1394.78 60.6258 Q1394.78 57.5877 1392.71 55.9673 Q1390.69 54.3469 1383.76 52.8481 L1381.17 52.2405 Q1374.24 50.7821 1371.16 47.7845 Q1368.08 44.7463 1368.08 39.4801 Q1368.08 33.0797 1372.62 29.5959 Q1377.16 26.1121 1385.5 26.1121 Q1389.63 26.1121 1393.28 26.7198 Q1396.93 27.3274 1400 28.5427 Z" fill="#000000" fill-rule="nonzero" fill-opacity="1" /><path clip-path="url(#clip630)" d="M1414.3 27.2059 L1421.76 27.2059 L1421.76 72.576 L1414.3 72.576 L1414.3 27.2059 M1414.3 9.54393 L1421.76 9.54393 L1421.76 18.9825 L1414.3 18.9825 L1414.3 9.54393 Z" fill="#000000" fill-rule="nonzero" fill-opacity="1" /><path clip-path="url(#clip630)" d="M1475.07 45.1919 L1475.07 72.576 L1467.61 72.576 L1467.61 45.4349 Q1467.61 38.994 1465.1 35.7938 Q1462.59 32.5936 1457.57 32.5936 Q1451.53 32.5936 1448.05 36.4419 Q1444.56 40.2903 1444.56 46.9338 L1444.56 72.576 L1437.07 72.576 L1437.07 27.2059 L1444.56 27.2059 L1444.56 34.2544 Q1447.24 30.163 1450.84 28.1376 Q1454.49 26.1121 1459.23 26.1121 Q1467.05 26.1121 1471.06 30.9732 Q1475.07 35.7938 1475.07 45.1919 Z" fill="#000000" fill-rule="nonzero" fill-opacity="1" /><path clip-path="url(#clip630)" d="M1519.79 49.3643 Q1519.79 41.2625 1516.43 36.8065 Q1513.11 32.3505 1507.07 32.3505 Q1501.07 32.3505 1497.71 36.8065 Q1494.39 41.2625 1494.39 49.3643 Q1494.39 57.4256 1497.71 61.8816 Q1501.07 66.3376 1507.07 66.3376 Q1513.11 66.3376 1516.43 61.8816 Q1519.79 57.4256 1519.79 49.3643 M1527.24 66.9452 Q1527.24 78.5308 1522.1 84.1616 Q1516.95 89.8329 1506.34 89.8329 Q1502.41 89.8329 1498.93 89.2252 Q1495.44 88.6581 1492.16 87.4428 L1492.16 80.1917 Q1495.44 81.9741 1498.64 82.8248 Q1501.84 83.6755 1505.17 83.6755 Q1512.5 83.6755 1516.14 79.8271 Q1519.79 76.0193 1519.79 68.282 L1519.79 64.5957 Q1517.48 68.6061 1513.87 70.5911 Q1510.27 72.576 1505.25 72.576 Q1496.9 72.576 1491.8 66.2161 Q1486.69 59.8562 1486.69 49.3643 Q1486.69 38.832 1491.8 32.472 Q1496.9 26.1121 1505.25 26.1121 Q1510.27 26.1121 1513.87 28.0971 Q1517.48 30.082 1519.79 34.0924 L1519.79 27.2059 L1527.24 27.2059 L1527.24 66.9452 Z" fill="#000000" fill-rule="nonzero" fill-opacity="1" /><path clip-path="url(#clip630)" d="M1569.29 12.096 L1577.47 12.096 L1577.47 65.6895 L1606.92 65.6895 L1606.92 72.576 L1569.29 72.576 L1569.29 12.096 Z" fill="#000000" fill-rule="nonzero" fill-opacity="1" /><path clip-path="url(#clip630)" d="M1615.19 27.2059 L1622.64 27.2059 L1622.64 72.576 L1615.19 72.576 L1615.19 27.2059 M1615.19 9.54393 L1622.64 9.54393 L1622.64 18.9825 L1615.19 18.9825 L1615.19 9.54393 Z" fill="#000000" fill-rule="nonzero" fill-opacity="1" /><path clip-path="url(#clip630)" d="M1675.95 45.1919 L1675.95 72.576 L1668.5 72.576 L1668.5 45.4349 Q1668.5 38.994 1665.99 35.7938 Q1663.47 32.5936 1658.45 32.5936 Q1652.42 32.5936 1648.93 36.4419 Q1645.45 40.2903 1645.45 46.9338 L1645.45 72.576 L1637.95 72.576 L1637.95 27.2059 L1645.45 27.2059 L1645.45 34.2544 Q1648.12 30.163 1651.73 28.1376 Q1655.37 26.1121 1660.11 26.1121 Q1667.93 26.1121 1671.94 30.9732 Q1675.95 35.7938 1675.95 45.1919 Z" fill="#000000" fill-rule="nonzero" fill-opacity="1" /><path clip-path="url(#clip630)" d="M1729.63 48.0275 L1729.63 51.6733 L1695.36 51.6733 Q1695.84 59.3701 1699.97 63.421 Q1704.15 67.4314 1711.56 67.4314 Q1715.85 67.4314 1719.86 66.3781 Q1723.91 65.3249 1727.88 63.2184 L1727.88 70.267 Q1723.87 71.9684 1719.66 72.8596 Q1715.45 73.7508 1711.11 73.7508 Q1700.26 73.7508 1693.9 67.4314 Q1687.58 61.1119 1687.58 50.3365 Q1687.58 39.1965 1693.57 32.6746 Q1699.61 26.1121 1709.82 26.1121 Q1718.97 26.1121 1724.28 32.0264 Q1729.63 37.9003 1729.63 48.0275 M1722.17 45.84 Q1722.09 39.7232 1718.73 36.0774 Q1715.41 32.4315 1709.9 32.4315 Q1703.66 32.4315 1699.89 35.9558 Q1696.17 39.4801 1695.6 45.8805 L1722.17 45.84 Z" fill="#000000" fill-rule="nonzero" fill-opacity="1" /><path clip-path="url(#clip630)" d="M1762.48 49.7694 Q1753.45 49.7694 1749.96 51.8354 Q1746.48 53.9013 1746.48 58.8839 Q1746.48 62.8538 1749.07 65.2034 Q1751.7 67.5124 1756.2 67.5124 Q1762.4 67.5124 1766.12 63.1374 Q1769.89 58.7219 1769.89 51.4303 L1769.89 49.7694 L1762.48 49.7694 M1777.35 46.6907 L1777.35 72.576 L1769.89 72.576 L1769.89 65.6895 Q1767.34 69.8214 1763.53 71.8063 Q1759.72 73.7508 1754.22 73.7508 Q1747.25 73.7508 1743.12 69.8619 Q1739.02 65.9325 1739.02 59.3701 Q1739.02 51.7138 1744.13 47.825 Q1749.27 43.9361 1759.44 43.9361 L1769.89 43.9361 L1769.89 43.2069 Q1769.89 38.0623 1766.49 35.2672 Q1763.13 32.4315 1757.01 32.4315 Q1753.12 32.4315 1749.44 33.3632 Q1745.75 34.295 1742.35 36.1584 L1742.35 29.2718 Q1746.44 27.692 1750.29 26.9223 Q1754.13 26.1121 1757.78 26.1121 Q1767.62 26.1121 1772.48 31.2163 Q1777.35 36.3204 1777.35 46.6907 Z" fill="#000000" fill-rule="nonzero" fill-opacity="1" /><path clip-path="url(#clip630)" d="M1818.99 34.1734 Q1817.73 33.4443 1816.23 33.1202 Q1814.78 32.7556 1812.99 32.7556 Q1806.67 32.7556 1803.27 36.8875 Q1799.91 40.9789 1799.91 48.6757 L1799.91 72.576 L1792.42 72.576 L1792.42 27.2059 L1799.91 27.2059 L1799.91 34.2544 Q1802.26 30.1225 1806.03 28.1376 Q1809.79 26.1121 1815.18 26.1121 Q1815.95 26.1121 1816.88 26.2337 Q1817.81 26.3147 1818.95 26.5172 L1818.99 34.1734 Z" fill="#000000" fill-rule="nonzero" fill-opacity="1" /><path clip-path="url(#clip630)" d="M1882.18 44.2197 Q1884.82 45.1109 1887.29 48.0275 Q1889.8 50.9442 1892.31 56.0483 L1900.61 72.576 L1891.82 72.576 L1884.09 57.061 Q1881.09 50.9847 1878.25 48.9997 Q1875.46 47.0148 1870.6 47.0148 L1861.69 47.0148 L1861.69 72.576 L1853.5 72.576 L1853.5 12.096 L1871.97 12.096 Q1882.35 12.096 1887.45 16.4305 Q1892.55 20.7649 1892.55 29.5149 Q1892.55 35.2267 1889.88 38.994 Q1887.25 42.7613 1882.18 44.2197 M1861.69 18.8205 L1861.69 40.2903 L1871.97 40.2903 Q1877.89 40.2903 1880.89 37.5762 Q1883.93 34.8216 1883.93 29.5149 Q1883.93 24.2082 1880.89 21.5346 Q1877.89 18.8205 1871.97 18.8205 L1861.69 18.8205 Z" fill="#000000" fill-rule="nonzero" fill-opacity="1" /><path clip-path="url(#clip630)" d="M1945.9 48.0275 L1945.9 51.6733 L1911.63 51.6733 Q1912.12 59.3701 1916.25 63.421 Q1920.42 67.4314 1927.84 67.4314 Q1932.13 67.4314 1936.14 66.3781 Q1940.19 65.3249 1944.16 63.2184 L1944.16 70.267 Q1940.15 71.9684 1935.94 72.8596 Q1931.73 73.7508 1927.39 73.7508 Q1916.53 73.7508 1910.17 67.4314 Q1903.86 61.1119 1903.86 50.3365 Q1903.86 39.1965 1909.85 32.6746 Q1915.89 26.1121 1926.09 26.1121 Q1935.25 26.1121 1940.56 32.0264 Q1945.9 37.9003 1945.9 48.0275 M1938.45 45.84 Q1938.37 39.7232 1935.01 36.0774 Q1931.69 32.4315 1926.18 32.4315 Q1919.94 32.4315 1916.17 35.9558 Q1912.44 39.4801 1911.88 45.8805 L1938.45 45.84 Z" fill="#000000" fill-rule="nonzero" fill-opacity="1" /><path clip-path="url(#clip630)" d="M1987.99 49.3643 Q1987.99 41.2625 1984.63 36.8065 Q1981.31 32.3505 1975.27 32.3505 Q1969.28 32.3505 1965.92 36.8065 Q1962.59 41.2625 1962.59 49.3643 Q1962.59 57.4256 1965.92 61.8816 Q1969.28 66.3376 1975.27 66.3376 Q1981.31 66.3376 1984.63 61.8816 Q1987.99 57.4256 1987.99 49.3643 M1995.45 66.9452 Q1995.45 78.5308 1990.3 84.1616 Q1985.16 89.8329 1974.54 89.8329 Q1970.61 89.8329 1967.13 89.2252 Q1963.65 88.6581 1960.37 87.4428 L1960.37 80.1917 Q1963.65 81.9741 1966.85 82.8248 Q1970.05 83.6755 1973.37 83.6755 Q1980.7 83.6755 1984.35 79.8271 Q1987.99 76.0193 1987.99 68.282 L1987.99 64.5957 Q1985.68 68.6061 1982.08 70.5911 Q1978.47 72.576 1973.45 72.576 Q1965.11 72.576 1960 66.2161 Q1954.9 59.8562 1954.9 49.3643 Q1954.9 38.832 1960 32.472 Q1965.11 26.1121 1973.45 26.1121 Q1978.47 26.1121 1982.08 28.0971 Q1985.68 30.082 1987.99 34.0924 L1987.99 27.2059 L1995.45 27.2059 L1995.45 66.9452 Z" fill="#000000" fill-rule="nonzero" fill-opacity="1" /><path clip-path="url(#clip630)" d="M2037.09 34.1734 Q2035.83 33.4443 2034.34 33.1202 Q2032.88 32.7556 2031.09 32.7556 Q2024.78 32.7556 2021.37 36.8875 Q2018.01 40.9789 2018.01 48.6757 L2018.01 72.576 L2010.52 72.576 L2010.52 27.2059 L2018.01 27.2059 L2018.01 34.2544 Q2020.36 30.1225 2024.13 28.1376 Q2027.89 26.1121 2033.28 26.1121 Q2034.05 26.1121 2034.98 26.2337 Q2035.91 26.3147 2037.05 26.5172 L2037.09 34.1734 Z" fill="#000000" fill-rule="nonzero" fill-opacity="1" /><path clip-path="url(#clip630)" d="M2081.89 48.0275 L2081.89 51.6733 L2047.62 51.6733 Q2048.11 59.3701 2052.24 63.421 Q2056.41 67.4314 2063.83 67.4314 Q2068.12 67.4314 2072.13 66.3781 Q2076.18 65.3249 2080.15 63.2184 L2080.15 70.267 Q2076.14 71.9684 2071.93 72.8596 Q2067.71 73.7508 2063.38 73.7508 Q2052.52 73.7508 2046.16 67.4314 Q2039.84 61.1119 2039.84 50.3365 Q2039.84 39.1965 2045.84 32.6746 Q2051.88 26.1121 2062.08 26.1121 Q2071.24 26.1121 2076.55 32.0264 Q2081.89 37.9003 2081.89 48.0275 M2074.44 45.84 Q2074.36 39.7232 2071 36.0774 Q2067.67 32.4315 2062.16 32.4315 Q2055.93 32.4315 2052.16 35.9558 Q2048.43 39.4801 2047.87 45.8805 L2074.44 45.84 Z" fill="#000000" fill-rule="nonzero" fill-opacity="1" /><path clip-path="url(#clip630)" d="M2123.05 28.5427 L2123.05 35.5912 Q2119.89 33.9709 2116.49 33.1607 Q2113.08 32.3505 2109.44 32.3505 Q2103.89 32.3505 2101.09 34.0519 Q2098.34 35.7533 2098.34 39.156 Q2098.34 41.7486 2100.32 43.2475 Q2102.31 44.7058 2108.3 46.0426 L2110.86 46.6097 Q2118.8 48.3111 2122.12 51.4303 Q2125.48 54.509 2125.48 60.0587 Q2125.48 66.3781 2120.46 70.0644 Q2115.47 73.7508 2106.72 73.7508 Q2103.08 73.7508 2099.11 73.0216 Q2095.18 72.3329 2090.8 70.9151 L2090.8 63.2184 Q2094.94 65.3654 2098.95 66.4591 Q2102.96 67.5124 2106.89 67.5124 Q2112.15 67.5124 2114.99 65.73 Q2117.82 63.9071 2117.82 60.6258 Q2117.82 57.5877 2115.76 55.9673 Q2113.73 54.3469 2106.81 52.8481 L2104.21 52.2405 Q2097.29 50.7821 2094.21 47.7845 Q2091.13 44.7463 2091.13 39.4801 Q2091.13 33.0797 2095.67 29.5959 Q2100.2 26.1121 2108.55 26.1121 Q2112.68 26.1121 2116.33 26.7198 Q2119.97 27.3274 2123.05 28.5427 Z" fill="#000000" fill-rule="nonzero" fill-opacity="1" /><path clip-path="url(#clip630)" d="M2166.27 28.5427 L2166.27 35.5912 Q2163.11 33.9709 2159.71 33.1607 Q2156.31 32.3505 2152.66 32.3505 Q2147.11 32.3505 2144.32 34.0519 Q2141.56 35.7533 2141.56 39.156 Q2141.56 41.7486 2143.55 43.2475 Q2145.53 44.7058 2151.53 46.0426 L2154.08 46.6097 Q2162.02 48.3111 2165.34 51.4303 Q2168.7 54.509 2168.7 60.0587 Q2168.7 66.3781 2163.68 70.0644 Q2158.7 73.7508 2149.95 73.7508 Q2146.3 73.7508 2142.33 73.0216 Q2138.4 72.3329 2134.03 70.9151 L2134.03 63.2184 Q2138.16 65.3654 2142.17 66.4591 Q2146.18 67.5124 2150.11 67.5124 Q2155.38 67.5124 2158.21 65.73 Q2161.05 63.9071 2161.05 60.6258 Q2161.05 57.5877 2158.98 55.9673 Q2156.96 54.3469 2150.03 52.8481 L2147.44 52.2405 Q2140.51 50.7821 2137.43 47.7845 Q2134.35 44.7463 2134.35 39.4801 Q2134.35 33.0797 2138.89 29.5959 Q2143.43 26.1121 2151.77 26.1121 Q2155.9 26.1121 2159.55 26.7198 Q2163.19 27.3274 2166.27 28.5427 Z" fill="#000000" fill-rule="nonzero" fill-opacity="1" /><path clip-path="url(#clip630)" d="M2180.57 27.2059 L2188.03 27.2059 L2188.03 72.576 L2180.57 72.576 L2180.57 27.2059 M2180.57 9.54393 L2188.03 9.54393 L2188.03 18.9825 L2180.57 18.9825 L2180.57 9.54393 Z" fill="#000000" fill-rule="nonzero" fill-opacity="1" /><path clip-path="url(#clip630)" d="M2221.2 32.4315 Q2215.21 32.4315 2211.72 37.1306 Q2208.24 41.7891 2208.24 49.9314 Q2208.24 58.0738 2211.68 62.7728 Q2215.17 67.4314 2221.2 67.4314 Q2227.16 67.4314 2230.64 62.7323 Q2234.13 58.0333 2234.13 49.9314 Q2234.13 41.8701 2230.64 37.1711 Q2227.16 32.4315 2221.2 32.4315 M2221.2 26.1121 Q2230.93 26.1121 2236.48 32.4315 Q2242.03 38.7509 2242.03 49.9314 Q2242.03 61.0714 2236.48 67.4314 Q2230.93 73.7508 2221.2 73.7508 Q2211.44 73.7508 2205.89 67.4314 Q2200.38 61.0714 2200.38 49.9314 Q2200.38 38.7509 2205.89 32.4315 Q2211.44 26.1121 2221.2 26.1121 Z" fill="#000000" fill-rule="nonzero" fill-opacity="1" /><path clip-path="url(#clip630)" d="M2292.09 45.1919 L2292.09 72.576 L2284.64 72.576 L2284.64 45.4349 Q2284.64 38.994 2282.13 35.7938 Q2279.62 32.5936 2274.59 32.5936 Q2268.56 32.5936 2265.07 36.4419 Q2261.59 40.2903 2261.59 46.9338 L2261.59 72.576 L2254.1 72.576 L2254.1 27.2059 L2261.59 27.2059 L2261.59 34.2544 Q2264.26 30.163 2267.87 28.1376 Q2271.52 26.1121 2276.26 26.1121 Q2284.07 26.1121 2288.08 30.9732 Q2292.09 35.7938 2292.09 45.1919 Z" fill="#000000" fill-rule="nonzero" fill-opacity="1" /><polyline clip-path="url(#clip632)" style="stroke:#009af9; stroke-linecap:round; stroke-linejoin:round; stroke-width:12; stroke-opacity:1; fill:none" points="341.055,1112.96 341.055,1112.96 346.619,1108.89 352.183,1103.04 357.748,1095.16 363.312,1101.9 380.006,1008.05 385.57,984.772 391.134,987.467 396.699,914.875 402.263,877.916 424.521,840.407 430.085,879.109 435.65,867.256 441.214,836.637 457.907,847.538 463.472,779.97 469.036,860.094 474.601,952.179 480.165,833.376 496.858,831.483 502.423,1165.23 507.987,1079.01 513.551,1226.81 519.116,1250.29 535.809,1313.14 541.373,1386.4 546.938,1353.02 552.502,1373.95 558.067,1376.2 580.324,1369.49 585.889,1380.71 591.453,1385.25 597.018,1363.95 613.711,1276.6 619.275,1174.95 624.84,1070.66 630.404,1128.55 635.968,1122.7 652.662,1058.79 658.226,906.636 663.79,991.497 669.355,1023.67 674.919,1039.82 691.613,1013.51 697.177,947.008 702.741,932.723 708.306,914.367 713.87,924.394 730.332,906.511 735.896,921.692 741.46,934.424 747.025,951.396 752.589,954.689 769.282,1023.12 774.847,1122.66 780.411,1227.64 785.976,1106.37 791.54,1147.92 808.233,1141.21 813.798,1141.21 819.362,1149.76 824.927,1204.39 847.184,1180.83 852.749,1170.73 858.313,1171.16 863.877,1164.37 869.442,1172.47 886.135,1137.05 891.699,1117.91 897.264,1134.25 902.828,1099.82 908.393,1108.64 925.086,1130.77 930.65,1138.62 936.215,1130.83 941.779,1152.06 947.344,1134.73 964.037,1126.04 969.601,1129.96 975.166,1134.26 980.73,1131.81 986.294,1147.36 1002.99,1133.55 1008.55,1132.03 1014.12,1135.66 1019.68,1148.24 1025.25,1113.76 1041.94,1098.75 1047.5,1079.07 1053.07,1083.86 1058.63,1105.81 1064.2,1067.56 1080.89,1048.56 1086.45,1070.91 1092.02,1103.8 1097.58,1104.62 1103.15,1106.38 1119.84,1104.45 1125.4,997.574 1130.97,890.792 1136.53,699.468 1142.1,709.041 1164.36,580.663 1169.92,160.256 1175.48,284.368 1181.05,327.822 1197.74,241.093 1203.31,240.522 1208.87,309.339 1214.44,398.553 1220,308.575 1236.69,218.647 1242.26,196.549 1247.82,239.04 1253.39,178.813 1258.95,194.211 1275.64,233.258 1281.21,204.799 1286.77,204.475 1292.34,221.963 1297.9,251.926 1314.59,206.527 1320.16,224.963 1325.72,229.675 1331.29,222.056 1336.85,215.141 1359.11,217.952 1364.67,250.791 1370.24,262.486 1375.8,263.918 1392.5,240.573 1398.06,255.843 1403.63,312.092 1409.19,332.952 1414.75,340.413 1431.45,357.185 1437.01,341.074 1442.58,344.291 1448.14,338.269 1453.7,330.779 1470.4,328.963 1475.96,338.397 1481.53,346.109 1487.09,343.254 1492.66,352.156 1509.35,354.086 1514.91,352.156 1520.48,355.054 1526.04,368.759 1531.61,408.394 1548.3,398.224 1553.86,409.867 1559.43,421.933 1564.99,421.934 1570.56,428.065 1587.25,439.544 1592.82,448.351 1598.38,438.948 1603.94,450.926 1609.51,438.526 1626.2,438.521 1631.77,431.42 1637.33,424.398 1642.89,458.979 1648.46,449.851 1665.15,412.822 1670.72,360.007 1676.28,407.635 1681.85,397.788 1687.41,402.906 1709.67,350.741 1715.23,356.417 1720.8,341.74 1726.36,320.85 1743.05,301.968 1748.62,357.744 1754.18,363.885 1759.75,366.898 1765.31,404.827 1782.01,437.857 1787.57,444.677 1793.13,446.767 1798.7,438.447 1804.26,475.532 1820.96,448.564 1826.52,447.665 1832.08,484.29 1837.65,473.897 1843.21,464.623 1859.91,433.553 1865.47,412.508 1871.04,434.852 1876.6,439.417 1882.16,415.967 1898.86,422.465 1904.42,425.659 1909.99,429.835 1915.55,417.23 1921.12,412.195 1937.81,405.647 1943.37,409.068 1948.94,399.627 1954.5,418.495 1960.07,408.137 1976.76,368.728 1982.32,381.652 1987.89,377.254 1993.45,329.783 1999.02,310.44 2015.71,257.253 2021.27,263.622 2026.84,282.027 2032.4,279.052 2037.97,308.8 2054.89,272.716 2060.46,352.095 2066.02,325.83 2071.59,328.463 2077.15,340.074 2093.84,345.575 2099.41,341.861 2104.97,361.773 2110.54,311.956 2116.1,286.489 2132.79,306.406 2138.36,310.549 2143.92,292.442 2155.05,315.378 2171.75,279.083 2177.31,292.404 2182.87,310.892 2188.44,311.245 2194,315.985 2210.7,303.969 2216.26,312.9 2221.83,325.813 2227.39,328.409 2232.95,311.365 2249.65,324.536 2255.21,329.597 2260.78,311.932 2266.34,337.104 2271.91,341.203 2288.6,346.328 2294.16,334.446 "/>
<path clip-path="url(#clip630)" d="M351.471 270.476 L684.056 270.476 L684.056 166.796 L351.471 166.796  Z" fill="#ffffff" fill-rule="evenodd" fill-opacity="1"/>
<polyline clip-path="url(#clip630)" style="stroke:#000000; stroke-linecap:round; stroke-linejoin:round; stroke-width:4; stroke-opacity:1; fill:none" points="351.471,270.476 684.056,270.476 684.056,166.796 351.471,166.796 351.471,270.476 "/>
<polyline clip-path="url(#clip630)" style="stroke:#009af9; stroke-linecap:round; stroke-linejoin:round; stroke-width:12; stroke-opacity:1; fill:none" points="374.475,218.636 512.494,218.636 "/>
<path clip-path="url(#clip630)" d="M535.497 209.99 L540.011 209.99 L548.113 231.749 L556.215 209.99 L560.729 209.99 L551.007 235.916 L545.22 235.916 L535.497 209.99 Z" fill="#000000" fill-rule="nonzero" fill-opacity="1" /><path clip-path="url(#clip630)" d="M578.391 222.883 Q573.229 222.883 571.238 224.064 Q569.247 225.244 569.247 228.092 Q569.247 230.36 570.729 231.703 Q572.233 233.022 574.803 233.022 Q578.344 233.022 580.474 230.522 Q582.627 227.999 582.627 223.832 L582.627 222.883 L578.391 222.883 M586.886 221.124 L586.886 235.916 L582.627 235.916 L582.627 231.981 Q581.168 234.342 578.993 235.476 Q576.817 236.587 573.669 236.587 Q569.687 236.587 567.326 234.365 Q564.988 232.119 564.988 228.369 Q564.988 223.994 567.905 221.772 Q570.844 219.55 576.655 219.55 L582.627 219.55 L582.627 219.133 Q582.627 216.194 580.682 214.596 Q578.761 212.976 575.266 212.976 Q573.044 212.976 570.937 213.508 Q568.831 214.041 566.886 215.106 L566.886 211.17 Q569.224 210.268 571.423 209.828 Q573.622 209.365 575.706 209.365 Q581.33 209.365 584.108 212.282 Q586.886 215.198 586.886 221.124 Z" fill="#000000" fill-rule="nonzero" fill-opacity="1" /><path clip-path="url(#clip630)" d="M595.659 199.897 L599.918 199.897 L599.918 235.916 L595.659 235.916 L595.659 199.897 Z" fill="#000000" fill-rule="nonzero" fill-opacity="1" /><path clip-path="url(#clip630)" d="M608.391 225.684 L608.391 209.99 L612.65 209.99 L612.65 225.522 Q612.65 229.203 614.085 231.055 Q615.52 232.883 618.39 232.883 Q621.84 232.883 623.83 230.684 Q625.844 228.485 625.844 224.689 L625.844 209.99 L630.103 209.99 L630.103 235.916 L625.844 235.916 L625.844 231.934 Q624.293 234.295 622.233 235.453 Q620.196 236.587 617.488 236.587 Q613.02 236.587 610.705 233.809 Q608.391 231.031 608.391 225.684 M619.108 209.365 L619.108 209.365 Z" fill="#000000" fill-rule="nonzero" fill-opacity="1" /><path clip-path="url(#clip630)" d="M661.052 221.888 L661.052 223.971 L641.469 223.971 Q641.747 228.369 644.108 230.684 Q646.492 232.976 650.728 232.976 Q653.182 232.976 655.474 232.374 Q657.788 231.772 660.057 230.569 L660.057 234.596 Q657.765 235.568 655.358 236.078 Q652.95 236.587 650.474 236.587 Q644.27 236.587 640.636 232.976 Q637.025 229.365 637.025 223.207 Q637.025 216.842 640.451 213.115 Q643.9 209.365 649.733 209.365 Q654.964 209.365 657.997 212.745 Q661.052 216.101 661.052 221.888 M656.793 220.638 Q656.747 217.143 654.825 215.059 Q652.927 212.976 649.779 212.976 Q646.214 212.976 644.062 214.99 Q641.932 217.004 641.608 220.661 L656.793 220.638 Z" fill="#000000" fill-rule="nonzero" fill-opacity="1" /></svg>
