<?xml version="1.0" encoding="utf-8"?>
<svg xmlns="http://www.w3.org/2000/svg" xmlns:xlink="http://www.w3.org/1999/xlink" width="600" height="400" viewBox="0 0 2400 1600">
<defs>
  <clipPath id="clip990">
    <rect x="0" y="0" width="2400" height="1600"/>
  </clipPath>
</defs>
<path clip-path="url(#clip990)" d="M0 1600 L2400 1600 L2400 0 L0 0  Z" fill="#ffffff" fill-rule="evenodd" fill-opacity="1"/>
<defs>
  <clipPath id="clip991">
    <rect x="480" y="0" width="1681" height="1600"/>
  </clipPath>
</defs>
<path clip-path="url(#clip990)" d="M282.894 1423.18 L2352.76 1423.18 L2352.76 47.2441 L282.894 47.2441  Z" fill="#ffffff" fill-rule="evenodd" fill-opacity="1"/>
<defs>
  <clipPath id="clip992">
    <rect x="282" y="47" width="2071" height="1377"/>
  </clipPath>
</defs>
<polyline clip-path="url(#clip992)" style="stroke:#000000; stroke-linecap:round; stroke-linejoin:round; stroke-width:2; stroke-opacity:0.1; fill:none" points="322.351,1423.18 322.351,47.2441 "/>
<polyline clip-path="url(#clip992)" style="stroke:#000000; stroke-linecap:round; stroke-linejoin:round; stroke-width:2; stroke-opacity:0.1; fill:none" points="823.044,1423.18 823.044,47.2441 "/>
<polyline clip-path="url(#clip992)" style="stroke:#000000; stroke-linecap:round; stroke-linejoin:round; stroke-width:2; stroke-opacity:0.1; fill:none" points="1329.3,1423.18 1329.3,47.2441 "/>
<polyline clip-path="url(#clip992)" style="stroke:#000000; stroke-linecap:round; stroke-linejoin:round; stroke-width:2; stroke-opacity:0.1; fill:none" points="1841.12,1423.18 1841.12,47.2441 "/>
<polyline clip-path="url(#clip992)" style="stroke:#000000; stroke-linecap:round; stroke-linejoin:round; stroke-width:2; stroke-opacity:0.05; fill:none" points="422.49,1423.18 422.49,47.2441 "/>
<polyline clip-path="url(#clip992)" style="stroke:#000000; stroke-linecap:round; stroke-linejoin:round; stroke-width:2; stroke-opacity:0.05; fill:none" points="522.628,1423.18 522.628,47.2441 "/>
<polyline clip-path="url(#clip992)" style="stroke:#000000; stroke-linecap:round; stroke-linejoin:round; stroke-width:2; stroke-opacity:0.05; fill:none" points="622.767,1423.18 622.767,47.2441 "/>
<polyline clip-path="url(#clip992)" style="stroke:#000000; stroke-linecap:round; stroke-linejoin:round; stroke-width:2; stroke-opacity:0.05; fill:none" points="722.905,1423.18 722.905,47.2441 "/>
<polyline clip-path="url(#clip992)" style="stroke:#000000; stroke-linecap:round; stroke-linejoin:round; stroke-width:2; stroke-opacity:0.05; fill:none" points="924.295,1423.18 924.295,47.2441 "/>
<polyline clip-path="url(#clip992)" style="stroke:#000000; stroke-linecap:round; stroke-linejoin:round; stroke-width:2; stroke-opacity:0.05; fill:none" points="1025.55,1423.18 1025.55,47.2441 "/>
<polyline clip-path="url(#clip992)" style="stroke:#000000; stroke-linecap:round; stroke-linejoin:round; stroke-width:2; stroke-opacity:0.05; fill:none" points="1126.8,1423.18 1126.8,47.2441 "/>
<polyline clip-path="url(#clip992)" style="stroke:#000000; stroke-linecap:round; stroke-linejoin:round; stroke-width:2; stroke-opacity:0.05; fill:none" points="1228.05,1423.18 1228.05,47.2441 "/>
<polyline clip-path="url(#clip992)" style="stroke:#000000; stroke-linecap:round; stroke-linejoin:round; stroke-width:2; stroke-opacity:0.05; fill:none" points="1431.66,1423.18 1431.66,47.2441 "/>
<polyline clip-path="url(#clip992)" style="stroke:#000000; stroke-linecap:round; stroke-linejoin:round; stroke-width:2; stroke-opacity:0.05; fill:none" points="1534.03,1423.18 1534.03,47.2441 "/>
<polyline clip-path="url(#clip992)" style="stroke:#000000; stroke-linecap:round; stroke-linejoin:round; stroke-width:2; stroke-opacity:0.05; fill:none" points="1636.39,1423.18 1636.39,47.2441 "/>
<polyline clip-path="url(#clip992)" style="stroke:#000000; stroke-linecap:round; stroke-linejoin:round; stroke-width:2; stroke-opacity:0.05; fill:none" points="1738.75,1423.18 1738.75,47.2441 "/>
<polyline clip-path="url(#clip992)" style="stroke:#000000; stroke-linecap:round; stroke-linejoin:round; stroke-width:2; stroke-opacity:0.05; fill:none" points="1944.62,1423.18 1944.62,47.2441 "/>
<polyline clip-path="url(#clip992)" style="stroke:#000000; stroke-linecap:round; stroke-linejoin:round; stroke-width:2; stroke-opacity:0.05; fill:none" points="2048.12,1423.18 2048.12,47.2441 "/>
<polyline clip-path="url(#clip992)" style="stroke:#000000; stroke-linecap:round; stroke-linejoin:round; stroke-width:2; stroke-opacity:0.05; fill:none" points="2151.62,1423.18 2151.62,47.2441 "/>
<polyline clip-path="url(#clip992)" style="stroke:#000000; stroke-linecap:round; stroke-linejoin:round; stroke-width:2; stroke-opacity:0.05; fill:none" points="2255.12,1423.18 2255.12,47.2441 "/>
<polyline clip-path="url(#clip990)" style="stroke:#000000; stroke-linecap:round; stroke-linejoin:round; stroke-width:4; stroke-opacity:1; fill:none" points="282.894,1423.18 2352.76,1423.18 "/>
<polyline clip-path="url(#clip990)" style="stroke:#000000; stroke-linecap:round; stroke-linejoin:round; stroke-width:4; stroke-opacity:1; fill:none" points="322.351,1423.18 322.351,1404.28 "/>
<polyline clip-path="url(#clip990)" style="stroke:#000000; stroke-linecap:round; stroke-linejoin:round; stroke-width:4; stroke-opacity:1; fill:none" points="823.044,1423.18 823.044,1404.28 "/>
<polyline clip-path="url(#clip990)" style="stroke:#000000; stroke-linecap:round; stroke-linejoin:round; stroke-width:4; stroke-opacity:1; fill:none" points="1329.3,1423.18 1329.3,1404.28 "/>
<polyline clip-path="url(#clip990)" style="stroke:#000000; stroke-linecap:round; stroke-linejoin:round; stroke-width:4; stroke-opacity:1; fill:none" points="1841.12,1423.18 1841.12,1404.28 "/>
<polyline clip-path="url(#clip990)" style="stroke:#000000; stroke-linecap:round; stroke-linejoin:round; stroke-width:4; stroke-opacity:1; fill:none" points="422.49,1423.18 422.49,1413.73 "/>
<polyline clip-path="url(#clip990)" style="stroke:#000000; stroke-linecap:round; stroke-linejoin:round; stroke-width:4; stroke-opacity:1; fill:none" points="522.628,1423.18 522.628,1413.73 "/>
<polyline clip-path="url(#clip990)" style="stroke:#000000; stroke-linecap:round; stroke-linejoin:round; stroke-width:4; stroke-opacity:1; fill:none" points="622.767,1423.18 622.767,1413.73 "/>
<polyline clip-path="url(#clip990)" style="stroke:#000000; stroke-linecap:round; stroke-linejoin:round; stroke-width:4; stroke-opacity:1; fill:none" points="722.905,1423.18 722.905,1413.73 "/>
<polyline clip-path="url(#clip990)" style="stroke:#000000; stroke-linecap:round; stroke-linejoin:round; stroke-width:4; stroke-opacity:1; fill:none" points="924.295,1423.18 924.295,1413.73 "/>
<polyline clip-path="url(#clip990)" style="stroke:#000000; stroke-linecap:round; stroke-linejoin:round; stroke-width:4; stroke-opacity:1; fill:none" points="1025.55,1423.18 1025.55,1413.73 "/>
<polyline clip-path="url(#clip990)" style="stroke:#000000; stroke-linecap:round; stroke-linejoin:round; stroke-width:4; stroke-opacity:1; fill:none" points="1126.8,1423.18 1126.8,1413.73 "/>
<polyline clip-path="url(#clip990)" style="stroke:#000000; stroke-linecap:round; stroke-linejoin:round; stroke-width:4; stroke-opacity:1; fill:none" points="1228.05,1423.18 1228.05,1413.73 "/>
<polyline clip-path="url(#clip990)" style="stroke:#000000; stroke-linecap:round; stroke-linejoin:round; stroke-width:4; stroke-opacity:1; fill:none" points="1431.66,1423.18 1431.66,1413.73 "/>
<polyline clip-path="url(#clip990)" style="stroke:#000000; stroke-linecap:round; stroke-linejoin:round; stroke-width:4; stroke-opacity:1; fill:none" points="1534.03,1423.18 1534.03,1413.73 "/>
<polyline clip-path="url(#clip990)" style="stroke:#000000; stroke-linecap:round; stroke-linejoin:round; stroke-width:4; stroke-opacity:1; fill:none" points="1636.39,1423.18 1636.39,1413.73 "/>
<polyline clip-path="url(#clip990)" style="stroke:#000000; stroke-linecap:round; stroke-linejoin:round; stroke-width:4; stroke-opacity:1; fill:none" points="1738.75,1423.18 1738.75,1413.73 "/>
<polyline clip-path="url(#clip990)" style="stroke:#000000; stroke-linecap:round; stroke-linejoin:round; stroke-width:4; stroke-opacity:1; fill:none" points="1944.62,1423.18 1944.62,1413.73 "/>
<polyline clip-path="url(#clip990)" style="stroke:#000000; stroke-linecap:round; stroke-linejoin:round; stroke-width:4; stroke-opacity:1; fill:none" points="2048.12,1423.18 2048.12,1413.73 "/>
<polyline clip-path="url(#clip990)" style="stroke:#000000; stroke-linecap:round; stroke-linejoin:round; stroke-width:4; stroke-opacity:1; fill:none" points="2151.62,1423.18 2151.62,1413.73 "/>
<polyline clip-path="url(#clip990)" style="stroke:#000000; stroke-linecap:round; stroke-linejoin:round; stroke-width:4; stroke-opacity:1; fill:none" points="2255.12,1423.18 2255.12,1413.73 "/>
<path clip-path="url(#clip990)" d="M194.146 1481.64 L210.465 1481.64 L210.465 1485.58 L188.521 1485.58 L188.521 1481.64 Q191.183 1478.89 195.766 1474.26 Q200.373 1469.61 201.553 1468.27 Q203.799 1465.74 204.678 1464.01 Q205.581 1462.25 205.581 1460.56 Q205.581 1457.8 203.637 1456.07 Q201.715 1454.33 198.614 1454.33 Q196.415 1454.33 193.961 1455.09 Q191.53 1455.86 188.753 1457.41 L188.753 1452.69 Q191.577 1451.55 194.03 1450.97 Q196.484 1450.39 198.521 1450.39 Q203.891 1450.39 207.086 1453.08 Q210.28 1455.77 210.28 1460.26 Q210.28 1462.39 209.47 1464.31 Q208.683 1466.2 206.576 1468.8 Q205.998 1469.47 202.896 1472.69 Q199.794 1475.88 194.146 1481.64 Z" fill="#000000" fill-rule="nonzero" fill-opacity="1" /><path clip-path="url(#clip990)" d="M230.28 1454.1 Q226.669 1454.1 224.84 1457.66 Q223.035 1461.2 223.035 1468.33 Q223.035 1475.44 224.84 1479.01 Q226.669 1482.55 230.28 1482.55 Q233.914 1482.55 235.72 1479.01 Q237.549 1475.44 237.549 1468.33 Q237.549 1461.2 235.72 1457.66 Q233.914 1454.1 230.28 1454.1 M230.28 1450.39 Q236.09 1450.39 239.146 1455 Q242.224 1459.58 242.224 1468.33 Q242.224 1477.06 239.146 1481.67 Q236.09 1486.25 230.28 1486.25 Q224.47 1486.25 221.391 1481.67 Q218.336 1477.06 218.336 1468.33 Q218.336 1459.58 221.391 1455 Q224.47 1450.39 230.28 1450.39 Z" fill="#000000" fill-rule="nonzero" fill-opacity="1" /><path clip-path="url(#clip990)" d="M254.47 1481.64 L270.789 1481.64 L270.789 1485.58 L248.845 1485.58 L248.845 1481.64 Q251.507 1478.89 256.09 1474.26 Q260.697 1469.61 261.877 1468.27 Q264.122 1465.74 265.002 1464.01 Q265.905 1462.25 265.905 1460.56 Q265.905 1457.8 263.96 1456.07 Q262.039 1454.33 258.937 1454.33 Q256.738 1454.33 254.285 1455.09 Q251.854 1455.86 249.076 1457.41 L249.076 1452.69 Q251.9 1451.55 254.354 1450.97 Q256.808 1450.39 258.845 1450.39 Q264.215 1450.39 267.409 1453.08 Q270.604 1455.77 270.604 1460.26 Q270.604 1462.39 269.794 1464.31 Q269.007 1466.2 266.9 1468.8 Q266.322 1469.47 263.22 1472.69 Q260.118 1475.88 254.47 1481.64 Z" fill="#000000" fill-rule="nonzero" fill-opacity="1" /><path clip-path="url(#clip990)" d="M281.414 1481.64 L289.053 1481.64 L289.053 1455.28 L280.743 1456.95 L280.743 1452.69 L289.007 1451.02 L293.683 1451.02 L293.683 1481.64 L301.321 1481.64 L301.321 1485.58 L281.414 1485.58 L281.414 1481.64 Z" fill="#000000" fill-rule="nonzero" fill-opacity="1" /><path clip-path="url(#clip990)" d="M308.011 1470.7 L320.488 1470.7 L320.488 1474.49 L308.011 1474.49 L308.011 1470.7 Z" fill="#000000" fill-rule="nonzero" fill-opacity="1" /><path clip-path="url(#clip990)" d="M337.872 1454.1 Q334.261 1454.1 332.432 1457.66 Q330.627 1461.2 330.627 1468.33 Q330.627 1475.44 332.432 1479.01 Q334.261 1482.55 337.872 1482.55 Q341.506 1482.55 343.312 1479.01 Q345.141 1475.44 345.141 1468.33 Q345.141 1461.2 343.312 1457.66 Q341.506 1454.1 337.872 1454.1 M337.872 1450.39 Q343.682 1450.39 346.738 1455 Q349.816 1459.58 349.816 1468.33 Q349.816 1477.06 346.738 1481.67 Q343.682 1486.25 337.872 1486.25 Q332.062 1486.25 328.983 1481.67 Q325.928 1477.06 325.928 1468.33 Q325.928 1459.58 328.983 1455 Q332.062 1450.39 337.872 1450.39 Z" fill="#000000" fill-rule="nonzero" fill-opacity="1" /><path clip-path="url(#clip990)" d="M358.844 1481.64 L366.483 1481.64 L366.483 1455.28 L358.173 1456.95 L358.173 1452.69 L366.437 1451.02 L371.113 1451.02 L371.113 1481.64 L378.751 1481.64 L378.751 1485.58 L358.844 1485.58 L358.844 1481.64 Z" fill="#000000" fill-rule="nonzero" fill-opacity="1" /><path clip-path="url(#clip990)" d="M385.441 1470.7 L397.918 1470.7 L397.918 1474.49 L385.441 1474.49 L385.441 1470.7 Z" fill="#000000" fill-rule="nonzero" fill-opacity="1" /><path clip-path="url(#clip990)" d="M415.302 1454.1 Q411.691 1454.1 409.862 1457.66 Q408.057 1461.2 408.057 1468.33 Q408.057 1475.44 409.862 1479.01 Q411.691 1482.55 415.302 1482.55 Q418.936 1482.55 420.742 1479.01 Q422.571 1475.44 422.571 1468.33 Q422.571 1461.2 420.742 1457.66 Q418.936 1454.1 415.302 1454.1 M415.302 1450.39 Q421.112 1450.39 424.168 1455 Q427.247 1459.58 427.247 1468.33 Q427.247 1477.06 424.168 1481.67 Q421.112 1486.25 415.302 1486.25 Q409.492 1486.25 406.413 1481.67 Q403.358 1477.06 403.358 1468.33 Q403.358 1459.58 406.413 1455 Q409.492 1450.39 415.302 1450.39 Z" fill="#000000" fill-rule="nonzero" fill-opacity="1" /><path clip-path="url(#clip990)" d="M436.274 1481.64 L443.913 1481.64 L443.913 1455.28 L435.603 1456.95 L435.603 1452.69 L443.867 1451.02 L448.543 1451.02 L448.543 1481.64 L456.182 1481.64 L456.182 1485.58 L436.274 1485.58 L436.274 1481.64 Z" fill="#000000" fill-rule="nonzero" fill-opacity="1" /><path clip-path="url(#clip990)" d="M694.838 1481.64 L711.158 1481.64 L711.158 1485.58 L689.213 1485.58 L689.213 1481.64 Q691.875 1478.89 696.459 1474.26 Q701.065 1469.61 702.246 1468.27 Q704.491 1465.74 705.371 1464.01 Q706.273 1462.25 706.273 1460.56 Q706.273 1457.8 704.329 1456.07 Q702.408 1454.33 699.306 1454.33 Q697.107 1454.33 694.653 1455.09 Q692.223 1455.86 689.445 1457.41 L689.445 1452.69 Q692.269 1451.55 694.723 1450.97 Q697.176 1450.39 699.213 1450.39 Q704.584 1450.39 707.778 1453.08 Q710.972 1455.77 710.972 1460.26 Q710.972 1462.39 710.162 1464.31 Q709.375 1466.2 707.269 1468.8 Q706.69 1469.47 703.588 1472.69 Q700.486 1475.88 694.838 1481.64 Z" fill="#000000" fill-rule="nonzero" fill-opacity="1" /><path clip-path="url(#clip990)" d="M730.972 1454.1 Q727.361 1454.1 725.533 1457.66 Q723.727 1461.2 723.727 1468.33 Q723.727 1475.44 725.533 1479.01 Q727.361 1482.55 730.972 1482.55 Q734.607 1482.55 736.412 1479.01 Q738.241 1475.44 738.241 1468.33 Q738.241 1461.2 736.412 1457.66 Q734.607 1454.1 730.972 1454.1 M730.972 1450.39 Q736.783 1450.39 739.838 1455 Q742.917 1459.58 742.917 1468.33 Q742.917 1477.06 739.838 1481.67 Q736.783 1486.25 730.972 1486.25 Q725.162 1486.25 722.084 1481.67 Q719.028 1477.06 719.028 1468.33 Q719.028 1459.58 722.084 1455 Q725.162 1450.39 730.972 1450.39 Z" fill="#000000" fill-rule="nonzero" fill-opacity="1" /><path clip-path="url(#clip990)" d="M755.162 1481.64 L771.481 1481.64 L771.481 1485.58 L749.537 1485.58 L749.537 1481.64 Q752.199 1478.89 756.782 1474.26 Q761.389 1469.61 762.569 1468.27 Q764.815 1465.74 765.694 1464.01 Q766.597 1462.25 766.597 1460.56 Q766.597 1457.8 764.653 1456.07 Q762.731 1454.33 759.63 1454.33 Q757.431 1454.33 754.977 1455.09 Q752.546 1455.86 749.769 1457.41 L749.769 1452.69 Q752.593 1451.55 755.046 1450.97 Q757.5 1450.39 759.537 1450.39 Q764.907 1450.39 768.102 1453.08 Q771.296 1455.77 771.296 1460.26 Q771.296 1462.39 770.486 1464.31 Q769.699 1466.2 767.593 1468.8 Q767.014 1469.47 763.912 1472.69 Q760.81 1475.88 755.162 1481.64 Z" fill="#000000" fill-rule="nonzero" fill-opacity="1" /><path clip-path="url(#clip990)" d="M782.106 1481.64 L789.745 1481.64 L789.745 1455.28 L781.435 1456.95 L781.435 1452.69 L789.699 1451.02 L794.375 1451.02 L794.375 1481.64 L802.014 1481.64 L802.014 1485.58 L782.106 1485.58 L782.106 1481.64 Z" fill="#000000" fill-rule="nonzero" fill-opacity="1" /><path clip-path="url(#clip990)" d="M808.703 1470.7 L821.18 1470.7 L821.18 1474.49 L808.703 1474.49 L808.703 1470.7 Z" fill="#000000" fill-rule="nonzero" fill-opacity="1" /><path clip-path="url(#clip990)" d="M838.564 1454.1 Q834.953 1454.1 833.125 1457.66 Q831.319 1461.2 831.319 1468.33 Q831.319 1475.44 833.125 1479.01 Q834.953 1482.55 838.564 1482.55 Q842.199 1482.55 844.004 1479.01 Q845.833 1475.44 845.833 1468.33 Q845.833 1461.2 844.004 1457.66 Q842.199 1454.1 838.564 1454.1 M838.564 1450.39 Q844.375 1450.39 847.43 1455 Q850.509 1459.58 850.509 1468.33 Q850.509 1477.06 847.43 1481.67 Q844.375 1486.25 838.564 1486.25 Q832.754 1486.25 829.676 1481.67 Q826.62 1477.06 826.62 1468.33 Q826.62 1459.58 829.676 1455 Q832.754 1450.39 838.564 1450.39 Z" fill="#000000" fill-rule="nonzero" fill-opacity="1" /><path clip-path="url(#clip990)" d="M871.573 1455.09 L859.768 1473.54 L871.573 1473.54 L871.573 1455.09 M870.347 1451.02 L876.226 1451.02 L876.226 1473.54 L881.157 1473.54 L881.157 1477.43 L876.226 1477.43 L876.226 1485.58 L871.573 1485.58 L871.573 1477.43 L855.972 1477.43 L855.972 1472.92 L870.347 1451.02 Z" fill="#000000" fill-rule="nonzero" fill-opacity="1" /><path clip-path="url(#clip990)" d="M886.134 1470.7 L898.61 1470.7 L898.61 1474.49 L886.134 1474.49 L886.134 1470.7 Z" fill="#000000" fill-rule="nonzero" fill-opacity="1" /><path clip-path="url(#clip990)" d="M915.995 1454.1 Q912.383 1454.1 910.555 1457.66 Q908.749 1461.2 908.749 1468.33 Q908.749 1475.44 910.555 1479.01 Q912.383 1482.55 915.995 1482.55 Q919.629 1482.55 921.434 1479.01 Q923.263 1475.44 923.263 1468.33 Q923.263 1461.2 921.434 1457.66 Q919.629 1454.1 915.995 1454.1 M915.995 1450.39 Q921.805 1450.39 924.86 1455 Q927.939 1459.58 927.939 1468.33 Q927.939 1477.06 924.86 1481.67 Q921.805 1486.25 915.995 1486.25 Q910.184 1486.25 907.106 1481.67 Q904.05 1477.06 904.05 1468.33 Q904.05 1459.58 907.106 1455 Q910.184 1450.39 915.995 1450.39 Z" fill="#000000" fill-rule="nonzero" fill-opacity="1" /><path clip-path="url(#clip990)" d="M936.967 1481.64 L944.605 1481.64 L944.605 1455.28 L936.295 1456.95 L936.295 1452.69 L944.559 1451.02 L949.235 1451.02 L949.235 1481.64 L956.874 1481.64 L956.874 1485.58 L936.967 1485.58 L936.967 1481.64 Z" fill="#000000" fill-rule="nonzero" fill-opacity="1" /><path clip-path="url(#clip990)" d="M1201.09 1481.64 L1217.41 1481.64 L1217.41 1485.58 L1195.47 1485.58 L1195.47 1481.64 Q1198.13 1478.89 1202.71 1474.26 Q1207.32 1469.61 1208.5 1468.27 Q1210.75 1465.74 1211.63 1464.01 Q1212.53 1462.25 1212.53 1460.56 Q1212.53 1457.8 1210.58 1456.07 Q1208.66 1454.33 1205.56 1454.33 Q1203.36 1454.33 1200.91 1455.09 Q1198.48 1455.86 1195.7 1457.41 L1195.7 1452.69 Q1198.52 1451.55 1200.98 1450.97 Q1203.43 1450.39 1205.47 1450.39 Q1210.84 1450.39 1214.03 1453.08 Q1217.23 1455.77 1217.23 1460.26 Q1217.23 1462.39 1216.42 1464.31 Q1215.63 1466.2 1213.52 1468.8 Q1212.95 1469.47 1209.84 1472.69 Q1206.74 1475.88 1201.09 1481.64 Z" fill="#000000" fill-rule="nonzero" fill-opacity="1" /><path clip-path="url(#clip990)" d="M1237.23 1454.1 Q1233.62 1454.1 1231.79 1457.66 Q1229.98 1461.2 1229.98 1468.33 Q1229.98 1475.44 1231.79 1479.01 Q1233.62 1482.55 1237.23 1482.55 Q1240.86 1482.55 1242.67 1479.01 Q1244.5 1475.44 1244.5 1468.33 Q1244.5 1461.2 1242.67 1457.66 Q1240.86 1454.1 1237.23 1454.1 M1237.23 1450.39 Q1243.04 1450.39 1246.09 1455 Q1249.17 1459.58 1249.17 1468.33 Q1249.17 1477.06 1246.09 1481.67 Q1243.04 1486.25 1237.23 1486.25 Q1231.42 1486.25 1228.34 1481.67 Q1225.28 1477.06 1225.28 1468.33 Q1225.28 1459.58 1228.34 1455 Q1231.42 1450.39 1237.23 1450.39 Z" fill="#000000" fill-rule="nonzero" fill-opacity="1" /><path clip-path="url(#clip990)" d="M1261.42 1481.64 L1277.74 1481.64 L1277.74 1485.58 L1255.79 1485.58 L1255.79 1481.64 Q1258.45 1478.89 1263.04 1474.26 Q1267.64 1469.61 1268.82 1468.27 Q1271.07 1465.74 1271.95 1464.01 Q1272.85 1462.25 1272.85 1460.56 Q1272.85 1457.8 1270.91 1456.07 Q1268.99 1454.33 1265.89 1454.33 Q1263.69 1454.33 1261.23 1455.09 Q1258.8 1455.86 1256.02 1457.41 L1256.02 1452.69 Q1258.85 1451.55 1261.3 1450.97 Q1263.76 1450.39 1265.79 1450.39 Q1271.16 1450.39 1274.36 1453.08 Q1277.55 1455.77 1277.55 1460.26 Q1277.55 1462.39 1276.74 1464.31 Q1275.95 1466.2 1273.85 1468.8 Q1273.27 1469.47 1270.17 1472.69 Q1267.07 1475.88 1261.42 1481.64 Z" fill="#000000" fill-rule="nonzero" fill-opacity="1" /><path clip-path="url(#clip990)" d="M1288.36 1481.64 L1296 1481.64 L1296 1455.28 L1287.69 1456.95 L1287.69 1452.69 L1295.95 1451.02 L1300.63 1451.02 L1300.63 1481.64 L1308.27 1481.64 L1308.27 1485.58 L1288.36 1485.58 L1288.36 1481.64 Z" fill="#000000" fill-rule="nonzero" fill-opacity="1" /><path clip-path="url(#clip990)" d="M1314.96 1470.7 L1327.44 1470.7 L1327.44 1474.49 L1314.96 1474.49 L1314.96 1470.7 Z" fill="#000000" fill-rule="nonzero" fill-opacity="1" /><path clip-path="url(#clip990)" d="M1344.82 1454.1 Q1341.21 1454.1 1339.38 1457.66 Q1337.57 1461.2 1337.57 1468.33 Q1337.57 1475.44 1339.38 1479.01 Q1341.21 1482.55 1344.82 1482.55 Q1348.45 1482.55 1350.26 1479.01 Q1352.09 1475.44 1352.09 1468.33 Q1352.09 1461.2 1350.26 1457.66 Q1348.45 1454.1 1344.82 1454.1 M1344.82 1450.39 Q1350.63 1450.39 1353.69 1455 Q1356.76 1459.58 1356.76 1468.33 Q1356.76 1477.06 1353.69 1481.67 Q1350.63 1486.25 1344.82 1486.25 Q1339.01 1486.25 1335.93 1481.67 Q1332.88 1477.06 1332.88 1468.33 Q1332.88 1459.58 1335.93 1455 Q1339.01 1450.39 1344.82 1450.39 Z" fill="#000000" fill-rule="nonzero" fill-opacity="1" /><path clip-path="url(#clip990)" d="M1363.8 1451.02 L1386.02 1451.02 L1386.02 1453.01 L1373.48 1485.58 L1368.59 1485.58 L1380.4 1454.96 L1363.8 1454.96 L1363.8 1451.02 Z" fill="#000000" fill-rule="nonzero" fill-opacity="1" /><path clip-path="url(#clip990)" d="M1392.39 1470.7 L1404.87 1470.7 L1404.87 1474.49 L1392.39 1474.49 L1392.39 1470.7 Z" fill="#000000" fill-rule="nonzero" fill-opacity="1" /><path clip-path="url(#clip990)" d="M1422.25 1454.1 Q1418.64 1454.1 1416.81 1457.66 Q1415 1461.2 1415 1468.33 Q1415 1475.44 1416.81 1479.01 Q1418.64 1482.55 1422.25 1482.55 Q1425.88 1482.55 1427.69 1479.01 Q1429.52 1475.44 1429.52 1468.33 Q1429.52 1461.2 1427.69 1457.66 Q1425.88 1454.1 1422.25 1454.1 M1422.25 1450.39 Q1428.06 1450.39 1431.12 1455 Q1434.19 1459.58 1434.19 1468.33 Q1434.19 1477.06 1431.12 1481.67 Q1428.06 1486.25 1422.25 1486.25 Q1416.44 1486.25 1413.36 1481.67 Q1410.31 1477.06 1410.31 1468.33 Q1410.31 1459.58 1413.36 1455 Q1416.44 1450.39 1422.25 1450.39 Z" fill="#000000" fill-rule="nonzero" fill-opacity="1" /><path clip-path="url(#clip990)" d="M1443.22 1481.64 L1450.86 1481.64 L1450.86 1455.28 L1442.55 1456.95 L1442.55 1452.69 L1450.81 1451.02 L1455.49 1451.02 L1455.49 1481.64 L1463.13 1481.64 L1463.13 1485.58 L1443.22 1485.58 L1443.22 1481.64 Z" fill="#000000" fill-rule="nonzero" fill-opacity="1" /><path clip-path="url(#clip990)" d="M1712.91 1481.64 L1729.23 1481.64 L1729.23 1485.58 L1707.29 1485.58 L1707.29 1481.64 Q1709.95 1478.89 1714.53 1474.26 Q1719.14 1469.61 1720.32 1468.27 Q1722.57 1465.74 1723.44 1464.01 Q1724.35 1462.25 1724.35 1460.56 Q1724.35 1457.8 1722.4 1456.07 Q1720.48 1454.33 1717.38 1454.33 Q1715.18 1454.33 1712.73 1455.09 Q1710.3 1455.86 1707.52 1457.41 L1707.52 1452.69 Q1710.34 1451.55 1712.8 1450.97 Q1715.25 1450.39 1717.29 1450.39 Q1722.66 1450.39 1725.85 1453.08 Q1729.05 1455.77 1729.05 1460.26 Q1729.05 1462.39 1728.24 1464.31 Q1727.45 1466.2 1725.34 1468.8 Q1724.76 1469.47 1721.66 1472.69 Q1718.56 1475.88 1712.91 1481.64 Z" fill="#000000" fill-rule="nonzero" fill-opacity="1" /><path clip-path="url(#clip990)" d="M1749.05 1454.1 Q1745.44 1454.1 1743.61 1457.66 Q1741.8 1461.2 1741.8 1468.33 Q1741.8 1475.44 1743.61 1479.01 Q1745.44 1482.55 1749.05 1482.55 Q1752.68 1482.55 1754.49 1479.01 Q1756.32 1475.44 1756.32 1468.33 Q1756.32 1461.2 1754.49 1457.66 Q1752.68 1454.1 1749.05 1454.1 M1749.05 1450.39 Q1754.86 1450.39 1757.91 1455 Q1760.99 1459.58 1760.99 1468.33 Q1760.99 1477.06 1757.91 1481.67 Q1754.86 1486.25 1749.05 1486.25 Q1743.24 1486.25 1740.16 1481.67 Q1737.1 1477.06 1737.1 1468.33 Q1737.1 1459.58 1740.16 1455 Q1743.24 1450.39 1749.05 1450.39 Z" fill="#000000" fill-rule="nonzero" fill-opacity="1" /><path clip-path="url(#clip990)" d="M1773.24 1481.64 L1789.56 1481.64 L1789.56 1485.58 L1767.61 1485.58 L1767.61 1481.64 Q1770.27 1478.89 1774.86 1474.26 Q1779.46 1469.61 1780.64 1468.27 Q1782.89 1465.74 1783.77 1464.01 Q1784.67 1462.25 1784.67 1460.56 Q1784.67 1457.8 1782.73 1456.07 Q1780.81 1454.33 1777.7 1454.33 Q1775.5 1454.33 1773.05 1455.09 Q1770.62 1455.86 1767.84 1457.41 L1767.84 1452.69 Q1770.67 1451.55 1773.12 1450.97 Q1775.57 1450.39 1777.61 1450.39 Q1782.98 1450.39 1786.18 1453.08 Q1789.37 1455.77 1789.37 1460.26 Q1789.37 1462.39 1788.56 1464.31 Q1787.77 1466.2 1785.67 1468.8 Q1785.09 1469.47 1781.99 1472.69 Q1778.88 1475.88 1773.24 1481.64 Z" fill="#000000" fill-rule="nonzero" fill-opacity="1" /><path clip-path="url(#clip990)" d="M1800.18 1481.64 L1807.82 1481.64 L1807.82 1455.28 L1799.51 1456.95 L1799.51 1452.69 L1807.77 1451.02 L1812.45 1451.02 L1812.45 1481.64 L1820.09 1481.64 L1820.09 1485.58 L1800.18 1485.58 L1800.18 1481.64 Z" fill="#000000" fill-rule="nonzero" fill-opacity="1" /><path clip-path="url(#clip990)" d="M1826.78 1470.7 L1839.25 1470.7 L1839.25 1474.49 L1826.78 1474.49 L1826.78 1470.7 Z" fill="#000000" fill-rule="nonzero" fill-opacity="1" /><path clip-path="url(#clip990)" d="M1847.45 1481.64 L1855.09 1481.64 L1855.09 1455.28 L1846.78 1456.95 L1846.78 1452.69 L1855.04 1451.02 L1859.72 1451.02 L1859.72 1481.64 L1867.36 1481.64 L1867.36 1485.58 L1847.45 1485.58 L1847.45 1481.64 Z" fill="#000000" fill-rule="nonzero" fill-opacity="1" /><path clip-path="url(#clip990)" d="M1886.8 1454.1 Q1883.19 1454.1 1881.36 1457.66 Q1879.56 1461.2 1879.56 1468.33 Q1879.56 1475.44 1881.36 1479.01 Q1883.19 1482.55 1886.8 1482.55 Q1890.43 1482.55 1892.24 1479.01 Q1894.07 1475.44 1894.07 1468.33 Q1894.07 1461.2 1892.24 1457.66 Q1890.43 1454.1 1886.8 1454.1 M1886.8 1450.39 Q1892.61 1450.39 1895.67 1455 Q1898.74 1459.58 1898.74 1468.33 Q1898.74 1477.06 1895.67 1481.67 Q1892.61 1486.25 1886.8 1486.25 Q1880.99 1486.25 1877.91 1481.67 Q1874.86 1477.06 1874.86 1468.33 Q1874.86 1459.58 1877.91 1455 Q1880.99 1450.39 1886.8 1450.39 Z" fill="#000000" fill-rule="nonzero" fill-opacity="1" /><path clip-path="url(#clip990)" d="M1904.21 1470.7 L1916.68 1470.7 L1916.68 1474.49 L1904.21 1474.49 L1904.21 1470.7 Z" fill="#000000" fill-rule="nonzero" fill-opacity="1" /><path clip-path="url(#clip990)" d="M1934.07 1454.1 Q1930.46 1454.1 1928.63 1457.66 Q1926.82 1461.2 1926.82 1468.33 Q1926.82 1475.44 1928.63 1479.01 Q1930.46 1482.55 1934.07 1482.55 Q1937.7 1482.55 1939.51 1479.01 Q1941.34 1475.44 1941.34 1468.33 Q1941.34 1461.2 1939.51 1457.66 Q1937.7 1454.1 1934.07 1454.1 M1934.07 1450.39 Q1939.88 1450.39 1942.93 1455 Q1946.01 1459.58 1946.01 1468.33 Q1946.01 1477.06 1942.93 1481.67 Q1939.88 1486.25 1934.07 1486.25 Q1928.26 1486.25 1925.18 1481.67 Q1922.12 1477.06 1922.12 1468.33 Q1922.12 1459.58 1925.18 1455 Q1928.26 1450.39 1934.07 1450.39 Z" fill="#000000" fill-rule="nonzero" fill-opacity="1" /><path clip-path="url(#clip990)" d="M1955.04 1481.64 L1962.68 1481.64 L1962.68 1455.28 L1954.37 1456.95 L1954.37 1452.69 L1962.63 1451.02 L1967.31 1451.02 L1967.31 1481.64 L1974.95 1481.64 L1974.95 1485.58 L1955.04 1485.58 L1955.04 1481.64 Z" fill="#000000" fill-rule="nonzero" fill-opacity="1" /><path clip-path="url(#clip990)" d="M1273.87 1537.81 L1273.87 1518.52 L1279.73 1518.52 L1279.73 1568.04 L1273.87 1568.04 L1273.87 1562.7 Q1272.02 1565.88 1269.19 1567.44 Q1266.39 1568.97 1262.44 1568.97 Q1255.98 1568.97 1251.91 1563.81 Q1247.87 1558.65 1247.87 1550.25 Q1247.87 1541.85 1251.91 1536.69 Q1255.98 1531.54 1262.44 1531.54 Q1266.39 1531.54 1269.19 1533.1 Q1272.02 1534.62 1273.87 1537.81 M1253.91 1550.25 Q1253.91 1556.71 1256.56 1560.4 Q1259.23 1564.07 1263.88 1564.07 Q1268.52 1564.07 1271.2 1560.4 Q1273.87 1556.71 1273.87 1550.25 Q1273.87 1543.79 1271.2 1540.13 Q1268.52 1536.44 1263.88 1536.44 Q1259.23 1536.44 1256.56 1540.13 Q1253.91 1543.79 1253.91 1550.25 Z" fill="#000000" fill-rule="nonzero" fill-opacity="1" /><path clip-path="url(#clip990)" d="M1307.99 1550.12 Q1300.89 1550.12 1298.15 1551.75 Q1295.42 1553.37 1295.42 1557.29 Q1295.42 1560.4 1297.45 1562.25 Q1299.52 1564.07 1303.06 1564.07 Q1307.93 1564.07 1310.85 1560.63 Q1313.81 1557.16 1313.81 1551.43 L1313.81 1550.12 L1307.99 1550.12 M1319.67 1547.71 L1319.67 1568.04 L1313.81 1568.04 L1313.81 1562.63 Q1311.81 1565.88 1308.82 1567.44 Q1305.83 1568.97 1301.5 1568.97 Q1296.02 1568.97 1292.78 1565.91 Q1289.56 1562.82 1289.56 1557.67 Q1289.56 1551.65 1293.57 1548.6 Q1297.61 1545.54 1305.6 1545.54 L1313.81 1545.54 L1313.81 1544.97 Q1313.81 1540.93 1311.14 1538.73 Q1308.5 1536.5 1303.69 1536.5 Q1300.64 1536.5 1297.74 1537.23 Q1294.84 1537.97 1292.17 1539.43 L1292.17 1534.02 Q1295.39 1532.78 1298.41 1532.17 Q1301.43 1531.54 1304.3 1531.54 Q1312.03 1531.54 1315.85 1535.55 Q1319.67 1539.56 1319.67 1547.71 Z" fill="#000000" fill-rule="nonzero" fill-opacity="1" /><path clip-path="url(#clip990)" d="M1337.53 1522.27 L1337.53 1532.4 L1349.59 1532.4 L1349.59 1536.95 L1337.53 1536.95 L1337.53 1556.3 Q1337.53 1560.66 1338.7 1561.9 Q1339.91 1563.14 1343.57 1563.14 L1349.59 1563.14 L1349.59 1568.04 L1343.57 1568.04 Q1336.79 1568.04 1334.22 1565.53 Q1331.64 1562.98 1331.64 1556.3 L1331.64 1536.95 L1327.34 1536.95 L1327.34 1532.4 L1331.64 1532.4 L1331.64 1522.27 L1337.53 1522.27 Z" fill="#000000" fill-rule="nonzero" fill-opacity="1" /><path clip-path="url(#clip990)" d="M1387.78 1548.76 L1387.78 1551.62 L1360.86 1551.62 Q1361.24 1557.67 1364.49 1560.85 Q1367.76 1564 1373.59 1564 Q1376.96 1564 1380.11 1563.17 Q1383.3 1562.35 1386.42 1560.69 L1386.42 1566.23 Q1383.26 1567.57 1379.95 1568.27 Q1376.64 1568.97 1373.24 1568.97 Q1364.71 1568.97 1359.71 1564 Q1354.75 1559.04 1354.75 1550.57 Q1354.75 1541.82 1359.46 1536.69 Q1364.2 1531.54 1372.22 1531.54 Q1379.41 1531.54 1383.58 1536.18 Q1387.78 1540.8 1387.78 1548.76 M1381.93 1547.04 Q1381.86 1542.23 1379.22 1539.37 Q1376.61 1536.5 1372.28 1536.5 Q1367.38 1536.5 1364.42 1539.27 Q1361.49 1542.04 1361.05 1547.07 L1381.93 1547.04 Z" fill="#000000" fill-rule="nonzero" fill-opacity="1" /><polyline clip-path="url(#clip992)" style="stroke:#000000; stroke-linecap:round; stroke-linejoin:round; stroke-width:2; stroke-opacity:0.1; fill:none" points="282.894,1346.28 2352.76,1346.28 "/>
<polyline clip-path="url(#clip992)" style="stroke:#000000; stroke-linecap:round; stroke-linejoin:round; stroke-width:2; stroke-opacity:0.1; fill:none" points="282.894,619.991 2352.76,619.991 "/>
<polyline clip-path="url(#clip990)" style="stroke:#000000; stroke-linecap:round; stroke-linejoin:round; stroke-width:4; stroke-opacity:1; fill:none" points="282.894,1423.18 282.894,47.2441 "/>
<polyline clip-path="url(#clip990)" style="stroke:#000000; stroke-linecap:round; stroke-linejoin:round; stroke-width:4; stroke-opacity:1; fill:none" points="282.894,1346.28 301.792,1346.28 "/>
<polyline clip-path="url(#clip990)" style="stroke:#000000; stroke-linecap:round; stroke-linejoin:round; stroke-width:4; stroke-opacity:1; fill:none" points="282.894,619.991 301.792,619.991 "/>
<path clip-path="url(#clip990)" d="M114.931 1366.08 L122.57 1366.08 L122.57 1339.71 L114.26 1341.38 L114.26 1337.12 L122.524 1335.45 L127.2 1335.45 L127.2 1366.08 L134.839 1366.08 L134.839 1370.01 L114.931 1370.01 L114.931 1366.08 Z" fill="#000000" fill-rule="nonzero" fill-opacity="1" /><path clip-path="url(#clip990)" d="M154.283 1338.53 Q150.672 1338.53 148.843 1342.1 Q147.038 1345.64 147.038 1352.77 Q147.038 1359.87 148.843 1363.44 Q150.672 1366.98 154.283 1366.98 Q157.917 1366.98 159.723 1363.44 Q161.552 1359.87 161.552 1352.77 Q161.552 1345.64 159.723 1342.1 Q157.917 1338.53 154.283 1338.53 M154.283 1334.83 Q160.093 1334.83 163.149 1339.43 Q166.227 1344.02 166.227 1352.77 Q166.227 1361.49 163.149 1366.1 Q160.093 1370.68 154.283 1370.68 Q148.473 1370.68 145.394 1366.1 Q142.339 1361.49 142.339 1352.77 Q142.339 1344.02 145.394 1339.43 Q148.473 1334.83 154.283 1334.83 Z" fill="#000000" fill-rule="nonzero" fill-opacity="1" /><path clip-path="url(#clip990)" d="M175.932 1317.02 Q172.998 1317.02 171.512 1319.92 Q170.045 1322.8 170.045 1328.59 Q170.045 1334.36 171.512 1337.26 Q172.998 1340.14 175.932 1340.14 Q178.885 1340.14 180.352 1337.26 Q181.838 1334.36 181.838 1328.59 Q181.838 1322.8 180.352 1319.92 Q178.885 1317.02 175.932 1317.02 M175.932 1314.01 Q180.653 1314.01 183.136 1317.76 Q185.637 1321.48 185.637 1328.59 Q185.637 1335.68 183.136 1339.42 Q180.653 1343.15 175.932 1343.15 Q171.212 1343.15 168.71 1339.42 Q166.227 1335.68 166.227 1328.59 Q166.227 1321.48 168.71 1317.76 Q171.212 1314.01 175.932 1314.01 Z" fill="#000000" fill-rule="nonzero" fill-opacity="1" /><path clip-path="url(#clip990)" d="M192.314 1337.82 L196.282 1337.82 L196.282 1342.6 L192.314 1342.6 L192.314 1337.82 Z" fill="#000000" fill-rule="nonzero" fill-opacity="1" /><path clip-path="url(#clip990)" d="M212.683 1317.02 Q209.749 1317.02 208.263 1319.92 Q206.796 1322.8 206.796 1328.59 Q206.796 1334.36 208.263 1337.26 Q209.749 1340.14 212.683 1340.14 Q215.635 1340.14 217.102 1337.26 Q218.588 1334.36 218.588 1328.59 Q218.588 1322.8 217.102 1319.92 Q215.635 1317.02 212.683 1317.02 M212.683 1314.01 Q217.403 1314.01 219.886 1317.76 Q222.387 1321.48 222.387 1328.59 Q222.387 1335.68 219.886 1339.42 Q217.403 1343.15 212.683 1343.15 Q207.962 1343.15 205.46 1339.42 Q202.978 1335.68 202.978 1328.59 Q202.978 1321.48 205.46 1317.76 Q207.962 1314.01 212.683 1314.01 Z" fill="#000000" fill-rule="nonzero" fill-opacity="1" /><path clip-path="url(#clip990)" d="M237.189 1317.02 Q234.255 1317.02 232.769 1319.92 Q231.302 1322.8 231.302 1328.59 Q231.302 1334.36 232.769 1337.26 Q234.255 1340.14 237.189 1340.14 Q240.142 1340.14 241.609 1337.26 Q243.095 1334.36 243.095 1328.59 Q243.095 1322.8 241.609 1319.92 Q240.142 1317.02 237.189 1317.02 M237.189 1314.01 Q241.91 1314.01 244.393 1317.76 Q246.894 1321.48 246.894 1328.59 Q246.894 1335.68 244.393 1339.42 Q241.91 1343.15 237.189 1343.15 Q232.468 1343.15 229.967 1339.42 Q227.484 1335.68 227.484 1328.59 Q227.484 1321.48 229.967 1317.76 Q232.468 1314.01 237.189 1314.01 Z" fill="#000000" fill-rule="nonzero" fill-opacity="1" /><path clip-path="url(#clip990)" d="M115.458 639.783 L123.097 639.783 L123.097 613.417 L114.787 615.084 L114.787 610.825 L123.051 609.158 L127.727 609.158 L127.727 639.783 L135.365 639.783 L135.365 643.718 L115.458 643.718 L115.458 639.783 Z" fill="#000000" fill-rule="nonzero" fill-opacity="1" /><path clip-path="url(#clip990)" d="M154.81 612.237 Q151.199 612.237 149.37 615.802 Q147.564 619.343 147.564 626.473 Q147.564 633.579 149.37 637.144 Q151.199 640.686 154.81 640.686 Q158.444 640.686 160.249 637.144 Q162.078 633.579 162.078 626.473 Q162.078 619.343 160.249 615.802 Q158.444 612.237 154.81 612.237 M154.81 608.533 Q160.62 608.533 163.675 613.14 Q166.754 617.723 166.754 626.473 Q166.754 635.2 163.675 639.806 Q160.62 644.389 154.81 644.389 Q149 644.389 145.921 639.806 Q142.865 635.2 142.865 626.473 Q142.865 617.723 145.921 613.14 Q149 608.533 154.81 608.533 Z" fill="#000000" fill-rule="nonzero" fill-opacity="1" /><path clip-path="url(#clip990)" d="M176.459 590.729 Q173.525 590.729 172.039 593.626 Q170.572 596.503 170.572 602.296 Q170.572 608.07 172.039 610.966 Q173.525 613.844 176.459 613.844 Q179.412 613.844 180.879 610.966 Q182.365 608.07 182.365 602.296 Q182.365 596.503 180.879 593.626 Q179.412 590.729 176.459 590.729 M176.459 587.72 Q181.18 587.72 183.662 591.463 Q186.164 595.187 186.164 602.296 Q186.164 609.386 183.662 613.129 Q181.18 616.853 176.459 616.853 Q171.738 616.853 169.237 613.129 Q166.754 609.386 166.754 602.296 Q166.754 595.187 169.237 591.463 Q171.738 587.72 176.459 587.72 Z" fill="#000000" fill-rule="nonzero" fill-opacity="1" /><path clip-path="url(#clip990)" d="M192.84 611.531 L196.809 611.531 L196.809 616.308 L192.84 616.308 L192.84 611.531 Z" fill="#000000" fill-rule="nonzero" fill-opacity="1" /><path clip-path="url(#clip990)" d="M213.209 590.729 Q210.275 590.729 208.789 593.626 Q207.322 596.503 207.322 602.296 Q207.322 608.07 208.789 610.966 Q210.275 613.844 213.209 613.844 Q216.162 613.844 217.629 610.966 Q219.115 608.07 219.115 602.296 Q219.115 596.503 217.629 593.626 Q216.162 590.729 213.209 590.729 M213.209 587.72 Q217.93 587.72 220.413 591.463 Q222.914 595.187 222.914 602.296 Q222.914 609.386 220.413 613.129 Q217.93 616.853 213.209 616.853 Q208.489 616.853 205.987 613.129 Q203.504 609.386 203.504 602.296 Q203.504 595.187 205.987 591.463 Q208.489 587.72 213.209 587.72 Z" fill="#000000" fill-rule="nonzero" fill-opacity="1" /><path clip-path="url(#clip990)" d="M241.101 601.167 Q243.828 601.751 245.352 603.594 Q246.894 605.437 246.894 608.145 Q246.894 612.302 244.035 614.577 Q241.176 616.853 235.91 616.853 Q234.142 616.853 232.262 616.496 Q230.4 616.157 228.406 615.461 L228.406 611.794 Q229.986 612.715 231.867 613.186 Q233.747 613.656 235.797 613.656 Q239.371 613.656 241.233 612.245 Q243.114 610.835 243.114 608.145 Q243.114 605.663 241.365 604.271 Q239.634 602.86 236.531 602.86 L233.258 602.86 L233.258 599.738 L236.681 599.738 Q239.484 599.738 240.97 598.628 Q242.455 597.5 242.455 595.393 Q242.455 593.231 240.913 592.083 Q239.39 590.917 236.531 590.917 Q234.97 590.917 233.183 591.256 Q231.396 591.594 229.252 592.309 L229.252 588.924 Q231.415 588.322 233.296 588.021 Q235.196 587.72 236.869 587.72 Q241.195 587.72 243.715 589.695 Q246.236 591.651 246.236 594.999 Q246.236 597.331 244.9 598.948 Q243.565 600.547 241.101 601.167 Z" fill="#000000" fill-rule="nonzero" fill-opacity="1" /><path clip-path="url(#clip990)" d="M46.0847 888.244 Q46.0847 895.341 47.7079 898.079 Q49.3312 900.816 53.2461 900.816 Q56.3653 900.816 58.2114 898.779 Q60.0256 896.71 60.0256 893.177 Q60.0256 888.307 56.5881 885.379 Q53.1188 882.419 47.3897 882.419 L46.0847 882.419 L46.0847 888.244 M43.6657 876.562 L64.0042 876.562 L64.0042 882.419 L58.5933 882.419 Q61.8398 884.424 63.3994 887.416 Q64.9272 890.408 64.9272 894.737 Q64.9272 900.211 61.8716 903.458 Q58.7843 906.672 53.6281 906.672 Q47.6125 906.672 44.5569 902.662 Q41.5014 898.62 41.5014 890.631 L41.5014 882.419 L40.9285 882.419 Q36.8862 882.419 34.6901 885.093 Q32.4621 887.734 32.4621 892.54 Q32.4621 895.596 33.1941 898.492 Q33.9262 901.389 35.3903 904.062 L29.9795 904.062 Q28.7381 900.848 28.1334 897.824 Q27.4968 894.8 27.4968 891.936 Q27.4968 884.201 31.5072 880.382 Q35.5176 876.562 43.6657 876.562 Z" fill="#000000" fill-rule="nonzero" fill-opacity="1" /><path clip-path="url(#clip990)" d="M29.7248 838.846 L35.1993 838.846 Q33.8307 841.328 33.1623 843.843 Q32.4621 846.325 32.4621 848.872 Q32.4621 854.569 36.0905 857.72 Q39.6872 860.871 46.212 860.871 Q52.7369 860.871 56.3653 857.72 Q59.9619 854.569 59.9619 848.872 Q59.9619 846.325 59.2935 843.843 Q58.5933 841.328 57.2247 838.846 L62.6355 838.846 Q63.7814 841.296 64.3543 843.938 Q64.9272 846.548 64.9272 849.508 Q64.9272 857.561 59.8664 862.303 Q54.8057 867.046 46.212 867.046 Q37.491 867.046 32.4939 862.271 Q27.4968 857.465 27.4968 849.126 Q27.4968 846.421 28.0697 843.843 Q28.6108 841.265 29.7248 838.846 Z" fill="#000000" fill-rule="nonzero" fill-opacity="1" /><path clip-path="url(#clip990)" d="M29.7248 803.007 L35.1993 803.007 Q33.8307 805.489 33.1623 808.004 Q32.4621 810.486 32.4621 813.033 Q32.4621 818.73 36.0905 821.881 Q39.6872 825.032 46.212 825.032 Q52.7369 825.032 56.3653 821.881 Q59.9619 818.73 59.9619 813.033 Q59.9619 810.486 59.2935 808.004 Q58.5933 805.489 57.2247 803.007 L62.6355 803.007 Q63.7814 805.458 64.3543 808.099 Q64.9272 810.709 64.9272 813.669 Q64.9272 821.722 59.8664 826.464 Q54.8057 831.207 46.212 831.207 Q37.491 831.207 32.4939 826.433 Q27.4968 821.626 27.4968 813.287 Q27.4968 810.582 28.0697 808.004 Q28.6108 805.426 29.7248 803.007 Z" fill="#000000" fill-rule="nonzero" fill-opacity="1" /><path clip-path="url(#clip990)" d="M55.9197 791.994 L55.9197 785.278 L64.0042 785.278 L64.0042 791.994 L55.9197 791.994 Z" fill="#000000" fill-rule="nonzero" fill-opacity="1" /><path clip-path="url(#clip990)" d="M33.8307 730.724 Q33.2578 731.711 33.0032 732.888 Q32.7167 734.034 32.7167 735.435 Q32.7167 740.4 35.9632 743.074 Q39.1779 745.715 45.2253 745.715 L64.0042 745.715 L64.0042 751.604 L28.3562 751.604 L28.3562 745.715 L33.8944 745.715 Q30.6479 743.869 29.0883 740.909 Q27.4968 737.949 27.4968 733.716 Q27.4968 733.111 27.5923 732.379 Q27.656 731.647 27.8151 730.756 L33.8307 730.724 Z" fill="#000000" fill-rule="nonzero" fill-opacity="1" /><path clip-path="url(#clip990)" d="M44.7161 695.522 L47.5806 695.522 L47.5806 722.449 Q53.6281 722.067 56.8109 718.82 Q59.9619 715.542 59.9619 709.717 Q59.9619 706.343 59.1344 703.192 Q58.3069 700.01 56.6518 696.89 L62.1899 696.89 Q63.5267 700.041 64.227 703.352 Q64.9272 706.662 64.9272 710.067 Q64.9272 718.597 59.9619 723.595 Q54.9967 728.56 46.5303 728.56 Q37.7774 728.56 32.6531 723.849 Q27.4968 719.107 27.4968 711.086 Q27.4968 703.893 32.1438 699.723 Q36.7589 695.522 44.7161 695.522 M42.9973 701.378 Q38.1912 701.442 35.3266 704.084 Q32.4621 706.694 32.4621 711.022 Q32.4621 715.924 35.2312 718.884 Q38.0002 721.812 43.0292 722.258 L42.9973 701.378 Z" fill="#000000" fill-rule="nonzero" fill-opacity="1" /><path clip-path="url(#clip990)" d="M18.2347 680.117 L28.3562 680.117 L28.3562 668.054 L32.9077 668.054 L32.9077 680.117 L52.2594 680.117 Q56.6199 680.117 57.8613 678.939 Q59.1026 677.73 59.1026 674.069 L59.1026 668.054 L64.0042 668.054 L64.0042 674.069 Q64.0042 680.849 61.4897 683.427 Q58.9434 686.005 52.2594 686.005 L32.9077 686.005 L32.9077 690.302 L28.3562 690.302 L28.3562 686.005 L18.2347 686.005 L18.2347 680.117 Z" fill="#000000" fill-rule="nonzero" fill-opacity="1" /><path clip-path="url(#clip990)" d="M49.9359 660.956 L28.3562 660.956 L28.3562 655.1 L49.7131 655.1 Q54.7739 655.1 57.3202 653.126 Q59.8346 651.153 59.8346 647.206 Q59.8346 642.464 56.8109 639.726 Q53.7872 636.957 48.5673 636.957 L28.3562 636.957 L28.3562 631.101 L64.0042 631.101 L64.0042 636.957 L58.5296 636.957 Q61.7762 639.09 63.3676 641.923 Q64.9272 644.723 64.9272 648.447 Q64.9272 654.59 61.1078 657.773 Q57.2883 660.956 49.9359 660.956 M27.4968 646.219 L27.4968 646.219 Z" fill="#000000" fill-rule="nonzero" fill-opacity="1" /><path clip-path="url(#clip990)" d="M33.8307 598.381 Q33.2578 599.368 33.0032 600.545 Q32.7167 601.691 32.7167 603.092 Q32.7167 608.057 35.9632 610.731 Q39.1779 613.372 45.2253 613.372 L64.0042 613.372 L64.0042 619.261 L28.3562 619.261 L28.3562 613.372 L33.8944 613.372 Q30.6479 611.526 29.0883 608.566 Q27.4968 605.606 27.4968 601.373 Q27.4968 600.768 27.5923 600.036 Q27.656 599.304 27.8151 598.413 L33.8307 598.381 Z" fill="#000000" fill-rule="nonzero" fill-opacity="1" /><path clip-path="url(#clip990)" d="M42.4881 563.752 L64.0042 563.752 L64.0042 569.608 L42.679 569.608 Q37.6183 569.608 35.1038 571.581 Q32.5894 573.555 32.5894 577.502 Q32.5894 582.244 35.6131 584.981 Q38.6368 587.719 43.8567 587.719 L64.0042 587.719 L64.0042 593.607 L28.3562 593.607 L28.3562 587.719 L33.8944 587.719 Q30.6797 585.618 29.0883 582.785 Q27.4968 579.921 27.4968 576.197 Q27.4968 570.054 31.3163 566.903 Q35.1038 563.752 42.4881 563.752 Z" fill="#000000" fill-rule="nonzero" fill-opacity="1" /><polyline clip-path="url(#clip992)" style="stroke:#009af9; stroke-linecap:round; stroke-linejoin:round; stroke-width:12; stroke-opacity:1; fill:none" points="341.475,1346.28 341.475,1346.28 347.038,1371.88 352.601,1384.24 358.165,1345.21 363.728,1339.87 380.418,1356.2 385.981,1367.8 391.544,1365.71 397.107,1374.44 402.671,1350.67 424.924,1311.7 430.487,1299.92 436.05,1305.62 441.613,1294.91 458.303,1243.58 463.866,1190.85 469.43,954.321 474.993,1080.73 480.556,1083.34 497.246,1049.31 502.809,1044.2 508.372,1028.64 513.936,1017.55 519.499,1000.99 536.189,963.709 541.752,950.225 547.315,946.545 552.878,958.124 558.442,957.215 580.695,954.13 586.258,964.106 591.821,989.553 597.384,965.899 614.074,979.442 619.637,954.626 625.201,930.077 630.764,953.054 636.327,971.294 653.017,927.679 658.58,918.364 664.143,923.08 669.707,984.439 675.27,936.141 691.96,918.912 697.523,929.116 703.086,931.289 708.649,922.907 714.213,909.228 730.671,864.101 736.234,883.52 741.797,882.729 747.36,894.485 752.924,891.655 769.613,904.373 775.177,934.335 780.74,965.443 786.303,919.994 791.866,855.437 808.556,854.185 814.119,857.111 819.682,884.321 825.246,895.411 847.499,880.682 853.062,892.994 858.625,890.578 864.188,884.108 869.752,894.53 886.441,912.065 892.005,870.143 897.568,897.597 903.131,870.111 908.694,855.054 925.384,878.925 930.947,899.165 936.511,867.546 942.074,868.9 947.637,845.238 964.327,844.757 969.89,862.749 975.453,854.495 981.017,863.531 986.58,892.286 1003.27,895.318 1008.83,929.143 1014.4,923.832 1019.96,937.345 1025.52,913.058 1042.21,913.51 1047.78,919.208 1053.34,964.671 1058.9,907.062 1064.47,867.83 1081.16,821.919 1086.72,828.629 1092.28,846.297 1097.84,839.387 1103.41,841.613 1120.1,844.34 1125.66,857.583 1131.22,828.476 1136.79,749.743 1142.35,719.13 1164.6,665.894 1170.17,567.798 1175.73,580.531 1181.29,576.217 1197.98,549.502 1203.55,546.615 1209.11,553.021 1214.67,562.102 1220.24,585.544 1236.93,579.491 1242.49,594.776 1248.05,607.179 1253.62,590.77 1259.18,590.487 1275.87,597.884 1281.43,593.897 1287,583.072 1292.56,588.894 1298.12,591.84 1314.81,577.619 1320.37,588.231 1325.94,598.334 1331.5,593.164 1337.06,571.171 1359.32,582.57 1364.88,581.181 1370.44,612.127 1376.01,569.891 1392.7,554.492 1398.26,555.455 1403.82,543.775 1409.39,544.927 1414.95,569.936 1431.64,616.358 1437.2,573.458 1442.77,565.917 1448.33,573.217 1453.89,548.586 1470.58,534.681 1476.15,558.473 1481.71,608.635 1487.27,619.797 1492.84,550.34 1509.53,506.123 1515.09,465.375 1520.65,472.826 1526.21,481.073 1531.78,505.122 1548.47,503.096 1554.03,536.387 1559.59,539.926 1565.16,506.462 1570.72,495.697 1587.41,509.36 1592.97,556.367 1598.54,591.186 1604.1,576.348 1609.66,519.549 1626.35,482.868 1631.92,431.983 1637.48,412.636 1643.04,416.146 1648.61,391.184 1665.3,383.001 1670.86,377.079 1676.42,398.811 1681.99,366.495 1687.55,374.737 1709.8,384.624 1715.37,374.385 1720.93,386.83 1726.49,369.654 1743.18,373.87 1748.74,375.097 1754.31,371.501 1759.87,383.378 1765.43,416.478 1782.12,450.554 1787.69,454.837 1793.25,460.156 1798.81,440.828 1804.38,482.12 1821.07,450.121 1826.63,483.468 1832.19,468.088 1837.76,470.05 1843.32,416.672 1860.01,372.524 1865.57,339.614 1871.14,362.505 1876.7,367.906 1882.26,344.342 1898.95,343.63 1904.52,330.861 1910.08,304.117 1915.64,309.144 1921.21,309.169 1937.9,315.833 1943.46,304.313 1949.02,283.394 1954.59,282.066 1960.15,268.622 1976.84,201.703 1982.4,220.873 1987.96,241.322 1993.53,229.602 1999.09,246.703 2015.78,205 2021.34,197.141 2026.91,177.858 2032.47,154.399 2038.03,150.562 2054.96,137.463 2060.52,151.002 2066.08,173.34 2071.65,160.297 2077.21,172.621 2093.9,155.925 2099.46,152.966 2105.02,151.134 2110.59,174.114 2116.15,155.231 2132.84,154.318 2138.4,153.227 2143.97,136.485 2155.09,175.195 2171.78,135.361 2177.35,161.634 2182.91,184.056 2188.47,172.66 2194.04,197.07 2210.73,186.328 2216.29,164.15 2221.85,153.682 2227.42,150.068 2232.98,110.251 2249.67,108.034 2255.23,118.915 2260.8,86.1857 2266.36,105.58 2271.92,120.421 2288.61,124.133 2294.17,110.612 "/>
<path clip-path="url(#clip990)" d="M1843.84 1377.32 L2283.76 1377.32 L2283.76 1273.64 L1843.84 1273.64  Z" fill="#ffffff" fill-rule="evenodd" fill-opacity="1"/>
<polyline clip-path="url(#clip990)" style="stroke:#000000; stroke-linecap:round; stroke-linejoin:round; stroke-width:4; stroke-opacity:1; fill:none" points="1843.84,1377.32 2283.76,1377.32 2283.76,1273.64 1843.84,1273.64 1843.84,1377.32 "/>
<polyline clip-path="url(#clip990)" style="stroke:#009af9; stroke-linecap:round; stroke-linejoin:round; stroke-width:12; stroke-opacity:1; fill:none" points="1866.83,1325.48 2004.83,1325.48 "/>
<path clip-path="url(#clip990)" d="M2027.82 1308.2 L2034.79 1308.2 L2043.61 1331.71 L2052.48 1308.2 L2059.44 1308.2 L2059.44 1342.76 L2054.88 1342.76 L2054.88 1312.41 L2045.97 1336.11 L2041.27 1336.11 L2032.36 1312.41 L2032.36 1342.76 L2027.82 1342.76 L2027.82 1308.2 Z" fill="#000000" fill-rule="nonzero" fill-opacity="1" /><path clip-path="url(#clip990)" d="M2080.32 1329.72 Q2075.16 1329.72 2073.17 1330.9 Q2071.18 1332.08 2071.18 1334.93 Q2071.18 1337.2 2072.66 1338.54 Q2074.17 1339.86 2076.74 1339.86 Q2080.28 1339.86 2082.41 1337.36 Q2084.56 1334.84 2084.56 1330.67 L2084.56 1329.72 L2080.32 1329.72 M2088.82 1327.96 L2088.82 1342.76 L2084.56 1342.76 L2084.56 1338.82 Q2083.1 1341.18 2080.93 1342.32 Q2078.75 1343.43 2075.6 1343.43 Q2071.62 1343.43 2069.26 1341.2 Q2066.92 1338.96 2066.92 1335.21 Q2066.92 1330.83 2069.84 1328.61 Q2072.78 1326.39 2078.59 1326.39 L2084.56 1326.39 L2084.56 1325.97 Q2084.56 1323.03 2082.61 1321.44 Q2080.69 1319.82 2077.2 1319.82 Q2074.98 1319.82 2072.87 1320.35 Q2070.76 1320.88 2068.82 1321.95 L2068.82 1318.01 Q2071.16 1317.11 2073.36 1316.67 Q2075.55 1316.2 2077.64 1316.2 Q2083.26 1316.2 2086.04 1319.12 Q2088.82 1322.04 2088.82 1327.96 Z" fill="#000000" fill-rule="nonzero" fill-opacity="1" /><path clip-path="url(#clip990)" d="M2112.61 1320.81 Q2111.9 1320.39 2111.04 1320.21 Q2110.21 1320 2109.19 1320 Q2105.58 1320 2103.63 1322.36 Q2101.71 1324.7 2101.71 1329.1 L2101.71 1342.76 L2097.43 1342.76 L2097.43 1316.83 L2101.71 1316.83 L2101.71 1320.86 Q2103.05 1318.5 2105.21 1317.36 Q2107.36 1316.2 2110.44 1316.2 Q2110.88 1316.2 2111.41 1316.27 Q2111.94 1316.32 2112.59 1316.44 L2112.61 1320.81 Z" fill="#000000" fill-rule="nonzero" fill-opacity="1" /><path clip-path="url(#clip990)" d="M2116.92 1306.74 L2121.2 1306.74 L2121.2 1328.01 L2133.91 1316.83 L2139.35 1316.83 L2125.6 1328.96 L2139.93 1342.76 L2134.37 1342.76 L2121.2 1330.09 L2121.2 1342.76 L2116.92 1342.76 L2116.92 1306.74 Z" fill="#000000" fill-rule="nonzero" fill-opacity="1" /><path clip-path="url(#clip990)" d="M2152.89 1319.82 Q2149.47 1319.82 2147.48 1322.5 Q2145.48 1325.16 2145.48 1329.82 Q2145.48 1334.47 2147.45 1337.15 Q2149.44 1339.82 2152.89 1339.82 Q2156.3 1339.82 2158.29 1337.13 Q2160.28 1334.45 2160.28 1329.82 Q2160.28 1325.21 2158.29 1322.52 Q2156.3 1319.82 2152.89 1319.82 M2152.89 1316.2 Q2158.45 1316.2 2161.62 1319.82 Q2164.79 1323.43 2164.79 1329.82 Q2164.79 1336.18 2161.62 1339.82 Q2158.45 1343.43 2152.89 1343.43 Q2147.31 1343.43 2144.14 1339.82 Q2140.99 1336.18 2140.99 1329.82 Q2140.99 1323.43 2144.14 1319.82 Q2147.31 1316.2 2152.89 1316.2 Z" fill="#000000" fill-rule="nonzero" fill-opacity="1" /><path clip-path="url(#clip990)" d="M2169.37 1316.83 L2173.63 1316.83 L2178.96 1337.06 L2184.26 1316.83 L2189.28 1316.83 L2194.6 1337.06 L2199.91 1316.83 L2204.17 1316.83 L2197.38 1342.76 L2192.36 1342.76 L2186.78 1321.51 L2181.18 1342.76 L2176.16 1342.76 L2169.37 1316.83 Z" fill="#000000" fill-rule="nonzero" fill-opacity="1" /><path clip-path="url(#clip990)" d="M2210.62 1316.83 L2214.88 1316.83 L2214.88 1342.76 L2210.62 1342.76 L2210.62 1316.83 M2210.62 1306.74 L2214.88 1306.74 L2214.88 1312.13 L2210.62 1312.13 L2210.62 1306.74 Z" fill="#000000" fill-rule="nonzero" fill-opacity="1" /><path clip-path="url(#clip990)" d="M2228.01 1309.47 L2228.01 1316.83 L2236.78 1316.83 L2236.78 1320.14 L2228.01 1320.14 L2228.01 1334.21 Q2228.01 1337.38 2228.86 1338.29 Q2229.74 1339.19 2232.41 1339.19 L2236.78 1339.19 L2236.78 1342.76 L2232.41 1342.76 Q2227.48 1342.76 2225.6 1340.93 Q2223.73 1339.07 2223.73 1334.21 L2223.73 1320.14 L2220.6 1320.14 L2220.6 1316.83 L2223.73 1316.83 L2223.73 1309.47 L2228.01 1309.47 Z" fill="#000000" fill-rule="nonzero" fill-opacity="1" /><path clip-path="url(#clip990)" d="M2240.53 1316.83 L2260.76 1316.83 L2260.76 1320.72 L2244.74 1339.35 L2260.76 1339.35 L2260.76 1342.76 L2239.95 1342.76 L2239.95 1338.87 L2255.97 1320.23 L2240.53 1320.23 L2240.53 1316.83 Z" fill="#000000" fill-rule="nonzero" fill-opacity="1" /></svg>
