<?xml version="1.0" encoding="utf-8"?>
<svg xmlns="http://www.w3.org/2000/svg" xmlns:xlink="http://www.w3.org/1999/xlink" width="600" height="400" viewBox="0 0 2400 1600">
<defs>
  <clipPath id="clip950">
    <rect x="0" y="0" width="2400" height="1600"/>
  </clipPath>
</defs>
<path clip-path="url(#clip950)" d="M0 1600 L2400 1600 L2400 0 L0 0  Z" fill="#ffffff" fill-rule="evenodd" fill-opacity="1"/>
<defs>
  <clipPath id="clip951">
    <rect x="480" y="0" width="1681" height="1600"/>
  </clipPath>
</defs>
<path clip-path="url(#clip950)" d="M203.964 1423.18 L2352.76 1423.18 L2352.76 47.2441 L203.964 47.2441  Z" fill="#ffffff" fill-rule="evenodd" fill-opacity="1"/>
<defs>
  <clipPath id="clip952">
    <rect x="203" y="47" width="2150" height="1377"/>
  </clipPath>
</defs>
<polyline clip-path="url(#clip952)" style="stroke:#000000; stroke-linecap:round; stroke-linejoin:round; stroke-width:2; stroke-opacity:0.1; fill:none" points="244.926,1423.18 244.926,47.2441 "/>
<polyline clip-path="url(#clip952)" style="stroke:#000000; stroke-linecap:round; stroke-linejoin:round; stroke-width:2; stroke-opacity:0.1; fill:none" points="764.711,1423.18 764.711,47.2441 "/>
<polyline clip-path="url(#clip952)" style="stroke:#000000; stroke-linecap:round; stroke-linejoin:round; stroke-width:2; stroke-opacity:0.1; fill:none" points="1290.27,1423.18 1290.27,47.2441 "/>
<polyline clip-path="url(#clip952)" style="stroke:#000000; stroke-linecap:round; stroke-linejoin:round; stroke-width:2; stroke-opacity:0.1; fill:none" points="1821.61,1423.18 1821.61,47.2441 "/>
<polyline clip-path="url(#clip950)" style="stroke:#000000; stroke-linecap:round; stroke-linejoin:round; stroke-width:4; stroke-opacity:1; fill:none" points="203.964,1423.18 2352.76,1423.18 "/>
<polyline clip-path="url(#clip950)" style="stroke:#000000; stroke-linecap:round; stroke-linejoin:round; stroke-width:4; stroke-opacity:1; fill:none" points="244.926,1423.18 244.926,1404.28 "/>
<polyline clip-path="url(#clip950)" style="stroke:#000000; stroke-linecap:round; stroke-linejoin:round; stroke-width:4; stroke-opacity:1; fill:none" points="764.711,1423.18 764.711,1404.28 "/>
<polyline clip-path="url(#clip950)" style="stroke:#000000; stroke-linecap:round; stroke-linejoin:round; stroke-width:4; stroke-opacity:1; fill:none" points="1290.27,1423.18 1290.27,1404.28 "/>
<polyline clip-path="url(#clip950)" style="stroke:#000000; stroke-linecap:round; stroke-linejoin:round; stroke-width:4; stroke-opacity:1; fill:none" points="1821.61,1423.18 1821.61,1404.28 "/>
<path clip-path="url(#clip950)" d="M116.72 1481.64 L133.04 1481.64 L133.04 1485.58 L111.095 1485.58 L111.095 1481.64 Q113.757 1478.89 118.341 1474.26 Q122.947 1469.61 124.128 1468.27 Q126.373 1465.74 127.253 1464.01 Q128.155 1462.25 128.155 1460.56 Q128.155 1457.8 126.211 1456.07 Q124.29 1454.33 121.188 1454.33 Q118.989 1454.33 116.535 1455.09 Q114.104 1455.86 111.327 1457.41 L111.327 1452.69 Q114.151 1451.55 116.604 1450.97 Q119.058 1450.39 121.095 1450.39 Q126.466 1450.39 129.66 1453.08 Q132.854 1455.77 132.854 1460.26 Q132.854 1462.39 132.044 1464.31 Q131.257 1466.2 129.151 1468.8 Q128.572 1469.47 125.47 1472.69 Q122.368 1475.88 116.72 1481.64 Z" fill="#000000" fill-rule="nonzero" fill-opacity="1" /><path clip-path="url(#clip950)" d="M152.854 1454.1 Q149.243 1454.1 147.414 1457.66 Q145.609 1461.2 145.609 1468.33 Q145.609 1475.44 147.414 1479.01 Q149.243 1482.55 152.854 1482.55 Q156.489 1482.55 158.294 1479.01 Q160.123 1475.44 160.123 1468.33 Q160.123 1461.2 158.294 1457.66 Q156.489 1454.1 152.854 1454.1 M152.854 1450.39 Q158.664 1450.39 161.72 1455 Q164.799 1459.58 164.799 1468.33 Q164.799 1477.06 161.72 1481.67 Q158.664 1486.25 152.854 1486.25 Q147.044 1486.25 143.965 1481.67 Q140.91 1477.06 140.91 1468.33 Q140.91 1459.58 143.965 1455 Q147.044 1450.39 152.854 1450.39 Z" fill="#000000" fill-rule="nonzero" fill-opacity="1" /><path clip-path="url(#clip950)" d="M177.044 1481.64 L193.363 1481.64 L193.363 1485.58 L171.419 1485.58 L171.419 1481.64 Q174.081 1478.89 178.664 1474.26 Q183.271 1469.61 184.451 1468.27 Q186.697 1465.74 187.576 1464.01 Q188.479 1462.25 188.479 1460.56 Q188.479 1457.8 186.535 1456.07 Q184.613 1454.33 181.512 1454.33 Q179.312 1454.33 176.859 1455.09 Q174.428 1455.86 171.65 1457.41 L171.65 1452.69 Q174.475 1451.55 176.928 1450.97 Q179.382 1450.39 181.419 1450.39 Q186.789 1450.39 189.984 1453.08 Q193.178 1455.77 193.178 1460.26 Q193.178 1462.39 192.368 1464.31 Q191.581 1466.2 189.474 1468.8 Q188.896 1469.47 185.794 1472.69 Q182.692 1475.88 177.044 1481.64 Z" fill="#000000" fill-rule="nonzero" fill-opacity="1" /><path clip-path="url(#clip950)" d="M203.988 1481.64 L211.627 1481.64 L211.627 1455.28 L203.317 1456.95 L203.317 1452.69 L211.581 1451.02 L216.257 1451.02 L216.257 1481.64 L223.896 1481.64 L223.896 1485.58 L203.988 1485.58 L203.988 1481.64 Z" fill="#000000" fill-rule="nonzero" fill-opacity="1" /><path clip-path="url(#clip950)" d="M230.585 1470.7 L243.062 1470.7 L243.062 1474.49 L230.585 1474.49 L230.585 1470.7 Z" fill="#000000" fill-rule="nonzero" fill-opacity="1" /><path clip-path="url(#clip950)" d="M260.446 1454.1 Q256.835 1454.1 255.007 1457.66 Q253.201 1461.2 253.201 1468.33 Q253.201 1475.44 255.007 1479.01 Q256.835 1482.55 260.446 1482.55 Q264.081 1482.55 265.886 1479.01 Q267.715 1475.44 267.715 1468.33 Q267.715 1461.2 265.886 1457.66 Q264.081 1454.1 260.446 1454.1 M260.446 1450.39 Q266.256 1450.39 269.312 1455 Q272.391 1459.58 272.391 1468.33 Q272.391 1477.06 269.312 1481.67 Q266.256 1486.25 260.446 1486.25 Q254.636 1486.25 251.557 1481.67 Q248.502 1477.06 248.502 1468.33 Q248.502 1459.58 251.557 1455 Q254.636 1450.39 260.446 1450.39 Z" fill="#000000" fill-rule="nonzero" fill-opacity="1" /><path clip-path="url(#clip950)" d="M281.418 1481.64 L289.057 1481.64 L289.057 1455.28 L280.747 1456.95 L280.747 1452.69 L289.011 1451.02 L293.687 1451.02 L293.687 1481.64 L301.326 1481.64 L301.326 1485.58 L281.418 1485.58 L281.418 1481.64 Z" fill="#000000" fill-rule="nonzero" fill-opacity="1" /><path clip-path="url(#clip950)" d="M308.015 1470.7 L320.492 1470.7 L320.492 1474.49 L308.015 1474.49 L308.015 1470.7 Z" fill="#000000" fill-rule="nonzero" fill-opacity="1" /><path clip-path="url(#clip950)" d="M337.876 1454.1 Q334.265 1454.1 332.437 1457.66 Q330.631 1461.2 330.631 1468.33 Q330.631 1475.44 332.437 1479.01 Q334.265 1482.55 337.876 1482.55 Q341.511 1482.55 343.316 1479.01 Q345.145 1475.44 345.145 1468.33 Q345.145 1461.2 343.316 1457.66 Q341.511 1454.1 337.876 1454.1 M337.876 1450.39 Q343.687 1450.39 346.742 1455 Q349.821 1459.58 349.821 1468.33 Q349.821 1477.06 346.742 1481.67 Q343.687 1486.25 337.876 1486.25 Q332.066 1486.25 328.988 1481.67 Q325.932 1477.06 325.932 1468.33 Q325.932 1459.58 328.988 1455 Q332.066 1450.39 337.876 1450.39 Z" fill="#000000" fill-rule="nonzero" fill-opacity="1" /><path clip-path="url(#clip950)" d="M358.849 1481.64 L366.487 1481.64 L366.487 1455.28 L358.177 1456.95 L358.177 1452.69 L366.441 1451.02 L371.117 1451.02 L371.117 1481.64 L378.756 1481.64 L378.756 1485.58 L358.849 1485.58 L358.849 1481.64 Z" fill="#000000" fill-rule="nonzero" fill-opacity="1" /><path clip-path="url(#clip950)" d="M636.505 1481.64 L652.825 1481.64 L652.825 1485.58 L630.881 1485.58 L630.881 1481.64 Q633.543 1478.89 638.126 1474.26 Q642.732 1469.61 643.913 1468.27 Q646.158 1465.74 647.038 1464.01 Q647.941 1462.25 647.941 1460.56 Q647.941 1457.8 645.996 1456.07 Q644.075 1454.33 640.973 1454.33 Q638.774 1454.33 636.32 1455.09 Q633.89 1455.86 631.112 1457.41 L631.112 1452.69 Q633.936 1451.55 636.39 1450.97 Q638.843 1450.39 640.88 1450.39 Q646.251 1450.39 649.445 1453.08 Q652.64 1455.77 652.64 1460.26 Q652.64 1462.39 651.829 1464.31 Q651.042 1466.2 648.936 1468.8 Q648.357 1469.47 645.255 1472.69 Q642.154 1475.88 636.505 1481.64 Z" fill="#000000" fill-rule="nonzero" fill-opacity="1" /><path clip-path="url(#clip950)" d="M672.64 1454.1 Q669.028 1454.1 667.2 1457.66 Q665.394 1461.2 665.394 1468.33 Q665.394 1475.44 667.2 1479.01 Q669.028 1482.55 672.64 1482.55 Q676.274 1482.55 678.079 1479.01 Q679.908 1475.44 679.908 1468.33 Q679.908 1461.2 678.079 1457.66 Q676.274 1454.1 672.64 1454.1 M672.64 1450.39 Q678.45 1450.39 681.505 1455 Q684.584 1459.58 684.584 1468.33 Q684.584 1477.06 681.505 1481.67 Q678.45 1486.25 672.64 1486.25 Q666.829 1486.25 663.751 1481.67 Q660.695 1477.06 660.695 1468.33 Q660.695 1459.58 663.751 1455 Q666.829 1450.39 672.64 1450.39 Z" fill="#000000" fill-rule="nonzero" fill-opacity="1" /><path clip-path="url(#clip950)" d="M696.829 1481.64 L713.149 1481.64 L713.149 1485.58 L691.204 1485.58 L691.204 1481.64 Q693.866 1478.89 698.45 1474.26 Q703.056 1469.61 704.237 1468.27 Q706.482 1465.74 707.362 1464.01 Q708.264 1462.25 708.264 1460.56 Q708.264 1457.8 706.32 1456.07 Q704.399 1454.33 701.297 1454.33 Q699.098 1454.33 696.644 1455.09 Q694.214 1455.86 691.436 1457.41 L691.436 1452.69 Q694.26 1451.55 696.713 1450.97 Q699.167 1450.39 701.204 1450.39 Q706.575 1450.39 709.769 1453.08 Q712.963 1455.77 712.963 1460.26 Q712.963 1462.39 712.153 1464.31 Q711.366 1466.2 709.26 1468.8 Q708.681 1469.47 705.579 1472.69 Q702.477 1475.88 696.829 1481.64 Z" fill="#000000" fill-rule="nonzero" fill-opacity="1" /><path clip-path="url(#clip950)" d="M723.774 1481.64 L731.412 1481.64 L731.412 1455.28 L723.102 1456.95 L723.102 1452.69 L731.366 1451.02 L736.042 1451.02 L736.042 1481.64 L743.681 1481.64 L743.681 1485.58 L723.774 1485.58 L723.774 1481.64 Z" fill="#000000" fill-rule="nonzero" fill-opacity="1" /><path clip-path="url(#clip950)" d="M750.371 1470.7 L762.847 1470.7 L762.847 1474.49 L750.371 1474.49 L750.371 1470.7 Z" fill="#000000" fill-rule="nonzero" fill-opacity="1" /><path clip-path="url(#clip950)" d="M780.232 1454.1 Q776.62 1454.1 774.792 1457.66 Q772.986 1461.2 772.986 1468.33 Q772.986 1475.44 774.792 1479.01 Q776.62 1482.55 780.232 1482.55 Q783.866 1482.55 785.671 1479.01 Q787.5 1475.44 787.5 1468.33 Q787.5 1461.2 785.671 1457.66 Q783.866 1454.1 780.232 1454.1 M780.232 1450.39 Q786.042 1450.39 789.097 1455 Q792.176 1459.58 792.176 1468.33 Q792.176 1477.06 789.097 1481.67 Q786.042 1486.25 780.232 1486.25 Q774.421 1486.25 771.343 1481.67 Q768.287 1477.06 768.287 1468.33 Q768.287 1459.58 771.343 1455 Q774.421 1450.39 780.232 1450.39 Z" fill="#000000" fill-rule="nonzero" fill-opacity="1" /><path clip-path="url(#clip950)" d="M813.241 1455.09 L801.435 1473.54 L813.241 1473.54 L813.241 1455.09 M812.014 1451.02 L817.893 1451.02 L817.893 1473.54 L822.824 1473.54 L822.824 1477.43 L817.893 1477.43 L817.893 1485.58 L813.241 1485.58 L813.241 1477.43 L797.639 1477.43 L797.639 1472.92 L812.014 1451.02 Z" fill="#000000" fill-rule="nonzero" fill-opacity="1" /><path clip-path="url(#clip950)" d="M827.801 1470.7 L840.278 1470.7 L840.278 1474.49 L827.801 1474.49 L827.801 1470.7 Z" fill="#000000" fill-rule="nonzero" fill-opacity="1" /><path clip-path="url(#clip950)" d="M857.662 1454.1 Q854.051 1454.1 852.222 1457.66 Q850.416 1461.2 850.416 1468.33 Q850.416 1475.44 852.222 1479.01 Q854.051 1482.55 857.662 1482.55 Q861.296 1482.55 863.101 1479.01 Q864.93 1475.44 864.93 1468.33 Q864.93 1461.2 863.101 1457.66 Q861.296 1454.1 857.662 1454.1 M857.662 1450.39 Q863.472 1450.39 866.527 1455 Q869.606 1459.58 869.606 1468.33 Q869.606 1477.06 866.527 1481.67 Q863.472 1486.25 857.662 1486.25 Q851.852 1486.25 848.773 1481.67 Q845.717 1477.06 845.717 1468.33 Q845.717 1459.58 848.773 1455 Q851.852 1450.39 857.662 1450.39 Z" fill="#000000" fill-rule="nonzero" fill-opacity="1" /><path clip-path="url(#clip950)" d="M878.634 1481.64 L886.273 1481.64 L886.273 1455.28 L877.963 1456.95 L877.963 1452.69 L886.226 1451.02 L890.902 1451.02 L890.902 1481.64 L898.541 1481.64 L898.541 1485.58 L878.634 1485.58 L878.634 1481.64 Z" fill="#000000" fill-rule="nonzero" fill-opacity="1" /><path clip-path="url(#clip950)" d="M1162.07 1481.64 L1178.39 1481.64 L1178.39 1485.58 L1156.44 1485.58 L1156.44 1481.64 Q1159.1 1478.89 1163.69 1474.26 Q1168.29 1469.61 1169.47 1468.27 Q1171.72 1465.74 1172.6 1464.01 Q1173.5 1462.25 1173.5 1460.56 Q1173.5 1457.8 1171.56 1456.07 Q1169.64 1454.33 1166.53 1454.33 Q1164.33 1454.33 1161.88 1455.09 Q1159.45 1455.86 1156.67 1457.41 L1156.67 1452.69 Q1159.5 1451.55 1161.95 1450.97 Q1164.4 1450.39 1166.44 1450.39 Q1171.81 1450.39 1175.01 1453.08 Q1178.2 1455.77 1178.2 1460.26 Q1178.2 1462.39 1177.39 1464.31 Q1176.6 1466.2 1174.5 1468.8 Q1173.92 1469.47 1170.82 1472.69 Q1167.71 1475.88 1162.07 1481.64 Z" fill="#000000" fill-rule="nonzero" fill-opacity="1" /><path clip-path="url(#clip950)" d="M1198.2 1454.1 Q1194.59 1454.1 1192.76 1457.66 Q1190.95 1461.2 1190.95 1468.33 Q1190.95 1475.44 1192.76 1479.01 Q1194.59 1482.55 1198.2 1482.55 Q1201.83 1482.55 1203.64 1479.01 Q1205.47 1475.44 1205.47 1468.33 Q1205.47 1461.2 1203.64 1457.66 Q1201.83 1454.1 1198.2 1454.1 M1198.2 1450.39 Q1204.01 1450.39 1207.07 1455 Q1210.14 1459.58 1210.14 1468.33 Q1210.14 1477.06 1207.07 1481.67 Q1204.01 1486.25 1198.2 1486.25 Q1192.39 1486.25 1189.31 1481.67 Q1186.26 1477.06 1186.26 1468.33 Q1186.26 1459.58 1189.31 1455 Q1192.39 1450.39 1198.2 1450.39 Z" fill="#000000" fill-rule="nonzero" fill-opacity="1" /><path clip-path="url(#clip950)" d="M1222.39 1481.64 L1238.71 1481.64 L1238.71 1485.58 L1216.76 1485.58 L1216.76 1481.64 Q1219.43 1478.89 1224.01 1474.26 Q1228.62 1469.61 1229.8 1468.27 Q1232.04 1465.74 1232.92 1464.01 Q1233.83 1462.25 1233.83 1460.56 Q1233.83 1457.8 1231.88 1456.07 Q1229.96 1454.33 1226.86 1454.33 Q1224.66 1454.33 1222.2 1455.09 Q1219.77 1455.86 1217 1457.41 L1217 1452.69 Q1219.82 1451.55 1222.27 1450.97 Q1224.73 1450.39 1226.76 1450.39 Q1232.14 1450.39 1235.33 1453.08 Q1238.52 1455.77 1238.52 1460.26 Q1238.52 1462.39 1237.71 1464.31 Q1236.93 1466.2 1234.82 1468.8 Q1234.24 1469.47 1231.14 1472.69 Q1228.04 1475.88 1222.39 1481.64 Z" fill="#000000" fill-rule="nonzero" fill-opacity="1" /><path clip-path="url(#clip950)" d="M1249.33 1481.64 L1256.97 1481.64 L1256.97 1455.28 L1248.66 1456.95 L1248.66 1452.69 L1256.93 1451.02 L1261.6 1451.02 L1261.6 1481.64 L1269.24 1481.64 L1269.24 1485.58 L1249.33 1485.58 L1249.33 1481.64 Z" fill="#000000" fill-rule="nonzero" fill-opacity="1" /><path clip-path="url(#clip950)" d="M1275.93 1470.7 L1288.41 1470.7 L1288.41 1474.49 L1275.93 1474.49 L1275.93 1470.7 Z" fill="#000000" fill-rule="nonzero" fill-opacity="1" /><path clip-path="url(#clip950)" d="M1305.79 1454.1 Q1302.18 1454.1 1300.35 1457.66 Q1298.55 1461.2 1298.55 1468.33 Q1298.55 1475.44 1300.35 1479.01 Q1302.18 1482.55 1305.79 1482.55 Q1309.43 1482.55 1311.23 1479.01 Q1313.06 1475.44 1313.06 1468.33 Q1313.06 1461.2 1311.23 1457.66 Q1309.43 1454.1 1305.79 1454.1 M1305.79 1450.39 Q1311.6 1450.39 1314.66 1455 Q1317.74 1459.58 1317.74 1468.33 Q1317.74 1477.06 1314.66 1481.67 Q1311.6 1486.25 1305.79 1486.25 Q1299.98 1486.25 1296.9 1481.67 Q1293.85 1477.06 1293.85 1468.33 Q1293.85 1459.58 1296.9 1455 Q1299.98 1450.39 1305.79 1450.39 Z" fill="#000000" fill-rule="nonzero" fill-opacity="1" /><path clip-path="url(#clip950)" d="M1324.77 1451.02 L1347 1451.02 L1347 1453.01 L1334.45 1485.58 L1329.57 1485.58 L1341.37 1454.96 L1324.77 1454.96 L1324.77 1451.02 Z" fill="#000000" fill-rule="nonzero" fill-opacity="1" /><path clip-path="url(#clip950)" d="M1353.36 1470.7 L1365.84 1470.7 L1365.84 1474.49 L1353.36 1474.49 L1353.36 1470.7 Z" fill="#000000" fill-rule="nonzero" fill-opacity="1" /><path clip-path="url(#clip950)" d="M1383.22 1454.1 Q1379.61 1454.1 1377.78 1457.66 Q1375.98 1461.2 1375.98 1468.33 Q1375.98 1475.44 1377.78 1479.01 Q1379.61 1482.55 1383.22 1482.55 Q1386.86 1482.55 1388.66 1479.01 Q1390.49 1475.44 1390.49 1468.33 Q1390.49 1461.2 1388.66 1457.66 Q1386.86 1454.1 1383.22 1454.1 M1383.22 1450.39 Q1389.03 1450.39 1392.09 1455 Q1395.17 1459.58 1395.17 1468.33 Q1395.17 1477.06 1392.09 1481.67 Q1389.03 1486.25 1383.22 1486.25 Q1377.41 1486.25 1374.33 1481.67 Q1371.28 1477.06 1371.28 1468.33 Q1371.28 1459.58 1374.33 1455 Q1377.41 1450.39 1383.22 1450.39 Z" fill="#000000" fill-rule="nonzero" fill-opacity="1" /><path clip-path="url(#clip950)" d="M1404.19 1481.64 L1411.83 1481.64 L1411.83 1455.28 L1403.52 1456.95 L1403.52 1452.69 L1411.79 1451.02 L1416.46 1451.02 L1416.46 1481.64 L1424.1 1481.64 L1424.1 1485.58 L1404.19 1485.58 L1404.19 1481.64 Z" fill="#000000" fill-rule="nonzero" fill-opacity="1" /><path clip-path="url(#clip950)" d="M1693.4 1481.64 L1709.72 1481.64 L1709.72 1485.58 L1687.78 1485.58 L1687.78 1481.64 Q1690.44 1478.89 1695.02 1474.26 Q1699.63 1469.61 1700.81 1468.27 Q1703.05 1465.74 1703.93 1464.01 Q1704.84 1462.25 1704.84 1460.56 Q1704.84 1457.8 1702.89 1456.07 Q1700.97 1454.33 1697.87 1454.33 Q1695.67 1454.33 1693.22 1455.09 Q1690.79 1455.86 1688.01 1457.41 L1688.01 1452.69 Q1690.83 1451.55 1693.29 1450.97 Q1695.74 1450.39 1697.78 1450.39 Q1703.15 1450.39 1706.34 1453.08 Q1709.54 1455.77 1709.54 1460.26 Q1709.54 1462.39 1708.73 1464.31 Q1707.94 1466.2 1705.83 1468.8 Q1705.25 1469.47 1702.15 1472.69 Q1699.05 1475.88 1693.4 1481.64 Z" fill="#000000" fill-rule="nonzero" fill-opacity="1" /><path clip-path="url(#clip950)" d="M1729.54 1454.1 Q1725.93 1454.1 1724.1 1457.66 Q1722.29 1461.2 1722.29 1468.33 Q1722.29 1475.44 1724.1 1479.01 Q1725.93 1482.55 1729.54 1482.55 Q1733.17 1482.55 1734.98 1479.01 Q1736.8 1475.44 1736.8 1468.33 Q1736.8 1461.2 1734.98 1457.66 Q1733.17 1454.1 1729.54 1454.1 M1729.54 1450.39 Q1735.35 1450.39 1738.4 1455 Q1741.48 1459.58 1741.48 1468.33 Q1741.48 1477.06 1738.4 1481.67 Q1735.35 1486.25 1729.54 1486.25 Q1723.73 1486.25 1720.65 1481.67 Q1717.59 1477.06 1717.59 1468.33 Q1717.59 1459.58 1720.65 1455 Q1723.73 1450.39 1729.54 1450.39 Z" fill="#000000" fill-rule="nonzero" fill-opacity="1" /><path clip-path="url(#clip950)" d="M1753.73 1481.64 L1770.05 1481.64 L1770.05 1485.58 L1748.1 1485.58 L1748.1 1481.64 Q1750.76 1478.89 1755.35 1474.26 Q1759.95 1469.61 1761.13 1468.27 Q1763.38 1465.74 1764.26 1464.01 Q1765.16 1462.25 1765.16 1460.56 Q1765.16 1457.8 1763.22 1456.07 Q1761.3 1454.33 1758.19 1454.33 Q1755.99 1454.33 1753.54 1455.09 Q1751.11 1455.86 1748.33 1457.41 L1748.33 1452.69 Q1751.16 1451.55 1753.61 1450.97 Q1756.06 1450.39 1758.1 1450.39 Q1763.47 1450.39 1766.67 1453.08 Q1769.86 1455.77 1769.86 1460.26 Q1769.86 1462.39 1769.05 1464.31 Q1768.26 1466.2 1766.16 1468.8 Q1765.58 1469.47 1762.48 1472.69 Q1759.37 1475.88 1753.73 1481.64 Z" fill="#000000" fill-rule="nonzero" fill-opacity="1" /><path clip-path="url(#clip950)" d="M1780.67 1481.64 L1788.31 1481.64 L1788.31 1455.28 L1780 1456.95 L1780 1452.69 L1788.26 1451.02 L1792.94 1451.02 L1792.94 1481.64 L1800.58 1481.64 L1800.58 1485.58 L1780.67 1485.58 L1780.67 1481.64 Z" fill="#000000" fill-rule="nonzero" fill-opacity="1" /><path clip-path="url(#clip950)" d="M1807.27 1470.7 L1819.74 1470.7 L1819.74 1474.49 L1807.27 1474.49 L1807.27 1470.7 Z" fill="#000000" fill-rule="nonzero" fill-opacity="1" /><path clip-path="url(#clip950)" d="M1827.94 1481.64 L1835.58 1481.64 L1835.58 1455.28 L1827.27 1456.95 L1827.27 1452.69 L1835.53 1451.02 L1840.21 1451.02 L1840.21 1481.64 L1847.85 1481.64 L1847.85 1485.58 L1827.94 1485.58 L1827.94 1481.64 Z" fill="#000000" fill-rule="nonzero" fill-opacity="1" /><path clip-path="url(#clip950)" d="M1867.29 1454.1 Q1863.68 1454.1 1861.85 1457.66 Q1860.04 1461.2 1860.04 1468.33 Q1860.04 1475.44 1861.85 1479.01 Q1863.68 1482.55 1867.29 1482.55 Q1870.92 1482.55 1872.73 1479.01 Q1874.56 1475.44 1874.56 1468.33 Q1874.56 1461.2 1872.73 1457.66 Q1870.92 1454.1 1867.29 1454.1 M1867.29 1450.39 Q1873.1 1450.39 1876.16 1455 Q1879.23 1459.58 1879.23 1468.33 Q1879.23 1477.06 1876.16 1481.67 Q1873.1 1486.25 1867.29 1486.25 Q1861.48 1486.25 1858.4 1481.67 Q1855.35 1477.06 1855.35 1468.33 Q1855.35 1459.58 1858.4 1455 Q1861.48 1450.39 1867.29 1450.39 Z" fill="#000000" fill-rule="nonzero" fill-opacity="1" /><path clip-path="url(#clip950)" d="M1884.7 1470.7 L1897.17 1470.7 L1897.17 1474.49 L1884.7 1474.49 L1884.7 1470.7 Z" fill="#000000" fill-rule="nonzero" fill-opacity="1" /><path clip-path="url(#clip950)" d="M1914.56 1454.1 Q1910.95 1454.1 1909.12 1457.66 Q1907.31 1461.2 1907.31 1468.33 Q1907.31 1475.44 1909.12 1479.01 Q1910.95 1482.55 1914.56 1482.55 Q1918.19 1482.55 1920 1479.01 Q1921.83 1475.44 1921.83 1468.33 Q1921.83 1461.2 1920 1457.66 Q1918.19 1454.1 1914.56 1454.1 M1914.56 1450.39 Q1920.37 1450.39 1923.42 1455 Q1926.5 1459.58 1926.5 1468.33 Q1926.5 1477.06 1923.42 1481.67 Q1920.37 1486.25 1914.56 1486.25 Q1908.75 1486.25 1905.67 1481.67 Q1902.61 1477.06 1902.61 1468.33 Q1902.61 1459.58 1905.67 1455 Q1908.75 1450.39 1914.56 1450.39 Z" fill="#000000" fill-rule="nonzero" fill-opacity="1" /><path clip-path="url(#clip950)" d="M1935.53 1481.64 L1943.17 1481.64 L1943.17 1455.28 L1934.86 1456.95 L1934.86 1452.69 L1943.12 1451.02 L1947.8 1451.02 L1947.8 1481.64 L1955.44 1481.64 L1955.44 1485.58 L1935.53 1485.58 L1935.53 1481.64 Z" fill="#000000" fill-rule="nonzero" fill-opacity="1" /><path clip-path="url(#clip950)" d="M1234.4 1537.81 L1234.4 1518.52 L1240.26 1518.52 L1240.26 1568.04 L1234.4 1568.04 L1234.4 1562.7 Q1232.56 1565.88 1229.73 1567.44 Q1226.92 1568.97 1222.98 1568.97 Q1216.52 1568.97 1212.44 1563.81 Q1208.4 1558.65 1208.4 1550.25 Q1208.4 1541.85 1212.44 1536.69 Q1216.52 1531.54 1222.98 1531.54 Q1226.92 1531.54 1229.73 1533.1 Q1232.56 1534.62 1234.4 1537.81 M1214.45 1550.25 Q1214.45 1556.71 1217.09 1560.4 Q1219.76 1564.07 1224.41 1564.07 Q1229.06 1564.07 1231.73 1560.4 Q1234.4 1556.71 1234.4 1550.25 Q1234.4 1543.79 1231.73 1540.13 Q1229.06 1536.44 1224.41 1536.44 Q1219.76 1536.44 1217.09 1540.13 Q1214.45 1543.79 1214.45 1550.25 Z" fill="#000000" fill-rule="nonzero" fill-opacity="1" /><path clip-path="url(#clip950)" d="M1268.52 1550.12 Q1261.43 1550.12 1258.69 1551.75 Q1255.95 1553.37 1255.95 1557.29 Q1255.95 1560.4 1257.99 1562.25 Q1260.06 1564.07 1263.59 1564.07 Q1268.46 1564.07 1271.39 1560.63 Q1274.35 1557.16 1274.35 1551.43 L1274.35 1550.12 L1268.52 1550.12 M1280.21 1547.71 L1280.21 1568.04 L1274.35 1568.04 L1274.35 1562.63 Q1272.34 1565.88 1269.35 1567.44 Q1266.36 1568.97 1262.03 1568.97 Q1256.56 1568.97 1253.31 1565.91 Q1250.1 1562.82 1250.1 1557.67 Q1250.1 1551.65 1254.11 1548.6 Q1258.15 1545.54 1266.14 1545.54 L1274.35 1545.54 L1274.35 1544.97 Q1274.35 1540.93 1271.68 1538.73 Q1269.03 1536.5 1264.23 1536.5 Q1261.17 1536.5 1258.28 1537.23 Q1255.38 1537.97 1252.71 1539.43 L1252.71 1534.02 Q1255.92 1532.78 1258.94 1532.17 Q1261.97 1531.54 1264.83 1531.54 Q1272.57 1531.54 1276.39 1535.55 Q1280.21 1539.56 1280.21 1547.71 Z" fill="#000000" fill-rule="nonzero" fill-opacity="1" /><path clip-path="url(#clip950)" d="M1298.06 1522.27 L1298.06 1532.4 L1310.12 1532.4 L1310.12 1536.95 L1298.06 1536.95 L1298.06 1556.3 Q1298.06 1560.66 1299.24 1561.9 Q1300.45 1563.14 1304.11 1563.14 L1310.12 1563.14 L1310.12 1568.04 L1304.11 1568.04 Q1297.33 1568.04 1294.75 1565.53 Q1292.17 1562.98 1292.17 1556.3 L1292.17 1536.95 L1287.88 1536.95 L1287.88 1532.4 L1292.17 1532.4 L1292.17 1522.27 L1298.06 1522.27 Z" fill="#000000" fill-rule="nonzero" fill-opacity="1" /><path clip-path="url(#clip950)" d="M1348.32 1548.76 L1348.32 1551.62 L1321.39 1551.62 Q1321.77 1557.67 1325.02 1560.85 Q1328.3 1564 1334.12 1564 Q1337.5 1564 1340.65 1563.17 Q1343.83 1562.35 1346.95 1560.69 L1346.95 1566.23 Q1343.8 1567.57 1340.49 1568.27 Q1337.18 1568.97 1333.77 1568.97 Q1325.24 1568.97 1320.25 1564 Q1315.28 1559.04 1315.28 1550.57 Q1315.28 1541.82 1319.99 1536.69 Q1324.73 1531.54 1332.75 1531.54 Q1339.95 1531.54 1344.12 1536.18 Q1348.32 1540.8 1348.32 1548.76 M1342.46 1547.04 Q1342.4 1542.23 1339.76 1539.37 Q1337.15 1536.5 1332.82 1536.5 Q1327.92 1536.5 1324.96 1539.27 Q1322.03 1542.04 1321.58 1547.07 L1342.46 1547.04 Z" fill="#000000" fill-rule="nonzero" fill-opacity="1" /><polyline clip-path="url(#clip952)" style="stroke:#000000; stroke-linecap:round; stroke-linejoin:round; stroke-width:2; stroke-opacity:0.1; fill:none" points="203.964,1211.29 2352.76,1211.29 "/>
<polyline clip-path="url(#clip952)" style="stroke:#000000; stroke-linecap:round; stroke-linejoin:round; stroke-width:2; stroke-opacity:0.1; fill:none" points="203.964,995.915 2352.76,995.915 "/>
<polyline clip-path="url(#clip952)" style="stroke:#000000; stroke-linecap:round; stroke-linejoin:round; stroke-width:2; stroke-opacity:0.1; fill:none" points="203.964,780.538 2352.76,780.538 "/>
<polyline clip-path="url(#clip952)" style="stroke:#000000; stroke-linecap:round; stroke-linejoin:round; stroke-width:2; stroke-opacity:0.1; fill:none" points="203.964,565.16 2352.76,565.16 "/>
<polyline clip-path="url(#clip952)" style="stroke:#000000; stroke-linecap:round; stroke-linejoin:round; stroke-width:2; stroke-opacity:0.1; fill:none" points="203.964,349.782 2352.76,349.782 "/>
<polyline clip-path="url(#clip952)" style="stroke:#000000; stroke-linecap:round; stroke-linejoin:round; stroke-width:2; stroke-opacity:0.1; fill:none" points="203.964,134.405 2352.76,134.405 "/>
<polyline clip-path="url(#clip950)" style="stroke:#000000; stroke-linecap:round; stroke-linejoin:round; stroke-width:4; stroke-opacity:1; fill:none" points="203.964,1423.18 203.964,47.2441 "/>
<polyline clip-path="url(#clip950)" style="stroke:#000000; stroke-linecap:round; stroke-linejoin:round; stroke-width:4; stroke-opacity:1; fill:none" points="203.964,1211.29 222.861,1211.29 "/>
<polyline clip-path="url(#clip950)" style="stroke:#000000; stroke-linecap:round; stroke-linejoin:round; stroke-width:4; stroke-opacity:1; fill:none" points="203.964,995.915 222.861,995.915 "/>
<polyline clip-path="url(#clip950)" style="stroke:#000000; stroke-linecap:round; stroke-linejoin:round; stroke-width:4; stroke-opacity:1; fill:none" points="203.964,780.538 222.861,780.538 "/>
<polyline clip-path="url(#clip950)" style="stroke:#000000; stroke-linecap:round; stroke-linejoin:round; stroke-width:4; stroke-opacity:1; fill:none" points="203.964,565.16 222.861,565.16 "/>
<polyline clip-path="url(#clip950)" style="stroke:#000000; stroke-linecap:round; stroke-linejoin:round; stroke-width:4; stroke-opacity:1; fill:none" points="203.964,349.782 222.861,349.782 "/>
<polyline clip-path="url(#clip950)" style="stroke:#000000; stroke-linecap:round; stroke-linejoin:round; stroke-width:4; stroke-opacity:1; fill:none" points="203.964,134.405 222.861,134.405 "/>
<path clip-path="url(#clip950)" d="M147.061 1194.01 L165.417 1194.01 L165.417 1197.95 L151.343 1197.95 L151.343 1206.42 Q152.362 1206.07 153.38 1205.91 Q154.399 1205.73 155.417 1205.73 Q161.204 1205.73 164.584 1208.9 Q167.964 1212.07 167.964 1217.49 Q167.964 1223.06 164.491 1226.17 Q161.019 1229.24 154.7 1229.24 Q152.524 1229.24 150.255 1228.87 Q148.01 1228.5 145.603 1227.76 L145.603 1223.06 Q147.686 1224.2 149.908 1224.75 Q152.13 1225.31 154.607 1225.31 Q158.612 1225.31 160.95 1223.2 Q163.288 1221.1 163.288 1217.49 Q163.288 1213.87 160.95 1211.77 Q158.612 1209.66 154.607 1209.66 Q152.732 1209.66 150.857 1210.08 Q149.005 1210.49 147.061 1211.37 L147.061 1194.01 Z" fill="#000000" fill-rule="nonzero" fill-opacity="1" /><path clip-path="url(#clip950)" d="M116.668 1009.26 L124.306 1009.26 L124.306 982.895 L115.996 984.561 L115.996 980.302 L124.26 978.635 L128.936 978.635 L128.936 1009.26 L136.575 1009.26 L136.575 1013.2 L116.668 1013.2 L116.668 1009.26 Z" fill="#000000" fill-rule="nonzero" fill-opacity="1" /><path clip-path="url(#clip950)" d="M156.019 981.714 Q152.408 981.714 150.579 985.279 Q148.774 988.821 148.774 995.95 Q148.774 1003.06 150.579 1006.62 Q152.408 1010.16 156.019 1010.16 Q159.653 1010.16 161.459 1006.62 Q163.288 1003.06 163.288 995.95 Q163.288 988.821 161.459 985.279 Q159.653 981.714 156.019 981.714 M156.019 978.01 Q161.829 978.01 164.885 982.617 Q167.964 987.2 167.964 995.95 Q167.964 1004.68 164.885 1009.28 Q161.829 1013.87 156.019 1013.87 Q150.209 1013.87 147.13 1009.28 Q144.075 1004.68 144.075 995.95 Q144.075 987.2 147.13 982.617 Q150.209 978.01 156.019 978.01 Z" fill="#000000" fill-rule="nonzero" fill-opacity="1" /><path clip-path="url(#clip950)" d="M117.663 793.883 L125.302 793.883 L125.302 767.517 L116.992 769.184 L116.992 764.924 L125.255 763.258 L129.931 763.258 L129.931 793.883 L137.57 793.883 L137.57 797.818 L117.663 797.818 L117.663 793.883 Z" fill="#000000" fill-rule="nonzero" fill-opacity="1" /><path clip-path="url(#clip950)" d="M147.061 763.258 L165.417 763.258 L165.417 767.193 L151.343 767.193 L151.343 775.665 Q152.362 775.318 153.38 775.156 Q154.399 774.971 155.417 774.971 Q161.204 774.971 164.584 778.142 Q167.964 781.313 167.964 786.73 Q167.964 792.308 164.491 795.41 Q161.019 798.489 154.7 798.489 Q152.524 798.489 150.255 798.119 Q148.01 797.748 145.603 797.008 L145.603 792.308 Q147.686 793.443 149.908 793.998 Q152.13 794.554 154.607 794.554 Q158.612 794.554 160.95 792.447 Q163.288 790.341 163.288 786.73 Q163.288 783.119 160.95 781.012 Q158.612 778.906 154.607 778.906 Q152.732 778.906 150.857 779.322 Q149.005 779.739 147.061 780.619 L147.061 763.258 Z" fill="#000000" fill-rule="nonzero" fill-opacity="1" /><path clip-path="url(#clip950)" d="M119.885 578.505 L136.204 578.505 L136.204 582.44 L114.26 582.44 L114.26 578.505 Q116.922 575.75 121.505 571.121 Q126.112 566.468 127.292 565.125 Q129.538 562.602 130.417 560.866 Q131.32 559.107 131.32 557.417 Q131.32 554.662 129.376 552.926 Q127.455 551.19 124.353 551.19 Q122.154 551.19 119.7 551.954 Q117.269 552.718 114.492 554.269 L114.492 549.547 Q117.316 548.412 119.769 547.834 Q122.223 547.255 124.26 547.255 Q129.63 547.255 132.825 549.94 Q136.019 552.625 136.019 557.116 Q136.019 559.246 135.209 561.167 Q134.422 563.065 132.316 565.658 Q131.737 566.329 128.635 569.547 Q125.533 572.741 119.885 578.505 Z" fill="#000000" fill-rule="nonzero" fill-opacity="1" /><path clip-path="url(#clip950)" d="M156.019 550.959 Q152.408 550.959 150.579 554.523 Q148.774 558.065 148.774 565.195 Q148.774 572.301 150.579 575.866 Q152.408 579.408 156.019 579.408 Q159.653 579.408 161.459 575.866 Q163.288 572.301 163.288 565.195 Q163.288 558.065 161.459 554.523 Q159.653 550.959 156.019 550.959 M156.019 547.255 Q161.829 547.255 164.885 551.861 Q167.964 556.445 167.964 565.195 Q167.964 573.922 164.885 578.528 Q161.829 583.111 156.019 583.111 Q150.209 583.111 147.13 578.528 Q144.075 573.922 144.075 565.195 Q144.075 556.445 147.13 551.861 Q150.209 547.255 156.019 547.255 Z" fill="#000000" fill-rule="nonzero" fill-opacity="1" /><path clip-path="url(#clip950)" d="M120.88 363.127 L137.2 363.127 L137.2 367.062 L115.256 367.062 L115.256 363.127 Q117.918 360.372 122.501 355.743 Q127.107 351.09 128.288 349.748 Q130.533 347.224 131.413 345.488 Q132.316 343.729 132.316 342.039 Q132.316 339.285 130.371 337.549 Q128.45 335.812 125.348 335.812 Q123.149 335.812 120.695 336.576 Q118.265 337.34 115.487 338.891 L115.487 334.169 Q118.311 333.035 120.765 332.456 Q123.218 331.877 125.255 331.877 Q130.626 331.877 133.82 334.562 Q137.015 337.248 137.015 341.738 Q137.015 343.868 136.204 345.789 Q135.417 347.687 133.311 350.28 Q132.732 350.951 129.63 354.169 Q126.529 357.363 120.88 363.127 Z" fill="#000000" fill-rule="nonzero" fill-opacity="1" /><path clip-path="url(#clip950)" d="M147.061 332.502 L165.417 332.502 L165.417 336.437 L151.343 336.437 L151.343 344.91 Q152.362 344.562 153.38 344.4 Q154.399 344.215 155.417 344.215 Q161.204 344.215 164.584 347.386 Q167.964 350.558 167.964 355.974 Q167.964 361.553 164.491 364.655 Q161.019 367.734 154.7 367.734 Q152.524 367.734 150.255 367.363 Q148.01 366.993 145.603 366.252 L145.603 361.553 Q147.686 362.687 149.908 363.243 Q152.13 363.798 154.607 363.798 Q158.612 363.798 160.95 361.692 Q163.288 359.585 163.288 355.974 Q163.288 352.363 160.95 350.257 Q158.612 348.15 154.607 348.15 Q152.732 348.15 150.857 348.567 Q149.005 348.984 147.061 349.863 L147.061 332.502 Z" fill="#000000" fill-rule="nonzero" fill-opacity="1" /><path clip-path="url(#clip950)" d="M130.024 133.05 Q133.38 133.768 135.255 136.036 Q137.154 138.305 137.154 141.638 Q137.154 146.754 133.635 149.555 Q130.117 152.356 123.635 152.356 Q121.459 152.356 119.144 151.916 Q116.853 151.499 114.399 150.643 L114.399 146.129 Q116.343 147.263 118.658 147.842 Q120.973 148.421 123.496 148.421 Q127.894 148.421 130.186 146.685 Q132.501 144.948 132.501 141.638 Q132.501 138.583 130.348 136.87 Q128.218 135.134 124.399 135.134 L120.371 135.134 L120.371 131.291 L124.584 131.291 Q128.033 131.291 129.862 129.925 Q131.691 128.537 131.691 125.944 Q131.691 123.282 129.792 121.87 Q127.917 120.435 124.399 120.435 Q122.478 120.435 120.279 120.851 Q118.08 121.268 115.441 122.148 L115.441 117.981 Q118.103 117.24 120.418 116.87 Q122.755 116.5 124.816 116.5 Q130.14 116.5 133.242 118.93 Q136.343 121.337 136.343 125.458 Q136.343 128.328 134.7 130.319 Q133.056 132.286 130.024 133.05 Z" fill="#000000" fill-rule="nonzero" fill-opacity="1" /><path clip-path="url(#clip950)" d="M156.019 120.203 Q152.408 120.203 150.579 123.768 Q148.774 127.31 148.774 134.439 Q148.774 141.546 150.579 145.111 Q152.408 148.652 156.019 148.652 Q159.653 148.652 161.459 145.111 Q163.288 141.546 163.288 134.439 Q163.288 127.31 161.459 123.768 Q159.653 120.203 156.019 120.203 M156.019 116.5 Q161.829 116.5 164.885 121.106 Q167.964 125.689 167.964 134.439 Q167.964 143.166 164.885 147.773 Q161.829 152.356 156.019 152.356 Q150.209 152.356 147.13 147.773 Q144.075 143.166 144.075 134.439 Q144.075 125.689 147.13 121.106 Q150.209 116.5 156.019 116.5 Z" fill="#000000" fill-rule="nonzero" fill-opacity="1" /><path clip-path="url(#clip950)" d="M46.0847 888.244 Q46.0847 895.341 47.7079 898.079 Q49.3312 900.816 53.2461 900.816 Q56.3653 900.816 58.2114 898.779 Q60.0256 896.71 60.0256 893.177 Q60.0256 888.307 56.5881 885.379 Q53.1188 882.419 47.3897 882.419 L46.0847 882.419 L46.0847 888.244 M43.6657 876.562 L64.0042 876.562 L64.0042 882.419 L58.5933 882.419 Q61.8398 884.424 63.3994 887.416 Q64.9272 890.408 64.9272 894.737 Q64.9272 900.211 61.8716 903.458 Q58.7843 906.672 53.6281 906.672 Q47.6125 906.672 44.5569 902.662 Q41.5014 898.62 41.5014 890.631 L41.5014 882.419 L40.9285 882.419 Q36.8862 882.419 34.6901 885.093 Q32.4621 887.734 32.4621 892.54 Q32.4621 895.596 33.1941 898.492 Q33.9262 901.389 35.3903 904.062 L29.9795 904.062 Q28.7381 900.848 28.1334 897.824 Q27.4968 894.8 27.4968 891.936 Q27.4968 884.201 31.5072 880.382 Q35.5176 876.562 43.6657 876.562 Z" fill="#000000" fill-rule="nonzero" fill-opacity="1" /><path clip-path="url(#clip950)" d="M29.7248 838.846 L35.1993 838.846 Q33.8307 841.328 33.1623 843.843 Q32.4621 846.325 32.4621 848.872 Q32.4621 854.569 36.0905 857.72 Q39.6872 860.871 46.212 860.871 Q52.7369 860.871 56.3653 857.72 Q59.9619 854.569 59.9619 848.872 Q59.9619 846.325 59.2935 843.843 Q58.5933 841.328 57.2247 838.846 L62.6355 838.846 Q63.7814 841.296 64.3543 843.938 Q64.9272 846.548 64.9272 849.508 Q64.9272 857.561 59.8664 862.303 Q54.8057 867.046 46.212 867.046 Q37.491 867.046 32.4939 862.271 Q27.4968 857.465 27.4968 849.126 Q27.4968 846.421 28.0697 843.843 Q28.6108 841.265 29.7248 838.846 Z" fill="#000000" fill-rule="nonzero" fill-opacity="1" /><path clip-path="url(#clip950)" d="M29.7248 803.007 L35.1993 803.007 Q33.8307 805.489 33.1623 808.004 Q32.4621 810.486 32.4621 813.033 Q32.4621 818.73 36.0905 821.881 Q39.6872 825.032 46.212 825.032 Q52.7369 825.032 56.3653 821.881 Q59.9619 818.73 59.9619 813.033 Q59.9619 810.486 59.2935 808.004 Q58.5933 805.489 57.2247 803.007 L62.6355 803.007 Q63.7814 805.458 64.3543 808.099 Q64.9272 810.709 64.9272 813.669 Q64.9272 821.722 59.8664 826.464 Q54.8057 831.207 46.212 831.207 Q37.491 831.207 32.4939 826.433 Q27.4968 821.626 27.4968 813.287 Q27.4968 810.582 28.0697 808.004 Q28.6108 805.426 29.7248 803.007 Z" fill="#000000" fill-rule="nonzero" fill-opacity="1" /><path clip-path="url(#clip950)" d="M55.9197 791.994 L55.9197 785.278 L64.0042 785.278 L64.0042 791.994 L55.9197 791.994 Z" fill="#000000" fill-rule="nonzero" fill-opacity="1" /><path clip-path="url(#clip950)" d="M33.8307 730.724 Q33.2578 731.711 33.0032 732.888 Q32.7167 734.034 32.7167 735.435 Q32.7167 740.4 35.9632 743.074 Q39.1779 745.715 45.2253 745.715 L64.0042 745.715 L64.0042 751.604 L28.3562 751.604 L28.3562 745.715 L33.8944 745.715 Q30.6479 743.869 29.0883 740.909 Q27.4968 737.949 27.4968 733.716 Q27.4968 733.111 27.5923 732.379 Q27.656 731.647 27.8151 730.756 L33.8307 730.724 Z" fill="#000000" fill-rule="nonzero" fill-opacity="1" /><path clip-path="url(#clip950)" d="M44.7161 695.522 L47.5806 695.522 L47.5806 722.449 Q53.6281 722.067 56.8109 718.82 Q59.9619 715.542 59.9619 709.717 Q59.9619 706.343 59.1344 703.192 Q58.3069 700.01 56.6518 696.89 L62.1899 696.89 Q63.5267 700.041 64.227 703.352 Q64.9272 706.662 64.9272 710.067 Q64.9272 718.597 59.9619 723.595 Q54.9967 728.56 46.5303 728.56 Q37.7774 728.56 32.6531 723.849 Q27.4968 719.107 27.4968 711.086 Q27.4968 703.893 32.1438 699.723 Q36.7589 695.522 44.7161 695.522 M42.9973 701.378 Q38.1912 701.442 35.3266 704.084 Q32.4621 706.694 32.4621 711.022 Q32.4621 715.924 35.2312 718.884 Q38.0002 721.812 43.0292 722.258 L42.9973 701.378 Z" fill="#000000" fill-rule="nonzero" fill-opacity="1" /><path clip-path="url(#clip950)" d="M18.2347 680.117 L28.3562 680.117 L28.3562 668.054 L32.9077 668.054 L32.9077 680.117 L52.2594 680.117 Q56.6199 680.117 57.8613 678.939 Q59.1026 677.73 59.1026 674.069 L59.1026 668.054 L64.0042 668.054 L64.0042 674.069 Q64.0042 680.849 61.4897 683.427 Q58.9434 686.005 52.2594 686.005 L32.9077 686.005 L32.9077 690.302 L28.3562 690.302 L28.3562 686.005 L18.2347 686.005 L18.2347 680.117 Z" fill="#000000" fill-rule="nonzero" fill-opacity="1" /><path clip-path="url(#clip950)" d="M49.9359 660.956 L28.3562 660.956 L28.3562 655.1 L49.7131 655.1 Q54.7739 655.1 57.3202 653.126 Q59.8346 651.153 59.8346 647.206 Q59.8346 642.464 56.8109 639.726 Q53.7872 636.957 48.5673 636.957 L28.3562 636.957 L28.3562 631.101 L64.0042 631.101 L64.0042 636.957 L58.5296 636.957 Q61.7762 639.09 63.3676 641.923 Q64.9272 644.723 64.9272 648.447 Q64.9272 654.59 61.1078 657.773 Q57.2883 660.956 49.9359 660.956 M27.4968 646.219 L27.4968 646.219 Z" fill="#000000" fill-rule="nonzero" fill-opacity="1" /><path clip-path="url(#clip950)" d="M33.8307 598.381 Q33.2578 599.368 33.0032 600.545 Q32.7167 601.691 32.7167 603.092 Q32.7167 608.057 35.9632 610.731 Q39.1779 613.372 45.2253 613.372 L64.0042 613.372 L64.0042 619.261 L28.3562 619.261 L28.3562 613.372 L33.8944 613.372 Q30.6479 611.526 29.0883 608.566 Q27.4968 605.606 27.4968 601.373 Q27.4968 600.768 27.5923 600.036 Q27.656 599.304 27.8151 598.413 L33.8307 598.381 Z" fill="#000000" fill-rule="nonzero" fill-opacity="1" /><path clip-path="url(#clip950)" d="M42.4881 563.752 L64.0042 563.752 L64.0042 569.608 L42.679 569.608 Q37.6183 569.608 35.1038 571.581 Q32.5894 573.555 32.5894 577.502 Q32.5894 582.244 35.6131 584.981 Q38.6368 587.719 43.8567 587.719 L64.0042 587.719 L64.0042 593.607 L28.3562 593.607 L28.3562 587.719 L33.8944 587.719 Q30.6797 585.618 29.0883 582.785 Q27.4968 579.921 27.4968 576.197 Q27.4968 570.054 31.3163 566.903 Q35.1038 563.752 42.4881 563.752 Z" fill="#000000" fill-rule="nonzero" fill-opacity="1" /><polyline clip-path="url(#clip952)" style="stroke:#009af9; stroke-linecap:round; stroke-linejoin:round; stroke-width:12; stroke-opacity:1; fill:none" points="264.778,1383.6 270.554,1384.24 276.329,1383.6 282.105,1382.74 287.88,1380.81 305.206,1379.52 310.982,1377.59 316.757,1379.95 322.532,1379.95 328.308,1376.74 351.409,1361.09 357.185,1363.02 362.96,1362.81 368.736,1351.45 386.062,1331.95 391.837,1320.38 397.612,1000.2 403.388,1241.72 409.163,1142.5 426.489,1141.64 432.265,1259.08 438.04,1234.44 443.816,1274.73 449.591,1280.3 466.917,1294.23 472.693,1308.8 478.468,1302.37 484.243,1306.45 490.019,1306.87 513.12,1305.59 518.896,1307.73 524.671,1308.59 530.446,1304.52 547.773,1286.3 553.548,1261.66 559.323,1231.87 565.099,1249.01 570.874,1255.01 588.2,1229.94 593.976,1235.3 599.751,1242.8 605.527,1254.58 611.302,1254.15 628.628,1227.58 634.404,1201.65 640.179,1215.58 645.954,1206.36 651.73,1187.51 668.815,1125.79 674.591,1147.64 680.366,1136.07 686.141,1126.64 691.917,1128.14 709.243,1159 715.018,1198.22 720.794,1233.37 726.569,1192.22 732.345,1207.22 749.671,1204.86 755.446,1204.86 761.222,1207.86 766.997,1226.08 790.098,1199.29 795.874,1208.08 801.649,1215.58 807.425,1216.87 813.2,1224.79 830.526,1241.94 836.302,1237.22 842.077,1226.29 847.852,1214.51 853.628,1226.72 870.954,1219.65 876.729,1227.79 882.505,1217.08 888.28,1212.58 894.056,1208.94 911.382,1180.22 917.157,1181.08 922.932,1194.15 928.708,1208.08 934.483,1211.72 951.809,1218.58 957.585,1225.44 963.36,1230.15 969.136,1233.8 974.911,1222.87 992.237,1217.94 998.013,1211.29 1003.79,1205.51 1009.56,1153 1015.34,1148.5 1032.66,1127.71 1038.44,1126 1044.22,1155.79 1049.99,1157.72 1055.77,1167.79 1073.09,1133.5 1078.87,1074.99 1084.64,1007.49 1090.42,858.331 1096.19,866.903 1119.3,740.034 1125.07,86.1857 1130.85,326.423 1136.62,399.93 1153.95,247.987 1159.72,246.915 1165.5,369.284 1171.27,509.226 1177.05,367.998 1194.38,205.126 1200.15,161.407 1205.93,244.129 1211.7,125.189 1217.48,156.692 1234.8,233.2 1240.58,177.909 1246.35,177.266 1252.13,211.555 1257.91,268.132 1275.23,181.338 1281.01,217.341 1286.78,211.983 1292.56,264.703 1298.33,313.136 1321.43,355.997 1327.21,460.793 1332.99,399.287 1338.76,436.791 1356.09,513.512 1361.86,583.376 1367.64,710.245 1373.41,655.169 1379.19,677.456 1396.51,684.743 1402.29,503.226 1408.07,552.73 1413.84,628.595 1419.62,633.952 1436.94,563.231 1442.72,612.093 1448.49,593.02 1454.27,609.521 1460.04,633.309 1477.37,672.313 1483.15,706.816 1488.92,787.181 1494.7,708.531 1500.47,725.89 1517.8,702.316 1523.57,746.249 1529.35,750.535 1535.12,717.96 1540.9,709.388 1558.23,661.812 1564,630.309 1569.78,643.382 1575.55,701.887 1581.33,689.243 1598.65,638.453 1604.43,478.152 1610.2,484.581 1615.98,562.803 1621.75,551.444 1639.08,498.082 1644.86,416.646 1650.63,490.367 1656.41,475.58 1662.18,483.295 1685.28,401.644 1691.06,410.86 1696.84,386.857 1702.61,351.711 1719.94,318.922 1725.71,413.003 1731.49,422.861 1737.26,440.005 1743.04,479.438 1760.36,563.231 1766.14,594.734 1771.92,567.732 1777.69,569.875 1783.47,569.232 1800.79,584.448 1806.57,633.952 1812.34,665.027 1818.12,611.022 1823.89,602.449 1841.22,638.667 1847,632.452 1852.77,637.381 1858.55,609.307 1864.32,629.666 1881.65,628.38 1887.42,637.595 1893.2,614.236 1898.97,567.946 1904.75,553.587 1922.08,504.511 1927.85,552.302 1933.63,550.587 1939.4,585.733 1945.18,642.31 1962.5,637.381 1968.28,654.097 1974.05,681.743 1979.83,671.67 1985.6,668.67 2002.93,632.238 2008.71,595.377 2014.48,552.516 2020.26,568.375 2026.03,533.014 2043.6,461.007 2049.37,570.946 2055.15,606.093 2060.93,581.019 2066.7,569.446 2084.03,512.012 2089.8,513.727 2095.58,523.799 2101.35,560.66 2107.13,550.801 2124.45,542.872 2130.23,587.448 2136.01,593.234 2147.56,620.237 2164.88,637.167 2170.66,699.316 2176.43,814.398 2182.21,777.752 2187.98,804.969 2205.31,809.683 2211.09,761.464 2216.86,733.39 2222.64,795.325 2228.41,838.615 2245.74,928.623 2251.51,901.621 2257.29,898.192 2263.06,902.692 2268.84,802.611 2286.17,790.182 2291.94,777.323 "/>
<path clip-path="url(#clip950)" d="M1849.33 196.789 L2281.13 196.789 L2281.13 93.1086 L1849.33 93.1086  Z" fill="#ffffff" fill-rule="evenodd" fill-opacity="1"/>
<polyline clip-path="url(#clip950)" style="stroke:#000000; stroke-linecap:round; stroke-linejoin:round; stroke-width:4; stroke-opacity:1; fill:none" points="1849.33,196.789 2281.13,196.789 2281.13,93.1086 1849.33,93.1086 1849.33,196.789 "/>
<polyline clip-path="url(#clip950)" style="stroke:#009af9; stroke-linecap:round; stroke-linejoin:round; stroke-width:12; stroke-opacity:1; fill:none" points="1873.21,144.949 2016.46,144.949 "/>
<path clip-path="url(#clip950)" d="M2040.33 127.669 L2046.63 127.669 L2061.95 156.581 L2061.95 127.669 L2066.49 127.669 L2066.49 162.229 L2060.19 162.229 L2044.87 133.317 L2044.87 162.229 L2040.33 162.229 L2040.33 127.669 Z" fill="#000000" fill-rule="nonzero" fill-opacity="1" /><path clip-path="url(#clip950)" d="M2071.05 127.669 L2076.07 127.669 L2085.66 141.882 L2095.17 127.669 L2100.19 127.669 L2087.97 145.77 L2087.97 162.229 L2083.27 162.229 L2083.27 145.77 L2071.05 127.669 Z" fill="#000000" fill-rule="nonzero" fill-opacity="1" /><path clip-path="url(#clip950)" d="M2118.78 130.84 Q2113.69 130.84 2110.68 134.636 Q2107.69 138.432 2107.69 144.983 Q2107.69 151.511 2110.68 155.307 Q2113.69 159.104 2118.78 159.104 Q2123.88 159.104 2126.84 155.307 Q2129.82 151.511 2129.82 144.983 Q2129.82 138.432 2126.84 134.636 Q2123.88 130.84 2118.78 130.84 M2125.33 161.604 L2131.49 168.34 L2125.84 168.34 L2120.73 162.807 Q2119.96 162.854 2119.55 162.877 Q2119.15 162.9 2118.78 162.9 Q2111.49 162.9 2107.12 158.039 Q2102.76 153.155 2102.76 144.983 Q2102.76 136.789 2107.12 131.928 Q2111.49 127.044 2118.78 127.044 Q2126.05 127.044 2130.4 131.928 Q2134.75 136.789 2134.75 144.983 Q2134.75 151.002 2132.32 155.284 Q2129.92 159.567 2125.33 161.604 Z" fill="#000000" fill-rule="nonzero" fill-opacity="1" /><path clip-path="url(#clip950)" d="M2149.45 127.669 L2153.39 127.669 L2141.35 166.627 L2137.42 166.627 L2149.45 127.669 Z" fill="#000000" fill-rule="nonzero" fill-opacity="1" /><path clip-path="url(#clip950)" d="M2169.59 132.275 L2163.25 149.474 L2175.96 149.474 L2169.59 132.275 M2166.95 127.669 L2172.25 127.669 L2185.43 162.229 L2180.56 162.229 L2177.42 153.363 L2161.84 153.363 L2158.69 162.229 L2153.76 162.229 L2166.95 127.669 Z" fill="#000000" fill-rule="nonzero" fill-opacity="1" /><path clip-path="url(#clip950)" d="M2190.47 127.669 L2197.44 127.669 L2206.26 151.187 L2215.12 127.669 L2222.09 127.669 L2222.09 162.229 L2217.53 162.229 L2217.53 131.882 L2208.62 155.585 L2203.92 155.585 L2195.01 131.882 L2195.01 162.229 L2190.47 162.229 L2190.47 127.669 Z" fill="#000000" fill-rule="nonzero" fill-opacity="1" /><path clip-path="url(#clip950)" d="M2257.25 130.331 L2257.25 135.261 Q2254.89 133.062 2252.21 131.974 Q2249.55 130.886 2246.54 130.886 Q2240.61 130.886 2237.46 134.52 Q2234.31 138.132 2234.31 144.983 Q2234.31 151.812 2237.46 155.446 Q2240.61 159.057 2246.54 159.057 Q2249.55 159.057 2252.21 157.969 Q2254.89 156.881 2257.25 154.682 L2257.25 159.567 Q2254.8 161.233 2252.05 162.067 Q2249.31 162.9 2246.26 162.9 Q2238.41 162.9 2233.9 158.108 Q2229.38 153.293 2229.38 144.983 Q2229.38 136.65 2233.9 131.858 Q2238.41 127.044 2246.26 127.044 Q2249.36 127.044 2252.09 127.877 Q2254.85 128.687 2257.25 130.331 Z" fill="#000000" fill-rule="nonzero" fill-opacity="1" /></svg>
