<?xml version="1.0" encoding="utf-8"?>
<svg xmlns="http://www.w3.org/2000/svg" xmlns:xlink="http://www.w3.org/1999/xlink" width="600" height="400" viewBox="0 0 2400 1600">
<defs>
  <clipPath id="clip850">
    <rect x="0" y="0" width="2400" height="1600"/>
  </clipPath>
</defs>
<path clip-path="url(#clip850)" d="M0 1600 L2400 1600 L2400 0 L0 0  Z" fill="#ffffff" fill-rule="evenodd" fill-opacity="1"/>
<defs>
  <clipPath id="clip851">
    <rect x="480" y="0" width="1681" height="1600"/>
  </clipPath>
</defs>
<path clip-path="url(#clip850)" d="M247.945 1423.18 L2352.76 1423.18 L2352.76 123.472 L247.945 123.472  Z" fill="#ffffff" fill-rule="evenodd" fill-opacity="1"/>
<defs>
  <clipPath id="clip852">
    <rect x="247" y="123" width="2106" height="1301"/>
  </clipPath>
</defs>
<polyline clip-path="url(#clip852)" style="stroke:#000000; stroke-linecap:round; stroke-linejoin:round; stroke-width:2; stroke-opacity:0.1; fill:none" points="307.515,1423.18 307.515,123.472 "/>
<polyline clip-path="url(#clip852)" style="stroke:#000000; stroke-linecap:round; stroke-linejoin:round; stroke-width:2; stroke-opacity:0.1; fill:none" points="638.46,1423.18 638.46,123.472 "/>
<polyline clip-path="url(#clip852)" style="stroke:#000000; stroke-linecap:round; stroke-linejoin:round; stroke-width:2; stroke-opacity:0.1; fill:none" points="969.405,1423.18 969.405,123.472 "/>
<polyline clip-path="url(#clip852)" style="stroke:#000000; stroke-linecap:round; stroke-linejoin:round; stroke-width:2; stroke-opacity:0.1; fill:none" points="1300.35,1423.18 1300.35,123.472 "/>
<polyline clip-path="url(#clip852)" style="stroke:#000000; stroke-linecap:round; stroke-linejoin:round; stroke-width:2; stroke-opacity:0.1; fill:none" points="1631.3,1423.18 1631.3,123.472 "/>
<polyline clip-path="url(#clip852)" style="stroke:#000000; stroke-linecap:round; stroke-linejoin:round; stroke-width:2; stroke-opacity:0.1; fill:none" points="1962.24,1423.18 1962.24,123.472 "/>
<polyline clip-path="url(#clip852)" style="stroke:#000000; stroke-linecap:round; stroke-linejoin:round; stroke-width:2; stroke-opacity:0.1; fill:none" points="2293.19,1423.18 2293.19,123.472 "/>
<polyline clip-path="url(#clip852)" style="stroke:#000000; stroke-linecap:round; stroke-linejoin:round; stroke-width:2; stroke-opacity:0.05; fill:none" points="373.704,1423.18 373.704,123.472 "/>
<polyline clip-path="url(#clip852)" style="stroke:#000000; stroke-linecap:round; stroke-linejoin:round; stroke-width:2; stroke-opacity:0.05; fill:none" points="439.893,1423.18 439.893,123.472 "/>
<polyline clip-path="url(#clip852)" style="stroke:#000000; stroke-linecap:round; stroke-linejoin:round; stroke-width:2; stroke-opacity:0.05; fill:none" points="506.082,1423.18 506.082,123.472 "/>
<polyline clip-path="url(#clip852)" style="stroke:#000000; stroke-linecap:round; stroke-linejoin:round; stroke-width:2; stroke-opacity:0.05; fill:none" points="572.271,1423.18 572.271,123.472 "/>
<polyline clip-path="url(#clip852)" style="stroke:#000000; stroke-linecap:round; stroke-linejoin:round; stroke-width:2; stroke-opacity:0.05; fill:none" points="704.649,1423.18 704.649,123.472 "/>
<polyline clip-path="url(#clip852)" style="stroke:#000000; stroke-linecap:round; stroke-linejoin:round; stroke-width:2; stroke-opacity:0.05; fill:none" points="770.838,1423.18 770.838,123.472 "/>
<polyline clip-path="url(#clip852)" style="stroke:#000000; stroke-linecap:round; stroke-linejoin:round; stroke-width:2; stroke-opacity:0.05; fill:none" points="837.027,1423.18 837.027,123.472 "/>
<polyline clip-path="url(#clip852)" style="stroke:#000000; stroke-linecap:round; stroke-linejoin:round; stroke-width:2; stroke-opacity:0.05; fill:none" points="903.216,1423.18 903.216,123.472 "/>
<polyline clip-path="url(#clip852)" style="stroke:#000000; stroke-linecap:round; stroke-linejoin:round; stroke-width:2; stroke-opacity:0.05; fill:none" points="1035.59,1423.18 1035.59,123.472 "/>
<polyline clip-path="url(#clip852)" style="stroke:#000000; stroke-linecap:round; stroke-linejoin:round; stroke-width:2; stroke-opacity:0.05; fill:none" points="1101.78,1423.18 1101.78,123.472 "/>
<polyline clip-path="url(#clip852)" style="stroke:#000000; stroke-linecap:round; stroke-linejoin:round; stroke-width:2; stroke-opacity:0.05; fill:none" points="1167.97,1423.18 1167.97,123.472 "/>
<polyline clip-path="url(#clip852)" style="stroke:#000000; stroke-linecap:round; stroke-linejoin:round; stroke-width:2; stroke-opacity:0.05; fill:none" points="1234.16,1423.18 1234.16,123.472 "/>
<polyline clip-path="url(#clip852)" style="stroke:#000000; stroke-linecap:round; stroke-linejoin:round; stroke-width:2; stroke-opacity:0.05; fill:none" points="1366.54,1423.18 1366.54,123.472 "/>
<polyline clip-path="url(#clip852)" style="stroke:#000000; stroke-linecap:round; stroke-linejoin:round; stroke-width:2; stroke-opacity:0.05; fill:none" points="1432.73,1423.18 1432.73,123.472 "/>
<polyline clip-path="url(#clip852)" style="stroke:#000000; stroke-linecap:round; stroke-linejoin:round; stroke-width:2; stroke-opacity:0.05; fill:none" points="1498.92,1423.18 1498.92,123.472 "/>
<polyline clip-path="url(#clip852)" style="stroke:#000000; stroke-linecap:round; stroke-linejoin:round; stroke-width:2; stroke-opacity:0.05; fill:none" points="1565.11,1423.18 1565.11,123.472 "/>
<polyline clip-path="url(#clip852)" style="stroke:#000000; stroke-linecap:round; stroke-linejoin:round; stroke-width:2; stroke-opacity:0.05; fill:none" points="1697.48,1423.18 1697.48,123.472 "/>
<polyline clip-path="url(#clip852)" style="stroke:#000000; stroke-linecap:round; stroke-linejoin:round; stroke-width:2; stroke-opacity:0.05; fill:none" points="1763.67,1423.18 1763.67,123.472 "/>
<polyline clip-path="url(#clip852)" style="stroke:#000000; stroke-linecap:round; stroke-linejoin:round; stroke-width:2; stroke-opacity:0.05; fill:none" points="1829.86,1423.18 1829.86,123.472 "/>
<polyline clip-path="url(#clip852)" style="stroke:#000000; stroke-linecap:round; stroke-linejoin:round; stroke-width:2; stroke-opacity:0.05; fill:none" points="1896.05,1423.18 1896.05,123.472 "/>
<polyline clip-path="url(#clip852)" style="stroke:#000000; stroke-linecap:round; stroke-linejoin:round; stroke-width:2; stroke-opacity:0.05; fill:none" points="2028.43,1423.18 2028.43,123.472 "/>
<polyline clip-path="url(#clip852)" style="stroke:#000000; stroke-linecap:round; stroke-linejoin:round; stroke-width:2; stroke-opacity:0.05; fill:none" points="2094.62,1423.18 2094.62,123.472 "/>
<polyline clip-path="url(#clip852)" style="stroke:#000000; stroke-linecap:round; stroke-linejoin:round; stroke-width:2; stroke-opacity:0.05; fill:none" points="2160.81,1423.18 2160.81,123.472 "/>
<polyline clip-path="url(#clip852)" style="stroke:#000000; stroke-linecap:round; stroke-linejoin:round; stroke-width:2; stroke-opacity:0.05; fill:none" points="2227,1423.18 2227,123.472 "/>
<polyline clip-path="url(#clip850)" style="stroke:#000000; stroke-linecap:round; stroke-linejoin:round; stroke-width:4; stroke-opacity:1; fill:none" points="247.945,1423.18 2352.76,1423.18 "/>
<polyline clip-path="url(#clip850)" style="stroke:#000000; stroke-linecap:round; stroke-linejoin:round; stroke-width:4; stroke-opacity:1; fill:none" points="307.515,1423.18 307.515,1404.28 "/>
<polyline clip-path="url(#clip850)" style="stroke:#000000; stroke-linecap:round; stroke-linejoin:round; stroke-width:4; stroke-opacity:1; fill:none" points="638.46,1423.18 638.46,1404.28 "/>
<polyline clip-path="url(#clip850)" style="stroke:#000000; stroke-linecap:round; stroke-linejoin:round; stroke-width:4; stroke-opacity:1; fill:none" points="969.405,1423.18 969.405,1404.28 "/>
<polyline clip-path="url(#clip850)" style="stroke:#000000; stroke-linecap:round; stroke-linejoin:round; stroke-width:4; stroke-opacity:1; fill:none" points="1300.35,1423.18 1300.35,1404.28 "/>
<polyline clip-path="url(#clip850)" style="stroke:#000000; stroke-linecap:round; stroke-linejoin:round; stroke-width:4; stroke-opacity:1; fill:none" points="1631.3,1423.18 1631.3,1404.28 "/>
<polyline clip-path="url(#clip850)" style="stroke:#000000; stroke-linecap:round; stroke-linejoin:round; stroke-width:4; stroke-opacity:1; fill:none" points="1962.24,1423.18 1962.24,1404.28 "/>
<polyline clip-path="url(#clip850)" style="stroke:#000000; stroke-linecap:round; stroke-linejoin:round; stroke-width:4; stroke-opacity:1; fill:none" points="2293.19,1423.18 2293.19,1404.28 "/>
<polyline clip-path="url(#clip850)" style="stroke:#000000; stroke-linecap:round; stroke-linejoin:round; stroke-width:4; stroke-opacity:1; fill:none" points="373.704,1423.18 373.704,1413.73 "/>
<polyline clip-path="url(#clip850)" style="stroke:#000000; stroke-linecap:round; stroke-linejoin:round; stroke-width:4; stroke-opacity:1; fill:none" points="439.893,1423.18 439.893,1413.73 "/>
<polyline clip-path="url(#clip850)" style="stroke:#000000; stroke-linecap:round; stroke-linejoin:round; stroke-width:4; stroke-opacity:1; fill:none" points="506.082,1423.18 506.082,1413.73 "/>
<polyline clip-path="url(#clip850)" style="stroke:#000000; stroke-linecap:round; stroke-linejoin:round; stroke-width:4; stroke-opacity:1; fill:none" points="572.271,1423.18 572.271,1413.73 "/>
<polyline clip-path="url(#clip850)" style="stroke:#000000; stroke-linecap:round; stroke-linejoin:round; stroke-width:4; stroke-opacity:1; fill:none" points="704.649,1423.18 704.649,1413.73 "/>
<polyline clip-path="url(#clip850)" style="stroke:#000000; stroke-linecap:round; stroke-linejoin:round; stroke-width:4; stroke-opacity:1; fill:none" points="770.838,1423.18 770.838,1413.73 "/>
<polyline clip-path="url(#clip850)" style="stroke:#000000; stroke-linecap:round; stroke-linejoin:round; stroke-width:4; stroke-opacity:1; fill:none" points="837.027,1423.18 837.027,1413.73 "/>
<polyline clip-path="url(#clip850)" style="stroke:#000000; stroke-linecap:round; stroke-linejoin:round; stroke-width:4; stroke-opacity:1; fill:none" points="903.216,1423.18 903.216,1413.73 "/>
<polyline clip-path="url(#clip850)" style="stroke:#000000; stroke-linecap:round; stroke-linejoin:round; stroke-width:4; stroke-opacity:1; fill:none" points="1035.59,1423.18 1035.59,1413.73 "/>
<polyline clip-path="url(#clip850)" style="stroke:#000000; stroke-linecap:round; stroke-linejoin:round; stroke-width:4; stroke-opacity:1; fill:none" points="1101.78,1423.18 1101.78,1413.73 "/>
<polyline clip-path="url(#clip850)" style="stroke:#000000; stroke-linecap:round; stroke-linejoin:round; stroke-width:4; stroke-opacity:1; fill:none" points="1167.97,1423.18 1167.97,1413.73 "/>
<polyline clip-path="url(#clip850)" style="stroke:#000000; stroke-linecap:round; stroke-linejoin:round; stroke-width:4; stroke-opacity:1; fill:none" points="1234.16,1423.18 1234.16,1413.73 "/>
<polyline clip-path="url(#clip850)" style="stroke:#000000; stroke-linecap:round; stroke-linejoin:round; stroke-width:4; stroke-opacity:1; fill:none" points="1366.54,1423.18 1366.54,1413.73 "/>
<polyline clip-path="url(#clip850)" style="stroke:#000000; stroke-linecap:round; stroke-linejoin:round; stroke-width:4; stroke-opacity:1; fill:none" points="1432.73,1423.18 1432.73,1413.73 "/>
<polyline clip-path="url(#clip850)" style="stroke:#000000; stroke-linecap:round; stroke-linejoin:round; stroke-width:4; stroke-opacity:1; fill:none" points="1498.92,1423.18 1498.92,1413.73 "/>
<polyline clip-path="url(#clip850)" style="stroke:#000000; stroke-linecap:round; stroke-linejoin:round; stroke-width:4; stroke-opacity:1; fill:none" points="1565.11,1423.18 1565.11,1413.73 "/>
<polyline clip-path="url(#clip850)" style="stroke:#000000; stroke-linecap:round; stroke-linejoin:round; stroke-width:4; stroke-opacity:1; fill:none" points="1697.48,1423.18 1697.48,1413.73 "/>
<polyline clip-path="url(#clip850)" style="stroke:#000000; stroke-linecap:round; stroke-linejoin:round; stroke-width:4; stroke-opacity:1; fill:none" points="1763.67,1423.18 1763.67,1413.73 "/>
<polyline clip-path="url(#clip850)" style="stroke:#000000; stroke-linecap:round; stroke-linejoin:round; stroke-width:4; stroke-opacity:1; fill:none" points="1829.86,1423.18 1829.86,1413.73 "/>
<polyline clip-path="url(#clip850)" style="stroke:#000000; stroke-linecap:round; stroke-linejoin:round; stroke-width:4; stroke-opacity:1; fill:none" points="1896.05,1423.18 1896.05,1413.73 "/>
<polyline clip-path="url(#clip850)" style="stroke:#000000; stroke-linecap:round; stroke-linejoin:round; stroke-width:4; stroke-opacity:1; fill:none" points="2028.43,1423.18 2028.43,1413.73 "/>
<polyline clip-path="url(#clip850)" style="stroke:#000000; stroke-linecap:round; stroke-linejoin:round; stroke-width:4; stroke-opacity:1; fill:none" points="2094.62,1423.18 2094.62,1413.73 "/>
<polyline clip-path="url(#clip850)" style="stroke:#000000; stroke-linecap:round; stroke-linejoin:round; stroke-width:4; stroke-opacity:1; fill:none" points="2160.81,1423.18 2160.81,1413.73 "/>
<polyline clip-path="url(#clip850)" style="stroke:#000000; stroke-linecap:round; stroke-linejoin:round; stroke-width:4; stroke-opacity:1; fill:none" points="2227,1423.18 2227,1413.73 "/>
<path clip-path="url(#clip850)" d="M297.897 1481.64 L305.536 1481.64 L305.536 1455.28 L297.226 1456.95 L297.226 1452.69 L305.489 1451.02 L310.165 1451.02 L310.165 1481.64 L317.804 1481.64 L317.804 1485.58 L297.897 1485.58 L297.897 1481.64 Z" fill="#000000" fill-rule="nonzero" fill-opacity="1" /><path clip-path="url(#clip850)" d="M633.113 1481.64 L649.432 1481.64 L649.432 1485.58 L627.488 1485.58 L627.488 1481.64 Q630.15 1478.89 634.733 1474.26 Q639.34 1469.61 640.52 1468.27 Q642.766 1465.74 643.645 1464.01 Q644.548 1462.25 644.548 1460.56 Q644.548 1457.8 642.604 1456.07 Q640.682 1454.33 637.58 1454.33 Q635.381 1454.33 632.928 1455.09 Q630.497 1455.86 627.719 1457.41 L627.719 1452.69 Q630.543 1451.55 632.997 1450.97 Q635.451 1450.39 637.488 1450.39 Q642.858 1450.39 646.053 1453.08 Q649.247 1455.77 649.247 1460.26 Q649.247 1462.39 648.437 1464.31 Q647.65 1466.2 645.543 1468.8 Q644.965 1469.47 641.863 1472.69 Q638.761 1475.88 633.113 1481.64 Z" fill="#000000" fill-rule="nonzero" fill-opacity="1" /><path clip-path="url(#clip850)" d="M973.653 1466.95 Q977.009 1467.66 978.884 1469.93 Q980.782 1472.2 980.782 1475.53 Q980.782 1480.65 977.264 1483.45 Q973.745 1486.25 967.264 1486.25 Q965.088 1486.25 962.773 1485.81 Q960.482 1485.39 958.028 1484.54 L958.028 1480.02 Q959.972 1481.16 962.287 1481.74 Q964.602 1482.32 967.125 1482.32 Q971.523 1482.32 973.815 1480.58 Q976.13 1478.84 976.13 1475.53 Q976.13 1472.48 973.977 1470.77 Q971.847 1469.03 968.028 1469.03 L964 1469.03 L964 1465.19 L968.213 1465.19 Q971.662 1465.19 973.491 1463.82 Q975.32 1462.43 975.32 1459.84 Q975.32 1457.18 973.421 1455.77 Q971.546 1454.33 968.028 1454.33 Q966.107 1454.33 963.908 1454.75 Q961.709 1455.16 959.07 1456.04 L959.07 1451.88 Q961.732 1451.14 964.046 1450.77 Q966.384 1450.39 968.445 1450.39 Q973.769 1450.39 976.87 1452.83 Q979.972 1455.23 979.972 1459.35 Q979.972 1462.22 978.329 1464.21 Q976.685 1466.18 973.653 1466.95 Z" fill="#000000" fill-rule="nonzero" fill-opacity="1" /><path clip-path="url(#clip850)" d="M1303.36 1455.09 L1291.55 1473.54 L1303.36 1473.54 L1303.36 1455.09 M1302.13 1451.02 L1308.01 1451.02 L1308.01 1473.54 L1312.94 1473.54 L1312.94 1477.43 L1308.01 1477.43 L1308.01 1485.58 L1303.36 1485.58 L1303.36 1477.43 L1287.76 1477.43 L1287.76 1472.92 L1302.13 1451.02 Z" fill="#000000" fill-rule="nonzero" fill-opacity="1" /><path clip-path="url(#clip850)" d="M1621.57 1451.02 L1639.93 1451.02 L1639.93 1454.96 L1625.86 1454.96 L1625.86 1463.43 Q1626.87 1463.08 1627.89 1462.92 Q1628.91 1462.73 1629.93 1462.73 Q1635.72 1462.73 1639.1 1465.9 Q1642.48 1469.08 1642.48 1474.49 Q1642.48 1480.07 1639 1483.17 Q1635.53 1486.25 1629.21 1486.25 Q1627.04 1486.25 1624.77 1485.88 Q1622.52 1485.51 1620.12 1484.77 L1620.12 1480.07 Q1622.2 1481.2 1624.42 1481.76 Q1626.64 1482.32 1629.12 1482.32 Q1633.12 1482.32 1635.46 1480.21 Q1637.8 1478.1 1637.8 1474.49 Q1637.8 1470.88 1635.46 1468.77 Q1633.12 1466.67 1629.12 1466.67 Q1627.24 1466.67 1625.37 1467.08 Q1623.52 1467.5 1621.57 1468.38 L1621.57 1451.02 Z" fill="#000000" fill-rule="nonzero" fill-opacity="1" /><path clip-path="url(#clip850)" d="M1962.65 1466.44 Q1959.5 1466.44 1957.65 1468.59 Q1955.82 1470.74 1955.82 1474.49 Q1955.82 1478.22 1957.65 1480.39 Q1959.5 1482.55 1962.65 1482.55 Q1965.79 1482.55 1967.62 1480.39 Q1969.47 1478.22 1969.47 1474.49 Q1969.47 1470.74 1967.62 1468.59 Q1965.79 1466.44 1962.65 1466.44 M1971.93 1451.78 L1971.93 1456.04 Q1970.17 1455.21 1968.36 1454.77 Q1966.58 1454.33 1964.82 1454.33 Q1960.19 1454.33 1957.74 1457.45 Q1955.31 1460.58 1954.96 1466.9 Q1956.33 1464.89 1958.39 1463.82 Q1960.45 1462.73 1962.92 1462.73 Q1968.13 1462.73 1971.14 1465.9 Q1974.17 1469.05 1974.17 1474.49 Q1974.17 1479.82 1971.03 1483.03 Q1967.88 1486.25 1962.65 1486.25 Q1956.65 1486.25 1953.48 1481.67 Q1950.31 1477.06 1950.31 1468.33 Q1950.31 1460.14 1954.2 1455.28 Q1958.09 1450.39 1964.64 1450.39 Q1966.4 1450.39 1968.18 1450.74 Q1969.98 1451.09 1971.93 1451.78 Z" fill="#000000" fill-rule="nonzero" fill-opacity="1" /><path clip-path="url(#clip850)" d="M2282.07 1451.02 L2304.3 1451.02 L2304.3 1453.01 L2291.75 1485.58 L2286.87 1485.58 L2298.67 1454.96 L2282.07 1454.96 L2282.07 1451.02 Z" fill="#000000" fill-rule="nonzero" fill-opacity="1" /><path clip-path="url(#clip850)" d="M1119.9 1525.81 L1119.9 1562.76 L1127.66 1562.76 Q1137.5 1562.76 1142.05 1558.3 Q1146.63 1553.85 1146.63 1544.24 Q1146.63 1534.69 1142.05 1530.26 Q1137.5 1525.81 1127.66 1525.81 L1119.9 1525.81 M1113.47 1520.52 L1126.68 1520.52 Q1140.49 1520.52 1146.95 1526.28 Q1153.41 1532.01 1153.41 1544.24 Q1153.41 1556.52 1146.92 1562.28 Q1140.43 1568.04 1126.68 1568.04 L1113.47 1568.04 L1113.47 1520.52 Z" fill="#000000" fill-rule="nonzero" fill-opacity="1" /><path clip-path="url(#clip850)" d="M1179.61 1550.12 Q1172.51 1550.12 1169.77 1551.75 Q1167.04 1553.37 1167.04 1557.29 Q1167.04 1560.4 1169.07 1562.25 Q1171.14 1564.07 1174.68 1564.07 Q1179.55 1564.07 1182.47 1560.63 Q1185.43 1557.16 1185.43 1551.43 L1185.43 1550.12 L1179.61 1550.12 M1191.29 1547.71 L1191.29 1568.04 L1185.43 1568.04 L1185.43 1562.63 Q1183.43 1565.88 1180.44 1567.44 Q1177.44 1568.97 1173.12 1568.97 Q1167.64 1568.97 1164.39 1565.91 Q1161.18 1562.82 1161.18 1557.67 Q1161.18 1551.65 1165.19 1548.6 Q1169.23 1545.54 1177.22 1545.54 L1185.43 1545.54 L1185.43 1544.97 Q1185.43 1540.93 1182.76 1538.73 Q1180.12 1536.5 1175.31 1536.5 Q1172.26 1536.5 1169.36 1537.23 Q1166.46 1537.97 1163.79 1539.43 L1163.79 1534.02 Q1167 1532.78 1170.03 1532.17 Q1173.05 1531.54 1175.92 1531.54 Q1183.65 1531.54 1187.47 1535.55 Q1191.29 1539.56 1191.29 1547.71 Z" fill="#000000" fill-rule="nonzero" fill-opacity="1" /><path clip-path="url(#clip850)" d="M1218.19 1571.35 Q1215.7 1577.72 1213.35 1579.66 Q1210.99 1581.6 1207.05 1581.6 L1202.37 1581.6 L1202.37 1576.7 L1205.8 1576.7 Q1208.22 1576.7 1209.56 1575.56 Q1210.9 1574.41 1212.52 1570.14 L1213.57 1567.47 L1199.15 1532.4 L1205.36 1532.4 L1216.5 1560.28 L1227.64 1532.4 L1233.84 1532.4 L1218.19 1571.35 Z" fill="#000000" fill-rule="nonzero" fill-opacity="1" /><path clip-path="url(#clip850)" d="M1264.65 1533.45 L1264.65 1538.98 Q1262.17 1537.71 1259.5 1537.07 Q1256.82 1536.44 1253.96 1536.44 Q1249.6 1536.44 1247.4 1537.77 Q1245.24 1539.11 1245.24 1541.79 Q1245.24 1543.82 1246.8 1545 Q1248.36 1546.15 1253.07 1547.2 L1255.07 1547.64 Q1261.31 1548.98 1263.92 1551.43 Q1266.56 1553.85 1266.56 1558.21 Q1266.56 1563.17 1262.62 1566.07 Q1258.7 1568.97 1251.83 1568.97 Q1248.96 1568.97 1245.84 1568.39 Q1242.76 1567.85 1239.32 1566.74 L1239.32 1560.69 Q1242.57 1562.38 1245.72 1563.24 Q1248.87 1564.07 1251.96 1564.07 Q1256.09 1564.07 1258.32 1562.66 Q1260.55 1561.23 1260.55 1558.65 Q1260.55 1556.27 1258.93 1554.99 Q1257.33 1553.72 1251.89 1552.54 L1249.85 1552.07 Q1244.41 1550.92 1241.99 1548.56 Q1239.57 1546.18 1239.57 1542.04 Q1239.57 1537.01 1243.14 1534.27 Q1246.7 1531.54 1253.26 1531.54 Q1256.51 1531.54 1259.37 1532.01 Q1262.24 1532.49 1264.65 1533.45 Z" fill="#000000" fill-rule="nonzero" fill-opacity="1" /><path clip-path="url(#clip850)" d="M1312.81 1550.12 Q1305.71 1550.12 1302.98 1551.75 Q1300.24 1553.37 1300.24 1557.29 Q1300.24 1560.4 1302.28 1562.25 Q1304.34 1564.07 1307.88 1564.07 Q1312.75 1564.07 1315.68 1560.63 Q1318.64 1557.16 1318.64 1551.43 L1318.64 1550.12 L1312.81 1550.12 M1324.49 1547.71 L1324.49 1568.04 L1318.64 1568.04 L1318.64 1562.63 Q1316.63 1565.88 1313.64 1567.44 Q1310.65 1568.97 1306.32 1568.97 Q1300.84 1568.97 1297.6 1565.91 Q1294.38 1562.82 1294.38 1557.67 Q1294.38 1551.65 1298.39 1548.6 Q1302.44 1545.54 1310.42 1545.54 L1318.64 1545.54 L1318.64 1544.97 Q1318.64 1540.93 1315.96 1538.73 Q1313.32 1536.5 1308.51 1536.5 Q1305.46 1536.5 1302.56 1537.23 Q1299.67 1537.97 1296.99 1539.43 L1296.99 1534.02 Q1300.21 1532.78 1303.23 1532.17 Q1306.25 1531.54 1309.12 1531.54 Q1316.85 1531.54 1320.67 1535.55 Q1324.49 1539.56 1324.49 1547.71 Z" fill="#000000" fill-rule="nonzero" fill-opacity="1" /><path clip-path="url(#clip850)" d="M1366.19 1546.53 L1366.19 1568.04 L1360.33 1568.04 L1360.33 1546.72 Q1360.33 1541.66 1358.36 1539.14 Q1356.38 1536.63 1352.44 1536.63 Q1347.7 1536.63 1344.96 1539.65 Q1342.22 1542.68 1342.22 1547.9 L1342.22 1568.04 L1336.33 1568.04 L1336.33 1518.52 L1342.22 1518.52 L1342.22 1537.93 Q1344.32 1534.72 1347.15 1533.13 Q1350.02 1531.54 1353.74 1531.54 Q1359.89 1531.54 1363.04 1535.36 Q1366.19 1539.14 1366.19 1546.53 Z" fill="#000000" fill-rule="nonzero" fill-opacity="1" /><path clip-path="url(#clip850)" d="M1408.36 1548.76 L1408.36 1551.62 L1381.43 1551.62 Q1381.82 1557.67 1385.06 1560.85 Q1388.34 1564 1394.16 1564 Q1397.54 1564 1400.69 1563.17 Q1403.87 1562.35 1406.99 1560.69 L1406.99 1566.23 Q1403.84 1567.57 1400.53 1568.27 Q1397.22 1568.97 1393.81 1568.97 Q1385.28 1568.97 1380.29 1564 Q1375.32 1559.04 1375.32 1550.57 Q1375.32 1541.82 1380.03 1536.69 Q1384.78 1531.54 1392.8 1531.54 Q1399.99 1531.54 1404.16 1536.18 Q1408.36 1540.8 1408.36 1548.76 M1402.5 1547.04 Q1402.44 1542.23 1399.8 1539.37 Q1397.19 1536.5 1392.86 1536.5 Q1387.96 1536.5 1385 1539.27 Q1382.07 1542.04 1381.62 1547.07 L1402.5 1547.04 Z" fill="#000000" fill-rule="nonzero" fill-opacity="1" /><path clip-path="url(#clip850)" d="M1434.17 1550.12 Q1427.08 1550.12 1424.34 1551.75 Q1421.6 1553.37 1421.6 1557.29 Q1421.6 1560.4 1423.64 1562.25 Q1425.71 1564.07 1429.24 1564.07 Q1434.11 1564.07 1437.04 1560.63 Q1440 1557.16 1440 1551.43 L1440 1550.12 L1434.17 1550.12 M1445.85 1547.71 L1445.85 1568.04 L1440 1568.04 L1440 1562.63 Q1437.99 1565.88 1435 1567.44 Q1432.01 1568.97 1427.68 1568.97 Q1422.21 1568.97 1418.96 1565.91 Q1415.74 1562.82 1415.74 1557.67 Q1415.74 1551.65 1419.76 1548.6 Q1423.8 1545.54 1431.79 1545.54 L1440 1545.54 L1440 1544.97 Q1440 1540.93 1437.32 1538.73 Q1434.68 1536.5 1429.88 1536.5 Q1426.82 1536.5 1423.92 1537.23 Q1421.03 1537.97 1418.35 1539.43 L1418.35 1534.02 Q1421.57 1532.78 1424.59 1532.17 Q1427.62 1531.54 1430.48 1531.54 Q1438.22 1531.54 1442.04 1535.55 Q1445.85 1539.56 1445.85 1547.71 Z" fill="#000000" fill-rule="nonzero" fill-opacity="1" /><path clip-path="url(#clip850)" d="M1481.38 1537.81 L1481.38 1518.52 L1487.23 1518.52 L1487.23 1568.04 L1481.38 1568.04 L1481.38 1562.7 Q1479.53 1565.88 1476.7 1567.44 Q1473.9 1568.97 1469.95 1568.97 Q1463.49 1568.97 1459.41 1563.81 Q1455.37 1558.65 1455.37 1550.25 Q1455.37 1541.85 1459.41 1536.69 Q1463.49 1531.54 1469.95 1531.54 Q1473.9 1531.54 1476.7 1533.1 Q1479.53 1534.62 1481.38 1537.81 M1461.42 1550.25 Q1461.42 1556.71 1464.06 1560.4 Q1466.73 1564.07 1471.38 1564.07 Q1476.03 1564.07 1478.7 1560.4 Q1481.38 1556.71 1481.38 1550.25 Q1481.38 1543.79 1478.7 1540.13 Q1476.03 1536.44 1471.38 1536.44 Q1466.73 1536.44 1464.06 1540.13 Q1461.42 1543.79 1461.42 1550.25 Z" fill="#000000" fill-rule="nonzero" fill-opacity="1" /><polyline clip-path="url(#clip852)" style="stroke:#000000; stroke-linecap:round; stroke-linejoin:round; stroke-width:2; stroke-opacity:0.1; fill:none" points="247.945,1195.48 2352.76,1195.48 "/>
<polyline clip-path="url(#clip852)" style="stroke:#000000; stroke-linecap:round; stroke-linejoin:round; stroke-width:2; stroke-opacity:0.1; fill:none" points="247.945,926.733 2352.76,926.733 "/>
<polyline clip-path="url(#clip852)" style="stroke:#000000; stroke-linecap:round; stroke-linejoin:round; stroke-width:2; stroke-opacity:0.1; fill:none" points="247.945,657.982 2352.76,657.982 "/>
<polyline clip-path="url(#clip852)" style="stroke:#000000; stroke-linecap:round; stroke-linejoin:round; stroke-width:2; stroke-opacity:0.1; fill:none" points="247.945,389.231 2352.76,389.231 "/>
<polyline clip-path="url(#clip852)" style="stroke:#000000; stroke-linecap:round; stroke-linejoin:round; stroke-width:2; stroke-opacity:0.05; fill:none" points="247.945,1410.48 2352.76,1410.48 "/>
<polyline clip-path="url(#clip852)" style="stroke:#000000; stroke-linecap:round; stroke-linejoin:round; stroke-width:2; stroke-opacity:0.05; fill:none" points="247.945,1356.73 2352.76,1356.73 "/>
<polyline clip-path="url(#clip852)" style="stroke:#000000; stroke-linecap:round; stroke-linejoin:round; stroke-width:2; stroke-opacity:0.05; fill:none" points="247.945,1302.98 2352.76,1302.98 "/>
<polyline clip-path="url(#clip852)" style="stroke:#000000; stroke-linecap:round; stroke-linejoin:round; stroke-width:2; stroke-opacity:0.05; fill:none" points="247.945,1249.23 2352.76,1249.23 "/>
<polyline clip-path="url(#clip852)" style="stroke:#000000; stroke-linecap:round; stroke-linejoin:round; stroke-width:2; stroke-opacity:0.05; fill:none" points="247.945,1141.73 2352.76,1141.73 "/>
<polyline clip-path="url(#clip852)" style="stroke:#000000; stroke-linecap:round; stroke-linejoin:round; stroke-width:2; stroke-opacity:0.05; fill:none" points="247.945,1087.98 2352.76,1087.98 "/>
<polyline clip-path="url(#clip852)" style="stroke:#000000; stroke-linecap:round; stroke-linejoin:round; stroke-width:2; stroke-opacity:0.05; fill:none" points="247.945,1034.23 2352.76,1034.23 "/>
<polyline clip-path="url(#clip852)" style="stroke:#000000; stroke-linecap:round; stroke-linejoin:round; stroke-width:2; stroke-opacity:0.05; fill:none" points="247.945,980.483 2352.76,980.483 "/>
<polyline clip-path="url(#clip852)" style="stroke:#000000; stroke-linecap:round; stroke-linejoin:round; stroke-width:2; stroke-opacity:0.05; fill:none" points="247.945,872.982 2352.76,872.982 "/>
<polyline clip-path="url(#clip852)" style="stroke:#000000; stroke-linecap:round; stroke-linejoin:round; stroke-width:2; stroke-opacity:0.05; fill:none" points="247.945,819.232 2352.76,819.232 "/>
<polyline clip-path="url(#clip852)" style="stroke:#000000; stroke-linecap:round; stroke-linejoin:round; stroke-width:2; stroke-opacity:0.05; fill:none" points="247.945,765.482 2352.76,765.482 "/>
<polyline clip-path="url(#clip852)" style="stroke:#000000; stroke-linecap:round; stroke-linejoin:round; stroke-width:2; stroke-opacity:0.05; fill:none" points="247.945,711.732 2352.76,711.732 "/>
<polyline clip-path="url(#clip852)" style="stroke:#000000; stroke-linecap:round; stroke-linejoin:round; stroke-width:2; stroke-opacity:0.05; fill:none" points="247.945,604.231 2352.76,604.231 "/>
<polyline clip-path="url(#clip852)" style="stroke:#000000; stroke-linecap:round; stroke-linejoin:round; stroke-width:2; stroke-opacity:0.05; fill:none" points="247.945,550.481 2352.76,550.481 "/>
<polyline clip-path="url(#clip852)" style="stroke:#000000; stroke-linecap:round; stroke-linejoin:round; stroke-width:2; stroke-opacity:0.05; fill:none" points="247.945,496.731 2352.76,496.731 "/>
<polyline clip-path="url(#clip852)" style="stroke:#000000; stroke-linecap:round; stroke-linejoin:round; stroke-width:2; stroke-opacity:0.05; fill:none" points="247.945,442.981 2352.76,442.981 "/>
<polyline clip-path="url(#clip852)" style="stroke:#000000; stroke-linecap:round; stroke-linejoin:round; stroke-width:2; stroke-opacity:0.05; fill:none" points="247.945,335.48 2352.76,335.48 "/>
<polyline clip-path="url(#clip852)" style="stroke:#000000; stroke-linecap:round; stroke-linejoin:round; stroke-width:2; stroke-opacity:0.05; fill:none" points="247.945,281.73 2352.76,281.73 "/>
<polyline clip-path="url(#clip852)" style="stroke:#000000; stroke-linecap:round; stroke-linejoin:round; stroke-width:2; stroke-opacity:0.05; fill:none" points="247.945,227.98 2352.76,227.98 "/>
<polyline clip-path="url(#clip852)" style="stroke:#000000; stroke-linecap:round; stroke-linejoin:round; stroke-width:2; stroke-opacity:0.05; fill:none" points="247.945,174.23 2352.76,174.23 "/>
<polyline clip-path="url(#clip850)" style="stroke:#000000; stroke-linecap:round; stroke-linejoin:round; stroke-width:4; stroke-opacity:1; fill:none" points="247.945,1423.18 247.945,123.472 "/>
<polyline clip-path="url(#clip850)" style="stroke:#000000; stroke-linecap:round; stroke-linejoin:round; stroke-width:4; stroke-opacity:1; fill:none" points="247.945,1195.48 266.842,1195.48 "/>
<polyline clip-path="url(#clip850)" style="stroke:#000000; stroke-linecap:round; stroke-linejoin:round; stroke-width:4; stroke-opacity:1; fill:none" points="247.945,926.733 266.842,926.733 "/>
<polyline clip-path="url(#clip850)" style="stroke:#000000; stroke-linecap:round; stroke-linejoin:round; stroke-width:4; stroke-opacity:1; fill:none" points="247.945,657.982 266.842,657.982 "/>
<polyline clip-path="url(#clip850)" style="stroke:#000000; stroke-linecap:round; stroke-linejoin:round; stroke-width:4; stroke-opacity:1; fill:none" points="247.945,389.231 266.842,389.231 "/>
<polyline clip-path="url(#clip850)" style="stroke:#000000; stroke-linecap:round; stroke-linejoin:round; stroke-width:4; stroke-opacity:1; fill:none" points="247.945,1410.48 257.394,1410.48 "/>
<polyline clip-path="url(#clip850)" style="stroke:#000000; stroke-linecap:round; stroke-linejoin:round; stroke-width:4; stroke-opacity:1; fill:none" points="247.945,1356.73 257.394,1356.73 "/>
<polyline clip-path="url(#clip850)" style="stroke:#000000; stroke-linecap:round; stroke-linejoin:round; stroke-width:4; stroke-opacity:1; fill:none" points="247.945,1302.98 257.394,1302.98 "/>
<polyline clip-path="url(#clip850)" style="stroke:#000000; stroke-linecap:round; stroke-linejoin:round; stroke-width:4; stroke-opacity:1; fill:none" points="247.945,1249.23 257.394,1249.23 "/>
<polyline clip-path="url(#clip850)" style="stroke:#000000; stroke-linecap:round; stroke-linejoin:round; stroke-width:4; stroke-opacity:1; fill:none" points="247.945,1141.73 257.394,1141.73 "/>
<polyline clip-path="url(#clip850)" style="stroke:#000000; stroke-linecap:round; stroke-linejoin:round; stroke-width:4; stroke-opacity:1; fill:none" points="247.945,1087.98 257.394,1087.98 "/>
<polyline clip-path="url(#clip850)" style="stroke:#000000; stroke-linecap:round; stroke-linejoin:round; stroke-width:4; stroke-opacity:1; fill:none" points="247.945,1034.23 257.394,1034.23 "/>
<polyline clip-path="url(#clip850)" style="stroke:#000000; stroke-linecap:round; stroke-linejoin:round; stroke-width:4; stroke-opacity:1; fill:none" points="247.945,980.483 257.394,980.483 "/>
<polyline clip-path="url(#clip850)" style="stroke:#000000; stroke-linecap:round; stroke-linejoin:round; stroke-width:4; stroke-opacity:1; fill:none" points="247.945,872.982 257.394,872.982 "/>
<polyline clip-path="url(#clip850)" style="stroke:#000000; stroke-linecap:round; stroke-linejoin:round; stroke-width:4; stroke-opacity:1; fill:none" points="247.945,819.232 257.394,819.232 "/>
<polyline clip-path="url(#clip850)" style="stroke:#000000; stroke-linecap:round; stroke-linejoin:round; stroke-width:4; stroke-opacity:1; fill:none" points="247.945,765.482 257.394,765.482 "/>
<polyline clip-path="url(#clip850)" style="stroke:#000000; stroke-linecap:round; stroke-linejoin:round; stroke-width:4; stroke-opacity:1; fill:none" points="247.945,711.732 257.394,711.732 "/>
<polyline clip-path="url(#clip850)" style="stroke:#000000; stroke-linecap:round; stroke-linejoin:round; stroke-width:4; stroke-opacity:1; fill:none" points="247.945,604.231 257.394,604.231 "/>
<polyline clip-path="url(#clip850)" style="stroke:#000000; stroke-linecap:round; stroke-linejoin:round; stroke-width:4; stroke-opacity:1; fill:none" points="247.945,550.481 257.394,550.481 "/>
<polyline clip-path="url(#clip850)" style="stroke:#000000; stroke-linecap:round; stroke-linejoin:round; stroke-width:4; stroke-opacity:1; fill:none" points="247.945,496.731 257.394,496.731 "/>
<polyline clip-path="url(#clip850)" style="stroke:#000000; stroke-linecap:round; stroke-linejoin:round; stroke-width:4; stroke-opacity:1; fill:none" points="247.945,442.981 257.394,442.981 "/>
<polyline clip-path="url(#clip850)" style="stroke:#000000; stroke-linecap:round; stroke-linejoin:round; stroke-width:4; stroke-opacity:1; fill:none" points="247.945,335.48 257.394,335.48 "/>
<polyline clip-path="url(#clip850)" style="stroke:#000000; stroke-linecap:round; stroke-linejoin:round; stroke-width:4; stroke-opacity:1; fill:none" points="247.945,281.73 257.394,281.73 "/>
<polyline clip-path="url(#clip850)" style="stroke:#000000; stroke-linecap:round; stroke-linejoin:round; stroke-width:4; stroke-opacity:1; fill:none" points="247.945,227.98 257.394,227.98 "/>
<polyline clip-path="url(#clip850)" style="stroke:#000000; stroke-linecap:round; stroke-linejoin:round; stroke-width:4; stroke-opacity:1; fill:none" points="247.945,174.23 257.394,174.23 "/>
<path clip-path="url(#clip850)" d="M117.015 1208.83 L124.654 1208.83 L124.654 1182.46 L116.343 1184.13 L116.343 1179.87 L124.607 1178.2 L129.283 1178.2 L129.283 1208.83 L136.922 1208.83 L136.922 1212.76 L117.015 1212.76 L117.015 1208.83 Z" fill="#000000" fill-rule="nonzero" fill-opacity="1" /><path clip-path="url(#clip850)" d="M146.366 1206.88 L151.251 1206.88 L151.251 1212.76 L146.366 1212.76 L146.366 1206.88 Z" fill="#000000" fill-rule="nonzero" fill-opacity="1" /><path clip-path="url(#clip850)" d="M171.436 1181.28 Q167.825 1181.28 165.996 1184.85 Q164.19 1188.39 164.19 1195.52 Q164.19 1202.62 165.996 1206.19 Q167.825 1209.73 171.436 1209.73 Q175.07 1209.73 176.876 1206.19 Q178.704 1202.62 178.704 1195.52 Q178.704 1188.39 176.876 1184.85 Q175.07 1181.28 171.436 1181.28 M171.436 1177.58 Q177.246 1177.58 180.301 1182.19 Q183.38 1186.77 183.38 1195.52 Q183.38 1204.25 180.301 1208.85 Q177.246 1213.43 171.436 1213.43 Q165.626 1213.43 162.547 1208.85 Q159.491 1204.25 159.491 1195.52 Q159.491 1186.77 162.547 1182.19 Q165.626 1177.58 171.436 1177.58 Z" fill="#000000" fill-rule="nonzero" fill-opacity="1" /><path clip-path="url(#clip850)" d="M195.625 1208.83 L211.945 1208.83 L211.945 1212.76 L190 1212.76 L190 1208.83 Q192.663 1206.07 197.246 1201.44 Q201.852 1196.79 203.033 1195.45 Q205.278 1192.93 206.158 1191.19 Q207.061 1189.43 207.061 1187.74 Q207.061 1184.99 205.116 1183.25 Q203.195 1181.51 200.093 1181.51 Q197.894 1181.51 195.44 1182.28 Q193.01 1183.04 190.232 1184.59 L190.232 1179.87 Q193.056 1178.74 195.51 1178.16 Q197.963 1177.58 200 1177.58 Q205.371 1177.58 208.565 1180.26 Q211.76 1182.95 211.76 1187.44 Q211.76 1189.57 210.949 1191.49 Q210.162 1193.39 208.056 1195.98 Q207.477 1196.65 204.375 1199.87 Q201.274 1203.06 195.625 1208.83 Z" fill="#000000" fill-rule="nonzero" fill-opacity="1" /><path clip-path="url(#clip850)" d="M114.931 940.077 L122.57 940.077 L122.57 913.712 L114.26 915.379 L114.26 911.119 L122.524 909.453 L127.2 909.453 L127.2 940.077 L134.839 940.077 L134.839 944.013 L114.931 944.013 L114.931 940.077 Z" fill="#000000" fill-rule="nonzero" fill-opacity="1" /><path clip-path="url(#clip850)" d="M144.283 938.133 L149.167 938.133 L149.167 944.013 L144.283 944.013 L144.283 938.133 Z" fill="#000000" fill-rule="nonzero" fill-opacity="1" /><path clip-path="url(#clip850)" d="M169.352 912.531 Q165.741 912.531 163.913 916.096 Q162.107 919.638 162.107 926.767 Q162.107 933.874 163.913 937.439 Q165.741 940.98 169.352 940.98 Q172.987 940.98 174.792 937.439 Q176.621 933.874 176.621 926.767 Q176.621 919.638 174.792 916.096 Q172.987 912.531 169.352 912.531 M169.352 908.828 Q175.163 908.828 178.218 913.434 Q181.297 918.017 181.297 926.767 Q181.297 935.494 178.218 940.101 Q175.163 944.684 169.352 944.684 Q163.542 944.684 160.464 940.101 Q157.408 935.494 157.408 926.767 Q157.408 918.017 160.464 913.434 Q163.542 908.828 169.352 908.828 Z" fill="#000000" fill-rule="nonzero" fill-opacity="1" /><path clip-path="url(#clip850)" d="M202.362 913.527 L190.556 931.976 L202.362 931.976 L202.362 913.527 M201.135 909.453 L207.014 909.453 L207.014 931.976 L211.945 931.976 L211.945 935.865 L207.014 935.865 L207.014 944.013 L202.362 944.013 L202.362 935.865 L186.76 935.865 L186.76 931.351 L201.135 909.453 Z" fill="#000000" fill-rule="nonzero" fill-opacity="1" /><path clip-path="url(#clip850)" d="M115.256 671.326 L122.894 671.326 L122.894 644.961 L114.584 646.628 L114.584 642.368 L122.848 640.702 L127.524 640.702 L127.524 671.326 L135.163 671.326 L135.163 675.262 L115.256 675.262 L115.256 671.326 Z" fill="#000000" fill-rule="nonzero" fill-opacity="1" /><path clip-path="url(#clip850)" d="M144.607 669.382 L149.491 669.382 L149.491 675.262 L144.607 675.262 L144.607 669.382 Z" fill="#000000" fill-rule="nonzero" fill-opacity="1" /><path clip-path="url(#clip850)" d="M169.677 643.78 Q166.065 643.78 164.237 647.345 Q162.431 650.887 162.431 658.016 Q162.431 665.123 164.237 668.688 Q166.065 672.229 169.677 672.229 Q173.311 672.229 175.116 668.688 Q176.945 665.123 176.945 658.016 Q176.945 650.887 175.116 647.345 Q173.311 643.78 169.677 643.78 M169.677 640.077 Q175.487 640.077 178.542 644.683 Q181.621 649.266 181.621 658.016 Q181.621 666.743 178.542 671.35 Q175.487 675.933 169.677 675.933 Q163.866 675.933 160.788 671.35 Q157.732 666.743 157.732 658.016 Q157.732 649.266 160.788 644.683 Q163.866 640.077 169.677 640.077 Z" fill="#000000" fill-rule="nonzero" fill-opacity="1" /><path clip-path="url(#clip850)" d="M200.417 656.118 Q197.269 656.118 195.417 658.271 Q193.588 660.424 193.588 664.174 Q193.588 667.901 195.417 670.076 Q197.269 672.229 200.417 672.229 Q203.565 672.229 205.394 670.076 Q207.246 667.901 207.246 664.174 Q207.246 660.424 205.394 658.271 Q203.565 656.118 200.417 656.118 M209.699 641.466 L209.699 645.725 Q207.94 644.891 206.135 644.452 Q204.352 644.012 202.593 644.012 Q197.963 644.012 195.51 647.137 Q193.079 650.262 192.732 656.581 Q194.098 654.567 196.158 653.503 Q198.218 652.415 200.695 652.415 Q205.903 652.415 208.912 655.586 Q211.945 658.734 211.945 664.174 Q211.945 669.498 208.797 672.715 Q205.649 675.933 200.417 675.933 Q194.422 675.933 191.25 671.35 Q188.079 666.743 188.079 658.016 Q188.079 649.822 191.968 644.961 Q195.857 640.077 202.408 640.077 Q204.167 640.077 205.949 640.424 Q207.755 640.771 209.699 641.466 Z" fill="#000000" fill-rule="nonzero" fill-opacity="1" /><path clip-path="url(#clip850)" d="M115.51 402.576 L123.149 402.576 L123.149 376.21 L114.839 377.877 L114.839 373.617 L123.103 371.951 L127.779 371.951 L127.779 402.576 L135.417 402.576 L135.417 406.511 L115.51 406.511 L115.51 402.576 Z" fill="#000000" fill-rule="nonzero" fill-opacity="1" /><path clip-path="url(#clip850)" d="M144.862 400.631 L149.746 400.631 L149.746 406.511 L144.862 406.511 L144.862 400.631 Z" fill="#000000" fill-rule="nonzero" fill-opacity="1" /><path clip-path="url(#clip850)" d="M169.931 375.029 Q166.32 375.029 164.491 378.594 Q162.686 382.136 162.686 389.265 Q162.686 396.372 164.491 399.937 Q166.32 403.478 169.931 403.478 Q173.565 403.478 175.371 399.937 Q177.2 396.372 177.2 389.265 Q177.2 382.136 175.371 378.594 Q173.565 375.029 169.931 375.029 M169.931 371.326 Q175.741 371.326 178.797 375.932 Q181.876 380.515 181.876 389.265 Q181.876 397.992 178.797 402.599 Q175.741 407.182 169.931 407.182 Q164.121 407.182 161.042 402.599 Q157.987 397.992 157.987 389.265 Q157.987 380.515 161.042 375.932 Q164.121 371.326 169.931 371.326 Z" fill="#000000" fill-rule="nonzero" fill-opacity="1" /><path clip-path="url(#clip850)" d="M200.093 390.099 Q196.76 390.099 194.838 391.881 Q192.94 393.664 192.94 396.789 Q192.94 399.913 194.838 401.696 Q196.76 403.478 200.093 403.478 Q203.426 403.478 205.348 401.696 Q207.269 399.89 207.269 396.789 Q207.269 393.664 205.348 391.881 Q203.449 390.099 200.093 390.099 M195.417 388.108 Q192.408 387.367 190.718 385.307 Q189.051 383.247 189.051 380.284 Q189.051 376.14 191.991 373.733 Q194.954 371.326 200.093 371.326 Q205.255 371.326 208.195 373.733 Q211.135 376.14 211.135 380.284 Q211.135 383.247 209.445 385.307 Q207.778 387.367 204.792 388.108 Q208.172 388.895 210.047 391.187 Q211.945 393.478 211.945 396.789 Q211.945 401.812 208.866 404.497 Q205.811 407.182 200.093 407.182 Q194.375 407.182 191.297 404.497 Q188.241 401.812 188.241 396.789 Q188.241 393.478 190.139 391.187 Q192.038 388.895 195.417 388.108 M193.704 380.724 Q193.704 383.409 195.371 384.914 Q197.061 386.418 200.093 386.418 Q203.102 386.418 204.792 384.914 Q206.505 383.409 206.505 380.724 Q206.505 378.039 204.792 376.534 Q203.102 375.029 200.093 375.029 Q197.061 375.029 195.371 376.534 Q193.704 378.039 193.704 380.724 Z" fill="#000000" fill-rule="nonzero" fill-opacity="1" /><path clip-path="url(#clip850)" d="M16.4842 874.557 L16.4842 864.976 L48.8219 852.85 L16.4842 840.659 L16.4842 831.079 L64.0042 831.079 L64.0042 837.349 L22.277 837.349 L54.8694 849.603 L54.8694 856.064 L22.277 868.318 L64.0042 868.318 L64.0042 874.557 L16.4842 874.557 Z" fill="#000000" fill-rule="nonzero" fill-opacity="1" /><path clip-path="url(#clip850)" d="M41.7242 795.781 Q42.4244 793.712 44.7161 791.771 Q47.0077 789.797 51.0181 787.824 L64.0042 781.299 L64.0042 788.206 L51.8138 794.285 Q47.0395 796.64 45.48 798.868 Q43.9204 801.065 43.9204 804.884 L43.9204 811.886 L64.0042 811.886 L64.0042 818.316 L16.4842 818.316 L16.4842 803.802 Q16.4842 795.654 19.8898 791.643 Q23.2955 787.633 30.1704 787.633 Q34.6582 787.633 37.6183 789.734 Q40.5784 791.802 41.7242 795.781 M21.7677 811.886 L38.6368 811.886 L38.6368 803.802 Q38.6368 799.155 36.5043 796.8 Q34.34 794.412 30.1704 794.412 Q26.0009 794.412 23.9002 796.8 Q21.7677 799.155 21.7677 803.802 L21.7677 811.886 Z" fill="#000000" fill-rule="nonzero" fill-opacity="1" /><path clip-path="url(#clip850)" d="M22.818 759.783 L46.4666 768.504 L46.4666 751.03 L22.818 759.783 M16.4842 763.411 L16.4842 756.123 L64.0042 738.012 L64.0042 744.696 L51.8138 749.025 L51.8138 770.446 L64.0042 774.774 L64.0042 781.554 L16.4842 763.411 Z" fill="#000000" fill-rule="nonzero" fill-opacity="1" /><path clip-path="url(#clip850)" d="M16.4842 731.074 L16.4842 701.027 L21.895 701.027 L21.895 724.644 L35.9632 724.644 L35.9632 702.014 L41.3741 702.014 L41.3741 724.644 L58.5933 724.644 L58.5933 700.455 L64.0042 700.455 L64.0042 731.074 L16.4842 731.074 Z" fill="#000000" fill-rule="nonzero" fill-opacity="1" /><path clip-path="url(#clip850)" d="M14.479 672.095 L19.3487 672.095 L19.3487 677.697 Q19.3487 680.848 20.6219 682.089 Q21.895 683.299 25.2052 683.299 L28.3562 683.299 L28.3562 673.655 L32.9077 673.655 L32.9077 683.299 L64.0042 683.299 L64.0042 689.187 L32.9077 689.187 L32.9077 694.789 L28.3562 694.789 L28.3562 689.187 L25.8736 689.187 Q19.9216 689.187 17.2162 686.418 Q14.479 683.649 14.479 677.633 L14.479 672.095 Z" fill="#000000" fill-rule="nonzero" fill-opacity="1" /><path clip-path="url(#clip850)" d="M857.85 12.096 L870.043 12.096 L885.477 53.2532 L900.992 12.096 L913.185 12.096 L913.185 72.576 L905.205 72.576 L905.205 19.4686 L889.609 60.9499 L881.386 60.9499 L865.79 19.4686 L865.79 72.576 L857.85 72.576 L857.85 12.096 Z" fill="#000000" fill-rule="nonzero" fill-opacity="1" /><path clip-path="url(#clip850)" d="M958.11 44.2197 Q960.743 45.1109 963.214 48.0275 Q965.725 50.9442 968.237 56.0483 L976.541 72.576 L967.751 72.576 L960.014 57.061 Q957.016 50.9847 954.18 48.9997 Q951.385 47.0148 946.524 47.0148 L937.612 47.0148 L937.612 72.576 L929.429 72.576 L929.429 12.096 L947.901 12.096 Q958.272 12.096 963.376 16.4305 Q968.48 20.7649 968.48 29.5149 Q968.48 35.2267 965.806 38.994 Q963.173 42.7613 958.11 44.2197 M937.612 18.8205 L937.612 40.2903 L947.901 40.2903 Q953.816 40.2903 956.813 37.5762 Q959.852 34.8216 959.852 29.5149 Q959.852 24.2082 956.813 21.5346 Q953.816 18.8205 947.901 18.8205 L937.612 18.8205 Z" fill="#000000" fill-rule="nonzero" fill-opacity="1" /><path clip-path="url(#clip850)" d="M1003.93 20.1573 L992.826 50.2555 L1015.07 50.2555 L1003.93 20.1573 M999.307 12.096 L1008.58 12.096 L1031.63 72.576 L1023.13 72.576 L1017.62 57.061 L990.355 57.061 L984.846 72.576 L976.217 72.576 L999.307 12.096 Z" fill="#000000" fill-rule="nonzero" fill-opacity="1" /><path clip-path="url(#clip850)" d="M1040.46 12.096 L1078.71 12.096 L1078.71 18.9825 L1048.65 18.9825 L1048.65 36.8875 L1077.45 36.8875 L1077.45 43.7741 L1048.65 43.7741 L1048.65 65.6895 L1079.43 65.6895 L1079.43 72.576 L1040.46 72.576 L1040.46 12.096 Z" fill="#000000" fill-rule="nonzero" fill-opacity="1" /><path clip-path="url(#clip850)" d="M1115.53 9.54393 L1115.53 15.7418 L1108.4 15.7418 Q1104.39 15.7418 1102.81 17.3622 Q1101.27 18.9825 1101.27 23.1955 L1101.27 27.2059 L1113.54 27.2059 L1113.54 32.9987 L1101.27 32.9987 L1101.27 72.576 L1093.77 72.576 L1093.77 32.9987 L1086.64 32.9987 L1086.64 27.2059 L1093.77 27.2059 L1093.77 24.0462 Q1093.77 16.471 1097.3 13.0277 Q1100.82 9.54393 1108.48 9.54393 L1115.53 9.54393 Z" fill="#000000" fill-rule="nonzero" fill-opacity="1" /><path clip-path="url(#clip850)" d="M1142.79 27.2059 L1150.69 27.2059 L1164.87 65.2844 L1179.05 27.2059 L1186.95 27.2059 L1169.93 72.576 L1159.8 72.576 L1142.79 27.2059 Z" fill="#000000" fill-rule="nonzero" fill-opacity="1" /><path clip-path="url(#clip850)" d="M1226.16 28.5427 L1226.16 35.5912 Q1223 33.9709 1219.6 33.1607 Q1216.19 32.3505 1212.55 32.3505 Q1207 32.3505 1204.2 34.0519 Q1201.45 35.7533 1201.45 39.156 Q1201.45 41.7486 1203.43 43.2475 Q1205.42 44.7058 1211.41 46.0426 L1213.96 46.6097 Q1221.9 48.3111 1225.23 51.4303 Q1228.59 54.509 1228.59 60.0587 Q1228.59 66.3781 1223.57 70.0644 Q1218.58 73.7508 1209.83 73.7508 Q1206.19 73.7508 1202.22 73.0216 Q1198.29 72.3329 1193.91 70.9151 L1193.91 63.2184 Q1198.04 65.3654 1202.06 66.4591 Q1206.07 67.5124 1209.99 67.5124 Q1215.26 67.5124 1218.1 65.73 Q1220.93 63.9071 1220.93 60.6258 Q1220.93 57.5877 1218.87 55.9673 Q1216.84 54.3469 1209.91 52.8481 L1207.32 52.2405 Q1200.39 50.7821 1197.32 47.7845 Q1194.24 44.7463 1194.24 39.4801 Q1194.24 33.0797 1198.77 29.5959 Q1203.31 26.1121 1211.66 26.1121 Q1215.79 26.1121 1219.43 26.7198 Q1223.08 27.3274 1226.16 28.5427 Z" fill="#000000" fill-rule="nonzero" fill-opacity="1" /><path clip-path="url(#clip850)" d="M1275.34 18.8205 L1275.34 65.8515 L1285.22 65.8515 Q1297.74 65.8515 1303.53 60.1802 Q1309.36 54.509 1309.36 42.2752 Q1309.36 30.1225 1303.53 24.4918 Q1297.74 18.8205 1285.22 18.8205 L1275.34 18.8205 M1267.15 12.096 L1283.96 12.096 Q1301.55 12.096 1309.77 19.4281 Q1317.99 26.7198 1317.99 42.2752 Q1317.99 57.9117 1309.73 65.2439 Q1301.46 72.576 1283.96 72.576 L1267.15 72.576 L1267.15 12.096 Z" fill="#000000" fill-rule="nonzero" fill-opacity="1" /><path clip-path="url(#clip850)" d="M1351.33 49.7694 Q1342.3 49.7694 1338.81 51.8354 Q1335.33 53.9013 1335.33 58.8839 Q1335.33 62.8538 1337.92 65.2034 Q1340.56 67.5124 1345.05 67.5124 Q1351.25 67.5124 1354.98 63.1374 Q1358.74 58.7219 1358.74 51.4303 L1358.74 49.7694 L1351.33 49.7694 M1366.2 46.6907 L1366.2 72.576 L1358.74 72.576 L1358.74 65.6895 Q1356.19 69.8214 1352.38 71.8063 Q1348.58 73.7508 1343.07 73.7508 Q1336.1 73.7508 1331.97 69.8619 Q1327.88 65.9325 1327.88 59.3701 Q1327.88 51.7138 1332.98 47.825 Q1338.13 43.9361 1348.29 43.9361 L1358.74 43.9361 L1358.74 43.2069 Q1358.74 38.0623 1355.34 35.2672 Q1351.98 32.4315 1345.86 32.4315 Q1341.97 32.4315 1338.29 33.3632 Q1334.6 34.295 1331.2 36.1584 L1331.2 29.2718 Q1335.29 27.692 1339.14 26.9223 Q1342.99 26.1121 1346.63 26.1121 Q1356.48 26.1121 1361.34 31.2163 Q1366.2 36.3204 1366.2 46.6907 Z" fill="#000000" fill-rule="nonzero" fill-opacity="1" /><path clip-path="url(#clip850)" d="M1400.43 76.7889 Q1397.27 84.8907 1394.27 87.3618 Q1391.27 89.8329 1386.25 89.8329 L1380.29 89.8329 L1380.29 83.5945 L1384.67 83.5945 Q1387.75 83.5945 1389.45 82.1361 Q1391.15 80.6778 1393.22 75.2496 L1394.55 71.8468 L1376.2 27.2059 L1384.1 27.2059 L1398.28 62.6918 L1412.46 27.2059 L1420.36 27.2059 L1400.43 76.7889 Z" fill="#000000" fill-rule="nonzero" fill-opacity="1" /><path clip-path="url(#clip850)" d="M1459.57 28.5427 L1459.57 35.5912 Q1456.41 33.9709 1453.01 33.1607 Q1449.61 32.3505 1445.96 32.3505 Q1440.41 32.3505 1437.62 34.0519 Q1434.86 35.7533 1434.86 39.156 Q1434.86 41.7486 1436.85 43.2475 Q1438.83 44.7058 1444.83 46.0426 L1447.38 46.6097 Q1455.32 48.3111 1458.64 51.4303 Q1462 54.509 1462 60.0587 Q1462 66.3781 1456.98 70.0644 Q1452 73.7508 1443.25 73.7508 Q1439.6 73.7508 1435.63 73.0216 Q1431.7 72.3329 1427.33 70.9151 L1427.33 63.2184 Q1431.46 65.3654 1435.47 66.4591 Q1439.48 67.5124 1443.41 67.5124 Q1448.67 67.5124 1451.51 65.73 Q1454.35 63.9071 1454.35 60.6258 Q1454.35 57.5877 1452.28 55.9673 Q1450.25 54.3469 1443.33 52.8481 L1440.73 52.2405 Q1433.81 50.7821 1430.73 47.7845 Q1427.65 44.7463 1427.65 39.4801 Q1427.65 33.0797 1432.19 29.5959 Q1436.72 26.1121 1445.07 26.1121 Q1449.2 26.1121 1452.85 26.7198 Q1456.49 27.3274 1459.57 28.5427 Z" fill="#000000" fill-rule="nonzero" fill-opacity="1" /><path clip-path="url(#clip850)" d="M1520.86 49.7694 Q1511.83 49.7694 1508.34 51.8354 Q1504.86 53.9013 1504.86 58.8839 Q1504.86 62.8538 1507.45 65.2034 Q1510.09 67.5124 1514.58 67.5124 Q1520.78 67.5124 1524.51 63.1374 Q1528.27 58.7219 1528.27 51.4303 L1528.27 49.7694 L1520.86 49.7694 M1535.73 46.6907 L1535.73 72.576 L1528.27 72.576 L1528.27 65.6895 Q1525.72 69.8214 1521.91 71.8063 Q1518.11 73.7508 1512.6 73.7508 Q1505.63 73.7508 1501.5 69.8619 Q1497.41 65.9325 1497.41 59.3701 Q1497.41 51.7138 1502.51 47.825 Q1507.66 43.9361 1517.82 43.9361 L1528.27 43.9361 L1528.27 43.2069 Q1528.27 38.0623 1524.87 35.2672 Q1521.51 32.4315 1515.39 32.4315 Q1511.5 32.4315 1507.82 33.3632 Q1504.13 34.295 1500.73 36.1584 L1500.73 29.2718 Q1504.82 27.692 1508.67 26.9223 Q1512.52 26.1121 1516.16 26.1121 Q1526.01 26.1121 1530.87 31.2163 Q1535.73 36.3204 1535.73 46.6907 Z" fill="#000000" fill-rule="nonzero" fill-opacity="1" /><path clip-path="url(#clip850)" d="M1588.79 45.1919 L1588.79 72.576 L1581.34 72.576 L1581.34 45.4349 Q1581.34 38.994 1578.83 35.7938 Q1576.32 32.5936 1571.3 32.5936 Q1565.26 32.5936 1561.78 36.4419 Q1558.29 40.2903 1558.29 46.9338 L1558.29 72.576 L1550.8 72.576 L1550.8 9.54393 L1558.29 9.54393 L1558.29 34.2544 Q1560.97 30.163 1564.57 28.1376 Q1568.22 26.1121 1572.96 26.1121 Q1580.77 26.1121 1584.78 30.9732 Q1588.79 35.7938 1588.79 45.1919 Z" fill="#000000" fill-rule="nonzero" fill-opacity="1" /><path clip-path="url(#clip850)" d="M1642.47 48.0275 L1642.47 51.6733 L1608.2 51.6733 Q1608.68 59.3701 1612.82 63.421 Q1616.99 67.4314 1624.4 67.4314 Q1628.7 67.4314 1632.71 66.3781 Q1636.76 65.3249 1640.73 63.2184 L1640.73 70.267 Q1636.72 71.9684 1632.5 72.8596 Q1628.29 73.7508 1623.96 73.7508 Q1613.1 73.7508 1606.74 67.4314 Q1600.42 61.1119 1600.42 50.3365 Q1600.42 39.1965 1606.42 32.6746 Q1612.45 26.1121 1622.66 26.1121 Q1631.82 26.1121 1637.12 32.0264 Q1642.47 37.9003 1642.47 48.0275 M1635.02 45.84 Q1634.93 39.7232 1631.57 36.0774 Q1628.25 32.4315 1622.74 32.4315 Q1616.5 32.4315 1612.74 35.9558 Q1609.01 39.4801 1608.44 45.8805 L1635.02 45.84 Z" fill="#000000" fill-rule="nonzero" fill-opacity="1" /><path clip-path="url(#clip850)" d="M1675.32 49.7694 Q1666.29 49.7694 1662.81 51.8354 Q1659.32 53.9013 1659.32 58.8839 Q1659.32 62.8538 1661.91 65.2034 Q1664.55 67.5124 1669.04 67.5124 Q1675.24 67.5124 1678.97 63.1374 Q1682.74 58.7219 1682.74 51.4303 L1682.74 49.7694 L1675.32 49.7694 M1690.19 46.6907 L1690.19 72.576 L1682.74 72.576 L1682.74 65.6895 Q1680.18 69.8214 1676.38 71.8063 Q1672.57 73.7508 1667.06 73.7508 Q1660.09 73.7508 1655.96 69.8619 Q1651.87 65.9325 1651.87 59.3701 Q1651.87 51.7138 1656.97 47.825 Q1662.12 43.9361 1672.28 43.9361 L1682.74 43.9361 L1682.74 43.2069 Q1682.74 38.0623 1679.33 35.2672 Q1675.97 32.4315 1669.85 32.4315 Q1665.96 32.4315 1662.28 33.3632 Q1658.59 34.295 1655.19 36.1584 L1655.19 29.2718 Q1659.28 27.692 1663.13 26.9223 Q1666.98 26.1121 1670.62 26.1121 Q1680.47 26.1121 1685.33 31.2163 Q1690.19 36.3204 1690.19 46.6907 Z" fill="#000000" fill-rule="nonzero" fill-opacity="1" /><path clip-path="url(#clip850)" d="M1735.4 34.0924 L1735.4 9.54393 L1742.85 9.54393 L1742.85 72.576 L1735.4 72.576 L1735.4 65.7705 Q1733.05 69.8214 1729.44 71.8063 Q1725.88 73.7508 1720.85 73.7508 Q1712.63 73.7508 1707.45 67.1883 Q1702.3 60.6258 1702.3 49.9314 Q1702.3 39.2371 1707.45 32.6746 Q1712.63 26.1121 1720.85 26.1121 Q1725.88 26.1121 1729.44 28.0971 Q1733.05 30.0415 1735.4 34.0924 M1710 49.9314 Q1710 58.1548 1713.36 62.8538 Q1716.76 67.5124 1722.68 67.5124 Q1728.59 67.5124 1731.99 62.8538 Q1735.4 58.1548 1735.4 49.9314 Q1735.4 41.7081 1731.99 37.0496 Q1728.59 32.3505 1722.68 32.3505 Q1716.76 32.3505 1713.36 37.0496 Q1710 41.7081 1710 49.9314 Z" fill="#000000" fill-rule="nonzero" fill-opacity="1" /><polyline clip-path="url(#clip852)" style="stroke:#009af9; stroke-linecap:round; stroke-linejoin:round; stroke-width:4; stroke-opacity:1; fill:none" points="307.515,1235.53 638.46,1240.57 969.405,1236.86 1300.35,1267.11 1631.3,1258.65 1962.24,1254.42 2293.19,1248.3 "/>
<polyline clip-path="url(#clip852)" style="stroke:#e26f46; stroke-linecap:round; stroke-linejoin:round; stroke-width:4; stroke-opacity:1; fill:none" points="307.515,884.54 638.46,846.945 969.405,753.789 1300.35,706.995 1631.3,587.645 1962.24,388.594 2293.19,160.256 "/>
<polyline clip-path="url(#clip852)" style="stroke:#3da44d; stroke-linecap:round; stroke-linejoin:round; stroke-width:4; stroke-opacity:1; fill:none" points="307.515,1373.69 638.46,1376.65 969.405,1375.01 1300.35,1374.66 1631.3,1378.25 1962.24,1386.4 2293.19,1381.53 "/>
<path clip-path="url(#clip850)" d="M318.105 374.156 L941.616 374.156 L941.616 166.796 L318.105 166.796  Z" fill="#ffffff" fill-rule="evenodd" fill-opacity="1"/>
<polyline clip-path="url(#clip850)" style="stroke:#000000; stroke-linecap:round; stroke-linejoin:round; stroke-width:4; stroke-opacity:1; fill:none" points="318.105,374.156 941.616,374.156 941.616,166.796 318.105,166.796 318.105,374.156 "/>
<polyline clip-path="url(#clip850)" style="stroke:#009af9; stroke-linecap:round; stroke-linejoin:round; stroke-width:4; stroke-opacity:1; fill:none" points="341.492,218.636 481.813,218.636 "/>
<path clip-path="url(#clip850)" d="M505.2 201.356 L509.875 201.356 L509.875 231.981 L526.704 231.981 L526.704 235.916 L505.2 235.916 L505.2 201.356 Z" fill="#000000" fill-rule="nonzero" fill-opacity="1" /><path clip-path="url(#clip850)" d="M543.209 222.883 Q538.047 222.883 536.056 224.064 Q534.065 225.244 534.065 228.092 Q534.065 230.36 535.547 231.703 Q537.051 233.022 539.621 233.022 Q543.162 233.022 545.292 230.522 Q547.445 227.999 547.445 223.832 L547.445 222.883 L543.209 222.883 M551.704 221.124 L551.704 235.916 L547.445 235.916 L547.445 231.981 Q545.986 234.342 543.81 235.476 Q541.634 236.587 538.486 236.587 Q534.505 236.587 532.144 234.365 Q529.806 232.119 529.806 228.369 Q529.806 223.994 532.723 221.772 Q535.662 219.55 541.472 219.55 L547.445 219.55 L547.445 219.133 Q547.445 216.194 545.5 214.596 Q543.579 212.976 540.084 212.976 Q537.861 212.976 535.755 213.508 Q533.648 214.041 531.704 215.106 L531.704 211.17 Q534.042 210.268 536.241 209.828 Q538.44 209.365 540.523 209.365 Q546.148 209.365 548.926 212.282 Q551.704 215.198 551.704 221.124 Z" fill="#000000" fill-rule="nonzero" fill-opacity="1" /><path clip-path="url(#clip850)" d="M577.005 210.754 L577.005 214.782 Q575.199 213.856 573.255 213.393 Q571.31 212.93 569.227 212.93 Q566.056 212.93 564.458 213.902 Q562.884 214.874 562.884 216.819 Q562.884 218.3 564.019 219.157 Q565.153 219.99 568.579 220.754 L570.037 221.078 Q574.574 222.05 576.472 223.832 Q578.394 225.592 578.394 228.763 Q578.394 232.374 575.523 234.481 Q572.676 236.587 567.676 236.587 Q565.593 236.587 563.324 236.17 Q561.079 235.777 558.579 234.967 L558.579 230.569 Q560.94 231.795 563.232 232.42 Q565.523 233.022 567.769 233.022 Q570.778 233.022 572.398 232.004 Q574.019 230.962 574.019 229.087 Q574.019 227.351 572.838 226.425 Q571.681 225.499 567.722 224.643 L566.241 224.295 Q562.283 223.462 560.523 221.749 Q558.764 220.013 558.764 217.004 Q558.764 213.346 561.357 211.356 Q563.949 209.365 568.718 209.365 Q571.079 209.365 573.162 209.712 Q575.245 210.059 577.005 210.754 Z" fill="#000000" fill-rule="nonzero" fill-opacity="1" /><path clip-path="url(#clip850)" d="M589.389 202.629 L589.389 209.99 L598.162 209.99 L598.162 213.3 L589.389 213.3 L589.389 227.374 Q589.389 230.545 590.245 231.448 Q591.125 232.351 593.787 232.351 L598.162 232.351 L598.162 235.916 L593.787 235.916 Q588.856 235.916 586.981 234.087 Q585.106 232.235 585.106 227.374 L585.106 213.3 L581.982 213.3 L581.982 209.99 L585.106 209.99 L585.106 202.629 L589.389 202.629 Z" fill="#000000" fill-rule="nonzero" fill-opacity="1" /><path clip-path="url(#clip850)" d="M615.778 209.99 L620.291 209.99 L628.393 231.749 L636.495 209.99 L641.009 209.99 L631.287 235.916 L625.5 235.916 L615.778 209.99 Z" fill="#000000" fill-rule="nonzero" fill-opacity="1" /><path clip-path="url(#clip850)" d="M658.671 222.883 Q653.509 222.883 651.518 224.064 Q649.527 225.244 649.527 228.092 Q649.527 230.36 651.009 231.703 Q652.514 233.022 655.083 233.022 Q658.625 233.022 660.754 230.522 Q662.907 227.999 662.907 223.832 L662.907 222.883 L658.671 222.883 M667.166 221.124 L667.166 235.916 L662.907 235.916 L662.907 231.981 Q661.449 234.342 659.273 235.476 Q657.097 236.587 653.949 236.587 Q649.967 236.587 647.606 234.365 Q645.268 232.119 645.268 228.369 Q645.268 223.994 648.185 221.772 Q651.125 219.55 656.935 219.55 L662.907 219.55 L662.907 219.133 Q662.907 216.194 660.963 214.596 Q659.041 212.976 655.546 212.976 Q653.324 212.976 651.217 213.508 Q649.111 214.041 647.166 215.106 L647.166 211.17 Q649.504 210.268 651.703 209.828 Q653.902 209.365 655.986 209.365 Q661.611 209.365 664.388 212.282 Q667.166 215.198 667.166 221.124 Z" fill="#000000" fill-rule="nonzero" fill-opacity="1" /><path clip-path="url(#clip850)" d="M675.939 199.897 L680.199 199.897 L680.199 235.916 L675.939 235.916 L675.939 199.897 Z" fill="#000000" fill-rule="nonzero" fill-opacity="1" /><path clip-path="url(#clip850)" d="M688.671 225.684 L688.671 209.99 L692.93 209.99 L692.93 225.522 Q692.93 229.203 694.365 231.055 Q695.8 232.883 698.671 232.883 Q702.12 232.883 704.11 230.684 Q706.124 228.485 706.124 224.689 L706.124 209.99 L710.384 209.99 L710.384 235.916 L706.124 235.916 L706.124 231.934 Q704.573 234.295 702.513 235.453 Q700.476 236.587 697.768 236.587 Q693.3 236.587 690.986 233.809 Q688.671 231.031 688.671 225.684 M699.388 209.365 L699.388 209.365 Z" fill="#000000" fill-rule="nonzero" fill-opacity="1" /><path clip-path="url(#clip850)" d="M741.333 221.888 L741.333 223.971 L721.749 223.971 Q722.027 228.369 724.388 230.684 Q726.772 232.976 731.008 232.976 Q733.462 232.976 735.754 232.374 Q738.069 231.772 740.337 230.569 L740.337 234.596 Q738.045 235.568 735.638 236.078 Q733.231 236.587 730.754 236.587 Q724.55 236.587 720.916 232.976 Q717.305 229.365 717.305 223.207 Q717.305 216.842 720.731 213.115 Q724.18 209.365 730.013 209.365 Q735.245 209.365 738.277 212.745 Q741.333 216.101 741.333 221.888 M737.073 220.638 Q737.027 217.143 735.106 215.059 Q733.208 212.976 730.059 212.976 Q726.495 212.976 724.342 214.99 Q722.212 217.004 721.888 220.661 L737.073 220.638 Z" fill="#000000" fill-rule="nonzero" fill-opacity="1" /><polyline clip-path="url(#clip850)" style="stroke:#e26f46; stroke-linecap:round; stroke-linejoin:round; stroke-width:4; stroke-opacity:1; fill:none" points="341.492,270.476 481.813,270.476 "/>
<path clip-path="url(#clip850)" d="M505.2 253.196 L509.875 253.196 L509.875 283.821 L526.704 283.821 L526.704 287.756 L505.2 287.756 L505.2 253.196 Z" fill="#000000" fill-rule="nonzero" fill-opacity="1" /><path clip-path="url(#clip850)" d="M531.426 261.83 L535.685 261.83 L535.685 287.756 L531.426 287.756 L531.426 261.83 M531.426 251.737 L535.685 251.737 L535.685 257.131 L531.426 257.131 L531.426 251.737 Z" fill="#000000" fill-rule="nonzero" fill-opacity="1" /><path clip-path="url(#clip850)" d="M566.148 272.108 L566.148 287.756 L561.889 287.756 L561.889 272.247 Q561.889 268.566 560.454 266.737 Q559.019 264.909 556.148 264.909 Q552.699 264.909 550.709 267.108 Q548.718 269.307 548.718 273.103 L548.718 287.756 L544.435 287.756 L544.435 261.83 L548.718 261.83 L548.718 265.858 Q550.246 263.52 552.306 262.362 Q554.389 261.205 557.097 261.205 Q561.565 261.205 563.857 263.983 Q566.148 266.737 566.148 272.108 Z" fill="#000000" fill-rule="nonzero" fill-opacity="1" /><path clip-path="url(#clip850)" d="M596.819 273.728 L596.819 275.811 L577.236 275.811 Q577.514 280.209 579.875 282.524 Q582.259 284.816 586.495 284.816 Q588.949 284.816 591.241 284.214 Q593.556 283.612 595.824 282.409 L595.824 286.436 Q593.532 287.408 591.125 287.918 Q588.718 288.427 586.241 288.427 Q580.037 288.427 576.403 284.816 Q572.792 281.205 572.792 275.047 Q572.792 268.682 576.218 264.955 Q579.667 261.205 585.5 261.205 Q590.731 261.205 593.764 264.585 Q596.819 267.941 596.819 273.728 M592.56 272.478 Q592.514 268.983 590.593 266.899 Q588.694 264.816 585.546 264.816 Q581.982 264.816 579.829 266.83 Q577.699 268.844 577.375 272.501 L592.56 272.478 Z" fill="#000000" fill-rule="nonzero" fill-opacity="1" /><path clip-path="url(#clip850)" d="M615.592 274.723 Q610.43 274.723 608.44 275.904 Q606.449 277.084 606.449 279.932 Q606.449 282.2 607.93 283.543 Q609.435 284.862 612.004 284.862 Q615.546 284.862 617.676 282.362 Q619.829 279.839 619.829 275.672 L619.829 274.723 L615.592 274.723 M624.088 272.964 L624.088 287.756 L619.829 287.756 L619.829 283.821 Q618.37 286.182 616.194 287.316 Q614.018 288.427 610.87 288.427 Q606.889 288.427 604.528 286.205 Q602.19 283.959 602.19 280.209 Q602.19 275.834 605.106 273.612 Q608.046 271.39 613.856 271.39 L619.829 271.39 L619.829 270.973 Q619.829 268.034 617.884 266.436 Q615.963 264.816 612.467 264.816 Q610.245 264.816 608.139 265.348 Q606.032 265.881 604.088 266.946 L604.088 263.01 Q606.426 262.108 608.625 261.668 Q610.824 261.205 612.907 261.205 Q618.532 261.205 621.31 264.122 Q624.088 267.038 624.088 272.964 Z" fill="#000000" fill-rule="nonzero" fill-opacity="1" /><path clip-path="url(#clip850)" d="M647.884 265.811 Q647.166 265.395 646.31 265.21 Q645.477 265.001 644.458 265.001 Q640.847 265.001 638.902 267.362 Q636.981 269.7 636.981 274.098 L636.981 287.756 L632.699 287.756 L632.699 261.83 L636.981 261.83 L636.981 265.858 Q638.324 263.497 640.477 262.362 Q642.629 261.205 645.708 261.205 Q646.148 261.205 646.68 261.274 Q647.213 261.321 647.861 261.436 L647.884 265.811 Z" fill="#000000" fill-rule="nonzero" fill-opacity="1" /><path clip-path="url(#clip850)" d="M683.995 271.552 Q685.499 272.061 686.911 273.728 Q688.347 275.395 689.782 278.311 L694.527 287.756 L689.504 287.756 L685.083 278.89 Q683.37 275.418 681.749 274.284 Q680.152 273.149 677.375 273.149 L672.282 273.149 L672.282 287.756 L667.606 287.756 L667.606 253.196 L678.162 253.196 Q684.087 253.196 687.004 255.673 Q689.921 258.149 689.921 263.149 Q689.921 266.413 688.393 268.566 Q686.888 270.719 683.995 271.552 M672.282 257.038 L672.282 269.307 L678.162 269.307 Q681.541 269.307 683.254 267.756 Q684.99 266.182 684.99 263.149 Q684.99 260.117 683.254 258.589 Q681.541 257.038 678.162 257.038 L672.282 257.038 Z" fill="#000000" fill-rule="nonzero" fill-opacity="1" /><path clip-path="url(#clip850)" d="M720.407 273.728 L720.407 275.811 L700.823 275.811 Q701.101 280.209 703.462 282.524 Q705.847 284.816 710.083 284.816 Q712.536 284.816 714.828 284.214 Q717.143 283.612 719.411 282.409 L719.411 286.436 Q717.12 287.408 714.712 287.918 Q712.305 288.427 709.828 288.427 Q703.624 288.427 699.99 284.816 Q696.379 281.205 696.379 275.047 Q696.379 268.682 699.805 264.955 Q703.254 261.205 709.087 261.205 Q714.319 261.205 717.351 264.585 Q720.407 267.941 720.407 273.728 M716.147 272.478 Q716.101 268.983 714.18 266.899 Q712.282 264.816 709.134 264.816 Q705.569 264.816 703.416 266.83 Q701.286 268.844 700.962 272.501 L716.147 272.478 Z" fill="#000000" fill-rule="nonzero" fill-opacity="1" /><path clip-path="url(#clip850)" d="M744.457 274.492 Q744.457 269.862 742.536 267.316 Q740.638 264.77 737.189 264.77 Q733.763 264.77 731.842 267.316 Q729.944 269.862 729.944 274.492 Q729.944 279.098 731.842 281.645 Q733.763 284.191 737.189 284.191 Q740.638 284.191 742.536 281.645 Q744.457 279.098 744.457 274.492 M748.717 284.538 Q748.717 291.158 745.777 294.376 Q742.837 297.617 736.772 297.617 Q734.527 297.617 732.536 297.27 Q730.546 296.945 728.671 296.251 L728.671 292.108 Q730.546 293.126 732.374 293.612 Q734.203 294.098 736.101 294.098 Q740.291 294.098 742.374 291.899 Q744.457 289.723 744.457 285.302 L744.457 283.196 Q743.138 285.487 741.078 286.621 Q739.018 287.756 736.147 287.756 Q731.379 287.756 728.462 284.121 Q725.546 280.487 725.546 274.492 Q725.546 268.473 728.462 264.839 Q731.379 261.205 736.147 261.205 Q739.018 261.205 741.078 262.339 Q743.138 263.473 744.457 265.765 L744.457 261.83 L748.717 261.83 L748.717 284.538 Z" fill="#000000" fill-rule="nonzero" fill-opacity="1" /><path clip-path="url(#clip850)" d="M772.513 265.811 Q771.795 265.395 770.939 265.21 Q770.105 265.001 769.087 265.001 Q765.476 265.001 763.531 267.362 Q761.61 269.7 761.61 274.098 L761.61 287.756 L757.328 287.756 L757.328 261.83 L761.61 261.83 L761.61 265.858 Q762.953 263.497 765.106 262.362 Q767.258 261.205 770.337 261.205 Q770.777 261.205 771.309 261.274 Q771.842 261.321 772.49 261.436 L772.513 265.811 Z" fill="#000000" fill-rule="nonzero" fill-opacity="1" /><path clip-path="url(#clip850)" d="M798.115 273.728 L798.115 275.811 L778.531 275.811 Q778.809 280.209 781.17 282.524 Q783.554 284.816 787.791 284.816 Q790.244 284.816 792.536 284.214 Q794.851 283.612 797.119 282.409 L797.119 286.436 Q794.828 287.408 792.42 287.918 Q790.013 288.427 787.536 288.427 Q781.332 288.427 777.698 284.816 Q774.087 281.205 774.087 275.047 Q774.087 268.682 777.513 264.955 Q780.962 261.205 786.795 261.205 Q792.027 261.205 795.059 264.585 Q798.115 267.941 798.115 273.728 M793.855 272.478 Q793.809 268.983 791.888 266.899 Q789.99 264.816 786.842 264.816 Q783.277 264.816 781.124 266.83 Q778.994 268.844 778.67 272.501 L793.855 272.478 Z" fill="#000000" fill-rule="nonzero" fill-opacity="1" /><path clip-path="url(#clip850)" d="M821.633 262.594 L821.633 266.622 Q819.827 265.696 817.883 265.233 Q815.939 264.77 813.855 264.77 Q810.684 264.77 809.087 265.742 Q807.513 266.714 807.513 268.659 Q807.513 270.14 808.647 270.997 Q809.781 271.83 813.207 272.594 L814.665 272.918 Q819.202 273.89 821.101 275.672 Q823.022 277.432 823.022 280.603 Q823.022 284.214 820.152 286.321 Q817.304 288.427 812.304 288.427 Q810.221 288.427 807.953 288.01 Q805.707 287.617 803.207 286.807 L803.207 282.409 Q805.568 283.635 807.86 284.26 Q810.152 284.862 812.397 284.862 Q815.406 284.862 817.027 283.844 Q818.647 282.802 818.647 280.927 Q818.647 279.191 817.466 278.265 Q816.309 277.339 812.351 276.483 L810.869 276.135 Q806.911 275.302 805.152 273.589 Q803.392 271.853 803.392 268.844 Q803.392 265.186 805.985 263.196 Q808.578 261.205 813.346 261.205 Q815.707 261.205 817.79 261.552 Q819.874 261.899 821.633 262.594 Z" fill="#000000" fill-rule="nonzero" fill-opacity="1" /><path clip-path="url(#clip850)" d="M846.332 262.594 L846.332 266.622 Q844.526 265.696 842.582 265.233 Q840.638 264.77 838.554 264.77 Q835.383 264.77 833.786 265.742 Q832.212 266.714 832.212 268.659 Q832.212 270.14 833.346 270.997 Q834.48 271.83 837.906 272.594 L839.364 272.918 Q843.901 273.89 845.8 275.672 Q847.721 277.432 847.721 280.603 Q847.721 284.214 844.85 286.321 Q842.003 288.427 837.003 288.427 Q834.92 288.427 832.651 288.01 Q830.406 287.617 827.906 286.807 L827.906 282.409 Q830.267 283.635 832.559 284.26 Q834.851 284.862 837.096 284.862 Q840.105 284.862 841.725 283.844 Q843.346 282.802 843.346 280.927 Q843.346 279.191 842.165 278.265 Q841.008 277.339 837.05 276.483 L835.568 276.135 Q831.61 275.302 829.851 273.589 Q828.091 271.853 828.091 268.844 Q828.091 265.186 830.684 263.196 Q833.276 261.205 838.045 261.205 Q840.406 261.205 842.489 261.552 Q844.573 261.899 846.332 262.594 Z" fill="#000000" fill-rule="nonzero" fill-opacity="1" /><path clip-path="url(#clip850)" d="M854.503 261.83 L858.762 261.83 L858.762 287.756 L854.503 287.756 L854.503 261.83 M854.503 251.737 L858.762 251.737 L858.762 257.131 L854.503 257.131 L854.503 251.737 Z" fill="#000000" fill-rule="nonzero" fill-opacity="1" /><path clip-path="url(#clip850)" d="M877.721 264.816 Q874.295 264.816 872.304 267.501 Q870.313 270.163 870.313 274.816 Q870.313 279.469 872.281 282.154 Q874.272 284.816 877.721 284.816 Q881.123 284.816 883.114 282.131 Q885.105 279.446 885.105 274.816 Q885.105 270.21 883.114 267.524 Q881.123 264.816 877.721 264.816 M877.721 261.205 Q883.276 261.205 886.447 264.816 Q889.619 268.427 889.619 274.816 Q889.619 281.182 886.447 284.816 Q883.276 288.427 877.721 288.427 Q872.142 288.427 868.971 284.816 Q865.823 281.182 865.823 274.816 Q865.823 268.427 868.971 264.816 Q872.142 261.205 877.721 261.205 Z" fill="#000000" fill-rule="nonzero" fill-opacity="1" /><path clip-path="url(#clip850)" d="M918.23 272.108 L918.23 287.756 L913.97 287.756 L913.97 272.247 Q913.97 268.566 912.535 266.737 Q911.1 264.909 908.23 264.909 Q904.781 264.909 902.79 267.108 Q900.799 269.307 900.799 273.103 L900.799 287.756 L896.517 287.756 L896.517 261.83 L900.799 261.83 L900.799 265.858 Q902.327 263.52 904.387 262.362 Q906.471 261.205 909.179 261.205 Q913.646 261.205 915.938 263.983 Q918.23 266.737 918.23 272.108 Z" fill="#000000" fill-rule="nonzero" fill-opacity="1" /><polyline clip-path="url(#clip850)" style="stroke:#3da44d; stroke-linecap:round; stroke-linejoin:round; stroke-width:4; stroke-opacity:1; fill:none" points="341.492,322.316 481.813,322.316 "/>
<path clip-path="url(#clip850)" d="M505.2 305.036 L509.875 305.036 L509.875 319.202 L526.866 319.202 L526.866 305.036 L531.542 305.036 L531.542 339.596 L526.866 339.596 L526.866 323.137 L509.875 323.137 L509.875 339.596 L505.2 339.596 L505.2 305.036 Z" fill="#000000" fill-rule="nonzero" fill-opacity="1" /><path clip-path="url(#clip850)" d="M540.847 305.036 L547.815 305.036 L556.634 328.554 L565.5 305.036 L572.468 305.036 L572.468 339.596 L567.908 339.596 L567.908 309.249 L558.996 332.952 L554.296 332.952 L545.384 309.249 L545.384 339.596 L540.847 339.596 L540.847 305.036 Z" fill="#000000" fill-rule="nonzero" fill-opacity="1" /><path clip-path="url(#clip850)" d="M581.75 305.036 L588.718 305.036 L597.537 328.554 L606.403 305.036 L613.37 305.036 L613.37 339.596 L608.81 339.596 L608.81 309.249 L599.898 332.952 L595.199 332.952 L586.287 309.249 L586.287 339.596 L581.75 339.596 L581.75 305.036 Z" fill="#000000" fill-rule="nonzero" fill-opacity="1" /></svg>
