<?xml version="1.0" encoding="utf-8"?>
<svg xmlns="http://www.w3.org/2000/svg" xmlns:xlink="http://www.w3.org/1999/xlink" width="600" height="400" viewBox="0 0 2400 1600">
<defs>
  <clipPath id="clip470">
    <rect x="0" y="0" width="2400" height="1600"/>
  </clipPath>
</defs>
<path clip-path="url(#clip470)" d="M0 1600 L2400 1600 L2400 0 L0 0  Z" fill="#ffffff" fill-rule="evenodd" fill-opacity="1"/>
<defs>
  <clipPath id="clip471">
    <rect x="480" y="0" width="1681" height="1600"/>
  </clipPath>
</defs>
<path clip-path="url(#clip470)" d="M257.955 1423.18 L2352.76 1423.18 L2352.76 123.472 L257.955 123.472  Z" fill="#ffffff" fill-rule="evenodd" fill-opacity="1"/>
<defs>
  <clipPath id="clip472">
    <rect x="257" y="123" width="2096" height="1301"/>
  </clipPath>
</defs>
<polyline clip-path="url(#clip472)" style="stroke:#000000; stroke-linecap:round; stroke-linejoin:round; stroke-width:2; stroke-opacity:0.1; fill:none" points="297.888,1423.18 297.888,123.472 "/>
<polyline clip-path="url(#clip472)" style="stroke:#000000; stroke-linecap:round; stroke-linejoin:round; stroke-width:2; stroke-opacity:0.1; fill:none" points="804.613,1423.18 804.613,123.472 "/>
<polyline clip-path="url(#clip472)" style="stroke:#000000; stroke-linecap:round; stroke-linejoin:round; stroke-width:2; stroke-opacity:0.1; fill:none" points="1316.97,1423.18 1316.97,123.472 "/>
<polyline clip-path="url(#clip472)" style="stroke:#000000; stroke-linecap:round; stroke-linejoin:round; stroke-width:2; stroke-opacity:0.1; fill:none" points="1834.95,1423.18 1834.95,123.472 "/>
<polyline clip-path="url(#clip472)" style="stroke:#000000; stroke-linecap:round; stroke-linejoin:round; stroke-width:2; stroke-opacity:0.05; fill:none" points="399.233,1423.18 399.233,123.472 "/>
<polyline clip-path="url(#clip472)" style="stroke:#000000; stroke-linecap:round; stroke-linejoin:round; stroke-width:2; stroke-opacity:0.05; fill:none" points="500.578,1423.18 500.578,123.472 "/>
<polyline clip-path="url(#clip472)" style="stroke:#000000; stroke-linecap:round; stroke-linejoin:round; stroke-width:2; stroke-opacity:0.05; fill:none" points="601.923,1423.18 601.923,123.472 "/>
<polyline clip-path="url(#clip472)" style="stroke:#000000; stroke-linecap:round; stroke-linejoin:round; stroke-width:2; stroke-opacity:0.05; fill:none" points="703.268,1423.18 703.268,123.472 "/>
<polyline clip-path="url(#clip472)" style="stroke:#000000; stroke-linecap:round; stroke-linejoin:round; stroke-width:2; stroke-opacity:0.05; fill:none" points="907.084,1423.18 907.084,123.472 "/>
<polyline clip-path="url(#clip472)" style="stroke:#000000; stroke-linecap:round; stroke-linejoin:round; stroke-width:2; stroke-opacity:0.05; fill:none" points="1009.55,1423.18 1009.55,123.472 "/>
<polyline clip-path="url(#clip472)" style="stroke:#000000; stroke-linecap:round; stroke-linejoin:round; stroke-width:2; stroke-opacity:0.05; fill:none" points="1112.03,1423.18 1112.03,123.472 "/>
<polyline clip-path="url(#clip472)" style="stroke:#000000; stroke-linecap:round; stroke-linejoin:round; stroke-width:2; stroke-opacity:0.05; fill:none" points="1214.5,1423.18 1214.5,123.472 "/>
<polyline clip-path="url(#clip472)" style="stroke:#000000; stroke-linecap:round; stroke-linejoin:round; stroke-width:2; stroke-opacity:0.05; fill:none" points="1420.56,1423.18 1420.56,123.472 "/>
<polyline clip-path="url(#clip472)" style="stroke:#000000; stroke-linecap:round; stroke-linejoin:round; stroke-width:2; stroke-opacity:0.05; fill:none" points="1524.16,1423.18 1524.16,123.472 "/>
<polyline clip-path="url(#clip472)" style="stroke:#000000; stroke-linecap:round; stroke-linejoin:round; stroke-width:2; stroke-opacity:0.05; fill:none" points="1627.76,1423.18 1627.76,123.472 "/>
<polyline clip-path="url(#clip472)" style="stroke:#000000; stroke-linecap:round; stroke-linejoin:round; stroke-width:2; stroke-opacity:0.05; fill:none" points="1731.36,1423.18 1731.36,123.472 "/>
<polyline clip-path="url(#clip472)" style="stroke:#000000; stroke-linecap:round; stroke-linejoin:round; stroke-width:2; stroke-opacity:0.05; fill:none" points="1939.7,1423.18 1939.7,123.472 "/>
<polyline clip-path="url(#clip472)" style="stroke:#000000; stroke-linecap:round; stroke-linejoin:round; stroke-width:2; stroke-opacity:0.05; fill:none" points="2044.45,1423.18 2044.45,123.472 "/>
<polyline clip-path="url(#clip472)" style="stroke:#000000; stroke-linecap:round; stroke-linejoin:round; stroke-width:2; stroke-opacity:0.05; fill:none" points="2149.2,1423.18 2149.2,123.472 "/>
<polyline clip-path="url(#clip472)" style="stroke:#000000; stroke-linecap:round; stroke-linejoin:round; stroke-width:2; stroke-opacity:0.05; fill:none" points="2253.95,1423.18 2253.95,123.472 "/>
<polyline clip-path="url(#clip470)" style="stroke:#000000; stroke-linecap:round; stroke-linejoin:round; stroke-width:4; stroke-opacity:1; fill:none" points="257.955,1423.18 2352.76,1423.18 "/>
<polyline clip-path="url(#clip470)" style="stroke:#000000; stroke-linecap:round; stroke-linejoin:round; stroke-width:4; stroke-opacity:1; fill:none" points="297.888,1423.18 297.888,1404.28 "/>
<polyline clip-path="url(#clip470)" style="stroke:#000000; stroke-linecap:round; stroke-linejoin:round; stroke-width:4; stroke-opacity:1; fill:none" points="804.613,1423.18 804.613,1404.28 "/>
<polyline clip-path="url(#clip470)" style="stroke:#000000; stroke-linecap:round; stroke-linejoin:round; stroke-width:4; stroke-opacity:1; fill:none" points="1316.97,1423.18 1316.97,1404.28 "/>
<polyline clip-path="url(#clip470)" style="stroke:#000000; stroke-linecap:round; stroke-linejoin:round; stroke-width:4; stroke-opacity:1; fill:none" points="1834.95,1423.18 1834.95,1404.28 "/>
<polyline clip-path="url(#clip470)" style="stroke:#000000; stroke-linecap:round; stroke-linejoin:round; stroke-width:4; stroke-opacity:1; fill:none" points="399.233,1423.18 399.233,1413.73 "/>
<polyline clip-path="url(#clip470)" style="stroke:#000000; stroke-linecap:round; stroke-linejoin:round; stroke-width:4; stroke-opacity:1; fill:none" points="500.578,1423.18 500.578,1413.73 "/>
<polyline clip-path="url(#clip470)" style="stroke:#000000; stroke-linecap:round; stroke-linejoin:round; stroke-width:4; stroke-opacity:1; fill:none" points="601.923,1423.18 601.923,1413.73 "/>
<polyline clip-path="url(#clip470)" style="stroke:#000000; stroke-linecap:round; stroke-linejoin:round; stroke-width:4; stroke-opacity:1; fill:none" points="703.268,1423.18 703.268,1413.73 "/>
<polyline clip-path="url(#clip470)" style="stroke:#000000; stroke-linecap:round; stroke-linejoin:round; stroke-width:4; stroke-opacity:1; fill:none" points="907.084,1423.18 907.084,1413.73 "/>
<polyline clip-path="url(#clip470)" style="stroke:#000000; stroke-linecap:round; stroke-linejoin:round; stroke-width:4; stroke-opacity:1; fill:none" points="1009.55,1423.18 1009.55,1413.73 "/>
<polyline clip-path="url(#clip470)" style="stroke:#000000; stroke-linecap:round; stroke-linejoin:round; stroke-width:4; stroke-opacity:1; fill:none" points="1112.03,1423.18 1112.03,1413.73 "/>
<polyline clip-path="url(#clip470)" style="stroke:#000000; stroke-linecap:round; stroke-linejoin:round; stroke-width:4; stroke-opacity:1; fill:none" points="1214.5,1423.18 1214.5,1413.73 "/>
<polyline clip-path="url(#clip470)" style="stroke:#000000; stroke-linecap:round; stroke-linejoin:round; stroke-width:4; stroke-opacity:1; fill:none" points="1420.56,1423.18 1420.56,1413.73 "/>
<polyline clip-path="url(#clip470)" style="stroke:#000000; stroke-linecap:round; stroke-linejoin:round; stroke-width:4; stroke-opacity:1; fill:none" points="1524.16,1423.18 1524.16,1413.73 "/>
<polyline clip-path="url(#clip470)" style="stroke:#000000; stroke-linecap:round; stroke-linejoin:round; stroke-width:4; stroke-opacity:1; fill:none" points="1627.76,1423.18 1627.76,1413.73 "/>
<polyline clip-path="url(#clip470)" style="stroke:#000000; stroke-linecap:round; stroke-linejoin:round; stroke-width:4; stroke-opacity:1; fill:none" points="1731.36,1423.18 1731.36,1413.73 "/>
<polyline clip-path="url(#clip470)" style="stroke:#000000; stroke-linecap:round; stroke-linejoin:round; stroke-width:4; stroke-opacity:1; fill:none" points="1939.7,1423.18 1939.7,1413.73 "/>
<polyline clip-path="url(#clip470)" style="stroke:#000000; stroke-linecap:round; stroke-linejoin:round; stroke-width:4; stroke-opacity:1; fill:none" points="2044.45,1423.18 2044.45,1413.73 "/>
<polyline clip-path="url(#clip470)" style="stroke:#000000; stroke-linecap:round; stroke-linejoin:round; stroke-width:4; stroke-opacity:1; fill:none" points="2149.2,1423.18 2149.2,1413.73 "/>
<polyline clip-path="url(#clip470)" style="stroke:#000000; stroke-linecap:round; stroke-linejoin:round; stroke-width:4; stroke-opacity:1; fill:none" points="2253.95,1423.18 2253.95,1413.73 "/>
<path clip-path="url(#clip470)" d="M169.682 1481.64 L186.002 1481.64 L186.002 1485.58 L164.057 1485.58 L164.057 1481.64 Q166.719 1478.89 171.303 1474.26 Q175.909 1469.61 177.09 1468.27 Q179.335 1465.74 180.215 1464.01 Q181.117 1462.25 181.117 1460.56 Q181.117 1457.8 179.173 1456.07 Q177.252 1454.33 174.15 1454.33 Q171.951 1454.33 169.497 1455.09 Q167.067 1455.86 164.289 1457.41 L164.289 1452.69 Q167.113 1451.55 169.567 1450.97 Q172.02 1450.39 174.057 1450.39 Q179.428 1450.39 182.622 1453.08 Q185.816 1455.77 185.816 1460.26 Q185.816 1462.39 185.006 1464.31 Q184.219 1466.2 182.113 1468.8 Q181.534 1469.47 178.432 1472.69 Q175.33 1475.88 169.682 1481.64 Z" fill="#000000" fill-rule="nonzero" fill-opacity="1" /><path clip-path="url(#clip470)" d="M205.816 1454.1 Q202.205 1454.1 200.377 1457.66 Q198.571 1461.2 198.571 1468.33 Q198.571 1475.44 200.377 1479.01 Q202.205 1482.55 205.816 1482.55 Q209.451 1482.55 211.256 1479.01 Q213.085 1475.44 213.085 1468.33 Q213.085 1461.2 211.256 1457.66 Q209.451 1454.1 205.816 1454.1 M205.816 1450.39 Q211.627 1450.39 214.682 1455 Q217.761 1459.58 217.761 1468.33 Q217.761 1477.06 214.682 1481.67 Q211.627 1486.25 205.816 1486.25 Q200.006 1486.25 196.928 1481.67 Q193.872 1477.06 193.872 1468.33 Q193.872 1459.58 196.928 1455 Q200.006 1450.39 205.816 1450.39 Z" fill="#000000" fill-rule="nonzero" fill-opacity="1" /><path clip-path="url(#clip470)" d="M230.006 1481.64 L246.325 1481.64 L246.325 1485.58 L224.381 1485.58 L224.381 1481.64 Q227.043 1478.89 231.626 1474.26 Q236.233 1469.61 237.413 1468.27 Q239.659 1465.74 240.538 1464.01 Q241.441 1462.25 241.441 1460.56 Q241.441 1457.8 239.497 1456.07 Q237.575 1454.33 234.474 1454.33 Q232.275 1454.33 229.821 1455.09 Q227.39 1455.86 224.613 1457.41 L224.613 1452.69 Q227.437 1451.55 229.89 1450.97 Q232.344 1450.39 234.381 1450.39 Q239.751 1450.39 242.946 1453.08 Q246.14 1455.77 246.14 1460.26 Q246.14 1462.39 245.33 1464.31 Q244.543 1466.2 242.437 1468.8 Q241.858 1469.47 238.756 1472.69 Q235.654 1475.88 230.006 1481.64 Z" fill="#000000" fill-rule="nonzero" fill-opacity="1" /><path clip-path="url(#clip470)" d="M256.95 1481.64 L264.589 1481.64 L264.589 1455.28 L256.279 1456.95 L256.279 1452.69 L264.543 1451.02 L269.219 1451.02 L269.219 1481.64 L276.858 1481.64 L276.858 1485.58 L256.95 1485.58 L256.95 1481.64 Z" fill="#000000" fill-rule="nonzero" fill-opacity="1" /><path clip-path="url(#clip470)" d="M283.547 1470.7 L296.024 1470.7 L296.024 1474.49 L283.547 1474.49 L283.547 1470.7 Z" fill="#000000" fill-rule="nonzero" fill-opacity="1" /><path clip-path="url(#clip470)" d="M313.408 1454.1 Q309.797 1454.1 307.969 1457.66 Q306.163 1461.2 306.163 1468.33 Q306.163 1475.44 307.969 1479.01 Q309.797 1482.55 313.408 1482.55 Q317.043 1482.55 318.848 1479.01 Q320.677 1475.44 320.677 1468.33 Q320.677 1461.2 318.848 1457.66 Q317.043 1454.1 313.408 1454.1 M313.408 1450.39 Q319.219 1450.39 322.274 1455 Q325.353 1459.58 325.353 1468.33 Q325.353 1477.06 322.274 1481.67 Q319.219 1486.25 313.408 1486.25 Q307.598 1486.25 304.52 1481.67 Q301.464 1477.06 301.464 1468.33 Q301.464 1459.58 304.52 1455 Q307.598 1450.39 313.408 1450.39 Z" fill="#000000" fill-rule="nonzero" fill-opacity="1" /><path clip-path="url(#clip470)" d="M334.38 1481.64 L342.019 1481.64 L342.019 1455.28 L333.709 1456.95 L333.709 1452.69 L341.973 1451.02 L346.649 1451.02 L346.649 1481.64 L354.288 1481.64 L354.288 1485.58 L334.38 1485.58 L334.38 1481.64 Z" fill="#000000" fill-rule="nonzero" fill-opacity="1" /><path clip-path="url(#clip470)" d="M360.978 1470.7 L373.454 1470.7 L373.454 1474.49 L360.978 1474.49 L360.978 1470.7 Z" fill="#000000" fill-rule="nonzero" fill-opacity="1" /><path clip-path="url(#clip470)" d="M390.839 1454.1 Q387.227 1454.1 385.399 1457.66 Q383.593 1461.2 383.593 1468.33 Q383.593 1475.44 385.399 1479.01 Q387.227 1482.55 390.839 1482.55 Q394.473 1482.55 396.278 1479.01 Q398.107 1475.44 398.107 1468.33 Q398.107 1461.2 396.278 1457.66 Q394.473 1454.1 390.839 1454.1 M390.839 1450.39 Q396.649 1450.39 399.704 1455 Q402.783 1459.58 402.783 1468.33 Q402.783 1477.06 399.704 1481.67 Q396.649 1486.25 390.839 1486.25 Q385.028 1486.25 381.95 1481.67 Q378.894 1477.06 378.894 1468.33 Q378.894 1459.58 381.95 1455 Q385.028 1450.39 390.839 1450.39 Z" fill="#000000" fill-rule="nonzero" fill-opacity="1" /><path clip-path="url(#clip470)" d="M411.811 1481.64 L419.449 1481.64 L419.449 1455.28 L411.139 1456.95 L411.139 1452.69 L419.403 1451.02 L424.079 1451.02 L424.079 1481.64 L431.718 1481.64 L431.718 1485.58 L411.811 1485.58 L411.811 1481.64 Z" fill="#000000" fill-rule="nonzero" fill-opacity="1" /><path clip-path="url(#clip470)" d="M676.407 1481.64 L692.727 1481.64 L692.727 1485.58 L670.782 1485.58 L670.782 1481.64 Q673.444 1478.89 678.028 1474.26 Q682.634 1469.61 683.815 1468.27 Q686.06 1465.74 686.94 1464.01 Q687.842 1462.25 687.842 1460.56 Q687.842 1457.8 685.898 1456.07 Q683.977 1454.33 680.875 1454.33 Q678.676 1454.33 676.222 1455.09 Q673.792 1455.86 671.014 1457.41 L671.014 1452.69 Q673.838 1451.55 676.292 1450.97 Q678.745 1450.39 680.782 1450.39 Q686.153 1450.39 689.347 1453.08 Q692.541 1455.77 692.541 1460.26 Q692.541 1462.39 691.731 1464.31 Q690.944 1466.2 688.838 1468.8 Q688.259 1469.47 685.157 1472.69 Q682.055 1475.88 676.407 1481.64 Z" fill="#000000" fill-rule="nonzero" fill-opacity="1" /><path clip-path="url(#clip470)" d="M712.541 1454.1 Q708.93 1454.1 707.102 1457.66 Q705.296 1461.2 705.296 1468.33 Q705.296 1475.44 707.102 1479.01 Q708.93 1482.55 712.541 1482.55 Q716.176 1482.55 717.981 1479.01 Q719.81 1475.44 719.81 1468.33 Q719.81 1461.2 717.981 1457.66 Q716.176 1454.1 712.541 1454.1 M712.541 1450.39 Q718.351 1450.39 721.407 1455 Q724.486 1459.58 724.486 1468.33 Q724.486 1477.06 721.407 1481.67 Q718.351 1486.25 712.541 1486.25 Q706.731 1486.25 703.652 1481.67 Q700.597 1477.06 700.597 1468.33 Q700.597 1459.58 703.652 1455 Q706.731 1450.39 712.541 1450.39 Z" fill="#000000" fill-rule="nonzero" fill-opacity="1" /><path clip-path="url(#clip470)" d="M736.731 1481.64 L753.05 1481.64 L753.05 1485.58 L731.106 1485.58 L731.106 1481.64 Q733.768 1478.89 738.351 1474.26 Q742.958 1469.61 744.138 1468.27 Q746.384 1465.74 747.263 1464.01 Q748.166 1462.25 748.166 1460.56 Q748.166 1457.8 746.222 1456.07 Q744.3 1454.33 741.199 1454.33 Q739 1454.33 736.546 1455.09 Q734.115 1455.86 731.338 1457.41 L731.338 1452.69 Q734.162 1451.55 736.615 1450.97 Q739.069 1450.39 741.106 1450.39 Q746.476 1450.39 749.671 1453.08 Q752.865 1455.77 752.865 1460.26 Q752.865 1462.39 752.055 1464.31 Q751.268 1466.2 749.162 1468.8 Q748.583 1469.47 745.481 1472.69 Q742.379 1475.88 736.731 1481.64 Z" fill="#000000" fill-rule="nonzero" fill-opacity="1" /><path clip-path="url(#clip470)" d="M763.675 1481.64 L771.314 1481.64 L771.314 1455.28 L763.004 1456.95 L763.004 1452.69 L771.268 1451.02 L775.944 1451.02 L775.944 1481.64 L783.583 1481.64 L783.583 1485.58 L763.675 1485.58 L763.675 1481.64 Z" fill="#000000" fill-rule="nonzero" fill-opacity="1" /><path clip-path="url(#clip470)" d="M790.272 1470.7 L802.749 1470.7 L802.749 1474.49 L790.272 1474.49 L790.272 1470.7 Z" fill="#000000" fill-rule="nonzero" fill-opacity="1" /><path clip-path="url(#clip470)" d="M820.133 1454.1 Q816.522 1454.1 814.694 1457.66 Q812.888 1461.2 812.888 1468.33 Q812.888 1475.44 814.694 1479.01 Q816.522 1482.55 820.133 1482.55 Q823.768 1482.55 825.573 1479.01 Q827.402 1475.44 827.402 1468.33 Q827.402 1461.2 825.573 1457.66 Q823.768 1454.1 820.133 1454.1 M820.133 1450.39 Q825.944 1450.39 828.999 1455 Q832.078 1459.58 832.078 1468.33 Q832.078 1477.06 828.999 1481.67 Q825.944 1486.25 820.133 1486.25 Q814.323 1486.25 811.245 1481.67 Q808.189 1477.06 808.189 1468.33 Q808.189 1459.58 811.245 1455 Q814.323 1450.39 820.133 1450.39 Z" fill="#000000" fill-rule="nonzero" fill-opacity="1" /><path clip-path="url(#clip470)" d="M853.142 1455.09 L841.337 1473.54 L853.142 1473.54 L853.142 1455.09 M851.916 1451.02 L857.795 1451.02 L857.795 1473.54 L862.726 1473.54 L862.726 1477.43 L857.795 1477.43 L857.795 1485.58 L853.142 1485.58 L853.142 1477.43 L837.541 1477.43 L837.541 1472.92 L851.916 1451.02 Z" fill="#000000" fill-rule="nonzero" fill-opacity="1" /><path clip-path="url(#clip470)" d="M867.703 1470.7 L880.179 1470.7 L880.179 1474.49 L867.703 1474.49 L867.703 1470.7 Z" fill="#000000" fill-rule="nonzero" fill-opacity="1" /><path clip-path="url(#clip470)" d="M897.563 1454.1 Q893.952 1454.1 892.124 1457.66 Q890.318 1461.2 890.318 1468.33 Q890.318 1475.44 892.124 1479.01 Q893.952 1482.55 897.563 1482.55 Q901.198 1482.55 903.003 1479.01 Q904.832 1475.44 904.832 1468.33 Q904.832 1461.2 903.003 1457.66 Q901.198 1454.1 897.563 1454.1 M897.563 1450.39 Q903.374 1450.39 906.429 1455 Q909.508 1459.58 909.508 1468.33 Q909.508 1477.06 906.429 1481.67 Q903.374 1486.25 897.563 1486.25 Q891.753 1486.25 888.675 1481.67 Q885.619 1477.06 885.619 1468.33 Q885.619 1459.58 888.675 1455 Q891.753 1450.39 897.563 1450.39 Z" fill="#000000" fill-rule="nonzero" fill-opacity="1" /><path clip-path="url(#clip470)" d="M918.536 1481.64 L926.174 1481.64 L926.174 1455.28 L917.864 1456.95 L917.864 1452.69 L926.128 1451.02 L930.804 1451.02 L930.804 1481.64 L938.443 1481.64 L938.443 1485.58 L918.536 1485.58 L918.536 1481.64 Z" fill="#000000" fill-rule="nonzero" fill-opacity="1" /><path clip-path="url(#clip470)" d="M1188.76 1481.64 L1205.08 1481.64 L1205.08 1485.58 L1183.14 1485.58 L1183.14 1481.64 Q1185.8 1478.89 1190.38 1474.26 Q1194.99 1469.61 1196.17 1468.27 Q1198.42 1465.74 1199.29 1464.01 Q1200.2 1462.25 1200.2 1460.56 Q1200.2 1457.8 1198.25 1456.07 Q1196.33 1454.33 1193.23 1454.33 Q1191.03 1454.33 1188.58 1455.09 Q1186.15 1455.86 1183.37 1457.41 L1183.37 1452.69 Q1186.19 1451.55 1188.65 1450.97 Q1191.1 1450.39 1193.14 1450.39 Q1198.51 1450.39 1201.7 1453.08 Q1204.9 1455.77 1204.9 1460.26 Q1204.9 1462.39 1204.09 1464.31 Q1203.3 1466.2 1201.19 1468.8 Q1200.61 1469.47 1197.51 1472.69 Q1194.41 1475.88 1188.76 1481.64 Z" fill="#000000" fill-rule="nonzero" fill-opacity="1" /><path clip-path="url(#clip470)" d="M1224.9 1454.1 Q1221.29 1454.1 1219.46 1457.66 Q1217.65 1461.2 1217.65 1468.33 Q1217.65 1475.44 1219.46 1479.01 Q1221.29 1482.55 1224.9 1482.55 Q1228.53 1482.55 1230.34 1479.01 Q1232.17 1475.44 1232.17 1468.33 Q1232.17 1461.2 1230.34 1457.66 Q1228.53 1454.1 1224.9 1454.1 M1224.9 1450.39 Q1230.71 1450.39 1233.76 1455 Q1236.84 1459.58 1236.84 1468.33 Q1236.84 1477.06 1233.76 1481.67 Q1230.71 1486.25 1224.9 1486.25 Q1219.09 1486.25 1216.01 1481.67 Q1212.95 1477.06 1212.95 1468.33 Q1212.95 1459.58 1216.01 1455 Q1219.09 1450.39 1224.9 1450.39 Z" fill="#000000" fill-rule="nonzero" fill-opacity="1" /><path clip-path="url(#clip470)" d="M1249.09 1481.64 L1265.41 1481.64 L1265.41 1485.58 L1243.46 1485.58 L1243.46 1481.64 Q1246.12 1478.89 1250.71 1474.26 Q1255.31 1469.61 1256.49 1468.27 Q1258.74 1465.74 1259.62 1464.01 Q1260.52 1462.25 1260.52 1460.56 Q1260.52 1457.8 1258.58 1456.07 Q1256.66 1454.33 1253.55 1454.33 Q1251.35 1454.33 1248.9 1455.09 Q1246.47 1455.86 1243.69 1457.41 L1243.69 1452.69 Q1246.52 1451.55 1248.97 1450.97 Q1251.42 1450.39 1253.46 1450.39 Q1258.83 1450.39 1262.03 1453.08 Q1265.22 1455.77 1265.22 1460.26 Q1265.22 1462.39 1264.41 1464.31 Q1263.62 1466.2 1261.52 1468.8 Q1260.94 1469.47 1257.84 1472.69 Q1254.73 1475.88 1249.09 1481.64 Z" fill="#000000" fill-rule="nonzero" fill-opacity="1" /><path clip-path="url(#clip470)" d="M1276.03 1481.64 L1283.67 1481.64 L1283.67 1455.28 L1275.36 1456.95 L1275.36 1452.69 L1283.62 1451.02 L1288.3 1451.02 L1288.3 1481.64 L1295.94 1481.64 L1295.94 1485.58 L1276.03 1485.58 L1276.03 1481.64 Z" fill="#000000" fill-rule="nonzero" fill-opacity="1" /><path clip-path="url(#clip470)" d="M1302.63 1470.7 L1315.1 1470.7 L1315.1 1474.49 L1302.63 1474.49 L1302.63 1470.7 Z" fill="#000000" fill-rule="nonzero" fill-opacity="1" /><path clip-path="url(#clip470)" d="M1332.49 1454.1 Q1328.88 1454.1 1327.05 1457.66 Q1325.24 1461.2 1325.24 1468.33 Q1325.24 1475.44 1327.05 1479.01 Q1328.88 1482.55 1332.49 1482.55 Q1336.12 1482.55 1337.93 1479.01 Q1339.76 1475.44 1339.76 1468.33 Q1339.76 1461.2 1337.93 1457.66 Q1336.12 1454.1 1332.49 1454.1 M1332.49 1450.39 Q1338.3 1450.39 1341.35 1455 Q1344.43 1459.58 1344.43 1468.33 Q1344.43 1477.06 1341.35 1481.67 Q1338.3 1486.25 1332.49 1486.25 Q1326.68 1486.25 1323.6 1481.67 Q1320.54 1477.06 1320.54 1468.33 Q1320.54 1459.58 1323.6 1455 Q1326.68 1450.39 1332.49 1450.39 Z" fill="#000000" fill-rule="nonzero" fill-opacity="1" /><path clip-path="url(#clip470)" d="M1351.47 1451.02 L1373.69 1451.02 L1373.69 1453.01 L1361.15 1485.58 L1356.26 1485.58 L1368.07 1454.96 L1351.47 1454.96 L1351.47 1451.02 Z" fill="#000000" fill-rule="nonzero" fill-opacity="1" /><path clip-path="url(#clip470)" d="M1380.06 1470.7 L1392.53 1470.7 L1392.53 1474.49 L1380.06 1474.49 L1380.06 1470.7 Z" fill="#000000" fill-rule="nonzero" fill-opacity="1" /><path clip-path="url(#clip470)" d="M1409.92 1454.1 Q1406.31 1454.1 1404.48 1457.66 Q1402.67 1461.2 1402.67 1468.33 Q1402.67 1475.44 1404.48 1479.01 Q1406.31 1482.55 1409.92 1482.55 Q1413.55 1482.55 1415.36 1479.01 Q1417.19 1475.44 1417.19 1468.33 Q1417.19 1461.2 1415.36 1457.66 Q1413.55 1454.1 1409.92 1454.1 M1409.92 1450.39 Q1415.73 1450.39 1418.78 1455 Q1421.86 1459.58 1421.86 1468.33 Q1421.86 1477.06 1418.78 1481.67 Q1415.73 1486.25 1409.92 1486.25 Q1404.11 1486.25 1401.03 1481.67 Q1397.97 1477.06 1397.97 1468.33 Q1397.97 1459.58 1401.03 1455 Q1404.11 1450.39 1409.92 1450.39 Z" fill="#000000" fill-rule="nonzero" fill-opacity="1" /><path clip-path="url(#clip470)" d="M1430.89 1481.64 L1438.53 1481.64 L1438.53 1455.28 L1430.22 1456.95 L1430.22 1452.69 L1438.48 1451.02 L1443.16 1451.02 L1443.16 1481.64 L1450.8 1481.64 L1450.8 1485.58 L1430.89 1485.58 L1430.89 1481.64 Z" fill="#000000" fill-rule="nonzero" fill-opacity="1" /><path clip-path="url(#clip470)" d="M1706.75 1481.64 L1723.07 1481.64 L1723.07 1485.58 L1701.12 1485.58 L1701.12 1481.64 Q1703.79 1478.89 1708.37 1474.26 Q1712.97 1469.61 1714.16 1468.27 Q1716.4 1465.74 1717.28 1464.01 Q1718.18 1462.25 1718.18 1460.56 Q1718.18 1457.8 1716.24 1456.07 Q1714.32 1454.33 1711.22 1454.33 Q1709.02 1454.33 1706.56 1455.09 Q1704.13 1455.86 1701.35 1457.41 L1701.35 1452.69 Q1704.18 1451.55 1706.63 1450.97 Q1709.09 1450.39 1711.12 1450.39 Q1716.49 1450.39 1719.69 1453.08 Q1722.88 1455.77 1722.88 1460.26 Q1722.88 1462.39 1722.07 1464.31 Q1721.28 1466.2 1719.18 1468.8 Q1718.6 1469.47 1715.5 1472.69 Q1712.4 1475.88 1706.75 1481.64 Z" fill="#000000" fill-rule="nonzero" fill-opacity="1" /><path clip-path="url(#clip470)" d="M1742.88 1454.1 Q1739.27 1454.1 1737.44 1457.66 Q1735.64 1461.2 1735.64 1468.33 Q1735.64 1475.44 1737.44 1479.01 Q1739.27 1482.55 1742.88 1482.55 Q1746.52 1482.55 1748.32 1479.01 Q1750.15 1475.44 1750.15 1468.33 Q1750.15 1461.2 1748.32 1457.66 Q1746.52 1454.1 1742.88 1454.1 M1742.88 1450.39 Q1748.69 1450.39 1751.75 1455 Q1754.83 1459.58 1754.83 1468.33 Q1754.83 1477.06 1751.75 1481.67 Q1748.69 1486.25 1742.88 1486.25 Q1737.07 1486.25 1733.99 1481.67 Q1730.94 1477.06 1730.94 1468.33 Q1730.94 1459.58 1733.99 1455 Q1737.07 1450.39 1742.88 1450.39 Z" fill="#000000" fill-rule="nonzero" fill-opacity="1" /><path clip-path="url(#clip470)" d="M1767.07 1481.64 L1783.39 1481.64 L1783.39 1485.58 L1761.45 1485.58 L1761.45 1481.64 Q1764.11 1478.89 1768.69 1474.26 Q1773.3 1469.61 1774.48 1468.27 Q1776.72 1465.74 1777.6 1464.01 Q1778.51 1462.25 1778.51 1460.56 Q1778.51 1457.8 1776.56 1456.07 Q1774.64 1454.33 1771.54 1454.33 Q1769.34 1454.33 1766.89 1455.09 Q1764.46 1455.86 1761.68 1457.41 L1761.68 1452.69 Q1764.5 1451.55 1766.96 1450.97 Q1769.41 1450.39 1771.45 1450.39 Q1776.82 1450.39 1780.01 1453.08 Q1783.21 1455.77 1783.21 1460.26 Q1783.21 1462.39 1782.4 1464.31 Q1781.61 1466.2 1779.5 1468.8 Q1778.92 1469.47 1775.82 1472.69 Q1772.72 1475.88 1767.07 1481.64 Z" fill="#000000" fill-rule="nonzero" fill-opacity="1" /><path clip-path="url(#clip470)" d="M1794.02 1481.64 L1801.65 1481.64 L1801.65 1455.28 L1793.34 1456.95 L1793.34 1452.69 L1801.61 1451.02 L1806.28 1451.02 L1806.28 1481.64 L1813.92 1481.64 L1813.92 1485.58 L1794.02 1485.58 L1794.02 1481.64 Z" fill="#000000" fill-rule="nonzero" fill-opacity="1" /><path clip-path="url(#clip470)" d="M1820.61 1470.7 L1833.09 1470.7 L1833.09 1474.49 L1820.61 1474.49 L1820.61 1470.7 Z" fill="#000000" fill-rule="nonzero" fill-opacity="1" /><path clip-path="url(#clip470)" d="M1841.28 1481.64 L1848.92 1481.64 L1848.92 1455.28 L1840.61 1456.95 L1840.61 1452.69 L1848.88 1451.02 L1853.55 1451.02 L1853.55 1481.64 L1861.19 1481.64 L1861.19 1485.58 L1841.28 1485.58 L1841.28 1481.64 Z" fill="#000000" fill-rule="nonzero" fill-opacity="1" /><path clip-path="url(#clip470)" d="M1880.64 1454.1 Q1877.02 1454.1 1875.2 1457.66 Q1873.39 1461.2 1873.39 1468.33 Q1873.39 1475.44 1875.2 1479.01 Q1877.02 1482.55 1880.64 1482.55 Q1884.27 1482.55 1886.08 1479.01 Q1887.9 1475.44 1887.9 1468.33 Q1887.9 1461.2 1886.08 1457.66 Q1884.27 1454.1 1880.64 1454.1 M1880.64 1450.39 Q1886.45 1450.39 1889.5 1455 Q1892.58 1459.58 1892.58 1468.33 Q1892.58 1477.06 1889.5 1481.67 Q1886.45 1486.25 1880.64 1486.25 Q1874.83 1486.25 1871.75 1481.67 Q1868.69 1477.06 1868.69 1468.33 Q1868.69 1459.58 1871.75 1455 Q1874.83 1450.39 1880.64 1450.39 Z" fill="#000000" fill-rule="nonzero" fill-opacity="1" /><path clip-path="url(#clip470)" d="M1898.04 1470.7 L1910.52 1470.7 L1910.52 1474.49 L1898.04 1474.49 L1898.04 1470.7 Z" fill="#000000" fill-rule="nonzero" fill-opacity="1" /><path clip-path="url(#clip470)" d="M1927.9 1454.1 Q1924.29 1454.1 1922.46 1457.66 Q1920.66 1461.2 1920.66 1468.33 Q1920.66 1475.44 1922.46 1479.01 Q1924.29 1482.55 1927.9 1482.55 Q1931.54 1482.55 1933.34 1479.01 Q1935.17 1475.44 1935.17 1468.33 Q1935.17 1461.2 1933.34 1457.66 Q1931.54 1454.1 1927.9 1454.1 M1927.9 1450.39 Q1933.71 1450.39 1936.77 1455 Q1939.85 1459.58 1939.85 1468.33 Q1939.85 1477.06 1936.77 1481.67 Q1933.71 1486.25 1927.9 1486.25 Q1922.09 1486.25 1919.02 1481.67 Q1915.96 1477.06 1915.96 1468.33 Q1915.96 1459.58 1919.02 1455 Q1922.09 1450.39 1927.9 1450.39 Z" fill="#000000" fill-rule="nonzero" fill-opacity="1" /><path clip-path="url(#clip470)" d="M1948.88 1481.64 L1956.52 1481.64 L1956.52 1455.28 L1948.21 1456.95 L1948.21 1452.69 L1956.47 1451.02 L1961.14 1451.02 L1961.14 1481.64 L1968.78 1481.64 L1968.78 1485.58 L1948.88 1485.58 L1948.88 1481.64 Z" fill="#000000" fill-rule="nonzero" fill-opacity="1" /><path clip-path="url(#clip470)" d="M1261.4 1537.81 L1261.4 1518.52 L1267.26 1518.52 L1267.26 1568.04 L1261.4 1568.04 L1261.4 1562.7 Q1259.55 1565.88 1256.72 1567.44 Q1253.92 1568.97 1249.97 1568.97 Q1243.51 1568.97 1239.44 1563.81 Q1235.4 1558.65 1235.4 1550.25 Q1235.4 1541.85 1239.44 1536.69 Q1243.51 1531.54 1249.97 1531.54 Q1253.92 1531.54 1256.72 1533.1 Q1259.55 1534.62 1261.4 1537.81 M1241.44 1550.25 Q1241.44 1556.71 1244.09 1560.4 Q1246.76 1564.07 1251.41 1564.07 Q1256.05 1564.07 1258.73 1560.4 Q1261.4 1556.71 1261.4 1550.25 Q1261.4 1543.79 1258.73 1540.13 Q1256.05 1536.44 1251.41 1536.44 Q1246.76 1536.44 1244.09 1540.13 Q1241.44 1543.79 1241.44 1550.25 Z" fill="#000000" fill-rule="nonzero" fill-opacity="1" /><path clip-path="url(#clip470)" d="M1295.52 1550.12 Q1288.42 1550.12 1285.69 1551.75 Q1282.95 1553.37 1282.95 1557.29 Q1282.95 1560.4 1284.99 1562.25 Q1287.05 1564.07 1290.59 1564.07 Q1295.46 1564.07 1298.38 1560.63 Q1301.35 1557.16 1301.35 1551.43 L1301.35 1550.12 L1295.52 1550.12 M1307.2 1547.71 L1307.2 1568.04 L1301.35 1568.04 L1301.35 1562.63 Q1299.34 1565.88 1296.35 1567.44 Q1293.36 1568.97 1289.03 1568.97 Q1283.55 1568.97 1280.31 1565.91 Q1277.09 1562.82 1277.09 1557.67 Q1277.09 1551.65 1281.1 1548.6 Q1285.14 1545.54 1293.13 1545.54 L1301.35 1545.54 L1301.35 1544.97 Q1301.35 1540.93 1298.67 1538.73 Q1296.03 1536.5 1291.22 1536.5 Q1288.17 1536.5 1285.27 1537.23 Q1282.38 1537.97 1279.7 1539.43 L1279.7 1534.02 Q1282.92 1532.78 1285.94 1532.17 Q1288.96 1531.54 1291.83 1531.54 Q1299.56 1531.54 1303.38 1535.55 Q1307.2 1539.56 1307.2 1547.71 Z" fill="#000000" fill-rule="nonzero" fill-opacity="1" /><path clip-path="url(#clip470)" d="M1325.06 1522.27 L1325.06 1532.4 L1337.12 1532.4 L1337.12 1536.95 L1325.06 1536.95 L1325.06 1556.3 Q1325.06 1560.66 1326.23 1561.9 Q1327.44 1563.14 1331.1 1563.14 L1337.12 1563.14 L1337.12 1568.04 L1331.1 1568.04 Q1324.33 1568.04 1321.75 1565.53 Q1319.17 1562.98 1319.17 1556.3 L1319.17 1536.95 L1314.87 1536.95 L1314.87 1532.4 L1319.17 1532.4 L1319.17 1522.27 L1325.06 1522.27 Z" fill="#000000" fill-rule="nonzero" fill-opacity="1" /><path clip-path="url(#clip470)" d="M1375.31 1548.76 L1375.31 1551.62 L1348.39 1551.62 Q1348.77 1557.67 1352.02 1560.85 Q1355.29 1564 1361.12 1564 Q1364.49 1564 1367.64 1563.17 Q1370.83 1562.35 1373.95 1560.69 L1373.95 1566.23 Q1370.79 1567.57 1367.48 1568.27 Q1364.17 1568.97 1360.77 1568.97 Q1352.24 1568.97 1347.24 1564 Q1342.28 1559.04 1342.28 1550.57 Q1342.28 1541.82 1346.99 1536.69 Q1351.73 1531.54 1359.75 1531.54 Q1366.94 1531.54 1371.11 1536.18 Q1375.31 1540.8 1375.31 1548.76 M1369.46 1547.04 Q1369.39 1542.23 1366.75 1539.37 Q1364.14 1536.5 1359.81 1536.5 Q1354.91 1536.5 1351.95 1539.27 Q1349.02 1542.04 1348.58 1547.07 L1369.46 1547.04 Z" fill="#000000" fill-rule="nonzero" fill-opacity="1" /><polyline clip-path="url(#clip472)" style="stroke:#000000; stroke-linecap:round; stroke-linejoin:round; stroke-width:2; stroke-opacity:0.1; fill:none" points="257.955,1376.42 2352.76,1376.42 "/>
<polyline clip-path="url(#clip472)" style="stroke:#000000; stroke-linecap:round; stroke-linejoin:round; stroke-width:2; stroke-opacity:0.1; fill:none" points="257.955,704.687 2352.76,704.687 "/>
<polyline clip-path="url(#clip470)" style="stroke:#000000; stroke-linecap:round; stroke-linejoin:round; stroke-width:4; stroke-opacity:1; fill:none" points="257.955,1423.18 257.955,123.472 "/>
<polyline clip-path="url(#clip470)" style="stroke:#000000; stroke-linecap:round; stroke-linejoin:round; stroke-width:4; stroke-opacity:1; fill:none" points="257.955,1376.42 276.853,1376.42 "/>
<polyline clip-path="url(#clip470)" style="stroke:#000000; stroke-linecap:round; stroke-linejoin:round; stroke-width:4; stroke-opacity:1; fill:none" points="257.955,704.687 276.853,704.687 "/>
<path clip-path="url(#clip470)" d="M114.931 1396.21 L122.57 1396.21 L122.57 1369.84 L114.26 1371.51 L114.26 1367.25 L122.524 1365.58 L127.2 1365.58 L127.2 1396.21 L134.839 1396.21 L134.839 1400.14 L114.931 1400.14 L114.931 1396.21 Z" fill="#000000" fill-rule="nonzero" fill-opacity="1" /><path clip-path="url(#clip470)" d="M154.283 1368.66 Q150.672 1368.66 148.843 1372.23 Q147.038 1375.77 147.038 1382.9 Q147.038 1390 148.843 1393.57 Q150.672 1397.11 154.283 1397.11 Q157.917 1397.11 159.723 1393.57 Q161.552 1390 161.552 1382.9 Q161.552 1375.77 159.723 1372.23 Q157.917 1368.66 154.283 1368.66 M154.283 1364.96 Q160.093 1364.96 163.149 1369.56 Q166.227 1374.15 166.227 1382.9 Q166.227 1391.62 163.149 1396.23 Q160.093 1400.81 154.283 1400.81 Q148.473 1400.81 145.394 1396.23 Q142.339 1391.62 142.339 1382.9 Q142.339 1374.15 145.394 1369.56 Q148.473 1364.96 154.283 1364.96 Z" fill="#000000" fill-rule="nonzero" fill-opacity="1" /><path clip-path="url(#clip470)" d="M167.412 1344.65 L182.327 1344.65 L182.327 1347.85 L170.892 1347.85 L170.892 1354.73 Q171.719 1354.45 172.547 1354.32 Q173.374 1354.17 174.202 1354.17 Q178.904 1354.17 181.65 1356.75 Q184.396 1359.32 184.396 1363.72 Q184.396 1368.26 181.575 1370.78 Q178.753 1373.28 173.619 1373.28 Q171.851 1373.28 170.008 1372.98 Q168.183 1372.68 166.227 1372.07 L166.227 1368.26 Q167.92 1369.18 169.726 1369.63 Q171.531 1370.08 173.544 1370.08 Q176.797 1370.08 178.697 1368.37 Q180.597 1366.66 180.597 1363.72 Q180.597 1360.79 178.697 1359.08 Q176.797 1357.37 173.544 1357.37 Q172.02 1357.37 170.497 1357.71 Q168.992 1358.04 167.412 1358.76 L167.412 1344.65 Z" fill="#000000" fill-rule="nonzero" fill-opacity="1" /><path clip-path="url(#clip470)" d="M191.881 1367.96 L195.85 1367.96 L195.85 1372.73 L191.881 1372.73 L191.881 1367.96 Z" fill="#000000" fill-rule="nonzero" fill-opacity="1" /><path clip-path="url(#clip470)" d="M212.25 1347.15 Q209.316 1347.15 207.83 1350.05 Q206.363 1352.93 206.363 1358.72 Q206.363 1364.5 207.83 1367.39 Q209.316 1370.27 212.25 1370.27 Q215.203 1370.27 216.67 1367.39 Q218.156 1364.5 218.156 1358.72 Q218.156 1352.93 216.67 1350.05 Q215.203 1347.15 212.25 1347.15 M212.25 1344.15 Q216.971 1344.15 219.453 1347.89 Q221.955 1351.61 221.955 1358.72 Q221.955 1365.81 219.453 1369.55 Q216.971 1373.28 212.25 1373.28 Q207.529 1373.28 205.028 1369.55 Q202.545 1365.81 202.545 1358.72 Q202.545 1351.61 205.028 1347.89 Q207.529 1344.15 212.25 1344.15 Z" fill="#000000" fill-rule="nonzero" fill-opacity="1" /><path clip-path="url(#clip470)" d="M115.74 724.479 L123.379 724.479 L123.379 698.114 L115.069 699.781 L115.069 695.521 L123.333 693.855 L128.009 693.855 L128.009 724.479 L135.647 724.479 L135.647 728.415 L115.74 728.415 L115.74 724.479 Z" fill="#000000" fill-rule="nonzero" fill-opacity="1" /><path clip-path="url(#clip470)" d="M155.092 696.933 Q151.481 696.933 149.652 700.498 Q147.846 704.04 147.846 711.169 Q147.846 718.276 149.652 721.841 Q151.481 725.382 155.092 725.382 Q158.726 725.382 160.532 721.841 Q162.36 718.276 162.36 711.169 Q162.36 704.04 160.532 700.498 Q158.726 696.933 155.092 696.933 M155.092 693.23 Q160.902 693.23 163.958 697.836 Q167.036 702.419 167.036 711.169 Q167.036 719.896 163.958 724.503 Q160.902 729.086 155.092 729.086 Q149.282 729.086 146.203 724.503 Q143.147 719.896 143.147 711.169 Q143.147 702.419 146.203 697.836 Q149.282 693.23 155.092 693.23 Z" fill="#000000" fill-rule="nonzero" fill-opacity="1" /><path clip-path="url(#clip470)" d="M168.221 672.924 L183.136 672.924 L183.136 676.122 L171.701 676.122 L171.701 683.005 Q172.528 682.723 173.356 682.591 Q174.183 682.441 175.011 682.441 Q179.713 682.441 182.459 685.018 Q185.205 687.594 185.205 691.995 Q185.205 696.528 182.383 699.048 Q179.562 701.55 174.428 701.55 Q172.66 701.55 170.817 701.249 Q168.992 700.948 167.036 700.346 L167.036 696.528 Q168.729 697.45 170.534 697.901 Q172.34 698.352 174.352 698.352 Q177.606 698.352 179.506 696.641 Q181.405 694.929 181.405 691.995 Q181.405 689.061 179.506 687.35 Q177.606 685.638 174.352 685.638 Q172.829 685.638 171.306 685.977 Q169.801 686.315 168.221 687.03 L168.221 672.924 Z" fill="#000000" fill-rule="nonzero" fill-opacity="1" /><path clip-path="url(#clip470)" d="M192.69 696.227 L196.658 696.227 L196.658 701.004 L192.69 701.004 L192.69 696.227 Z" fill="#000000" fill-rule="nonzero" fill-opacity="1" /><path clip-path="url(#clip470)" d="M204.971 672.924 L219.886 672.924 L219.886 676.122 L208.451 676.122 L208.451 683.005 Q209.278 682.723 210.106 682.591 Q210.934 682.441 211.761 682.441 Q216.463 682.441 219.209 685.018 Q221.955 687.594 221.955 691.995 Q221.955 696.528 219.134 699.048 Q216.313 701.55 211.178 701.55 Q209.41 701.55 207.567 701.249 Q205.743 700.948 203.787 700.346 L203.787 696.528 Q205.479 697.45 207.285 697.901 Q209.09 698.352 211.103 698.352 Q214.357 698.352 216.256 696.641 Q218.156 694.929 218.156 691.995 Q218.156 689.061 216.256 687.35 Q214.357 685.638 211.103 685.638 Q209.579 685.638 208.056 685.977 Q206.551 686.315 204.971 687.03 L204.971 672.924 Z" fill="#000000" fill-rule="nonzero" fill-opacity="1" /><path clip-path="url(#clip470)" d="M21.7677 1084.27 L39.6235 1084.27 L39.6235 1076.19 Q39.6235 1071.7 37.3 1069.25 Q34.9765 1066.8 30.6797 1066.8 Q26.4147 1066.8 24.0912 1069.25 Q21.7677 1071.7 21.7677 1076.19 L21.7677 1084.27 M16.4842 1090.7 L16.4842 1076.19 Q16.4842 1068.2 20.1126 1064.13 Q23.7092 1060.02 30.6797 1060.02 Q37.7138 1060.02 41.3104 1064.13 Q44.907 1068.2 44.907 1076.19 L44.907 1084.27 L64.0042 1084.27 L64.0042 1090.7 L16.4842 1090.7 Z" fill="#000000" fill-rule="nonzero" fill-opacity="1" /><path clip-path="url(#clip470)" d="M32.4621 1040.16 Q32.4621 1044.87 36.1542 1047.61 Q39.8145 1050.35 46.212 1050.35 Q52.6095 1050.35 56.3017 1047.64 Q59.9619 1044.9 59.9619 1040.16 Q59.9619 1035.48 56.2698 1032.74 Q52.5777 1030.01 46.212 1030.01 Q39.8781 1030.01 36.186 1032.74 Q32.4621 1035.48 32.4621 1040.16 M27.4968 1040.16 Q27.4968 1032.52 32.4621 1028.16 Q37.4273 1023.8 46.212 1023.8 Q54.9649 1023.8 59.9619 1028.16 Q64.9272 1032.52 64.9272 1040.16 Q64.9272 1047.83 59.9619 1052.19 Q54.9649 1056.52 46.212 1056.52 Q37.4273 1056.52 32.4621 1052.19 Q27.4968 1047.83 27.4968 1040.16 Z" fill="#000000" fill-rule="nonzero" fill-opacity="1" /><path clip-path="url(#clip470)" d="M33.8307 993.436 Q33.2578 994.423 33.0032 995.601 Q32.7167 996.746 32.7167 998.147 Q32.7167 1003.11 35.9632 1005.79 Q39.1779 1008.43 45.2253 1008.43 L64.0042 1008.43 L64.0042 1014.32 L28.3562 1014.32 L28.3562 1008.43 L33.8944 1008.43 Q30.6479 1006.58 29.0883 1003.62 Q27.4968 1000.66 27.4968 996.428 Q27.4968 995.823 27.5923 995.091 Q27.656 994.359 27.8151 993.468 L33.8307 993.436 Z" fill="#000000" fill-rule="nonzero" fill-opacity="1" /><path clip-path="url(#clip470)" d="M18.2347 981.501 L28.3562 981.501 L28.3562 969.437 L32.9077 969.437 L32.9077 981.501 L52.2594 981.501 Q56.6199 981.501 57.8613 980.323 Q59.1026 979.113 59.1026 975.453 L59.1026 969.437 L64.0042 969.437 L64.0042 975.453 Q64.0042 982.233 61.4897 984.811 Q58.9434 987.389 52.2594 987.389 L32.9077 987.389 L32.9077 991.686 L28.3562 991.686 L28.3562 987.389 L18.2347 987.389 L18.2347 981.501 Z" fill="#000000" fill-rule="nonzero" fill-opacity="1" /><path clip-path="url(#clip470)" d="M14.479 943.688 L19.3487 943.688 L19.3487 949.29 Q19.3487 952.441 20.6219 953.682 Q21.895 954.892 25.2052 954.892 L28.3562 954.892 L28.3562 945.248 L32.9077 945.248 L32.9077 954.892 L64.0042 954.892 L64.0042 960.78 L32.9077 960.78 L32.9077 966.382 L28.3562 966.382 L28.3562 960.78 L25.8736 960.78 Q19.9216 960.78 17.2162 958.011 Q14.479 955.242 14.479 949.226 L14.479 943.688 Z" fill="#000000" fill-rule="nonzero" fill-opacity="1" /><path clip-path="url(#clip470)" d="M32.4621 924.973 Q32.4621 929.684 36.1542 932.421 Q39.8145 935.158 46.212 935.158 Q52.6095 935.158 56.3017 932.453 Q59.9619 929.715 59.9619 924.973 Q59.9619 920.294 56.2698 917.557 Q52.5777 914.82 46.212 914.82 Q39.8781 914.82 36.186 917.557 Q32.4621 920.294 32.4621 924.973 M27.4968 924.973 Q27.4968 917.334 32.4621 912.974 Q37.4273 908.613 46.212 908.613 Q54.9649 908.613 59.9619 912.974 Q64.9272 917.334 64.9272 924.973 Q64.9272 932.644 59.9619 937.004 Q54.9649 941.333 46.212 941.333 Q37.4273 941.333 32.4621 937.004 Q27.4968 932.644 27.4968 924.973 Z" fill="#000000" fill-rule="nonzero" fill-opacity="1" /><path clip-path="url(#clip470)" d="M14.479 898.905 L14.479 893.049 L64.0042 893.049 L64.0042 898.905 L14.479 898.905 Z" fill="#000000" fill-rule="nonzero" fill-opacity="1" /><path clip-path="url(#clip470)" d="M28.3562 880.795 L28.3562 874.939 L64.0042 874.939 L64.0042 880.795 L28.3562 880.795 M14.479 880.795 L14.479 874.939 L21.895 874.939 L21.895 880.795 L14.479 880.795 Z" fill="#000000" fill-rule="nonzero" fill-opacity="1" /><path clip-path="url(#clip470)" d="M32.4621 848.871 Q32.4621 853.582 36.1542 856.319 Q39.8145 859.056 46.212 859.056 Q52.6095 859.056 56.3017 856.351 Q59.9619 853.613 59.9619 848.871 Q59.9619 844.192 56.2698 841.455 Q52.5777 838.718 46.212 838.718 Q39.8781 838.718 36.186 841.455 Q32.4621 844.192 32.4621 848.871 M27.4968 848.871 Q27.4968 841.232 32.4621 836.872 Q37.4273 832.511 46.212 832.511 Q54.9649 832.511 59.9619 836.872 Q64.9272 841.232 64.9272 848.871 Q64.9272 856.542 59.9619 860.902 Q54.9649 865.231 46.212 865.231 Q37.4273 865.231 32.4621 860.902 Q27.4968 856.542 27.4968 848.871 Z" fill="#000000" fill-rule="nonzero" fill-opacity="1" /><path clip-path="url(#clip470)" d="M64.0042 789.574 L16.4842 807.717 L16.4842 801.001 L56.4926 785.946 L16.4842 770.859 L16.4842 764.175 L64.0042 782.286 L64.0042 789.574 Z" fill="#000000" fill-rule="nonzero" fill-opacity="1" /><path clip-path="url(#clip470)" d="M46.0847 746.351 Q46.0847 753.449 47.7079 756.186 Q49.3312 758.924 53.2461 758.924 Q56.3653 758.924 58.2114 756.887 Q60.0256 754.818 60.0256 751.285 Q60.0256 746.415 56.5881 743.487 Q53.1188 740.527 47.3897 740.527 L46.0847 740.527 L46.0847 746.351 M43.6657 734.67 L64.0042 734.67 L64.0042 740.527 L58.5933 740.527 Q61.8398 742.532 63.3994 745.524 Q64.9272 748.516 64.9272 752.844 Q64.9272 758.319 61.8716 761.565 Q58.7843 764.78 53.6281 764.78 Q47.6125 764.78 44.5569 760.77 Q41.5014 756.727 41.5014 748.738 L41.5014 740.527 L40.9285 740.527 Q36.8862 740.527 34.6901 743.2 Q32.4621 745.842 32.4621 750.648 Q32.4621 753.704 33.1941 756.6 Q33.9262 759.496 35.3903 762.17 L29.9795 762.17 Q28.7381 758.955 28.1334 755.932 Q27.4968 752.908 27.4968 750.043 Q27.4968 742.309 31.5072 738.49 Q35.5176 734.67 43.6657 734.67 Z" fill="#000000" fill-rule="nonzero" fill-opacity="1" /><path clip-path="url(#clip470)" d="M14.479 722.607 L14.479 716.751 L64.0042 716.751 L64.0042 722.607 L14.479 722.607 Z" fill="#000000" fill-rule="nonzero" fill-opacity="1" /><path clip-path="url(#clip470)" d="M49.9359 705.102 L28.3562 705.102 L28.3562 699.245 L49.7131 699.245 Q54.7739 699.245 57.3202 697.272 Q59.8346 695.298 59.8346 691.352 Q59.8346 686.609 56.8109 683.872 Q53.7872 681.103 48.5673 681.103 L28.3562 681.103 L28.3562 675.246 L64.0042 675.246 L64.0042 681.103 L58.5296 681.103 Q61.7762 683.235 63.3676 686.068 Q64.9272 688.869 64.9272 692.593 Q64.9272 698.736 61.1078 701.919 Q57.2883 705.102 49.9359 705.102 M27.4968 690.365 L27.4968 690.365 Z" fill="#000000" fill-rule="nonzero" fill-opacity="1" /><path clip-path="url(#clip470)" d="M44.7161 632.692 L47.5806 632.692 L47.5806 659.619 Q53.6281 659.237 56.8109 655.99 Q59.9619 652.712 59.9619 646.887 Q59.9619 643.513 59.1344 640.362 Q58.3069 637.179 56.6518 634.06 L62.1899 634.06 Q63.5267 637.211 64.227 640.521 Q64.9272 643.832 64.9272 647.237 Q64.9272 655.767 59.9619 660.764 Q54.9967 665.73 46.5303 665.73 Q37.7774 665.73 32.6531 661.019 Q27.4968 656.277 27.4968 648.256 Q27.4968 641.063 32.1438 636.893 Q36.7589 632.692 44.7161 632.692 M42.9973 638.548 Q38.1912 638.612 35.3266 641.253 Q32.4621 643.863 32.4621 648.192 Q32.4621 653.094 35.2312 656.054 Q38.0002 658.982 43.0292 659.428 L42.9973 638.548 Z" fill="#000000" fill-rule="nonzero" fill-opacity="1" /><path clip-path="url(#clip470)" d="M43.5384 605.319 L43.5384 588.163 L48.7583 588.163 L48.7583 605.319 L43.5384 605.319 Z" fill="#000000" fill-rule="nonzero" fill-opacity="1" /><path clip-path="url(#clip470)" d="M16.4842 558.595 L16.4842 552.134 L45.3526 552.134 Q52.9915 552.134 56.3653 549.365 Q59.7073 546.595 59.7073 540.389 Q59.7073 534.214 56.3653 531.445 Q52.9915 528.676 45.3526 528.676 L16.4842 528.676 L16.4842 522.215 L46.1484 522.215 Q55.4423 522.215 60.1847 526.83 Q64.9272 531.413 64.9272 540.389 Q64.9272 549.396 60.1847 554.011 Q55.4423 558.595 46.1484 558.595 L16.4842 558.595 Z" fill="#000000" fill-rule="nonzero" fill-opacity="1" /><path clip-path="url(#clip470)" d="M18.0438 481.665 L24.314 481.665 Q22.5634 485.326 21.704 488.572 Q20.8447 491.819 20.8447 494.842 Q20.8447 500.094 22.8817 502.959 Q24.9187 505.791 28.6745 505.791 Q31.8255 505.791 33.4488 503.913 Q35.0402 502.004 36.0269 496.72 L36.8226 492.837 Q38.1912 485.644 41.6605 482.238 Q45.098 478.801 50.8908 478.801 Q57.7976 478.801 61.3624 483.448 Q64.9272 488.063 64.9272 497.007 Q64.9272 500.38 64.1633 504.2 Q63.3994 507.987 61.9035 512.061 L55.2831 512.061 Q57.4793 508.147 58.5933 504.391 Q59.7073 500.635 59.7073 497.007 Q59.7073 491.5 57.543 488.508 Q55.3786 485.516 51.3682 485.516 Q47.8671 485.516 45.8937 487.681 Q43.9204 489.813 42.9337 494.715 L42.1698 498.63 Q40.7375 505.823 37.682 509.038 Q34.6264 512.252 29.1837 512.252 Q22.8817 512.252 19.2532 507.828 Q15.6248 503.372 15.6248 495.574 Q15.6248 492.232 16.2295 488.763 Q16.8343 485.294 18.0438 481.665 Z" fill="#000000" fill-rule="nonzero" fill-opacity="1" /><path clip-path="url(#clip470)" d="M21.7677 462.345 L58.7206 462.345 L58.7206 454.579 Q58.7206 444.744 54.2646 440.193 Q49.8086 435.609 40.1964 435.609 Q30.6479 435.609 26.2237 440.193 Q21.7677 444.744 21.7677 454.579 L21.7677 462.345 M16.4842 468.775 L16.4842 455.566 Q16.4842 441.752 22.2451 435.291 Q27.9743 428.83 40.1964 428.83 Q52.4822 428.83 58.2432 435.323 Q64.0042 441.816 64.0042 455.566 L64.0042 468.775 L16.4842 468.775 Z" fill="#000000" fill-rule="nonzero" fill-opacity="1" /><path clip-path="url(#clip470)" d="M305.633 18.8205 L305.633 41.5461 L315.922 41.5461 Q321.634 41.5461 324.753 38.5889 Q327.872 35.6318 327.872 30.163 Q327.872 24.7348 324.753 21.7777 Q321.634 18.8205 315.922 18.8205 L305.633 18.8205 M297.45 12.096 L315.922 12.096 Q326.09 12.096 331.275 16.714 Q336.501 21.2916 336.501 30.163 Q336.501 39.1155 331.275 43.6931 Q326.09 48.2706 315.922 48.2706 L305.633 48.2706 L305.633 72.576 L297.45 72.576 L297.45 12.096 Z" fill="#000000" fill-rule="nonzero" fill-opacity="1" /><path clip-path="url(#clip470)" d="M361.778 32.4315 Q355.783 32.4315 352.299 37.1306 Q348.815 41.7891 348.815 49.9314 Q348.815 58.0738 352.259 62.7728 Q355.742 67.4314 361.778 67.4314 Q367.733 67.4314 371.217 62.7323 Q374.701 58.0333 374.701 49.9314 Q374.701 41.8701 371.217 37.1711 Q367.733 32.4315 361.778 32.4315 M361.778 26.1121 Q371.5 26.1121 377.05 32.4315 Q382.6 38.7509 382.6 49.9314 Q382.6 61.0714 377.05 67.4314 Q371.5 73.7508 361.778 73.7508 Q352.016 73.7508 346.466 67.4314 Q340.957 61.0714 340.957 49.9314 Q340.957 38.7509 346.466 32.4315 Q352.016 26.1121 361.778 26.1121 Z" fill="#000000" fill-rule="nonzero" fill-opacity="1" /><path clip-path="url(#clip470)" d="M421.246 34.1734 Q419.99 33.4443 418.491 33.1202 Q417.033 32.7556 415.25 32.7556 Q408.931 32.7556 405.528 36.8875 Q402.166 40.9789 402.166 48.6757 L402.166 72.576 L394.672 72.576 L394.672 27.2059 L402.166 27.2059 L402.166 34.2544 Q404.515 30.1225 408.283 28.1376 Q412.05 26.1121 417.438 26.1121 Q418.207 26.1121 419.139 26.2337 Q420.071 26.3147 421.205 26.5172 L421.246 34.1734 Z" fill="#000000" fill-rule="nonzero" fill-opacity="1" /><path clip-path="url(#clip470)" d="M436.436 14.324 L436.436 27.2059 L451.789 27.2059 L451.789 32.9987 L436.436 32.9987 L436.436 57.6282 Q436.436 63.1779 437.935 64.7578 Q439.475 66.3376 444.133 66.3376 L451.789 66.3376 L451.789 72.576 L444.133 72.576 Q435.505 72.576 432.224 69.3758 Q428.942 66.1351 428.942 57.6282 L428.942 32.9987 L423.474 32.9987 L423.474 27.2059 L428.942 27.2059 L428.942 14.324 L436.436 14.324 Z" fill="#000000" fill-rule="nonzero" fill-opacity="1" /><path clip-path="url(#clip470)" d="M484.561 9.54393 L484.561 15.7418 L477.432 15.7418 Q473.421 15.7418 471.841 17.3622 Q470.302 18.9825 470.302 23.1955 L470.302 27.2059 L482.576 27.2059 L482.576 32.9987 L470.302 32.9987 L470.302 72.576 L462.808 72.576 L462.808 32.9987 L455.678 32.9987 L455.678 27.2059 L462.808 27.2059 L462.808 24.0462 Q462.808 16.471 466.332 13.0277 Q469.856 9.54393 477.513 9.54393 L484.561 9.54393 Z" fill="#000000" fill-rule="nonzero" fill-opacity="1" /><path clip-path="url(#clip470)" d="M508.381 32.4315 Q502.385 32.4315 498.901 37.1306 Q495.418 41.7891 495.418 49.9314 Q495.418 58.0738 498.861 62.7728 Q502.345 67.4314 508.381 67.4314 Q514.335 67.4314 517.819 62.7323 Q521.303 58.0333 521.303 49.9314 Q521.303 41.8701 517.819 37.1711 Q514.335 32.4315 508.381 32.4315 M508.381 26.1121 Q518.103 26.1121 523.652 32.4315 Q529.202 38.7509 529.202 49.9314 Q529.202 61.0714 523.652 67.4314 Q518.103 73.7508 508.381 73.7508 Q498.618 73.7508 493.068 67.4314 Q487.559 61.0714 487.559 49.9314 Q487.559 38.7509 493.068 32.4315 Q498.618 26.1121 508.381 26.1121 Z" fill="#000000" fill-rule="nonzero" fill-opacity="1" /><path clip-path="url(#clip470)" d="M541.557 9.54393 L549.011 9.54393 L549.011 72.576 L541.557 72.576 L541.557 9.54393 Z" fill="#000000" fill-rule="nonzero" fill-opacity="1" /><path clip-path="url(#clip470)" d="M564.607 27.2059 L572.061 27.2059 L572.061 72.576 L564.607 72.576 L564.607 27.2059 M564.607 9.54393 L572.061 9.54393 L572.061 18.9825 L564.607 18.9825 L564.607 9.54393 Z" fill="#000000" fill-rule="nonzero" fill-opacity="1" /><path clip-path="url(#clip470)" d="M605.238 32.4315 Q599.242 32.4315 595.759 37.1306 Q592.275 41.7891 592.275 49.9314 Q592.275 58.0738 595.718 62.7728 Q599.202 67.4314 605.238 67.4314 Q611.192 67.4314 614.676 62.7323 Q618.16 58.0333 618.16 49.9314 Q618.16 41.8701 614.676 37.1711 Q611.192 32.4315 605.238 32.4315 M605.238 26.1121 Q614.96 26.1121 620.51 32.4315 Q626.059 38.7509 626.059 49.9314 Q626.059 61.0714 620.51 67.4314 Q614.96 73.7508 605.238 73.7508 Q595.475 73.7508 589.925 67.4314 Q584.416 61.0714 584.416 49.9314 Q584.416 38.7509 589.925 32.4315 Q595.475 26.1121 605.238 26.1121 Z" fill="#000000" fill-rule="nonzero" fill-opacity="1" /><path clip-path="url(#clip470)" d="M680.706 72.576 L657.616 12.096 L666.163 12.096 L685.324 63.0159 L704.525 12.096 L713.032 12.096 L689.983 72.576 L680.706 72.576 Z" fill="#000000" fill-rule="nonzero" fill-opacity="1" /><path clip-path="url(#clip470)" d="M735.717 49.7694 Q726.684 49.7694 723.2 51.8354 Q719.716 53.9013 719.716 58.8839 Q719.716 62.8538 722.309 65.2034 Q724.942 67.5124 729.438 67.5124 Q735.636 67.5124 739.363 63.1374 Q743.13 58.7219 743.13 51.4303 L743.13 49.7694 L735.717 49.7694 M750.584 46.6907 L750.584 72.576 L743.13 72.576 L743.13 65.6895 Q740.578 69.8214 736.77 71.8063 Q732.963 73.7508 727.453 73.7508 Q720.486 73.7508 716.354 69.8619 Q712.263 65.9325 712.263 59.3701 Q712.263 51.7138 717.367 47.825 Q722.511 43.9361 732.679 43.9361 L743.13 43.9361 L743.13 43.2069 Q743.13 38.0623 739.728 35.2672 Q736.365 32.4315 730.249 32.4315 Q726.36 32.4315 722.673 33.3632 Q718.987 34.295 715.584 36.1584 L715.584 29.2718 Q719.676 27.692 723.524 26.9223 Q727.372 26.1121 731.018 26.1121 Q740.862 26.1121 745.723 31.2163 Q750.584 36.3204 750.584 46.6907 Z" fill="#000000" fill-rule="nonzero" fill-opacity="1" /><path clip-path="url(#clip470)" d="M765.937 9.54393 L773.391 9.54393 L773.391 72.576 L765.937 72.576 L765.937 9.54393 Z" fill="#000000" fill-rule="nonzero" fill-opacity="1" /><path clip-path="url(#clip470)" d="M788.217 54.671 L788.217 27.2059 L795.671 27.2059 L795.671 54.3874 Q795.671 60.8284 798.182 64.0691 Q800.694 67.2693 805.717 67.2693 Q811.753 67.2693 815.236 63.421 Q818.761 59.5726 818.761 52.9291 L818.761 27.2059 L826.214 27.2059 L826.214 72.576 L818.761 72.576 L818.761 65.6084 Q816.047 69.7404 812.441 71.7658 Q808.877 73.7508 804.137 73.7508 Q796.319 73.7508 792.268 68.8897 Q788.217 64.0286 788.217 54.671 M806.973 26.1121 L806.973 26.1121 Z" fill="#000000" fill-rule="nonzero" fill-opacity="1" /><path clip-path="url(#clip470)" d="M880.375 48.0275 L880.375 51.6733 L846.104 51.6733 Q846.59 59.3701 850.722 63.421 Q854.895 67.4314 862.308 67.4314 Q866.602 67.4314 870.612 66.3781 Q874.663 65.3249 878.633 63.2184 L878.633 70.267 Q874.623 71.9684 870.41 72.8596 Q866.197 73.7508 861.862 73.7508 Q851.006 73.7508 844.646 67.4314 Q838.327 61.1119 838.327 50.3365 Q838.327 39.1965 844.322 32.6746 Q850.358 26.1121 860.566 26.1121 Q869.721 26.1121 875.028 32.0264 Q880.375 37.9003 880.375 48.0275 M872.921 45.84 Q872.84 39.7232 869.478 36.0774 Q866.156 32.4315 860.647 32.4315 Q854.409 32.4315 850.641 35.9558 Q846.915 39.4801 846.347 45.8805 L872.921 45.84 Z" fill="#000000" fill-rule="nonzero" fill-opacity="1" /><path clip-path="url(#clip470)" d="M894.513 62.2867 L903.06 62.2867 L903.06 72.576 L894.513 72.576 L894.513 62.2867 M894.513 29.6769 L903.06 29.6769 L903.06 39.9662 L894.513 39.9662 L894.513 29.6769 Z" fill="#000000" fill-rule="nonzero" fill-opacity="1" /><path clip-path="url(#clip470)" d="M947.255 12.096 L959.449 12.096 L974.883 53.2532 L990.398 12.096 L1002.59 12.096 L1002.59 72.576 L994.611 72.576 L994.611 19.4686 L979.015 60.9499 L970.791 60.9499 L955.195 19.4686 L955.195 72.576 L947.255 72.576 L947.255 12.096 Z" fill="#000000" fill-rule="nonzero" fill-opacity="1" /><path clip-path="url(#clip470)" d="M1034.43 72.576 L1011.34 12.096 L1019.89 12.096 L1039.05 63.0159 L1058.25 12.096 L1066.76 12.096 L1043.71 72.576 L1034.43 72.576 Z" fill="#000000" fill-rule="nonzero" fill-opacity="1" /><path clip-path="url(#clip470)" d="M1066.64 46.5287 L1088.47 46.5287 L1088.47 53.1722 L1066.64 53.1722 L1066.64 46.5287 Z" fill="#000000" fill-rule="nonzero" fill-opacity="1" /><path clip-path="url(#clip470)" d="M1100.66 12.096 L1112.86 12.096 L1128.29 53.2532 L1143.81 12.096 L1156 12.096 L1156 72.576 L1148.02 72.576 L1148.02 19.4686 L1132.42 60.9499 L1124.2 60.9499 L1108.6 19.4686 L1108.6 72.576 L1100.66 72.576 L1100.66 12.096 Z" fill="#000000" fill-rule="nonzero" fill-opacity="1" /><path clip-path="url(#clip470)" d="M1180.43 18.8205 L1180.43 41.5461 L1190.71 41.5461 Q1196.43 41.5461 1199.55 38.5889 Q1202.66 35.6318 1202.66 30.163 Q1202.66 24.7348 1199.55 21.7777 Q1196.43 18.8205 1190.71 18.8205 L1180.43 18.8205 M1172.24 12.096 L1190.71 12.096 Q1200.88 12.096 1206.07 16.714 Q1211.29 21.2916 1211.29 30.163 Q1211.29 39.1155 1206.07 43.6931 Q1200.88 48.2706 1190.71 48.2706 L1180.43 48.2706 L1180.43 72.576 L1172.24 72.576 L1172.24 12.096 Z" fill="#000000" fill-rule="nonzero" fill-opacity="1" /><path clip-path="url(#clip470)" d="M1267.56 16.7545 L1267.56 25.383 Q1263.43 21.5346 1258.73 19.6307 Q1254.07 17.7268 1248.8 17.7268 Q1238.43 17.7268 1232.93 24.0867 Q1227.42 30.4061 1227.42 42.3968 Q1227.42 54.3469 1232.93 60.7069 Q1238.43 67.0263 1248.8 67.0263 Q1254.07 67.0263 1258.73 65.1223 Q1263.43 63.2184 1267.56 59.3701 L1267.56 67.9175 Q1263.27 70.8341 1258.45 72.2924 Q1253.67 73.7508 1248.32 73.7508 Q1234.59 73.7508 1226.69 65.3654 Q1218.79 56.9395 1218.79 42.3968 Q1218.79 27.8135 1226.69 19.4281 Q1234.59 11.0023 1248.32 11.0023 Q1253.75 11.0023 1258.53 12.4606 Q1263.35 13.8784 1267.56 16.7545 Z" fill="#000000" fill-rule="nonzero" fill-opacity="1" /><path clip-path="url(#clip470)" d="M1305.48 54.671 L1305.48 27.2059 L1312.93 27.2059 L1312.93 54.3874 Q1312.93 60.8284 1315.44 64.0691 Q1317.95 67.2693 1322.98 67.2693 Q1329.01 67.2693 1332.5 63.421 Q1336.02 59.5726 1336.02 52.9291 L1336.02 27.2059 L1343.47 27.2059 L1343.47 72.576 L1336.02 72.576 L1336.02 65.6084 Q1333.31 69.7404 1329.7 71.7658 Q1326.14 73.7508 1321.4 73.7508 Q1313.58 73.7508 1309.53 68.8897 Q1305.48 64.0286 1305.48 54.671 M1324.23 26.1121 L1324.23 26.1121 Z" fill="#000000" fill-rule="nonzero" fill-opacity="1" /><path clip-path="url(#clip470)" d="M1387.75 28.5427 L1387.75 35.5912 Q1384.59 33.9709 1381.19 33.1607 Q1377.79 32.3505 1374.14 32.3505 Q1368.59 32.3505 1365.79 34.0519 Q1363.04 35.7533 1363.04 39.156 Q1363.04 41.7486 1365.03 43.2475 Q1367.01 44.7058 1373.01 46.0426 L1375.56 46.6097 Q1383.5 48.3111 1386.82 51.4303 Q1390.18 54.509 1390.18 60.0587 Q1390.18 66.3781 1385.16 70.0644 Q1380.18 73.7508 1371.43 73.7508 Q1367.78 73.7508 1363.81 73.0216 Q1359.88 72.3329 1355.51 70.9151 L1355.51 63.2184 Q1359.64 65.3654 1363.65 66.4591 Q1367.66 67.5124 1371.59 67.5124 Q1376.85 67.5124 1379.69 65.73 Q1382.53 63.9071 1382.53 60.6258 Q1382.53 57.5877 1380.46 55.9673 Q1378.43 54.3469 1371.51 52.8481 L1368.91 52.2405 Q1361.99 50.7821 1358.91 47.7845 Q1355.83 44.7463 1355.83 39.4801 Q1355.83 33.0797 1360.37 29.5959 Q1364.9 26.1121 1373.25 26.1121 Q1377.38 26.1121 1381.03 26.7198 Q1384.67 27.3274 1387.75 28.5427 Z" fill="#000000" fill-rule="nonzero" fill-opacity="1" /><path clip-path="url(#clip470)" d="M1402.05 27.2059 L1409.5 27.2059 L1409.5 72.576 L1402.05 72.576 L1402.05 27.2059 M1402.05 9.54393 L1409.5 9.54393 L1409.5 18.9825 L1402.05 18.9825 L1402.05 9.54393 Z" fill="#000000" fill-rule="nonzero" fill-opacity="1" /><path clip-path="url(#clip470)" d="M1462.81 45.1919 L1462.81 72.576 L1455.36 72.576 L1455.36 45.4349 Q1455.36 38.994 1452.85 35.7938 Q1450.34 32.5936 1445.31 32.5936 Q1439.28 32.5936 1435.79 36.4419 Q1432.31 40.2903 1432.31 46.9338 L1432.31 72.576 L1424.82 72.576 L1424.82 27.2059 L1432.31 27.2059 L1432.31 34.2544 Q1434.98 30.163 1438.59 28.1376 Q1442.24 26.1121 1446.98 26.1121 Q1454.79 26.1121 1458.8 30.9732 Q1462.81 35.7938 1462.81 45.1919 Z" fill="#000000" fill-rule="nonzero" fill-opacity="1" /><path clip-path="url(#clip470)" d="M1507.54 49.3643 Q1507.54 41.2625 1504.17 36.8065 Q1500.85 32.3505 1494.82 32.3505 Q1488.82 32.3505 1485.46 36.8065 Q1482.14 41.2625 1482.14 49.3643 Q1482.14 57.4256 1485.46 61.8816 Q1488.82 66.3376 1494.82 66.3376 Q1500.85 66.3376 1504.17 61.8816 Q1507.54 57.4256 1507.54 49.3643 M1514.99 66.9452 Q1514.99 78.5308 1509.85 84.1616 Q1504.7 89.8329 1494.09 89.8329 Q1490.16 89.8329 1486.67 89.2252 Q1483.19 88.6581 1479.91 87.4428 L1479.91 80.1917 Q1483.19 81.9741 1486.39 82.8248 Q1489.59 83.6755 1492.91 83.6755 Q1500.24 83.6755 1503.89 79.8271 Q1507.54 76.0193 1507.54 68.282 L1507.54 64.5957 Q1505.23 68.6061 1501.62 70.5911 Q1498.02 72.576 1492.99 72.576 Q1484.65 72.576 1479.54 66.2161 Q1474.44 59.8562 1474.44 49.3643 Q1474.44 38.832 1479.54 32.472 Q1484.65 26.1121 1492.99 26.1121 Q1498.02 26.1121 1501.62 28.0971 Q1505.23 30.082 1507.54 34.0924 L1507.54 27.2059 L1514.99 27.2059 L1514.99 66.9452 Z" fill="#000000" fill-rule="nonzero" fill-opacity="1" /><path clip-path="url(#clip470)" d="M1557.04 12.096 L1565.22 12.096 L1565.22 65.6895 L1594.67 65.6895 L1594.67 72.576 L1557.04 72.576 L1557.04 12.096 Z" fill="#000000" fill-rule="nonzero" fill-opacity="1" /><path clip-path="url(#clip470)" d="M1602.93 27.2059 L1610.39 27.2059 L1610.39 72.576 L1602.93 72.576 L1602.93 27.2059 M1602.93 9.54393 L1610.39 9.54393 L1610.39 18.9825 L1602.93 18.9825 L1602.93 9.54393 Z" fill="#000000" fill-rule="nonzero" fill-opacity="1" /><path clip-path="url(#clip470)" d="M1663.7 45.1919 L1663.7 72.576 L1656.24 72.576 L1656.24 45.4349 Q1656.24 38.994 1653.73 35.7938 Q1651.22 32.5936 1646.2 32.5936 Q1640.16 32.5936 1636.68 36.4419 Q1633.2 40.2903 1633.2 46.9338 L1633.2 72.576 L1625.7 72.576 L1625.7 27.2059 L1633.2 27.2059 L1633.2 34.2544 Q1635.87 30.163 1639.47 28.1376 Q1643.12 26.1121 1647.86 26.1121 Q1655.68 26.1121 1659.69 30.9732 Q1663.7 35.7938 1663.7 45.1919 Z" fill="#000000" fill-rule="nonzero" fill-opacity="1" /><path clip-path="url(#clip470)" d="M1717.37 48.0275 L1717.37 51.6733 L1683.1 51.6733 Q1683.59 59.3701 1687.72 63.421 Q1691.89 67.4314 1699.31 67.4314 Q1703.6 67.4314 1707.61 66.3781 Q1711.66 65.3249 1715.63 63.2184 L1715.63 70.267 Q1711.62 71.9684 1707.41 72.8596 Q1703.19 73.7508 1698.86 73.7508 Q1688 73.7508 1681.64 67.4314 Q1675.32 61.1119 1675.32 50.3365 Q1675.32 39.1965 1681.32 32.6746 Q1687.36 26.1121 1697.56 26.1121 Q1706.72 26.1121 1712.03 32.0264 Q1717.37 37.9003 1717.37 48.0275 M1709.92 45.84 Q1709.84 39.7232 1706.48 36.0774 Q1703.15 32.4315 1697.64 32.4315 Q1691.41 32.4315 1687.64 35.9558 Q1683.91 39.4801 1683.35 45.8805 L1709.92 45.84 Z" fill="#000000" fill-rule="nonzero" fill-opacity="1" /><path clip-path="url(#clip470)" d="M1750.23 49.7694 Q1741.19 49.7694 1737.71 51.8354 Q1734.22 53.9013 1734.22 58.8839 Q1734.22 62.8538 1736.82 65.2034 Q1739.45 67.5124 1743.95 67.5124 Q1750.14 67.5124 1753.87 63.1374 Q1757.64 58.7219 1757.64 51.4303 L1757.64 49.7694 L1750.23 49.7694 M1765.09 46.6907 L1765.09 72.576 L1757.64 72.576 L1757.64 65.6895 Q1755.09 69.8214 1751.28 71.8063 Q1747.47 73.7508 1741.96 73.7508 Q1734.99 73.7508 1730.86 69.8619 Q1726.77 65.9325 1726.77 59.3701 Q1726.77 51.7138 1731.88 47.825 Q1737.02 43.9361 1747.19 43.9361 L1757.64 43.9361 L1757.64 43.2069 Q1757.64 38.0623 1754.24 35.2672 Q1750.87 32.4315 1744.76 32.4315 Q1740.87 32.4315 1737.18 33.3632 Q1733.5 34.295 1730.09 36.1584 L1730.09 29.2718 Q1734.18 27.692 1738.03 26.9223 Q1741.88 26.1121 1745.53 26.1121 Q1755.37 26.1121 1760.23 31.2163 Q1765.09 36.3204 1765.09 46.6907 Z" fill="#000000" fill-rule="nonzero" fill-opacity="1" /><path clip-path="url(#clip470)" d="M1806.74 34.1734 Q1805.48 33.4443 1803.98 33.1202 Q1802.52 32.7556 1800.74 32.7556 Q1794.42 32.7556 1791.02 36.8875 Q1787.66 40.9789 1787.66 48.6757 L1787.66 72.576 L1780.16 72.576 L1780.16 27.2059 L1787.66 27.2059 L1787.66 34.2544 Q1790.01 30.1225 1793.77 28.1376 Q1797.54 26.1121 1802.93 26.1121 Q1803.7 26.1121 1804.63 26.2337 Q1805.56 26.3147 1806.7 26.5172 L1806.74 34.1734 Z" fill="#000000" fill-rule="nonzero" fill-opacity="1" /><path clip-path="url(#clip470)" d="M1869.93 44.2197 Q1872.56 45.1109 1875.03 48.0275 Q1877.55 50.9442 1880.06 56.0483 L1888.36 72.576 L1879.57 72.576 L1871.83 57.061 Q1868.84 50.9847 1866 48.9997 Q1863.21 47.0148 1858.34 47.0148 L1849.43 47.0148 L1849.43 72.576 L1841.25 72.576 L1841.25 12.096 L1859.72 12.096 Q1870.09 12.096 1875.2 16.4305 Q1880.3 20.7649 1880.3 29.5149 Q1880.3 35.2267 1877.63 38.994 Q1874.99 42.7613 1869.93 44.2197 M1849.43 18.8205 L1849.43 40.2903 L1859.72 40.2903 Q1865.64 40.2903 1868.63 37.5762 Q1871.67 34.8216 1871.67 29.5149 Q1871.67 24.2082 1868.63 21.5346 Q1865.64 18.8205 1859.72 18.8205 L1849.43 18.8205 Z" fill="#000000" fill-rule="nonzero" fill-opacity="1" /><path clip-path="url(#clip470)" d="M1933.65 48.0275 L1933.65 51.6733 L1899.38 51.6733 Q1899.87 59.3701 1904 63.421 Q1908.17 67.4314 1915.58 67.4314 Q1919.88 67.4314 1923.89 66.3781 Q1927.94 65.3249 1931.91 63.2184 L1931.91 70.267 Q1927.9 71.9684 1923.69 72.8596 Q1919.47 73.7508 1915.14 73.7508 Q1904.28 73.7508 1897.92 67.4314 Q1891.6 61.1119 1891.6 50.3365 Q1891.6 39.1965 1897.6 32.6746 Q1903.63 26.1121 1913.84 26.1121 Q1923 26.1121 1928.3 32.0264 Q1933.65 37.9003 1933.65 48.0275 M1926.2 45.84 Q1926.12 39.7232 1922.75 36.0774 Q1919.43 32.4315 1913.92 32.4315 Q1907.68 32.4315 1903.92 35.9558 Q1900.19 39.4801 1899.62 45.8805 L1926.2 45.84 Z" fill="#000000" fill-rule="nonzero" fill-opacity="1" /><path clip-path="url(#clip470)" d="M1975.74 49.3643 Q1975.74 41.2625 1972.38 36.8065 Q1969.06 32.3505 1963.02 32.3505 Q1957.02 32.3505 1953.66 36.8065 Q1950.34 41.2625 1950.34 49.3643 Q1950.34 57.4256 1953.66 61.8816 Q1957.02 66.3376 1963.02 66.3376 Q1969.06 66.3376 1972.38 61.8816 Q1975.74 57.4256 1975.74 49.3643 M1983.19 66.9452 Q1983.19 78.5308 1978.05 84.1616 Q1972.9 89.8329 1962.29 89.8329 Q1958.36 89.8329 1954.88 89.2252 Q1951.39 88.6581 1948.11 87.4428 L1948.11 80.1917 Q1951.39 81.9741 1954.59 82.8248 Q1957.79 83.6755 1961.12 83.6755 Q1968.45 83.6755 1972.09 79.8271 Q1975.74 76.0193 1975.74 68.282 L1975.74 64.5957 Q1973.43 68.6061 1969.83 70.5911 Q1966.22 72.576 1961.2 72.576 Q1952.85 72.576 1947.75 66.2161 Q1942.64 59.8562 1942.64 49.3643 Q1942.64 38.832 1947.75 32.472 Q1952.85 26.1121 1961.2 26.1121 Q1966.22 26.1121 1969.83 28.0971 Q1973.43 30.082 1975.74 34.0924 L1975.74 27.2059 L1983.19 27.2059 L1983.19 66.9452 Z" fill="#000000" fill-rule="nonzero" fill-opacity="1" /><path clip-path="url(#clip470)" d="M2024.84 34.1734 Q2023.58 33.4443 2022.08 33.1202 Q2020.62 32.7556 2018.84 32.7556 Q2012.52 32.7556 2009.12 36.8875 Q2005.76 40.9789 2005.76 48.6757 L2005.76 72.576 L1998.26 72.576 L1998.26 27.2059 L2005.76 27.2059 L2005.76 34.2544 Q2008.11 30.1225 2011.87 28.1376 Q2015.64 26.1121 2021.03 26.1121 Q2021.8 26.1121 2022.73 26.2337 Q2023.66 26.3147 2024.8 26.5172 L2024.84 34.1734 Z" fill="#000000" fill-rule="nonzero" fill-opacity="1" /><path clip-path="url(#clip470)" d="M2069.64 48.0275 L2069.64 51.6733 L2035.37 51.6733 Q2035.85 59.3701 2039.99 63.421 Q2044.16 67.4314 2051.57 67.4314 Q2055.87 67.4314 2059.88 66.3781 Q2063.93 65.3249 2067.9 63.2184 L2067.9 70.267 Q2063.89 71.9684 2059.67 72.8596 Q2055.46 73.7508 2051.13 73.7508 Q2040.27 73.7508 2033.91 67.4314 Q2027.59 61.1119 2027.59 50.3365 Q2027.59 39.1965 2033.59 32.6746 Q2039.62 26.1121 2049.83 26.1121 Q2058.99 26.1121 2064.29 32.0264 Q2069.64 37.9003 2069.64 48.0275 M2062.19 45.84 Q2062.1 39.7232 2058.74 36.0774 Q2055.42 32.4315 2049.91 32.4315 Q2043.67 32.4315 2039.91 35.9558 Q2036.18 39.4801 2035.61 45.8805 L2062.19 45.84 Z" fill="#000000" fill-rule="nonzero" fill-opacity="1" /><path clip-path="url(#clip470)" d="M2110.8 28.5427 L2110.8 35.5912 Q2107.64 33.9709 2104.23 33.1607 Q2100.83 32.3505 2097.19 32.3505 Q2091.64 32.3505 2088.84 34.0519 Q2086.09 35.7533 2086.09 39.156 Q2086.09 41.7486 2088.07 43.2475 Q2090.06 44.7058 2096.05 46.0426 L2098.6 46.6097 Q2106.54 48.3111 2109.86 51.4303 Q2113.23 54.509 2113.23 60.0587 Q2113.23 66.3781 2108.2 70.0644 Q2103.22 73.7508 2094.47 73.7508 Q2090.83 73.7508 2086.86 73.0216 Q2082.93 72.3329 2078.55 70.9151 L2078.55 63.2184 Q2082.68 65.3654 2086.69 66.4591 Q2090.7 67.5124 2094.63 67.5124 Q2099.9 67.5124 2102.74 65.73 Q2105.57 63.9071 2105.57 60.6258 Q2105.57 57.5877 2103.51 55.9673 Q2101.48 54.3469 2094.55 52.8481 L2091.96 52.2405 Q2085.03 50.7821 2081.95 47.7845 Q2078.88 44.7463 2078.88 39.4801 Q2078.88 33.0797 2083.41 29.5959 Q2087.95 26.1121 2096.29 26.1121 Q2100.43 26.1121 2104.07 26.7198 Q2107.72 27.3274 2110.8 28.5427 Z" fill="#000000" fill-rule="nonzero" fill-opacity="1" /><path clip-path="url(#clip470)" d="M2154.02 28.5427 L2154.02 35.5912 Q2150.86 33.9709 2147.46 33.1607 Q2144.05 32.3505 2140.41 32.3505 Q2134.86 32.3505 2132.06 34.0519 Q2129.31 35.7533 2129.31 39.156 Q2129.31 41.7486 2131.29 43.2475 Q2133.28 44.7058 2139.27 46.0426 L2141.83 46.6097 Q2149.77 48.3111 2153.09 51.4303 Q2156.45 54.509 2156.45 60.0587 Q2156.45 66.3781 2151.43 70.0644 Q2146.44 73.7508 2137.69 73.7508 Q2134.05 73.7508 2130.08 73.0216 Q2126.15 72.3329 2121.77 70.9151 L2121.77 63.2184 Q2125.91 65.3654 2129.92 66.4591 Q2133.93 67.5124 2137.86 67.5124 Q2143.12 67.5124 2145.96 65.73 Q2148.79 63.9071 2148.79 60.6258 Q2148.79 57.5877 2146.73 55.9673 Q2144.7 54.3469 2137.78 52.8481 L2135.18 52.2405 Q2128.26 50.7821 2125.18 47.7845 Q2122.1 44.7463 2122.1 39.4801 Q2122.1 33.0797 2126.64 29.5959 Q2131.17 26.1121 2139.52 26.1121 Q2143.65 26.1121 2147.3 26.7198 Q2150.94 27.3274 2154.02 28.5427 Z" fill="#000000" fill-rule="nonzero" fill-opacity="1" /><path clip-path="url(#clip470)" d="M2168.32 27.2059 L2175.77 27.2059 L2175.77 72.576 L2168.32 72.576 L2168.32 27.2059 M2168.32 9.54393 L2175.77 9.54393 L2175.77 18.9825 L2168.32 18.9825 L2168.32 9.54393 Z" fill="#000000" fill-rule="nonzero" fill-opacity="1" /><path clip-path="url(#clip470)" d="M2208.95 32.4315 Q2202.95 32.4315 2199.47 37.1306 Q2195.99 41.7891 2195.99 49.9314 Q2195.99 58.0738 2199.43 62.7728 Q2202.91 67.4314 2208.95 67.4314 Q2214.9 67.4314 2218.39 62.7323 Q2221.87 58.0333 2221.87 49.9314 Q2221.87 41.8701 2218.39 37.1711 Q2214.9 32.4315 2208.95 32.4315 M2208.95 26.1121 Q2218.67 26.1121 2224.22 32.4315 Q2229.77 38.7509 2229.77 49.9314 Q2229.77 61.0714 2224.22 67.4314 Q2218.67 73.7508 2208.95 73.7508 Q2199.19 73.7508 2193.64 67.4314 Q2188.13 61.0714 2188.13 49.9314 Q2188.13 38.7509 2193.64 32.4315 Q2199.19 26.1121 2208.95 26.1121 Z" fill="#000000" fill-rule="nonzero" fill-opacity="1" /><path clip-path="url(#clip470)" d="M2279.84 45.1919 L2279.84 72.576 L2272.39 72.576 L2272.39 45.4349 Q2272.39 38.994 2269.88 35.7938 Q2267.36 32.5936 2262.34 32.5936 Q2256.31 32.5936 2252.82 36.4419 Q2249.34 40.2903 2249.34 46.9338 L2249.34 72.576 L2241.84 72.576 L2241.84 27.2059 L2249.34 27.2059 L2249.34 34.2544 Q2252.01 30.163 2255.62 28.1376 Q2259.26 26.1121 2264 26.1121 Q2271.82 26.1121 2275.83 30.9732 Q2279.84 35.7938 2279.84 45.1919 Z" fill="#000000" fill-rule="nonzero" fill-opacity="1" /><polyline clip-path="url(#clip472)" style="stroke:#009af9; stroke-linecap:round; stroke-linejoin:round; stroke-width:12; stroke-opacity:1; fill:none" points="317.242,1376.42 317.242,1376.42 322.872,1367.38 328.502,1386.4 334.133,1369.73 339.763,1369.44 356.654,1353.18 362.284,1340.75 367.914,1344.46 373.544,1281.97 379.175,1241.56 401.696,1225.75 407.326,1257.37 412.956,1251 418.587,1222.22 435.478,1232.93 441.108,1190.24 446.738,786.488 452.368,1097.9 457.999,987.634 474.889,964.891 480.52,1073.93 486.15,1029.9 491.78,1085.2 497.411,1103.82 514.301,1075.82 519.932,1129.11 525.562,1135.65 531.192,1156.67 536.823,1142.14 559.344,1135.16 564.974,1159.69 570.604,1190.55 576.234,1197.41 593.125,1214.44 598.756,1228.12 604.386,1159.27 610.016,1200.62 615.646,1207.19 632.537,1140.42 638.168,1034.6 643.798,1111.7 649.428,1142.34 655.058,1157.33 671.949,1141.78 677.579,1106.57 683.21,1124.23 688.84,1103.88 694.47,1105.71 711.127,1091.44 716.757,1114.63 722.387,1113.82 728.017,1136.02 733.648,1126.8 750.538,1122.05 756.169,1150.36 761.799,1170.91 767.429,1134.67 773.06,1121.18 789.95,1127.04 795.581,1118.71 801.211,1152.04 806.841,1157.25 829.362,1149.35 834.993,1154.91 840.623,1158.57 846.253,1166.4 851.883,1164.16 868.774,1145.16 874.405,1126.77 880.035,1141.95 885.665,1109.98 891.295,1118.17 908.186,1138.72 913.817,1146 919.447,1138.76 925.077,1158.48 930.707,1142.39 947.598,1134.32 953.228,1137.96 958.859,1141.95 964.489,1139.64 970.119,1154.09 987.01,1141.34 992.64,1139.93 998.271,1143.3 1003.9,1154.98 1009.53,1122.97 1026.42,1109.03 1032.05,1090.75 1037.68,1075.29 1043.31,951.001 1048.94,941.485 1065.83,899.435 1071.46,896.099 1077.09,956.972 1082.72,961.141 1088.36,974.523 1105.25,935.081 1110.88,886.562 1116.51,820.541 1122.14,652.669 1127.77,669.768 1150.29,550.577 1155.92,160.256 1161.55,275.487 1167.18,315.83 1184.07,235.308 1189.7,234.778 1195.33,298.67 1200.96,381.5 1206.59,297.961 1223.48,214.468 1229.11,193.951 1234.74,233.402 1240.37,177.485 1246,191.781 1262.89,228.034 1268.52,201.611 1274.15,201.311 1279.78,217.547 1285.41,245.366 1302.31,208.621 1307.94,224.544 1313.57,223.329 1319.2,222.936 1324.83,227.537 1347.35,229.082 1352.98,260.021 1358.61,270.88 1364.24,272.21 1381.13,250.535 1386.76,264.712 1392.39,316.936 1398.02,333.463 1403.65,339.517 1420.54,356.598 1426.17,341.589 1431.8,344.583 1437.43,338.993 1443.06,332.039 1459.95,330.353 1465.58,339.112 1471.21,346.272 1476.84,343.621 1482.47,342.728 1499.37,342.099 1505,338.809 1510.63,341.5 1516.26,354.224 1521.89,369.113 1538.78,384.393 1544.41,391.562 1550.04,386.054 1555.67,389.312 1561.3,396.703 1578.19,408.233 1583.82,413.078 1589.45,409.291 1595.08,419.935 1600.71,408.512 1617.6,408.512 1623.23,401.919 1628.86,395.787 1634.49,404.507 1640.12,392.493 1657.01,391.261 1662.64,381.031 1668.27,413.635 1673.9,404.625 1679.53,409.134 1702.06,360.766 1707.69,366.034 1713.32,352.408 1718.95,333.013 1735.84,315.482 1741.47,367.266 1747.1,372.968 1752.73,383.019 1758.36,406.816 1775.25,460.857 1780.88,453.321 1786.51,462.814 1792.14,455.089 1797.77,489.52 1814.66,464.482 1820.29,463.648 1825.92,474.879 1831.55,443.154 1837.18,427.46 1854.07,407.466 1859.7,388.926 1865.33,409.67 1870.96,413.909 1876.59,392.137 1893.48,398.169 1899.12,401.135 1904.75,405.013 1910.38,393.309 1916.01,388.634 1932.9,382.555 1938.53,385.732 1944.16,376.966 1949.79,394.484 1955.42,383.708 1972.31,376.749 1977.94,377.018 1983.57,390.142 1989.2,346.068 1994.83,328.109 2011.72,278.728 2017.35,284.642 2022.98,301.73 2028.61,298.863 2034.24,318.875 2051.37,309.542 2057,383.549 2062.63,359.007 2068.26,338.888 2073.89,342.884 2090.78,351.687 2096.41,348.238 2102.04,366.725 2107.67,320.473 2113.3,296.829 2130.19,315.32 2135.82,319.167 2141.45,302.356 2152.71,323.65 2169.6,289.953 2175.23,302.32 2180.86,324.911 2186.49,323.299 2192.12,328.807 2209.01,317.651 2214.65,325.943 2220.28,337.932 2225.91,330.576 2231.54,318.532 2248.43,332.435 2254.06,337.079 2259.69,320.687 2265.32,344.057 2270.95,347.863 2287.84,352.621 2293.47,341.589 "/>
<path clip-path="url(#clip470)" d="M1947.89 270.476 L2282.93 270.476 L2282.93 166.796 L1947.89 166.796  Z" fill="#ffffff" fill-rule="evenodd" fill-opacity="1"/>
<polyline clip-path="url(#clip470)" style="stroke:#000000; stroke-linecap:round; stroke-linejoin:round; stroke-width:4; stroke-opacity:1; fill:none" points="1947.89,270.476 2282.93,270.476 2282.93,166.796 1947.89,166.796 1947.89,270.476 "/>
<polyline clip-path="url(#clip470)" style="stroke:#009af9; stroke-linecap:round; stroke-linejoin:round; stroke-width:12; stroke-opacity:1; fill:none" points="1971.17,218.636 2110.82,218.636 "/>
<path clip-path="url(#clip470)" d="M2134.1 209.99 L2138.61 209.99 L2146.71 231.749 L2154.82 209.99 L2159.33 209.99 L2149.61 235.916 L2143.82 235.916 L2134.1 209.99 Z" fill="#000000" fill-rule="nonzero" fill-opacity="1" /><path clip-path="url(#clip470)" d="M2176.99 222.883 Q2171.83 222.883 2169.84 224.064 Q2167.85 225.244 2167.85 228.092 Q2167.85 230.36 2169.33 231.703 Q2170.83 233.022 2173.4 233.022 Q2176.95 233.022 2179.08 230.522 Q2181.23 227.999 2181.23 223.832 L2181.23 222.883 L2176.99 222.883 M2185.49 221.124 L2185.49 235.916 L2181.23 235.916 L2181.23 231.981 Q2179.77 234.342 2177.59 235.476 Q2175.42 236.587 2172.27 236.587 Q2168.29 236.587 2165.93 234.365 Q2163.59 232.119 2163.59 228.369 Q2163.59 223.994 2166.51 221.772 Q2169.45 219.55 2175.26 219.55 L2181.23 219.55 L2181.23 219.133 Q2181.23 216.194 2179.28 214.596 Q2177.36 212.976 2173.87 212.976 Q2171.64 212.976 2169.54 213.508 Q2167.43 214.041 2165.49 215.106 L2165.49 211.17 Q2167.83 210.268 2170.02 209.828 Q2172.22 209.365 2174.31 209.365 Q2179.93 209.365 2182.71 212.282 Q2185.49 215.198 2185.49 221.124 Z" fill="#000000" fill-rule="nonzero" fill-opacity="1" /><path clip-path="url(#clip470)" d="M2194.26 199.897 L2198.52 199.897 L2198.52 235.916 L2194.26 235.916 L2194.26 199.897 Z" fill="#000000" fill-rule="nonzero" fill-opacity="1" /><path clip-path="url(#clip470)" d="M2206.99 225.684 L2206.99 209.99 L2211.25 209.99 L2211.25 225.522 Q2211.25 229.203 2212.69 231.055 Q2214.12 232.883 2216.99 232.883 Q2220.44 232.883 2222.43 230.684 Q2224.45 228.485 2224.45 224.689 L2224.45 209.99 L2228.7 209.99 L2228.7 235.916 L2224.45 235.916 L2224.45 231.934 Q2222.89 234.295 2220.83 235.453 Q2218.8 236.587 2216.09 236.587 Q2211.62 236.587 2209.31 233.809 Q2206.99 231.031 2206.99 225.684 M2217.71 209.365 L2217.71 209.365 Z" fill="#000000" fill-rule="nonzero" fill-opacity="1" /><path clip-path="url(#clip470)" d="M2259.65 221.888 L2259.65 223.971 L2240.07 223.971 Q2240.35 228.369 2242.71 230.684 Q2245.09 232.976 2249.33 232.976 Q2251.78 232.976 2254.07 232.374 Q2256.39 231.772 2258.66 230.569 L2258.66 234.596 Q2256.37 235.568 2253.96 236.078 Q2251.55 236.587 2249.07 236.587 Q2242.87 236.587 2239.24 232.976 Q2235.63 229.365 2235.63 223.207 Q2235.63 216.842 2239.05 213.115 Q2242.5 209.365 2248.33 209.365 Q2253.57 209.365 2256.6 212.745 Q2259.65 216.101 2259.65 221.888 M2255.39 220.638 Q2255.35 217.143 2253.43 215.059 Q2251.53 212.976 2248.38 212.976 Q2244.82 212.976 2242.66 214.99 Q2240.53 217.004 2240.21 220.661 L2255.39 220.638 Z" fill="#000000" fill-rule="nonzero" fill-opacity="1" /></svg>
