<?xml version="1.0" encoding="utf-8"?>
<svg xmlns="http://www.w3.org/2000/svg" xmlns:xlink="http://www.w3.org/1999/xlink" width="600" height="400" viewBox="0 0 2400 1600">
<defs>
  <clipPath id="clip190">
    <rect x="0" y="0" width="2400" height="1600"/>
  </clipPath>
</defs>
<path clip-path="url(#clip190)" d="M0 1600 L2400 1600 L2400 0 L0 0  Z" fill="#ffffff" fill-rule="evenodd" fill-opacity="1"/>
<defs>
  <clipPath id="clip191">
    <rect x="480" y="0" width="1681" height="1600"/>
  </clipPath>
</defs>
<path clip-path="url(#clip190)" d="M322.875 1423.18 L2352.76 1423.18 L2352.76 123.472 L322.875 123.472  Z" fill="#ffffff" fill-rule="evenodd" fill-opacity="1"/>
<defs>
  <clipPath id="clip192">
    <rect x="322" y="123" width="2031" height="1301"/>
  </clipPath>
</defs>
<polyline clip-path="url(#clip192)" style="stroke:#000000; stroke-linecap:round; stroke-linejoin:round; stroke-width:2; stroke-opacity:0.1; fill:none" points="361.57,1423.18 361.57,123.472 "/>
<polyline clip-path="url(#clip192)" style="stroke:#000000; stroke-linecap:round; stroke-linejoin:round; stroke-width:2; stroke-opacity:0.1; fill:none" points="852.591,1423.18 852.591,123.472 "/>
<polyline clip-path="url(#clip192)" style="stroke:#000000; stroke-linecap:round; stroke-linejoin:round; stroke-width:2; stroke-opacity:0.1; fill:none" points="1349.07,1423.18 1349.07,123.472 "/>
<polyline clip-path="url(#clip192)" style="stroke:#000000; stroke-linecap:round; stroke-linejoin:round; stroke-width:2; stroke-opacity:0.1; fill:none" points="1851,1423.18 1851,123.472 "/>
<polyline clip-path="url(#clip190)" style="stroke:#000000; stroke-linecap:round; stroke-linejoin:round; stroke-width:4; stroke-opacity:1; fill:none" points="322.875,1423.18 2352.76,1423.18 "/>
<polyline clip-path="url(#clip190)" style="stroke:#000000; stroke-linecap:round; stroke-linejoin:round; stroke-width:4; stroke-opacity:1; fill:none" points="361.57,1423.18 361.57,1404.28 "/>
<polyline clip-path="url(#clip190)" style="stroke:#000000; stroke-linecap:round; stroke-linejoin:round; stroke-width:4; stroke-opacity:1; fill:none" points="852.591,1423.18 852.591,1404.28 "/>
<polyline clip-path="url(#clip190)" style="stroke:#000000; stroke-linecap:round; stroke-linejoin:round; stroke-width:4; stroke-opacity:1; fill:none" points="1349.07,1423.18 1349.07,1404.28 "/>
<polyline clip-path="url(#clip190)" style="stroke:#000000; stroke-linecap:round; stroke-linejoin:round; stroke-width:4; stroke-opacity:1; fill:none" points="1851,1423.18 1851,1404.28 "/>
<path clip-path="url(#clip190)" d="M233.365 1481.64 L249.684 1481.64 L249.684 1485.58 L227.74 1485.58 L227.74 1481.64 Q230.402 1478.89 234.985 1474.26 Q239.592 1469.61 240.772 1468.27 Q243.018 1465.74 243.897 1464.01 Q244.8 1462.25 244.8 1460.56 Q244.8 1457.8 242.856 1456.07 Q240.934 1454.33 237.832 1454.33 Q235.633 1454.33 233.18 1455.09 Q230.749 1455.86 227.971 1457.41 L227.971 1452.69 Q230.795 1451.55 233.249 1450.97 Q235.703 1450.39 237.74 1450.39 Q243.11 1450.39 246.305 1453.08 Q249.499 1455.77 249.499 1460.26 Q249.499 1462.39 248.689 1464.31 Q247.902 1466.2 245.795 1468.8 Q245.217 1469.47 242.115 1472.69 Q239.013 1475.88 233.365 1481.64 Z" fill="#000000" fill-rule="nonzero" fill-opacity="1" /><path clip-path="url(#clip190)" d="M269.499 1454.1 Q265.888 1454.1 264.059 1457.66 Q262.254 1461.2 262.254 1468.33 Q262.254 1475.44 264.059 1479.01 Q265.888 1482.55 269.499 1482.55 Q273.133 1482.55 274.939 1479.01 Q276.767 1475.44 276.767 1468.33 Q276.767 1461.2 274.939 1457.66 Q273.133 1454.1 269.499 1454.1 M269.499 1450.39 Q275.309 1450.39 278.365 1455 Q281.443 1459.58 281.443 1468.33 Q281.443 1477.06 278.365 1481.67 Q275.309 1486.25 269.499 1486.25 Q263.689 1486.25 260.61 1481.67 Q257.555 1477.06 257.555 1468.33 Q257.555 1459.58 260.61 1455 Q263.689 1450.39 269.499 1450.39 Z" fill="#000000" fill-rule="nonzero" fill-opacity="1" /><path clip-path="url(#clip190)" d="M293.689 1481.64 L310.008 1481.64 L310.008 1485.58 L288.064 1485.58 L288.064 1481.64 Q290.726 1478.89 295.309 1474.26 Q299.915 1469.61 301.096 1468.27 Q303.341 1465.74 304.221 1464.01 Q305.124 1462.25 305.124 1460.56 Q305.124 1457.8 303.179 1456.07 Q301.258 1454.33 298.156 1454.33 Q295.957 1454.33 293.503 1455.09 Q291.073 1455.86 288.295 1457.41 L288.295 1452.69 Q291.119 1451.55 293.573 1450.97 Q296.027 1450.39 298.064 1450.39 Q303.434 1450.39 306.628 1453.08 Q309.823 1455.77 309.823 1460.26 Q309.823 1462.39 309.013 1464.31 Q308.226 1466.2 306.119 1468.8 Q305.54 1469.47 302.439 1472.69 Q299.337 1475.88 293.689 1481.64 Z" fill="#000000" fill-rule="nonzero" fill-opacity="1" /><path clip-path="url(#clip190)" d="M320.633 1481.64 L328.272 1481.64 L328.272 1455.28 L319.962 1456.95 L319.962 1452.69 L328.225 1451.02 L332.901 1451.02 L332.901 1481.64 L340.54 1481.64 L340.54 1485.58 L320.633 1485.58 L320.633 1481.64 Z" fill="#000000" fill-rule="nonzero" fill-opacity="1" /><path clip-path="url(#clip190)" d="M347.23 1470.7 L359.707 1470.7 L359.707 1474.49 L347.23 1474.49 L347.23 1470.7 Z" fill="#000000" fill-rule="nonzero" fill-opacity="1" /><path clip-path="url(#clip190)" d="M377.091 1454.1 Q373.48 1454.1 371.651 1457.66 Q369.846 1461.2 369.846 1468.33 Q369.846 1475.44 371.651 1479.01 Q373.48 1482.55 377.091 1482.55 Q380.725 1482.55 382.531 1479.01 Q384.359 1475.44 384.359 1468.33 Q384.359 1461.2 382.531 1457.66 Q380.725 1454.1 377.091 1454.1 M377.091 1450.39 Q382.901 1450.39 385.957 1455 Q389.035 1459.58 389.035 1468.33 Q389.035 1477.06 385.957 1481.67 Q382.901 1486.25 377.091 1486.25 Q371.281 1486.25 368.202 1481.67 Q365.147 1477.06 365.147 1468.33 Q365.147 1459.58 368.202 1455 Q371.281 1450.39 377.091 1450.39 Z" fill="#000000" fill-rule="nonzero" fill-opacity="1" /><path clip-path="url(#clip190)" d="M398.063 1481.64 L405.702 1481.64 L405.702 1455.28 L397.392 1456.95 L397.392 1452.69 L405.656 1451.02 L410.331 1451.02 L410.331 1481.64 L417.97 1481.64 L417.97 1485.58 L398.063 1485.58 L398.063 1481.64 Z" fill="#000000" fill-rule="nonzero" fill-opacity="1" /><path clip-path="url(#clip190)" d="M424.66 1470.7 L437.137 1470.7 L437.137 1474.49 L424.66 1474.49 L424.66 1470.7 Z" fill="#000000" fill-rule="nonzero" fill-opacity="1" /><path clip-path="url(#clip190)" d="M454.521 1454.1 Q450.91 1454.1 449.081 1457.66 Q447.276 1461.2 447.276 1468.33 Q447.276 1475.44 449.081 1479.01 Q450.91 1482.55 454.521 1482.55 Q458.155 1482.55 459.961 1479.01 Q461.79 1475.44 461.79 1468.33 Q461.79 1461.2 459.961 1457.66 Q458.155 1454.1 454.521 1454.1 M454.521 1450.39 Q460.331 1450.39 463.387 1455 Q466.465 1459.58 466.465 1468.33 Q466.465 1477.06 463.387 1481.67 Q460.331 1486.25 454.521 1486.25 Q448.711 1486.25 445.632 1481.67 Q442.577 1477.06 442.577 1468.33 Q442.577 1459.58 445.632 1455 Q448.711 1450.39 454.521 1450.39 Z" fill="#000000" fill-rule="nonzero" fill-opacity="1" /><path clip-path="url(#clip190)" d="M475.493 1481.64 L483.132 1481.64 L483.132 1455.28 L474.822 1456.95 L474.822 1452.69 L483.086 1451.02 L487.762 1451.02 L487.762 1481.64 L495.4 1481.64 L495.4 1485.58 L475.493 1485.58 L475.493 1481.64 Z" fill="#000000" fill-rule="nonzero" fill-opacity="1" /><path clip-path="url(#clip190)" d="M724.386 1481.64 L740.705 1481.64 L740.705 1485.58 L718.761 1485.58 L718.761 1481.64 Q721.423 1478.89 726.006 1474.26 Q730.613 1469.61 731.793 1468.27 Q734.039 1465.74 734.918 1464.01 Q735.821 1462.25 735.821 1460.56 Q735.821 1457.8 733.877 1456.07 Q731.955 1454.33 728.853 1454.33 Q726.654 1454.33 724.201 1455.09 Q721.77 1455.86 718.992 1457.41 L718.992 1452.69 Q721.816 1451.55 724.27 1450.97 Q726.724 1450.39 728.761 1450.39 Q734.131 1450.39 737.326 1453.08 Q740.52 1455.77 740.52 1460.26 Q740.52 1462.39 739.71 1464.31 Q738.923 1466.2 736.816 1468.8 Q736.238 1469.47 733.136 1472.69 Q730.034 1475.88 724.386 1481.64 Z" fill="#000000" fill-rule="nonzero" fill-opacity="1" /><path clip-path="url(#clip190)" d="M760.52 1454.1 Q756.909 1454.1 755.08 1457.66 Q753.275 1461.2 753.275 1468.33 Q753.275 1475.44 755.08 1479.01 Q756.909 1482.55 760.52 1482.55 Q764.154 1482.55 765.96 1479.01 Q767.788 1475.44 767.788 1468.33 Q767.788 1461.2 765.96 1457.66 Q764.154 1454.1 760.52 1454.1 M760.52 1450.39 Q766.33 1450.39 769.386 1455 Q772.464 1459.58 772.464 1468.33 Q772.464 1477.06 769.386 1481.67 Q766.33 1486.25 760.52 1486.25 Q754.71 1486.25 751.631 1481.67 Q748.576 1477.06 748.576 1468.33 Q748.576 1459.58 751.631 1455 Q754.71 1450.39 760.52 1450.39 Z" fill="#000000" fill-rule="nonzero" fill-opacity="1" /><path clip-path="url(#clip190)" d="M784.71 1481.64 L801.029 1481.64 L801.029 1485.58 L779.085 1485.58 L779.085 1481.64 Q781.747 1478.89 786.33 1474.26 Q790.936 1469.61 792.117 1468.27 Q794.362 1465.74 795.242 1464.01 Q796.145 1462.25 796.145 1460.56 Q796.145 1457.8 794.2 1456.07 Q792.279 1454.33 789.177 1454.33 Q786.978 1454.33 784.524 1455.09 Q782.094 1455.86 779.316 1457.41 L779.316 1452.69 Q782.14 1451.55 784.594 1450.97 Q787.048 1450.39 789.085 1450.39 Q794.455 1450.39 797.649 1453.08 Q800.844 1455.77 800.844 1460.26 Q800.844 1462.39 800.034 1464.31 Q799.247 1466.2 797.14 1468.8 Q796.561 1469.47 793.46 1472.69 Q790.358 1475.88 784.71 1481.64 Z" fill="#000000" fill-rule="nonzero" fill-opacity="1" /><path clip-path="url(#clip190)" d="M811.654 1481.64 L819.293 1481.64 L819.293 1455.28 L810.983 1456.95 L810.983 1452.69 L819.246 1451.02 L823.922 1451.02 L823.922 1481.64 L831.561 1481.64 L831.561 1485.58 L811.654 1485.58 L811.654 1481.64 Z" fill="#000000" fill-rule="nonzero" fill-opacity="1" /><path clip-path="url(#clip190)" d="M838.251 1470.7 L850.728 1470.7 L850.728 1474.49 L838.251 1474.49 L838.251 1470.7 Z" fill="#000000" fill-rule="nonzero" fill-opacity="1" /><path clip-path="url(#clip190)" d="M868.112 1454.1 Q864.501 1454.1 862.672 1457.66 Q860.867 1461.2 860.867 1468.33 Q860.867 1475.44 862.672 1479.01 Q864.501 1482.55 868.112 1482.55 Q871.746 1482.55 873.552 1479.01 Q875.38 1475.44 875.38 1468.33 Q875.38 1461.2 873.552 1457.66 Q871.746 1454.1 868.112 1454.1 M868.112 1450.39 Q873.922 1450.39 876.978 1455 Q880.056 1459.58 880.056 1468.33 Q880.056 1477.06 876.978 1481.67 Q873.922 1486.25 868.112 1486.25 Q862.302 1486.25 859.223 1481.67 Q856.168 1477.06 856.168 1468.33 Q856.168 1459.58 859.223 1455 Q862.302 1450.39 868.112 1450.39 Z" fill="#000000" fill-rule="nonzero" fill-opacity="1" /><path clip-path="url(#clip190)" d="M901.121 1455.09 L889.316 1473.54 L901.121 1473.54 L901.121 1455.09 M899.894 1451.02 L905.774 1451.02 L905.774 1473.54 L910.704 1473.54 L910.704 1477.43 L905.774 1477.43 L905.774 1485.58 L901.121 1485.58 L901.121 1477.43 L885.519 1477.43 L885.519 1472.92 L899.894 1451.02 Z" fill="#000000" fill-rule="nonzero" fill-opacity="1" /><path clip-path="url(#clip190)" d="M915.681 1470.7 L928.158 1470.7 L928.158 1474.49 L915.681 1474.49 L915.681 1470.7 Z" fill="#000000" fill-rule="nonzero" fill-opacity="1" /><path clip-path="url(#clip190)" d="M945.542 1454.1 Q941.931 1454.1 940.102 1457.66 Q938.297 1461.2 938.297 1468.33 Q938.297 1475.44 940.102 1479.01 Q941.931 1482.55 945.542 1482.55 Q949.176 1482.55 950.982 1479.01 Q952.811 1475.44 952.811 1468.33 Q952.811 1461.2 950.982 1457.66 Q949.176 1454.1 945.542 1454.1 M945.542 1450.39 Q951.352 1450.39 954.408 1455 Q957.486 1459.58 957.486 1468.33 Q957.486 1477.06 954.408 1481.67 Q951.352 1486.25 945.542 1486.25 Q939.732 1486.25 936.653 1481.67 Q933.598 1477.06 933.598 1468.33 Q933.598 1459.58 936.653 1455 Q939.732 1450.39 945.542 1450.39 Z" fill="#000000" fill-rule="nonzero" fill-opacity="1" /><path clip-path="url(#clip190)" d="M966.514 1481.64 L974.153 1481.64 L974.153 1455.28 L965.843 1456.95 L965.843 1452.69 L974.107 1451.02 L978.783 1451.02 L978.783 1481.64 L986.421 1481.64 L986.421 1485.58 L966.514 1485.58 L966.514 1481.64 Z" fill="#000000" fill-rule="nonzero" fill-opacity="1" /><path clip-path="url(#clip190)" d="M1220.86 1481.64 L1237.18 1481.64 L1237.18 1485.58 L1215.24 1485.58 L1215.24 1481.64 Q1217.9 1478.89 1222.48 1474.26 Q1227.09 1469.61 1228.27 1468.27 Q1230.52 1465.74 1231.4 1464.01 Q1232.3 1462.25 1232.3 1460.56 Q1232.3 1457.8 1230.35 1456.07 Q1228.43 1454.33 1225.33 1454.33 Q1223.13 1454.33 1220.68 1455.09 Q1218.25 1455.86 1215.47 1457.41 L1215.47 1452.69 Q1218.29 1451.55 1220.75 1450.97 Q1223.2 1450.39 1225.24 1450.39 Q1230.61 1450.39 1233.8 1453.08 Q1237 1455.77 1237 1460.26 Q1237 1462.39 1236.19 1464.31 Q1235.4 1466.2 1233.29 1468.8 Q1232.71 1469.47 1229.61 1472.69 Q1226.51 1475.88 1220.86 1481.64 Z" fill="#000000" fill-rule="nonzero" fill-opacity="1" /><path clip-path="url(#clip190)" d="M1257 1454.1 Q1253.39 1454.1 1251.56 1457.66 Q1249.75 1461.2 1249.75 1468.33 Q1249.75 1475.44 1251.56 1479.01 Q1253.39 1482.55 1257 1482.55 Q1260.63 1482.55 1262.44 1479.01 Q1264.27 1475.44 1264.27 1468.33 Q1264.27 1461.2 1262.44 1457.66 Q1260.63 1454.1 1257 1454.1 M1257 1450.39 Q1262.81 1450.39 1265.86 1455 Q1268.94 1459.58 1268.94 1468.33 Q1268.94 1477.06 1265.86 1481.67 Q1262.81 1486.25 1257 1486.25 Q1251.19 1486.25 1248.11 1481.67 Q1245.05 1477.06 1245.05 1468.33 Q1245.05 1459.58 1248.11 1455 Q1251.19 1450.39 1257 1450.39 Z" fill="#000000" fill-rule="nonzero" fill-opacity="1" /><path clip-path="url(#clip190)" d="M1281.19 1481.64 L1297.51 1481.64 L1297.51 1485.58 L1275.56 1485.58 L1275.56 1481.64 Q1278.22 1478.89 1282.81 1474.26 Q1287.41 1469.61 1288.59 1468.27 Q1290.84 1465.74 1291.72 1464.01 Q1292.62 1462.25 1292.62 1460.56 Q1292.62 1457.8 1290.68 1456.07 Q1288.76 1454.33 1285.65 1454.33 Q1283.45 1454.33 1281 1455.09 Q1278.57 1455.86 1275.79 1457.41 L1275.79 1452.69 Q1278.62 1451.55 1281.07 1450.97 Q1283.52 1450.39 1285.56 1450.39 Q1290.93 1450.39 1294.13 1453.08 Q1297.32 1455.77 1297.32 1460.26 Q1297.32 1462.39 1296.51 1464.31 Q1295.72 1466.2 1293.62 1468.8 Q1293.04 1469.47 1289.94 1472.69 Q1286.83 1475.88 1281.19 1481.64 Z" fill="#000000" fill-rule="nonzero" fill-opacity="1" /><path clip-path="url(#clip190)" d="M1308.13 1481.64 L1315.77 1481.64 L1315.77 1455.28 L1307.46 1456.95 L1307.46 1452.69 L1315.72 1451.02 L1320.4 1451.02 L1320.4 1481.64 L1328.04 1481.64 L1328.04 1485.58 L1308.13 1485.58 L1308.13 1481.64 Z" fill="#000000" fill-rule="nonzero" fill-opacity="1" /><path clip-path="url(#clip190)" d="M1334.73 1470.7 L1347.2 1470.7 L1347.2 1474.49 L1334.73 1474.49 L1334.73 1470.7 Z" fill="#000000" fill-rule="nonzero" fill-opacity="1" /><path clip-path="url(#clip190)" d="M1364.59 1454.1 Q1360.98 1454.1 1359.15 1457.66 Q1357.34 1461.2 1357.34 1468.33 Q1357.34 1475.44 1359.15 1479.01 Q1360.98 1482.55 1364.59 1482.55 Q1368.22 1482.55 1370.03 1479.01 Q1371.86 1475.44 1371.86 1468.33 Q1371.86 1461.2 1370.03 1457.66 Q1368.22 1454.1 1364.59 1454.1 M1364.59 1450.39 Q1370.4 1450.39 1373.45 1455 Q1376.53 1459.58 1376.53 1468.33 Q1376.53 1477.06 1373.45 1481.67 Q1370.4 1486.25 1364.59 1486.25 Q1358.78 1486.25 1355.7 1481.67 Q1352.64 1477.06 1352.64 1468.33 Q1352.64 1459.58 1355.7 1455 Q1358.78 1450.39 1364.59 1450.39 Z" fill="#000000" fill-rule="nonzero" fill-opacity="1" /><path clip-path="url(#clip190)" d="M1383.57 1451.02 L1405.79 1451.02 L1405.79 1453.01 L1393.25 1485.58 L1388.36 1485.58 L1400.17 1454.96 L1383.57 1454.96 L1383.57 1451.02 Z" fill="#000000" fill-rule="nonzero" fill-opacity="1" /><path clip-path="url(#clip190)" d="M1412.16 1470.7 L1424.63 1470.7 L1424.63 1474.49 L1412.16 1474.49 L1412.16 1470.7 Z" fill="#000000" fill-rule="nonzero" fill-opacity="1" /><path clip-path="url(#clip190)" d="M1442.02 1454.1 Q1438.41 1454.1 1436.58 1457.66 Q1434.77 1461.2 1434.77 1468.33 Q1434.77 1475.44 1436.58 1479.01 Q1438.41 1482.55 1442.02 1482.55 Q1445.65 1482.55 1447.46 1479.01 Q1449.29 1475.44 1449.29 1468.33 Q1449.29 1461.2 1447.46 1457.66 Q1445.65 1454.1 1442.02 1454.1 M1442.02 1450.39 Q1447.83 1450.39 1450.88 1455 Q1453.96 1459.58 1453.96 1468.33 Q1453.96 1477.06 1450.88 1481.67 Q1447.83 1486.25 1442.02 1486.25 Q1436.21 1486.25 1433.13 1481.67 Q1430.07 1477.06 1430.07 1468.33 Q1430.07 1459.58 1433.13 1455 Q1436.21 1450.39 1442.02 1450.39 Z" fill="#000000" fill-rule="nonzero" fill-opacity="1" /><path clip-path="url(#clip190)" d="M1462.99 1481.64 L1470.63 1481.64 L1470.63 1455.28 L1462.32 1456.95 L1462.32 1452.69 L1470.58 1451.02 L1475.26 1451.02 L1475.26 1481.64 L1482.9 1481.64 L1482.9 1485.58 L1462.99 1485.58 L1462.99 1481.64 Z" fill="#000000" fill-rule="nonzero" fill-opacity="1" /><path clip-path="url(#clip190)" d="M1722.8 1481.64 L1739.11 1481.64 L1739.11 1485.58 L1717.17 1485.58 L1717.17 1481.64 Q1719.83 1478.89 1724.42 1474.26 Q1729.02 1469.61 1730.2 1468.27 Q1732.45 1465.74 1733.33 1464.01 Q1734.23 1462.25 1734.23 1460.56 Q1734.23 1457.8 1732.29 1456.07 Q1730.36 1454.33 1727.26 1454.33 Q1725.06 1454.33 1722.61 1455.09 Q1720.18 1455.86 1717.4 1457.41 L1717.4 1452.69 Q1720.23 1451.55 1722.68 1450.97 Q1725.13 1450.39 1727.17 1450.39 Q1732.54 1450.39 1735.74 1453.08 Q1738.93 1455.77 1738.93 1460.26 Q1738.93 1462.39 1738.12 1464.31 Q1737.33 1466.2 1735.23 1468.8 Q1734.65 1469.47 1731.55 1472.69 Q1728.44 1475.88 1722.8 1481.64 Z" fill="#000000" fill-rule="nonzero" fill-opacity="1" /><path clip-path="url(#clip190)" d="M1758.93 1454.1 Q1755.32 1454.1 1753.49 1457.66 Q1751.68 1461.2 1751.68 1468.33 Q1751.68 1475.44 1753.49 1479.01 Q1755.32 1482.55 1758.93 1482.55 Q1762.56 1482.55 1764.37 1479.01 Q1766.2 1475.44 1766.2 1468.33 Q1766.2 1461.2 1764.37 1457.66 Q1762.56 1454.1 1758.93 1454.1 M1758.93 1450.39 Q1764.74 1450.39 1767.8 1455 Q1770.87 1459.58 1770.87 1468.33 Q1770.87 1477.06 1767.8 1481.67 Q1764.74 1486.25 1758.93 1486.25 Q1753.12 1486.25 1750.04 1481.67 Q1746.98 1477.06 1746.98 1468.33 Q1746.98 1459.58 1750.04 1455 Q1753.12 1450.39 1758.93 1450.39 Z" fill="#000000" fill-rule="nonzero" fill-opacity="1" /><path clip-path="url(#clip190)" d="M1783.12 1481.64 L1799.44 1481.64 L1799.44 1485.58 L1777.49 1485.58 L1777.49 1481.64 Q1780.16 1478.89 1784.74 1474.26 Q1789.35 1469.61 1790.53 1468.27 Q1792.77 1465.74 1793.65 1464.01 Q1794.55 1462.25 1794.55 1460.56 Q1794.55 1457.8 1792.61 1456.07 Q1790.69 1454.33 1787.59 1454.33 Q1785.39 1454.33 1782.93 1455.09 Q1780.5 1455.86 1777.73 1457.41 L1777.73 1452.69 Q1780.55 1451.55 1783 1450.97 Q1785.46 1450.39 1787.49 1450.39 Q1792.86 1450.39 1796.06 1453.08 Q1799.25 1455.77 1799.25 1460.26 Q1799.25 1462.39 1798.44 1464.31 Q1797.66 1466.2 1795.55 1468.8 Q1794.97 1469.47 1791.87 1472.69 Q1788.77 1475.88 1783.12 1481.64 Z" fill="#000000" fill-rule="nonzero" fill-opacity="1" /><path clip-path="url(#clip190)" d="M1810.06 1481.64 L1817.7 1481.64 L1817.7 1455.28 L1809.39 1456.95 L1809.39 1452.69 L1817.66 1451.02 L1822.33 1451.02 L1822.33 1481.64 L1829.97 1481.64 L1829.97 1485.58 L1810.06 1485.58 L1810.06 1481.64 Z" fill="#000000" fill-rule="nonzero" fill-opacity="1" /><path clip-path="url(#clip190)" d="M1836.66 1470.7 L1849.14 1470.7 L1849.14 1474.49 L1836.66 1474.49 L1836.66 1470.7 Z" fill="#000000" fill-rule="nonzero" fill-opacity="1" /><path clip-path="url(#clip190)" d="M1857.33 1481.64 L1864.97 1481.64 L1864.97 1455.28 L1856.66 1456.95 L1856.66 1452.69 L1864.92 1451.02 L1869.6 1451.02 L1869.6 1481.64 L1877.24 1481.64 L1877.24 1485.58 L1857.33 1485.58 L1857.33 1481.64 Z" fill="#000000" fill-rule="nonzero" fill-opacity="1" /><path clip-path="url(#clip190)" d="M1896.68 1454.1 Q1893.07 1454.1 1891.24 1457.66 Q1889.44 1461.2 1889.44 1468.33 Q1889.44 1475.44 1891.24 1479.01 Q1893.07 1482.55 1896.68 1482.55 Q1900.32 1482.55 1902.12 1479.01 Q1903.95 1475.44 1903.95 1468.33 Q1903.95 1461.2 1902.12 1457.66 Q1900.32 1454.1 1896.68 1454.1 M1896.68 1450.39 Q1902.49 1450.39 1905.55 1455 Q1908.63 1459.58 1908.63 1468.33 Q1908.63 1477.06 1905.55 1481.67 Q1902.49 1486.25 1896.68 1486.25 Q1890.87 1486.25 1887.79 1481.67 Q1884.74 1477.06 1884.74 1468.33 Q1884.74 1459.58 1887.79 1455 Q1890.87 1450.39 1896.68 1450.39 Z" fill="#000000" fill-rule="nonzero" fill-opacity="1" /><path clip-path="url(#clip190)" d="M1914.09 1470.7 L1926.57 1470.7 L1926.57 1474.49 L1914.09 1474.49 L1914.09 1470.7 Z" fill="#000000" fill-rule="nonzero" fill-opacity="1" /><path clip-path="url(#clip190)" d="M1943.95 1454.1 Q1940.34 1454.1 1938.51 1457.66 Q1936.71 1461.2 1936.71 1468.33 Q1936.71 1475.44 1938.51 1479.01 Q1940.34 1482.55 1943.95 1482.55 Q1947.59 1482.55 1949.39 1479.01 Q1951.22 1475.44 1951.22 1468.33 Q1951.22 1461.2 1949.39 1457.66 Q1947.59 1454.1 1943.95 1454.1 M1943.95 1450.39 Q1949.76 1450.39 1952.82 1455 Q1955.9 1459.58 1955.9 1468.33 Q1955.9 1477.06 1952.82 1481.67 Q1949.76 1486.25 1943.95 1486.25 Q1938.14 1486.25 1935.06 1481.67 Q1932.01 1477.06 1932.01 1468.33 Q1932.01 1459.58 1935.06 1455 Q1938.14 1450.39 1943.95 1450.39 Z" fill="#000000" fill-rule="nonzero" fill-opacity="1" /><path clip-path="url(#clip190)" d="M1964.92 1481.64 L1972.56 1481.64 L1972.56 1455.28 L1964.25 1456.95 L1964.25 1452.69 L1972.52 1451.02 L1977.19 1451.02 L1977.19 1481.64 L1984.83 1481.64 L1984.83 1485.58 L1964.92 1485.58 L1964.92 1481.64 Z" fill="#000000" fill-rule="nonzero" fill-opacity="1" /><path clip-path="url(#clip190)" d="M1293.86 1537.81 L1293.86 1518.52 L1299.72 1518.52 L1299.72 1568.04 L1293.86 1568.04 L1293.86 1562.7 Q1292.01 1565.88 1289.18 1567.44 Q1286.38 1568.97 1282.43 1568.97 Q1275.97 1568.97 1271.9 1563.81 Q1267.86 1558.65 1267.86 1550.25 Q1267.86 1541.85 1271.9 1536.69 Q1275.97 1531.54 1282.43 1531.54 Q1286.38 1531.54 1289.18 1533.1 Q1292.01 1534.62 1293.86 1537.81 M1273.9 1550.25 Q1273.9 1556.71 1276.55 1560.4 Q1279.22 1564.07 1283.87 1564.07 Q1288.51 1564.07 1291.19 1560.4 Q1293.86 1556.71 1293.86 1550.25 Q1293.86 1543.79 1291.19 1540.13 Q1288.51 1536.44 1283.87 1536.44 Q1279.22 1536.44 1276.55 1540.13 Q1273.9 1543.79 1273.9 1550.25 Z" fill="#000000" fill-rule="nonzero" fill-opacity="1" /><path clip-path="url(#clip190)" d="M1327.98 1550.12 Q1320.88 1550.12 1318.15 1551.75 Q1315.41 1553.37 1315.41 1557.29 Q1315.41 1560.4 1317.45 1562.25 Q1319.51 1564.07 1323.05 1564.07 Q1327.92 1564.07 1330.84 1560.63 Q1333.81 1557.16 1333.81 1551.43 L1333.81 1550.12 L1327.98 1550.12 M1339.66 1547.71 L1339.66 1568.04 L1333.81 1568.04 L1333.81 1562.63 Q1331.8 1565.88 1328.81 1567.44 Q1325.82 1568.97 1321.49 1568.97 Q1316.01 1568.97 1312.77 1565.91 Q1309.55 1562.82 1309.55 1557.67 Q1309.55 1551.65 1313.56 1548.6 Q1317.6 1545.54 1325.59 1545.54 L1333.81 1545.54 L1333.81 1544.97 Q1333.81 1540.93 1331.13 1538.73 Q1328.49 1536.5 1323.68 1536.5 Q1320.63 1536.5 1317.73 1537.23 Q1314.84 1537.97 1312.16 1539.43 L1312.16 1534.02 Q1315.38 1532.78 1318.4 1532.17 Q1321.42 1531.54 1324.29 1531.54 Q1332.02 1531.54 1335.84 1535.55 Q1339.66 1539.56 1339.66 1547.71 Z" fill="#000000" fill-rule="nonzero" fill-opacity="1" /><path clip-path="url(#clip190)" d="M1357.52 1522.27 L1357.52 1532.4 L1369.58 1532.4 L1369.58 1536.95 L1357.52 1536.95 L1357.52 1556.3 Q1357.52 1560.66 1358.69 1561.9 Q1359.9 1563.14 1363.56 1563.14 L1369.58 1563.14 L1369.58 1568.04 L1363.56 1568.04 Q1356.79 1568.04 1354.21 1565.53 Q1351.63 1562.98 1351.63 1556.3 L1351.63 1536.95 L1347.33 1536.95 L1347.33 1532.4 L1351.63 1532.4 L1351.63 1522.27 L1357.52 1522.27 Z" fill="#000000" fill-rule="nonzero" fill-opacity="1" /><path clip-path="url(#clip190)" d="M1407.77 1548.76 L1407.77 1551.62 L1380.85 1551.62 Q1381.23 1557.67 1384.48 1560.85 Q1387.75 1564 1393.58 1564 Q1396.95 1564 1400.1 1563.17 Q1403.29 1562.35 1406.41 1560.69 L1406.41 1566.23 Q1403.25 1567.57 1399.94 1568.27 Q1396.63 1568.97 1393.23 1568.97 Q1384.7 1568.97 1379.7 1564 Q1374.74 1559.04 1374.74 1550.57 Q1374.74 1541.82 1379.45 1536.69 Q1384.19 1531.54 1392.21 1531.54 Q1399.4 1531.54 1403.57 1536.18 Q1407.77 1540.8 1407.77 1548.76 M1401.92 1547.04 Q1401.85 1542.23 1399.21 1539.37 Q1396.6 1536.5 1392.27 1536.5 Q1387.37 1536.5 1384.41 1539.27 Q1381.48 1542.04 1381.04 1547.07 L1401.92 1547.04 Z" fill="#000000" fill-rule="nonzero" fill-opacity="1" /><polyline clip-path="url(#clip192)" style="stroke:#000000; stroke-linecap:round; stroke-linejoin:round; stroke-width:2; stroke-opacity:0.1; fill:none" points="322.875,1165.35 2352.76,1165.35 "/>
<polyline clip-path="url(#clip192)" style="stroke:#000000; stroke-linecap:round; stroke-linejoin:round; stroke-width:2; stroke-opacity:0.1; fill:none" points="322.875,884.403 2352.76,884.403 "/>
<polyline clip-path="url(#clip192)" style="stroke:#000000; stroke-linecap:round; stroke-linejoin:round; stroke-width:2; stroke-opacity:0.1; fill:none" points="322.875,603.453 2352.76,603.453 "/>
<polyline clip-path="url(#clip192)" style="stroke:#000000; stroke-linecap:round; stroke-linejoin:round; stroke-width:2; stroke-opacity:0.1; fill:none" points="322.875,322.504 2352.76,322.504 "/>
<polyline clip-path="url(#clip190)" style="stroke:#000000; stroke-linecap:round; stroke-linejoin:round; stroke-width:4; stroke-opacity:1; fill:none" points="322.875,1423.18 322.875,123.472 "/>
<polyline clip-path="url(#clip190)" style="stroke:#000000; stroke-linecap:round; stroke-linejoin:round; stroke-width:4; stroke-opacity:1; fill:none" points="322.875,1165.35 341.773,1165.35 "/>
<polyline clip-path="url(#clip190)" style="stroke:#000000; stroke-linecap:round; stroke-linejoin:round; stroke-width:4; stroke-opacity:1; fill:none" points="322.875,884.403 341.773,884.403 "/>
<polyline clip-path="url(#clip190)" style="stroke:#000000; stroke-linecap:round; stroke-linejoin:round; stroke-width:4; stroke-opacity:1; fill:none" points="322.875,603.453 341.773,603.453 "/>
<polyline clip-path="url(#clip190)" style="stroke:#000000; stroke-linecap:round; stroke-linejoin:round; stroke-width:4; stroke-opacity:1; fill:none" points="322.875,322.504 341.773,322.504 "/>
<path clip-path="url(#clip190)" d="M114.931 1178.7 L122.57 1178.7 L122.57 1152.33 L114.26 1154 L114.26 1149.74 L122.524 1148.07 L127.2 1148.07 L127.2 1178.7 L134.839 1178.7 L134.839 1182.63 L114.931 1182.63 L114.931 1178.7 Z" fill="#000000" fill-rule="nonzero" fill-opacity="1" /><path clip-path="url(#clip190)" d="M154.283 1151.15 Q150.672 1151.15 148.843 1154.72 Q147.038 1158.26 147.038 1165.39 Q147.038 1172.49 148.843 1176.06 Q150.672 1179.6 154.283 1179.6 Q157.917 1179.6 159.723 1176.06 Q161.552 1172.49 161.552 1165.39 Q161.552 1158.26 159.723 1154.72 Q157.917 1151.15 154.283 1151.15 M154.283 1147.45 Q160.093 1147.45 163.149 1152.05 Q166.227 1156.64 166.227 1165.39 Q166.227 1174.11 163.149 1178.72 Q160.093 1183.3 154.283 1183.3 Q148.473 1183.3 145.394 1178.72 Q142.339 1174.11 142.339 1165.39 Q142.339 1156.64 145.394 1152.05 Q148.473 1147.45 154.283 1147.45 Z" fill="#000000" fill-rule="nonzero" fill-opacity="1" /><path clip-path="url(#clip190)" d="M178.473 1178.7 L194.792 1178.7 L194.792 1182.63 L172.848 1182.63 L172.848 1178.7 Q175.51 1175.94 180.093 1171.31 Q184.7 1166.66 185.88 1165.32 Q188.126 1162.79 189.005 1161.06 Q189.908 1159.3 189.908 1157.61 Q189.908 1154.85 187.963 1153.12 Q186.042 1151.38 182.94 1151.38 Q180.741 1151.38 178.288 1152.15 Q175.857 1152.91 173.079 1154.46 L173.079 1149.74 Q175.903 1148.6 178.357 1148.03 Q180.811 1147.45 182.848 1147.45 Q188.218 1147.45 191.413 1150.13 Q194.607 1152.82 194.607 1157.31 Q194.607 1159.44 193.797 1161.36 Q193.01 1163.26 190.903 1165.85 Q190.325 1166.52 187.223 1169.74 Q184.121 1172.93 178.473 1178.7 Z" fill="#000000" fill-rule="nonzero" fill-opacity="1" /><path clip-path="url(#clip190)" d="M214.607 1151.15 Q210.996 1151.15 209.167 1154.72 Q207.362 1158.26 207.362 1165.39 Q207.362 1172.49 209.167 1176.06 Q210.996 1179.6 214.607 1179.6 Q218.241 1179.6 220.047 1176.06 Q221.875 1172.49 221.875 1165.39 Q221.875 1158.26 220.047 1154.72 Q218.241 1151.15 214.607 1151.15 M214.607 1147.45 Q220.417 1147.45 223.473 1152.05 Q226.551 1156.64 226.551 1165.39 Q226.551 1174.11 223.473 1178.72 Q220.417 1183.3 214.607 1183.3 Q208.797 1183.3 205.718 1178.72 Q202.662 1174.11 202.662 1165.39 Q202.662 1156.64 205.718 1152.05 Q208.797 1147.45 214.607 1147.45 Z" fill="#000000" fill-rule="nonzero" fill-opacity="1" /><path clip-path="url(#clip190)" d="M244.769 1151.15 Q241.158 1151.15 239.329 1154.72 Q237.523 1158.26 237.523 1165.39 Q237.523 1172.49 239.329 1176.06 Q241.158 1179.6 244.769 1179.6 Q248.403 1179.6 250.209 1176.06 Q252.037 1172.49 252.037 1165.39 Q252.037 1158.26 250.209 1154.72 Q248.403 1151.15 244.769 1151.15 M244.769 1147.45 Q250.579 1147.45 253.634 1152.05 Q256.713 1156.64 256.713 1165.39 Q256.713 1174.11 253.634 1178.72 Q250.579 1183.3 244.769 1183.3 Q238.959 1183.3 235.88 1178.72 Q232.824 1174.11 232.824 1165.39 Q232.824 1156.64 235.88 1152.05 Q238.959 1147.45 244.769 1147.45 Z" fill="#000000" fill-rule="nonzero" fill-opacity="1" /><path clip-path="url(#clip190)" d="M274.931 1151.15 Q271.32 1151.15 269.491 1154.72 Q267.685 1158.26 267.685 1165.39 Q267.685 1172.49 269.491 1176.06 Q271.32 1179.6 274.931 1179.6 Q278.565 1179.6 280.37 1176.06 Q282.199 1172.49 282.199 1165.39 Q282.199 1158.26 280.37 1154.72 Q278.565 1151.15 274.931 1151.15 M274.931 1147.45 Q280.741 1147.45 283.796 1152.05 Q286.875 1156.64 286.875 1165.39 Q286.875 1174.11 283.796 1178.72 Q280.741 1183.3 274.931 1183.3 Q269.12 1183.3 266.042 1178.72 Q262.986 1174.11 262.986 1165.39 Q262.986 1156.64 266.042 1152.05 Q269.12 1147.45 274.931 1147.45 Z" fill="#000000" fill-rule="nonzero" fill-opacity="1" /><path clip-path="url(#clip190)" d="M114.931 897.747 L122.57 897.747 L122.57 871.382 L114.26 873.049 L114.26 868.789 L122.524 867.123 L127.2 867.123 L127.2 897.747 L134.839 897.747 L134.839 901.683 L114.931 901.683 L114.931 897.747 Z" fill="#000000" fill-rule="nonzero" fill-opacity="1" /><path clip-path="url(#clip190)" d="M154.283 870.201 Q150.672 870.201 148.843 873.766 Q147.038 877.308 147.038 884.437 Q147.038 891.544 148.843 895.109 Q150.672 898.65 154.283 898.65 Q157.917 898.65 159.723 895.109 Q161.552 891.544 161.552 884.437 Q161.552 877.308 159.723 873.766 Q157.917 870.201 154.283 870.201 M154.283 866.498 Q160.093 866.498 163.149 871.104 Q166.227 875.687 166.227 884.437 Q166.227 893.164 163.149 897.771 Q160.093 902.354 154.283 902.354 Q148.473 902.354 145.394 897.771 Q142.339 893.164 142.339 884.437 Q142.339 875.687 145.394 871.104 Q148.473 866.498 154.283 866.498 Z" fill="#000000" fill-rule="nonzero" fill-opacity="1" /><path clip-path="url(#clip190)" d="M174.491 867.123 L192.848 867.123 L192.848 871.058 L178.774 871.058 L178.774 879.53 Q179.792 879.183 180.811 879.021 Q181.829 878.836 182.848 878.836 Q188.635 878.836 192.014 882.007 Q195.394 885.178 195.394 890.595 Q195.394 896.173 191.922 899.275 Q188.45 902.354 182.13 902.354 Q179.954 902.354 177.686 901.984 Q175.44 901.613 173.033 900.872 L173.033 896.173 Q175.116 897.308 177.339 897.863 Q179.561 898.419 182.038 898.419 Q186.042 898.419 188.38 896.312 Q190.718 894.206 190.718 890.595 Q190.718 886.984 188.38 884.877 Q186.042 882.771 182.038 882.771 Q180.163 882.771 178.288 883.187 Q176.436 883.604 174.491 884.484 L174.491 867.123 Z" fill="#000000" fill-rule="nonzero" fill-opacity="1" /><path clip-path="url(#clip190)" d="M214.607 870.201 Q210.996 870.201 209.167 873.766 Q207.362 877.308 207.362 884.437 Q207.362 891.544 209.167 895.109 Q210.996 898.65 214.607 898.65 Q218.241 898.65 220.047 895.109 Q221.875 891.544 221.875 884.437 Q221.875 877.308 220.047 873.766 Q218.241 870.201 214.607 870.201 M214.607 866.498 Q220.417 866.498 223.473 871.104 Q226.551 875.687 226.551 884.437 Q226.551 893.164 223.473 897.771 Q220.417 902.354 214.607 902.354 Q208.797 902.354 205.718 897.771 Q202.662 893.164 202.662 884.437 Q202.662 875.687 205.718 871.104 Q208.797 866.498 214.607 866.498 Z" fill="#000000" fill-rule="nonzero" fill-opacity="1" /><path clip-path="url(#clip190)" d="M244.769 870.201 Q241.158 870.201 239.329 873.766 Q237.523 877.308 237.523 884.437 Q237.523 891.544 239.329 895.109 Q241.158 898.65 244.769 898.65 Q248.403 898.65 250.209 895.109 Q252.037 891.544 252.037 884.437 Q252.037 877.308 250.209 873.766 Q248.403 870.201 244.769 870.201 M244.769 866.498 Q250.579 866.498 253.634 871.104 Q256.713 875.687 256.713 884.437 Q256.713 893.164 253.634 897.771 Q250.579 902.354 244.769 902.354 Q238.959 902.354 235.88 897.771 Q232.824 893.164 232.824 884.437 Q232.824 875.687 235.88 871.104 Q238.959 866.498 244.769 866.498 Z" fill="#000000" fill-rule="nonzero" fill-opacity="1" /><path clip-path="url(#clip190)" d="M274.931 870.201 Q271.32 870.201 269.491 873.766 Q267.685 877.308 267.685 884.437 Q267.685 891.544 269.491 895.109 Q271.32 898.65 274.931 898.65 Q278.565 898.65 280.37 895.109 Q282.199 891.544 282.199 884.437 Q282.199 877.308 280.37 873.766 Q278.565 870.201 274.931 870.201 M274.931 866.498 Q280.741 866.498 283.796 871.104 Q286.875 875.687 286.875 884.437 Q286.875 893.164 283.796 897.771 Q280.741 902.354 274.931 902.354 Q269.12 902.354 266.042 897.771 Q262.986 893.164 262.986 884.437 Q262.986 875.687 266.042 871.104 Q269.12 866.498 274.931 866.498 Z" fill="#000000" fill-rule="nonzero" fill-opacity="1" /><path clip-path="url(#clip190)" d="M114.931 616.798 L122.57 616.798 L122.57 590.433 L114.26 592.099 L114.26 587.84 L122.524 586.173 L127.2 586.173 L127.2 616.798 L134.839 616.798 L134.839 620.733 L114.931 620.733 L114.931 616.798 Z" fill="#000000" fill-rule="nonzero" fill-opacity="1" /><path clip-path="url(#clip190)" d="M154.283 589.252 Q150.672 589.252 148.843 592.817 Q147.038 596.358 147.038 603.488 Q147.038 610.594 148.843 614.159 Q150.672 617.701 154.283 617.701 Q157.917 617.701 159.723 614.159 Q161.552 610.594 161.552 603.488 Q161.552 596.358 159.723 592.817 Q157.917 589.252 154.283 589.252 M154.283 585.548 Q160.093 585.548 163.149 590.155 Q166.227 594.738 166.227 603.488 Q166.227 612.215 163.149 616.821 Q160.093 621.405 154.283 621.405 Q148.473 621.405 145.394 616.821 Q142.339 612.215 142.339 603.488 Q142.339 594.738 145.394 590.155 Q148.473 585.548 154.283 585.548 Z" fill="#000000" fill-rule="nonzero" fill-opacity="1" /><path clip-path="url(#clip190)" d="M184.445 604.321 Q181.112 604.321 179.19 606.104 Q177.292 607.886 177.292 611.011 Q177.292 614.136 179.19 615.918 Q181.112 617.701 184.445 617.701 Q187.778 617.701 189.7 615.918 Q191.621 614.113 191.621 611.011 Q191.621 607.886 189.7 606.104 Q187.801 604.321 184.445 604.321 M179.769 602.331 Q176.76 601.59 175.07 599.53 Q173.403 597.47 173.403 594.507 Q173.403 590.363 176.343 587.956 Q179.306 585.548 184.445 585.548 Q189.607 585.548 192.547 587.956 Q195.487 590.363 195.487 594.507 Q195.487 597.47 193.797 599.53 Q192.13 601.59 189.144 602.331 Q192.524 603.118 194.399 605.409 Q196.297 607.701 196.297 611.011 Q196.297 616.034 193.218 618.719 Q190.163 621.405 184.445 621.405 Q178.727 621.405 175.649 618.719 Q172.593 616.034 172.593 611.011 Q172.593 607.701 174.491 605.409 Q176.389 603.118 179.769 602.331 M178.056 594.946 Q178.056 597.632 179.723 599.136 Q181.413 600.641 184.445 600.641 Q187.454 600.641 189.144 599.136 Q190.857 597.632 190.857 594.946 Q190.857 592.261 189.144 590.757 Q187.454 589.252 184.445 589.252 Q181.413 589.252 179.723 590.757 Q178.056 592.261 178.056 594.946 Z" fill="#000000" fill-rule="nonzero" fill-opacity="1" /><path clip-path="url(#clip190)" d="M214.607 589.252 Q210.996 589.252 209.167 592.817 Q207.362 596.358 207.362 603.488 Q207.362 610.594 209.167 614.159 Q210.996 617.701 214.607 617.701 Q218.241 617.701 220.047 614.159 Q221.875 610.594 221.875 603.488 Q221.875 596.358 220.047 592.817 Q218.241 589.252 214.607 589.252 M214.607 585.548 Q220.417 585.548 223.473 590.155 Q226.551 594.738 226.551 603.488 Q226.551 612.215 223.473 616.821 Q220.417 621.405 214.607 621.405 Q208.797 621.405 205.718 616.821 Q202.662 612.215 202.662 603.488 Q202.662 594.738 205.718 590.155 Q208.797 585.548 214.607 585.548 Z" fill="#000000" fill-rule="nonzero" fill-opacity="1" /><path clip-path="url(#clip190)" d="M244.769 589.252 Q241.158 589.252 239.329 592.817 Q237.523 596.358 237.523 603.488 Q237.523 610.594 239.329 614.159 Q241.158 617.701 244.769 617.701 Q248.403 617.701 250.209 614.159 Q252.037 610.594 252.037 603.488 Q252.037 596.358 250.209 592.817 Q248.403 589.252 244.769 589.252 M244.769 585.548 Q250.579 585.548 253.634 590.155 Q256.713 594.738 256.713 603.488 Q256.713 612.215 253.634 616.821 Q250.579 621.405 244.769 621.405 Q238.959 621.405 235.88 616.821 Q232.824 612.215 232.824 603.488 Q232.824 594.738 235.88 590.155 Q238.959 585.548 244.769 585.548 Z" fill="#000000" fill-rule="nonzero" fill-opacity="1" /><path clip-path="url(#clip190)" d="M274.931 589.252 Q271.32 589.252 269.491 592.817 Q267.685 596.358 267.685 603.488 Q267.685 610.594 269.491 614.159 Q271.32 617.701 274.931 617.701 Q278.565 617.701 280.37 614.159 Q282.199 610.594 282.199 603.488 Q282.199 596.358 280.37 592.817 Q278.565 589.252 274.931 589.252 M274.931 585.548 Q280.741 585.548 283.796 590.155 Q286.875 594.738 286.875 603.488 Q286.875 612.215 283.796 616.821 Q280.741 621.405 274.931 621.405 Q269.12 621.405 266.042 616.821 Q262.986 612.215 262.986 603.488 Q262.986 594.738 266.042 590.155 Q269.12 585.548 274.931 585.548 Z" fill="#000000" fill-rule="nonzero" fill-opacity="1" /><path clip-path="url(#clip190)" d="M114.931 335.849 L122.57 335.849 L122.57 309.483 L114.26 311.15 L114.26 306.891 L122.524 305.224 L127.2 305.224 L127.2 335.849 L134.839 335.849 L134.839 339.784 L114.931 339.784 L114.931 335.849 Z" fill="#000000" fill-rule="nonzero" fill-opacity="1" /><path clip-path="url(#clip190)" d="M145.093 335.849 L152.732 335.849 L152.732 309.483 L144.422 311.15 L144.422 306.891 L152.686 305.224 L157.362 305.224 L157.362 335.849 L165.001 335.849 L165.001 339.784 L145.093 339.784 L145.093 335.849 Z" fill="#000000" fill-rule="nonzero" fill-opacity="1" /><path clip-path="url(#clip190)" d="M175.255 335.849 L182.894 335.849 L182.894 309.483 L174.584 311.15 L174.584 306.891 L182.848 305.224 L187.524 305.224 L187.524 335.849 L195.163 335.849 L195.163 339.784 L175.255 339.784 L175.255 335.849 Z" fill="#000000" fill-rule="nonzero" fill-opacity="1" /><path clip-path="url(#clip190)" d="M214.607 308.303 Q210.996 308.303 209.167 311.867 Q207.362 315.409 207.362 322.539 Q207.362 329.645 209.167 333.21 Q210.996 336.752 214.607 336.752 Q218.241 336.752 220.047 333.21 Q221.875 329.645 221.875 322.539 Q221.875 315.409 220.047 311.867 Q218.241 308.303 214.607 308.303 M214.607 304.599 Q220.417 304.599 223.473 309.205 Q226.551 313.789 226.551 322.539 Q226.551 331.265 223.473 335.872 Q220.417 340.455 214.607 340.455 Q208.797 340.455 205.718 335.872 Q202.662 331.265 202.662 322.539 Q202.662 313.789 205.718 309.205 Q208.797 304.599 214.607 304.599 Z" fill="#000000" fill-rule="nonzero" fill-opacity="1" /><path clip-path="url(#clip190)" d="M244.769 308.303 Q241.158 308.303 239.329 311.867 Q237.523 315.409 237.523 322.539 Q237.523 329.645 239.329 333.21 Q241.158 336.752 244.769 336.752 Q248.403 336.752 250.209 333.21 Q252.037 329.645 252.037 322.539 Q252.037 315.409 250.209 311.867 Q248.403 308.303 244.769 308.303 M244.769 304.599 Q250.579 304.599 253.634 309.205 Q256.713 313.789 256.713 322.539 Q256.713 331.265 253.634 335.872 Q250.579 340.455 244.769 340.455 Q238.959 340.455 235.88 335.872 Q232.824 331.265 232.824 322.539 Q232.824 313.789 235.88 309.205 Q238.959 304.599 244.769 304.599 Z" fill="#000000" fill-rule="nonzero" fill-opacity="1" /><path clip-path="url(#clip190)" d="M274.931 308.303 Q271.32 308.303 269.491 311.867 Q267.685 315.409 267.685 322.539 Q267.685 329.645 269.491 333.21 Q271.32 336.752 274.931 336.752 Q278.565 336.752 280.37 333.21 Q282.199 329.645 282.199 322.539 Q282.199 315.409 280.37 311.867 Q278.565 308.303 274.931 308.303 M274.931 304.599 Q280.741 304.599 283.796 309.205 Q286.875 313.789 286.875 322.539 Q286.875 331.265 283.796 335.872 Q280.741 340.455 274.931 340.455 Q269.12 340.455 266.042 335.872 Q262.986 331.265 262.986 322.539 Q262.986 313.789 266.042 309.205 Q269.12 304.599 274.931 304.599 Z" fill="#000000" fill-rule="nonzero" fill-opacity="1" /><path clip-path="url(#clip190)" d="M21.7677 1084.27 L39.6235 1084.27 L39.6235 1076.19 Q39.6235 1071.7 37.3 1069.25 Q34.9765 1066.8 30.6797 1066.8 Q26.4147 1066.8 24.0912 1069.25 Q21.7677 1071.7 21.7677 1076.19 L21.7677 1084.27 M16.4842 1090.7 L16.4842 1076.19 Q16.4842 1068.2 20.1126 1064.13 Q23.7092 1060.02 30.6797 1060.02 Q37.7138 1060.02 41.3104 1064.13 Q44.907 1068.2 44.907 1076.19 L44.907 1084.27 L64.0042 1084.27 L64.0042 1090.7 L16.4842 1090.7 Z" fill="#000000" fill-rule="nonzero" fill-opacity="1" /><path clip-path="url(#clip190)" d="M32.4621 1040.16 Q32.4621 1044.87 36.1542 1047.61 Q39.8145 1050.35 46.212 1050.35 Q52.6095 1050.35 56.3017 1047.64 Q59.9619 1044.9 59.9619 1040.16 Q59.9619 1035.48 56.2698 1032.74 Q52.5777 1030.01 46.212 1030.01 Q39.8781 1030.01 36.186 1032.74 Q32.4621 1035.48 32.4621 1040.16 M27.4968 1040.16 Q27.4968 1032.52 32.4621 1028.16 Q37.4273 1023.8 46.212 1023.8 Q54.9649 1023.8 59.9619 1028.16 Q64.9272 1032.52 64.9272 1040.16 Q64.9272 1047.83 59.9619 1052.19 Q54.9649 1056.52 46.212 1056.52 Q37.4273 1056.52 32.4621 1052.19 Q27.4968 1047.83 27.4968 1040.16 Z" fill="#000000" fill-rule="nonzero" fill-opacity="1" /><path clip-path="url(#clip190)" d="M33.8307 993.436 Q33.2578 994.423 33.0032 995.601 Q32.7167 996.746 32.7167 998.147 Q32.7167 1003.11 35.9632 1005.79 Q39.1779 1008.43 45.2253 1008.43 L64.0042 1008.43 L64.0042 1014.32 L28.3562 1014.32 L28.3562 1008.43 L33.8944 1008.43 Q30.6479 1006.58 29.0883 1003.62 Q27.4968 1000.66 27.4968 996.428 Q27.4968 995.823 27.5923 995.091 Q27.656 994.359 27.8151 993.468 L33.8307 993.436 Z" fill="#000000" fill-rule="nonzero" fill-opacity="1" /><path clip-path="url(#clip190)" d="M18.2347 981.501 L28.3562 981.501 L28.3562 969.437 L32.9077 969.437 L32.9077 981.501 L52.2594 981.501 Q56.6199 981.501 57.8613 980.323 Q59.1026 979.113 59.1026 975.453 L59.1026 969.437 L64.0042 969.437 L64.0042 975.453 Q64.0042 982.233 61.4897 984.811 Q58.9434 987.389 52.2594 987.389 L32.9077 987.389 L32.9077 991.686 L28.3562 991.686 L28.3562 987.389 L18.2347 987.389 L18.2347 981.501 Z" fill="#000000" fill-rule="nonzero" fill-opacity="1" /><path clip-path="url(#clip190)" d="M14.479 943.688 L19.3487 943.688 L19.3487 949.29 Q19.3487 952.441 20.6219 953.682 Q21.895 954.892 25.2052 954.892 L28.3562 954.892 L28.3562 945.248 L32.9077 945.248 L32.9077 954.892 L64.0042 954.892 L64.0042 960.78 L32.9077 960.78 L32.9077 966.382 L28.3562 966.382 L28.3562 960.78 L25.8736 960.78 Q19.9216 960.78 17.2162 958.011 Q14.479 955.242 14.479 949.226 L14.479 943.688 Z" fill="#000000" fill-rule="nonzero" fill-opacity="1" /><path clip-path="url(#clip190)" d="M32.4621 924.973 Q32.4621 929.684 36.1542 932.421 Q39.8145 935.158 46.212 935.158 Q52.6095 935.158 56.3017 932.453 Q59.9619 929.715 59.9619 924.973 Q59.9619 920.294 56.2698 917.557 Q52.5777 914.82 46.212 914.82 Q39.8781 914.82 36.186 917.557 Q32.4621 920.294 32.4621 924.973 M27.4968 924.973 Q27.4968 917.334 32.4621 912.974 Q37.4273 908.613 46.212 908.613 Q54.9649 908.613 59.9619 912.974 Q64.9272 917.334 64.9272 924.973 Q64.9272 932.644 59.9619 937.004 Q54.9649 941.333 46.212 941.333 Q37.4273 941.333 32.4621 937.004 Q27.4968 932.644 27.4968 924.973 Z" fill="#000000" fill-rule="nonzero" fill-opacity="1" /><path clip-path="url(#clip190)" d="M14.479 898.905 L14.479 893.049 L64.0042 893.049 L64.0042 898.905 L14.479 898.905 Z" fill="#000000" fill-rule="nonzero" fill-opacity="1" /><path clip-path="url(#clip190)" d="M28.3562 880.795 L28.3562 874.939 L64.0042 874.939 L64.0042 880.795 L28.3562 880.795 M14.479 880.795 L14.479 874.939 L21.895 874.939 L21.895 880.795 L14.479 880.795 Z" fill="#000000" fill-rule="nonzero" fill-opacity="1" /><path clip-path="url(#clip190)" d="M32.4621 848.871 Q32.4621 853.582 36.1542 856.319 Q39.8145 859.056 46.212 859.056 Q52.6095 859.056 56.3017 856.351 Q59.9619 853.613 59.9619 848.871 Q59.9619 844.192 56.2698 841.455 Q52.5777 838.718 46.212 838.718 Q39.8781 838.718 36.186 841.455 Q32.4621 844.192 32.4621 848.871 M27.4968 848.871 Q27.4968 841.232 32.4621 836.872 Q37.4273 832.511 46.212 832.511 Q54.9649 832.511 59.9619 836.872 Q64.9272 841.232 64.9272 848.871 Q64.9272 856.542 59.9619 860.902 Q54.9649 865.231 46.212 865.231 Q37.4273 865.231 32.4621 860.902 Q27.4968 856.542 27.4968 848.871 Z" fill="#000000" fill-rule="nonzero" fill-opacity="1" /><path clip-path="url(#clip190)" d="M64.0042 789.574 L16.4842 807.717 L16.4842 801.001 L56.4926 785.946 L16.4842 770.859 L16.4842 764.175 L64.0042 782.286 L64.0042 789.574 Z" fill="#000000" fill-rule="nonzero" fill-opacity="1" /><path clip-path="url(#clip190)" d="M46.0847 746.351 Q46.0847 753.449 47.7079 756.186 Q49.3312 758.924 53.2461 758.924 Q56.3653 758.924 58.2114 756.887 Q60.0256 754.818 60.0256 751.285 Q60.0256 746.415 56.5881 743.487 Q53.1188 740.527 47.3897 740.527 L46.0847 740.527 L46.0847 746.351 M43.6657 734.67 L64.0042 734.67 L64.0042 740.527 L58.5933 740.527 Q61.8398 742.532 63.3994 745.524 Q64.9272 748.516 64.9272 752.844 Q64.9272 758.319 61.8716 761.565 Q58.7843 764.78 53.6281 764.78 Q47.6125 764.78 44.5569 760.77 Q41.5014 756.727 41.5014 748.738 L41.5014 740.527 L40.9285 740.527 Q36.8862 740.527 34.6901 743.2 Q32.4621 745.842 32.4621 750.648 Q32.4621 753.704 33.1941 756.6 Q33.9262 759.496 35.3903 762.17 L29.9795 762.17 Q28.7381 758.955 28.1334 755.932 Q27.4968 752.908 27.4968 750.043 Q27.4968 742.309 31.5072 738.49 Q35.5176 734.67 43.6657 734.67 Z" fill="#000000" fill-rule="nonzero" fill-opacity="1" /><path clip-path="url(#clip190)" d="M14.479 722.607 L14.479 716.751 L64.0042 716.751 L64.0042 722.607 L14.479 722.607 Z" fill="#000000" fill-rule="nonzero" fill-opacity="1" /><path clip-path="url(#clip190)" d="M49.9359 705.102 L28.3562 705.102 L28.3562 699.245 L49.7131 699.245 Q54.7739 699.245 57.3202 697.272 Q59.8346 695.298 59.8346 691.352 Q59.8346 686.609 56.8109 683.872 Q53.7872 681.103 48.5673 681.103 L28.3562 681.103 L28.3562 675.246 L64.0042 675.246 L64.0042 681.103 L58.5296 681.103 Q61.7762 683.235 63.3676 686.068 Q64.9272 688.869 64.9272 692.593 Q64.9272 698.736 61.1078 701.919 Q57.2883 705.102 49.9359 705.102 M27.4968 690.365 L27.4968 690.365 Z" fill="#000000" fill-rule="nonzero" fill-opacity="1" /><path clip-path="url(#clip190)" d="M44.7161 632.692 L47.5806 632.692 L47.5806 659.619 Q53.6281 659.237 56.8109 655.99 Q59.9619 652.712 59.9619 646.887 Q59.9619 643.513 59.1344 640.362 Q58.3069 637.179 56.6518 634.06 L62.1899 634.06 Q63.5267 637.211 64.227 640.521 Q64.9272 643.832 64.9272 647.237 Q64.9272 655.767 59.9619 660.764 Q54.9967 665.73 46.5303 665.73 Q37.7774 665.73 32.6531 661.019 Q27.4968 656.277 27.4968 648.256 Q27.4968 641.063 32.1438 636.893 Q36.7589 632.692 44.7161 632.692 M42.9973 638.548 Q38.1912 638.612 35.3266 641.253 Q32.4621 643.863 32.4621 648.192 Q32.4621 653.094 35.2312 656.054 Q38.0002 658.982 43.0292 659.428 L42.9973 638.548 Z" fill="#000000" fill-rule="nonzero" fill-opacity="1" /><path clip-path="url(#clip190)" d="M43.5384 605.319 L43.5384 588.163 L48.7583 588.163 L48.7583 605.319 L43.5384 605.319 Z" fill="#000000" fill-rule="nonzero" fill-opacity="1" /><path clip-path="url(#clip190)" d="M16.4842 558.595 L16.4842 552.134 L45.3526 552.134 Q52.9915 552.134 56.3653 549.365 Q59.7073 546.595 59.7073 540.389 Q59.7073 534.214 56.3653 531.445 Q52.9915 528.676 45.3526 528.676 L16.4842 528.676 L16.4842 522.215 L46.1484 522.215 Q55.4423 522.215 60.1847 526.83 Q64.9272 531.413 64.9272 540.389 Q64.9272 549.396 60.1847 554.011 Q55.4423 558.595 46.1484 558.595 L16.4842 558.595 Z" fill="#000000" fill-rule="nonzero" fill-opacity="1" /><path clip-path="url(#clip190)" d="M18.0438 481.665 L24.314 481.665 Q22.5634 485.326 21.704 488.572 Q20.8447 491.819 20.8447 494.842 Q20.8447 500.094 22.8817 502.959 Q24.9187 505.791 28.6745 505.791 Q31.8255 505.791 33.4488 503.913 Q35.0402 502.004 36.0269 496.72 L36.8226 492.837 Q38.1912 485.644 41.6605 482.238 Q45.098 478.801 50.8908 478.801 Q57.7976 478.801 61.3624 483.448 Q64.9272 488.063 64.9272 497.007 Q64.9272 500.38 64.1633 504.2 Q63.3994 507.987 61.9035 512.061 L55.2831 512.061 Q57.4793 508.147 58.5933 504.391 Q59.7073 500.635 59.7073 497.007 Q59.7073 491.5 57.543 488.508 Q55.3786 485.516 51.3682 485.516 Q47.8671 485.516 45.8937 487.681 Q43.9204 489.813 42.9337 494.715 L42.1698 498.63 Q40.7375 505.823 37.682 509.038 Q34.6264 512.252 29.1837 512.252 Q22.8817 512.252 19.2532 507.828 Q15.6248 503.372 15.6248 495.574 Q15.6248 492.232 16.2295 488.763 Q16.8343 485.294 18.0438 481.665 Z" fill="#000000" fill-rule="nonzero" fill-opacity="1" /><path clip-path="url(#clip190)" d="M21.7677 462.345 L58.7206 462.345 L58.7206 454.579 Q58.7206 444.744 54.2646 440.193 Q49.8086 435.609 40.1964 435.609 Q30.6479 435.609 26.2237 440.193 Q21.7677 444.744 21.7677 454.579 L21.7677 462.345 M16.4842 468.775 L16.4842 455.566 Q16.4842 441.752 22.2451 435.291 Q27.9743 428.83 40.1964 428.83 Q52.4822 428.83 58.2432 435.323 Q64.0042 441.816 64.0042 455.566 L64.0042 468.775 L16.4842 468.775 Z" fill="#000000" fill-rule="nonzero" fill-opacity="1" /><path clip-path="url(#clip190)" d="M802.306 18.8205 L802.306 41.5461 L812.595 41.5461 Q818.307 41.5461 821.426 38.5889 Q824.546 35.6318 824.546 30.163 Q824.546 24.7348 821.426 21.7777 Q818.307 18.8205 812.595 18.8205 L802.306 18.8205 M794.123 12.096 L812.595 12.096 Q822.763 12.096 827.948 16.714 Q833.174 21.2916 833.174 30.163 Q833.174 39.1155 827.948 43.6931 Q822.763 48.2706 812.595 48.2706 L802.306 48.2706 L802.306 72.576 L794.123 72.576 L794.123 12.096 Z" fill="#000000" fill-rule="nonzero" fill-opacity="1" /><path clip-path="url(#clip190)" d="M858.452 32.4315 Q852.456 32.4315 848.973 37.1306 Q845.489 41.7891 845.489 49.9314 Q845.489 58.0738 848.932 62.7728 Q852.416 67.4314 858.452 67.4314 Q864.407 67.4314 867.89 62.7323 Q871.374 58.0333 871.374 49.9314 Q871.374 41.8701 867.89 37.1711 Q864.407 32.4315 858.452 32.4315 M858.452 26.1121 Q868.174 26.1121 873.724 32.4315 Q879.273 38.7509 879.273 49.9314 Q879.273 61.0714 873.724 67.4314 Q868.174 73.7508 858.452 73.7508 Q848.689 73.7508 843.139 67.4314 Q837.63 61.0714 837.63 49.9314 Q837.63 38.7509 843.139 32.4315 Q848.689 26.1121 858.452 26.1121 Z" fill="#000000" fill-rule="nonzero" fill-opacity="1" /><path clip-path="url(#clip190)" d="M917.919 34.1734 Q916.663 33.4443 915.164 33.1202 Q913.706 32.7556 911.924 32.7556 Q905.604 32.7556 902.201 36.8875 Q898.839 40.9789 898.839 48.6757 L898.839 72.576 L891.345 72.576 L891.345 27.2059 L898.839 27.2059 L898.839 34.2544 Q901.189 30.1225 904.956 28.1376 Q908.723 26.1121 914.111 26.1121 Q914.881 26.1121 915.812 26.2337 Q916.744 26.3147 917.878 26.5172 L917.919 34.1734 Z" fill="#000000" fill-rule="nonzero" fill-opacity="1" /><path clip-path="url(#clip190)" d="M933.11 14.324 L933.11 27.2059 L948.463 27.2059 L948.463 32.9987 L933.11 32.9987 L933.11 57.6282 Q933.11 63.1779 934.609 64.7578 Q936.148 66.3376 940.807 66.3376 L948.463 66.3376 L948.463 72.576 L940.807 72.576 Q932.178 72.576 928.897 69.3758 Q925.616 66.1351 925.616 57.6282 L925.616 32.9987 L920.147 32.9987 L920.147 27.2059 L925.616 27.2059 L925.616 14.324 L933.11 14.324 Z" fill="#000000" fill-rule="nonzero" fill-opacity="1" /><path clip-path="url(#clip190)" d="M981.235 9.54393 L981.235 15.7418 L974.105 15.7418 Q970.095 15.7418 968.515 17.3622 Q966.975 18.9825 966.975 23.1955 L966.975 27.2059 L979.25 27.2059 L979.25 32.9987 L966.975 32.9987 L966.975 72.576 L959.481 72.576 L959.481 32.9987 L952.352 32.9987 L952.352 27.2059 L959.481 27.2059 L959.481 24.0462 Q959.481 16.471 963.006 13.0277 Q966.53 9.54393 974.186 9.54393 L981.235 9.54393 Z" fill="#000000" fill-rule="nonzero" fill-opacity="1" /><path clip-path="url(#clip190)" d="M1005.05 32.4315 Q999.059 32.4315 995.575 37.1306 Q992.091 41.7891 992.091 49.9314 Q992.091 58.0738 995.534 62.7728 Q999.018 67.4314 1005.05 67.4314 Q1011.01 67.4314 1014.49 62.7323 Q1017.98 58.0333 1017.98 49.9314 Q1017.98 41.8701 1014.49 37.1711 Q1011.01 32.4315 1005.05 32.4315 M1005.05 26.1121 Q1014.78 26.1121 1020.33 32.4315 Q1025.88 38.7509 1025.88 49.9314 Q1025.88 61.0714 1020.33 67.4314 Q1014.78 73.7508 1005.05 73.7508 Q995.291 73.7508 989.741 67.4314 Q984.232 61.0714 984.232 49.9314 Q984.232 38.7509 989.741 32.4315 Q995.291 26.1121 1005.05 26.1121 Z" fill="#000000" fill-rule="nonzero" fill-opacity="1" /><path clip-path="url(#clip190)" d="M1038.23 9.54393 L1045.68 9.54393 L1045.68 72.576 L1038.23 72.576 L1038.23 9.54393 Z" fill="#000000" fill-rule="nonzero" fill-opacity="1" /><path clip-path="url(#clip190)" d="M1061.28 27.2059 L1068.73 27.2059 L1068.73 72.576 L1061.28 72.576 L1061.28 27.2059 M1061.28 9.54393 L1068.73 9.54393 L1068.73 18.9825 L1061.28 18.9825 L1061.28 9.54393 Z" fill="#000000" fill-rule="nonzero" fill-opacity="1" /><path clip-path="url(#clip190)" d="M1101.91 32.4315 Q1095.92 32.4315 1092.43 37.1306 Q1088.95 41.7891 1088.95 49.9314 Q1088.95 58.0738 1092.39 62.7728 Q1095.88 67.4314 1101.91 67.4314 Q1107.87 67.4314 1111.35 62.7323 Q1114.83 58.0333 1114.83 49.9314 Q1114.83 41.8701 1111.35 37.1711 Q1107.87 32.4315 1101.91 32.4315 M1101.91 26.1121 Q1111.63 26.1121 1117.18 32.4315 Q1122.73 38.7509 1122.73 49.9314 Q1122.73 61.0714 1117.18 67.4314 Q1111.63 73.7508 1101.91 73.7508 Q1092.15 73.7508 1086.6 67.4314 Q1081.09 61.0714 1081.09 49.9314 Q1081.09 38.7509 1086.6 32.4315 Q1092.15 26.1121 1101.91 26.1121 Z" fill="#000000" fill-rule="nonzero" fill-opacity="1" /><path clip-path="url(#clip190)" d="M1177.38 72.576 L1154.29 12.096 L1162.84 12.096 L1182 63.0159 L1201.2 12.096 L1209.71 12.096 L1186.66 72.576 L1177.38 72.576 Z" fill="#000000" fill-rule="nonzero" fill-opacity="1" /><path clip-path="url(#clip190)" d="M1232.39 49.7694 Q1223.36 49.7694 1219.87 51.8354 Q1216.39 53.9013 1216.39 58.8839 Q1216.39 62.8538 1218.98 65.2034 Q1221.62 67.5124 1226.11 67.5124 Q1232.31 67.5124 1236.04 63.1374 Q1239.8 58.7219 1239.8 51.4303 L1239.8 49.7694 L1232.39 49.7694 M1247.26 46.6907 L1247.26 72.576 L1239.8 72.576 L1239.8 65.6895 Q1237.25 69.8214 1233.44 71.8063 Q1229.64 73.7508 1224.13 73.7508 Q1217.16 73.7508 1213.03 69.8619 Q1208.94 65.9325 1208.94 59.3701 Q1208.94 51.7138 1214.04 47.825 Q1219.18 43.9361 1229.35 43.9361 L1239.8 43.9361 L1239.8 43.2069 Q1239.8 38.0623 1236.4 35.2672 Q1233.04 32.4315 1226.92 32.4315 Q1223.03 32.4315 1219.35 33.3632 Q1215.66 34.295 1212.26 36.1584 L1212.26 29.2718 Q1216.35 27.692 1220.2 26.9223 Q1224.05 26.1121 1227.69 26.1121 Q1237.54 26.1121 1242.4 31.2163 Q1247.26 36.3204 1247.26 46.6907 Z" fill="#000000" fill-rule="nonzero" fill-opacity="1" /><path clip-path="url(#clip190)" d="M1262.61 9.54393 L1270.06 9.54393 L1270.06 72.576 L1262.61 72.576 L1262.61 9.54393 Z" fill="#000000" fill-rule="nonzero" fill-opacity="1" /><path clip-path="url(#clip190)" d="M1284.89 54.671 L1284.89 27.2059 L1292.34 27.2059 L1292.34 54.3874 Q1292.34 60.8284 1294.86 64.0691 Q1297.37 67.2693 1302.39 67.2693 Q1308.43 67.2693 1311.91 63.421 Q1315.43 59.5726 1315.43 52.9291 L1315.43 27.2059 L1322.89 27.2059 L1322.89 72.576 L1315.43 72.576 L1315.43 65.6084 Q1312.72 69.7404 1309.11 71.7658 Q1305.55 73.7508 1300.81 73.7508 Q1292.99 73.7508 1288.94 68.8897 Q1284.89 64.0286 1284.89 54.671 M1303.65 26.1121 L1303.65 26.1121 Z" fill="#000000" fill-rule="nonzero" fill-opacity="1" /><path clip-path="url(#clip190)" d="M1377.05 48.0275 L1377.05 51.6733 L1342.78 51.6733 Q1343.26 59.3701 1347.4 63.421 Q1351.57 67.4314 1358.98 67.4314 Q1363.28 67.4314 1367.29 66.3781 Q1371.34 65.3249 1375.31 63.2184 L1375.31 70.267 Q1371.3 71.9684 1367.08 72.8596 Q1362.87 73.7508 1358.54 73.7508 Q1347.68 73.7508 1341.32 67.4314 Q1335 61.1119 1335 50.3365 Q1335 39.1965 1341 32.6746 Q1347.03 26.1121 1357.24 26.1121 Q1366.39 26.1121 1371.7 32.0264 Q1377.05 37.9003 1377.05 48.0275 M1369.59 45.84 Q1369.51 39.7232 1366.15 36.0774 Q1362.83 32.4315 1357.32 32.4315 Q1351.08 32.4315 1347.31 35.9558 Q1343.59 39.4801 1343.02 45.8805 L1369.59 45.84 Z" fill="#000000" fill-rule="nonzero" fill-opacity="1" /><path clip-path="url(#clip190)" d="M1391.19 62.2867 L1399.73 62.2867 L1399.73 72.576 L1391.19 72.576 L1391.19 62.2867 M1391.19 29.6769 L1399.73 29.6769 L1399.73 39.9662 L1391.19 39.9662 L1391.19 29.6769 Z" fill="#000000" fill-rule="nonzero" fill-opacity="1" /><path clip-path="url(#clip190)" d="M1443.93 12.096 L1456.12 12.096 L1471.56 53.2532 L1487.07 12.096 L1499.26 12.096 L1499.26 72.576 L1491.28 72.576 L1491.28 19.4686 L1475.69 60.9499 L1467.46 60.9499 L1451.87 19.4686 L1451.87 72.576 L1443.93 72.576 L1443.93 12.096 Z" fill="#000000" fill-rule="nonzero" fill-opacity="1" /><path clip-path="url(#clip190)" d="M1535.8 49.7694 Q1526.77 49.7694 1523.29 51.8354 Q1519.8 53.9013 1519.8 58.8839 Q1519.8 62.8538 1522.39 65.2034 Q1525.03 67.5124 1529.52 67.5124 Q1535.72 67.5124 1539.45 63.1374 Q1543.22 58.7219 1543.22 51.4303 L1543.22 49.7694 L1535.8 49.7694 M1550.67 46.6907 L1550.67 72.576 L1543.22 72.576 L1543.22 65.6895 Q1540.66 69.8214 1536.86 71.8063 Q1533.05 73.7508 1527.54 73.7508 Q1520.57 73.7508 1516.44 69.8619 Q1512.35 65.9325 1512.35 59.3701 Q1512.35 51.7138 1517.45 47.825 Q1522.6 43.9361 1532.77 43.9361 L1543.22 43.9361 L1543.22 43.2069 Q1543.22 38.0623 1539.81 35.2672 Q1536.45 32.4315 1530.33 32.4315 Q1526.45 32.4315 1522.76 33.3632 Q1519.07 34.295 1515.67 36.1584 L1515.67 29.2718 Q1519.76 27.692 1523.61 26.9223 Q1527.46 26.1121 1531.1 26.1121 Q1540.95 26.1121 1545.81 31.2163 Q1550.67 36.3204 1550.67 46.6907 Z" fill="#000000" fill-rule="nonzero" fill-opacity="1" /><path clip-path="url(#clip190)" d="M1592.31 34.1734 Q1591.06 33.4443 1589.56 33.1202 Q1588.1 32.7556 1586.32 32.7556 Q1580 32.7556 1576.6 36.8875 Q1573.23 40.9789 1573.23 48.6757 L1573.23 72.576 L1565.74 72.576 L1565.74 27.2059 L1573.23 27.2059 L1573.23 34.2544 Q1575.58 30.1225 1579.35 28.1376 Q1583.12 26.1121 1588.51 26.1121 Q1589.28 26.1121 1590.21 26.2337 Q1591.14 26.3147 1592.27 26.5172 L1592.31 34.1734 Z" fill="#000000" fill-rule="nonzero" fill-opacity="1" /><path clip-path="url(#clip190)" d="M1599.85 9.54393 L1607.34 9.54393 L1607.34 46.7717 L1629.58 27.2059 L1639.1 27.2059 L1615.04 48.4326 L1640.11 72.576 L1630.39 72.576 L1607.34 50.4176 L1607.34 72.576 L1599.85 72.576 L1599.85 9.54393 Z" fill="#000000" fill-rule="nonzero" fill-opacity="1" /><path clip-path="url(#clip190)" d="M1662.8 32.4315 Q1656.8 32.4315 1653.32 37.1306 Q1649.84 41.7891 1649.84 49.9314 Q1649.84 58.0738 1653.28 62.7728 Q1656.76 67.4314 1662.8 67.4314 Q1668.75 67.4314 1672.24 62.7323 Q1675.72 58.0333 1675.72 49.9314 Q1675.72 41.8701 1672.24 37.1711 Q1668.75 32.4315 1662.8 32.4315 M1662.8 26.1121 Q1672.52 26.1121 1678.07 32.4315 Q1683.62 38.7509 1683.62 49.9314 Q1683.62 61.0714 1678.07 67.4314 Q1672.52 73.7508 1662.8 73.7508 Q1653.04 73.7508 1647.49 67.4314 Q1641.98 61.0714 1641.98 49.9314 Q1641.98 38.7509 1647.49 32.4315 Q1653.04 26.1121 1662.8 26.1121 Z" fill="#000000" fill-rule="nonzero" fill-opacity="1" /><path clip-path="url(#clip190)" d="M1691.64 27.2059 L1699.1 27.2059 L1708.41 62.6108 L1717.69 27.2059 L1726.48 27.2059 L1735.8 62.6108 L1745.07 27.2059 L1752.53 27.2059 L1740.66 72.576 L1731.87 72.576 L1722.1 35.3887 L1712.3 72.576 L1703.51 72.576 L1691.64 27.2059 Z" fill="#000000" fill-rule="nonzero" fill-opacity="1" /><path clip-path="url(#clip190)" d="M1763.83 27.2059 L1771.28 27.2059 L1771.28 72.576 L1763.83 72.576 L1763.83 27.2059 M1763.83 9.54393 L1771.28 9.54393 L1771.28 18.9825 L1763.83 18.9825 L1763.83 9.54393 Z" fill="#000000" fill-rule="nonzero" fill-opacity="1" /><path clip-path="url(#clip190)" d="M1794.25 14.324 L1794.25 27.2059 L1809.6 27.2059 L1809.6 32.9987 L1794.25 32.9987 L1794.25 57.6282 Q1794.25 63.1779 1795.75 64.7578 Q1797.29 66.3376 1801.95 66.3376 L1809.6 66.3376 L1809.6 72.576 L1801.95 72.576 Q1793.32 72.576 1790.04 69.3758 Q1786.76 66.1351 1786.76 57.6282 L1786.76 32.9987 L1781.29 32.9987 L1781.29 27.2059 L1786.76 27.2059 L1786.76 14.324 L1794.25 14.324 Z" fill="#000000" fill-rule="nonzero" fill-opacity="1" /><path clip-path="url(#clip190)" d="M1816.17 27.2059 L1851.57 27.2059 L1851.57 34.0114 L1823.54 66.6212 L1851.57 66.6212 L1851.57 72.576 L1815.15 72.576 L1815.15 65.7705 L1843.19 33.1607 L1816.17 33.1607 L1816.17 27.2059 Z" fill="#000000" fill-rule="nonzero" fill-opacity="1" /><polyline clip-path="url(#clip192)" style="stroke:#009af9; stroke-linecap:round; stroke-linejoin:round; stroke-width:12; stroke-opacity:1; fill:none" points="380.324,1352.65 380.324,1352.65 385.78,1375.42 391.236,1386.4 396.692,1351.69 402.148,1346.93 418.515,1361.47 423.971,1371.8 429.427,1369.94 434.882,1377.7 440.338,1356.56 462.161,1321.8 467.617,1311.26 473.073,1316.36 478.529,1306.78 494.896,1260.72 500.352,1213.18 505.808,996.94 511.263,1113.11 516.719,1115.49 533.087,1084.37 538.542,1079.68 543.998,1065.41 549.454,1055.22 554.91,1039.99 571.277,1005.62 576.733,993.153 582.189,989.749 587.644,1000.46 593.1,999.616 614.923,996.764 620.379,1005.98 625.835,1029.46 631.291,1007.64 647.658,1020.14 653.114,997.222 658.57,974.5 664.025,995.769 669.481,1012.62 685.849,972.278 691.304,963.64 696.76,968.014 702.216,1024.75 707.672,980.118 724.039,964.149 729.495,973.61 734.951,975.623 740.407,967.854 745.862,955.161 762.002,913.17 767.458,931.261 772.914,930.526 778.37,941.462 783.826,938.83 800.193,950.652 805.649,978.445 811.104,1007.22 816.56,965.152 822.016,905.088 838.383,903.92 843.839,906.65 849.295,932.008 854.751,942.324 876.574,928.62 882.03,940.076 887.486,937.829 892.941,931.809 898.397,941.504 914.764,957.795 920.22,918.803 925.676,944.356 931.132,918.773 936.588,904.731 952.955,926.984 958.411,945.814 963.867,916.383 969.322,917.644 974.778,895.565 991.146,895.116 996.601,911.909 1002.06,904.209 1007.51,912.639 1012.97,939.417 1029.34,942.237 1034.79,973.635 1040.25,968.711 1045.7,981.233 1051.16,958.717 1067.53,959.136 1072.98,964.424 1078.44,1006.5 1083.89,953.15 1089.35,916.647 1105.72,873.757 1111.17,880.037 1116.63,896.555 1122.08,890.097 1127.54,892.178 1143.91,894.726 1149.36,907.091 1154.82,879.894 1160.27,805.95 1165.73,777.049 1187.55,726.59 1193.01,632.938 1198.47,645.144 1203.92,641.01 1220.29,615.375 1225.74,612.6 1231.2,618.755 1236.66,627.474 1242.11,649.945 1258.48,644.148 1263.93,658.782 1269.39,670.64 1274.85,654.948 1280.3,654.677 1296.67,661.754 1302.13,657.94 1307.58,647.578 1313.04,653.153 1318.49,655.972 1334.86,642.354 1340.32,652.517 1345.77,662.184 1351.23,657.239 1356.68,636.173 1378.51,647.097 1383.96,645.767 1389.42,675.367 1394.87,634.946 1411.24,620.168 1416.7,621.093 1422.15,609.87 1427.61,610.978 1433.06,634.989 1449.43,679.407 1454.89,638.365 1460.34,631.134 1465.8,638.135 1471.25,614.494 1487.62,601.124 1493.08,623.991 1498.53,672.031 1503.99,682.69 1509.45,616.179 1525.81,573.609 1531.27,534.219 1536.72,541.433 1542.18,549.412 1547.64,572.644 1564,570.688 1569.46,602.766 1574.91,606.169 1580.37,573.936 1585.83,563.545 1602.19,576.732 1607.65,621.968 1613.11,655.346 1618.56,641.136 1624.02,586.554 1640.38,551.148 1645.84,501.826 1651.3,483.011 1656.75,486.427 1662.21,462.108 1678.57,454.124 1684.03,448.341 1689.49,469.545 1694.94,437.998 1700.4,446.053 1722.22,455.708 1727.68,445.709 1733.13,457.861 1738.59,441.086 1754.96,445.206 1760.41,446.404 1765.87,442.892 1771.32,454.492 1776.78,486.75 1793.15,519.854 1798.6,524.008 1804.06,529.163 1809.51,510.417 1814.97,550.425 1831.34,519.435 1836.79,551.728 1842.25,536.846 1847.7,538.746 1853.16,486.939 1869.53,443.891 1874.98,411.683 1880.44,434.097 1885.89,439.378 1891.35,416.316 1907.72,415.618 1913.17,403.1 1918.63,376.831 1924.09,381.774 1929.54,381.798 1945.91,388.347 1951.36,377.023 1956.82,356.43 1962.28,355.12 1967.73,341.862 1984.1,275.613 1989.55,294.635 1995.01,314.887 2000.47,303.284 2005.92,320.209 2022.29,278.888 2027.75,271.081 2033.2,251.905 2038.66,228.528 2044.11,224.7 2060.71,211.618 2066.16,225.139 2071.62,247.407 2077.07,234.411 2082.53,246.691 2098.9,230.05 2104.35,227.098 2109.81,225.27 2115.27,248.178 2120.72,229.358 2137.09,228.448 2142.54,227.359 2148,210.641 2158.91,249.254 2175.28,209.518 2180.73,235.744 2186.19,258.073 2191.65,246.729 2197.1,271.011 2213.47,260.333 2218.93,238.251 2224.38,227.813 2229.84,224.206 2235.29,184.393 2251.66,182.172 2257.12,193.069 2262.57,160.256 2268.03,179.712 2273.48,194.576 2289.85,198.29 2295.31,184.755 "/>
<path clip-path="url(#clip190)" d="M390.538 270.476 L719.081 270.476 L719.081 166.796 L390.538 166.796  Z" fill="#ffffff" fill-rule="evenodd" fill-opacity="1"/>
<polyline clip-path="url(#clip190)" style="stroke:#000000; stroke-linecap:round; stroke-linejoin:round; stroke-width:4; stroke-opacity:1; fill:none" points="390.538,270.476 719.081,270.476 719.081,166.796 390.538,166.796 390.538,270.476 "/>
<polyline clip-path="url(#clip190)" style="stroke:#009af9; stroke-linecap:round; stroke-linejoin:round; stroke-width:12; stroke-opacity:1; fill:none" points="413.092,218.636 548.417,218.636 "/>
<path clip-path="url(#clip190)" d="M570.972 209.99 L575.485 209.99 L583.587 231.749 L591.689 209.99 L596.203 209.99 L586.481 235.916 L580.694 235.916 L570.972 209.99 Z" fill="#000000" fill-rule="nonzero" fill-opacity="1" /><path clip-path="url(#clip190)" d="M613.865 222.883 Q608.703 222.883 606.712 224.064 Q604.721 225.244 604.721 228.092 Q604.721 230.36 606.203 231.703 Q607.707 233.022 610.277 233.022 Q613.819 233.022 615.948 230.522 Q618.101 227.999 618.101 223.832 L618.101 222.883 L613.865 222.883 M622.36 221.124 L622.36 235.916 L618.101 235.916 L618.101 231.981 Q616.643 234.342 614.467 235.476 Q612.291 236.587 609.143 236.587 Q605.161 236.587 602.8 234.365 Q600.462 232.119 600.462 228.369 Q600.462 223.994 603.379 221.772 Q606.319 219.55 612.129 219.55 L618.101 219.55 L618.101 219.133 Q618.101 216.194 616.156 214.596 Q614.235 212.976 610.74 212.976 Q608.518 212.976 606.411 213.508 Q604.305 214.041 602.36 215.106 L602.36 211.17 Q604.698 210.268 606.897 209.828 Q609.096 209.365 611.18 209.365 Q616.805 209.365 619.582 212.282 Q622.36 215.198 622.36 221.124 Z" fill="#000000" fill-rule="nonzero" fill-opacity="1" /><path clip-path="url(#clip190)" d="M631.133 199.897 L635.392 199.897 L635.392 235.916 L631.133 235.916 L631.133 199.897 Z" fill="#000000" fill-rule="nonzero" fill-opacity="1" /><path clip-path="url(#clip190)" d="M643.865 225.684 L643.865 209.99 L648.124 209.99 L648.124 225.522 Q648.124 229.203 649.559 231.055 Q650.994 232.883 653.865 232.883 Q657.314 232.883 659.304 230.684 Q661.318 228.485 661.318 224.689 L661.318 209.99 L665.578 209.99 L665.578 235.916 L661.318 235.916 L661.318 231.934 Q659.767 234.295 657.707 235.453 Q655.67 236.587 652.962 236.587 Q648.494 236.587 646.179 233.809 Q643.865 231.031 643.865 225.684 M654.582 209.365 L654.582 209.365 Z" fill="#000000" fill-rule="nonzero" fill-opacity="1" /><path clip-path="url(#clip190)" d="M696.526 221.888 L696.526 223.971 L676.943 223.971 Q677.221 228.369 679.582 230.684 Q681.966 232.976 686.202 232.976 Q688.656 232.976 690.948 232.374 Q693.263 231.772 695.531 230.569 L695.531 234.596 Q693.239 235.568 690.832 236.078 Q688.425 236.587 685.948 236.587 Q679.744 236.587 676.11 232.976 Q672.499 229.365 672.499 223.207 Q672.499 216.842 675.925 213.115 Q679.374 209.365 685.207 209.365 Q690.438 209.365 693.471 212.745 Q696.526 216.101 696.526 221.888 M692.267 220.638 Q692.221 217.143 690.3 215.059 Q688.401 212.976 685.253 212.976 Q681.689 212.976 679.536 214.99 Q677.406 217.004 677.082 220.661 L692.267 220.638 Z" fill="#000000" fill-rule="nonzero" fill-opacity="1" /></svg>
