<?xml version="1.0" encoding="utf-8"?>
<svg xmlns="http://www.w3.org/2000/svg" xmlns:xlink="http://www.w3.org/1999/xlink" width="600" height="400" viewBox="0 0 2400 1600">
<defs>
  <clipPath id="clip590">
    <rect x="0" y="0" width="2400" height="1600"/>
  </clipPath>
</defs>
<path clip-path="url(#clip590)" d="M0 1600 L2400 1600 L2400 0 L0 0  Z" fill="#ffffff" fill-rule="evenodd" fill-opacity="1"/>
<defs>
  <clipPath id="clip591">
    <rect x="480" y="0" width="1681" height="1600"/>
  </clipPath>
</defs>
<path clip-path="url(#clip590)" d="M203.964 1423.18 L2352.76 1423.18 L2352.76 47.2441 L203.964 47.2441  Z" fill="#ffffff" fill-rule="evenodd" fill-opacity="1"/>
<defs>
  <clipPath id="clip592">
    <rect x="203" y="47" width="2150" height="1377"/>
  </clipPath>
</defs>
<polyline clip-path="url(#clip592)" style="stroke:#000000; stroke-linecap:round; stroke-linejoin:round; stroke-width:2; stroke-opacity:0.1; fill:none" points="244.926,1423.18 244.926,47.2441 "/>
<polyline clip-path="url(#clip592)" style="stroke:#000000; stroke-linecap:round; stroke-linejoin:round; stroke-width:2; stroke-opacity:0.1; fill:none" points="764.711,1423.18 764.711,47.2441 "/>
<polyline clip-path="url(#clip592)" style="stroke:#000000; stroke-linecap:round; stroke-linejoin:round; stroke-width:2; stroke-opacity:0.1; fill:none" points="1290.27,1423.18 1290.27,47.2441 "/>
<polyline clip-path="url(#clip592)" style="stroke:#000000; stroke-linecap:round; stroke-linejoin:round; stroke-width:2; stroke-opacity:0.1; fill:none" points="1821.61,1423.18 1821.61,47.2441 "/>
<polyline clip-path="url(#clip590)" style="stroke:#000000; stroke-linecap:round; stroke-linejoin:round; stroke-width:4; stroke-opacity:1; fill:none" points="203.964,1423.18 2352.76,1423.18 "/>
<polyline clip-path="url(#clip590)" style="stroke:#000000; stroke-linecap:round; stroke-linejoin:round; stroke-width:4; stroke-opacity:1; fill:none" points="244.926,1423.18 244.926,1404.28 "/>
<polyline clip-path="url(#clip590)" style="stroke:#000000; stroke-linecap:round; stroke-linejoin:round; stroke-width:4; stroke-opacity:1; fill:none" points="764.711,1423.18 764.711,1404.28 "/>
<polyline clip-path="url(#clip590)" style="stroke:#000000; stroke-linecap:round; stroke-linejoin:round; stroke-width:4; stroke-opacity:1; fill:none" points="1290.27,1423.18 1290.27,1404.28 "/>
<polyline clip-path="url(#clip590)" style="stroke:#000000; stroke-linecap:round; stroke-linejoin:round; stroke-width:4; stroke-opacity:1; fill:none" points="1821.61,1423.18 1821.61,1404.28 "/>
<path clip-path="url(#clip590)" d="M116.72 1481.64 L133.04 1481.64 L133.04 1485.58 L111.095 1485.58 L111.095 1481.64 Q113.757 1478.89 118.341 1474.26 Q122.947 1469.61 124.128 1468.27 Q126.373 1465.74 127.253 1464.01 Q128.155 1462.25 128.155 1460.56 Q128.155 1457.8 126.211 1456.07 Q124.29 1454.33 121.188 1454.33 Q118.989 1454.33 116.535 1455.09 Q114.104 1455.86 111.327 1457.41 L111.327 1452.69 Q114.151 1451.55 116.604 1450.97 Q119.058 1450.39 121.095 1450.39 Q126.466 1450.39 129.66 1453.08 Q132.854 1455.77 132.854 1460.26 Q132.854 1462.39 132.044 1464.31 Q131.257 1466.2 129.151 1468.8 Q128.572 1469.47 125.47 1472.69 Q122.368 1475.88 116.72 1481.64 Z" fill="#000000" fill-rule="nonzero" fill-opacity="1" /><path clip-path="url(#clip590)" d="M152.854 1454.1 Q149.243 1454.1 147.414 1457.66 Q145.609 1461.2 145.609 1468.33 Q145.609 1475.44 147.414 1479.01 Q149.243 1482.55 152.854 1482.55 Q156.489 1482.55 158.294 1479.01 Q160.123 1475.44 160.123 1468.33 Q160.123 1461.2 158.294 1457.66 Q156.489 1454.1 152.854 1454.1 M152.854 1450.39 Q158.664 1450.39 161.72 1455 Q164.799 1459.58 164.799 1468.33 Q164.799 1477.06 161.72 1481.67 Q158.664 1486.25 152.854 1486.25 Q147.044 1486.25 143.965 1481.67 Q140.91 1477.06 140.91 1468.33 Q140.91 1459.58 143.965 1455 Q147.044 1450.39 152.854 1450.39 Z" fill="#000000" fill-rule="nonzero" fill-opacity="1" /><path clip-path="url(#clip590)" d="M177.044 1481.64 L193.363 1481.64 L193.363 1485.58 L171.419 1485.58 L171.419 1481.64 Q174.081 1478.89 178.664 1474.26 Q183.271 1469.61 184.451 1468.27 Q186.697 1465.74 187.576 1464.01 Q188.479 1462.25 188.479 1460.56 Q188.479 1457.8 186.535 1456.07 Q184.613 1454.33 181.512 1454.33 Q179.312 1454.33 176.859 1455.09 Q174.428 1455.86 171.65 1457.41 L171.65 1452.69 Q174.475 1451.55 176.928 1450.97 Q179.382 1450.39 181.419 1450.39 Q186.789 1450.39 189.984 1453.08 Q193.178 1455.77 193.178 1460.26 Q193.178 1462.39 192.368 1464.31 Q191.581 1466.2 189.474 1468.8 Q188.896 1469.47 185.794 1472.69 Q182.692 1475.88 177.044 1481.64 Z" fill="#000000" fill-rule="nonzero" fill-opacity="1" /><path clip-path="url(#clip590)" d="M203.988 1481.64 L211.627 1481.64 L211.627 1455.28 L203.317 1456.95 L203.317 1452.69 L211.581 1451.02 L216.257 1451.02 L216.257 1481.64 L223.896 1481.64 L223.896 1485.58 L203.988 1485.58 L203.988 1481.64 Z" fill="#000000" fill-rule="nonzero" fill-opacity="1" /><path clip-path="url(#clip590)" d="M230.585 1470.7 L243.062 1470.7 L243.062 1474.49 L230.585 1474.49 L230.585 1470.7 Z" fill="#000000" fill-rule="nonzero" fill-opacity="1" /><path clip-path="url(#clip590)" d="M260.446 1454.1 Q256.835 1454.1 255.007 1457.66 Q253.201 1461.2 253.201 1468.33 Q253.201 1475.44 255.007 1479.01 Q256.835 1482.55 260.446 1482.55 Q264.081 1482.55 265.886 1479.01 Q267.715 1475.44 267.715 1468.33 Q267.715 1461.2 265.886 1457.66 Q264.081 1454.1 260.446 1454.1 M260.446 1450.39 Q266.256 1450.39 269.312 1455 Q272.391 1459.58 272.391 1468.33 Q272.391 1477.06 269.312 1481.67 Q266.256 1486.25 260.446 1486.25 Q254.636 1486.25 251.557 1481.67 Q248.502 1477.06 248.502 1468.33 Q248.502 1459.58 251.557 1455 Q254.636 1450.39 260.446 1450.39 Z" fill="#000000" fill-rule="nonzero" fill-opacity="1" /><path clip-path="url(#clip590)" d="M281.418 1481.64 L289.057 1481.64 L289.057 1455.28 L280.747 1456.95 L280.747 1452.69 L289.011 1451.02 L293.687 1451.02 L293.687 1481.64 L301.326 1481.64 L301.326 1485.58 L281.418 1485.58 L281.418 1481.64 Z" fill="#000000" fill-rule="nonzero" fill-opacity="1" /><path clip-path="url(#clip590)" d="M308.015 1470.7 L320.492 1470.7 L320.492 1474.49 L308.015 1474.49 L308.015 1470.7 Z" fill="#000000" fill-rule="nonzero" fill-opacity="1" /><path clip-path="url(#clip590)" d="M337.876 1454.1 Q334.265 1454.1 332.437 1457.66 Q330.631 1461.2 330.631 1468.33 Q330.631 1475.44 332.437 1479.01 Q334.265 1482.55 337.876 1482.55 Q341.511 1482.55 343.316 1479.01 Q345.145 1475.44 345.145 1468.33 Q345.145 1461.2 343.316 1457.66 Q341.511 1454.1 337.876 1454.1 M337.876 1450.39 Q343.687 1450.39 346.742 1455 Q349.821 1459.58 349.821 1468.33 Q349.821 1477.06 346.742 1481.67 Q343.687 1486.25 337.876 1486.25 Q332.066 1486.25 328.988 1481.67 Q325.932 1477.06 325.932 1468.33 Q325.932 1459.58 328.988 1455 Q332.066 1450.39 337.876 1450.39 Z" fill="#000000" fill-rule="nonzero" fill-opacity="1" /><path clip-path="url(#clip590)" d="M358.849 1481.64 L366.487 1481.64 L366.487 1455.28 L358.177 1456.95 L358.177 1452.69 L366.441 1451.02 L371.117 1451.02 L371.117 1481.64 L378.756 1481.64 L378.756 1485.58 L358.849 1485.58 L358.849 1481.64 Z" fill="#000000" fill-rule="nonzero" fill-opacity="1" /><path clip-path="url(#clip590)" d="M636.505 1481.64 L652.825 1481.64 L652.825 1485.58 L630.881 1485.58 L630.881 1481.64 Q633.543 1478.89 638.126 1474.26 Q642.732 1469.61 643.913 1468.27 Q646.158 1465.74 647.038 1464.01 Q647.941 1462.25 647.941 1460.56 Q647.941 1457.8 645.996 1456.07 Q644.075 1454.33 640.973 1454.33 Q638.774 1454.33 636.32 1455.09 Q633.89 1455.86 631.112 1457.41 L631.112 1452.69 Q633.936 1451.55 636.39 1450.97 Q638.843 1450.39 640.88 1450.39 Q646.251 1450.39 649.445 1453.08 Q652.64 1455.77 652.64 1460.26 Q652.64 1462.39 651.829 1464.31 Q651.042 1466.2 648.936 1468.8 Q648.357 1469.47 645.255 1472.69 Q642.154 1475.88 636.505 1481.64 Z" fill="#000000" fill-rule="nonzero" fill-opacity="1" /><path clip-path="url(#clip590)" d="M672.64 1454.1 Q669.028 1454.1 667.2 1457.66 Q665.394 1461.2 665.394 1468.33 Q665.394 1475.44 667.2 1479.01 Q669.028 1482.55 672.64 1482.55 Q676.274 1482.55 678.079 1479.01 Q679.908 1475.44 679.908 1468.33 Q679.908 1461.2 678.079 1457.66 Q676.274 1454.1 672.64 1454.1 M672.64 1450.39 Q678.45 1450.39 681.505 1455 Q684.584 1459.58 684.584 1468.33 Q684.584 1477.06 681.505 1481.67 Q678.45 1486.25 672.64 1486.25 Q666.829 1486.25 663.751 1481.67 Q660.695 1477.06 660.695 1468.33 Q660.695 1459.58 663.751 1455 Q666.829 1450.39 672.64 1450.39 Z" fill="#000000" fill-rule="nonzero" fill-opacity="1" /><path clip-path="url(#clip590)" d="M696.829 1481.64 L713.149 1481.64 L713.149 1485.58 L691.204 1485.58 L691.204 1481.64 Q693.866 1478.89 698.45 1474.26 Q703.056 1469.61 704.237 1468.27 Q706.482 1465.74 707.362 1464.01 Q708.264 1462.25 708.264 1460.56 Q708.264 1457.8 706.32 1456.07 Q704.399 1454.33 701.297 1454.33 Q699.098 1454.33 696.644 1455.09 Q694.214 1455.86 691.436 1457.41 L691.436 1452.69 Q694.26 1451.55 696.713 1450.97 Q699.167 1450.39 701.204 1450.39 Q706.575 1450.39 709.769 1453.08 Q712.963 1455.77 712.963 1460.26 Q712.963 1462.39 712.153 1464.31 Q711.366 1466.2 709.26 1468.8 Q708.681 1469.47 705.579 1472.69 Q702.477 1475.88 696.829 1481.64 Z" fill="#000000" fill-rule="nonzero" fill-opacity="1" /><path clip-path="url(#clip590)" d="M723.774 1481.64 L731.412 1481.64 L731.412 1455.28 L723.102 1456.95 L723.102 1452.69 L731.366 1451.02 L736.042 1451.02 L736.042 1481.64 L743.681 1481.64 L743.681 1485.58 L723.774 1485.58 L723.774 1481.64 Z" fill="#000000" fill-rule="nonzero" fill-opacity="1" /><path clip-path="url(#clip590)" d="M750.371 1470.7 L762.847 1470.7 L762.847 1474.49 L750.371 1474.49 L750.371 1470.7 Z" fill="#000000" fill-rule="nonzero" fill-opacity="1" /><path clip-path="url(#clip590)" d="M780.232 1454.1 Q776.62 1454.1 774.792 1457.66 Q772.986 1461.2 772.986 1468.33 Q772.986 1475.44 774.792 1479.01 Q776.62 1482.55 780.232 1482.55 Q783.866 1482.55 785.671 1479.01 Q787.5 1475.44 787.5 1468.33 Q787.5 1461.2 785.671 1457.66 Q783.866 1454.1 780.232 1454.1 M780.232 1450.39 Q786.042 1450.39 789.097 1455 Q792.176 1459.58 792.176 1468.33 Q792.176 1477.06 789.097 1481.67 Q786.042 1486.25 780.232 1486.25 Q774.421 1486.25 771.343 1481.67 Q768.287 1477.06 768.287 1468.33 Q768.287 1459.58 771.343 1455 Q774.421 1450.39 780.232 1450.39 Z" fill="#000000" fill-rule="nonzero" fill-opacity="1" /><path clip-path="url(#clip590)" d="M813.241 1455.09 L801.435 1473.54 L813.241 1473.54 L813.241 1455.09 M812.014 1451.02 L817.893 1451.02 L817.893 1473.54 L822.824 1473.54 L822.824 1477.43 L817.893 1477.43 L817.893 1485.58 L813.241 1485.58 L813.241 1477.43 L797.639 1477.43 L797.639 1472.92 L812.014 1451.02 Z" fill="#000000" fill-rule="nonzero" fill-opacity="1" /><path clip-path="url(#clip590)" d="M827.801 1470.7 L840.278 1470.7 L840.278 1474.49 L827.801 1474.49 L827.801 1470.7 Z" fill="#000000" fill-rule="nonzero" fill-opacity="1" /><path clip-path="url(#clip590)" d="M857.662 1454.1 Q854.051 1454.1 852.222 1457.66 Q850.416 1461.2 850.416 1468.33 Q850.416 1475.44 852.222 1479.01 Q854.051 1482.55 857.662 1482.55 Q861.296 1482.55 863.101 1479.01 Q864.93 1475.44 864.93 1468.33 Q864.93 1461.2 863.101 1457.66 Q861.296 1454.1 857.662 1454.1 M857.662 1450.39 Q863.472 1450.39 866.527 1455 Q869.606 1459.58 869.606 1468.33 Q869.606 1477.06 866.527 1481.67 Q863.472 1486.25 857.662 1486.25 Q851.852 1486.25 848.773 1481.67 Q845.717 1477.06 845.717 1468.33 Q845.717 1459.58 848.773 1455 Q851.852 1450.39 857.662 1450.39 Z" fill="#000000" fill-rule="nonzero" fill-opacity="1" /><path clip-path="url(#clip590)" d="M878.634 1481.64 L886.273 1481.64 L886.273 1455.28 L877.963 1456.95 L877.963 1452.69 L886.226 1451.02 L890.902 1451.02 L890.902 1481.64 L898.541 1481.64 L898.541 1485.58 L878.634 1485.58 L878.634 1481.64 Z" fill="#000000" fill-rule="nonzero" fill-opacity="1" /><path clip-path="url(#clip590)" d="M1162.07 1481.64 L1178.39 1481.64 L1178.39 1485.58 L1156.44 1485.58 L1156.44 1481.64 Q1159.1 1478.89 1163.69 1474.26 Q1168.29 1469.61 1169.47 1468.27 Q1171.72 1465.74 1172.6 1464.01 Q1173.5 1462.25 1173.5 1460.56 Q1173.5 1457.8 1171.56 1456.07 Q1169.64 1454.33 1166.53 1454.33 Q1164.33 1454.33 1161.88 1455.09 Q1159.45 1455.86 1156.67 1457.41 L1156.67 1452.69 Q1159.5 1451.55 1161.95 1450.97 Q1164.4 1450.39 1166.44 1450.39 Q1171.81 1450.39 1175.01 1453.08 Q1178.2 1455.77 1178.2 1460.26 Q1178.2 1462.39 1177.39 1464.31 Q1176.6 1466.2 1174.5 1468.8 Q1173.92 1469.47 1170.82 1472.69 Q1167.71 1475.88 1162.07 1481.64 Z" fill="#000000" fill-rule="nonzero" fill-opacity="1" /><path clip-path="url(#clip590)" d="M1198.2 1454.1 Q1194.59 1454.1 1192.76 1457.66 Q1190.95 1461.2 1190.95 1468.33 Q1190.95 1475.44 1192.76 1479.01 Q1194.59 1482.55 1198.2 1482.55 Q1201.83 1482.55 1203.64 1479.01 Q1205.47 1475.44 1205.47 1468.33 Q1205.47 1461.2 1203.64 1457.66 Q1201.83 1454.1 1198.2 1454.1 M1198.2 1450.39 Q1204.01 1450.39 1207.07 1455 Q1210.14 1459.58 1210.14 1468.33 Q1210.14 1477.06 1207.07 1481.67 Q1204.01 1486.25 1198.2 1486.25 Q1192.39 1486.25 1189.31 1481.67 Q1186.26 1477.06 1186.26 1468.33 Q1186.26 1459.58 1189.31 1455 Q1192.39 1450.39 1198.2 1450.39 Z" fill="#000000" fill-rule="nonzero" fill-opacity="1" /><path clip-path="url(#clip590)" d="M1222.39 1481.64 L1238.71 1481.64 L1238.71 1485.58 L1216.76 1485.58 L1216.76 1481.64 Q1219.43 1478.89 1224.01 1474.26 Q1228.62 1469.61 1229.8 1468.27 Q1232.04 1465.74 1232.92 1464.01 Q1233.83 1462.25 1233.83 1460.56 Q1233.83 1457.8 1231.88 1456.07 Q1229.96 1454.33 1226.86 1454.33 Q1224.66 1454.33 1222.2 1455.09 Q1219.77 1455.86 1217 1457.41 L1217 1452.69 Q1219.82 1451.55 1222.27 1450.97 Q1224.73 1450.39 1226.76 1450.39 Q1232.14 1450.39 1235.33 1453.08 Q1238.52 1455.77 1238.52 1460.26 Q1238.52 1462.39 1237.71 1464.31 Q1236.93 1466.2 1234.82 1468.8 Q1234.24 1469.47 1231.14 1472.69 Q1228.04 1475.88 1222.39 1481.64 Z" fill="#000000" fill-rule="nonzero" fill-opacity="1" /><path clip-path="url(#clip590)" d="M1249.33 1481.64 L1256.97 1481.64 L1256.97 1455.28 L1248.66 1456.95 L1248.66 1452.69 L1256.93 1451.02 L1261.6 1451.02 L1261.6 1481.64 L1269.24 1481.64 L1269.24 1485.58 L1249.33 1485.58 L1249.33 1481.64 Z" fill="#000000" fill-rule="nonzero" fill-opacity="1" /><path clip-path="url(#clip590)" d="M1275.93 1470.7 L1288.41 1470.7 L1288.41 1474.49 L1275.93 1474.49 L1275.93 1470.7 Z" fill="#000000" fill-rule="nonzero" fill-opacity="1" /><path clip-path="url(#clip590)" d="M1305.79 1454.1 Q1302.18 1454.1 1300.35 1457.66 Q1298.55 1461.2 1298.55 1468.33 Q1298.55 1475.44 1300.35 1479.01 Q1302.18 1482.55 1305.79 1482.55 Q1309.43 1482.55 1311.23 1479.01 Q1313.06 1475.44 1313.06 1468.33 Q1313.06 1461.2 1311.23 1457.66 Q1309.43 1454.1 1305.79 1454.1 M1305.79 1450.39 Q1311.6 1450.39 1314.66 1455 Q1317.74 1459.58 1317.74 1468.33 Q1317.74 1477.06 1314.66 1481.67 Q1311.6 1486.25 1305.79 1486.25 Q1299.98 1486.25 1296.9 1481.67 Q1293.85 1477.06 1293.85 1468.33 Q1293.85 1459.58 1296.9 1455 Q1299.98 1450.39 1305.79 1450.39 Z" fill="#000000" fill-rule="nonzero" fill-opacity="1" /><path clip-path="url(#clip590)" d="M1324.77 1451.02 L1347 1451.02 L1347 1453.01 L1334.45 1485.58 L1329.57 1485.58 L1341.37 1454.96 L1324.77 1454.96 L1324.77 1451.02 Z" fill="#000000" fill-rule="nonzero" fill-opacity="1" /><path clip-path="url(#clip590)" d="M1353.36 1470.7 L1365.84 1470.7 L1365.84 1474.49 L1353.36 1474.49 L1353.36 1470.7 Z" fill="#000000" fill-rule="nonzero" fill-opacity="1" /><path clip-path="url(#clip590)" d="M1383.22 1454.1 Q1379.61 1454.1 1377.78 1457.66 Q1375.98 1461.2 1375.98 1468.33 Q1375.98 1475.44 1377.78 1479.01 Q1379.61 1482.55 1383.22 1482.55 Q1386.86 1482.55 1388.66 1479.01 Q1390.49 1475.44 1390.49 1468.33 Q1390.49 1461.2 1388.66 1457.66 Q1386.86 1454.1 1383.22 1454.1 M1383.22 1450.39 Q1389.03 1450.39 1392.09 1455 Q1395.17 1459.58 1395.17 1468.33 Q1395.17 1477.06 1392.09 1481.67 Q1389.03 1486.25 1383.22 1486.25 Q1377.41 1486.25 1374.33 1481.67 Q1371.28 1477.06 1371.28 1468.33 Q1371.28 1459.58 1374.33 1455 Q1377.41 1450.39 1383.22 1450.39 Z" fill="#000000" fill-rule="nonzero" fill-opacity="1" /><path clip-path="url(#clip590)" d="M1404.19 1481.64 L1411.83 1481.64 L1411.83 1455.28 L1403.52 1456.95 L1403.52 1452.69 L1411.79 1451.02 L1416.46 1451.02 L1416.46 1481.64 L1424.1 1481.64 L1424.1 1485.58 L1404.19 1485.58 L1404.19 1481.64 Z" fill="#000000" fill-rule="nonzero" fill-opacity="1" /><path clip-path="url(#clip590)" d="M1693.4 1481.64 L1709.72 1481.64 L1709.72 1485.58 L1687.78 1485.58 L1687.78 1481.64 Q1690.44 1478.89 1695.02 1474.26 Q1699.63 1469.61 1700.81 1468.27 Q1703.05 1465.74 1703.93 1464.01 Q1704.84 1462.25 1704.84 1460.56 Q1704.84 1457.8 1702.89 1456.07 Q1700.97 1454.33 1697.87 1454.33 Q1695.67 1454.33 1693.22 1455.09 Q1690.79 1455.86 1688.01 1457.41 L1688.01 1452.69 Q1690.83 1451.55 1693.29 1450.97 Q1695.74 1450.39 1697.78 1450.39 Q1703.15 1450.39 1706.34 1453.08 Q1709.54 1455.77 1709.54 1460.26 Q1709.54 1462.39 1708.73 1464.31 Q1707.94 1466.2 1705.83 1468.8 Q1705.25 1469.47 1702.15 1472.69 Q1699.05 1475.88 1693.4 1481.64 Z" fill="#000000" fill-rule="nonzero" fill-opacity="1" /><path clip-path="url(#clip590)" d="M1729.54 1454.1 Q1725.93 1454.1 1724.1 1457.66 Q1722.29 1461.2 1722.29 1468.33 Q1722.29 1475.44 1724.1 1479.01 Q1725.93 1482.55 1729.54 1482.55 Q1733.17 1482.55 1734.98 1479.01 Q1736.8 1475.44 1736.8 1468.33 Q1736.8 1461.2 1734.98 1457.66 Q1733.17 1454.1 1729.54 1454.1 M1729.54 1450.39 Q1735.35 1450.39 1738.4 1455 Q1741.48 1459.58 1741.48 1468.33 Q1741.48 1477.06 1738.4 1481.67 Q1735.35 1486.25 1729.54 1486.25 Q1723.73 1486.25 1720.65 1481.67 Q1717.59 1477.06 1717.59 1468.33 Q1717.59 1459.58 1720.65 1455 Q1723.73 1450.39 1729.54 1450.39 Z" fill="#000000" fill-rule="nonzero" fill-opacity="1" /><path clip-path="url(#clip590)" d="M1753.73 1481.64 L1770.05 1481.64 L1770.05 1485.58 L1748.1 1485.58 L1748.1 1481.64 Q1750.76 1478.89 1755.35 1474.26 Q1759.95 1469.61 1761.13 1468.27 Q1763.38 1465.74 1764.26 1464.01 Q1765.16 1462.25 1765.16 1460.56 Q1765.16 1457.8 1763.22 1456.07 Q1761.3 1454.33 1758.19 1454.33 Q1755.99 1454.33 1753.54 1455.09 Q1751.11 1455.86 1748.33 1457.41 L1748.33 1452.69 Q1751.16 1451.55 1753.61 1450.97 Q1756.06 1450.39 1758.1 1450.39 Q1763.47 1450.39 1766.67 1453.08 Q1769.86 1455.77 1769.86 1460.26 Q1769.86 1462.39 1769.05 1464.31 Q1768.26 1466.2 1766.16 1468.8 Q1765.58 1469.47 1762.48 1472.69 Q1759.37 1475.88 1753.73 1481.64 Z" fill="#000000" fill-rule="nonzero" fill-opacity="1" /><path clip-path="url(#clip590)" d="M1780.67 1481.64 L1788.31 1481.64 L1788.31 1455.28 L1780 1456.95 L1780 1452.69 L1788.26 1451.02 L1792.94 1451.02 L1792.94 1481.64 L1800.58 1481.64 L1800.58 1485.58 L1780.67 1485.58 L1780.67 1481.64 Z" fill="#000000" fill-rule="nonzero" fill-opacity="1" /><path clip-path="url(#clip590)" d="M1807.27 1470.7 L1819.74 1470.7 L1819.74 1474.49 L1807.27 1474.49 L1807.27 1470.7 Z" fill="#000000" fill-rule="nonzero" fill-opacity="1" /><path clip-path="url(#clip590)" d="M1827.94 1481.64 L1835.58 1481.64 L1835.58 1455.28 L1827.27 1456.95 L1827.27 1452.69 L1835.53 1451.02 L1840.21 1451.02 L1840.21 1481.64 L1847.85 1481.64 L1847.85 1485.58 L1827.94 1485.58 L1827.94 1481.64 Z" fill="#000000" fill-rule="nonzero" fill-opacity="1" /><path clip-path="url(#clip590)" d="M1867.29 1454.1 Q1863.68 1454.1 1861.85 1457.66 Q1860.04 1461.2 1860.04 1468.33 Q1860.04 1475.44 1861.85 1479.01 Q1863.68 1482.55 1867.29 1482.55 Q1870.92 1482.55 1872.73 1479.01 Q1874.56 1475.44 1874.56 1468.33 Q1874.56 1461.2 1872.73 1457.66 Q1870.92 1454.1 1867.29 1454.1 M1867.29 1450.39 Q1873.1 1450.39 1876.16 1455 Q1879.23 1459.58 1879.23 1468.33 Q1879.23 1477.06 1876.16 1481.67 Q1873.1 1486.25 1867.29 1486.25 Q1861.48 1486.25 1858.4 1481.67 Q1855.35 1477.06 1855.35 1468.33 Q1855.35 1459.58 1858.4 1455 Q1861.48 1450.39 1867.29 1450.39 Z" fill="#000000" fill-rule="nonzero" fill-opacity="1" /><path clip-path="url(#clip590)" d="M1884.7 1470.7 L1897.17 1470.7 L1897.17 1474.49 L1884.7 1474.49 L1884.7 1470.7 Z" fill="#000000" fill-rule="nonzero" fill-opacity="1" /><path clip-path="url(#clip590)" d="M1914.56 1454.1 Q1910.95 1454.1 1909.12 1457.66 Q1907.31 1461.2 1907.31 1468.33 Q1907.31 1475.44 1909.12 1479.01 Q1910.95 1482.55 1914.56 1482.55 Q1918.19 1482.55 1920 1479.01 Q1921.83 1475.44 1921.83 1468.33 Q1921.83 1461.2 1920 1457.66 Q1918.19 1454.1 1914.56 1454.1 M1914.56 1450.39 Q1920.37 1450.39 1923.42 1455 Q1926.5 1459.58 1926.5 1468.33 Q1926.5 1477.06 1923.42 1481.67 Q1920.37 1486.25 1914.56 1486.25 Q1908.75 1486.25 1905.67 1481.67 Q1902.61 1477.06 1902.61 1468.33 Q1902.61 1459.58 1905.67 1455 Q1908.75 1450.39 1914.56 1450.39 Z" fill="#000000" fill-rule="nonzero" fill-opacity="1" /><path clip-path="url(#clip590)" d="M1935.53 1481.64 L1943.17 1481.64 L1943.17 1455.28 L1934.86 1456.95 L1934.86 1452.69 L1943.12 1451.02 L1947.8 1451.02 L1947.8 1481.64 L1955.44 1481.64 L1955.44 1485.58 L1935.53 1485.58 L1935.53 1481.64 Z" fill="#000000" fill-rule="nonzero" fill-opacity="1" /><path clip-path="url(#clip590)" d="M1234.4 1537.81 L1234.4 1518.52 L1240.26 1518.52 L1240.26 1568.04 L1234.4 1568.04 L1234.4 1562.7 Q1232.56 1565.88 1229.73 1567.44 Q1226.92 1568.97 1222.98 1568.97 Q1216.52 1568.97 1212.44 1563.81 Q1208.4 1558.65 1208.4 1550.25 Q1208.4 1541.85 1212.44 1536.69 Q1216.52 1531.54 1222.98 1531.54 Q1226.92 1531.54 1229.73 1533.1 Q1232.56 1534.62 1234.4 1537.81 M1214.45 1550.25 Q1214.45 1556.71 1217.09 1560.4 Q1219.76 1564.07 1224.41 1564.07 Q1229.06 1564.07 1231.73 1560.4 Q1234.4 1556.71 1234.4 1550.25 Q1234.4 1543.79 1231.73 1540.13 Q1229.06 1536.44 1224.41 1536.44 Q1219.76 1536.44 1217.09 1540.13 Q1214.45 1543.79 1214.45 1550.25 Z" fill="#000000" fill-rule="nonzero" fill-opacity="1" /><path clip-path="url(#clip590)" d="M1268.52 1550.12 Q1261.43 1550.12 1258.69 1551.75 Q1255.95 1553.37 1255.95 1557.29 Q1255.95 1560.4 1257.99 1562.25 Q1260.06 1564.07 1263.59 1564.07 Q1268.46 1564.07 1271.39 1560.63 Q1274.35 1557.16 1274.35 1551.43 L1274.35 1550.12 L1268.52 1550.12 M1280.21 1547.71 L1280.21 1568.04 L1274.35 1568.04 L1274.35 1562.63 Q1272.34 1565.88 1269.35 1567.44 Q1266.36 1568.97 1262.03 1568.97 Q1256.56 1568.97 1253.31 1565.91 Q1250.1 1562.82 1250.1 1557.67 Q1250.1 1551.65 1254.11 1548.6 Q1258.15 1545.54 1266.14 1545.54 L1274.35 1545.54 L1274.35 1544.97 Q1274.35 1540.93 1271.68 1538.73 Q1269.03 1536.5 1264.23 1536.5 Q1261.17 1536.5 1258.28 1537.23 Q1255.38 1537.97 1252.71 1539.43 L1252.71 1534.02 Q1255.92 1532.78 1258.94 1532.17 Q1261.97 1531.54 1264.83 1531.54 Q1272.57 1531.54 1276.39 1535.55 Q1280.21 1539.56 1280.21 1547.71 Z" fill="#000000" fill-rule="nonzero" fill-opacity="1" /><path clip-path="url(#clip590)" d="M1298.06 1522.27 L1298.06 1532.4 L1310.12 1532.4 L1310.12 1536.95 L1298.06 1536.95 L1298.06 1556.3 Q1298.06 1560.66 1299.24 1561.9 Q1300.45 1563.14 1304.11 1563.14 L1310.12 1563.14 L1310.12 1568.04 L1304.11 1568.04 Q1297.33 1568.04 1294.75 1565.53 Q1292.17 1562.98 1292.17 1556.3 L1292.17 1536.95 L1287.88 1536.95 L1287.88 1532.4 L1292.17 1532.4 L1292.17 1522.27 L1298.06 1522.27 Z" fill="#000000" fill-rule="nonzero" fill-opacity="1" /><path clip-path="url(#clip590)" d="M1348.32 1548.76 L1348.32 1551.62 L1321.39 1551.62 Q1321.77 1557.67 1325.02 1560.85 Q1328.3 1564 1334.12 1564 Q1337.5 1564 1340.65 1563.17 Q1343.83 1562.35 1346.95 1560.69 L1346.95 1566.23 Q1343.8 1567.57 1340.49 1568.27 Q1337.18 1568.97 1333.77 1568.97 Q1325.24 1568.97 1320.25 1564 Q1315.28 1559.04 1315.28 1550.57 Q1315.28 1541.82 1319.99 1536.69 Q1324.73 1531.54 1332.75 1531.54 Q1339.95 1531.54 1344.12 1536.18 Q1348.32 1540.8 1348.32 1548.76 M1342.46 1547.04 Q1342.4 1542.23 1339.76 1539.37 Q1337.15 1536.5 1332.82 1536.5 Q1327.92 1536.5 1324.96 1539.27 Q1322.03 1542.04 1321.58 1547.07 L1342.46 1547.04 Z" fill="#000000" fill-rule="nonzero" fill-opacity="1" /><polyline clip-path="url(#clip592)" style="stroke:#000000; stroke-linecap:round; stroke-linejoin:round; stroke-width:2; stroke-opacity:0.1; fill:none" points="203.964,1422.19 2352.76,1422.19 "/>
<polyline clip-path="url(#clip592)" style="stroke:#000000; stroke-linecap:round; stroke-linejoin:round; stroke-width:2; stroke-opacity:0.1; fill:none" points="203.964,992.876 2352.76,992.876 "/>
<polyline clip-path="url(#clip592)" style="stroke:#000000; stroke-linecap:round; stroke-linejoin:round; stroke-width:2; stroke-opacity:0.1; fill:none" points="203.964,563.56 2352.76,563.56 "/>
<polyline clip-path="url(#clip592)" style="stroke:#000000; stroke-linecap:round; stroke-linejoin:round; stroke-width:2; stroke-opacity:0.1; fill:none" points="203.964,134.243 2352.76,134.243 "/>
<polyline clip-path="url(#clip590)" style="stroke:#000000; stroke-linecap:round; stroke-linejoin:round; stroke-width:4; stroke-opacity:1; fill:none" points="203.964,1423.18 203.964,47.2441 "/>
<polyline clip-path="url(#clip590)" style="stroke:#000000; stroke-linecap:round; stroke-linejoin:round; stroke-width:4; stroke-opacity:1; fill:none" points="203.964,1422.19 222.861,1422.19 "/>
<polyline clip-path="url(#clip590)" style="stroke:#000000; stroke-linecap:round; stroke-linejoin:round; stroke-width:4; stroke-opacity:1; fill:none" points="203.964,992.876 222.861,992.876 "/>
<polyline clip-path="url(#clip590)" style="stroke:#000000; stroke-linecap:round; stroke-linejoin:round; stroke-width:4; stroke-opacity:1; fill:none" points="203.964,563.56 222.861,563.56 "/>
<polyline clip-path="url(#clip590)" style="stroke:#000000; stroke-linecap:round; stroke-linejoin:round; stroke-width:4; stroke-opacity:1; fill:none" points="203.964,134.243 222.861,134.243 "/>
<path clip-path="url(#clip590)" d="M156.019 1407.99 Q152.408 1407.99 150.579 1411.56 Q148.774 1415.1 148.774 1422.23 Q148.774 1429.33 150.579 1432.9 Q152.408 1436.44 156.019 1436.44 Q159.653 1436.44 161.459 1432.9 Q163.288 1429.33 163.288 1422.23 Q163.288 1415.1 161.459 1411.56 Q159.653 1407.99 156.019 1407.99 M156.019 1404.29 Q161.829 1404.29 164.885 1408.89 Q167.964 1413.48 167.964 1422.23 Q167.964 1430.95 164.885 1435.56 Q161.829 1440.14 156.019 1440.14 Q150.209 1440.14 147.13 1435.56 Q144.075 1430.95 144.075 1422.23 Q144.075 1413.48 147.13 1408.89 Q150.209 1404.29 156.019 1404.29 Z" fill="#000000" fill-rule="nonzero" fill-opacity="1" /><path clip-path="url(#clip590)" d="M116.668 1006.22 L124.306 1006.22 L124.306 979.856 L115.996 981.522 L115.996 977.263 L124.26 975.596 L128.936 975.596 L128.936 1006.22 L136.575 1006.22 L136.575 1010.16 L116.668 1010.16 L116.668 1006.22 Z" fill="#000000" fill-rule="nonzero" fill-opacity="1" /><path clip-path="url(#clip590)" d="M156.019 978.675 Q152.408 978.675 150.579 982.24 Q148.774 985.782 148.774 992.911 Q148.774 1000.02 150.579 1003.58 Q152.408 1007.12 156.019 1007.12 Q159.653 1007.12 161.459 1003.58 Q163.288 1000.02 163.288 992.911 Q163.288 985.782 161.459 982.24 Q159.653 978.675 156.019 978.675 M156.019 974.971 Q161.829 974.971 164.885 979.578 Q167.964 984.161 167.964 992.911 Q167.964 1001.64 164.885 1006.24 Q161.829 1010.83 156.019 1010.83 Q150.209 1010.83 147.13 1006.24 Q144.075 1001.64 144.075 992.911 Q144.075 984.161 147.13 979.578 Q150.209 974.971 156.019 974.971 Z" fill="#000000" fill-rule="nonzero" fill-opacity="1" /><path clip-path="url(#clip590)" d="M119.885 576.905 L136.204 576.905 L136.204 580.84 L114.26 580.84 L114.26 576.905 Q116.922 574.15 121.505 569.521 Q126.112 564.868 127.292 563.525 Q129.538 561.002 130.417 559.266 Q131.32 557.507 131.32 555.817 Q131.32 553.062 129.376 551.326 Q127.455 549.59 124.353 549.59 Q122.154 549.59 119.7 550.354 Q117.269 551.118 114.492 552.669 L114.492 547.947 Q117.316 546.812 119.769 546.234 Q122.223 545.655 124.26 545.655 Q129.63 545.655 132.825 548.34 Q136.019 551.025 136.019 555.516 Q136.019 557.646 135.209 559.567 Q134.422 561.465 132.316 564.058 Q131.737 564.729 128.635 567.946 Q125.533 571.141 119.885 576.905 Z" fill="#000000" fill-rule="nonzero" fill-opacity="1" /><path clip-path="url(#clip590)" d="M156.019 549.359 Q152.408 549.359 150.579 552.923 Q148.774 556.465 148.774 563.595 Q148.774 570.701 150.579 574.266 Q152.408 577.808 156.019 577.808 Q159.653 577.808 161.459 574.266 Q163.288 570.701 163.288 563.595 Q163.288 556.465 161.459 552.923 Q159.653 549.359 156.019 549.359 M156.019 545.655 Q161.829 545.655 164.885 550.261 Q167.964 554.845 167.964 563.595 Q167.964 572.321 164.885 576.928 Q161.829 581.511 156.019 581.511 Q150.209 581.511 147.13 576.928 Q144.075 572.321 144.075 563.595 Q144.075 554.845 147.13 550.261 Q150.209 545.655 156.019 545.655 Z" fill="#000000" fill-rule="nonzero" fill-opacity="1" /><path clip-path="url(#clip590)" d="M130.024 132.889 Q133.38 133.607 135.255 135.875 Q137.154 138.144 137.154 141.477 Q137.154 146.593 133.635 149.394 Q130.117 152.195 123.635 152.195 Q121.459 152.195 119.144 151.755 Q116.853 151.338 114.399 150.482 L114.399 145.968 Q116.343 147.102 118.658 147.681 Q120.973 148.26 123.496 148.26 Q127.894 148.26 130.186 146.523 Q132.501 144.787 132.501 141.477 Q132.501 138.422 130.348 136.709 Q128.218 134.973 124.399 134.973 L120.371 134.973 L120.371 131.13 L124.584 131.13 Q128.033 131.13 129.862 129.764 Q131.691 128.375 131.691 125.783 Q131.691 123.121 129.792 121.709 Q127.917 120.274 124.399 120.274 Q122.478 120.274 120.279 120.69 Q118.08 121.107 115.441 121.987 L115.441 117.82 Q118.103 117.079 120.418 116.709 Q122.755 116.338 124.816 116.338 Q130.14 116.338 133.242 118.769 Q136.343 121.176 136.343 125.297 Q136.343 128.167 134.7 130.158 Q133.056 132.125 130.024 132.889 Z" fill="#000000" fill-rule="nonzero" fill-opacity="1" /><path clip-path="url(#clip590)" d="M156.019 120.042 Q152.408 120.042 150.579 123.607 Q148.774 127.149 148.774 134.278 Q148.774 141.385 150.579 144.949 Q152.408 148.491 156.019 148.491 Q159.653 148.491 161.459 144.949 Q163.288 141.385 163.288 134.278 Q163.288 127.149 161.459 123.607 Q159.653 120.042 156.019 120.042 M156.019 116.338 Q161.829 116.338 164.885 120.945 Q167.964 125.528 167.964 134.278 Q167.964 143.005 164.885 147.611 Q161.829 152.195 156.019 152.195 Q150.209 152.195 147.13 147.611 Q144.075 143.005 144.075 134.278 Q144.075 125.528 147.13 120.945 Q150.209 116.338 156.019 116.338 Z" fill="#000000" fill-rule="nonzero" fill-opacity="1" /><path clip-path="url(#clip590)" d="M46.0847 888.244 Q46.0847 895.341 47.7079 898.079 Q49.3312 900.816 53.2461 900.816 Q56.3653 900.816 58.2114 898.779 Q60.0256 896.71 60.0256 893.177 Q60.0256 888.307 56.5881 885.379 Q53.1188 882.419 47.3897 882.419 L46.0847 882.419 L46.0847 888.244 M43.6657 876.562 L64.0042 876.562 L64.0042 882.419 L58.5933 882.419 Q61.8398 884.424 63.3994 887.416 Q64.9272 890.408 64.9272 894.737 Q64.9272 900.211 61.8716 903.458 Q58.7843 906.672 53.6281 906.672 Q47.6125 906.672 44.5569 902.662 Q41.5014 898.62 41.5014 890.631 L41.5014 882.419 L40.9285 882.419 Q36.8862 882.419 34.6901 885.093 Q32.4621 887.734 32.4621 892.54 Q32.4621 895.596 33.1941 898.492 Q33.9262 901.389 35.3903 904.062 L29.9795 904.062 Q28.7381 900.848 28.1334 897.824 Q27.4968 894.8 27.4968 891.936 Q27.4968 884.201 31.5072 880.382 Q35.5176 876.562 43.6657 876.562 Z" fill="#000000" fill-rule="nonzero" fill-opacity="1" /><path clip-path="url(#clip590)" d="M29.7248 838.846 L35.1993 838.846 Q33.8307 841.328 33.1623 843.843 Q32.4621 846.325 32.4621 848.872 Q32.4621 854.569 36.0905 857.72 Q39.6872 860.871 46.212 860.871 Q52.7369 860.871 56.3653 857.72 Q59.9619 854.569 59.9619 848.872 Q59.9619 846.325 59.2935 843.843 Q58.5933 841.328 57.2247 838.846 L62.6355 838.846 Q63.7814 841.296 64.3543 843.938 Q64.9272 846.548 64.9272 849.508 Q64.9272 857.561 59.8664 862.303 Q54.8057 867.046 46.212 867.046 Q37.491 867.046 32.4939 862.271 Q27.4968 857.465 27.4968 849.126 Q27.4968 846.421 28.0697 843.843 Q28.6108 841.265 29.7248 838.846 Z" fill="#000000" fill-rule="nonzero" fill-opacity="1" /><path clip-path="url(#clip590)" d="M29.7248 803.007 L35.1993 803.007 Q33.8307 805.489 33.1623 808.004 Q32.4621 810.486 32.4621 813.033 Q32.4621 818.73 36.0905 821.881 Q39.6872 825.032 46.212 825.032 Q52.7369 825.032 56.3653 821.881 Q59.9619 818.73 59.9619 813.033 Q59.9619 810.486 59.2935 808.004 Q58.5933 805.489 57.2247 803.007 L62.6355 803.007 Q63.7814 805.458 64.3543 808.099 Q64.9272 810.709 64.9272 813.669 Q64.9272 821.722 59.8664 826.464 Q54.8057 831.207 46.212 831.207 Q37.491 831.207 32.4939 826.433 Q27.4968 821.626 27.4968 813.287 Q27.4968 810.582 28.0697 808.004 Q28.6108 805.426 29.7248 803.007 Z" fill="#000000" fill-rule="nonzero" fill-opacity="1" /><path clip-path="url(#clip590)" d="M55.9197 791.994 L55.9197 785.278 L64.0042 785.278 L64.0042 791.994 L55.9197 791.994 Z" fill="#000000" fill-rule="nonzero" fill-opacity="1" /><path clip-path="url(#clip590)" d="M33.8307 730.724 Q33.2578 731.711 33.0032 732.888 Q32.7167 734.034 32.7167 735.435 Q32.7167 740.4 35.9632 743.074 Q39.1779 745.715 45.2253 745.715 L64.0042 745.715 L64.0042 751.604 L28.3562 751.604 L28.3562 745.715 L33.8944 745.715 Q30.6479 743.869 29.0883 740.909 Q27.4968 737.949 27.4968 733.716 Q27.4968 733.111 27.5923 732.379 Q27.656 731.647 27.8151 730.756 L33.8307 730.724 Z" fill="#000000" fill-rule="nonzero" fill-opacity="1" /><path clip-path="url(#clip590)" d="M44.7161 695.522 L47.5806 695.522 L47.5806 722.449 Q53.6281 722.067 56.8109 718.82 Q59.9619 715.542 59.9619 709.717 Q59.9619 706.343 59.1344 703.192 Q58.3069 700.01 56.6518 696.89 L62.1899 696.89 Q63.5267 700.041 64.227 703.352 Q64.9272 706.662 64.9272 710.067 Q64.9272 718.597 59.9619 723.595 Q54.9967 728.56 46.5303 728.56 Q37.7774 728.56 32.6531 723.849 Q27.4968 719.107 27.4968 711.086 Q27.4968 703.893 32.1438 699.723 Q36.7589 695.522 44.7161 695.522 M42.9973 701.378 Q38.1912 701.442 35.3266 704.084 Q32.4621 706.694 32.4621 711.022 Q32.4621 715.924 35.2312 718.884 Q38.0002 721.812 43.0292 722.258 L42.9973 701.378 Z" fill="#000000" fill-rule="nonzero" fill-opacity="1" /><path clip-path="url(#clip590)" d="M18.2347 680.117 L28.3562 680.117 L28.3562 668.054 L32.9077 668.054 L32.9077 680.117 L52.2594 680.117 Q56.6199 680.117 57.8613 678.939 Q59.1026 677.73 59.1026 674.069 L59.1026 668.054 L64.0042 668.054 L64.0042 674.069 Q64.0042 680.849 61.4897 683.427 Q58.9434 686.005 52.2594 686.005 L32.9077 686.005 L32.9077 690.302 L28.3562 690.302 L28.3562 686.005 L18.2347 686.005 L18.2347 680.117 Z" fill="#000000" fill-rule="nonzero" fill-opacity="1" /><path clip-path="url(#clip590)" d="M49.9359 660.956 L28.3562 660.956 L28.3562 655.1 L49.7131 655.1 Q54.7739 655.1 57.3202 653.126 Q59.8346 651.153 59.8346 647.206 Q59.8346 642.464 56.8109 639.726 Q53.7872 636.957 48.5673 636.957 L28.3562 636.957 L28.3562 631.101 L64.0042 631.101 L64.0042 636.957 L58.5296 636.957 Q61.7762 639.09 63.3676 641.923 Q64.9272 644.723 64.9272 648.447 Q64.9272 654.59 61.1078 657.773 Q57.2883 660.956 49.9359 660.956 M27.4968 646.219 L27.4968 646.219 Z" fill="#000000" fill-rule="nonzero" fill-opacity="1" /><path clip-path="url(#clip590)" d="M33.8307 598.381 Q33.2578 599.368 33.0032 600.545 Q32.7167 601.691 32.7167 603.092 Q32.7167 608.057 35.9632 610.731 Q39.1779 613.372 45.2253 613.372 L64.0042 613.372 L64.0042 619.261 L28.3562 619.261 L28.3562 613.372 L33.8944 613.372 Q30.6479 611.526 29.0883 608.566 Q27.4968 605.606 27.4968 601.373 Q27.4968 600.768 27.5923 600.036 Q27.656 599.304 27.8151 598.413 L33.8307 598.381 Z" fill="#000000" fill-rule="nonzero" fill-opacity="1" /><path clip-path="url(#clip590)" d="M42.4881 563.752 L64.0042 563.752 L64.0042 569.608 L42.679 569.608 Q37.6183 569.608 35.1038 571.581 Q32.5894 573.555 32.5894 577.502 Q32.5894 582.244 35.6131 584.981 Q38.6368 587.719 43.8567 587.719 L64.0042 587.719 L64.0042 593.607 L28.3562 593.607 L28.3562 587.719 L33.8944 587.719 Q30.6797 585.618 29.0883 582.785 Q27.4968 579.921 27.4968 576.197 Q27.4968 570.054 31.3163 566.903 Q35.1038 563.752 42.4881 563.752 Z" fill="#000000" fill-rule="nonzero" fill-opacity="1" /><polyline clip-path="url(#clip592)" style="stroke:#009af9; stroke-linecap:round; stroke-linejoin:round; stroke-width:12; stroke-opacity:1; fill:none" points="264.778,1379.26 270.554,1379.9 276.329,1379.26 282.105,1378.41 287.88,1376.48 305.206,1375.2 310.982,1373.28 316.757,1375.63 322.532,1375.63 328.308,1372.43 351.409,1356.83 357.185,1358.76 362.96,1358.54 368.736,1347.22 386.062,1327.79 391.837,1316.25 397.612,997.148 403.388,1237.86 409.163,1138.97 426.489,1138.12 432.265,1255.17 438.04,1230.6 443.816,1270.76 449.591,1276.31 466.917,1290.19 472.693,1304.72 478.468,1298.31 484.243,1302.37 490.019,1302.8 513.12,1301.51 518.896,1303.65 524.671,1304.5 530.446,1300.45 547.773,1282.29 553.548,1257.73 559.323,1228.04 565.099,1245.13 570.874,1251.11 588.2,1226.12 593.976,1231.46 599.751,1238.93 605.527,1250.68 611.302,1250.25 628.628,1223.77 634.404,1197.92 640.179,1211.81 645.954,1202.62 651.73,1183.83 668.815,1122.31 674.591,1144.1 680.366,1132.56 686.141,1123.17 691.917,1124.66 709.243,1155.42 715.018,1194.51 720.794,1229.53 726.569,1188.53 732.345,1203.48 749.671,1201.13 755.446,1201.13 761.222,1204.12 766.997,1222.27 790.098,1195.57 795.874,1204.33 801.649,1211.81 807.425,1213.09 813.2,1220.99 830.526,1238.08 836.302,1233.38 842.077,1222.49 847.852,1210.74 853.628,1222.91 870.954,1215.86 876.729,1223.98 882.505,1213.3 888.28,1208.82 894.056,1205.19 911.382,1176.56 917.157,1177.42 922.932,1190.45 928.708,1204.33 934.483,1207.96 951.809,1214.8 957.585,1221.63 963.36,1226.33 969.136,1229.96 974.911,1219.07 992.237,1214.16 998.013,1207.53 1003.79,1201.77 1009.56,1149.44 1015.34,1144.95 1032.66,1124.23 1038.44,1122.53 1044.22,1152.21 1049.99,1154.14 1055.77,1164.18 1073.09,1130 1078.87,1071.69 1084.64,1004.41 1090.42,855.751 1096.19,864.295 1119.3,737.85 1125.07,86.1857 1130.85,325.62 1136.62,398.882 1153.95,247.446 1159.72,246.378 1165.5,368.338 1171.27,507.813 1177.05,367.057 1194.38,204.728 1200.15,161.156 1205.93,243.602 1211.7,125.059 1217.48,156.457 1234.8,232.709 1240.58,177.602 1246.35,176.962 1252.13,211.136 1257.91,267.524 1275.23,181.02 1281.01,216.903 1286.78,211.563 1292.56,264.106 1298.33,312.378 1321.43,355.096 1327.21,459.541 1332.99,398.241 1338.76,435.619 1356.09,512.085 1361.86,581.715 1367.64,708.161 1373.41,653.268 1379.19,675.481 1396.51,682.743 1402.29,501.832 1408.07,551.172 1413.84,626.783 1419.62,632.122 1436.94,561.638 1442.72,610.336 1448.49,591.327 1454.27,607.773 1460.04,631.482 1477.37,670.355 1483.15,704.743 1488.92,784.839 1494.7,706.452 1500.47,723.753 1517.8,700.258 1523.57,744.044 1529.35,748.316 1535.12,715.85 1540.9,707.306 1558.23,659.889 1564,628.491 1569.78,641.52 1575.55,699.831 1581.33,687.229 1598.65,636.608 1604.43,476.842 1610.2,483.25 1615.98,561.21 1621.75,549.89 1639.08,496.706 1644.86,415.542 1650.63,489.017 1656.41,474.279 1662.18,481.968 1685.28,400.591 1691.06,409.775 1696.84,385.853 1702.61,350.824 1719.94,318.145 1725.71,411.911 1731.49,421.736 1737.26,438.823 1743.04,478.124 1760.36,561.638 1766.14,593.035 1771.92,566.123 1777.69,568.259 1783.47,567.618 1800.79,582.783 1806.57,632.122 1812.34,663.093 1818.12,609.268 1823.89,600.725 1841.22,636.821 1847,630.627 1852.77,635.54 1858.55,607.56 1864.32,627.851 1881.65,626.569 1887.42,635.753 1893.2,612.472 1898.97,566.337 1904.75,552.026 1922.08,503.114 1927.85,550.745 1933.63,549.036 1939.4,584.065 1945.18,640.452 1962.5,635.54 1968.28,652.2 1974.05,679.753 1979.83,669.714 1985.6,666.724 2002.93,630.414 2008.71,593.676 2014.48,550.958 2020.26,566.764 2026.03,531.521 2043.6,459.755 2049.37,569.327 2055.15,604.356 2060.93,579.366 2066.7,567.832 2084.03,510.59 2089.8,512.298 2095.58,522.337 2101.35,559.075 2107.13,549.249 2124.45,541.347 2130.23,585.773 2136.01,591.54 2147.56,618.453 2164.88,635.326 2170.66,697.267 2176.43,811.965 2182.21,775.442 2187.98,802.567 2205.31,807.266 2211.09,759.209 2216.86,731.228 2222.64,792.956 2228.41,836.101 2245.74,925.809 2251.51,898.897 2257.29,895.479 2263.06,899.965 2268.84,800.218 2286.17,787.83 2291.94,775.014 "/>
<polyline clip-path="url(#clip592)" style="stroke:#e26f46; stroke-linecap:round; stroke-linejoin:round; stroke-width:12; stroke-opacity:1; fill:none" points="264.778,1379.26 270.554,1375.99 276.329,1373.43 282.105,1372.77 287.88,1373.99 305.206,1373.41 310.982,1369.73 316.757,1371.28 322.532,1368.22 328.308,1370.11 351.409,1368.96 357.185,1369.04 362.96,1373.25 368.736,1374.82 386.062,1375.96 391.837,1377.34 397.612,1376.39 403.388,1376.41 409.163,1378.38 426.489,1377.58 432.265,1377.05 438.04,1373.75 443.816,1373.88 449.591,1374.55 466.917,1372.29 472.693,1371.97 478.468,1369.68 484.243,1370.82 490.019,1369.01 513.12,1366.65 518.896,1364.36 524.671,1367.52 530.446,1366.75 547.773,1365.63 553.548,1364.73 559.323,1362.92 565.099,1365.37 570.874,1364.86 588.2,1362.57 593.976,1362.36 599.751,1361.8 605.527,1359.33 611.302,1354.03 628.628,1356.8 634.404,1358.77 640.179,1358.58 645.954,1356.61 651.73,1357.65 668.815,1356.69 674.591,1359.62 680.366,1359.17 686.141,1362.68 691.917,1361.77 709.243,1362.76 715.018,1364.33 720.794,1362.73 726.569,1362.71 732.345,1361.67 749.671,1364.04 755.446,1363.64 761.222,1364.04 766.997,1359.65 790.098,1362.41 795.874,1361.56 801.649,1362.25 807.425,1362.73 813.2,1363.53 830.526,1363.96 836.302,1364.46 842.077,1362.33 847.852,1362.65 853.628,1363.96 870.954,1363.56 876.729,1366.38 882.505,1365.85 888.28,1366.3 894.056,1365.13 911.382,1363.98 917.157,1363.26 922.932,1358.23 928.708,1358.13 934.483,1359.96 951.809,1359.33 957.585,1359.78 963.36,1355.04 969.136,1354.93 974.911,1352.41 992.237,1352.96 998.013,1353.68 1003.79,1354.11 1009.56,1356.32 1015.34,1351.98 1032.66,1349.82 1038.44,1352.35 1044.22,1354.91 1049.99,1354.96 1055.77,1354.72 1073.09,1353.12 1078.87,1353.52 1084.64,1351.9 1090.42,1351.26 1096.19,1351.5 1119.3,1341.81 1125.07,1340.22 1130.85,1339.23 1136.62,1337.93 1153.95,1339.9 1159.72,1340.08 1165.5,1342.53 1171.27,1343.97 1177.05,1344.23 1194.38,1345.06 1200.15,1343.41 1205.93,1344.85 1211.7,1348.76 1217.48,1350.99 1234.8,1346.07 1240.58,1346.23 1246.35,1344.74 1252.13,1343.04 1257.91,1342.98 1275.23,1346.58 1281.01,1347.61 1286.78,1344.5 1292.56,1342.45 1298.33,1344.39 1321.43,1348.09 1327.21,1348.92 1332.99,1348.31 1338.76,1345.94 1356.09,1345.8 1361.86,1345.09 1367.64,1349.53 1373.41,1351.26 1379.19,1353.58 1396.51,1355.84 1402.29,1354.77 1408.07,1352.09 1413.84,1353.02 1419.62,1354 1436.94,1351.26 1442.72,1353.15 1448.49,1351.77 1454.27,1351.31 1460.04,1353.42 1477.37,1354.35 1483.15,1352.43 1488.92,1354.88 1494.7,1351.31 1500.47,1350.3 1517.8,1351.29 1523.57,1348.6 1529.35,1347.67 1535.12,1346.42 1540.9,1347.64 1558.23,1349.88 1564,1350.57 1569.78,1352.62 1575.55,1354.75 1581.33,1353.79 1598.65,1349.64 1604.43,1346.26 1610.2,1344.37 1615.98,1344.77 1621.75,1341.39 1639.08,1342.93 1644.86,1343.54 1650.63,1347.03 1656.41,1344.15 1662.18,1344.55 1685.28,1344.85 1691.06,1347.06 1696.84,1346.47 1702.61,1347.48 1719.94,1345.22 1725.71,1346.95 1731.49,1341.47 1737.26,1341.52 1743.04,1342.9 1760.36,1347.19 1766.14,1346.36 1771.92,1341.17 1777.69,1334.89 1783.47,1334.12 1800.79,1329.04 1806.57,1328.69 1812.34,1327.04 1818.12,1327.68 1823.89,1324.22 1841.22,1319.03 1847,1315.52 1852.77,1319.24 1858.55,1319.99 1864.32,1316.1 1881.65,1317.19 1887.42,1317.72 1893.2,1318.42 1898.97,1316.31 1904.75,1315.46 1922.08,1314.34 1927.85,1314.93 1933.63,1313.31 1939.4,1316.53 1945.18,1314.56 1962.5,1313.97 1968.28,1311.71 1974.05,1316.77 1979.83,1314.4 1985.6,1315.52 2002.93,1310.43 2008.71,1310.46 2014.48,1310.49 2020.26,1309.45 2026.03,1306.2 2043.6,1304.76 2049.37,1305.11 2055.15,1309.53 2060.93,1308.49 2066.7,1308.86 2084.03,1307.26 2089.8,1306.6 2095.58,1309.63 2101.35,1306.89 2107.13,1314.13 2124.45,1312.69 2130.23,1306.57 2136.01,1302.18 2147.56,1308.54 2164.88,1305.3 2170.66,1310.25 2176.43,1313.49 2182.21,1311.5 2187.98,1311.02 2205.31,1309.45 2211.09,1302.1 2216.86,1302.66 2222.64,1309.55 2228.41,1306.63 2245.74,1312.91 2251.51,1314.82 2257.29,1315.78 2263.06,1314.77 2268.84,1317.86 2286.17,1320.36 2291.94,1312.24 "/>
<polyline clip-path="url(#clip592)" style="stroke:#3da44d; stroke-linecap:round; stroke-linejoin:round; stroke-width:12; stroke-opacity:1; fill:none" points="264.778,1379.26 270.554,1378.31 276.329,1380.89 282.105,1378.51 287.88,1378.73 305.206,1377.6 310.982,1378.05 316.757,1377.89 322.532,1378.98 328.308,1380.09 351.409,1379.55 357.185,1378.44 362.96,1376.79 368.736,1377.3 386.062,1377.49 391.837,1378.21 397.612,1379.9 403.388,1379.47 409.163,1379.67 426.489,1378.86 432.265,1377.81 438.04,1377.9 443.816,1377.46 449.591,1377.7 466.917,1374.92 472.693,1375.5 478.468,1373.86 484.243,1372.26 490.019,1373.21 513.12,1372 518.896,1373.39 524.671,1373.64 530.446,1373.33 547.773,1375.19 553.548,1375.89 559.323,1374.73 565.099,1378.63 570.874,1377.29 588.2,1376.88 593.976,1378.3 599.751,1380.27 605.527,1381.69 611.302,1381.4 628.628,1384.24 634.404,1381.2 640.179,1381.37 645.954,1379.65 651.73,1380.1 668.815,1379.01 674.591,1378.68 680.366,1378.52 686.141,1380.54 691.917,1380.14 709.243,1379.02 715.018,1379.4 720.794,1380.8 726.569,1381.15 732.345,1380.16 749.671,1379.8 755.446,1380.05 761.222,1378.49 766.997,1376.98 790.098,1376.4 795.874,1376.81 801.649,1375.89 807.425,1375.32 813.2,1375.05 830.526,1372.4 836.302,1370.86 842.077,1372.18 847.852,1369.36 853.628,1370.1 870.954,1371.9 876.729,1372.52 882.505,1371.9 888.28,1373.58 894.056,1372.22 911.382,1371.52 917.157,1371.84 922.932,1372.18 928.708,1372.02 934.483,1373.05 951.809,1373.62 957.585,1375.21 963.36,1374.86 969.136,1374.65 974.911,1373.7 992.237,1375.49 998.013,1375.36 1003.79,1377.15 1009.56,1377.45 1015.34,1375.56 1032.66,1375.82 1038.44,1376.31 1044.22,1376.14 1049.99,1374.35 1055.77,1373.11 1073.09,1371.08 1078.87,1370.96 1084.64,1370.79 1090.42,1371.49 1096.19,1369.01 1119.3,1368.95 1125.07,1367.26 1130.85,1366.64 1136.62,1364.64 1153.95,1364.51 1159.72,1365.04 1165.5,1365.36 1171.27,1365.15 1177.05,1363.84 1194.38,1363.2 1200.15,1363.96 1205.93,1363.88 1211.7,1361.11 1217.48,1361.17 1234.8,1361.86 1240.58,1360.36 1246.35,1359.8 1252.13,1359.32 1257.91,1359.89 1275.23,1356.76 1281.01,1356.63 1286.78,1356.71 1292.56,1356.02 1298.33,1355.12 1321.43,1354.43 1327.21,1355.5 1332.99,1357.03 1338.76,1356.55 1356.09,1355.04 1361.86,1355.9 1367.64,1357.23 1373.41,1360.1 1379.19,1362.74 1396.51,1360.71 1402.29,1361.26 1408.07,1358.65 1413.84,1358.04 1419.62,1358.16 1436.94,1359.03 1442.72,1359.31 1448.49,1358.34 1454.27,1357.82 1460.04,1358.36 1477.37,1357.53 1483.15,1357.32 1488.92,1355.82 1494.7,1354.63 1500.47,1355.52 1517.8,1355.75 1523.57,1356.93 1529.35,1357.7 1535.12,1357.03 1540.9,1356.1 1558.23,1356.88 1564,1358.49 1569.78,1359.86 1575.55,1357.38 1581.33,1354.04 1598.65,1350.31 1604.43,1350.85 1610.2,1349.47 1615.98,1349.95 1621.75,1348.09 1639.08,1347.92 1644.86,1348.91 1650.63,1348.72 1656.41,1348.87 1662.18,1347.41 1685.28,1348 1691.06,1349.06 1696.84,1349.59 1702.61,1348.6 1719.94,1349.67 1725.71,1349.38 1731.49,1349.05 1737.26,1349.38 1743.04,1350.5 1760.36,1353.07 1766.14,1352.64 1771.92,1350.36 1777.69,1348.59 1783.47,1349.9 1800.79,1351.28 1806.57,1354.43 1812.34,1355.02 1818.12,1354.37 1823.89,1354.29 1841.22,1357.59 1847,1355.24 1852.77,1354.42 1858.55,1353.2 1864.32,1354 1881.65,1354.44 1887.42,1354.52 1893.2,1353.64 1898.97,1351 1904.75,1350.62 1922.08,1349.44 1927.85,1349.22 1933.63,1349.83 1939.4,1347.9 1945.18,1347.79 1962.5,1346.35 1968.28,1341.27 1974.05,1342.14 1979.83,1340.54 1985.6,1338.49 2002.93,1337.64 2008.71,1335.76 2014.48,1335.11 2020.26,1324.63 2026.03,1324.79 2043.6,1321.35 2049.37,1321.83 2055.15,1325.75 2060.93,1322.7 2066.7,1322.7 2084.03,1323.9 2089.8,1323.31 2095.58,1326.4 2101.35,1318.49 2107.13,1314.2 2124.45,1317.57 2130.23,1318.26 2136.01,1315.22 2147.56,1319.06 2164.88,1312.92 2170.66,1315.22 2176.43,1319.28 2182.21,1317.02 2187.98,1321.71 2205.31,1323.86 2211.09,1316.03 2216.86,1318 2222.64,1322.37 2228.41,1323.33 2245.74,1330 2251.51,1329.42 2257.29,1322.47 2263.06,1329.26 2268.84,1331.18 2286.17,1331.44 2291.94,1327.01 "/>
<path clip-path="url(#clip590)" d="M1812.87 300.469 L2281.13 300.469 L2281.13 93.1086 L1812.87 93.1086  Z" fill="#ffffff" fill-rule="evenodd" fill-opacity="1"/>
<polyline clip-path="url(#clip590)" style="stroke:#000000; stroke-linecap:round; stroke-linejoin:round; stroke-width:4; stroke-opacity:1; fill:none" points="1812.87,300.469 2281.13,300.469 2281.13,93.1086 1812.87,93.1086 1812.87,300.469 "/>
<polyline clip-path="url(#clip590)" style="stroke:#009af9; stroke-linecap:round; stroke-linejoin:round; stroke-width:12; stroke-opacity:1; fill:none" points="1836.75,144.949 1980,144.949 "/>
<path clip-path="url(#clip590)" d="M2003.88 127.669 L2010.17 127.669 L2025.5 156.581 L2025.5 127.669 L2030.03 127.669 L2030.03 162.229 L2023.74 162.229 L2008.41 133.317 L2008.41 162.229 L2003.88 162.229 L2003.88 127.669 Z" fill="#000000" fill-rule="nonzero" fill-opacity="1" /><path clip-path="url(#clip590)" d="M2034.59 127.669 L2039.62 127.669 L2049.2 141.882 L2058.71 127.669 L2063.74 127.669 L2051.51 145.77 L2051.51 162.229 L2046.82 162.229 L2046.82 145.77 L2034.59 127.669 Z" fill="#000000" fill-rule="nonzero" fill-opacity="1" /><path clip-path="url(#clip590)" d="M2082.32 130.84 Q2077.23 130.84 2074.22 134.636 Q2071.24 138.432 2071.24 144.983 Q2071.24 151.511 2074.22 155.307 Q2077.23 159.104 2082.32 159.104 Q2087.42 159.104 2090.38 155.307 Q2093.37 151.511 2093.37 144.983 Q2093.37 138.432 2090.38 134.636 Q2087.42 130.84 2082.32 130.84 M2088.88 161.604 L2095.03 168.34 L2089.38 168.34 L2084.27 162.807 Q2083.5 162.854 2083.09 162.877 Q2082.69 162.9 2082.32 162.9 Q2075.03 162.9 2070.66 158.039 Q2066.31 153.155 2066.31 144.983 Q2066.31 136.789 2070.66 131.928 Q2075.03 127.044 2082.32 127.044 Q2089.59 127.044 2093.94 131.928 Q2098.3 136.789 2098.3 144.983 Q2098.3 151.002 2095.87 155.284 Q2093.46 159.567 2088.88 161.604 Z" fill="#000000" fill-rule="nonzero" fill-opacity="1" /><path clip-path="url(#clip590)" d="M2113 127.669 L2116.93 127.669 L2104.89 166.627 L2100.96 166.627 L2113 127.669 Z" fill="#000000" fill-rule="nonzero" fill-opacity="1" /><path clip-path="url(#clip590)" d="M2133.13 132.275 L2126.79 149.474 L2139.5 149.474 L2133.13 132.275 M2130.5 127.669 L2135.8 127.669 L2148.97 162.229 L2144.11 162.229 L2140.96 153.363 L2125.38 153.363 L2122.23 162.229 L2117.3 162.229 L2130.5 127.669 Z" fill="#000000" fill-rule="nonzero" fill-opacity="1" /><path clip-path="url(#clip590)" d="M2154.01 127.669 L2160.98 127.669 L2169.8 151.187 L2178.67 127.669 L2185.63 127.669 L2185.63 162.229 L2181.07 162.229 L2181.07 131.882 L2172.16 155.585 L2167.46 155.585 L2158.55 131.882 L2158.55 162.229 L2154.01 162.229 L2154.01 127.669 Z" fill="#000000" fill-rule="nonzero" fill-opacity="1" /><path clip-path="url(#clip590)" d="M2220.8 130.331 L2220.8 135.261 Q2218.43 133.062 2215.75 131.974 Q2213.09 130.886 2210.08 130.886 Q2204.15 130.886 2201 134.52 Q2197.86 138.132 2197.86 144.983 Q2197.86 151.812 2201 155.446 Q2204.15 159.057 2210.08 159.057 Q2213.09 159.057 2215.75 157.969 Q2218.43 156.881 2220.8 154.682 L2220.8 159.567 Q2218.34 161.233 2215.59 162.067 Q2212.86 162.9 2209.8 162.9 Q2201.95 162.9 2197.44 158.108 Q2192.93 153.293 2192.93 144.983 Q2192.93 136.65 2197.44 131.858 Q2201.95 127.044 2209.8 127.044 Q2212.9 127.044 2215.63 127.877 Q2218.39 128.687 2220.8 130.331 Z" fill="#000000" fill-rule="nonzero" fill-opacity="1" /><polyline clip-path="url(#clip590)" style="stroke:#e26f46; stroke-linecap:round; stroke-linejoin:round; stroke-width:12; stroke-opacity:1; fill:none" points="1836.75,196.789 1980,196.789 "/>
<path clip-path="url(#clip590)" d="M2003.88 179.509 L2010.17 179.509 L2025.5 208.421 L2025.5 179.509 L2030.03 179.509 L2030.03 214.069 L2023.74 214.069 L2008.41 185.157 L2008.41 214.069 L2003.88 214.069 L2003.88 179.509 Z" fill="#000000" fill-rule="nonzero" fill-opacity="1" /><path clip-path="url(#clip590)" d="M2034.59 179.509 L2039.62 179.509 L2049.2 193.722 L2058.71 179.509 L2063.74 179.509 L2051.51 197.61 L2051.51 214.069 L2046.82 214.069 L2046.82 197.61 L2034.59 179.509 Z" fill="#000000" fill-rule="nonzero" fill-opacity="1" /><path clip-path="url(#clip590)" d="M2082.32 182.68 Q2077.23 182.68 2074.22 186.476 Q2071.24 190.272 2071.24 196.823 Q2071.24 203.351 2074.22 207.147 Q2077.23 210.944 2082.32 210.944 Q2087.42 210.944 2090.38 207.147 Q2093.37 203.351 2093.37 196.823 Q2093.37 190.272 2090.38 186.476 Q2087.42 182.68 2082.32 182.68 M2088.88 213.444 L2095.03 220.18 L2089.38 220.18 L2084.27 214.647 Q2083.5 214.694 2083.09 214.717 Q2082.69 214.74 2082.32 214.74 Q2075.03 214.74 2070.66 209.879 Q2066.31 204.995 2066.31 196.823 Q2066.31 188.629 2070.66 183.768 Q2075.03 178.884 2082.32 178.884 Q2089.59 178.884 2093.94 183.768 Q2098.3 188.629 2098.3 196.823 Q2098.3 202.842 2095.87 207.124 Q2093.46 211.407 2088.88 213.444 Z" fill="#000000" fill-rule="nonzero" fill-opacity="1" /><path clip-path="url(#clip590)" d="M2113 179.509 L2116.93 179.509 L2104.89 218.467 L2100.96 218.467 L2113 179.509 Z" fill="#000000" fill-rule="nonzero" fill-opacity="1" /><path clip-path="url(#clip590)" d="M2126.26 183.351 L2126.26 210.226 L2131.91 210.226 Q2139.06 210.226 2142.37 206.985 Q2145.7 203.745 2145.7 196.754 Q2145.7 189.809 2142.37 186.592 Q2139.06 183.351 2131.91 183.351 L2126.26 183.351 M2121.58 179.509 L2131.19 179.509 Q2141.24 179.509 2145.94 183.698 Q2150.63 187.865 2150.63 196.754 Q2150.63 205.689 2145.91 209.879 Q2141.19 214.069 2131.19 214.069 L2121.58 214.069 L2121.58 179.509 Z" fill="#000000" fill-rule="nonzero" fill-opacity="1" /><path clip-path="url(#clip590)" d="M2166.17 214.069 L2152.97 179.509 L2157.86 179.509 L2168.81 208.606 L2179.78 179.509 L2184.64 179.509 L2171.47 214.069 L2166.17 214.069 Z" fill="#000000" fill-rule="nonzero" fill-opacity="1" /><path clip-path="url(#clip590)" d="M2189.68 179.509 L2195.98 179.509 L2211.31 208.421 L2211.31 179.509 L2215.84 179.509 L2215.84 214.069 L2209.55 214.069 L2194.22 185.157 L2194.22 214.069 L2189.68 214.069 L2189.68 179.509 Z" fill="#000000" fill-rule="nonzero" fill-opacity="1" /><polyline clip-path="url(#clip590)" style="stroke:#3da44d; stroke-linecap:round; stroke-linejoin:round; stroke-width:12; stroke-opacity:1; fill:none" points="1836.75,248.629 1980,248.629 "/>
<path clip-path="url(#clip590)" d="M2003.88 231.349 L2010.17 231.349 L2025.5 260.261 L2025.5 231.349 L2030.03 231.349 L2030.03 265.909 L2023.74 265.909 L2008.41 236.997 L2008.41 265.909 L2003.88 265.909 L2003.88 231.349 Z" fill="#000000" fill-rule="nonzero" fill-opacity="1" /><path clip-path="url(#clip590)" d="M2039.34 231.349 L2046.31 231.349 L2055.13 254.867 L2063.99 231.349 L2070.96 231.349 L2070.96 265.909 L2066.4 265.909 L2066.4 235.562 L2057.49 259.265 L2052.79 259.265 L2043.88 235.562 L2043.88 265.909 L2039.34 265.909 L2039.34 231.349 Z" fill="#000000" fill-rule="nonzero" fill-opacity="1" /><path clip-path="url(#clip590)" d="M2100.96 232.483 L2100.96 237.043 Q2098.3 235.77 2095.94 235.145 Q2093.57 234.52 2091.38 234.52 Q2087.56 234.52 2085.47 236.001 Q2083.41 237.483 2083.41 240.214 Q2083.41 242.506 2084.78 243.687 Q2086.17 244.844 2090.01 245.562 L2092.83 246.14 Q2098.07 247.136 2100.54 249.659 Q2103.04 252.159 2103.04 256.372 Q2103.04 261.395 2099.66 263.987 Q2096.31 266.58 2089.8 266.58 Q2087.35 266.58 2084.57 266.024 Q2081.82 265.469 2078.85 264.381 L2078.85 259.566 Q2081.7 261.163 2084.43 261.973 Q2087.16 262.784 2089.8 262.784 Q2093.81 262.784 2095.98 261.21 Q2098.16 259.636 2098.16 256.719 Q2098.16 254.173 2096.58 252.737 Q2095.03 251.302 2091.47 250.585 L2088.62 250.029 Q2083.39 248.987 2081.05 246.765 Q2078.71 244.543 2078.71 240.585 Q2078.71 236.001 2081.93 233.362 Q2085.17 230.724 2090.84 230.724 Q2093.27 230.724 2095.8 231.163 Q2098.32 231.603 2100.96 232.483 Z" fill="#000000" fill-rule="nonzero" fill-opacity="1" /><path clip-path="url(#clip590)" d="M2117.72 231.349 L2121.65 231.349 L2109.62 270.307 L2105.68 270.307 L2117.72 231.349 Z" fill="#000000" fill-rule="nonzero" fill-opacity="1" /><path clip-path="url(#clip590)" d="M2126.31 231.349 L2132.6 231.349 L2147.93 260.261 L2147.93 231.349 L2152.46 231.349 L2152.46 265.909 L2146.17 265.909 L2130.84 236.997 L2130.84 265.909 L2126.31 265.909 L2126.31 231.349 Z" fill="#000000" fill-rule="nonzero" fill-opacity="1" /><path clip-path="url(#clip590)" d="M2170.68 265.909 L2157.49 231.349 L2162.37 231.349 L2173.32 260.446 L2184.29 231.349 L2189.15 231.349 L2175.98 265.909 L2170.68 265.909 Z" fill="#000000" fill-rule="nonzero" fill-opacity="1" /><path clip-path="url(#clip590)" d="M2198.87 235.191 L2198.87 262.066 L2204.52 262.066 Q2211.68 262.066 2214.99 258.825 Q2218.32 255.585 2218.32 248.594 Q2218.32 241.649 2214.99 238.432 Q2211.68 235.191 2204.52 235.191 L2198.87 235.191 M2194.2 231.349 L2203.81 231.349 Q2213.85 231.349 2218.55 235.538 Q2223.25 239.705 2223.25 248.594 Q2223.25 257.529 2218.53 261.719 Q2213.81 265.909 2203.81 265.909 L2194.2 265.909 L2194.2 231.349 Z" fill="#000000" fill-rule="nonzero" fill-opacity="1" /><path clip-path="url(#clip590)" d="M2241.42 235.955 L2235.08 253.154 L2247.79 253.154 L2241.42 235.955 M2238.78 231.349 L2244.08 231.349 L2257.25 265.909 L2252.39 265.909 L2249.24 257.043 L2233.67 257.043 L2230.52 265.909 L2225.59 265.909 L2238.78 231.349 Z" fill="#000000" fill-rule="nonzero" fill-opacity="1" /></svg>
